<?xml version="1.0" encoding="utf-8"?>
<!-- Generated by IcoMoon.io -->
<!DOCTYPE svg PUBLIC "-//W3C//DTD SVG 1.1//EN" "http://www.w3.org/Graphics/SVG/1.1/DTD/svg11.dtd">
<svg version="1.1" xmlns="http://www.w3.org/2000/svg" xmlns:xlink="http://www.w3.org/1999/xlink" width="32" height="32" viewBox="0 0 32 32">
<path fill="#444444" d="M2.556 4.402v23.239c0 0.864 0.701 1.565 1.565 1.565h1.933v-26.369h-1.933c-0.864 0-1.565 0.7-1.565 1.565zM7.932 2.838v26.369h17.713v-26.369h-17.713zM23.568 22.303h-13.56c-0.011-0.581 0.030-1.628 0.030-2.071 0.225-0.652 0.97-0.746 1.593-1.009 0.683-0.288 1.442-0.623 2.124-0.902 0.195-0.053 0.389-0.106 0.584-0.16 0.232-0.16 0.46-0.691 0.584-0.956l0.276-0.067c-0.063-0.349-0.278-0.377-0.369-0.623-0.035-0.372-0.071-0.744-0.106-1.115 0.002 0.017-0.254-0.047-0.287-0.068-0.361-0.226-0.368-1.144-0.403-1.525-0.016-0.174 0.227-0.317 0.159-0.637-0.395-1.873 0.171-2.749 1.066-3.040 0.621-0.252 1.781-0.719 2.863-0.053l0.269 0.249 0.434 0.075c0.218 0.126 0.357 0.543 0.357 0.543 0.114 0.461 0.126 0.499 0.115 0.973-0.004 0.182-0.109 1.025-0.081 1.284 0.023 0.213 0.077 0.23 0.161 0.406 0.147 0.306 0.097 0.728 0.041 1.037-0.031 0.169-0.096 0.409-0.195 0.547-0.109 0.152-0.327 0.153-0.423 0.33-0.139 0.255-0.061 0.613-0.148 0.889-0.099 0.312-0.353 0.334-0.372 0.743 0.124 0.018 0.248 0.035 0.372 0.053 0.124 0.264 0.352 0.796 0.584 0.956 0.195 0.053 0.389 0.107 0.584 0.16 0.682 0.28 1.44 0.614 2.124 0.902 0.622 0.263 1.368 0.356 1.593 1.009 0 0.443 0.042 1.49 0.030 2.071z"></path>
<path fill="#444444" d="M26.875 2.838h2.394v6.041h-2.394v-6.041z"></path>
<path fill="#444444" d="M26.875 10.467h2.394v6.041h-2.394v-6.041z"></path>
<path fill="#444444" d="M26.875 18.096h2.394v6.041h-2.394v-6.041z"></path>
</svg>
