<?xml version="1.0" encoding="utf-8"?>
<!-- Generated by IcoMoon.io -->
<!DOCTYPE svg PUBLIC "-//W3C//DTD SVG 1.1//EN" "http://www.w3.org/Graphics/SVG/1.1/DTD/svg11.dtd">
<svg version="1.1" xmlns="http://www.w3.org/2000/svg" xmlns:xlink="http://www.w3.org/1999/xlink" width="32" height="32" viewBox="0 0 32 32">
<path fill="#444444" d="M17.203 16.733v-5.741c0-0.562-0.458-1.020-1.020-1.020s-1.020 0.458-1.020 1.020v6.566l3.16 3.262c0.202 0.206 0.466 0.31 0.734 0.31 0.256 0 0.511-0.094 0.707-0.286 0.405-0.39 0.415-1.037 0.025-1.442l-2.586-2.668zM27.408 5.612c-2.592-2.595-6.763-2.645-9.422-0.161-0.588-0.090-1.189-0.135-1.803-0.135-0.734 0-1.451 0.071-2.148 0.197-2.655-2.547-6.871-2.517-9.488 0.098-2.639 2.638-2.647 6.909-0.027 9.561-0.108 0.643-0.168 1.301-0.168 1.973 0 6.534 5.296 11.831 11.83 11.831 6.532 0 11.83-5.296 11.83-11.831 0-0.804-0.082-1.589-0.233-2.348 2.269-2.664 2.146-6.668-0.372-9.185zM16.183 25.385c-4.543 0-8.239-3.695-8.239-8.24 0-4.542 3.695-8.238 8.239-8.238s8.239 3.695 8.239 8.238c0 4.544-3.695 8.24-8.239 8.24z"></path>
</svg>
