<?xml version="1.0" encoding="utf-8"?>
<!-- Generated by IcoMoon.io -->
<!DOCTYPE svg PUBLIC "-//W3C//DTD SVG 1.1//EN" "http://www.w3.org/Graphics/SVG/1.1/DTD/svg11.dtd">
<svg version="1.1" xmlns="http://www.w3.org/2000/svg" xmlns:xlink="http://www.w3.org/1999/xlink" width="32" height="32" viewBox="0 0 32 32">
<path fill="#444444" d="M24.597 21.957c0.34 0 0.656 0.251 0.661 0.623 0.002 0.209-0.117 0.41-0.291 0.539-0.278 0.223-0.575 0.423-0.87 0.6l-0.013 0.008c-2.258 1.42-5.17 2.29-7.744 2.347-0.081 0.002-0.161 0.003-0.24 0.003-4.046-0.001-7.055-2.215-9.799-4.599-0.133-0.106-0.229-0.267-0.228-0.445-0.001-0.136 0.057-0.271 0.155-0.363s0.232-0.141 0.365-0.141c0.103 0 0.206 0.028 0.309 0.081 2.925 1.623 5.824 3.271 9.376 3.269 0.082 0 0.165-0.001 0.248-0.003 2.259-0.048 4.701-0.601 7.025-1.543v-0.003l0.214-0.085 0.165-0.069c0.111-0.048 0.23-0.101 0.346-0.148 0.103-0.048 0.214-0.073 0.321-0.073zM27.731 20.641l0.003 0.136c-0.014 0.855-0.382 2.372-1.439 3.324-0.113 0.088-0.242 0.149-0.396 0.15h-0.004c-0.103 0-0.224-0.035-0.318-0.125-0.097-0.090-0.142-0.224-0.14-0.336 0-0.076 0.016-0.145 0.041-0.21 0.105-0.276 0.263-0.693 0.394-1.109 0.132-0.413 0.23-0.839 0.228-1.068 0.001-0.061-0.007-0.103-0.012-0.12-0.004-0.002-0.010-0.006-0.018-0.010-0.025-0.012-0.070-0.027-0.13-0.040-0.12-0.026-0.293-0.039-0.488-0.039-0.274 0-0.59 0.025-0.889 0.057-0.347 0.050-0.644 0.079-0.847 0.122l-0.016 0.003-0.020 0.002c-0.021 0.002-0.043 0.004-0.068 0.004-0.103 0-0.22-0.027-0.321-0.109-0.102-0.081-0.162-0.22-0.159-0.339 0.007-0.22 0.128-0.363 0.273-0.472 0.233-0.169 0.484-0.312 0.761-0.425l-0-0.011 0.235-0.076 0.425-0.143 0.001 0.028c0.413-0.091 0.826-0.126 1.199-0.127 0.52 0.002 0.951 0.064 1.248 0.178 0.1 0.043 0.191 0.082 0.287 0.188l0.012 0.014 0.009 0.014c0.094 0.142 0.143 0.314 0.151 0.541zM18.063 11.684c-0.621 0.047-1.338 0.095-2.056 0.191-1.099 0.144-2.199 0.335-3.107 0.765-1.769 0.717-2.964 2.246-2.964 4.493 0 2.82 1.816 4.254 4.111 4.254 0.764 0 1.386-0.096 1.959-0.238 0.909-0.287 1.673-0.813 2.582-1.769 0.525 0.717 0.669 1.052 1.577 1.816 0.239 0.095 0.478 0.095 0.669-0.047 0.574-0.479 1.578-1.339 2.103-1.817 0.24-0.191 0.192-0.479 0.048-0.717-0.525-0.669-1.052-1.243-1.052-2.534v-4.302c0-1.816 0.144-3.489-1.195-4.731-1.099-1.004-2.82-1.386-4.159-1.386h-0.574c-2.437 0.143-5.019 1.194-5.592 4.206-0.096 0.383 0.191 0.525 0.383 0.573l2.676 0.335c0.287-0.048 0.43-0.287 0.478-0.525 0.239-1.052 1.1-1.578 2.055-1.674h0.192c0.574 0 1.195 0.239 1.529 0.717 0.383 0.574 0.335 1.339 0.335 2.008v0.383zM17.537 17.371c-0.334 0.669-0.909 1.099-1.53 1.243-0.096 0-0.238 0.048-0.382 0.048-1.052 0-1.673-0.813-1.673-2.008 0-1.53 0.908-2.247 2.055-2.581 0.621-0.144 1.339-0.191 2.056-0.191v0.574c-0 1.099 0.048 1.959-0.525 2.915z"></path>
</svg>
