<?xml version="1.0" encoding="utf-8"?>
<!-- Generated by IcoMoon.io -->
<!DOCTYPE svg PUBLIC "-//W3C//DTD SVG 1.1//EN" "http://www.w3.org/Graphics/SVG/1.1/DTD/svg11.dtd">
<svg version="1.1" xmlns="http://www.w3.org/2000/svg" xmlns:xlink="http://www.w3.org/1999/xlink" width="32" height="32" viewBox="0 0 32 32">
<path fill="#444444" d="M27.815 18.785l-3.261-2.977-3.261 2.977h1.626c-0.103 3.384-2.638 4.962-5.293 5.401v-12.773c1.217-0.602 2.056-1.856 2.056-3.303 0-2.031-1.652-3.684-3.684-3.684s-3.684 1.652-3.684 3.684c0 1.447 0.839 2.701 2.056 3.303v12.773c-2.655-0.439-5.189-2.017-5.293-5.401h1.627l-3.261-2.977-0.1 0.091-3.16 2.886h1.638c0.112 5.186 4.263 8.79 10.177 8.79s10.065-3.604 10.177-8.79h1.638zM16 6.229c1.037 0 1.88 0.843 1.88 1.88s-0.843 1.88-1.88 1.88c-1.036 0-1.88-0.843-1.88-1.88s0.843-1.88 1.88-1.88z"></path>
</svg>
