<?xml version="1.0" encoding="utf-8"?>
<!-- Generated by IcoMoon.io -->
<!DOCTYPE svg PUBLIC "-//W3C//DTD SVG 1.1//EN" "http://www.w3.org/Graphics/SVG/1.1/DTD/svg11.dtd">
<svg version="1.1" xmlns="http://www.w3.org/2000/svg" xmlns:xlink="http://www.w3.org/1999/xlink" width="32" height="32" viewBox="0 0 32 32">
<path fill="#444444" d="M23.554 15.386c0.808 1.957 1.359 3.349 1.368 3.373l0.005 0.013 0.005 0.013 0.779 2.104h3.193v-5.503h-5.351z"></path>
<path fill="#444444" d="M26.825 24.733c-0.232-1.144-0.95-1.59-1.714-1.632l-1.428-3.852c0 0-6.49-16.435-7.938-16.435-0.021 0-0.040 0.003-0.058 0.010-1.26 0.455 5.321 17.452 5.321 17.452l1.685 4.304c-0.296 0.734-0.198 1.604 0.325 2.274 1.419 1.818 3.090 2.213 4.274 2.213 0.911 0 1.534-0.234 1.534-0.234s-1.561-1.113-2.002-4.101zM23.094 23.344l-0.489-1.218 1.107-0.445 0.489 1.218-1.107 0.445z"></path>
<path fill="#444444" d="M17.762 15.386h-3.324l-3.068 5.503h8.448l-0.052-0.134c-0.012-0.030-0.928-2.401-2.004-5.37z"></path>
<path fill="#444444" d="M7.489 15.386h-4.394v5.503h1.326z"></path>
<path fill="#444444" d="M13.211 7.856l2.975 1.658-1.417 2.542-2.975-1.658 1.417-2.542z"></path>
<path fill="#444444" d="M11.035 11.76l-7.066 12.675-0.684 4.752 3.672-3.118 7.052-12.65-2.975-1.658zM6.407 25.075l-1.592 1.351 0.302-2.070 0.66-1.184 0.383 0.842 0.907-0.123-0.66 1.184z"></path>
</svg>
