<?xml version="1.0" encoding="utf-8"?>
<!-- Generated by IcoMoon.io -->
<!DOCTYPE svg PUBLIC "-//W3C//DTD SVG 1.1//EN" "http://www.w3.org/Graphics/SVG/1.1/DTD/svg11.dtd">
<svg version="1.1" xmlns="http://www.w3.org/2000/svg" xmlns:xlink="http://www.w3.org/1999/xlink" width="32" height="32" viewBox="0 0 32 32">
<path fill="#999" d="M27.848 5.567h-23.695c-0.584 0-1.057 0.473-1.057 1.057v19.808h25.809v-19.808c0-0.584-0.473-1.057-1.057-1.057zM11.795 7.341c0.46 0 0.832 0.373 0.832 0.832s-0.372 0.832-0.832 0.832-0.832-0.373-0.832-0.832c-0-0.459 0.373-0.832 0.832-0.832zM8.817 7.341c0.46 0 0.832 0.373 0.832 0.832s-0.372 0.832-0.832 0.832c-0.46 0-0.832-0.373-0.832-0.832s0.372-0.832 0.832-0.832zM5.838 7.341c0.46 0 0.832 0.373 0.832 0.832s-0.373 0.832-0.832 0.832c-0.46 0-0.832-0.373-0.832-0.832s0.373-0.832 0.832-0.832zM27.086 24.613h-22.171v-14.047h22.171v14.047z"></path>
</svg>
