<?xml version="1.0" encoding="utf-8"?>
<!-- Generated by IcoMoon.io -->
<!DOCTYPE svg PUBLIC "-//W3C//DTD SVG 1.1//EN" "http://www.w3.org/Graphics/SVG/1.1/DTD/svg11.dtd">
<svg version="1.1" xmlns="http://www.w3.org/2000/svg" xmlns:xlink="http://www.w3.org/1999/xlink" width="32" height="32" viewBox="0 0 32 32">
<path fill="#444444" d="M3.095 26.432h25.757v-14.887h-25.757v14.887zM11.503 16.318l1.671-1.678 2.641 2.653 2.641-2.653 1.671 1.678-2.641 2.653 2.641 2.653-1.671 1.678-2.641-2.653-2.641 2.653-1.671-1.678 2.641-2.653-2.641-2.653zM27.798 5.519h-23.648c-0.583 0-1.055 0.474-1.055 1.059v3.483h25.757v-3.483c0-0.585-0.472-1.059-1.055-1.059zM5.833 8.965c-0.459 0-0.831-0.373-0.831-0.834s0.372-0.834 0.831-0.834c0.459 0 0.831 0.374 0.831 0.834s-0.372 0.834-0.831 0.834zM8.805 8.965c-0.459 0-0.83-0.373-0.83-0.834s0.372-0.834 0.83-0.834c0.459 0 0.831 0.374 0.831 0.834s-0.372 0.834-0.831 0.834zM11.778 8.965c-0.459 0-0.831-0.373-0.831-0.834s0.372-0.834 0.831-0.834 0.831 0.374 0.831 0.834c0 0.461-0.372 0.834-0.831 0.834z"></path>
</svg>
