<?xml version="1.0" encoding="utf-8"?>
<!-- Generated by IcoMoon.io -->
<!DOCTYPE svg PUBLIC "-//W3C//DTD SVG 1.1//EN" "http://www.w3.org/Graphics/SVG/1.1/DTD/svg11.dtd">
<svg version="1.1" xmlns="http://www.w3.org/2000/svg" xmlns:xlink="http://www.w3.org/1999/xlink" width="32" height="32" viewBox="0 0 32 32">
<path fill="#444444" d="M7.955 28.113c-1.348 0-2.707-0.531-3.743-1.566v0c-1.036-1.036-1.568-2.396-1.567-3.744v0c-0.002-1.268 0.476-2.547 1.44-3.509v0l13.506-13.507c1.264-1.266 2.943-1.894 4.616-1.892v0c1.778-0.001 3.576 0.7 4.949 2.072v0c1.371 1.372 2.072 3.169 2.072 4.947v0c0.002 1.674-0.626 3.352-1.892 4.617v0l-11.983 11.983-1.66-1.66 11.984-11.983c0.803-0.804 1.202-1.857 1.204-2.956v0c-0-1.165-0.458-2.36-1.384-3.287v0c-0.927-0.927-2.122-1.385-3.288-1.385v0c-1.099 0.002-2.151 0.401-2.955 1.204v0l-13.507 13.507c-0.501 0.502-0.75 1.155-0.752 1.849v0c0.001 0.735 0.288 1.492 0.88 2.084v0c0.591 0.59 1.348 0.878 2.083 0.878v0c0.694-0.002 1.347-0.251 1.849-0.752v0l10.188-10.187c0.189-0.19 0.283-0.432 0.284-0.708v0c0-0.292-0.114-0.598-0.358-0.842v0c-0.245-0.245-0.551-0.358-0.843-0.359v0c-0.277 0.002-0.518 0.096-0.708 0.285v0l-8.664 8.665-1.66-1.66 8.664-8.664c0.651-0.652 1.518-0.975 2.369-0.973v0c0.904-0.001 1.813 0.357 2.503 1.046v0c0.688 0.689 1.045 1.597 1.045 2.502v0c0.002 0.85-0.321 1.717-0.972 2.368v0l-10.188 10.188c-0.96 0.961-2.236 1.439-3.501 1.439v0c-0.002-0-0.005-0-0.007-0v0z"></path>
</svg>
