<?xml version="1.0" encoding="utf-8"?>
<!-- Generated by IcoMoon.io -->
<!DOCTYPE svg PUBLIC "-//W3C//DTD SVG 1.1//EN" "http://www.w3.org/Graphics/SVG/1.1/DTD/svg11.dtd">
<svg version="1.1" xmlns="http://www.w3.org/2000/svg" xmlns:xlink="http://www.w3.org/1999/xlink" width="32" height="32" viewBox="0 0 32 32">
<path fill="#444444" d="M12.135 24.435h-7.207v2.432h-1.816v2.038h11.039v-2.038h-2.016z"></path>
<path fill="#444444" d="M28.315 21.264l-5.707-5.707c-0.531-0.531-1.292-0.692-1.963-0.484l-3.323-3.323 2.040-2.040-3.719-3.719-5.365 5.365 3.719 3.719 2.039-2.039 3.323 3.323c-0.208 0.671-0.048 1.432 0.484 1.963l5.707 5.707c0.382 0.382 0.882 0.573 1.383 0.573s1.001-0.191 1.383-0.573c0.764-0.764 0.764-2.002 0-2.766z"></path>
<path fill="#444444" d="M8.83 11.95l4.573 4.573-1.449 1.449-4.573-4.573 1.449-1.449z"></path>
<path fill="#444444" d="M17.686 3.095l4.573 4.573-1.449 1.449-4.573-4.573 1.449-1.449z"></path>
</svg>
