<?xml version="1.0" encoding="utf-8"?>
<!-- Generated by IcoMoon.io -->
<!DOCTYPE svg PUBLIC "-//W3C//DTD SVG 1.1//EN" "http://www.w3.org/Graphics/SVG/1.1/DTD/svg11.dtd">
<svg version="1.1" xmlns="http://www.w3.org/2000/svg" xmlns:xlink="http://www.w3.org/1999/xlink" width="32" height="32" viewBox="0 0 32 32">
<path fill="#444444" d="M8.888 24.829l6.628-3.002 9.388-9.388-1.65-1.653-5.657 5.657-0.99-0.993 5.655-5.655-1.013-1.014-9.39 9.39-2.971 6.657zM13.57 18.533l1.455-1.455 0.21 1.389 1.375 0.195-1.455 1.457-2.886 1.312 1.301-2.898zM29.67 7.676l-3.658-3.657-3.11 3.112 3.657 3.656 3.111-3.111zM22.335 18.764h5.177v7.278h-23.203v-7.278h5.545v-1.916h-7.46v11.108h27.034v-11.108h-7.092v1.916z"></path>
</svg>
