<?xml version="1.0" encoding="utf-8"?>
<!-- Generated by IcoMoon.io -->
<!DOCTYPE svg PUBLIC "-//W3C//DTD SVG 1.1//EN" "http://www.w3.org/Graphics/SVG/1.1/DTD/svg11.dtd">
<svg version="1.1" xmlns="http://www.w3.org/2000/svg" xmlns:xlink="http://www.w3.org/1999/xlink" width="32" height="32" viewBox="0 0 32 32">
<path fill="#444444" d="M23.37 11.288l1.167-1.944-1.894-1.245 0.207-2.256-2.246-0.298-0.792-2.126-2.152 0.706-1.636-1.571-1.633 1.571-2.155-0.706-0.791 2.126-2.247 0.298 0.21 2.256-1.896 1.245 1.168 1.944-1.168 1.942 1.896 1.244-0.21 2.258 2.247 0.297 0.791 2.124 2.155-0.704 1.633 1.571 1.636-1.571 2.152 0.704 0.792-2.124 2.246-0.297-0.207-2.258 1.894-1.244-1.167-1.942zM18.064 20.22l-2.040 1.962-1.080-1.038-0.958-0.924-2.539 0.832v8.37l4.495-2.825 4.661 2.825v-8.368l-2.538-0.834z"></path>
</svg>
