<?xml version="1.0" encoding="utf-8"?>
<!-- Generated by IcoMoon.io -->
<!DOCTYPE svg PUBLIC "-//W3C//DTD SVG 1.1//EN" "http://www.w3.org/Graphics/SVG/1.1/DTD/svg11.dtd">
<svg version="1.1" xmlns="http://www.w3.org/2000/svg" xmlns:xlink="http://www.w3.org/1999/xlink" width="32" height="32" viewBox="0 0 32 32">
<path fill="#444444" d="M18.685 18.213c0.049 0 0.097 0.003 0.143 0.010l1.61 0.228c0.032 0.005 0.065 0.007 0.096 0.007 0.336 0 0.639-0.246 0.698-0.584l0.281-1.601c0.065-0.37 0.39-0.817 0.722-0.994l1.436-0.762c0.332-0.176 0.469-0.597 0.303-0.934l-0.714-1.46c-0.165-0.338-0.165-0.89 0-1.228l0.714-1.46c0.165-0.338 0.028-0.758-0.303-0.935l-1.436-0.762c-0.332-0.176-0.657-0.623-0.722-0.994l-0.281-1.601c-0.059-0.338-0.363-0.584-0.699-0.584-0.032 0-0.064 0.002-0.096 0.007l-1.61 0.228c-0.046 0.006-0.093 0.009-0.143 0.009-0.354 0-0.788-0.16-1.025-0.389l-1.168-1.13c-0.135-0.131-0.313-0.196-0.491-0.196s-0.356 0.065-0.491 0.196l-1.168 1.13c-0.237 0.229-0.671 0.389-1.025 0.389-0.049 0-0.097-0.003-0.143-0.009l-1.61-0.228c-0.032-0.005-0.064-0.007-0.096-0.007-0.336 0-0.639 0.246-0.699 0.584l-0.281 1.601c-0.065 0.37-0.39 0.817-0.722 0.994l-1.436 0.762c-0.332 0.176-0.469 0.597-0.304 0.935l0.714 1.46c0.165 0.338 0.165 0.89 0 1.228l-0.714 1.46c-0.165 0.338-0.029 0.758 0.304 0.934l1.436 0.762c0.332 0.176 0.657 0.623 0.722 0.994l0.281 1.601c0.059 0.338 0.363 0.584 0.698 0.584 0.032 0 0.064-0.002 0.096-0.007l1.61-0.228c0.046-0.007 0.094-0.010 0.143-0.010 0.354 0 0.788 0.16 1.025 0.389l1.168 1.13c0.135 0.131 0.313 0.196 0.491 0.196s0.356-0.065 0.491-0.196l1.168-1.13c0.237-0.229 0.671-0.389 1.025-0.389zM16 15c-1.926 0-3.487-1.561-3.487-3.487s1.561-3.487 3.487-3.487 3.487 1.561 3.487 3.487c0 1.926-1.561 3.487-3.487 3.487z"></path>
<path fill="#444444" d="M14.686 20.583l-1.156-1.119c-0.047-0.030-0.152-0.064-0.207-0.067l-1.593 0.225c-0.087 0.012-0.175 0.018-0.263 0.018-0.019 0-0.037-0.002-0.056-0.003l-1.542 9.276 5.29-2.075v-5.924c-0.172-0.085-0.331-0.196-0.472-0.332z"></path>
<path fill="#444444" d="M20.533 19.641c-0.087 0-0.176-0.006-0.262-0.018l-1.593-0.225c-0.056 0.003-0.161 0.037-0.207 0.067l-1.156 1.119c-0.122 0.117-0.257 0.216-0.403 0.295v5.963l5.29 2.047-1.611-9.25c-0.019 0-0.038 0.003-0.057 0.003z"></path>
</svg>
