<?xml version="1.0" encoding="utf-8"?>
<!-- Generated by IcoMoon.io -->
<!DOCTYPE svg PUBLIC "-//W3C//DTD SVG 1.1//EN" "http://www.w3.org/Graphics/SVG/1.1/DTD/svg11.dtd">
<svg version="1.1" xmlns="http://www.w3.org/2000/svg" xmlns:xlink="http://www.w3.org/1999/xlink" width="32" height="32" viewBox="0 0 32 32">
<path fill="#444444" d="M10.889 17.612h0.078l7.395-7.395h-4.018v-6.479h-3.454c-3.832 0-6.937 3.105-6.937 6.936s3.105 6.938 6.937 6.938zM25.852 5.543l-16.394 16.396 1.433 1.433 3.099-3.101 3.1 3.101 1.433-1.434-3.101-3.098 1.228-1.227h4.879c1.298 0 2.348-1.052 2.348-2.348v-4.881l2.814-2.812h1.326v-2.028h-2.166zM20.549 23.259c-1.376 0-2.489 1.116-2.489 2.49 0 1.375 1.114 2.489 2.489 2.489s2.489-1.114 2.489-2.489c0-1.374-1.114-2.49-2.489-2.49zM7.315 23.259c-1.375 0-2.489 1.116-2.489 2.49 0 1.375 1.114 2.489 2.489 2.489s2.49-1.114 2.49-2.489c0-1.374-1.114-2.49-2.489-2.49z"></path>
</svg>
