<?xml version="1.0" encoding="utf-8"?>
<!-- Generated by IcoMoon.io -->
<!DOCTYPE svg PUBLIC "-//W3C//DTD SVG 1.1//EN" "http://www.w3.org/Graphics/SVG/1.1/DTD/svg11.dtd">
<svg version="1.1" xmlns="http://www.w3.org/2000/svg" xmlns:xlink="http://www.w3.org/1999/xlink" width="32" height="32" viewBox="0 0 32 32">
<path fill="#444444" d="M11.418 12.044c1.289-1.29 1.928-2.994 1.929-4.781 0-0.417-0.037-0.838-0.108-1.255-3.718 1.040-6.591 4.102-7.354 7.928 0.251 0.026 0.501 0.039 0.75 0.039 1.785-0.002 3.491-0.642 4.783-1.931zM19.958 20.587c-1.29 1.29-1.928 2.994-1.928 4.779-0.002 0.251 0.010 0.501 0.036 0.754 3.827-0.764 6.891-3.638 7.931-7.356-0.42-0.072-0.841-0.108-1.259-0.108-1.784 0.002-3.489 0.64-4.78 1.931zM16.033 5.622c-0.431 0-0.85 0.030-1.265 0.081 0.090 0.52 0.138 1.041 0.138 1.561 0.001 2.158-0.786 4.284-2.386 5.884-1.598 1.598-3.723 2.385-5.877 2.385h-0.007c-0.313 0-0.625-0.019-0.939-0.049-0.007 0.161-0.012 0.323-0.012 0.488 0 5.717 4.632 10.348 10.349 10.348 0.163 0 0.325-0.006 0.486-0.013-0.033-0.312-0.049-0.628-0.049-0.942-0.002-2.157 0.785-4.282 2.385-5.883v0c1.601-1.6 3.727-2.389 5.882-2.385 0.521 0 1.044 0.047 1.563 0.137 0.049-0.413 0.079-0.836 0.079-1.263 0-5.717-4.632-10.35-10.347-10.35z"></path>
</svg>
