<?xml version="1.0" encoding="utf-8"?>
<!-- Generated by IcoMoon.io -->
<!DOCTYPE svg PUBLIC "-//W3C//DTD SVG 1.1//EN" "http://www.w3.org/Graphics/SVG/1.1/DTD/svg11.dtd">
<svg version="1.1" xmlns="http://www.w3.org/2000/svg" xmlns:xlink="http://www.w3.org/1999/xlink" width="32" height="32" viewBox="0 0 32 32">
<path fill="#444444" d="M28.388 9.090l-5.441-5.442c-0.589-0.589-1.545-0.589-2.136 0.002l-4.572 4.574 7.575 7.575 4.574-4.574c0.591-0.589 0.591-1.546 0-2.135zM9.352 15.108l7.579 7.577 5.782-5.783-7.575-7.576-5.786 5.782zM13.928 16.412c-0.305 0.304-0.801 0.304-1.108 0-0.309-0.307-0.309-0.803 0-1.111 0.306-0.307 0.803-0.307 1.108 0 0.307 0.308 0.307 0.804 0 1.111zM18.136 15.599c0.306-0.307 0.803-0.307 1.11 0s0.306 0.803 0 1.11c-0.307 0.307-0.803 0.307-1.11 0-0.305-0.306-0.305-0.803 0-1.11zM16.736 19.218c-0.304 0.307-0.803 0.307-1.11 0-0.306-0.305-0.306-0.803 0-1.11s0.805-0.307 1.11 0c0.307 0.307 0.307 0.804 0 1.11zM16.438 12.791c0.309 0.307 0.309 0.803 0.002 1.11-0.307 0.306-0.805 0.306-1.11 0-0.307-0.307-0.307-0.803 0-1.11 0.305-0.307 0.803-0.307 1.108 0zM3.676 20.785c-0.589 0.589-0.589 1.546 0.002 2.135l5.439 5.442c0.591 0.588 1.547 0.588 2.138 0l4.574-4.576-7.577-7.577-4.576 4.575z"></path>
</svg>
