<?xml version="1.0" encoding="utf-8"?>
<!-- Generated by IcoMoon.io -->
<!DOCTYPE svg PUBLIC "-//W3C//DTD SVG 1.1//EN" "http://www.w3.org/Graphics/SVG/1.1/DTD/svg11.dtd">
<svg version="1.1" xmlns="http://www.w3.org/2000/svg" xmlns:xlink="http://www.w3.org/1999/xlink" width="32" height="32" viewBox="0 0 32 32">
<path fill="#444444" d="M16.167 4.358c-6.365 0-11.525 5.16-11.525 11.525s5.16 11.525 11.525 11.525 11.525-5.16 11.525-11.525-5.16-11.525-11.525-11.525zM23.044 19.684c-0.338 0.78-0.806 1.471-1.392 2.056-0.586 0.587-1.28 1.054-2.058 1.39-0.777 0.334-1.618 0.504-2.501 0.504h-0.751c-0.884 0-1.724-0.17-2.501-0.504-0.777-0.335-1.47-0.803-2.059-1.391-0.586-0.586-1.054-1.279-1.392-2.059-0.336-0.779-0.507-1.62-0.507-2.5l-0.001-7.903c0-0.678 0.548-1.231 1.228-1.231 0.678 0 1.233 0.513 1.233 1.191l0.003 7.934c0 0.543 0.103 1.067 0.307 1.555 0.207 0.487 0.495 0.918 0.86 1.28 0.366 0.368 0.798 0.656 1.28 0.857 0.486 0.206 1.010 0.31 1.556 0.31h0.74c0.545 0 1.067-0.103 1.553-0.307 0.483-0.201 0.914-0.489 1.28-0.855 0.364-0.359 0.652-0.788 0.859-1.274 0.206-0.489 0.311-1.011 0.311-1.551 0-0.538-0.105-1.060-0.309-1.548-0.206-0.482-0.495-0.911-0.86-1.275s-0.796-0.651-1.28-0.854c-0.486-0.203-1.010-0.307-1.556-0.307l-0.819 0.001c-0.678 0-1.231-0.557-1.231-1.235s0.553-1.227 1.231-1.227l0.819 0.001c0.883 0 1.724 0.17 2.498 0.505 0.777 0.334 1.472 0.803 2.063 1.389 0.588 0.586 1.059 1.279 1.396 2.056 0.337 0.774 0.508 1.613 0.508 2.495 0 0.884-0.17 1.724-0.506 2.497z"></path>
</svg>
