<?xml version="1.0" encoding="utf-8"?>
<!-- Generated by IcoMoon.io -->
<!DOCTYPE svg PUBLIC "-//W3C//DTD SVG 1.1//EN" "http://www.w3.org/Graphics/SVG/1.1/DTD/svg11.dtd">
<svg version="1.1" xmlns="http://www.w3.org/2000/svg" xmlns:xlink="http://www.w3.org/1999/xlink" width="32" height="32" viewBox="0 0 32 32">
<path fill="#444444" d="M24.788 8.975h-2.771v-3.078h-0.025c0.014-0.047 0.025-0.094 0.025-0.142 0-1.117-3.992-2.024-8.915-2.024-4.926 0-8.915 0.907-8.915 2.024 0 0.048 0.008 0.094 0.022 0.142h-0.022v20.403c0.006 1.116 3.994 2.020 8.915 2.020s8.909-0.904 8.915-2.020v0-3.078h2.771c1.703-0.006 3.070-1.374 3.076-3.076v-8.097c-0.006-1.702-1.373-3.070-3.076-3.075zM9.169 23.193c0 0.53-0.429 0.959-0.957 0.959-0.532 0-0.961-0.429-0.961-0.959v-14.188c0-0.53 0.429-0.959 0.961-0.959 0.527 0 0.957 0.429 0.957 0.959v14.188zM14.060 23.193c0 0.529-0.429 0.959-0.958 0.959s-0.959-0.43-0.959-0.959v-14.188c0-0.53 0.429-0.959 0.959-0.959s0.958 0.429 0.958 0.959v14.188zM18.949 23.195c0 0.529-0.429 0.957-0.959 0.957s-0.959-0.429-0.959-0.957v-14.19c0-0.53 0.429-0.959 0.959-0.959s0.959 0.43 0.959 0.959v14.19zM24.975 20.147c0 0.050-0.018 0.091-0.055 0.13-0.041 0.039-0.082 0.057-0.131 0.057h-2.771v-8.47h2.771c0.049 0.002 0.090 0.019 0.131 0.057 0.037 0.039 0.055 0.079 0.055 0.13v8.097z"></path>
</svg>
