<?xml version="1.0" encoding="utf-8"?>
<!-- Generated by IcoMoon.io -->
<!DOCTYPE svg PUBLIC "-//W3C//DTD SVG 1.1//EN" "http://www.w3.org/Graphics/SVG/1.1/DTD/svg11.dtd">
<svg version="1.1" xmlns="http://www.w3.org/2000/svg" xmlns:xlink="http://www.w3.org/1999/xlink" width="32" height="32" viewBox="0 0 32 32">
<path fill="#444444" d="M3.986 2.639l-1.36 1.36 25.312 25.312 1.36-1.36-25.313-25.312zM27.652 24.092c0.032-0.131 0.052-0.268 0.051-0.412 0.002-0.533-0.252-0.981-0.523-1.271-0.488-0.514-1.069-0.79-1.777-1.060-0.039-0.014-0.082-0.028-0.121-0.042-2.84-2.457-1.508-4.426-1.508-6.938 0-2.49-2.481-6.284-5.826-7.365 0.012-0.088 0.020-0.177 0.020-0.269 0-1.108-0.898-2.006-2.006-2.006s-2.006 0.898-2.006 2.006c0 0.124 0.013 0.244 0.034 0.362-0.764 0.281-1.478 0.701-2.123 1.21l15.785 15.785zM15.962 24.865c-2.844 0.001-5.422-0.262-7.212-0.664-0.721-0.159-1.315-0.348-1.717-0.522 0.085-0.038 0.179-0.075 0.281-0.111 0.788-0.295 2.028-0.576 3.521-0.767 0.996-0.129 2.11-0.221 3.296-0.268 0.184 0.843 0.933 1.474 1.831 1.474s1.648-0.632 1.831-1.475c0.416 0.017 0.823 0.039 1.218 0.067l-10.175-10.176c-0.251 0.68-0.388 1.345-0.388 1.946 0 2.491 1.184 4.456-1.387 6.799-0.517 0.159-0.978 0.338-1.383 0.55-0.345 0.185-0.657 0.391-0.934 0.69-0.271 0.29-0.525 0.738-0.524 1.271-0.001 0.534 0.252 0.982 0.524 1.272 0.487 0.514 1.069 0.789 1.777 1.060 1.059 0.388 2.424 0.679 4.032 0.887 1.606 0.207 3.447 0.323 5.408 0.323 2.686-0.001 5.139-0.216 7.083-0.589l-2.061-2.061c-1.472 0.186-3.19 0.294-5.022 0.293z"></path>
</svg>
