<?xml version="1.0" encoding="utf-8"?>
<!-- Generated by IcoMoon.io -->
<!DOCTYPE svg PUBLIC "-//W3C//DTD SVG 1.1//EN" "http://www.w3.org/Graphics/SVG/1.1/DTD/svg11.dtd">
<svg version="1.1" xmlns="http://www.w3.org/2000/svg" xmlns:xlink="http://www.w3.org/1999/xlink" width="32" height="32" viewBox="0 0 32 32">
<path fill="#444444" d="M27.133 22.445c-0.487-0.514-1.069-0.789-1.777-1.059-0.039-0.014-0.081-0.028-0.121-0.042-2.84-2.457-1.508-4.426-1.508-6.938 0-2.49-2.481-6.284-5.826-7.365 0.012-0.088 0.020-0.178 0.020-0.269 0-1.108-0.898-2.006-2.006-2.006s-2.006 0.898-2.006 2.006c0 0.124 0.013 0.244 0.034 0.362-3.2 1.177-5.542 4.777-5.542 7.272 0 2.491 1.184 4.456-1.387 6.799-0.517 0.159-0.978 0.338-1.383 0.55-0.345 0.185-0.657 0.391-0.934 0.69-0.271 0.29-0.525 0.738-0.524 1.272-0.001 0.533 0.252 0.981 0.524 1.271 0.487 0.514 1.069 0.789 1.777 1.059 1.059 0.388 2.425 0.679 4.032 0.887 1.606 0.206 3.447 0.323 5.409 0.323 2.99-0.001 5.694-0.267 7.726-0.72 1.020-0.23 1.868-0.498 2.557-0.86 0.345-0.185 0.657-0.39 0.934-0.69 0.271-0.29 0.525-0.738 0.523-1.271 0.002-0.533-0.252-0.981-0.523-1.272zM24.563 23.829c-0.788 0.295-2.027 0.575-3.52 0.767-1.495 0.194-3.252 0.306-5.128 0.306-2.844 0.001-5.422-0.262-7.212-0.664-0.721-0.16-1.315-0.348-1.717-0.522 0.085-0.038 0.179-0.076 0.281-0.111 0.788-0.295 2.028-0.576 3.52-0.767 0.996-0.129 2.11-0.22 3.296-0.268 0.184 0.843 0.933 1.474 1.831 1.474s1.648-0.632 1.831-1.475c2.107 0.085 3.984 0.314 5.381 0.627 0.72 0.159 1.315 0.348 1.717 0.522-0.085 0.038-0.179 0.075-0.281 0.111z"></path>
</svg>
