<?xml version="1.0" encoding="utf-8"?>
<!-- Generated by IcoMoon.io -->
<!DOCTYPE svg PUBLIC "-//W3C//DTD SVG 1.1//EN" "http://www.w3.org/Graphics/SVG/1.1/DTD/svg11.dtd">
<svg version="1.1" xmlns="http://www.w3.org/2000/svg" xmlns:xlink="http://www.w3.org/1999/xlink" width="32" height="32" viewBox="0 0 32 32">
<path fill="#444444" d="M14.781 18.49c-0.221-0.235-0.327-0.552-0.319-0.957h-1.498c0.072 0.836 0.329 1.469 0.775 1.901 0.448 0.433 1.065 0.677 1.86 0.734v0.903h0.625v-0.903c0.531-0.035 0.967-0.143 1.308-0.319 0.337-0.178 0.609-0.38 0.811-0.607 0.203-0.225 0.341-0.456 0.419-0.695 0.077-0.237 0.116-0.433 0.116-0.588 0-0.176-0.012-0.378-0.037-0.605-0.025-0.229-0.104-0.454-0.239-0.68-0.133-0.227-0.343-0.444-0.625-0.652-0.284-0.211-0.687-0.387-1.212-0.525-0.1-0.030-0.194-0.053-0.28-0.076-0.090-0.022-0.176-0.041-0.262-0.063v-1.88c0.241 0 0.446 0.098 0.615 0.298 0.172 0.198 0.259 0.438 0.268 0.722h1.506c-0.020-0.368-0.098-0.687-0.233-0.954-0.135-0.272-0.309-0.495-0.519-0.677-0.215-0.18-0.46-0.321-0.74-0.425-0.28-0.102-0.578-0.17-0.897-0.206v-0.815h-0.625v0.815c-0.319 0.020-0.628 0.082-0.926 0.188-0.296 0.1-0.558 0.245-0.787 0.434-0.225 0.188-0.407 0.419-0.544 0.695-0.139 0.276-0.208 0.597-0.208 0.957 0 0.354 0.061 0.65 0.182 0.887 0.118 0.237 0.28 0.435 0.482 0.595 0.2 0.159 0.429 0.288 0.685 0.38 0.253 0.098 0.513 0.182 0.774 0.253 0.072 0.015 0.137 0.029 0.198 0.047 0.059 0.016 0.106 0.033 0.143 0.047v2.22c-0.327-0.063-0.601-0.21-0.818-0.445zM16.224 16.896c0.417 0.115 0.713 0.241 0.887 0.378s0.26 0.345 0.26 0.621c0 0.17-0.035 0.317-0.106 0.439-0.072 0.125-0.159 0.229-0.27 0.313-0.11 0.086-0.235 0.151-0.372 0.198-0.137 0.045-0.272 0.076-0.398 0.090v-2.040zM14.865 14.899c-0.147-0.127-0.223-0.306-0.223-0.542 0-0.147 0.027-0.276 0.080-0.386s0.124-0.202 0.217-0.278c0.092-0.074 0.196-0.129 0.311-0.164 0.112-0.037 0.229-0.053 0.349-0.053v1.731c-0.341-0.078-0.585-0.18-0.734-0.309zM26.494 21.954v-11.903h-7.341c1.232 1.373 2.029 3.528 2.029 5.952s-0.797 4.578-2.029 5.952h7.341zM2.397 6.924v18.094h27.177v-18.094h-27.177zM28.052 23.512h-24.132v-15.020h24.132v15.020zM10.789 16.003c0-2.424 0.795-4.579 2.030-5.952h-7.342v11.903h7.342c-1.235-1.373-2.030-3.528-2.030-5.952z"></path>
</svg>
