<?xml version="1.0" encoding="utf-8"?>
<!-- Generated by IcoMoon.io -->
<!DOCTYPE svg PUBLIC "-//W3C//DTD SVG 1.1//EN" "http://www.w3.org/Graphics/SVG/1.1/DTD/svg11.dtd">
<svg version="1.1" xmlns="http://www.w3.org/2000/svg" xmlns:xlink="http://www.w3.org/1999/xlink" width="32" height="32" viewBox="0 0 32 32">
<path fill="#444444" d="M5.648 11.794h18.944v10.009h1.78v-11.626h-20.725v1.618zM9.004 6.821v1.618h18.945v10.008h1.78v-11.626h-20.725zM2.309 25.164h20.725v-11.625h-20.725v11.625zM12.673 14.67c1.999 0 3.622 2.067 3.622 4.616s-1.623 4.617-3.622 4.617-3.624-2.067-3.624-4.617c0-2.55 1.625-4.616 3.624-4.616zM12.43 22.454h1.208v-5.966h-0.961c-0.035 0.228-0.106 0.418-0.215 0.571-0.106 0.152-0.239 0.277-0.395 0.371-0.157 0.093-0.333 0.159-0.529 0.195s-0.399 0.053-0.609 0.047v0.913h1.5v3.869z"></path>
</svg>
