<?xml version="1.0" encoding="utf-8"?>
<!-- Generated by IcoMoon.io -->
<!DOCTYPE svg PUBLIC "-//W3C//DTD SVG 1.1//EN" "http://www.w3.org/Graphics/SVG/1.1/DTD/svg11.dtd">
<svg version="1.1" xmlns="http://www.w3.org/2000/svg" xmlns:xlink="http://www.w3.org/1999/xlink" width="32" height="32" viewBox="0 0 32 32">
<path fill="#444444" d="M14.38 16.589c0.040 0.119 0.058 0.235 0.058 0.355 0 0.192-0.035 0.374-0.106 0.546-0.070 0.174-0.16 0.335-0.27 0.484-0.11 0.149-0.237 0.286-0.383 0.409-0.144 0.122-0.292 0.231-0.441 0.323l0.658 0.977c0.206-0.153 0.413-0.26 0.621-0.313s0.41-0.077 0.601-0.077c0.234 0 0.428 0.019 0.582 0.061 0.157 0.043 0.313 0.092 0.468 0.149 0.149 0.051 0.313 0.092 0.489 0.127 0.177 0.037 0.399 0.053 0.669 0.053 0.269 0 0.548-0.051 0.839-0.147 0.289-0.1 0.563-0.274 0.816-0.521l-0.637-1.073c-0.191 0.207-0.36 0.333-0.505 0.382-0.146 0.049-0.287 0.074-0.43 0.074-0.141 0-0.279-0.010-0.413-0.037s-0.274-0.055-0.415-0.090c-0.141-0.027-0.281-0.055-0.419-0.080-0.139-0.025-0.278-0.037-0.42-0.037-0.1 0-0.201 0.016-0.309 0.041-0.105 0.031-0.244 0.098-0.414 0.202l-0.020-0.018c0.233-0.186 0.435-0.397 0.609-0.634 0.175-0.237 0.262-0.521 0.262-0.855 0-0.121-0.006-0.235-0.016-0.341-0.010-0.104-0.033-0.211-0.069-0.319h1.116v-0.902h-1.412c-0.106-0.192-0.19-0.353-0.249-0.488-0.061-0.135-0.104-0.251-0.129-0.356-0.024-0.102-0.041-0.194-0.047-0.27-0.008-0.080-0.011-0.159-0.011-0.248 0-0.297 0.094-0.533 0.281-0.709 0.188-0.178 0.441-0.266 0.76-0.266 0.269 0 0.48 0.055 0.631 0.165 0.151 0.108 0.266 0.237 0.34 0.386 0.074 0.147 0.122 0.303 0.143 0.462s0.036 0.292 0.042 0.398h1.435c0-0.864-0.227-1.522-0.681-1.974-0.452-0.454-1.087-0.681-1.901-0.681-0.446 0-0.839 0.055-1.178 0.17-0.34 0.112-0.625 0.268-0.85 0.462-0.227 0.197-0.399 0.419-0.515 0.675-0.117 0.255-0.176 0.523-0.176 0.807 0 0.319 0.054 0.609 0.16 0.87s0.213 0.46 0.319 0.595h-0.681v0.902h1.052c0.056 0.123 0.105 0.241 0.143 0.358zM26.493 21.938v-11.903h-7.342c1.233 1.376 2.029 3.528 2.029 5.952s-0.795 4.581-2.029 5.952h7.342zM10.788 15.986c0-2.424 0.795-4.576 2.029-5.952h-7.341v11.903h7.341c-1.233-1.371-2.029-3.528-2.029-5.952zM2.395 6.912v18.090h27.178v-18.090h-27.178zM28.052 23.498h-24.133v-15.020h24.133v15.020z"></path>
</svg>
