<?xml version="1.0" encoding="utf-8"?>
<!-- Generated by IcoMoon.io -->
<!DOCTYPE svg PUBLIC "-//W3C//DTD SVG 1.1//EN" "http://www.w3.org/Graphics/SVG/1.1/DTD/svg11.dtd">
<svg version="1.1" xmlns="http://www.w3.org/2000/svg" xmlns:xlink="http://www.w3.org/1999/xlink" width="32" height="32" viewBox="0 0 32 32">
<path fill="#444444" d="M10.46 19.504h-0.34l-0.265 0.615h0.656c0.12 0.744 0.378 1.325 0.776 1.737 0.438 0.462 1.014 0.691 1.73 0.691 0.495 0 0.932-0.11 1.312-0.331l0.009-1.287c-0.45 0.358-0.886 0.538-1.313 0.538-0.658 0-1.079-0.45-1.261-1.347h1.483l0.264-0.615h-1.815l0.008-0.357h1.909l0.264-0.613h-2.079c0.198-0.779 0.596-1.167 1.193-1.167 0.347 0 0.719 0.129 1.117 0.382l0.519-1.063c-0.558-0.286-1.073-0.429-1.551-0.429-0.676 0-1.239 0.216-1.688 0.648-0.425 0.398-0.707 0.942-0.843 1.629h-0.434l-0.264 0.613h0.621c-0.006 0.012-0.008 0.057-0.008 0.139v0.218zM9.010 6.82v1.617h18.946v10.009h1.778v-11.626h-20.724zM5.653 11.795h18.945v10.009h1.78v-11.629h-20.725v1.621zM2.315 25.164h20.725v-11.626h-20.725v11.626zM12.678 14.668c2 0 3.623 2.067 3.623 4.617 0 2.548-1.623 4.617-3.623 4.617-2.001 0-3.622-2.068-3.622-4.617 0-2.551 1.621-4.617 3.622-4.617z"></path>
</svg>
