<?xml version="1.0" encoding="utf-8"?>
<!-- Generated by IcoMoon.io -->
<!DOCTYPE svg PUBLIC "-//W3C//DTD SVG 1.1//EN" "http://www.w3.org/Graphics/SVG/1.1/DTD/svg11.dtd">
<svg version="1.1" xmlns="http://www.w3.org/2000/svg" xmlns:xlink="http://www.w3.org/1999/xlink" width="32" height="32" viewBox="0 0 32 32">
<path fill="#444444" d="M11.78 21.183c-0.176-0.19-0.261-0.446-0.258-0.768h-1.2c0.055 0.67 0.264 1.177 0.621 1.527 0.358 0.345 0.857 0.539 1.492 0.587v0.725h0.503v-0.725c0.425-0.031 0.775-0.114 1.049-0.256 0.272-0.143 0.491-0.305 0.652-0.486s0.274-0.368 0.337-0.558c0.061-0.188 0.094-0.35 0.094-0.474 0-0.141-0.010-0.305-0.033-0.486-0.018-0.18-0.082-0.36-0.19-0.542s-0.276-0.357-0.503-0.525c-0.227-0.168-0.552-0.309-0.971-0.423-0.080-0.024-0.155-0.043-0.227-0.059s-0.141-0.035-0.209-0.053v-1.506c0.192 0 0.358 0.079 0.495 0.239 0.137 0.158 0.206 0.354 0.213 0.579h1.21c-0.016-0.296-0.080-0.552-0.188-0.766-0.106-0.217-0.245-0.397-0.417-0.544-0.17-0.141-0.368-0.255-0.593-0.337-0.223-0.084-0.464-0.139-0.72-0.166v-0.66h-0.503v0.66c-0.255 0.017-0.505 0.065-0.742 0.149-0.237 0.080-0.45 0.196-0.63 0.348-0.184 0.151-0.329 0.337-0.439 0.56-0.11 0.22-0.166 0.476-0.166 0.766 0 0.282 0.047 0.519 0.143 0.709 0.098 0.19 0.227 0.352 0.388 0.478 0.162 0.129 0.345 0.229 0.55 0.307s0.413 0.143 0.621 0.2c0.057 0.010 0.111 0.027 0.159 0.039 0.047 0.014 0.086 0.026 0.114 0.039v1.78c-0.262-0.051-0.48-0.17-0.656-0.356zM12.939 19.903c0.335 0.090 0.572 0.192 0.711 0.302s0.208 0.278 0.208 0.499c0 0.135-0.029 0.254-0.084 0.354-0.057 0.098-0.131 0.182-0.219 0.251-0.088 0.068-0.188 0.121-0.298 0.158s-0.217 0.059-0.319 0.072v-1.635zM11.848 18.301c-0.118-0.104-0.178-0.247-0.178-0.435 0-0.121 0.020-0.223 0.063-0.311s0.1-0.163 0.176-0.221c0.072-0.059 0.155-0.104 0.247-0.133 0.090-0.029 0.184-0.043 0.28-0.043v1.39c-0.274-0.061-0.468-0.147-0.589-0.247zM8.991 6.798v1.619h18.944v10.007h1.78v-11.626h-20.724zM2.297 25.144h20.725v-11.628h-20.725v11.628zM12.659 14.649c2.001 0 3.622 2.066 3.622 4.617 0 2.549-1.621 4.615-3.622 4.615s-3.622-2.066-3.622-4.615c0-2.551 1.621-4.617 3.622-4.617zM5.635 11.773h18.945v10.007h1.78v-11.625h-20.725v1.619z"></path>
</svg>
