<?xml version="1.0" encoding="utf-8"?>
<!-- Generated by IcoMoon.io -->
<!DOCTYPE svg PUBLIC "-//W3C//DTD SVG 1.1//EN" "http://www.w3.org/Graphics/SVG/1.1/DTD/svg11.dtd">
<svg version="1.1" xmlns="http://www.w3.org/2000/svg" xmlns:xlink="http://www.w3.org/1999/xlink" width="32" height="32" viewBox="0 0 32 32">
<path fill="#444444" d="M13.308 15.95c-0.006 0.014-0.010 0.072-0.010 0.172v0.274h-0.425l-0.329 0.764h0.818c0.149 0.928 0.47 1.651 0.967 2.166 0.546 0.575 1.265 0.86 2.156 0.86 0.615 0 1.161-0.137 1.635-0.413l0.012-1.602c-0.56 0.445-1.106 0.666-1.637 0.666-0.822 0-1.345-0.558-1.572-1.678h1.85l0.327-0.764h-2.261l0.010-0.446h2.379l0.329-0.764h-2.592c0.247-0.971 0.744-1.455 1.488-1.455 0.431 0 0.895 0.159 1.39 0.478l0.648-1.329c-0.695-0.354-1.337-0.531-1.931-0.531-0.844 0-1.545 0.272-2.103 0.807-0.531 0.497-0.883 1.173-1.051 2.030h-0.544l-0.329 0.764h0.775zM26.527 21.975v-11.902h-7.342c1.235 1.37 2.030 3.526 2.030 5.95s-0.795 4.578-2.030 5.952h7.342zM10.822 16.023c0-2.424 0.795-4.58 2.030-5.95h-7.342v11.901h7.342c-1.235-1.374-2.030-3.528-2.030-5.952zM2.43 6.945v18.094h27.177v-18.094h-27.177zM28.087 23.532h-24.136v-15.020h24.136v15.020z"></path>
</svg>
