<?xml version="1.0" encoding="utf-8"?>
<!-- Generated by IcoMoon.io -->
<!DOCTYPE svg PUBLIC "-//W3C//DTD SVG 1.1//EN" "http://www.w3.org/Graphics/SVG/1.1/DTD/svg11.dtd">
<svg version="1.1" xmlns="http://www.w3.org/2000/svg" xmlns:xlink="http://www.w3.org/1999/xlink" width="32" height="32" viewBox="0 0 32 32">
<path fill="#444444" d="M10.61 19.294v0.809h1.22l0.121 0.248v0.392h-1.341v0.81h1.341v1.176h1.296v-1.176h1.345v-0.81h-1.345v-0.392l0.127-0.248h1.218v-0.809h-0.809l1.32-2.651h-1.382l-1.098 2.651-1.126-2.651h-1.38l1.304 2.651h-0.811zM9.008 6.824v1.618h18.947v10.008h1.78v-11.626h-20.727zM5.652 11.799h18.944v10.007h1.78v-11.625h-20.725v1.619zM2.314 25.169h20.725v-11.627h-20.725v11.627zM12.676 14.674c2.001 0 3.622 2.066 3.622 4.617 0 2.55-1.621 4.616-3.622 4.616-1.999 0-3.62-2.066-3.62-4.616 0-2.551 1.621-4.617 3.62-4.617z"></path>
</svg>
