<?xml version="1.0" encoding="utf-8"?>
<!-- Generated by IcoMoon.io -->
<!DOCTYPE svg PUBLIC "-//W3C//DTD SVG 1.1//EN" "http://www.w3.org/Graphics/SVG/1.1/DTD/svg11.dtd">
<svg version="1.1" xmlns="http://www.w3.org/2000/svg" xmlns:xlink="http://www.w3.org/1999/xlink" width="32" height="32" viewBox="0 0 32 32">
<path fill="#444444" d="M26.523 22.009v-11.903h-7.344c1.235 1.373 2.030 3.527 2.030 5.951s-0.795 4.578-2.030 5.951h7.344zM2.423 6.979v18.094h27.177v-18.094h-27.177zM28.080 23.567h-24.134v-15.020h24.134v15.020zM10.816 16.057c0-2.424 0.797-4.578 2.029-5.951h-7.341v11.903h7.341c-1.232-1.374-2.029-3.528-2.029-5.951zM15.71 20.095h1.506v-7.434h-1.2c-0.041 0.283-0.131 0.52-0.266 0.711-0.133 0.192-0.298 0.346-0.493 0.461-0.196 0.117-0.415 0.198-0.658 0.245-0.245 0.046-0.499 0.066-0.76 0.058v1.137h1.87v4.821z"></path>
</svg>
