<?xml version="1.0" encoding="utf-8"?>
<!-- Generated by IcoMoon.io -->
<!DOCTYPE svg PUBLIC "-//W3C//DTD SVG 1.1//EN" "http://www.w3.org/Graphics/SVG/1.1/DTD/svg11.dtd">
<svg version="1.1" xmlns="http://www.w3.org/2000/svg" xmlns:xlink="http://www.w3.org/1999/xlink" width="32" height="32" viewBox="0 0 32 32">
<path fill="#444444" d="M18.809 10.134c-0.288 0-0.467 0.134-0.56 0.423-0.105 0.323-0.159 0.834-0.159 1.519 0 0.654 0.054 1.158 0.159 1.498 0.094 0.305 0.272 0.447 0.56 0.447s0.463-0.142 0.553-0.446c0.102-0.341 0.154-0.846 0.154-1.499 0-0.685-0.052-1.196-0.153-1.52-0.090-0.288-0.266-0.422-0.554-0.422z"></path>
<path fill="#444444" d="M18.809 17.991c-0.288 0-0.467 0.134-0.56 0.423-0.105 0.323-0.159 0.834-0.159 1.519 0 0.654 0.054 1.158 0.159 1.498 0.094 0.305 0.272 0.447 0.56 0.447s0.463-0.142 0.553-0.446c0.102-0.341 0.154-0.846 0.154-1.5 0-0.685-0.052-1.196-0.153-1.52-0.090-0.288-0.266-0.422-0.554-0.422z"></path>
<path fill="#444444" d="M13.191 17.991c-0.288 0-0.467 0.134-0.56 0.423-0.105 0.323-0.159 0.834-0.159 1.519 0 0.653 0.054 1.157 0.159 1.498 0.095 0.305 0.272 0.447 0.56 0.447s0.463-0.142 0.553-0.446c0.102-0.342 0.154-0.846 0.154-1.5 0-0.685-0.052-1.196-0.153-1.52-0.090-0.288-0.266-0.422-0.554-0.422z"></path>
<path fill="#444444" d="M7.573 10.134c-0.289 0-0.467 0.134-0.56 0.423-0.105 0.323-0.158 0.834-0.158 1.519 0 0.654 0.053 1.158 0.159 1.498 0.095 0.305 0.272 0.447 0.56 0.447s0.462-0.142 0.553-0.446c0.102-0.341 0.153-0.846 0.153-1.499 0-0.685-0.052-1.196-0.153-1.52-0.090-0.288-0.266-0.422-0.554-0.422z"></path>
<path fill="#444444" d="M24.427 10.134c-0.289 0-0.467 0.134-0.56 0.423-0.105 0.323-0.159 0.834-0.159 1.519 0 0.654 0.054 1.158 0.159 1.498 0.094 0.305 0.272 0.447 0.56 0.447s0.462-0.142 0.553-0.446c0.102-0.341 0.153-0.846 0.153-1.499 0-0.685-0.052-1.196-0.153-1.52-0.090-0.288-0.266-0.422-0.554-0.422z"></path>
<path fill="#444444" d="M26.446 6.363h-20.893c-1.188 0-2.151 0.963-2.151 2.151v14.972c0 1.188 0.963 2.151 2.151 2.151h20.893c1.188 0 2.151-0.963 2.151-2.151v-14.972c0-1.188-0.963-2.151-2.151-2.151zM12.418 9.112h1.547v5.919h-1.547v-5.919zM8.346 22.888h-1.547v-5.919h1.547v5.919zM9.234 14.352c-0.32 0.556-0.878 0.837-1.661 0.837s-1.341-0.282-1.661-0.837c-0.307-0.534-0.463-1.3-0.463-2.276s0.156-1.743 0.463-2.28c0.319-0.558 0.878-0.841 1.661-0.841s1.341 0.283 1.661 0.841c0.307 0.537 0.463 1.304 0.463 2.28s-0.156 1.742-0.463 2.276zM14.852 22.209c-0.319 0.556-0.878 0.837-1.661 0.837s-1.342-0.282-1.661-0.837c-0.307-0.534-0.463-1.3-0.463-2.276s0.156-1.743 0.463-2.28c0.319-0.559 0.878-0.842 1.661-0.842s1.341 0.283 1.661 0.842c0.307 0.537 0.463 1.304 0.463 2.28s-0.156 1.742-0.463 2.276zM20.47 22.209c-0.319 0.556-0.878 0.837-1.66 0.837s-1.341-0.282-1.66-0.837c-0.307-0.534-0.463-1.3-0.463-2.276s0.156-1.743 0.463-2.28c0.319-0.559 0.878-0.842 1.661-0.842s1.341 0.283 1.66 0.842c0.307 0.537 0.463 1.304 0.463 2.28s-0.156 1.742-0.463 2.276zM20.47 14.352c-0.319 0.556-0.878 0.837-1.66 0.837s-1.341-0.282-1.66-0.837c-0.307-0.534-0.463-1.3-0.463-2.276s0.156-1.743 0.463-2.28c0.319-0.558 0.878-0.841 1.661-0.841s1.341 0.283 1.66 0.841c0.307 0.537 0.463 1.304 0.463 2.28s-0.155 1.742-0.463 2.276zM26.088 22.209c-0.319 0.556-0.878 0.837-1.66 0.837s-1.341-0.282-1.661-0.837c-0.307-0.534-0.463-1.3-0.463-2.276s0.156-1.743 0.463-2.28c0.319-0.559 0.878-0.842 1.661-0.842s1.341 0.283 1.661 0.842c0.307 0.537 0.462 1.304 0.462 2.28s-0.156 1.742-0.463 2.276zM26.088 14.352c-0.319 0.556-0.878 0.837-1.66 0.837s-1.341-0.282-1.661-0.837c-0.307-0.534-0.463-1.3-0.463-2.276s0.156-1.743 0.462-2.28c0.32-0.558 0.878-0.841 1.661-0.841s1.341 0.283 1.66 0.841c0.307 0.537 0.463 1.304 0.463 2.28s-0.156 1.742-0.463 2.276z"></path>
<path fill="#444444" d="M24.427 17.991c-0.289 0-0.467 0.134-0.56 0.423-0.105 0.323-0.159 0.834-0.159 1.519 0 0.654 0.054 1.158 0.159 1.498 0.094 0.305 0.272 0.447 0.56 0.447s0.462-0.142 0.553-0.446c0.102-0.342 0.154-0.846 0.154-1.5 0-0.685-0.052-1.196-0.153-1.52-0.090-0.288-0.266-0.422-0.554-0.422z"></path>
</svg>
