<?xml version="1.0" encoding="utf-8"?>
<!-- Generated by IcoMoon.io -->
<!DOCTYPE svg PUBLIC "-//W3C//DTD SVG 1.1//EN" "http://www.w3.org/Graphics/SVG/1.1/DTD/svg11.dtd">
<svg version="1.1" xmlns="http://www.w3.org/2000/svg" xmlns:xlink="http://www.w3.org/1999/xlink" width="32" height="32" viewBox="0 0 32 32">
<path fill="#444444" d="M27.472 21.8c-0.020-0.207-0.058-0.409-0.11-0.605h0l-2.036-7.865c-0.249-2.083-1.997-3.643-4.102-3.643-0.136 0-0.274 0.007-0.41 0.020-1.099 0.108-2.091 0.639-2.792 1.493-0.095 0.116-0.18 0.236-0.261 0.36h-3.557c-0.071-0.104-0.145-0.207-0.226-0.306-0.701-0.854-1.692-1.384-2.792-1.493-0.136-0.013-0.274-0.020-0.41-0.020-2.105 0-3.853 1.56-4.102 3.643l-2.036 7.865c-0.053 0.196-0.090 0.398-0.111 0.605-0.115 1.17 0.312 2.315 1.204 3.223 0.856 0.872 2.047 1.423 3.352 1.552 0.192 0.019 0.386 0.029 0.578 0.029 0 0 0 0 0 0 2.535-0 4.609-1.643 4.824-3.821 0.001-0.013 0.001-0.025 0.003-0.038h0l0-0.008c0.008-0.093 0.012-0.186 0.013-0.278l0.067-1.394h2.865l0.064 1.34c0.001 0.093 0.005 0.185 0.013 0.278l0 0.008h0c0.001 0.013 0.001 0.025 0.003 0.038 0.215 2.178 2.289 3.821 4.824 3.821 0 0 0 0 0 0 0.191 0 0.386-0.010 0.578-0.029 1.305-0.129 2.495-0.68 3.352-1.552 0.892-0.908 1.32-2.053 1.204-3.223zM12.98 22.697c-0.144 1.396-1.568 2.449-3.318 2.449-0.142 0-0.286-0.007-0.429-0.021-0.953-0.094-1.813-0.487-2.422-1.107-0.573-0.583-0.849-1.299-0.779-2.015 0.138-1.401 1.565-2.457 3.319-2.457 0.142 0 0.287 0.007 0.43 0.021 0.953 0.094 1.813 0.487 2.422 1.107 0.545 0.555 0.818 1.23 0.783 1.912l-0.005 0.112zM25.189 23.963c-0.609 0.62-1.469 1.013-2.422 1.107-0.143 0.014-0.287 0.021-0.429 0.021-1.75-0-3.175-1.052-3.318-2.449l-0.005-0.112c-0.036-0.682 0.237-1.357 0.783-1.912 0.609-0.62 1.469-1.012 2.422-1.107 0.143-0.014 0.287-0.021 0.429-0.021 1.754 0 3.181 1.056 3.319 2.457 0.071 0.717-0.206 1.432-0.779 2.015z"></path>
<path fill="#444444" d="M18.282 9.169c0.676-0.685 1.562-1.109 2.532-1.205 0.136-0.013 0.274-0.020 0.41-0.020 0.774 0 1.499 0.212 2.12 0.582l-0.245-1.026c-0.009-0.078-0.077-0.39-0.077-0.39-0.296-1.033-1.238-1.767-2.35-1.767-0.080 0-0.162 0.004-0.243 0.012-1.191 0.117-2.099 1.075-2.197 2.228 0 0-0.007 0.313-0.002 0.388l0.052 1.198z"></path>
<path fill="#444444" d="M11.186 8.019c0.97 0.096 1.855 0.52 2.532 1.205l0.052-1.198c0.006-0.075-0.002-0.388-0.002-0.388-0.098-1.152-1.006-2.11-2.198-2.228-0.080-0.008-0.162-0.012-0.243-0.012-1.111 0-2.054 0.734-2.35 1.767 0 0-0.068 0.312-0.077 0.39l-0.245 1.026c0.621-0.37 1.346-0.582 2.12-0.582 0.136 0 0.274 0.007 0.41 0.020z"></path>
</svg>
