<?xml version="1.0" encoding="utf-8"?>
<!-- Generated by IcoMoon.io -->
<!DOCTYPE svg PUBLIC "-//W3C//DTD SVG 1.1//EN" "http://www.w3.org/Graphics/SVG/1.1/DTD/svg11.dtd">
<svg version="1.1" xmlns="http://www.w3.org/2000/svg" xmlns:xlink="http://www.w3.org/1999/xlink" width="32" height="32" viewBox="0 0 32 32">
<path fill="#444444" d="M16.463 24.157c1.092-0.131 2.509-0.39 3.932-0.76-1.889-0.251-3.709-0.587-5.086-0.895-0.883-0.2-1.574-0.383-2.028-0.549-2.126-0.776-3.394-2.85-3.389-5.058 0-0.674 0.116-1.368 0.363-2.044 0.371-1.024 1.021-1.806 1.817-2.296 0.157-0.097 0.321-0.181 0.487-0.257-0.319-0.255-0.613-0.515-0.872-0.773 0 0-1.112-1.789-1.635-5.774-0.334-2.542-3.494-3.074-4.757-1.809-2.078 2.079-1.881 2.935-1.881 2.935s1.672-0.394 2.119-0.135c0.778 0.448 0.597 3.623-0.247 7.928-0.614 3.144-0.004 6.117 6.353 7.746 0.141 0.194 0.297 0.374 0.465 0.542 0.475 0.696 1.378 1.936 2.187 2.565l-0.402 1.613-3.67 0.697 0.263 1.378 3.941-0.748 2.869 0.873 0.409-1.342-2.399-0.728 0.402-1.615c0.339-0.341 0.575-0.954 0.758-1.494zM28.478 20.934c-0.235-0.319-0.613-0.703-1.089-1.108-0.958-0.811-2.306-1.703-3.727-2.54-2.837-1.673-6.017-3.15-7.051-3.524-0.635-0.232-1.288-0.355-1.894-0.355-0.695 0-1.319 0.158-1.821 0.47-0.502 0.315-0.905 0.779-1.175 1.508-0.183 0.503-0.27 1.014-0.27 1.508 0.005 1.631 0.918 3.070 2.366 3.595 0.323 0.119 0.99 0.3 1.835 0.49 0.846 0.19 1.884 0.395 3.002 0.578 2.236 0.373 4.807 0.675 6.839 0.672 0.758 0 1.44-0.043 1.986-0.13 0.548-0.085 0.955-0.228 1.143-0.354 0.125-0.084 0.145-0.131 0.151-0.143 0.002-0.012 0.004-0.022 0.006-0.045 0.006-0.063-0.059-0.305-0.3-0.625z"></path>
</svg>
