<?xml version="1.0" encoding="utf-8"?>
<!-- Generated by IcoMoon.io -->
<!DOCTYPE svg PUBLIC "-//W3C//DTD SVG 1.1//EN" "http://www.w3.org/Graphics/SVG/1.1/DTD/svg11.dtd">
<svg version="1.1" xmlns="http://www.w3.org/2000/svg" xmlns:xlink="http://www.w3.org/1999/xlink" width="32" height="32" viewBox="0 0 32 32">
<path fill="#444444" d="M4.727 24.957h22.545v2.544h-22.545v-2.544z"></path>
<path fill="#444444" d="M8.358 18.614c1.16 0 2.103-0.944 2.103-2.103h0.888c0 1.16 0.944 2.103 2.103 2.103s2.104-0.944 2.104-2.103h0.888c0 1.16 0.944 2.103 2.104 2.103s2.103-0.944 2.103-2.103h0.888c0 1.16 0.944 2.103 2.103 2.103 1.021 0 1.874-0.732 2.063-1.698v-0.759c0-1.413-1.093-2.567-2.479-2.671v-4.308c-0.311 0.159-0.662 0.25-1.035 0.25s-0.723-0.091-1.034-0.25v4.298h-4.123v-4.298c-0.311 0.159-0.662 0.25-1.035 0.25s-0.723-0.091-1.034-0.25v4.298h-4.123v-4.298c-0.311 0.159-0.662 0.25-1.035 0.25s-0.723-0.091-1.035-0.25v4.308c-1.386 0.104-2.479 1.259-2.479 2.671v0.758c0.19 0.966 1.042 1.698 2.064 1.698z"></path>
<path fill="#444444" d="M25.706 18.671c-0.537 0.513-1.263 0.831-2.063 0.831-1.077 0-2.021-0.574-2.547-1.431-0.527 0.857-1.47 1.431-2.547 1.431s-2.021-0.574-2.547-1.431c-0.527 0.857-1.47 1.431-2.547 1.431s-2.021-0.574-2.547-1.431c-0.527 0.857-1.47 1.431-2.547 1.431-0.8 0-1.526-0.318-2.063-0.831v4.612h19.411v-4.612z"></path>
<path fill="#444444" d="M16 8.393c0.692 0 1.254-0.561 1.254-1.254s-1.254-2.64-1.254-2.64-1.254 1.948-1.254 2.64c0 0.692 0.561 1.254 1.254 1.254z"></path>
<path fill="#444444" d="M22.192 8.393c0.692 0 1.254-0.561 1.254-1.254s-1.254-2.64-1.254-2.64-1.254 1.948-1.254 2.64c0 0.692 0.561 1.254 1.254 1.254z"></path>
<path fill="#444444" d="M9.808 8.393c0.693 0 1.254-0.561 1.254-1.254s-1.254-2.64-1.254-2.64-1.254 1.948-1.254 2.64c0 0.692 0.561 1.254 1.254 1.254z"></path>
</svg>
