<?xml version="1.0" encoding="utf-8"?>
<!-- Generated by IcoMoon.io -->
<!DOCTYPE svg PUBLIC "-//W3C//DTD SVG 1.1//EN" "http://www.w3.org/Graphics/SVG/1.1/DTD/svg11.dtd">
<svg version="1.1" xmlns="http://www.w3.org/2000/svg" xmlns:xlink="http://www.w3.org/1999/xlink" width="32" height="32" viewBox="0 0 32 32">
<path fill="#444444" d="M15.906 2.385c-7.519 0-13.615 6.096-13.615 13.615s6.096 13.615 13.615 13.615c7.519 0 13.615-6.096 13.615-13.615s-6.096-13.615-13.615-13.615zM25.386 16c0 1.866-0.544 3.607-1.479 5.076l-13.075-13.075c1.469-0.935 3.209-1.479 5.075-1.479 5.227 0 9.479 4.252 9.479 9.479zM6.427 16c0-1.866 0.544-3.607 1.479-5.075l13.075 13.075c-1.469 0.935-3.209 1.479-5.075 1.479-5.227 0-9.479-4.253-9.479-9.479z"></path>
</svg>
