<?xml version="1.0" encoding="utf-8"?>
<!-- Generated by IcoMoon.io -->
<!DOCTYPE svg PUBLIC "-//W3C//DTD SVG 1.1//EN" "http://www.w3.org/Graphics/SVG/1.1/DTD/svg11.dtd">
<svg version="1.1" xmlns="http://www.w3.org/2000/svg" xmlns:xlink="http://www.w3.org/1999/xlink" width="32" height="32" viewBox="0 0 32 32">
<path fill="#444444" d="M23.212 6.202h-13.848c-1.875 0-3.41 1.536-3.41 3.41v13.848c0 1.874 1.536 3.41 3.41 3.41h13.848c1.874 0 3.41-1.536 3.41-3.41v-13.848c0-1.874-1.536-3.41-3.41-3.41zM22.552 18.827c-0.013 2.196-1.798 3.994-3.998 3.994h-4.595c-2.2 0-3.998-1.798-3.998-3.994v-4.667c0-2.2 1.798-4.002 3.998-4.002h2.797c1.032 0.123 2.534 1.007 3.088 2.183 0.152 0.33 0.233 0.381 0.36 1.358 0.068 0.504 0.101 0.876 0.326 1.083 0.317 0.288 1.494 0.093 1.726 0.275l0.177 0.14 0.106 0.22 0.038 0.178-0.025 3.233zM14.010 14.956h2.217c0.423 0 0.766-0.347 0.766-0.766s-0.343-0.762-0.766-0.762h-2.217c-0.423 0-0.766 0.343-0.766 0.762s0.343 0.766 0.766 0.766zM18.516 18.006h-4.506c-0.423 0-0.766 0.343-0.766 0.762 0 0.415 0.343 0.762 0.766 0.762h4.506c0.419 0 0.762-0.347 0.762-0.762 0-0.419-0.343-0.762-0.762-0.762z"></path>
</svg>
