<?xml version="1.0" encoding="utf-8"?>
<!-- Generated by IcoMoon.io -->
<!DOCTYPE svg PUBLIC "-//W3C//DTD SVG 1.1//EN" "http://www.w3.org/Graphics/SVG/1.1/DTD/svg11.dtd">
<svg version="1.1" xmlns="http://www.w3.org/2000/svg" xmlns:xlink="http://www.w3.org/1999/xlink" width="32" height="32" viewBox="0 0 32 32">
<path fill="#444444" d="M20.914 20.38h-1.479v1.48h1.479v0.862h1.332v-3.096h-1.332z"></path>
<path fill="#444444" d="M9.759 11.489h0.808v1.48h1.48v-1.48h0.808v-1.332h-3.095z"></path>
<path fill="#444444" d="M10.566 14.449h1.48v1.48h-1.48v-1.48z"></path>
<path fill="#444444" d="M10.566 17.409h1.48v1.48h-1.48v-1.48z"></path>
<path fill="#444444" d="M10.566 21.86h1.48v-1.491h-1.48z"></path>
<path fill="#444444" d="M16.475 20.38h1.48v1.48h-1.48v-1.48z"></path>
<path fill="#444444" d="M13.515 20.38h1.48v1.48h-1.48v-1.48z"></path>
<path fill="#444444" d="M24.375 9.083l-5.398-5.398h-11.786v24.629h17.617v-18.798l-0.433-0.433zM23.329 26.835l-14.658-0v-21.67h8.37c2.199 0 1.139 5.212 1.139 5.212s5.083-1.235 5.148 1.095c0 3.967 0 15.362 0 15.362z"></path>
<path fill="#444444" d="M14.523 17.88h7.723l-7.723-7.723z"></path>
</svg>
