<?xml version="1.0" encoding="utf-8"?>
<!-- Generated by IcoMoon.io -->
<!DOCTYPE svg PUBLIC "-//W3C//DTD SVG 1.1//EN" "http://www.w3.org/Graphics/SVG/1.1/DTD/svg11.dtd">
<svg version="1.1" xmlns="http://www.w3.org/2000/svg" xmlns:xlink="http://www.w3.org/1999/xlink" width="32" height="32" viewBox="0 0 32 32">
<path fill="#444444" d="M18 6.982c-0.137-0.136-0.321-0.213-0.514-0.213s-0.378 0.077-0.514 0.213l-1.074 1.074c-3.383-1.194-7.301-0.439-10.007 2.267-3.755 3.755-3.755 9.844 0 13.599s9.844 3.755 13.599-0c2.706-2.706 3.462-6.624 2.267-10.007l1.074-1.074c0.284-0.284 0.284-0.744 0-1.028l-4.831-4.831z"></path>
<path fill="#444444" d="M24.779 5.29c-1.703 0.203-2.923 1.464-3.49 2.183l1.235 1.235c0.313-0.431 1.239-1.559 2.467-1.701 0.866-0.1 1.778 0.322 2.711 1.254l1.224-1.224c-1.329-1.329-2.725-1.918-4.146-1.748z"></path>
</svg>
