<?xml version="1.0" encoding="utf-8"?>
<!-- Generated by IcoMoon.io -->
<!DOCTYPE svg PUBLIC "-//W3C//DTD SVG 1.1//EN" "http://www.w3.org/Graphics/SVG/1.1/DTD/svg11.dtd">
<svg version="1.1" xmlns="http://www.w3.org/2000/svg" xmlns:xlink="http://www.w3.org/1999/xlink" width="32" height="32" viewBox="0 0 32 32">
<path fill="#444444" d="M4.969 13.868c0.89 0.159 1.619 0.289 1.619 0.288 0 0 0.686 0.285 1.521 0.631l1.487 0.618 5.003-2.076-5.039-2.093c-0.836-0.348-2.011-1.185-2.613-1.862l-0.761-0.857c-0.602-0.677-1.265-0.51-1.474 0.371l-0.1 0.418c-0.21 0.881-0.924 2.106-1.587 2.722l-0.142 0.133c-0.663 0.617-0.477 1.251 0.414 1.409l1.673 0.296zM28.718 18.412l-1.672-0.296c-0.892-0.158-1.621-0.288-1.621-0.288s-0.684-0.284-1.519-0.631l-1.459-0.606-5.004 2.075 5.010 2.083c0.837 0.348 2.013 1.185 2.615 1.861l0.761 0.856c0.601 0.679 1.264 0.511 1.474-0.37l0.1-0.419c0.208-0.88 0.922-2.105 1.584-2.721l0.145-0.134c0.662-0.616 0.476-1.25-0.415-1.409zM27.085 14.262l1.145 0.065c0.903 0.052 1.255-0.534 0.779-1.305l-0.227-0.366c-0.474-0.771-0.838-2.141-0.807-3.046l0.006-0.197c0.033-0.904-0.548-1.219-1.289-0.7l-1.392 0.975c-0.74 0.519-1.347 0.944-1.347 0.944s-0.685 0.283-1.52 0.629l-14.351 5.951c-0.835 0.345-2.259 0.587-3.163 0.535l-1.146-0.066c-0.902-0.051-1.253 0.536-0.778 1.306l0.227 0.367c0.474 0.77 0.838 2.14 0.806 3.044l-0.007 0.198c-0.031 0.903 0.55 1.218 1.291 0.699l1.391-0.974c0.741-0.519 1.349-0.945 1.349-0.945s0.684-0.283 1.521-0.63l14.349-5.95c0.836-0.347 2.259-0.588 3.163-0.536z"></path>
</svg>
