<?xml version="1.0" encoding="utf-8"?>
<!-- Generated by IcoMoon.io -->
<!DOCTYPE svg PUBLIC "-//W3C//DTD SVG 1.1//EN" "http://www.w3.org/Graphics/SVG/1.1/DTD/svg11.dtd">
<svg version="1.1" xmlns="http://www.w3.org/2000/svg" xmlns:xlink="http://www.w3.org/1999/xlink" width="32" height="32" viewBox="0 0 32 32">
<path fill="#444444" d="M29.728 9.468c-0.036-0.061-0.641-1.115-1.855-2.198-1.206-1.077-3.076-2.2-5.54-2.2s-4.315 1.127-5.497 2.209c-0.366 0.334-0.674 0.666-0.926 0.966-0.261-0.302-0.58-0.637-0.958-0.974-1.206-1.077-3.076-2.2-5.54-2.2s-4.316 1.127-5.497 2.209c-1.19 1.087-1.769 2.145-1.805 2.208l-0.124 0.487v15.91l1.909 0.489c0.027-0.051 0.539-0.933 1.479-1.76 0.948-0.831 2.271-1.596 4.038-1.597 1.823 0 3.21 0.82 4.187 1.685 0.485 0.431 0.855 0.867 1.099 1.19 0.122 0.161 0.212 0.293 0.269 0.382 0.025 0.037 0.042 0.065 0.055 0.085 0.17 0.326 0.509 0.549 0.902 0.549 0.4 0 0.745-0.231 0.911-0.566 0.1-0.17 0.6-0.971 1.461-1.728 0.948-0.831 2.27-1.596 4.037-1.597 1.823 0 3.21 0.82 4.188 1.685 0.484 0.431 0.855 0.867 1.098 1.19 0.122 0.161 0.212 0.293 0.27 0.382 0.028 0.044 0.049 0.078 0.061 0.098 0.006 0.010 0.010 0.017 0.012 0.020l0.003-0.001 1.897-0.505v-15.91l-0.135-0.505zM14.907 23.142c-1.207-1.066-3.061-2.162-5.495-2.162h-0.003c-2.391 0-4.204 1.062-5.389 2.114v-12.834c0.207-0.317 0.666-0.952 1.354-1.557 0.948-0.832 2.271-1.596 4.038-1.597 1.823 0 3.21 0.819 4.187 1.686 0.485 0.431 0.855 0.867 1.099 1.19 0.086 0.113 0.155 0.211 0.209 0.291v12.871zM27.828 23.14c-1.207-1.065-3.061-2.161-5.495-2.161-2.393-0.001-4.206 1.063-5.392 2.115v-12.836c0.207-0.316 0.665-0.951 1.354-1.557 0.948-0.832 2.27-1.596 4.037-1.597 1.823 0 3.21 0.819 4.188 1.686 0.484 0.431 0.855 0.867 1.098 1.19 0.085 0.112 0.155 0.211 0.209 0.29v12.871zM5.238 11.235l0.835 1.095 0.109 0.153c0.052-0.035 1.152-0.812 3.373-0.813 1.186 0 2.067 0.223 2.644 0.436 0.289 0.107 0.5 0.212 0.634 0.285 0.067 0.037 0.114 0.066 0.142 0.084 0.013 0.008 0.022 0.014 0.026 0.017 0 0.001 0.001 0.001 0.001 0.001l0.002 0.001 0.251-0.356 0.664-0.914c-0.092-0.069-1.592-1.12-4.364-1.119-2.772-0.002-4.22 1.053-4.316 1.13zM6.182 15.867c0.051-0.035 1.152-0.812 3.372-0.813 1.186 0.001 2.067 0.223 2.644 0.436 0.288 0.106 0.5 0.211 0.634 0.285 0.067 0.037 0.115 0.066 0.142 0.083 0.014 0.009 0.023 0.015 0.027 0.018 0.001 0.001 0.002 0.001 0.002 0.001l0.245-0.348 0.67-0.921c-0.093-0.069-1.592-1.12-4.364-1.119-2.772-0.002-4.22 1.053-4.316 1.13l0.834 1.094 0.11 0.154zM5.238 18.003l0.834 1.096 0.109 0.152 0.005-0.003c0.094-0.064 1.194-0.808 3.368-0.81 1.186 0 2.067 0.222 2.644 0.436 0.288 0.107 0.5 0.211 0.634 0.285 0.067 0.037 0.115 0.066 0.142 0.083 0.013 0.009 0.022 0.015 0.026 0.017 0 0 0.001 0 0.001 0.001l0.002 0.001 0.253-0.359 0.662-0.91c-0.093-0.069-1.592-1.12-4.364-1.119-2.772-0.001-4.22 1.053-4.316 1.129zM26.010 12.494l0.259-0.368-0.265 0.364c0.003 0.002 0.005 0.004 0.005 0.004zM19.079 12.329l0.11 0.153 0 0c0.051-0.035 1.152-0.812 3.373-0.813 1.186 0 2.067 0.223 2.644 0.436 0.288 0.107 0.5 0.212 0.634 0.285 0.067 0.037 0.115 0.066 0.142 0.084 0.011 0.006 0.019 0.012 0.024 0.015l0.92-1.266c-0.093-0.069-1.592-1.12-4.364-1.119-2.772-0.001-4.22 1.053-4.317 1.13l0.834 1.095zM19.189 15.867c0.052-0.035 1.152-0.812 3.373-0.813 1.186 0.001 2.067 0.223 2.644 0.436 0.289 0.106 0.501 0.211 0.634 0.285 0.067 0.037 0.114 0.066 0.142 0.083 0.012 0.007 0.020 0.013 0.025 0.016 0.002 0.002 0.004 0.003 0.004 0.003l0.249-0.353 0.666-0.917c-0.092-0.069-1.592-1.12-4.364-1.119-2.772-0.002-4.22 1.053-4.317 1.13l0.834 1.095 0.11 0.153zM18.245 18.003l0.836 1.098 0.107 0.15c0.001-0.001 0.003-0.002 0.005-0.003 0.095-0.064 1.194-0.808 3.368-0.81 1.186 0 2.067 0.222 2.644 0.436 0.288 0.107 0.5 0.211 0.634 0.285 0.067 0.037 0.115 0.066 0.142 0.083 0.013 0.009 0.022 0.015 0.026 0.017 0 0 0.001 0 0.001 0.001l0.002 0.001 0.253-0.359 0.662-0.91c-0.092-0.069-1.592-1.12-4.364-1.119-2.772-0.001-4.22 1.053-4.317 1.129z"></path>
</svg>
