<?xml version="1.0" encoding="utf-8"?>
<!-- Generated by IcoMoon.io -->
<!DOCTYPE svg PUBLIC "-//W3C//DTD SVG 1.1//EN" "http://www.w3.org/Graphics/SVG/1.1/DTD/svg11.dtd">
<svg version="1.1" xmlns="http://www.w3.org/2000/svg" xmlns:xlink="http://www.w3.org/1999/xlink" width="32" height="32" viewBox="0 0 32 32">
<path fill="#444444" d="M29.742 9.476c-0.036-0.060-0.641-1.115-1.855-2.197-1.207-1.077-3.077-2.201-5.54-2.201-2.464-0.001-4.315 1.126-5.497 2.208-0.366 0.334-0.674 0.666-0.926 0.966-0.261-0.302-0.58-0.637-0.958-0.974-1.206-1.077-3.077-2.201-5.54-2.201-2.464-0.001-4.316 1.126-5.498 2.208-1.19 1.088-1.769 2.145-1.805 2.208l-0.124 0.487v15.91l1.91 0.489c0.026-0.051 0.539-0.933 1.479-1.76 0.948-0.831 2.27-1.596 4.038-1.597 1.823 0 3.21 0.82 4.187 1.686 0.484 0.431 0.855 0.867 1.099 1.189 0.122 0.161 0.212 0.294 0.27 0.382 0.029 0.044 0.049 0.078 0.062 0.098 0.006 0.010 0.010 0.016 0.012 0.020v0l0.001 0 0-0c0.175 0.305 0.504 0.512 0.882 0.512 0.385 0 0.719-0.214 0.892-0.529h0c0 0 0.001-0.002 0.002-0.003l0-0.001c0.039-0.071 0.549-0.939 1.477-1.756 0.948-0.831 2.27-1.596 4.038-1.597 1.824 0 3.21 0.82 4.188 1.686 0.485 0.431 0.855 0.867 1.099 1.189 0.122 0.161 0.212 0.294 0.27 0.382 0.029 0.044 0.049 0.078 0.061 0.098 0.006 0.010 0.010 0.016 0.012 0.020l0 0 0.002-0.001 1.898-0.505v-15.91l-0.134-0.505zM9.427 20.988h-0.004c-2.39 0-4.204 1.062-5.388 2.114v-12.834c0.207-0.317 0.666-0.952 1.354-1.557 0.948-0.832 2.27-1.596 4.038-1.597 1.823 0 3.21 0.82 4.187 1.686 0.484 0.431 0.855 0.867 1.099 1.189 0.086 0.113 0.155 0.211 0.209 0.291v12.871c-1.207-1.065-3.061-2.162-5.494-2.162zM27.843 23.148c-1.208-1.065-3.062-2.161-5.495-2.161-2.393-0.001-4.207 1.063-5.392 2.116v-12.835c0.207-0.316 0.665-0.951 1.355-1.558 0.948-0.832 2.27-1.596 4.038-1.597 1.824 0 3.21 0.82 4.188 1.686 0.485 0.431 0.855 0.867 1.099 1.189 0.085 0.113 0.155 0.211 0.209 0.291v12.87z"></path>
</svg>
