<?xml version="1.0" encoding="utf-8"?>
<!-- Generated by IcoMoon.io -->
<!DOCTYPE svg PUBLIC "-//W3C//DTD SVG 1.1//EN" "http://www.w3.org/Graphics/SVG/1.1/DTD/svg11.dtd">
<svg version="1.1" xmlns="http://www.w3.org/2000/svg" xmlns:xlink="http://www.w3.org/1999/xlink" width="32" height="32" viewBox="0 0 32 32">
<path fill="#444444" d="M8.213 2.934c-0.832 0.005-1.596 0.209-2.212 0.595-0.309 0.196-0.583 0.441-0.79 0.749-0.207 0.307-0.342 0.688-0.341 1.090v20.544c-0.001 0.403 0.134 0.784 0.341 1.090 0.313 0.462 0.766 0.784 1.281 1.006 0.506 0.215 1.082 0.333 1.695 0.338l15.794 1.228v-2.983l3.123-0.145v-24.039l-18.891 0.527zM17.557 18.461l-6.527-0.507 0.149-1.918 6.527 0.508-0.149 1.918zM20.461 13.877l-11.309-0.906 0.153-1.917 11.309 0.906-0.153 1.918zM25.396 24.816l-1.416 0.066v-17.563l-15.754-1.223c-0.545 0.002-1.027-0.147-1.314-0.331-0.144-0.090-0.237-0.186-0.283-0.256-0.046-0.072-0.051-0.107-0.052-0.141 0.001-0.034 0.006-0.069 0.052-0.141 0.067-0.105 0.249-0.266 0.533-0.386 0.282-0.121 0.655-0.202 1.064-0.201h0.008l17.162-0.479v20.654z"></path>
</svg>
