<?xml version="1.0" encoding="utf-8"?>
<!-- Generated by IcoMoon.io -->
<!DOCTYPE svg PUBLIC "-//W3C//DTD SVG 1.1//EN" "http://www.w3.org/Graphics/SVG/1.1/DTD/svg11.dtd">
<svg version="1.1" xmlns="http://www.w3.org/2000/svg" xmlns:xlink="http://www.w3.org/1999/xlink" width="32" height="32" viewBox="0 0 32 32">
<path fill="#444444" d="M7.947 25.801h4.987v-17.287h-4.987v17.287zM8.642 10.529h3.597v2.079h-3.597v-2.079zM2.741 25.752h3.872v-19.505h-3.872v19.505zM3.447 8.437h2.188v1.322h-2.188v-1.322zM3.447 22.238h2.188v1.322h-2.188v-1.322zM14.414 25.668h3.872v-18.639h-3.872v18.639zM17.474 23.561h-2.186v-1.322h2.186v1.322zM15.255 11.443h2.187v2.074h-2.187v-2.074zM22.362 6.141l-3.626 1.358 6.847 18.263 3.626-1.361-6.847-18.26zM20.631 10.541l-0.464-1.238 2.048-0.768 0.464 1.236-2.048 0.77zM25.477 23.462l-0.464-1.236 2.047-0.767 0.465 1.237-2.048 0.766z"></path>
</svg>
