<?xml version="1.0" encoding="utf-8"?>
<!-- Generated by IcoMoon.io -->
<!DOCTYPE svg PUBLIC "-//W3C//DTD SVG 1.1//EN" "http://www.w3.org/Graphics/SVG/1.1/DTD/svg11.dtd">
<svg version="1.1" xmlns="http://www.w3.org/2000/svg" xmlns:xlink="http://www.w3.org/1999/xlink" width="32" height="32" viewBox="0 0 32 32">
<path fill="#444444" d="M5.93 18.493v4.183l9.128 5.269v-11.961l-4.884 5.13-4.244-2.621zM14.168 15.272l-7.598-4.386-4.123 4.122 7.54 4.656 4.181-4.392zM17.915 15.286l4.167 4.378 7.54-4.656-4.108-4.109-7.599 4.387zM16.974 15.943v12.002l9.128-5.269v-4.159l-4.207 2.598-4.921-5.171zM29.784 8.133l-7.446-4.066-5.098 1.41 8.242 4.667 4.302-2.011zM14.823 5.477l-5.098-1.41-7.445 4.066 4.3 2.011 8.243-4.667z"></path>
</svg>
