<?xml version="1.0" encoding="utf-8"?>
<!-- Generated by IcoMoon.io -->
<!DOCTYPE svg PUBLIC "-//W3C//DTD SVG 1.1//EN" "http://www.w3.org/Graphics/SVG/1.1/DTD/svg11.dtd">
<svg version="1.1" xmlns="http://www.w3.org/2000/svg" xmlns:xlink="http://www.w3.org/1999/xlink" width="32" height="32" viewBox="0 0 32 32">
<path fill="#444444" d="M7.175 4.343c-0.853 1.15-1.286 2.691-1.286 4.58v2.199c0 1.069-0.185 1.625-0.341 1.904-0.397 0.716-1.216 1.138-2.503 1.29l-0.829 0.098v3.233l0.839 0.091c1.268 0.137 2.082 0.569 2.488 1.322 0.23 0.426 0.347 1.058 0.347 1.877v2.782c0 2.088 0.657 3.635 1.953 4.597 1.182 0.878 2.677 1.413 4.443 1.592l1.034 0.105v-3.456l-0.83-0.098c-0.657-0.078-1.251-0.346-1.815-0.82-0.477-0.4-0.718-1.156-0.718-2.247v-2.041c0-1.434-0.19-2.558-0.583-3.44-0.279-0.62-0.743-1.319-1.512-1.869 0.652-0.45 1.156-1.058 1.508-1.821 0.395-0.854 0.587-1.998 0.587-3.499v-1.512c0-0.979 0.114-1.732 0.337-2.236 0.234-0.525 0.713-1.237 2.167-1.363l0.859-0.074v-3.425l-1.019 0.087c-2.539 0.215-4.215 0.916-5.126 2.144z"></path>
<path fill="#444444" d="M27.333 14.316c-1.28-0.137-2.099-0.562-2.504-1.298-0.224-0.409-0.343-1.064-0.343-1.894v-2.199c0-1.827-0.318-3.186-0.967-4.148-0.992-1.497-2.82-2.365-5.434-2.577l-1.016-0.083v3.422l0.859 0.074c1.472 0.127 1.944 0.798 2.17 1.288 0.152 0.334 0.334 1.005 0.334 2.307v1.511c0 1.51 0.192 2.659 0.587 3.515 0.278 0.598 0.741 1.272 1.512 1.805-0.655 0.467-1.166 1.096-1.517 1.877-0.392 0.871-0.583 1.996-0.583 3.441v2.039c0 0.988-0.231 1.722-0.686 2.181-0.493 0.496-1.101 0.786-1.859 0.885l-0.818 0.107v3.452l1.040-0.112c1.75-0.188 3.236-0.714 4.413-1.563 1.303-0.94 1.964-2.496 1.964-4.625v-2.782c0-0.804 0.118-1.432 0.347-1.864 0.413-0.768 1.23-1.204 2.496-1.334l0.845-0.086v-3.247l-0.84-0.090z"></path>
</svg>
