<?xml version="1.0" encoding="utf-8"?>
<!-- Generated by IcoMoon.io -->
<!DOCTYPE svg PUBLIC "-//W3C//DTD SVG 1.1//EN" "http://www.w3.org/Graphics/SVG/1.1/DTD/svg11.dtd">
<svg version="1.1" xmlns="http://www.w3.org/2000/svg" xmlns:xlink="http://www.w3.org/1999/xlink" width="32" height="32" viewBox="0 0 32 32">
<path fill="#444444" d="M4.744 21.148l10.266 5.926v-8.682l-10.266-5.928v8.684zM23.956 9.529v0.912c0 0.676-1.294 1.223-2.892 1.223-1.596 0-2.891-0.548-2.891-1.223v-1.509h0.009c0.097 0.638 1.348 1.143 2.882 1.143 1.598 0 2.892-0.548 2.892-1.222 0-0.677-1.294-1.223-2.892-1.223-0.127 0-0.252 0.004-0.375 0.011l-1.861-1.074v1.148c0 0.676-1.293 1.223-2.89 1.223-1.004 0-1.887-0.217-2.407-0.546-0.074-0.075-0.165-0.149-0.274-0.218-0.136-0.142-0.211-0.296-0.211-0.46v-1.111l-1.799 1.038c-0.13-0.006-0.261-0.012-0.394-0.012-1.596 0-2.891 0.546-2.891 1.223 0 0.673 1.295 1.222 2.891 1.222 1.534 0 2.786-0.505 2.883-1.143h0.008v1.509c0 0.676-1.293 1.223-2.891 1.223-1.596 0-2.891-0.548-2.891-1.223v-0.9l-2.227 1.284 10.301 5.945 10.233-5.907-2.314-1.335zM18.851 13.309c0 0.676-1.295 1.222-2.891 1.222-1.597 0-2.892-0.547-2.892-1.222v-1.509h0.009c0.097 0.638 1.348 1.144 2.883 1.144s2.785-0.506 2.883-1.144h0.008v1.509zM16.926 18.468v8.607l10.268-5.928v-8.607l-10.268 5.927zM15.937 7.348c1.597 0 2.89-0.547 2.89-1.222s-1.293-1.222-2.89-1.222c-1.597 0-2.892 0.548-2.892 1.222s1.295 1.222 2.892 1.222z"></path>
</svg>
