<?xml version="1.0" encoding="utf-8"?>
<!-- Generated by IcoMoon.io -->
<!DOCTYPE svg PUBLIC "-//W3C//DTD SVG 1.1//EN" "http://www.w3.org/Graphics/SVG/1.1/DTD/svg11.dtd">
<svg version="1.1" xmlns="http://www.w3.org/2000/svg" xmlns:xlink="http://www.w3.org/1999/xlink" width="32" height="32" viewBox="0 0 32 32">
<path fill="#444444" d="M21.201 8.439c0-1.552-1.257-2.809-2.81-2.81h-5.259c-1.552 0.001-2.81 1.258-2.81 2.81v0.994h-2.224v16.968h16.059v-16.968h-2.955v-0.994zM19.286 9.433h-7.047v-0.994c0-0.494 0.399-0.894 0.893-0.894h5.259c0.494 0 0.895 0.4 0.895 0.894v0.994zM2.349 10.944v13.947c0 0.834 0.676 1.51 1.51 1.51h2.679v-16.968h-2.679c-0.834 0-1.51 0.676-1.51 1.511zM28.095 9.433h-2.381v16.968h2.381c0.834 0 1.51-0.677 1.51-1.51v-13.947c0-0.835-0.677-1.511-1.51-1.511z"></path>
</svg>
