<?xml version="1.0" encoding="utf-8"?>
<!-- Generated by IcoMoon.io -->
<!DOCTYPE svg PUBLIC "-//W3C//DTD SVG 1.1//EN" "http://www.w3.org/Graphics/SVG/1.1/DTD/svg11.dtd">
<svg version="1.1" xmlns="http://www.w3.org/2000/svg" xmlns:xlink="http://www.w3.org/1999/xlink" width="32" height="32" viewBox="0 0 32 32">
<path fill="#444444" d="M27.848 5.568h-23.695c-0.584 0-1.057 0.473-1.057 1.057v19.808h25.809v-19.808c0-0.584-0.473-1.057-1.057-1.057zM8.942 7.541h18.1v1.999h-18.1v-1.999zM6.076 7.364c0.649 0 1.176 0.527 1.176 1.176s-0.526 1.176-1.176 1.176c-0.65 0-1.176-0.527-1.176-1.176s0.526-1.176 1.176-1.176zM27.086 24.613h-2.628v-3.24h-9.949v3.24h-2.609v-3.325h-4.334v3.325h-2.651v-12.357h22.171v12.357z"></path>
<path fill="#444444" d="M7.565 14.56h16.892v4.171h-16.892v-4.171z"></path>
</svg>
