<?xml version="1.0" encoding="utf-8"?>
<!-- Generated by IcoMoon.io -->
<!DOCTYPE svg PUBLIC "-//W3C//DTD SVG 1.1//EN" "http://www.w3.org/Graphics/SVG/1.1/DTD/svg11.dtd">
<svg version="1.1" xmlns="http://www.w3.org/2000/svg" xmlns:xlink="http://www.w3.org/1999/xlink" width="32" height="32" viewBox="0 0 32 32">
<path fill="#444444" d="M5.317 26.265c-0.407 0.407-0.407 1.066 0 1.473s1.066 0.407 1.472 0l2.066-2.065c-0.359-0.638-0.658-1.327-0.891-2.055l-2.647 2.647zM26.512 13.889c0.407-0.406 0.407-1.066 0-1.473s-1.066-0.406-1.473 0l-1.841 1.841c0.359 0.638 0.658 1.327 0.891 2.055l2.423-2.423zM7.4 19.965c0-0.364 0.016-0.723 0.047-1.077l-2.884-0c-0.575 0-1.041 0.466-1.041 1.041s0.466 1.041 1.041 1.041h2.878c-0.027-0.331-0.042-0.667-0.042-1.006zM7.91 16.482c0.223-0.736 0.515-1.432 0.866-2.080l-1.987-1.987c-0.407-0.406-1.066-0.406-1.473 0s-0.407 1.066 0 1.473l2.593 2.594zM24.033 23.786c-0.243 0.72-0.551 1.399-0.917 2.028l1.924 1.923c0.407 0.407 1.066 0.407 1.473-0s0.407-1.066 0-1.473l-2.479-2.479zM27.264 18.888l-2.659 0c0.031 0.354 0.047 0.713 0.047 1.077 0 0.34-0.015 0.675-0.042 1.006h2.653c0.575 0 1.041-0.466 1.041-1.041s-0.466-1.041-1.041-1.041zM10.15 4.399c1.707 0.012 2.48 0.646 2.934 1.352 0.373 0.593 0.479 1.282 0.502 1.692-0.952 0.653-1.634 1.668-1.848 2.848h8.664c-0.213-1.18-0.896-2.196-1.848-2.849 0.023-0.41 0.129-1.099 0.503-1.692 0.453-0.706 1.226-1.339 2.934-1.352 0.25 0 0.452-0.202 0.452-0.452s-0.202-0.452-0.452-0.452c-1.948-0.013-3.122 0.823-3.702 1.778-0.372 0.602-0.53 1.224-0.597 1.71-0.502-0.199-1.048-0.31-1.621-0.311-0.573 0.001-1.12 0.112-1.623 0.312-0.067-0.485-0.225-1.108-0.597-1.71-0.58-0.955-1.754-1.791-3.701-1.778-0.25 0-0.452 0.202-0.452 0.452s0.202 0.452 0.452 0.452zM9.010 19.911c0 4.475 2.752 8.17 6.278 8.652v-16.445h-2.361c-2.32 1.428-3.918 4.384-3.918 7.794zM9.935 20.222c0-0.66 0.778-1.195 1.738-1.195s1.738 0.535 1.738 1.195-0.778 1.195-1.738 1.195c-0.96 0-1.738-0.535-1.738-1.195zM13.327 25.387c-0.448 0-0.81-0.55-0.81-1.228s0.363-1.228 0.81-1.228c0.447 0 0.81 0.55 0.81 1.228s-0.363 1.228-0.81 1.228zM13.922 17.116c-0.467 0.466-1.395 0.295-2.074-0.384s-0.851-1.607-0.384-2.073c0.467-0.466 1.395-0.295 2.073 0.384s0.851 1.607 0.384 2.074zM19.214 12.117h-2.361v16.445c3.526-0.482 6.279-4.177 6.279-8.652 0-3.409-1.598-6.365-3.918-7.794zM18.563 15.042c0.679-0.679 1.607-0.85 2.073-0.384s0.295 1.395-0.384 2.073c-0.679 0.679-1.607 0.851-2.074 0.384s-0.295-1.395 0.384-2.074zM18.774 25.387c-0.447 0-0.81-0.55-0.81-1.228s0.363-1.228 0.81-1.228c0.448 0 0.81 0.55 0.81 1.228s-0.363 1.228-0.81 1.228zM20.428 21.417c-0.96 0-1.738-0.535-1.738-1.195s0.778-1.195 1.738-1.195c0.96 0 1.738 0.535 1.738 1.195s-0.778 1.195-1.738 1.195z"></path>
</svg>
