<?xml version="1.0" encoding="utf-8"?>
<!-- Generated by IcoMoon.io -->
<!DOCTYPE svg PUBLIC "-//W3C//DTD SVG 1.1//EN" "http://www.w3.org/Graphics/SVG/1.1/DTD/svg11.dtd">
<svg version="1.1" xmlns="http://www.w3.org/2000/svg" xmlns:xlink="http://www.w3.org/1999/xlink" width="32" height="32" viewBox="0 0 32 32">
<path fill="#444444" d="M11.882 10.425v-5.194h16.766v5.194h-16.766z"></path>
<path fill="#444444" d="M11.882 18.612v-5.194h16.766v5.194h-16.766z"></path>
<path fill="#444444" d="M11.882 26.8v-5.194h16.766v5.194h-16.766z"></path>
<path fill="#444444" d="M8.672 7.872c0 1.502-1.218 2.719-2.719 2.719s-2.719-1.217-2.719-2.719c0-1.502 1.217-2.719 2.719-2.719s2.719 1.217 2.719 2.719z"></path>
<path fill="#444444" d="M8.672 15.692c0 1.502-1.217 2.719-2.719 2.719s-2.719-1.217-2.719-2.719c0-1.502 1.217-2.719 2.719-2.719s2.719 1.217 2.719 2.719z"></path>
<path fill="#444444" d="M8.672 24.060c0 1.502-1.217 2.719-2.719 2.719s-2.719-1.217-2.719-2.719c0-1.502 1.217-2.719 2.719-2.719s2.719 1.217 2.719 2.719z"></path>
</svg>
