<?xml version="1.0" encoding="utf-8"?>
<!-- Generated by IcoMoon.io -->
<!DOCTYPE svg PUBLIC "-//W3C//DTD SVG 1.1//EN" "http://www.w3.org/Graphics/SVG/1.1/DTD/svg11.dtd">
<svg version="1.1" xmlns="http://www.w3.org/2000/svg" xmlns:xlink="http://www.w3.org/1999/xlink" width="32" height="32" viewBox="0 0 32 32">
<path fill="#444444" d="M15.971 2.9c-7.211 0-13.056 5.846-13.057 13.057 0.001 7.212 5.846 13.057 13.057 13.058 7.212-0.001 13.057-5.846 13.058-13.058-0.001-7.212-5.846-13.057-13.058-13.057zM23.765 23.751c-0.57 0.57-1.204 1.075-1.886 1.509l-5.781-9.211-5.753 9.386c-0.791-0.471-1.52-1.037-2.168-1.684-1.977-1.978-3.202-4.694-3.226-7.707h11.141l-5.342-9.798c1.554-0.837 3.33-1.313 5.221-1.313 1.986 0 3.845 0.527 5.452 1.444l-5.32 9.667h10.888c-0.024 3.012-1.249 5.728-3.226 7.706z"></path>
</svg>
