<?xml version="1.0" encoding="utf-8"?>
<!-- Generated by IcoMoon.io -->
<!DOCTYPE svg PUBLIC "-//W3C//DTD SVG 1.1//EN" "http://www.w3.org/Graphics/SVG/1.1/DTD/svg11.dtd">
<svg version="1.1" xmlns="http://www.w3.org/2000/svg" xmlns:xlink="http://www.w3.org/1999/xlink" width="32" height="32" viewBox="0 0 32 32">
<path fill="#444444" d="M27.856 16.965c0-0.79-0.058-2.080-0.128-2.867l-0.703-8.504c-0.069-0.786-0.766-1.515-1.549-1.622 0 0-2.332-0.803-9.452-0.803s-9.452 0.803-9.452 0.803c-0.783 0.106-1.48 0.836-1.55 1.622l-0.7 8.504c-0.072 0.787-0.129 2.077-0.129 2.867v7.792h1.836v1.954c0 1.137 0.923 2.059 2.059 2.059s2.060-0.922 2.060-2.059v-1.954h11.751v1.954c0 1.137 0.923 2.059 2.059 2.059 1.138 0 2.060-0.923 2.060-2.059v-1.954h1.836v-7.792zM13.047 4.313h5.956c0.644 0 1.168 0.525 1.168 1.169 0 0.646-0.524 1.169-1.168 1.169h-5.956c-0.646 0-1.17-0.523-1.17-1.169 0-0.645 0.524-1.169 1.17-1.169zM8.089 23.080c-0.942 0-1.707-0.764-1.707-1.707s0.764-1.705 1.707-1.705c0.942 0 1.707 0.762 1.707 1.705s-0.765 1.707-1.707 1.707zM6.75 17.284v-0.651c0-0.619 0.045-1.631 0.1-2.246l0.55-5.244c0.054-0.616 0.607-1.121 1.226-1.121h14.797c0.618 0 1.17 0.505 1.225 1.121l0.551 5.244c0.055 0.615 0.099 1.627 0.099 2.246v0.651h-18.549zM23.959 23.080c-0.942 0-1.707-0.764-1.707-1.707s0.764-1.705 1.707-1.705c0.944 0 1.707 0.762 1.707 1.705s-0.762 1.707-1.707 1.707z"></path>
</svg>
