<?xml version="1.0" encoding="utf-8"?>
<!-- Generated by IcoMoon.io -->
<!DOCTYPE svg PUBLIC "-//W3C//DTD SVG 1.1//EN" "http://www.w3.org/Graphics/SVG/1.1/DTD/svg11.dtd">
<svg version="1.1" xmlns="http://www.w3.org/2000/svg" xmlns:xlink="http://www.w3.org/1999/xlink" width="32" height="32" viewBox="0 0 32 32">
<path fill="#444444" d="M22.588 4.641h-13.128c-0.732 0-1.324 0.593-1.324 1.324v20.080c0 0.731 0.593 1.325 1.324 1.325h13.128c0.73 0 1.323-0.594 1.323-1.294v-20.081c0-0.761-0.593-1.354-1.323-1.354zM13.215 25.416h-2.882v-2.881h2.882v2.881zM13.215 21.179h-2.882v-2.882h2.882v2.882zM17.548 25.416h-2.882v-2.881h2.882v2.881zM17.548 21.179h-2.882v-2.882h2.882v2.882zM21.821 25.416h-2.882v-2.881h2.882v2.881zM21.821 21.179h-2.882v-2.882h2.882v2.882zM13.215 16.85h-2.882v-2.882h2.882v2.882zM17.548 16.85h-2.882v-2.882h2.882v2.882zM21.821 16.85h-2.882v-2.882h2.882v2.882zM21.821 11.462h-11.489v-4.702h11.489v4.702z"></path>
</svg>
