<?xml version="1.0" encoding="utf-8"?>
<!-- Generated by IcoMoon.io -->
<!DOCTYPE svg PUBLIC "-//W3C//DTD SVG 1.1//EN" "http://www.w3.org/Graphics/SVG/1.1/DTD/svg11.dtd">
<svg version="1.1" xmlns="http://www.w3.org/2000/svg" xmlns:xlink="http://www.w3.org/1999/xlink" width="32" height="32" viewBox="0 0 32 32">
<path fill="#444444" d="M10.137 25.15v-7.67h-2.616v-1.488c0.689-0.031 1.171-0.077 1.446-0.138 0.439-0.097 0.796-0.292 1.071-0.583 0.188-0.199 0.332-0.465 0.428-0.798 0.056-0.2 0.084-0.348 0.084-0.445h1.825v11.122h-2.24zM19.987 25.15h2.14v-2.393h1.258v-1.711h-1.258v-6.949h-2.455l-4.088 6.75v1.91h4.403v2.393zM17.21 21.046l2.776-4.79v4.79h-2.776zM9.027 8.966c-0.642 0-1.163-0.521-1.163-1.163v-4.188c0-0.642 0.52-1.163 1.163-1.163s1.163 0.521 1.163 1.163v4.188c0 0.642-0.521 1.163-1.163 1.163zM23.030 8.966c-0.642 0-1.162-0.521-1.163-1.163v-4.188c0-0.642 0.52-1.163 1.163-1.163s1.163 0.521 1.163 1.163v4.188c0 0.642-0.521 1.163-1.163 1.163zM24.576 4.627v1.231c0.484 0.428 0.79 1.051 0.79 1.748 0 1.29-1.046 2.336-2.336 2.336s-2.335-1.046-2.335-2.336c0-0.696 0.307-1.32 0.79-1.748v-1.231h-10.913v1.231c0.484 0.428 0.79 1.051 0.79 1.748 0 1.29-1.046 2.336-2.336 2.336s-2.335-1.046-2.335-2.336c0-0.696 0.306-1.32 0.79-1.748v-1.231h-5.204v24.853h27.292v-24.853h-4.994zM27.076 26.987h-22.307v-15.527h22.307v15.527z"></path>
</svg>
