<?xml version="1.0" encoding="utf-8"?>
<!-- Generated by IcoMoon.io -->
<!DOCTYPE svg PUBLIC "-//W3C//DTD SVG 1.1//EN" "http://www.w3.org/Graphics/SVG/1.1/DTD/svg11.dtd">
<svg version="1.1" xmlns="http://www.w3.org/2000/svg" xmlns:xlink="http://www.w3.org/1999/xlink" width="32" height="32" viewBox="0 0 32 32">
<path fill="#444444" d="M21.399 22.027v2.804h-2.805v-2.804h2.805zM17.447 14.522v2.803h-2.803v-2.803h2.803zM21.399 18.274v2.804h-2.805v-2.804h2.805zM25.348 14.522v2.803h-2.803v-2.803h2.803zM17.447 18.274v2.804h-2.803v-2.804h2.803zM21.399 14.522v2.803h-2.805v-2.803h2.805zM25.348 18.274v2.804h-2.803v-2.804h2.803zM9.548 22.027v2.804h-2.803v-2.804h2.803zM9.548 18.274v2.804h-2.803v-2.804h2.803zM24.627 4.638v1.231c0.484 0.428 0.79 1.052 0.79 1.748 0 1.29-1.046 2.335-2.336 2.335s-2.335-1.046-2.335-2.335c0-0.697 0.306-1.32 0.79-1.748v-1.231h-10.913v1.231c0.484 0.428 0.79 1.052 0.79 1.748 0 1.29-1.046 2.335-2.336 2.335s-2.335-1.046-2.335-2.335c0-0.697 0.306-1.32 0.79-1.748v-1.231h-5.204v24.853h27.292v-24.853h-4.993zM27.127 26.998h-22.306v-15.526h22.306v15.526zM13.499 14.522v2.803h-2.805v-2.803h2.805zM13.499 22.027v2.804h-2.805v-2.804h2.805zM17.447 22.027v2.804h-2.803v-2.804h2.803zM13.499 18.274v2.804h-2.805v-2.804h2.805zM9.078 8.977c-0.642 0-1.163-0.52-1.163-1.162v-4.188c0-0.642 0.521-1.163 1.163-1.163s1.163 0.521 1.163 1.163v4.188c0 0.642-0.521 1.162-1.163 1.162zM23.081 8.977c-0.642 0-1.163-0.52-1.163-1.162v-4.188c0-0.642 0.521-1.163 1.163-1.163s1.163 0.521 1.163 1.163v4.188c0 0.642-0.521 1.162-1.163 1.162z"></path>
</svg>
