<?xml version="1.0" encoding="utf-8"?>
<!-- Generated by IcoMoon.io -->
<!DOCTYPE svg PUBLIC "-//W3C//DTD SVG 1.1//EN" "http://www.w3.org/Graphics/SVG/1.1/DTD/svg11.dtd">
<svg version="1.1" xmlns="http://www.w3.org/2000/svg" xmlns:xlink="http://www.w3.org/1999/xlink" width="32" height="32" viewBox="0 0 32 32">
<path fill="#444444" d="M2.465 23.952h15.409v-14.233h-15.409v14.233zM2.465 27.282c0 0.836 0.677 1.51 1.51 1.51h12.388c0.834 0 1.51-0.674 1.51-1.51v-1.413h-15.409v1.413zM16.363 4.793h-3.129v-1.643h-6.13v1.643h-3.129c-0.834 0-1.51 0.674-1.51 1.51v1.501h15.409v-1.501c0-0.836-0.677-1.51-1.51-1.51zM19.629 8.090v17.747h9.955v-17.747h-9.955zM23.438 24.583h-2.126v-2.123h2.126v2.123zM23.438 11.468h-2.126v-2.128h2.126v2.128zM27.79 24.583h-2.126v-2.123h2.126v2.123zM27.79 11.468h-2.126v-2.128h2.126v2.128z"></path>
</svg>
