<?xml version="1.0" encoding="utf-8"?>
<!-- Generated by IcoMoon.io -->
<!DOCTYPE svg PUBLIC "-//W3C//DTD SVG 1.1//EN" "http://www.w3.org/Graphics/SVG/1.1/DTD/svg11.dtd">
<svg version="1.1" xmlns="http://www.w3.org/2000/svg" xmlns:xlink="http://www.w3.org/1999/xlink" width="32" height="32" viewBox="0 0 32 32">
<path fill="#444444" d="M15.998 4.474c-6.38 0.002-11.549 5.171-11.55 11.55 0.001 6.38 5.17 11.549 11.55 11.55 6.38-0.001 11.549-5.17 11.55-11.55-0.001-6.38-5.171-11.549-11.55-11.55zM10.46 10.486c1.423-1.421 3.37-2.293 5.538-2.294 1.5 0.001 2.893 0.418 4.081 1.146l-10.767 10.767c-0.727-1.188-1.145-2.581-1.146-4.081 0.001-2.169 0.874-4.115 2.294-5.538zM21.537 21.563c-1.424 1.42-3.37 2.293-5.538 2.294-1.5-0.001-2.893-0.419-4.081-1.146l10.767-10.767c0.727 1.188 1.145 2.581 1.146 4.081-0.001 2.169-0.874 4.115-2.294 5.538z"></path>
</svg>
