<?xml version="1.0" encoding="utf-8"?>
<!-- Generated by IcoMoon.io -->
<!DOCTYPE svg PUBLIC "-//W3C//DTD SVG 1.1//EN" "http://www.w3.org/Graphics/SVG/1.1/DTD/svg11.dtd">
<svg version="1.1" xmlns="http://www.w3.org/2000/svg" xmlns:xlink="http://www.w3.org/1999/xlink" width="32" height="32" viewBox="0 0 32 32">
<path fill="#444444" d="M26.83 8.104c-0.413-0.199-0.399-1.988-0.742-2.332-0.399-0.399-1.976 0.013-2.197-0.459-0.658-1.415 0.010-3.132-2.867-0.255-1.559 1.561-1.414 3.343-0.756 4.63-0.875-0.488-1.876-0.73-2.923-0.73-1.993 0-4.139 0.875-5.829 2.564-2.575 2.575-3.252 6.208-1.831 8.752-1.287-0.66-3.072-0.805-4.633 0.755-2.878 2.879-1.161 2.21 0.255 2.868 0.472 0.22 0.059 1.798 0.46 2.197 0.343 0.344 2.132 0.33 2.33 0.742 0.727 1.5-0.276 2.982 2.735-0.028 1.525-1.526 1.42-3.264 0.797-4.545 0.899 0.529 1.94 0.787 3.025 0.787 1.995 0 4.139-0.874 5.829-2.563 2.608-2.61 3.272-6.305 1.774-8.853 1.281 0.623 3.021 0.729 4.546-0.798 3.011-3.011 1.529-2.007 0.029-2.732zM18.577 11.908c-2.344 0.686-3.898 2.202-4.912 3.657-1.010 1.451-1.449 2.824-1.527 3.091-0.010 0.035-0.010 0.045-0.010 0.045-0.094 0.349-0.409 0.58-0.754 0.58-0.067 0-0.133-0.008-0.2-0.027-0.415-0.11-0.662-0.536-0.554-0.953 0.014-0.051 0.415-1.557 1.545-3.297 1.124-1.735 3.013-3.727 5.976-4.593 0.413-0.121 0.846 0.117 0.965 0.53 0.123 0.413-0.114 0.845-0.529 0.966z"></path>
</svg>
