<?xml version="1.0" encoding="utf-8"?>
<!-- Generated by IcoMoon.io -->
<!DOCTYPE svg PUBLIC "-//W3C//DTD SVG 1.1//EN" "http://www.w3.org/Graphics/SVG/1.1/DTD/svg11.dtd">
<svg version="1.1" xmlns="http://www.w3.org/2000/svg" xmlns:xlink="http://www.w3.org/1999/xlink" width="32" height="32" viewBox="0 0 32 32">
<path fill="#444444" d="M27.807 15.696c0-0.834-0.677-1.511-1.51-1.511h-0.703l-1.972-6.266-0.020-0.049c-0.301-0.709-0.814-1.251-1.41-1.651-0.599-0.394-1.295-0.66-2.066-0.666h-8.527c-0.771 0.006-1.467 0.272-2.066 0.666-0.595 0.401-1.108 0.942-1.409 1.651l-0.021 0.050-1.97 6.265h-0.476c-0.834 0-1.51 0.677-1.51 1.511v6.78h1.433v1.943c0 1.138 0.922 2.059 2.059 2.059s2.059-0.921 2.059-2.059v-1.943h12.49v1.943c0 1.136 0.922 2.059 2.059 2.059s2.059-0.923 2.059-2.059v-1.943h1.504v-6.78zM24.244 16.421c0.943 0 1.708 0.763 1.708 1.706s-0.764 1.707-1.708 1.707c-0.943 0-1.706-0.764-1.706-1.707s0.762-1.706 1.706-1.706zM10.297 8.728c0.080-0.168 0.278-0.401 0.53-0.564 0.271-0.186 0.59-0.279 0.77-0.274h8.527c0.181-0.005 0.501 0.088 0.77 0.274 0.254 0.163 0.451 0.397 0.531 0.564l1.716 5.457h-14.563l1.718-5.457zM7.635 19.835c-0.943 0-1.708-0.764-1.708-1.707s0.764-1.706 1.708-1.706c0.942 0 1.706 0.763 1.706 1.706s-0.763 1.707-1.706 1.707z"></path>
</svg>
