<?xml version="1.0" encoding="utf-8"?>
<!-- Generated by IcoMoon.io -->
<!DOCTYPE svg PUBLIC "-//W3C//DTD SVG 1.1//EN" "http://www.w3.org/Graphics/SVG/1.1/DTD/svg11.dtd">
<svg version="1.1" xmlns="http://www.w3.org/2000/svg" xmlns:xlink="http://www.w3.org/1999/xlink" width="32" height="32" viewBox="0 0 32 32">
<path fill="#444444" d="M7.991 6.696h5.192v3.676h-5.192v-3.676z"></path>
<path fill="#444444" d="M25.903 14.736l-2.42-3.43v-6.004h-8.824v6.544h-6.28l-2.039 2.889v4.699h19.563v-4.699zM16.535 7.22h5.030v2.17h-5.030v-2.17zM9.732 17.781c-0.573 0-1.037-0.464-1.037-1.037s0.464-1.037 1.037-1.037c0.573 0 1.037 0.464 1.037 1.037s-0.464 1.037-1.037 1.037zM11.928 15.228c-0.573 0-1.037-0.464-1.037-1.037s0.464-1.037 1.037-1.037c0.573 0 1.037 0.464 1.037 1.037s-0.464 1.037-1.037 1.037zM13.881 17.781c-0.573 0-1.037-0.464-1.037-1.037s0.464-1.037 1.037-1.037c0.573 0 1.037 0.464 1.037 1.037s-0.464 1.037-1.037 1.037zM16.077 15.228c-0.573 0-1.037-0.464-1.037-1.037s0.464-1.037 1.037-1.037c0.573 0 1.037 0.464 1.037 1.037s-0.464 1.037-1.037 1.037zM18.029 17.781c-0.573 0-1.037-0.464-1.037-1.037s0.464-1.037 1.037-1.037c0.573 0 1.037 0.464 1.037 1.037s-0.464 1.037-1.037 1.037zM20.225 15.228c-0.573 0-1.037-0.464-1.037-1.037s0.465-1.037 1.037-1.037c0.573 0 1.037 0.464 1.037 1.037s-0.465 1.037-1.037 1.037zM22.178 17.781c-0.573 0-1.037-0.464-1.037-1.037s0.465-1.037 1.037-1.037c0.573 0 1.037 0.464 1.037 1.037s-0.464 1.037-1.037 1.037z"></path>
<path fill="#444444" d="M4.638 21.266h22.724v4.906h-22.724v-4.906z"></path>
</svg>
