<?xml version="1.0" encoding="utf-8"?>
<!-- Generated by IcoMoon.io -->
<!DOCTYPE svg PUBLIC "-//W3C//DTD SVG 1.1//EN" "http://www.w3.org/Graphics/SVG/1.1/DTD/svg11.dtd">
<svg version="1.1" xmlns="http://www.w3.org/2000/svg" xmlns:xlink="http://www.w3.org/1999/xlink" width="32" height="32" viewBox="0 0 32 32">
<path fill="#444444" d="M26.513 15.932c-0.001-0.043-0.005-0.086-0.013-0.129-0.002-0.008-0.004-0.016-0.006-0.024-0.004-0.016-0.006-0.031-0.011-0.047l-3.153-10.586c-0.093-0.314-0.382-0.529-0.709-0.529h-13.244c-0.327 0-0.616 0.215-0.709 0.529l-3.153 10.586c-0.005 0.015-0.007 0.031-0.011 0.047-0.002 0.008-0.004 0.016-0.006 0.024-0.008 0.043-0.012 0.086-0.013 0.129 0 0.004-0.001 0.008-0.001 0.012v10.698c0 0.408 0.331 0.74 0.74 0.74h19.549c0.409 0 0.74-0.331 0.74-0.74v-10.698c0-0.004-0.001-0.008-0.001-0.012zM9.93 6.098h12.14l2.712 9.106h-17.564l2.712-9.106z"></path>
<path fill="#444444" d="M10.83 9.283h10.34v1.841h-10.34v-1.841z"></path>
<path fill="#444444" d="M11.582 6.838h8.836v1.184h-8.836v-1.184z"></path>
<path fill="#444444" d="M9.871 12.369h12.258v2.114h-12.258v-2.114z"></path>
</svg>
