<?xml version="1.0" encoding="utf-8"?>
<!-- Generated by IcoMoon.io -->
<!DOCTYPE svg PUBLIC "-//W3C//DTD SVG 1.1//EN" "http://www.w3.org/Graphics/SVG/1.1/DTD/svg11.dtd">
<svg version="1.1" xmlns="http://www.w3.org/2000/svg" xmlns:xlink="http://www.w3.org/1999/xlink" width="32" height="32" viewBox="0 0 32 32">
<path fill="#444444" d="M8.538 8.951h15.558v1.819h-15.558v-1.819z"></path>
<path fill="#444444" d="M11.356 12.24h9.922v1.819h-9.922v-1.819z"></path>
<path fill="#444444" d="M6.699 16.656h10.928v5.431h-10.928v-5.431z"></path>
<path fill="#444444" d="M25.828 19.372c0 1.578-1.279 2.857-2.857 2.857s-2.857-1.279-2.857-2.857c0-1.578 1.279-2.857 2.857-2.857s2.857 1.279 2.857 2.857z"></path>
<path fill="#444444" d="M3.095 5.187v21.391h16.883v-1.48h-15.403v-18.431h22.85v18.431h-1.461v1.48h2.941v-21.391z"></path>
<path fill="#444444" d="M21.458 23.312v3.817l1.513-0.723 1.513 0.723v-3.817c-0.47 0.181-0.98 0.282-1.513 0.282s-1.043-0.1-1.513-0.282z"></path>
</svg>
