<?xml version="1.0" encoding="utf-8"?>
<!-- Generated by IcoMoon.io -->
<!DOCTYPE svg PUBLIC "-//W3C//DTD SVG 1.1//EN" "http://www.w3.org/Graphics/SVG/1.1/DTD/svg11.dtd">
<svg version="1.1" xmlns="http://www.w3.org/2000/svg" xmlns:xlink="http://www.w3.org/1999/xlink" width="32" height="32" viewBox="0 0 32 32">
<path fill="#444444" d="M9.82 27.58h3.196v-11.352l-3.196 3.198v8.153zM5.425 23.822v3.759h3.197v-6.956l-3.197 3.197zM14.214 27.578h3.197v-8.775l-3.197-3.197v11.972zM18.608 19.176v8.404h3.196v-11.601l-3.196 3.198zM23.005 27.58h3.194v-15.996l-3.194 3.197v12.799zM21.733 5.085l2.132 2.134-5.668 5.67-4.272-4.271-10.875 10.877 2.261 2.259 8.615-8.615 4.272 4.271 7.928-7.929 2.109 2.109 0.689-7.19-7.19 0.687z"></path>
</svg>
