<?xml version="1.0" encoding="utf-8"?>
<!-- Generated by IcoMoon.io -->
<!DOCTYPE svg PUBLIC "-//W3C//DTD SVG 1.1//EN" "http://www.w3.org/Graphics/SVG/1.1/DTD/svg11.dtd">
<svg version="1.1" xmlns="http://www.w3.org/2000/svg" xmlns:xlink="http://www.w3.org/1999/xlink" width="32" height="32" viewBox="0 0 32 32">
<path fill="#444444" d="M11.007 12.097c0.458 0 0.883-0.142 1.234-0.384l3.51 2.101c-0.005 0.058-0.009 0.117-0.009 0.176 0 1.202 0.974 2.176 2.176 2.176s2.176-0.974 2.176-2.176c0-0.272-0.052-0.531-0.143-0.771l4.071-4.368 2.391 2.067 1.445-7.697-7.408 2.543 2.115 1.829-4.021 4.314c-0.198-0.060-0.409-0.092-0.627-0.092-0.435 0-0.839 0.129-1.18 0.349l-3.561-2.131c0.002-0.037 0.005-0.073 0.005-0.11 0-1.202-0.974-2.176-2.176-2.176s-2.176 0.974-2.176 2.176c0 0.208 0.031 0.408 0.085 0.599l-2.899 2.664v2.613l4.192-3.852c0.247 0.097 0.515 0.153 0.797 0.153zM11.007 19.906c0.601 0 1.144-0.243 1.538-0.637l6.252 2.329c0.11 1.099 1.037 1.956 2.165 1.956 1.202 0 2.176-0.974 2.176-2.176 0-0.294-0.059-0.574-0.165-0.83l3.665-4.164 1.415 1.091 0.683-5.231-4.886 1.988 1.262 0.974-3.584 4.072c-0.181-0.049-0.37-0.077-0.566-0.077-0.578 0-1.101 0.227-1.491 0.594l-6.308-2.35c-0.139-1.068-1.050-1.893-2.155-1.893-1.202 0-2.176 0.974-2.176 2.176 0 0.060 0.004 0.119 0.009 0.178l-2.822 1.737v2.259l3.812-2.346c0.34 0.219 0.743 0.348 1.178 0.348zM4.518 27.391v-0.024h-0.065v-24.72h-1.858v26.667h26.667v-1.923h-24.744z"></path>
</svg>
