<?xml version="1.0" encoding="utf-8"?>
<!-- Generated by IcoMoon.io -->
<!DOCTYPE svg PUBLIC "-//W3C//DTD SVG 1.1//EN" "http://www.w3.org/Graphics/SVG/1.1/DTD/svg11.dtd">
<svg version="1.1" xmlns="http://www.w3.org/2000/svg" xmlns:xlink="http://www.w3.org/1999/xlink" width="32" height="32" viewBox="0 0 32 32">
<path fill="#444444" d="M16.176 4.323c-7.535-0.149-13.737 4.495-13.853 10.37-0.040 2.043 0.661 3.966 1.909 5.611h-0c2.146 2.757-0.196 7.497-0.196 7.497l6.916-2.978c1.49 0.471 3.109 0.745 4.806 0.779 7.535 0.148 13.737-4.494 13.853-10.371s-5.899-10.76-13.433-10.908zM10.133 16.652c-0.928 0-1.681-0.753-1.681-1.681s0.752-1.681 1.681-1.681 1.681 0.753 1.681 1.681c0 0.928-0.753 1.681-1.681 1.681zM15.735 16.652c-0.928 0-1.681-0.753-1.681-1.681s0.752-1.681 1.681-1.681 1.681 0.753 1.681 1.681c-0 0.928-0.753 1.681-1.681 1.681zM21.337 16.652c-0.928 0-1.681-0.753-1.681-1.681s0.752-1.681 1.681-1.681c0.928 0 1.681 0.753 1.681 1.681s-0.752 1.681-1.681 1.681z"></path>
</svg>
