<?xml version="1.0" encoding="utf-8"?>
<!-- Generated by IcoMoon.io -->
<!DOCTYPE svg PUBLIC "-//W3C//DTD SVG 1.1//EN" "http://www.w3.org/Graphics/SVG/1.1/DTD/svg11.dtd">
<svg version="1.1" xmlns="http://www.w3.org/2000/svg" xmlns:xlink="http://www.w3.org/1999/xlink" width="32" height="32" viewBox="0 0 32 32">
<path fill="#444444" d="M4.935 8.945c0-2.201 1.784-3.984 3.984-3.985v0 1.565c-1.336 0.002-2.417 1.083-2.42 2.42v0h-1.565z"></path>
<path fill="#444444" d="M4.935 13.348v-3.202h1.565v3.202h-1.565z"></path>
<path fill="#444444" d="M4.935 17.528v-3.202h1.565v3.202h-1.565z"></path>
<path fill="#444444" d="M4.935 21.797v-3.202h1.565v3.202h-1.565z"></path>
<path fill="#444444" d="M25.393 13.348v-3.202h1.565v3.202h-1.565z"></path>
<path fill="#444444" d="M25.393 17.528v-3.202h1.565v3.202h-1.565z"></path>
<path fill="#444444" d="M25.393 21.797v-3.202h1.565v3.202h-1.565z"></path>
<path fill="#444444" d="M18.525 26.939v-1.565h3.202v1.565h-3.202z"></path>
<path fill="#444444" d="M14.345 26.939v-1.565h3.202v1.565h-3.202z"></path>
<path fill="#444444" d="M10.076 26.939v-1.565h3.202v1.565h-3.202z"></path>
<path fill="#444444" d="M18.525 6.525v-1.565h3.202v1.565h-3.202z"></path>
<path fill="#444444" d="M14.345 6.525v-1.565h3.202v1.565h-3.202z"></path>
<path fill="#444444" d="M10.076 6.525v-1.565h3.202v1.565h-3.202z"></path>
<path fill="#444444" d="M4.935 22.903h1.565c0.002 1.336 1.084 2.417 2.419 2.419v0 1.565c-2.201-0-3.984-1.783-3.985-3.984v0z"></path>
<path fill="#444444" d="M22.929 25.322c1.336-0.002 2.417-1.083 2.419-2.419v0h1.565c-0 2.2-1.783 3.984-3.984 3.984v0-1.565z"></path>
<path fill="#444444" d="M25.348 8.945c-0.003-1.336-1.084-2.417-2.419-2.42v0-1.565c2.201 0 3.984 1.784 3.984 3.985v0h-1.565z"></path>
</svg>
