<?xml version="1.0" encoding="utf-8"?>
<!-- Generated by IcoMoon.io -->
<!DOCTYPE svg PUBLIC "-//W3C//DTD SVG 1.1//EN" "http://www.w3.org/Graphics/SVG/1.1/DTD/svg11.dtd">
<svg version="1.1" xmlns="http://www.w3.org/2000/svg" xmlns:xlink="http://www.w3.org/1999/xlink" width="32" height="32" viewBox="0 0 32 32">
<path fill="#444444" d="M21.982 16.644v8.572c0 0.863-0.702 1.565-1.565 1.565h-14.61c-0.863 0-1.565-0.702-1.565-1.565v-15.386c0-0.863 0.702-1.565 1.565-1.565h13.166c0.586-0.508 1.197-1.022 1.832-1.539-0.127-0.016-0.256-0.026-0.388-0.026h-14.61c-1.729 0-3.13 1.401-3.13 3.13v15.386c0 1.729 1.401 3.13 3.13 3.13h14.61c1.729 0 3.13-1.401 3.13-3.13v-10.691c-0.532 0.695-1.054 1.402-1.565 2.12z"></path>
<path fill="#444444" d="M28.639 3.643c-7.338 4.499-12.663 10.176-15.056 13.025l-5.859-4.59-2.587 2.086 10.125 10.297c1.742-4.463 7.261-13.186 13.999-19.384l-0.621-1.432z"></path>
</svg>
