<?xml version="1.0" encoding="utf-8"?>
<!-- Generated by IcoMoon.io -->
<!DOCTYPE svg PUBLIC "-//W3C//DTD SVG 1.1//EN" "http://www.w3.org/Graphics/SVG/1.1/DTD/svg11.dtd">
<svg version="1.1" xmlns="http://www.w3.org/2000/svg" xmlns:xlink="http://www.w3.org/1999/xlink" width="32" height="32" viewBox="0 0 32 32">
<path fill="#444444" d="M23.277 5.132c1.729 0 3.13 1.401 3.13 3.13v15.386c0 1.728-1.401 3.13-3.13 3.13h-14.61c-1.728 0-3.13-1.401-3.13-3.13v-15.386c0-1.729 1.401-3.13 3.13-3.13h14.61zM23.277 6.697h-14.61c-0.863 0-1.565 0.702-1.565 1.565v15.386c0 0.863 0.702 1.565 1.565 1.565h14.61c0.863 0 1.565-0.702 1.565-1.565v-15.386c0-0.863-0.702-1.565-1.565-1.565v0z"></path>
</svg>
