<?xml version="1.0" encoding="utf-8"?>
<!-- Generated by IcoMoon.io -->
<!DOCTYPE svg PUBLIC "-//W3C//DTD SVG 1.1//EN" "http://www.w3.org/Graphics/SVG/1.1/DTD/svg11.dtd">
<svg version="1.1" xmlns="http://www.w3.org/2000/svg" xmlns:xlink="http://www.w3.org/1999/xlink" width="32" height="32" viewBox="0 0 32 32">
<path fill="#444444" d="M4.151 24.42h-1.565c0 2.201 1.784 3.984 3.984 3.985v-1.565c-1.336-0.002-2.417-1.084-2.419-2.419zM4.151 15.843h-1.565v3.202h1.565v-3.202zM2.587 10.462h1.565c0.002-1.336 1.083-2.418 2.419-2.42v-1.565c-2.201 0-3.984 1.783-3.985 3.985zM4.151 20.112h-1.565v3.202h1.565v-3.202zM4.152 11.662h-1.565v3.202h1.565v-3.202zM24.609 13.077c-0.469 0.586-0.932 1.182-1.388 1.788h1.388v-1.788zM19.379 7.813v-1.336h-3.202v1.565h2.936c0.088-0.076 0.177-0.152 0.266-0.229zM7.728 28.455h3.202v-1.565h-3.202v1.565zM23.045 23.314h1.565v-3.202h-1.565v3.202zM20.581 26.839v1.566c2.201-0.001 3.984-1.784 3.984-3.985h-1.565c-0.003 1.336-1.083 2.417-2.419 2.419zM23.044 15.843v3.202h1.565v-3.202h-1.565zM7.728 8.042h3.202v-1.565h-3.202v1.565zM11.997 8.042h3.202v-1.565h-3.202v1.565zM11.997 28.455h3.202v-1.565h-3.202v1.565zM16.177 28.455h3.202v-1.565h-3.202v1.565z"></path>
<path fill="#444444" d="M28.669 3.515c-7.338 4.499-12.663 10.176-15.056 13.025l-5.859-4.59-2.588 2.086 10.125 10.297c1.742-4.463 7.261-13.186 13.999-19.384l-0.621-1.433z"></path>
</svg>
