<?xml version="1.0" encoding="utf-8"?>
<!-- Generated by IcoMoon.io -->
<!DOCTYPE svg PUBLIC "-//W3C//DTD SVG 1.1//EN" "http://www.w3.org/Graphics/SVG/1.1/DTD/svg11.dtd">
<svg version="1.1" xmlns="http://www.w3.org/2000/svg" xmlns:xlink="http://www.w3.org/1999/xlink" width="32" height="32" viewBox="0 0 32 32">
<path fill="#444444" d="M22.332 26.791v-2.777h-11.698v2.777h-1.662v2.902h15.020v-2.902h-1.661zM7.984 9.869c-0.008 0.014 0.003 0.011 0.030-0.004-0.007-0.019-0.016-0.019-0.029 0.004zM11.181 13.014c0.827-0.714 0.841-0.764 1.62-1.149 0.296-0.145 1.183 0.24 1.183 0.24s1.339 0.279 1.967 0.279c0.273 0 0.514-0.119 0.7-0.253-0.971 0.953-3.468 3.524-4.264 5.494-0.757 1.875-0.666 3.838-0.579 4.672h9.768c-0.113-0.754-0.171-2.556 0.981-5.51 1.573-4.037 1.467-7.863-1.101-11.218-1.266-1.654-2.99-2.109-4.413-2.147-1.014-1.028-3.049-1.122-3.049-1.122l0.452 1.74 0.038 0.691-1.781 0.734c0 0-0.629 0.158-0.629 0.735 0 0.538-3.678 3.455-4.058 3.665 0.048 0.146-0.083 1.376-0.083 1.838 0 0.525 0.513 0.82 0.513 0.82l0.631 0.365c0-0 1.319 0.806 2.106 0.127z"></path>
</svg>
