<?xml version="1.0" encoding="utf-8"?>
<!-- Generated by IcoMoon.io -->
<!DOCTYPE svg PUBLIC "-//W3C//DTD SVG 1.1//EN" "http://www.w3.org/Graphics/SVG/1.1/DTD/svg11.dtd">
<svg version="1.1" xmlns="http://www.w3.org/2000/svg" xmlns:xlink="http://www.w3.org/1999/xlink" width="32" height="32" viewBox="0 0 32 32">
<path fill="#444444" d="M22.020 10.010h-11.992v11.991h11.992v-11.991zM27.262 2.455h-22.475c-1.277 0-2.313 1.035-2.313 2.313v22.474c0 1.277 1.036 2.314 2.313 2.314h22.475c1.278 0 2.314-1.036 2.314-2.314v-22.474c0-1.278-1.035-2.313-2.314-2.313zM20.572 4.427h2.026v2.676h-2.026v-2.676zM16.866 4.427h2.025v2.677h-2.025v-2.677zM13.157 4.427h2.025v2.676h-2.025v-2.676zM9.449 4.427h2.028v2.676h-2.028v-2.676zM7.123 22.579h-2.675v-2.025h2.675v2.025zM7.123 18.872h-2.675v-2.026h2.675v2.026zM7.123 15.164h-2.675v-2.026h2.675v2.026zM7.123 11.457h-2.675v-2.026h2.675v2.026zM11.476 27.583h-2.028v-2.675h2.028v2.675zM15.183 27.583h-2.025v-2.675h2.025v2.675zM18.891 27.583h-2.025v-2.675h2.025v2.675zM22.599 27.583h-2.026v-2.675h2.026v2.675zM23.79 23.772h-15.533v-15.532h15.533v15.532zM27.602 22.581h-2.675v-2.027h2.675v2.027zM27.602 18.872h-2.675v-2.026h2.675v2.026zM27.602 15.164h-2.675v-2.025h2.675v2.025zM27.602 11.457h-2.675v-2.026h2.675v2.026z"></path>
</svg>
