<?xml version="1.0" encoding="utf-8"?>
<!-- Generated by IcoMoon.io -->
<!DOCTYPE svg PUBLIC "-//W3C//DTD SVG 1.1//EN" "http://www.w3.org/Graphics/SVG/1.1/DTD/svg11.dtd">
<svg version="1.1" xmlns="http://www.w3.org/2000/svg" xmlns:xlink="http://www.w3.org/1999/xlink" width="32" height="32" viewBox="0 0 32 32">
<path fill="#444444" d="M2.421 22.573h3.123v-2.026h-3.123v2.026zM2.421 15.158h3.123v-2.028h-3.123v2.028zM2.421 18.865h3.123v-2.026h-3.123v2.026zM2.421 11.448h3.123v-2.025h-3.123v2.025zM29.627 20.546h-4.319v-1.681h4.319v-2.026h-4.319v-1.684h4.319v-2.026h-4.319v-1.681h4.319v-3.768h-2.024l-0.001 1.741h-2.293v-1.154c0-0.879-0.711-1.591-1.59-1.591h-15.459c-0.879 0-1.591 0.712-1.591 1.591v15.459c0 0.879 0.712 1.59 1.591 1.59h15.459c0.879 0 1.59-0.711 1.59-1.59v-1.155h2.293v1.517h2.026v-3.543zM23.099 23.108h-14.222v-14.222h14.222v14.222zM21.542 10.446h-11.106v11.103h11.106v-11.103z"></path>
</svg>
