<?xml version="1.0" encoding="utf-8"?>
<!-- Generated by IcoMoon.io -->
<!DOCTYPE svg PUBLIC "-//W3C//DTD SVG 1.1//EN" "http://www.w3.org/Graphics/SVG/1.1/DTD/svg11.dtd">
<svg version="1.1" xmlns="http://www.w3.org/2000/svg" xmlns:xlink="http://www.w3.org/1999/xlink" width="32" height="32" viewBox="0 0 32 32">
<path fill="#444444" d="M15.999 27.546c-0.276 0-0.556-0.010-0.831-0.029l0.105-1.476c0.962 0.068 1.942-0.001 2.878-0.205l0.315 1.446c-0.806 0.175-1.636 0.264-2.468 0.264v0zM13.296 27.227c-1.078-0.259-2.112-0.672-3.073-1.229l0.742-1.281c0.837 0.485 1.738 0.845 2.677 1.070l-0.345 1.439zM20.279 26.726l-0.549-1.374c0.896-0.358 1.736-0.843 2.497-1.444l0.917 1.162c-0.873 0.688-1.836 1.245-2.865 1.656v0zM8.665 24.918c-0.856-0.705-1.606-1.527-2.228-2.445l1.225-0.831c0.543 0.8 1.197 1.518 1.944 2.133l-0.941 1.143zM24.53 23.78l-1.093-0.997c0.653-0.716 1.198-1.519 1.62-2.387l1.331 0.647c-0.484 0.996-1.109 1.917-1.858 2.737v0zM5.506 20.824c-0.464-1.007-0.779-2.075-0.936-3.174l1.465-0.21c0.137 0.957 0.411 1.888 0.815 2.765l-1.344 0.619zM27.074 19.274l-1.419-0.419c0.272-0.923 0.41-1.883 0.41-2.855h1.48c0 1.114-0.158 2.215-0.471 3.274v0zM5.935 15.79l-1.479-0.030c0.023-1.113 0.204-2.211 0.539-3.264l1.41 0.449c-0.292 0.917-0.45 1.875-0.47 2.845v0zM25.99 14.768c-0.117-0.96-0.372-1.896-0.757-2.781l1.357-0.591c0.442 1.016 0.735 2.091 0.869 3.193l-1.469 0.179zM7.034 11.417l-1.317-0.675c0.505-0.986 1.149-1.893 1.915-2.698l1.072 1.020c-0.667 0.702-1.229 1.494-1.67 2.353v0zM24.452 10.532c-0.526-0.811-1.165-1.542-1.899-2.173l0.964-1.123c0.842 0.723 1.574 1.561 2.177 2.49l-1.242 0.805zM9.937 7.963l-0.892-1.181c0.887-0.67 1.862-1.207 2.898-1.596l0.52 1.386c-0.903 0.339-1.753 0.807-2.527 1.391v0zM21.214 7.389c-0.827-0.502-1.72-0.881-2.654-1.126l0.376-1.431c1.072 0.281 2.097 0.716 3.047 1.293l-0.768 1.265zM14.052 6.122l-0.285-1.452c0.73-0.143 1.481-0.216 2.232-0.216h0c0.357 0 0.717 0.017 1.071 0.049l-0.136 1.474c-0.957-0.088-1.942-0.039-2.882 0.145v0z"></path>
</svg>
