<?xml version="1.0" encoding="utf-8"?>
<!-- Generated by IcoMoon.io -->
<!DOCTYPE svg PUBLIC "-//W3C//DTD SVG 1.1//EN" "http://www.w3.org/Graphics/SVG/1.1/DTD/svg11.dtd">
<svg version="1.1" xmlns="http://www.w3.org/2000/svg" xmlns:xlink="http://www.w3.org/1999/xlink" width="32" height="32" viewBox="0 0 32 32">
<path fill="#444444" d="M14.3 24.010c0-0.619-0.504-1.123-1.123-1.123s-1.123 0.504-1.123 1.123c0 0.619 0.504 1.123 1.123 1.123s1.123-0.504 1.123-1.123z"></path>
<path fill="#444444" d="M24.66 24.010c0-0.619-0.504-1.123-1.123-1.123s-1.123 0.504-1.123 1.123c0 0.619 0.504 1.123 1.123 1.123s1.123-0.504 1.123-1.123z"></path>
<path fill="#444444" d="M20.887 11.381c0 0.619 0.504 1.123 1.123 1.123s1.123-0.504 1.123-1.123c0-0.619-0.504-1.123-1.123-1.123s-1.123 0.504-1.123 1.123z"></path>
<path fill="#444444" d="M19.378 7.766l1.9 1.9c0.224-0.096 0.472-0.149 0.731-0.149 0.816 0 1.509 0.526 1.76 1.257h4.827v-5.221c0-1.188-0.963-2.151-2.151-2.151h-7.068v4.363z"></path>
<path fill="#444444" d="M12.188 15.241c0-0.619-0.504-1.123-1.123-1.123s-1.123 0.504-1.123 1.123c0 0.619 0.504 1.123 1.123 1.123s1.123-0.504 1.123-1.123z"></path>
<path fill="#444444" d="M18.606 15.241c0-0.619-0.504-1.123-1.123-1.123s-1.123 0.504-1.123 1.123c0 0.619 0.504 1.123 1.123 1.123s1.123-0.504 1.123-1.123z"></path>
<path fill="#444444" d="M17.304 20.814c0 0.619 0.504 1.123 1.123 1.123s1.123-0.504 1.123-1.123c0-0.619-0.504-1.123-1.123-1.123s-1.123 0.504-1.123 1.123z"></path>
<path fill="#444444" d="M21.441 19.087l-1.221 1.221c0.045 0.161 0.071 0.33 0.071 0.506 0 1.029-0.834 1.863-1.863 1.863s-1.863-0.834-1.863-1.863 0.834-1.863 1.863-1.863c0.176 0 0.345 0.026 0.506 0.071l1.754-1.754h7.91v-4.674h-5.175c-0.342 0.397-0.847 0.65-1.412 0.65-1.029 0-1.863-0.834-1.863-1.863 0-0.086 0.008-0.171 0.019-0.254l-2.607-2.607v-5.117h-3.526v6.541l3.435 3.435c0.005 0 0.010-0.001 0.015-0.001 1.029 0 1.863 0.834 1.863 1.863s-0.834 1.863-1.863 1.863c-0.042 0-0.082-0.003-0.123-0.006l-3.852 3.852h-4.092c-0.319 0.569-0.927 0.954-1.625 0.954-1.029 0-1.863-0.834-1.863-1.863s0.834-1.863 1.863-1.863c0.698 0 1.306 0.385 1.625 0.954h3.338l3.062-3.062c-0.124-0.25-0.196-0.53-0.196-0.828 0-0.328 0.086-0.636 0.234-0.904l-3.64-3.64v-7.294h-3.065v8.82l1.272 1.272c0.201-0.074 0.418-0.117 0.644-0.117 1.029 0 1.863 0.834 1.863 1.863s-0.834 1.863-1.863 1.863c-1.029 0-1.863-0.834-1.863-1.863 0-0.122 0.013-0.241 0.035-0.357l-1.908-1.908v-9.573h-1.776c-1.188 0-2.151 0.963-2.151 2.151v20.892c0 1.188 0.963 2.151 2.151 2.151h6.714v-2.962c-0.569-0.319-0.954-0.927-0.954-1.625 0-1.029 0.834-1.863 1.863-1.863s1.863 0.834 1.863 1.863c0 0.698-0.385 1.306-0.954 1.625v2.962h8.54v-2.962c-0.569-0.319-0.954-0.927-0.954-1.625 0-1.029 0.834-1.863 1.863-1.863s1.863 0.834 1.863 1.863c0 0.698-0.385 1.306-0.953 1.625v2.962h2c1.187 0 2.151-0.963 2.151-2.151v-7.359h-7.156z"></path>
<path fill="#444444" d="M6.667 20.041c0 0.619 0.504 1.123 1.123 1.123s1.123-0.504 1.123-1.123c0-0.619-0.504-1.123-1.123-1.123s-1.123 0.504-1.123 1.123z"></path>
</svg>
