<?xml version="1.0" encoding="utf-8"?>
<!-- Generated by IcoMoon.io -->
<!DOCTYPE svg PUBLIC "-//W3C//DTD SVG 1.1//EN" "http://www.w3.org/Graphics/SVG/1.1/DTD/svg11.dtd">
<svg version="1.1" xmlns="http://www.w3.org/2000/svg" xmlns:xlink="http://www.w3.org/1999/xlink" width="32" height="32" viewBox="0 0 32 32">
<path fill="#444444" d="M29.893 14.61l-13.923-12.208-13.923 12.21c0.001 1.288 1.044 2.33 2.332 2.33 1.289 0 2.331-1.042 2.333-2.33 0 1.288 1.044 2.33 2.332 2.33 1.095 0 2.011-0.754 2.261-1.772 0.251 1.018 1.167 1.772 2.263 1.772 1.288 0 2.332-1.042 2.332-2.33 0.001 1.288 1.044 2.33 2.332 2.33 1.289 0 2.332-1.042 2.332-2.33 0.001 1.288 1.046 2.33 2.332 2.33 1.288 0 2.332-1.042 2.332-2.33 0.002 1.288 1.046 2.33 2.333 2.33 1.289 0 2.333-1.042 2.333-2.33v-0.002h-0.001zM25.228 17.723c-0.65 0.488-1.457 0.779-2.332 0.779s-1.682-0.29-2.332-0.779c-0.65 0.488-1.457 0.779-2.332 0.779-0.874 0-1.682-0.29-2.332-0.779-0.65 0.488-1.457 0.779-2.332 0.779-0.836 0-1.62-0.266-2.263-0.724-0.642 0.458-1.425 0.724-2.261 0.724-0.875 0-1.682-0.29-2.332-0.779-0.651 0.488-1.459 0.779-2.333 0.779-0.153 0-0.306-0.010-0.454-0.029v9.1c0 0.984 3.791 1.812 8.936 2.054 2.399-1.569 3.109-10.159 3.109-10.159s0.71 8.591 3.109 10.159c5.146-0.242 8.937-1.070 8.937-2.054v-9.1c-0.149 0.019-0.3 0.029-0.455 0.029-0.874 0-1.681-0.29-2.333-0.779z"></path>
</svg>
