<?xml version="1.0" encoding="utf-8"?>
<!-- Generated by IcoMoon.io -->
<!DOCTYPE svg PUBLIC "-//W3C//DTD SVG 1.1//EN" "http://www.w3.org/Graphics/SVG/1.1/DTD/svg11.dtd">
<svg version="1.1" xmlns="http://www.w3.org/2000/svg" xmlns:xlink="http://www.w3.org/1999/xlink" width="32" height="32" viewBox="0 0 32 32">
<path fill="#444444" d="M21.616 6.982c-0.868-0.689-1.83-1.249-2.858-1.665l-0.555 1.372c0.898 0.363 1.736 0.852 2.494 1.452l0.92-1.159z"></path>
<path fill="#444444" d="M8.069 8.218l-0.935-1.147c-0.858 0.699-1.611 1.52-2.237 2.438l1.223 0.834c0.546-0.8 1.202-1.515 1.949-2.125z"></path>
<path fill="#444444" d="M5.303 11.78l-1.342-0.624c-0.468 1.007-0.789 2.073-0.952 3.168l1.464 0.219c0.143-0.955 0.422-1.885 0.831-2.763z"></path>
<path fill="#444444" d="M11.21 6.486c0.297-0.1 0.602-0.188 0.906-0.26l-0.342-1.44c-0.348 0.083-0.697 0.183-1.037 0.298-0.709 0.24-1.395 0.548-2.040 0.915l0.733 1.285c0.562-0.321 1.161-0.589 1.78-0.798z"></path>
<path fill="#444444" d="M4.364 16.191l-1.48 0.025c0.019 1.105 0.198 2.204 0.532 3.266l1.412-0.444c-0.291-0.927-0.448-1.885-0.464-2.847z"></path>
<path fill="#444444" d="M16.625 6.197l0.324-1.444c-1.081-0.242-2.2-0.328-3.301-0.252l0.101 1.476c0.959-0.066 1.934 0.009 2.875 0.22z"></path>
<path fill="#444444" d="M20.958 23.689l0.96 1.126c0.843-0.718 1.578-1.554 2.184-2.485l-1.24-0.808c-0.529 0.812-1.169 1.541-1.904 2.166z"></path>
<path fill="#444444" d="M17.652 25.559c-0.23 0.078-0.465 0.148-0.698 0.209l0.373 1.432c0.267-0.069 0.536-0.15 0.799-0.238 0.787-0.266 1.545-0.616 2.252-1.039l-0.761-1.269c-0.616 0.37-1.277 0.674-1.965 0.907z"></path>
<path fill="#444444" d="M4.129 21.238c0.5 0.991 1.14 1.902 1.901 2.709l1.076-1.016c-0.663-0.702-1.22-1.496-1.656-2.36l-1.321 0.667z"></path>
<path fill="#444444" d="M24.876 12.495c-0.246 0.303-0.489 0.606-0.726 0.909 0.198 0.732 0.314 1.481 0.343 2.235l1.479-0.057c-0.043-1.103-0.245-2.198-0.601-3.254l-0.494 0.167z"></path>
<path fill="#444444" d="M23.648 20.069l1.355 0.595c0.447-1.017 0.745-2.090 0.885-3.188l-1.468-0.187c-0.122 0.958-0.382 1.893-0.772 2.78z"></path>
<path fill="#444444" d="M7.441 25.213c0.883 0.67 1.856 1.21 2.893 1.604l0.526-1.383c-0.905-0.344-1.754-0.815-2.524-1.399l-0.895 1.179z"></path>
<path fill="#444444" d="M12.447 25.893l-0.293 1.451c0.748 0.151 1.514 0.228 2.276 0.228 0.342 0 0.689-0.016 1.030-0.046l-0.133-1.474c-0.958 0.086-1.934 0.032-2.88-0.158z"></path>
<path fill="#444444" d="M28.528 4.429c-6.94 4.255-11.975 9.623-14.238 12.317l-5.541-4.341-2.447 1.973 9.575 9.737c1.648-4.221 6.867-12.47 13.239-18.331l-0.587-1.355z"></path>
</svg>
