<?xml version="1.0" encoding="utf-8"?>
<!-- Generated by IcoMoon.io -->
<!DOCTYPE svg PUBLIC "-//W3C//DTD SVG 1.1//EN" "http://www.w3.org/Graphics/SVG/1.1/DTD/svg11.dtd">
<svg version="1.1" xmlns="http://www.w3.org/2000/svg" xmlns:xlink="http://www.w3.org/1999/xlink" width="32" height="32" viewBox="0 0 32 32">
<path fill="#444444" d="M28.526 21.8l-10.822-6.937c-0.041-0.027-0.084-0.051-0.127-0.076v-0.619c2.011-0.669 3.46-2.565 3.46-4.803 0-2.795-2.263-5.058-5.059-5.059-2.796 0.001-5.060 2.265-5.060 5.059h3.197c0.002-1.028 0.834-1.861 1.864-1.864 1.028 0.003 1.86 0.836 1.864 1.864-0.004 1.028-0.836 1.862-1.864 1.864-0.421 0-0.834 0.171-1.13 0.468-0.299 0.297-0.468 0.709-0.468 1.13v1.96c-0.043 0.024-0.086 0.049-0.127 0.076l-10.822 6.937c-1.196 0.765-1.741 2.228-1.343 3.589 0.401 1.361 1.649 2.299 3.068 2.299h21.645c1.418 0 2.667-0.938 3.066-2.299 0.401-1.361-0.147-2.825-1.341-3.589zM5.156 24.49l10.822-6.936 10.823 6.936h-21.645z"></path>
</svg>
