<?xml version="1.0" encoding="utf-8"?>
<!-- Generated by IcoMoon.io -->
<!DOCTYPE svg PUBLIC "-//W3C//DTD SVG 1.1//EN" "http://www.w3.org/Graphics/SVG/1.1/DTD/svg11.dtd">
<svg version="1.1" xmlns="http://www.w3.org/2000/svg" xmlns:xlink="http://www.w3.org/1999/xlink" width="32" height="32" viewBox="0 0 32 32">
<path fill="#444444" d="M25.904 14.749c0.137-0.523 0.21-1.072 0.21-1.638 0-3.569-2.893-6.463-6.463-6.463-2.684 0-4.985 1.636-5.962 3.965-0.839-0.986-2.088-1.612-3.485-1.612-2.527 0-4.575 2.048-4.575 4.575 0 0.434 0.062 0.854 0.175 1.252-2.063 0.757-3.534 2.737-3.534 5.064 0 2.976 2.411 5.392 5.39 5.392h7.034v-4.543h-2.904l4.452-5.394 4.452 5.394h-2.904v4.543h6.489c2.981 0 5.392-2.416 5.392-5.392 0-2.413-1.582-4.455-3.768-5.143z"></path>
</svg>
