<?xml version="1.0" encoding="utf-8"?>
<!-- Generated by IcoMoon.io -->
<!DOCTYPE svg PUBLIC "-//W3C//DTD SVG 1.1//EN" "http://www.w3.org/Graphics/SVG/1.1/DTD/svg11.dtd">
<svg version="1.1" xmlns="http://www.w3.org/2000/svg" xmlns:xlink="http://www.w3.org/1999/xlink" width="32" height="32" viewBox="0 0 32 32">
<path fill="#444444" d="M4.582 18.935h-1.48v8.020h25.797v-8.020h-24.317zM27.419 25.474h-22.837v-5.059h22.837v5.059z"></path>
<path fill="#444444" d="M24.515 24.118c0.644 0 1.166-0.522 1.166-1.166s-0.522-1.166-1.166-1.166c-0.644 0-1.166 0.522-1.166 1.166s0.522 1.166 1.166 1.166z"></path>
<path fill="#444444" d="M13.409 22.037h1.48v1.998h-1.48v-1.998z"></path>
<path fill="#444444" d="M6.171 22.037h1.48v1.998h-1.48v-1.998z"></path>
<path fill="#444444" d="M9.79 22.037h1.48v1.998h-1.48v-1.998z"></path>
<path fill="#444444" d="M8.769 6.564h0.482v-1.518h-1.518l-0.289 0.739-0.237 0.577 1.414 0.553z"></path>
<path fill="#444444" d="M27.966 14.68l-1.387 0.542-0.542-1.388 1.387-0.542 0.542 1.388z"></path>
<path fill="#444444" d="M23.325 6.896l1.387-0.542-0.511-1.308h-1.49v1.49h0.473z"></path>
<path fill="#444444" d="M26.882 11.903l-1.388 0.542-0.542-1.388 1.388-0.542 0.542 1.388z"></path>
<path fill="#444444" d="M24.41 9.671l1.387-0.543-0.31-0.793c-0-0-0-0.001-0-0.001l-0-0.001c-0-0.001-0-0.001-0.001-0.002l-0-0c-0-0-0-0.001-0.001-0.001l-0-0.001c-0.001-0.002-0.002-0.005-0.003-0.007l-0-0.001c-0.001-0.003-0.002-0.005-0.003-0.008h-0c-0-0.001-0.001-0.003-0.001-0.004h-0c-0-0.001-0.001-0.002-0.001-0.004l-0-0.001c-0.117-0.299-0.22-0.564-0.22-0.564l-1.388 0.542 0.543 1.388z"></path>
<path fill="#444444" d="M28.898 17.071l-0-0c-0-0.001-0.001-0.002-0.001-0.003s-0-0.001-0-0.001v-0c-0-0.001-0-0.002-0.001-0.002s-0-0-0-0.001-0-0.001-0-0.001l-0-0v-0l-0.001-0.002h-0l-0.039-0.1-0.345-0.895-1.414 0.553 0.285 0.741v0.185h1.518v-0.471c0 0-0-0.001-0.001-0.003z"></path>
<path fill="#444444" d="M4.576 13.291l1.388 0.542-0.542 1.387-1.388-0.542 0.542-1.387z"></path>
<path fill="#444444" d="M5.66 10.516l1.388 0.543-0.543 1.388-1.388-0.543 0.543-1.388z"></path>
<path fill="#444444" d="M8.133 8.283l-1.387-0.542c0 0-0.104 0.265-0.221 0.564l-0 0.001c-0 0.001-0.001 0.002-0.001 0.004s-0.001 0.003-0.002 0.004-0.002 0.005-0.003 0.008l-0 0.001c-0.001 0.003-0.002 0.005-0.003 0.007l-0 0.001c-0 0-0 0.001-0 0.001l-0 0c-0 0-0 0.001-0.001 0.002l-0 0.001c-0 0.001-0 0.001-0 0.001l-0.31 0.793 1.388 0.543 0.542-1.388z"></path>
<path fill="#444444" d="M4.619 17.36l0.005-0.014 0.28-0.727-1.414-0.553-0.345 0.895-0.039 0.1-0.001 0.002v0l-0 0c-0 0-0 0-0 0.001s-0 0-0 0.001-0.001 0.002-0.001 0.002v0c-0 0-0 0-0 0.001h-0c-0 0.001-0.001 0.002-0.001 0.003l-0 0c-0.001 0.002-0.001 0.003-0.001 0.003v0.471h1.518v-0.185z"></path>
<path fill="#444444" d="M19.721 5.046h1.49v1.49h-1.49v-1.49z"></path>
<path fill="#444444" d="M16.731 5.046h1.49v1.49h-1.49v-1.49z"></path>
<path fill="#444444" d="M13.741 5.046h1.49v1.49h-1.49v-1.49z"></path>
<path fill="#444444" d="M10.751 5.046h1.49v1.49h-1.49v-1.49z"></path>
</svg>
