<?xml version="1.0" encoding="utf-8"?>
<!-- Generated by IcoMoon.io -->
<!DOCTYPE svg PUBLIC "-//W3C//DTD SVG 1.1//EN" "http://www.w3.org/Graphics/SVG/1.1/DTD/svg11.dtd">
<svg version="1.1" xmlns="http://www.w3.org/2000/svg" xmlns:xlink="http://www.w3.org/1999/xlink" width="32" height="32" viewBox="0 0 32 32">
<path fill="#444444" d="M19.806 20.765c0.102-0.39 0.155-0.799 0.155-1.221 0-2.661-2.156-4.817-4.815-4.817-2.001 0-3.716 1.219-4.445 2.955-0.625-0.735-1.557-1.202-2.598-1.202-1.883 0-3.409 1.527-3.409 3.41 0 0.323 0.045 0.637 0.131 0.933-1.539 0.565-2.635 2.041-2.635 3.775 0 2.219 1.799 4.019 4.018 4.019h12.388c2.222 0 4.018-1.801 4.018-4.019 0-1.798-1.179-3.32-2.808-3.833zM27.149 9.475c0.084-0.296 0.131-0.61 0.131-0.934 0-1.883-1.529-3.409-3.411-3.409-1.040 0-1.972 0.466-2.598 1.202-0.728-1.737-2.442-2.955-4.444-2.955-2.661 0-4.817 2.156-4.817 4.817 0 0.421 0.055 0.831 0.155 1.22-1.629 0.513-2.808 2.034-2.808 3.833 0 0.733 0.196 1.419 0.54 2.010 0.129 0.049 0.255 0.103 0.38 0.165 1.19-1.409 2.956-2.255 4.869-2.255 2.714 0 5.034 1.706 5.954 4.101h4.666c2.22 0 4.018-1.802 4.018-4.020 0-1.733-1.098-3.21-2.635-3.774z"></path>
</svg>
