<?xml version="1.0" encoding="utf-8"?>
<!-- Generated by IcoMoon.io -->
<!DOCTYPE svg PUBLIC "-//W3C//DTD SVG 1.1//EN" "http://www.w3.org/Graphics/SVG/1.1/DTD/svg11.dtd">
<svg version="1.1" xmlns="http://www.w3.org/2000/svg" xmlns:xlink="http://www.w3.org/1999/xlink" width="32" height="32" viewBox="0 0 32 32">
<path fill="#444444" d="M21.569 12.602c-0.123 0-0.244 0.005-0.365 0.013 0.26-0.647 0.405-1.353 0.405-2.094 0-3.1-2.514-5.613-5.613-5.613-3.101 0-5.615 2.513-5.615 5.613 0 0.74 0.145 1.446 0.405 2.093-0.12-0.008-0.241-0.013-0.364-0.013-3.101 0-5.614 2.513-5.614 5.613s2.513 5.613 5.614 5.613c2.288 0 4.255-1.37 5.128-3.335-0.615 2.353-1.756 6.538-2.095 6.538h5.079c-0.338 0-1.479-4.182-2.094-6.536 0.874 1.963 2.84 3.332 5.128 3.332 3.1 0 5.613-2.513 5.613-5.613s-2.514-5.613-5.613-5.613z"></path>
</svg>
