<?xml version="1.0" encoding="utf-8"?>
<!-- Generated by IcoMoon.io -->
<!DOCTYPE svg PUBLIC "-//W3C//DTD SVG 1.1//EN" "http://www.w3.org/Graphics/SVG/1.1/DTD/svg11.dtd">
<svg version="1.1" xmlns="http://www.w3.org/2000/svg" xmlns:xlink="http://www.w3.org/1999/xlink" width="32" height="32" viewBox="0 0 32 32">
<path fill="#444444" d="M4.931 22.991c0 0.834 0.674 1.511 1.508 1.511h16.473c0.834 0 1.51-0.677 1.51-1.511v-1.823h-19.492v1.823zM23.336 7.494c-0.006 0-0.012 0-0.020 0v0h-17.277v5.381c0 3.505 1.525 5.651 3.973 6.736h9.475c1.848-0.84 3.127-2.315 3.611-4.565 0.078 0.004 0.158 0.007 0.237 0.007 2.089 0 3.779-1.693 3.779-3.78s-1.69-3.779-3.779-3.779zM23.336 13.494c-0.012 0-0.025-0.001-0.037-0.001 0.010-0.202 0.016-0.406 0.016-0.617v-3.822c0.008 0 0.014-0.001 0.020-0.001 1.224 0 2.22 0.996 2.22 2.221 0 1.226-0.995 2.221-2.22 2.221z"></path>
</svg>
