<?xml version="1.0" encoding="utf-8"?>
<!-- Generated by IcoMoon.io -->
<!DOCTYPE svg PUBLIC "-//W3C//DTD SVG 1.1//EN" "http://www.w3.org/Graphics/SVG/1.1/DTD/svg11.dtd">
<svg version="1.1" xmlns="http://www.w3.org/2000/svg" xmlns:xlink="http://www.w3.org/1999/xlink" width="32" height="32" viewBox="0 0 32 32">
<path fill="#444444" d="M18.886 8.381c-4.206 0-7.617 3.411-7.617 7.618s3.411 7.615 7.617 7.615c4.206 0 7.615-3.409 7.615-7.615s-3.409-7.618-7.615-7.618zM21.95 15.917v1.275h-1.917l-0.2 0.389v0.617h2.117v1.273h-2.117v1.85h-2.040v-1.85h-2.103v-1.273h2.103v-0.617l-0.186-0.389h-1.917v-1.275h1.273l-2.052-4.169h2.173l1.77 4.169 1.729-4.169h2.173l-2.079 4.169h1.273zM18.886 5.134c-2.794 0-5.341 1.055-7.264 2.786-1.652 0.039-3.197 0.204-4.535 0.466-1.535 0.298-2.804 0.732-3.63 1.197-0.552 0.306-0.889 0.63-1.010 0.84-0.065 0.114-0.082 0.182-0.084 0.244 0.002 0.061 0.019 0.131 0.084 0.243 0.072 0.121 0.207 0.278 0.419 0.448 0.419 0.341 1.132 0.713 2.054 1.026 0.961 0.327 2.148 0.596 3.477 0.778-0.166 0.609-0.276 1.24-0.333 1.886-0.462-0.064-0.914-0.137-1.347-0.221-1.674-0.331-3.103-0.796-4.196-1.407-0.055-0.029-0.106-0.062-0.157-0.093v1.701c0 0.064 0.012 0.136 0.084 0.258 0.072 0.119 0.207 0.278 0.419 0.447 0.419 0.342 1.132 0.714 2.054 1.025 0.895 0.307 1.987 0.56 3.207 0.742 0.094 0.687 0.253 1.355 0.472 1.995-0.654-0.078-1.284-0.174-1.883-0.291-1.674-0.33-3.103-0.796-4.196-1.407-0.076-0.042-0.149-0.086-0.223-0.131v1.473c0.002 0.077 0.019 0.16 0.094 0.291 0.078 0.126 0.219 0.29 0.433 0.464 0.429 0.35 1.148 0.722 2.075 1.037 1.281 0.437 2.955 0.768 4.84 0.931 0.437 0.684 0.95 1.313 1.525 1.879-1.631-0.053-3.166-0.221-4.533-0.488-1.672-0.329-3.095-0.793-4.18-1.4-0.063-0.037-0.127-0.074-0.188-0.111v1.639c0 0.064 0.012 0.137 0.084 0.258 0.072 0.119 0.207 0.278 0.419 0.447 0.419 0.343 1.132 0.712 2.054 1.025 1.844 0.63 4.497 1.042 7.429 1.040 0.834 0 1.639-0.035 2.414-0.096 1.271 0.521 2.663 0.809 4.122 0.809 5.999 0 10.865-4.863 10.865-10.863s-4.866-10.865-10.865-10.865zM18.886 25.304c-5.132 0-9.308-4.173-9.308-9.306s4.175-9.307 9.308-9.307c5.13 0 9.306 4.175 9.306 9.307s-4.176 9.306-9.306 9.306z"></path>
</svg>
