<?xml version="1.0" encoding="utf-8"?>
<!-- Generated by IcoMoon.io -->
<!DOCTYPE svg PUBLIC "-//W3C//DTD SVG 1.1//EN" "http://www.w3.org/Graphics/SVG/1.1/DTD/svg11.dtd">
<svg version="1.1" xmlns="http://www.w3.org/2000/svg" xmlns:xlink="http://www.w3.org/1999/xlink" width="32" height="32" viewBox="0 0 32 32">
<path fill="#444444" d="M17.66 12.867c-0.116 0.094-0.209 0.21-0.276 0.351-0.067 0.137-0.1 0.3-0.1 0.489 0 0.294 0.092 0.523 0.282 0.682 0.186 0.162 0.495 0.29 0.924 0.39v-2.187c-0.151 0-0.301 0.022-0.442 0.068-0.145 0.043-0.274 0.116-0.388 0.206zM20.401 17.388c-0.219-0.174-0.593-0.331-1.12-0.476v2.575c0.162-0.018 0.329-0.055 0.503-0.114 0.176-0.059 0.331-0.141 0.47-0.249 0.139-0.106 0.252-0.239 0.343-0.395 0.088-0.157 0.133-0.343 0.133-0.556 0-0.35-0.11-0.611-0.329-0.785zM18.876 5.105c-2.792 0-5.339 1.057-7.264 2.79-1.652 0.036-3.194 0.201-4.535 0.464-1.535 0.3-2.804 0.732-3.63 1.195-0.552 0.309-0.887 0.63-1.008 0.842-0.067 0.11-0.082 0.184-0.086 0.241 0.004 0.063 0.018 0.133 0.086 0.248 0.070 0.118 0.206 0.276 0.415 0.446 0.423 0.341 1.136 0.713 2.056 1.024 0.961 0.331 2.148 0.599 3.479 0.778-0.165 0.611-0.278 1.243-0.335 1.889-0.462-0.065-0.914-0.137-1.345-0.221-1.676-0.331-3.105-0.795-4.198-1.406-0.053-0.031-0.104-0.063-0.157-0.092v1.699c0 0.063 0.014 0.137 0.086 0.257 0.070 0.121 0.206 0.278 0.415 0.448 0.423 0.341 1.136 0.713 2.056 1.024 0.897 0.309 1.987 0.56 3.207 0.74 0.094 0.691 0.255 1.357 0.472 1.999-0.654-0.080-1.284-0.178-1.88-0.292-1.676-0.331-3.105-0.795-4.198-1.406-0.076-0.045-0.147-0.086-0.221-0.131v1.471c0 0.076 0.018 0.162 0.094 0.288 0.075 0.129 0.216 0.294 0.431 0.466 0.429 0.347 1.148 0.722 2.073 1.034 1.284 0.439 2.957 0.77 4.842 0.934 0.437 0.683 0.948 1.312 1.525 1.88-1.631-0.053-3.166-0.223-4.533-0.492-1.67-0.329-3.092-0.791-4.178-1.398-0.066-0.037-0.129-0.073-0.19-0.113v1.639c0 0.068 0.014 0.137 0.086 0.26 0.070 0.118 0.206 0.276 0.415 0.447 0.423 0.343 1.136 0.713 2.056 1.026 1.841 0.628 4.499 1.040 7.431 1.038 0.832 0 1.639-0.035 2.412-0.098 1.271 0.523 2.663 0.813 4.122 0.813 6.001 0 10.865-4.864 10.865-10.865-0-5.999-4.865-10.867-10.865-10.867zM18.876 25.278c-5.132 0-9.306-4.174-9.306-9.306s4.173-9.306 9.306-9.306c5.132 0 9.306 4.173 9.306 9.306s-4.174 9.306-9.306 9.306zM18.876 8.355c-4.206 0-7.615 3.409-7.615 7.617 0 4.204 3.409 7.618 7.615 7.618s7.617-3.413 7.617-7.618c-0-4.208-3.411-7.617-7.617-7.617zM22.486 18.997c-0.098 0.299-0.274 0.593-0.529 0.879-0.253 0.284-0.597 0.54-1.026 0.764-0.429 0.223-0.979 0.358-1.649 0.403v1.138h-0.791v-1.138c-1.002-0.074-1.784-0.382-2.346-0.924-0.564-0.548-0.889-1.347-0.979-2.401h1.891c-0.008 0.509 0.125 0.91 0.402 1.206 0.278 0.294 0.621 0.482 1.032 0.564v-2.804c-0.043-0.016-0.106-0.037-0.182-0.059s-0.158-0.043-0.247-0.061c-0.331-0.090-0.656-0.194-0.979-0.315-0.321-0.121-0.609-0.28-0.865-0.482-0.253-0.202-0.458-0.452-0.611-0.752-0.151-0.298-0.227-0.67-0.227-1.12 0-0.454 0.088-0.858 0.264-1.206 0.172-0.347 0.403-0.642 0.689-0.879 0.286-0.233 0.617-0.419 0.991-0.548 0.376-0.129 0.764-0.209 1.167-0.237v-1.032h0.791v1.032c0.403 0.045 0.781 0.133 1.132 0.261 0.356 0.131 0.664 0.311 0.932 0.54 0.27 0.227 0.488 0.509 0.658 0.848 0.169 0.341 0.268 0.744 0.294 1.208h-1.903c-0.010-0.358-0.121-0.663-0.335-0.912-0.215-0.251-0.474-0.376-0.779-0.376v2.375c0.108 0.024 0.217 0.053 0.329 0.078 0.11 0.028 0.229 0.059 0.354 0.094 0.662 0.182 1.173 0.402 1.531 0.664 0.356 0.266 0.621 0.54 0.791 0.828 0.17 0.284 0.27 0.57 0.3 0.856s0.049 0.542 0.049 0.764c0 0.196-0.051 0.443-0.149 0.744z"></path>
</svg>
