<?xml version="1.0" encoding="utf-8"?>
<!-- Generated by IcoMoon.io -->
<!DOCTYPE svg PUBLIC "-//W3C//DTD SVG 1.1//EN" "http://www.w3.org/Graphics/SVG/1.1/DTD/svg11.dtd">
<svg version="1.1" xmlns="http://www.w3.org/2000/svg" xmlns:xlink="http://www.w3.org/1999/xlink" width="32" height="32" viewBox="0 0 32 32">
<path fill="#444444" d="M17.863 17.597c-0.274-0.219-0.74-0.417-1.4-0.597v3.219c0.2-0.022 0.411-0.068 0.63-0.143 0.219-0.071 0.413-0.174 0.587-0.311 0.174-0.131 0.317-0.296 0.427-0.495 0.112-0.194 0.168-0.425 0.168-0.695-0-0.437-0.137-0.762-0.411-0.979zM14.436 11.945c-0.145 0.119-0.26 0.264-0.343 0.438s-0.125 0.376-0.125 0.609c0 0.37 0.115 0.656 0.35 0.858 0.235 0.198 0.621 0.362 1.157 0.486v-2.735c-0.19 0-0.374 0.029-0.552 0.084-0.18 0.057-0.339 0.143-0.486 0.259zM15.985 2.142c-7.636 0-13.827 6.19-13.827 13.828s6.191 13.829 13.827 13.829c7.638 0 13.831-6.191 13.831-13.829s-6.193-13.828-13.831-13.828zM15.985 27.816c-6.53 0-11.844-5.316-11.844-11.846 0-6.532 5.314-11.846 11.844-11.846 6.532 0 11.846 5.314 11.846 11.846 0 6.53-5.314 11.846-11.846 11.846zM15.987 6.275c-5.355 0-9.694 4.342-9.694 9.695s4.339 9.694 9.694 9.694c5.353 0 9.692-4.341 9.692-9.694s-4.339-9.695-9.692-9.695zM20.471 19.608c-0.123 0.374-0.343 0.74-0.662 1.097s-0.746 0.677-1.284 0.956c-0.535 0.278-1.224 0.446-2.062 0.501v1.427h-0.989v-1.427c-1.251-0.088-2.228-0.474-2.933-1.157-0.703-0.681-1.112-1.683-1.224-2.998h2.365c-0.012 0.635 0.155 1.138 0.503 1.508 0.346 0.37 0.777 0.603 1.29 0.703v-3.501c-0.055-0.024-0.131-0.051-0.225-0.076-0.094-0.031-0.198-0.053-0.311-0.078-0.413-0.11-0.822-0.243-1.224-0.394-0.401-0.151-0.762-0.354-1.081-0.603-0.319-0.252-0.572-0.566-0.764-0.938-0.188-0.376-0.282-0.84-0.282-1.4 0-0.57 0.108-1.073 0.325-1.511 0.219-0.435 0.507-0.799 0.864-1.095s0.77-0.527 1.241-0.689c0.47-0.162 0.954-0.259 1.457-0.294v-1.29h0.989v1.29c0.503 0.059 0.975 0.165 1.416 0.327 0.442 0.164 0.83 0.387 1.167 0.673 0.333 0.284 0.609 0.64 0.82 1.063 0.212 0.425 0.335 0.93 0.37 1.511h-2.381c-0.010-0.448-0.149-0.828-0.419-1.143-0.268-0.311-0.593-0.468-0.973-0.468v2.968c0.135 0.033 0.272 0.065 0.411 0.1 0.141 0.035 0.288 0.073 0.446 0.118 0.826 0.223 1.463 0.501 1.911 0.83 0.445 0.329 0.777 0.672 0.987 1.030 0.213 0.36 0.339 0.715 0.378 1.073 0.039 0.36 0.057 0.676 0.057 0.954 0 0.247-0.059 0.558-0.182 0.932z"></path>
</svg>
