<?xml version="1.0" encoding="utf-8"?>
<!-- Generated by IcoMoon.io -->
<!DOCTYPE svg PUBLIC "-//W3C//DTD SVG 1.1//EN" "http://www.w3.org/Graphics/SVG/1.1/DTD/svg11.dtd">
<svg version="1.1" xmlns="http://www.w3.org/2000/svg" xmlns:xlink="http://www.w3.org/1999/xlink" width="32" height="32" viewBox="0 0 32 32">
<path fill="#444444" d="M15.986 18.288c3.43 0 6.211-2.78 6.211-6.21s-2.782-6.21-6.211-6.21c-3.429 0-6.209 2.781-6.209 6.21s2.78 6.21 6.209 6.21zM13.662 9.833c0.282 0.007 0.552-0.013 0.813-0.062 0.264-0.049 0.499-0.137 0.707-0.263 0.209-0.124 0.386-0.29 0.53-0.494 0.145-0.205 0.241-0.46 0.286-0.764h1.288v7.975h-1.619v-5.173h-2.005v-1.219zM8.411 18.744c-0.474 0.263-0.764 0.541-0.873 0.727-0.059 0.1-0.074 0.165-0.076 0.225 0.002 0.059 0.016 0.124 0.076 0.226 0.063 0.105 0.182 0.243 0.364 0.389 0.362 0.294 0.971 0.611 1.758 0.877 1.57 0.535 3.83 0.887 6.326 0.886 3.272 0.009 6.156-0.618 7.575-1.425 0.474-0.262 0.767-0.542 0.873-0.727 0.059-0.101 0.075-0.167 0.078-0.226-0.002-0.059-0.018-0.125-0.078-0.225-0.064-0.106-0.182-0.244-0.364-0.39-0.292-0.238-0.746-0.489-1.322-0.718 1.533-1.648 2.473-3.857 2.473-6.287 0-5.101-4.135-9.235-9.234-9.235s-9.234 4.135-9.234 9.235c0 2.429 0.94 4.638 2.473 6.287-0.307 0.121-0.583 0.248-0.813 0.38zM15.986 21.313c-0.020 0-0.041-0.002-0.061-0.002 0.021 0 0.041 0.002 0.061 0.002s0.041-0.002 0.061-0.002c-0.020 0-0.041 0.002-0.061 0.002zM8.053 12.078c0-4.373 3.558-7.932 7.932-7.932s7.932 3.559 7.932 7.932c0 4.374-3.558 7.933-7.932 7.933s-7.932-3.559-7.932-7.933zM15.986 23.632c-3.473-0.008-6.495-0.605-8.337-1.625-0.063-0.037-0.125-0.074-0.186-0.11v1.24c0 0.063 0.014 0.13 0.076 0.237 0.063 0.106 0.182 0.243 0.364 0.39 0.362 0.294 0.971 0.611 1.758 0.877 1.57 0.535 3.83 0.887 6.326 0.886 3.268 0.009 6.152-0.618 7.575-1.426 0.474-0.262 0.767-0.542 0.871-0.727 0.063-0.108 0.080-0.174 0.080-0.237v-1.24c-0.485 0.294-1.052 0.546-1.694 0.766-1.796 0.609-4.188 0.967-6.831 0.969zM15.986 27.087c-3.473-0.008-6.495-0.605-8.337-1.625-0.063-0.037-0.127-0.074-0.186-0.11v1.412c0 0.062 0.014 0.131 0.076 0.237 0.063 0.106 0.182 0.243 0.364 0.39 0.362 0.294 0.971 0.609 1.758 0.875 1.57 0.538 3.83 0.889 6.326 0.887 3.268 0.008 6.152-0.617 7.575-1.427 0.474-0.262 0.767-0.54 0.873-0.726 0.061-0.108 0.078-0.176 0.078-0.237v-1.415c-0.487 0.294-1.052 0.546-1.696 0.767-1.799 0.611-4.188 0.969-6.829 0.971z"></path>
</svg>
