<?xml version="1.0" encoding="utf-8"?>
<!-- Generated by IcoMoon.io -->
<!DOCTYPE svg PUBLIC "-//W3C//DTD SVG 1.1//EN" "http://www.w3.org/Graphics/SVG/1.1/DTD/svg11.dtd">
<svg version="1.1" xmlns="http://www.w3.org/2000/svg" xmlns:xlink="http://www.w3.org/1999/xlink" width="32" height="32" viewBox="0 0 32 32">
<path fill="#444444" d="M15.597 9.101c-0.129 0-0.254 0.020-0.376 0.057s-0.231 0.096-0.329 0.176c-0.1 0.080-0.178 0.18-0.235 0.297-0.057 0.118-0.086 0.255-0.086 0.417 0 0.249 0.082 0.446 0.239 0.58 0.161 0.137 0.423 0.245 0.787 0.329v-1.855zM17.095 14.648c0.119-0.092 0.215-0.202 0.29-0.335s0.114-0.29 0.114-0.474c0-0.296-0.094-0.519-0.28-0.666s-0.503-0.282-0.95-0.405v2.189c0.137-0.016 0.28-0.049 0.427-0.096 0.147-0.049 0.282-0.121 0.398-0.212zM16.012 18.261c3.43 0 6.211-2.782 6.211-6.212 0-3.428-2.782-6.209-6.211-6.209s-6.209 2.781-6.209 6.209c0 3.43 2.78 6.212 6.209 6.212zM15.444 12.524c-0.065-0.020-0.135-0.037-0.21-0.053-0.282-0.074-0.558-0.164-0.832-0.266-0.274-0.104-0.519-0.239-0.736-0.411-0.217-0.17-0.388-0.382-0.517-0.638-0.131-0.253-0.194-0.572-0.194-0.952 0-0.387 0.074-0.728 0.223-1.024 0.147-0.295 0.341-0.545 0.587-0.746 0.243-0.2 0.523-0.358 0.842-0.468s0.65-0.177 0.991-0.198v-0.878h0.672v0.878c0.341 0.038 0.662 0.113 0.963 0.223 0.3 0.109 0.564 0.262 0.791 0.454 0.229 0.194 0.415 0.435 0.558 0.723 0.145 0.29 0.229 0.632 0.251 1.026h-1.619c-0.006-0.305-0.102-0.562-0.282-0.775-0.184-0.213-0.405-0.319-0.662-0.319v2.017c0.090 0.022 0.184 0.045 0.28 0.067 0.094 0.024 0.194 0.049 0.3 0.079 0.562 0.152 0.995 0.339 1.3 0.564 0.302 0.225 0.527 0.458 0.67 0.701 0.145 0.243 0.229 0.485 0.257 0.73 0.027 0.241 0.039 0.458 0.039 0.648 0 0.165-0.041 0.378-0.125 0.632-0.084 0.256-0.233 0.505-0.45 0.748s-0.507 0.458-0.871 0.648c-0.366 0.19-0.832 0.302-1.402 0.341v0.969h-0.672v-0.969c-0.852-0.059-1.517-0.323-1.995-0.785-0.476-0.462-0.754-1.142-0.83-2.040h1.606c-0.008 0.433 0.107 0.775 0.341 1.026 0.235 0.249 0.528 0.409 0.877 0.478v-2.381c-0.039-0.014-0.088-0.033-0.153-0.051zM16.012 23.606c-3.47-0.008-6.493-0.603-8.337-1.627-0.064-0.035-0.125-0.071-0.186-0.108v1.243c0 0.059 0.014 0.127 0.077 0.235 0.063 0.104 0.182 0.244 0.362 0.391 0.364 0.292 0.971 0.609 1.756 0.875 1.574 0.538 3.834 0.889 6.328 0.885 3.268 0.010 6.152-0.615 7.575-1.425 0.474-0.261 0.766-0.539 0.873-0.726 0.063-0.108 0.078-0.176 0.078-0.235v-1.243c-0.484 0.294-1.051 0.544-1.692 0.765-1.796 0.609-4.188 0.969-6.832 0.971zM16.012 27.060c-3.47-0.008-6.493-0.607-8.337-1.625-0.064-0.037-0.125-0.074-0.186-0.11v1.41c0 0.064 0.014 0.131 0.077 0.239 0.063 0.106 0.182 0.241 0.362 0.389 0.364 0.294 0.971 0.611 1.756 0.877 1.574 0.54 3.834 0.889 6.328 0.887 3.268 0.006 6.152-0.619 7.575-1.424 0.474-0.264 0.766-0.542 0.875-0.73 0.061-0.106 0.076-0.174 0.076-0.237v-1.412c-0.484 0.294-1.053 0.546-1.698 0.767-1.794 0.609-4.186 0.969-6.826 0.971zM8.437 18.719c-0.472 0.262-0.764 0.539-0.871 0.724-0.059 0.1-0.075 0.167-0.077 0.225 0.002 0.061 0.019 0.125 0.077 0.227 0.063 0.104 0.182 0.243 0.362 0.39 0.364 0.294 0.971 0.609 1.756 0.875 1.574 0.538 3.834 0.889 6.328 0.885 3.272 0.010 6.156-0.615 7.577-1.422 0.474-0.264 0.764-0.54 0.873-0.728 0.057-0.102 0.074-0.165 0.076-0.227-0.002-0.057-0.018-0.125-0.076-0.225-0.065-0.106-0.184-0.243-0.366-0.389-0.29-0.237-0.746-0.488-1.323-0.717 1.533-1.647 2.473-3.857 2.473-6.287 0-5.1-4.135-9.234-9.234-9.234-5.097 0-9.234 4.133-9.234 9.234 0 2.428 0.94 4.64 2.475 6.287-0.307 0.122-0.583 0.247-0.816 0.382zM16.012 21.286c-0.020 0-0.041-0.002-0.059-0.002 0.018 0 0.039 0.002 0.059 0.002 0.023 0 0.041-0.002 0.063-0.002-0.022 0-0.041 0.002-0.063 0.002zM8.080 12.050c0-4.374 3.56-7.933 7.932-7.933 4.374 0 7.932 3.559 7.932 7.933s-3.558 7.932-7.932 7.932c-4.372 0-7.932-3.558-7.932-7.932z"></path>
</svg>
