<?xml version="1.0" encoding="utf-8"?>
<!-- Generated by IcoMoon.io -->
<!DOCTYPE svg PUBLIC "-//W3C//DTD SVG 1.1//EN" "http://www.w3.org/Graphics/SVG/1.1/DTD/svg11.dtd">
<svg version="1.1" xmlns="http://www.w3.org/2000/svg" xmlns:xlink="http://www.w3.org/1999/xlink" width="32" height="32" viewBox="0 0 32 32">
<path fill="#444444" d="M18.879 8.339c-4.204 0-7.615 3.413-7.615 7.62 0 4.204 3.411 7.613 7.615 7.613 4.206 0 7.617-3.409 7.617-7.613 0-4.206-3.411-7.62-7.617-7.62zM21.583 20.527c-0.366 0.125-0.72 0.19-1.059 0.19s-0.621-0.024-0.846-0.069c-0.223-0.045-0.429-0.096-0.615-0.162-0.196-0.069-0.394-0.135-0.59-0.188s-0.443-0.078-0.738-0.078c-0.241 0-0.495 0.033-0.756 0.098-0.264 0.069-0.525 0.198-0.785 0.398l-0.832-1.235c0.188-0.116 0.374-0.253 0.556-0.409 0.182-0.159 0.345-0.329 0.482-0.517 0.139-0.188 0.253-0.391 0.343-0.612 0.088-0.218 0.133-0.449 0.133-0.688 0-0.154-0.024-0.303-0.074-0.448-0.049-0.149-0.108-0.298-0.18-0.452h-1.328v-1.138h0.858c-0.135-0.172-0.268-0.423-0.403-0.752-0.135-0.331-0.2-0.697-0.2-1.099 0-0.358 0.073-0.697 0.221-1.020 0.147-0.321 0.366-0.605 0.652-0.85 0.284-0.245 0.642-0.441 1.071-0.584 0.429-0.141 0.926-0.213 1.49-0.213 1.026 0 1.827 0.284 2.399 0.856s0.858 1.404 0.858 2.496h-1.811c-0.008-0.135-0.027-0.305-0.053-0.503-0.027-0.202-0.088-0.396-0.182-0.585s-0.237-0.352-0.429-0.49c-0.192-0.137-0.456-0.207-0.797-0.207-0.403 0-0.722 0.112-0.961 0.333-0.235 0.225-0.354 0.525-0.354 0.901 0 0.107 0.004 0.209 0.014 0.307 0.008 0.1 0.027 0.213 0.059 0.341 0.031 0.131 0.084 0.28 0.162 0.45 0.074 0.172 0.18 0.376 0.315 0.619h1.785v1.138h-1.408c0.043 0.135 0.073 0.266 0.086 0.401 0.014 0.137 0.020 0.278 0.020 0.429 0 0.421-0.108 0.783-0.327 1.079-0.221 0.3-0.478 0.568-0.773 0.799l0.026 0.026c0.215-0.133 0.388-0.217 0.523-0.255 0.135-0.035 0.264-0.053 0.388-0.053 0.18 0 0.356 0.017 0.529 0.047 0.176 0.031 0.354 0.066 0.532 0.1 0.178 0.047 0.351 0.084 0.521 0.115 0.172 0.031 0.346 0.047 0.523 0.047 0.18 0 0.36-0.031 0.544-0.092 0.184-0.066 0.396-0.225 0.638-0.485l0.803 1.353c-0.321 0.315-0.666 0.536-1.032 0.658zM18.879 5.092c-2.792 0-5.338 1.054-7.264 2.786-1.649 0.039-3.192 0.202-4.533 0.466-1.537 0.298-2.804 0.732-3.63 1.198-0.552 0.305-0.889 0.628-1.008 0.84-0.067 0.113-0.084 0.184-0.086 0.243 0.002 0.061 0.018 0.131 0.086 0.245 0.070 0.118 0.204 0.275 0.415 0.445 0.421 0.343 1.134 0.713 2.054 1.026 0.963 0.327 2.15 0.597 3.479 0.779-0.165 0.609-0.276 1.241-0.333 1.887-0.462-0.063-0.916-0.137-1.347-0.221-1.674-0.329-3.103-0.797-4.196-1.406-0.055-0.031-0.106-0.063-0.159-0.096v1.702c0.002 0.065 0.014 0.137 0.088 0.259 0.070 0.119 0.204 0.276 0.415 0.446 0.421 0.339 1.134 0.713 2.054 1.024 0.897 0.306 1.987 0.562 3.207 0.742 0.096 0.687 0.256 1.355 0.474 1.995-0.654-0.077-1.285-0.174-1.882-0.29-1.674-0.331-3.103-0.797-4.196-1.408-0.076-0.043-0.149-0.086-0.223-0.131v1.471c0.002 0.078 0.018 0.162 0.096 0.292 0.076 0.127 0.217 0.29 0.431 0.464 0.429 0.349 1.149 0.719 2.073 1.034 1.284 0.441 2.957 0.77 4.842 0.934 0.438 0.683 0.948 1.312 1.525 1.878-1.631-0.053-3.166-0.223-4.533-0.488-1.672-0.331-3.094-0.793-4.18-1.4-0.063-0.037-0.127-0.074-0.19-0.111v1.639c0.002 0.064 0.014 0.135 0.088 0.258 0.070 0.118 0.204 0.278 0.415 0.446 0.421 0.343 1.134 0.715 2.054 1.026 1.844 0.632 4.499 1.042 7.433 1.040 0.832 0 1.637-0.034 2.412-0.096 1.271 0.521 2.661 0.811 4.12 0.811 6.001 0 10.865-4.866 10.865-10.863 0-6.003-4.864-10.868-10.865-10.868zM18.879 25.263c-5.132 0-9.306-4.176-9.306-9.303 0-5.132 4.174-9.308 9.306-9.308s9.308 4.176 9.308 9.308c0 5.128-4.176 9.303-9.308 9.303z"></path>
</svg>
