<?xml version="1.0" encoding="utf-8"?>
<!-- Generated by IcoMoon.io -->
<!DOCTYPE svg PUBLIC "-//W3C//DTD SVG 1.1//EN" "http://www.w3.org/Graphics/SVG/1.1/DTD/svg11.dtd">
<svg version="1.1" xmlns="http://www.w3.org/2000/svg" xmlns:xlink="http://www.w3.org/1999/xlink" width="32" height="32" viewBox="0 0 32 32">
<path fill="#444444" d="M16.006 2.162c-7.638 0-13.829 6.195-13.829 13.831 0 7.638 6.191 13.829 13.829 13.829s13.83-6.191 13.83-13.829c0-7.636-6.192-13.831-13.83-13.831zM16.006 27.839c-6.532 0-11.845-5.316-11.845-11.846 0-6.532 5.313-11.846 11.845-11.846s11.846 5.314 11.846 11.846c0 6.53-5.314 11.846-11.846 11.846zM16.006 6.299c-5.353 0-9.694 4.341-9.694 9.694 0 5.355 4.341 9.694 9.694 9.694s9.694-4.339 9.694-9.694c0-5.353-4.34-9.694-9.694-9.694zM18.358 14.251l-0.529 1.229h-3.823l-0.018 0.717h3.636l-0.529 1.229h-2.97c0.365 1.798 1.206 2.696 2.526 2.696 0.853 0 1.729-0.357 2.628-1.075l-0.016 2.579c-0.762 0.443-1.639 0.666-2.628 0.666-1.434 0-2.59-0.46-3.464-1.384-0.797-0.83-1.315-1.991-1.553-3.483h-1.315l0.53-1.229h0.683v-0.444c0-0.159 0.005-0.251 0.016-0.274h-1.246l0.528-1.229h0.871c0.274-1.377 0.837-2.463 1.69-3.26 0.898-0.864 2.024-1.298 3.379-1.298 0.957 0 1.992 0.286 3.107 0.855l-1.040 2.131c-0.797-0.509-1.543-0.767-2.236-0.767-1.195 0-1.993 0.781-2.39 2.338h4.165z"></path>
</svg>
