<?xml version="1.0" encoding="utf-8"?>
<!-- Generated by IcoMoon.io -->
<!DOCTYPE svg PUBLIC "-//W3C//DTD SVG 1.1//EN" "http://www.w3.org/Graphics/SVG/1.1/DTD/svg11.dtd">
<svg version="1.1" xmlns="http://www.w3.org/2000/svg" xmlns:xlink="http://www.w3.org/1999/xlink" width="32" height="32" viewBox="0 0 32 32">
<path fill="#444444" d="M16.011 2.17c-7.636 0-13.827 6.191-13.827 13.828 0 7.636 6.191 13.828 13.827 13.828 7.638 0 13.829-6.192 13.829-13.828 0-7.638-6.191-13.828-13.829-13.828zM16.011 27.842c-6.53 0-11.844-5.314-11.844-11.844 0-6.532 5.314-11.846 11.844-11.846 6.532 0 11.846 5.314 11.846 11.846 0 6.53-5.314 11.844-11.846 11.844zM16.013 6.304c-5.355 0-9.694 4.339-9.694 9.694 0 5.353 4.339 9.693 9.694 9.693 5.353 0 9.692-4.34 9.692-9.693 0-5.355-4.339-9.694-9.692-9.694zM19.98 15.534v1.622h-2.44l-0.256 0.496v0.785h2.696v1.621h-2.696v2.357h-2.594v-2.357h-2.682v-1.621h2.682v-0.785l-0.241-0.496h-2.44v-1.622h1.621l-2.61-5.308h2.765l2.252 5.308 2.201-5.308h2.765l-2.645 5.308h1.621z"></path>
</svg>
