<?xml version="1.0" encoding="utf-8"?>
<!-- Generated by IcoMoon.io -->
<!DOCTYPE svg PUBLIC "-//W3C//DTD SVG 1.1//EN" "http://www.w3.org/Graphics/SVG/1.1/DTD/svg11.dtd">
<svg version="1.1" xmlns="http://www.w3.org/2000/svg" xmlns:xlink="http://www.w3.org/1999/xlink" width="32" height="32" viewBox="0 0 32 32">
<path fill="#444444" d="M18.837 8.376c-4.206 0-7.616 3.409-7.616 7.614 0 4.208 3.409 7.619 7.616 7.619s7.615-3.411 7.615-7.619c-0-4.204-3.409-7.614-7.615-7.614zM20.891 14.59l-0.417 0.967h-3.004l-0.013 0.562h2.855l-0.415 0.967h-2.334c0.286 1.413 0.948 2.117 1.985 2.117 0.67 0 1.358-0.282 2.064-0.844l-0.013 2.024c-0.599 0.349-1.288 0.523-2.065 0.523-1.126 0-2.034-0.362-2.721-1.085-0.625-0.654-1.032-1.565-1.22-2.735h-1.032l0.415-0.967h0.537v-0.35c0-0.123 0.005-0.194 0.013-0.213h-0.979l0.416-0.967h0.684c0.216-1.079 0.658-1.936 1.329-2.559 0.705-0.679 1.59-1.022 2.655-1.022 0.751 0 1.564 0.225 2.44 0.672l-0.817 1.676c-0.626-0.403-1.212-0.605-1.758-0.605-0.938 0-1.563 0.611-1.876 1.838h3.272zM18.837 5.127c-2.794 0-5.339 1.057-7.264 2.788-1.652 0.039-3.197 0.202-4.535 0.466-1.535 0.296-2.804 0.73-3.63 1.196-0.552 0.305-0.889 0.63-1.009 0.84-0.066 0.113-0.083 0.18-0.085 0.243 0.002 0.061 0.018 0.133 0.085 0.243 0.071 0.12 0.206 0.28 0.417 0.449 0.421 0.34 1.133 0.712 2.055 1.024 0.963 0.329 2.148 0.595 3.478 0.779-0.165 0.609-0.277 1.238-0.333 1.886-0.462-0.065-0.915-0.137-1.348-0.22-1.674-0.332-3.1-0.795-4.196-1.407-0.053-0.031-0.105-0.061-0.157-0.094v1.7c0 0.066 0.014 0.135 0.085 0.258 0.071 0.12 0.206 0.28 0.417 0.445 0.421 0.343 1.133 0.715 2.055 1.026 0.895 0.305 1.986 0.56 3.207 0.742 0.094 0.687 0.254 1.355 0.472 1.995-0.654-0.076-1.284-0.176-1.882-0.292-1.674-0.329-3.1-0.795-4.196-1.404-0.075-0.043-0.149-0.090-0.223-0.131v1.472c0.003 0.078 0.019 0.159 0.096 0.29 0.076 0.127 0.217 0.29 0.432 0.464 0.43 0.349 1.149 0.721 2.074 1.036 1.281 0.438 2.957 0.768 4.84 0.93 0.438 0.683 0.95 1.314 1.525 1.882-1.631-0.055-3.166-0.223-4.533-0.49-1.671-0.329-3.093-0.793-4.179-1.4-0.064-0.036-0.128-0.074-0.189-0.11v1.639c0 0.065 0.014 0.137 0.085 0.257s0.206 0.278 0.417 0.448c0.421 0.341 1.133 0.713 2.055 1.024 1.844 0.629 4.498 1.043 7.43 1.040 0.833 0 1.64-0.033 2.415-0.096 1.27 0.521 2.661 0.811 4.12 0.811 6.001 0 10.865-4.864 10.865-10.867 0-5.999-4.864-10.863-10.865-10.863zM18.837 25.297c-5.132 0-9.308-4.174-9.308-9.308 0-5.13 4.176-9.304 9.308-9.304 5.131 0 9.307 4.174 9.307 9.304 0 5.134-4.176 9.308-9.307 9.308z"></path>
</svg>
