<?xml version="1.0" encoding="utf-8"?>
<!-- Generated by IcoMoon.io -->
<!DOCTYPE svg PUBLIC "-//W3C//DTD SVG 1.1//EN" "http://www.w3.org/Graphics/SVG/1.1/DTD/svg11.dtd">
<svg version="1.1" xmlns="http://www.w3.org/2000/svg" xmlns:xlink="http://www.w3.org/1999/xlink" width="32" height="32" viewBox="0 0 32 32">
<path fill="#444444" d="M16.024 6.297c-5.353 0-9.694 4.341-9.694 9.695 0 5.353 4.341 9.694 9.694 9.694s9.694-4.341 9.694-9.694c-0-5.354-4.341-9.695-9.694-9.695zM17.956 22.086h-2.424v-7.749h-3.003v-1.825c0.421 0.010 0.826-0.021 1.22-0.095 0.392-0.075 0.744-0.204 1.059-0.392 0.313-0.188 0.576-0.435 0.793-0.743 0.215-0.307 0.36-0.687 0.427-1.144h1.927v11.948zM16.024 2.164c-7.636 0-13.829 6.191-13.829 13.829 0 7.637 6.193 13.829 13.829 13.829 7.638 0 13.829-6.192 13.829-13.829-0-7.638-6.191-13.829-13.829-13.829zM16.024 27.837c-6.532 0-11.846-5.314-11.846-11.845 0-6.532 5.314-11.845 11.846-11.845s11.846 5.313 11.846 11.845c0 6.531-5.314 11.845-11.846 11.845z"></path>
</svg>
