<?xml version="1.0" encoding="utf-8"?>
<!-- Generated by IcoMoon.io -->
<!DOCTYPE svg PUBLIC "-//W3C//DTD SVG 1.1//EN" "http://www.w3.org/Graphics/SVG/1.1/DTD/svg11.dtd">
<svg version="1.1" xmlns="http://www.w3.org/2000/svg" xmlns:xlink="http://www.w3.org/1999/xlink" width="32" height="32" viewBox="0 0 32 32">
<path fill="#444444" d="M16.016 23.625c-3.473-0.006-6.493-0.605-8.337-1.623-0.064-0.037-0.125-0.074-0.186-0.112v1.24c0.002 0.063 0.012 0.131 0.078 0.239 0.063 0.106 0.18 0.241 0.362 0.388 0.364 0.295 0.973 0.611 1.756 0.879 1.572 0.533 3.832 0.887 6.328 0.885 3.268 0.008 6.154-0.617 7.577-1.428 0.472-0.262 0.762-0.54 0.871-0.726 0.063-0.106 0.078-0.174 0.078-0.237v-1.24c-0.484 0.294-1.051 0.545-1.694 0.766-1.796 0.609-4.188 0.967-6.83 0.969zM24.099 19.073c-0.293-0.235-0.746-0.486-1.322-0.715 1.535-1.649 2.473-3.857 2.473-6.287 0-5.099-4.135-9.234-9.234-9.234s-9.234 4.135-9.234 9.234c0 2.43 0.94 4.638 2.473 6.287-0.305 0.12-0.581 0.248-0.814 0.378-0.474 0.264-0.764 0.542-0.871 0.727-0.059 0.102-0.076 0.166-0.076 0.227 0 0.059 0.016 0.124 0.076 0.227 0.063 0.104 0.18 0.239 0.362 0.386 0.364 0.295 0.973 0.611 1.756 0.879 1.572 0.533 3.832 0.887 6.328 0.885 3.272 0.008 6.156-0.617 7.577-1.427 0.474-0.262 0.762-0.542 0.871-0.724 0.059-0.102 0.074-0.168 0.078-0.227-0.004-0.061-0.018-0.125-0.078-0.227-0.063-0.104-0.18-0.243-0.364-0.39zM16.016 20.005c-4.374 0-7.932-3.558-7.932-7.934 0-4.372 3.558-7.932 7.932-7.932s7.932 3.561 7.932 7.932c0 4.376-3.558 7.934-7.932 7.934zM16.016 27.077c-3.473-0.006-6.493-0.603-8.337-1.623-0.064-0.037-0.125-0.074-0.186-0.111v1.412c0.002 0.061 0.012 0.133 0.078 0.238 0.063 0.106 0.18 0.245 0.362 0.39 0.364 0.295 0.973 0.613 1.756 0.877 1.572 0.535 3.832 0.889 6.328 0.887 3.268 0.008 6.154-0.617 7.577-1.426 0.472-0.262 0.762-0.54 0.871-0.728 0.063-0.109 0.078-0.176 0.078-0.238v-1.414c-0.484 0.296-1.053 0.548-1.698 0.766-1.794 0.611-4.186 0.969-6.826 0.969zM16.016 5.861c-3.43 0-6.21 2.78-6.21 6.209s2.78 6.211 6.21 6.211c3.429 0 6.211-2.781 6.211-6.211s-2.782-6.209-6.211-6.209zM17.4 10.777l-0.354 0.819h-2.551l-0.012 0.478h2.428l-0.356 0.822h-1.98c0.243 1.198 0.805 1.799 1.686 1.799 0.568 0 1.153-0.241 1.754-0.717l-0.012 1.719c-0.509 0.298-1.091 0.446-1.754 0.446-0.956 0-1.727-0.307-2.311-0.922-0.534-0.556-0.879-1.328-1.036-2.324h-0.879l0.354-0.822h0.456v-0.296c0-0.106 0.004-0.166 0.012-0.182h-0.832l0.354-0.819h0.581c0.182-0.918 0.558-1.646 1.128-2.177 0.599-0.578 1.351-0.867 2.254-0.867 0.638 0 1.329 0.19 2.075 0.572l-0.695 1.425c-0.533-0.343-1.030-0.515-1.494-0.515-0.795 0-1.33 0.519-1.594 1.562h2.78z"></path>
</svg>
