<?xml version="1.0" encoding="utf-8"?>
<!-- Generated by IcoMoon.io -->
<!DOCTYPE svg PUBLIC "-//W3C//DTD SVG 1.1//EN" "http://www.w3.org/Graphics/SVG/1.1/DTD/svg11.dtd">
<svg version="1.1" xmlns="http://www.w3.org/2000/svg" xmlns:xlink="http://www.w3.org/1999/xlink" width="32" height="32" viewBox="0 0 32 32">
<path fill="#444444" d="M15.971 18.247c3.43 0 6.209-2.782 6.209-6.211 0-3.431-2.78-6.209-6.209-6.209s-6.21 2.778-6.21 6.209c0 3.43 2.781 6.211 6.21 6.211zM12.968 11.279h0.73c-0.114-0.143-0.229-0.355-0.341-0.637-0.114-0.28-0.172-0.592-0.172-0.934 0-0.303 0.063-0.591 0.188-0.866 0.125-0.272 0.309-0.513 0.552-0.722s0.547-0.374 0.912-0.497c0.366-0.121 0.787-0.182 1.265-0.182 0.873 0 1.552 0.243 2.039 0.732 0.486 0.485 0.729 1.19 0.729 2.117h-1.537c-0.008-0.114-0.025-0.257-0.046-0.429-0.023-0.17-0.075-0.335-0.154-0.495-0.079-0.159-0.2-0.298-0.364-0.415-0.164-0.118-0.389-0.177-0.677-0.177-0.342 0-0.614 0.096-0.815 0.286-0.202 0.19-0.302 0.443-0.302 0.762 0 0.092 0.004 0.18 0.010 0.262 0.008 0.084 0.027 0.18 0.053 0.29s0.072 0.237 0.137 0.382c0.063 0.145 0.153 0.319 0.266 0.523h1.517v0.969h-1.197c0.038 0.115 0.064 0.227 0.075 0.342s0.016 0.237 0.016 0.366c0 0.355-0.093 0.664-0.279 0.916-0.187 0.255-0.404 0.482-0.655 0.679l0.023 0.024c0.182-0.117 0.33-0.188 0.445-0.217 0.112-0.033 0.223-0.047 0.329-0.047 0.153 0 0.302 0.014 0.45 0.041 0.148 0.025 0.298 0.055 0.45 0.084 0.152 0.037 0.299 0.070 0.445 0.098 0.143 0.027 0.292 0.041 0.444 0.041s0.306-0.028 0.461-0.081c0.156-0.053 0.336-0.19 0.542-0.411l0.683 1.151c-0.273 0.268-0.566 0.454-0.877 0.56-0.311 0.104-0.611 0.158-0.899 0.158s-0.528-0.017-0.717-0.056c-0.19-0.038-0.365-0.083-0.525-0.136-0.167-0.060-0.333-0.115-0.501-0.159-0.168-0.047-0.376-0.070-0.627-0.070-0.204 0-0.419 0.029-0.642 0.086-0.225 0.057-0.448 0.169-0.667 0.335l-0.706-1.049c0.159-0.098 0.317-0.211 0.472-0.345 0.156-0.133 0.293-0.28 0.411-0.438 0.119-0.162 0.215-0.333 0.29-0.519s0.114-0.382 0.114-0.589c0-0.129-0.021-0.255-0.063-0.38s-0.093-0.251-0.153-0.382h-1.128v-0.969zM15.971 27.044c-3.472-0.008-6.495-0.605-8.338-1.625-0.063-0.035-0.126-0.073-0.187-0.11v1.412c0.002 0.063 0.014 0.131 0.078 0.241 0.063 0.102 0.181 0.239 0.363 0.386 0.363 0.294 0.972 0.611 1.757 0.877 1.572 0.538 3.832 0.889 6.328 0.887 3.267 0.008 6.152-0.619 7.575-1.429 0.472-0.261 0.764-0.54 0.872-0.724 0.062-0.108 0.077-0.178 0.077-0.239v-1.415c-0.483 0.297-1.050 0.548-1.696 0.768-1.797 0.609-4.188 0.967-6.826 0.969zM15.971 23.592c-3.472-0.008-6.495-0.607-8.338-1.627-0.063-0.037-0.126-0.073-0.187-0.11v1.241c0.002 0.065 0.014 0.131 0.078 0.239 0.063 0.104 0.181 0.243 0.363 0.389 0.363 0.294 0.972 0.613 1.757 0.877 1.572 0.538 3.832 0.887 6.328 0.885 3.267 0.010 6.152-0.615 7.575-1.425 0.472-0.262 0.764-0.54 0.871-0.728 0.064-0.107 0.078-0.172 0.078-0.237v-1.241c-0.482 0.294-1.050 0.548-1.692 0.768-1.796 0.609-4.188 0.967-6.831 0.969zM8.395 18.703c-0.473 0.261-0.764 0.54-0.872 0.728-0.059 0.098-0.074 0.166-0.078 0.223 0.004 0.059 0.019 0.127 0.078 0.227 0.063 0.106 0.181 0.243 0.363 0.39 0.363 0.293 0.972 0.611 1.757 0.877 1.572 0.537 3.832 0.887 6.328 0.885 3.272 0.008 6.154-0.619 7.575-1.425 0.473-0.264 0.764-0.541 0.872-0.728 0.058-0.1 0.074-0.167 0.077-0.227-0.002-0.057-0.018-0.125-0.077-0.223-0.062-0.108-0.181-0.245-0.363-0.392-0.292-0.235-0.748-0.487-1.322-0.713 1.533-1.651 2.473-3.859 2.473-6.289 0-5.099-4.136-9.234-9.234-9.234-5.101 0-9.234 4.135-9.234 9.234 0 2.43 0.94 4.638 2.473 6.289-0.306 0.119-0.582 0.245-0.814 0.378zM15.971 21.272c-0.021 0-0.042-0.002-0.062-0.002 0.021-0 0.041 0.002 0.062 0.002s0.041-0.002 0.061-0.002c-0.020-0-0.041 0.002-0.061 0.002zM8.039 12.036c0-4.374 3.558-7.934 7.932-7.934s7.931 3.56 7.931 7.934c0 4.374-3.558 7.932-7.931 7.932-4.374 0-7.932-3.558-7.932-7.932z"></path>
</svg>
