<?xml version="1.0" encoding="utf-8"?>
<!-- Generated by IcoMoon.io -->
<!DOCTYPE svg PUBLIC "-//W3C//DTD SVG 1.1//EN" "http://www.w3.org/Graphics/SVG/1.1/DTD/svg11.dtd">
<svg version="1.1" xmlns="http://www.w3.org/2000/svg" xmlns:xlink="http://www.w3.org/1999/xlink" width="32" height="32" viewBox="0 0 32 32">
<path fill="#444444" d="M18.892 8.376c-4.206 0-7.615 3.409-7.615 7.617 0 4.206 3.409 7.615 7.615 7.615s7.616-3.409 7.616-7.615c-0-4.207-3.409-7.617-7.616-7.617zM20.531 21.024h-1.903v-6.088h-2.361v-1.435c0.329 0.009 0.65-0.015 0.959-0.073s0.585-0.162 0.832-0.309c0.245-0.147 0.454-0.341 0.624-0.582s0.282-0.542 0.335-0.899h1.514v9.386zM18.892 5.127c-2.794 0-5.339 1.056-7.264 2.787-1.651 0.038-3.197 0.203-4.535 0.465-1.535 0.3-2.802 0.732-3.628 1.197-0.554 0.306-0.891 0.629-1.010 0.841-0.067 0.113-0.084 0.181-0.086 0.242 0.002 0.062 0.018 0.132 0.086 0.245 0.071 0.119 0.206 0.278 0.417 0.447 0.421 0.342 1.134 0.713 2.054 1.025 0.961 0.329 2.148 0.597 3.476 0.78-0.163 0.61-0.276 1.239-0.331 1.885-0.462-0.063-0.916-0.137-1.347-0.221-1.674-0.33-3.103-0.795-4.198-1.405-0.053-0.032-0.104-0.063-0.157-0.094v1.7c0 0.065 0.014 0.138 0.086 0.26 0.071 0.118 0.206 0.277 0.417 0.445 0.421 0.343 1.134 0.714 2.054 1.026 0.897 0.306 1.987 0.559 3.207 0.741 0.096 0.688 0.254 1.355 0.472 1.994-0.652-0.078-1.284-0.175-1.88-0.291-1.674-0.33-3.103-0.795-4.198-1.406-0.074-0.043-0.147-0.087-0.221-0.132v1.473c0 0.078 0.018 0.162 0.094 0.291 0.076 0.128 0.217 0.29 0.431 0.463 0.431 0.35 1.149 0.723 2.075 1.036 1.284 0.439 2.955 0.77 4.84 0.932 0.439 0.684 0.948 1.313 1.527 1.88-1.633-0.052-3.166-0.223-4.535-0.491-1.672-0.327-3.092-0.792-4.178-1.397-0.065-0.037-0.129-0.075-0.19-0.113v1.64c0 0.065 0.014 0.137 0.086 0.258s0.206 0.278 0.417 0.448c0.421 0.342 1.134 0.713 2.054 1.025 1.843 0.63 4.499 1.043 7.429 1.041 0.834 0 1.639-0.036 2.416-0.098 1.271 0.522 2.661 0.813 4.12 0.813 5.999 0 10.865-4.866 10.865-10.865-0-6.001-4.867-10.865-10.865-10.865zM18.892 25.298c-5.132 0-9.308-4.174-9.308-9.306s4.176-9.307 9.308-9.307 9.306 4.176 9.306 9.307c-0 5.132-4.174 9.306-9.306 9.306z"></path>
</svg>
