<?xml version="1.0" encoding="utf-8"?>
<!-- Generated by IcoMoon.io -->
<!DOCTYPE svg PUBLIC "-//W3C//DTD SVG 1.1//EN" "http://www.w3.org/Graphics/SVG/1.1/DTD/svg11.dtd">
<svg version="1.1" xmlns="http://www.w3.org/2000/svg" xmlns:xlink="http://www.w3.org/1999/xlink" width="32" height="32" viewBox="0 0 32 32">
<path fill="#444444" d="M16.006 6.298c-5.353 0-9.692 4.341-9.692 9.694 0 5.355 4.339 9.694 9.692 9.694 5.355 0 9.694-4.339 9.694-9.694 0-5.353-4.339-9.694-9.694-9.694zM19.352 22.127c-0.466 0.159-0.916 0.237-1.349 0.237-0.431 0-0.789-0.026-1.075-0.084-0.284-0.057-0.546-0.124-0.785-0.204-0.249-0.090-0.501-0.172-0.75-0.239-0.251-0.070-0.564-0.102-0.938-0.102-0.309 0-0.631 0.043-0.965 0.129-0.337 0.084-0.668 0.252-0.999 0.501l-1.059-1.567c0.239-0.149 0.476-0.323 0.709-0.521 0.233-0.201 0.437-0.421 0.615-0.658 0.176-0.239 0.321-0.499 0.435-0.777 0.113-0.278 0.17-0.57 0.17-0.877 0-0.196-0.031-0.384-0.094-0.572-0.061-0.188-0.139-0.378-0.231-0.572h-1.688v-1.451h1.091c-0.17-0.216-0.341-0.533-0.513-0.957-0.17-0.419-0.255-0.889-0.255-1.398 0-0.454 0.094-0.889 0.282-1.298s0.464-0.771 0.828-1.085c0.364-0.313 0.82-0.556 1.365-0.742 0.546-0.18 1.177-0.272 1.895-0.272 1.308 0 2.328 0.364 3.055 1.092 0.728 0.729 1.091 1.788 1.091 3.174h-2.303c-0.012-0.17-0.035-0.382-0.067-0.638-0.035-0.255-0.112-0.505-0.231-0.744-0.121-0.237-0.302-0.445-0.546-0.621-0.247-0.178-0.585-0.266-1.016-0.266-0.511 0-0.92 0.143-1.222 0.427-0.3 0.284-0.45 0.666-0.45 1.145 0 0.135 0.004 0.266 0.016 0.392 0.010 0.124 0.037 0.27 0.076 0.435 0.041 0.165 0.108 0.354 0.206 0.57 0.094 0.217 0.229 0.478 0.399 0.785h2.271v1.451h-1.791c0.055 0.171 0.092 0.339 0.11 0.511 0.016 0.172 0.027 0.354 0.027 0.546 0 0.538-0.141 0.993-0.421 1.375-0.278 0.38-0.605 0.72-0.981 1.016l0.037 0.033c0.272-0.171 0.492-0.28 0.664-0.323 0.17-0.045 0.335-0.070 0.495-0.070 0.227 0 0.454 0.020 0.675 0.061 0.223 0.039 0.445 0.082 0.674 0.127 0.227 0.057 0.45 0.108 0.666 0.145 0.215 0.039 0.437 0.059 0.664 0.059 0.229 0 0.458-0.041 0.691-0.118 0.235-0.080 0.505-0.286 0.814-0.613l1.022 1.723c-0.409 0.399-0.848 0.677-1.314 0.836zM16.006 2.163c-7.636 0-13.829 6.191-13.829 13.829s6.193 13.829 13.829 13.829c7.638 0 13.829-6.191 13.829-13.829s-6.191-13.829-13.829-13.829zM16.006 27.838c-6.53 0-11.844-5.314-11.844-11.846s5.314-11.844 11.844-11.844c6.532 0 11.846 5.312 11.846 11.844s-5.314 11.846-11.846 11.846z"></path>
</svg>
