<?xml version="1.0" encoding="utf-8"?>
<!-- Generated by IcoMoon.io -->
<!DOCTYPE svg PUBLIC "-//W3C//DTD SVG 1.1//EN" "http://www.w3.org/Graphics/SVG/1.1/DTD/svg11.dtd">
<svg version="1.1" xmlns="http://www.w3.org/2000/svg" xmlns:xlink="http://www.w3.org/1999/xlink" width="32" height="32" viewBox="0 0 32 32">
<path fill="#444444" d="M16.025 18.26c3.432 0 6.211-2.779 6.211-6.209s-2.78-6.21-6.211-6.21c-3.43 0-6.211 2.78-6.211 6.21s2.781 6.209 6.211 6.209zM14.539 8.272l1.502 3.544 1.47-3.544h1.846l-1.764 3.544h1.081v1.081h-1.629l-0.171 0.331v0.524h1.8v1.082h-1.8v1.572h-1.731v-1.572h-1.788v-1.082h1.788v-0.524l-0.159-0.331h-1.629v-1.081h1.083l-1.744-3.544h1.846zM16.025 23.605c-3.473-0.008-6.493-0.605-8.337-1.625-0.063-0.037-0.125-0.072-0.186-0.11v1.241c0 0.063 0.014 0.131 0.078 0.237s0.18 0.243 0.362 0.39c0.362 0.293 0.971 0.611 1.756 0.876 1.574 0.537 3.832 0.888 6.328 0.887 3.268 0.008 6.152-0.618 7.574-1.427 0.472-0.261 0.764-0.541 0.873-0.726 0.064-0.106 0.076-0.174 0.078-0.237v-1.241c-0.482 0.294-1.051 0.546-1.694 0.765-1.797 0.61-4.188 0.968-6.831 0.97zM16.025 27.059c-3.473-0.008-6.493-0.605-8.337-1.625-0.063-0.037-0.125-0.074-0.186-0.11v1.412c0 0.063 0.014 0.131 0.078 0.237s0.18 0.243 0.362 0.39c0.362 0.295 0.971 0.611 1.756 0.878 1.574 0.537 3.832 0.888 6.328 0.886 3.268 0.008 6.152-0.617 7.574-1.428 0.472-0.26 0.764-0.539 0.873-0.726 0.064-0.108 0.076-0.176 0.078-0.237v-1.415c-0.485 0.294-1.055 0.546-1.698 0.767-1.794 0.611-4.186 0.969-6.826 0.971zM8.448 18.717c-0.472 0.263-0.762 0.541-0.869 0.727-0.059 0.1-0.076 0.165-0.078 0.226 0.002 0.058 0.018 0.124 0.078 0.225 0.063 0.105 0.18 0.243 0.362 0.39 0.362 0.294 0.971 0.611 1.756 0.877 1.574 0.536 3.832 0.887 6.328 0.887 3.274 0.008 6.156-0.618 7.577-1.428 0.472-0.26 0.762-0.539 0.871-0.725 0.057-0.101 0.073-0.167 0.078-0.225-0.004-0.061-0.020-0.126-0.078-0.226-0.061-0.107-0.182-0.244-0.362-0.39-0.292-0.238-0.748-0.489-1.324-0.716 1.533-1.649 2.473-3.859 2.473-6.287 0-5.1-4.135-9.235-9.234-9.235s-9.234 4.135-9.234 9.235c0 2.428 0.94 4.638 2.473 6.287-0.306 0.119-0.58 0.246-0.815 0.379zM16.025 21.285c-0.020 0-0.039-0.002-0.061-0.002 0.023-0 0.041 0.002 0.061 0.002s0.043-0.002 0.061-0.002c-0.018-0-0.041 0.002-0.061 0.002zM8.092 12.051c0-4.374 3.558-7.933 7.932-7.933s7.932 3.559 7.932 7.933c0 4.374-3.558 7.932-7.932 7.932s-7.932-3.558-7.932-7.932z"></path>
</svg>
