<?xml version="1.0" encoding="utf-8"?>
<!-- Generated by IcoMoon.io -->
<!DOCTYPE svg PUBLIC "-//W3C//DTD SVG 1.1//EN" "http://www.w3.org/Graphics/SVG/1.1/DTD/svg11.dtd">
<svg version="1.1" xmlns="http://www.w3.org/2000/svg" xmlns:xlink="http://www.w3.org/1999/xlink" width="32" height="32" viewBox="0 0 32 32">
<path fill="#444444" d="M16.476 27.746l6.073-6.074c0 0 0 0 0 0l0-0.001 2.562-2.562c-0.789 2.486-1.93 6.249-1.93 7.213 0 1.472 1.193 2.665 2.665 2.665s2.665-1.193 2.665-2.665c0-1.198-1.764-6.724-2.422-8.741 0.006-0.067 0.010-0.134 0.010-0.199-0.004-0.505-0.148-1.005-0.375-1.552-0.688-1.622-2.207-3.687-4.249-5.736-1.361-1.361-2.742-2.491-3.983-3.295-0.621-0.403-1.208-0.724-1.752-0.953-0.228-0.094-0.448-0.174-0.663-0.235-0.372-0.346-0.735-0.669-1.090-0.959-0.575-0.469-1.131-0.86-1.701-1.145-0.569-0.283-1.16-0.463-1.776-0.463-0.907-0.006-1.783 0.415-2.522 1.167-0.706 0.694-1.084 1.558-1.076 2.432 0.002 0.802 0.28 1.569 0.702 2.321 0.262 0.464 0.582 0.927 0.947 1.395l-4.737 4.736c-0.339 0.337-0.451 0.792-0.448 1.189 0.003 0.504 0.148 1.004 0.374 1.551 0.687 1.622 2.207 3.687 4.248 5.735 1.362 1.362 2.743 2.491 3.984 3.296 0.622 0.403 1.207 0.724 1.752 0.953 0.547 0.227 1.047 0.371 1.551 0.374 0.006 0 0.011 0 0.017 0 0.394 0 0.839-0.114 1.172-0.447zM8.978 8.195c-0.344-0.609-0.503-1.132-0.501-1.553 0.008-0.457 0.148-0.844 0.618-1.325 0.558-0.548 0.976-0.702 1.415-0.708 0.305-0.001 0.658 0.089 1.078 0.299 0.432 0.21 0.914 0.549 1.443 0.986-0.009 0.008-0.018 0.015-0.026 0.023-0.001 0.001-0.003 0.002-0.004 0.003l-3.323 3.323c-0.278-0.367-0.515-0.718-0.699-1.046zM21.364 20.443c-0.016 0.004-0.050 0.010-0.103 0.009-0.171 0.004-0.518-0.070-0.946-0.252-1.302-0.54-3.304-1.974-5.235-3.913-1.292-1.291-2.36-2.602-3.088-3.728-0.364-0.561-0.643-1.077-0.823-1.507-0.183-0.428-0.256-0.775-0.253-0.946 0-0.051 0.005-0.085 0.009-0.101l1.775-1.775c0.039 0.107 0.080 0.216 0.126 0.327 0.688 1.622 2.206 3.687 4.249 5.736 1.362 1.361 2.743 2.491 3.984 3.296 0.621 0.402 1.207 0.724 1.752 0.953 0.111 0.046 0.22 0.088 0.327 0.126l-1.774 1.775zM20.213 15.046c-0.633-0.521-1.286-1.111-1.932-1.758-1.292-1.292-2.36-2.603-3.088-3.728-0.364-0.562-0.644-1.078-0.824-1.507-0.182-0.428-0.256-0.775-0.252-0.945-0-0.028 0.001-0.050 0.003-0.067 0.017-0.002 0.040-0.004 0.067-0.004 0.171-0.003 0.518 0.070 0.946 0.252 1.302 0.54 3.304 1.974 5.235 3.912 1.292 1.292 2.36 2.603 3.088 3.729 0.026 0.039 0.050 0.078 0.074 0.117h-3.319z"></path>
</svg>
