<?xml version="1.0" encoding="utf-8"?>
<!-- Generated by IcoMoon.io -->
<!DOCTYPE svg PUBLIC "-//W3C//DTD SVG 1.1//EN" "http://www.w3.org/Graphics/SVG/1.1/DTD/svg11.dtd">
<svg version="1.1" xmlns="http://www.w3.org/2000/svg" xmlns:xlink="http://www.w3.org/1999/xlink" width="32" height="32" viewBox="0 0 32 32">
<path fill="#444444" d="M28.781 4.89l-1.654-1.655c-1.054-1.054-2.764-1.054-3.818 0l-3.842 3.842-1.856-1.856-3.673 3.673 1.531 1.531-10.485 10.485c-0.687 0.686-1.072 1.587-1.124 2.515l-0.61 0.61c-1.304 1.305-1.304 3.427 0 4.732 0.632 0.632 1.472 0.98 2.366 0.98s1.733-0.348 2.365-0.979l0.61-0.61c0.951-0.051 1.837-0.446 2.515-1.124l10.486-10.485 1.531 1.531 3.673-3.673-1.856-1.856 3.842-3.842c1.054-1.054 1.054-2.764-0-3.818zM9.411 25.337c-0.286 0.285-0.659 0.428-1.033 0.428-0.219 0-0.438-0.049-0.639-0.146 0 0 0 0 0 0l-1.453 1.452c-0.185 0.185-0.427 0.277-0.67 0.277s-0.485-0.092-0.67-0.277c-0.37-0.37-0.37-0.97-0-1.34l1.452-1.452c0 0 0-0 0-0-0.264-0.545-0.171-1.22 0.281-1.673l10.486-10.486 2.731 2.731-10.486 10.486z"></path>
</svg>
