<?xml version="1.0" encoding="utf-8"?>
<!-- Generated by IcoMoon.io -->
<!DOCTYPE svg PUBLIC "-//W3C//DTD SVG 1.1//EN" "http://www.w3.org/Graphics/SVG/1.1/DTD/svg11.dtd">
<svg version="1.1" xmlns="http://www.w3.org/2000/svg" xmlns:xlink="http://www.w3.org/1999/xlink" width="32" height="32" viewBox="0 0 32 32">
<path fill="#444444" d="M20.099 12.203c-1.22 0-2.383 0.251-3.44 0.703v-3.554c0-1.923-0.73-3.686-1.935-4.974-1.201-1.289-2.91-2.116-4.797-2.115-1.886-0.002-3.598 0.826-4.799 2.115-1.204 1.288-1.935 3.050-1.935 4.974v7.877h3.197v-1.756l-1.643-1.644h1.643v-4.477c0-1.111 0.421-2.092 1.073-2.791 0.658-0.698 1.514-1.1 2.465-1.101 0.948 0.001 1.805 0.403 2.463 1.101 0.654 0.699 1.073 1.68 1.073 2.791v5.899c-1.322 1.533-2.122 3.529-2.122 5.713 0 4.837 3.921 8.758 8.758 8.758 4.838 0 8.759-3.921 8.759-8.758 0-4.838-3.921-8.76-8.759-8.76zM15.835 21.742h-1.98v-1.559h1.98v1.559zM19.319 14.718h1.558v1.981h-1.558v-1.981zM20.878 27.207h-1.558v-1.982h1.558v1.982zM20.099 24.084c-1.723-0.001-3.12-1.398-3.121-3.122 0.001-1.724 1.398-3.12 3.121-3.12 1.725 0 3.121 1.396 3.121 3.12s-1.396 3.121-3.121 3.122zM24.362 21.742v-1.559h1.982v1.559h-1.982zM20.099 19.131c-1.011 0.002-1.829 0.821-1.831 1.831 0.002 1.012 0.821 1.83 1.831 1.833 1.012-0.002 1.829-0.821 1.831-1.833-0.002-1.011-0.82-1.829-1.831-1.831z"></path>
</svg>
