<?xml version="1.0" encoding="utf-8"?>
<!-- Generated by IcoMoon.io -->
<!DOCTYPE svg PUBLIC "-//W3C//DTD SVG 1.1//EN" "http://www.w3.org/Graphics/SVG/1.1/DTD/svg11.dtd">
<svg version="1.1" xmlns="http://www.w3.org/2000/svg" xmlns:xlink="http://www.w3.org/1999/xlink" width="32" height="32" viewBox="0 0 32 32">
<path fill="#444444" d="M7.209 23.706l0.773-0.771 2.921 2.919 1.484-1.484-2.921-2.921 0.77-0.77 2.921 2.921 1.484-1.486-2.919-2.921 0.771-0.77 2.921 2.921 1.486-1.486-2.921-2.921 0.771-0.77 2.921 2.92 1.484-1.485-2.921-2.919 0.773-0.77 2.921 2.919 1.484-1.485-2.921-2.92 0.771-0.771 2.921 2.918 1.484-1.484-2.921-2.92 0.773-0.77 2.921 2.92 1.484-1.485-2.919-2.92 0.771-0.77 2.921 2.921 1.292-1.294-4.188-4.188c-0.591-0.589-1.547-0.589-2.136 0l-17.054 17.052c-0.591 0.59-0.591 1.545 0 2.136l4.19 4.188 1.332-1.334-2.921-2.919z"></path>
</svg>
