<?xml version="1.0" encoding="utf-8"?>
<!-- Generated by IcoMoon.io -->
<!DOCTYPE svg PUBLIC "-//W3C//DTD SVG 1.1//EN" "http://www.w3.org/Graphics/SVG/1.1/DTD/svg11.dtd">
<svg version="1.1" xmlns="http://www.w3.org/2000/svg" xmlns:xlink="http://www.w3.org/1999/xlink" width="32" height="32" viewBox="0 0 32 32">
<path fill="#444444" d="M15.987 19.131c-1.012 0.002-1.831 0.821-1.834 1.832 0.003 1.011 0.822 1.829 1.834 1.831 1.009-0.002 1.828-0.821 1.831-1.831-0.003-1.012-0.822-1.83-1.831-1.832zM22.719 15.362v-6.010c0-1.922-0.73-3.685-1.936-4.974-1.201-1.289-2.911-2.116-4.797-2.115-1.887-0.002-3.598 0.826-4.799 2.115-1.206 1.288-1.935 3.051-1.935 4.974v6.010c-1.264 1.518-2.024 3.471-2.024 5.601 0 4.837 3.92 8.758 8.759 8.758 4.835 0 8.757-3.921 8.757-8.758 0-2.131-0.76-4.083-2.024-5.601zM11.722 21.742h-1.98v-1.559h1.98v1.559zM16.764 27.207h-1.558v-1.982h1.558v1.982zM15.987 24.084c-1.725-0.001-3.121-1.398-3.121-3.121 0-1.725 1.396-3.121 3.121-3.121 1.723 0 3.119 1.396 3.119 3.121 0 1.723-1.396 3.12-3.119 3.121zM15.206 16.699v-1.981h1.558v1.981h-1.558zM19.523 12.95c-1.081-0.478-2.278-0.747-3.536-0.747-1.261 0-2.456 0.269-3.537 0.747v-3.598c0-1.109 0.419-2.092 1.072-2.79 0.658-0.699 1.515-1.101 2.465-1.102 0.948 0.001 1.805 0.403 2.463 1.102 0.653 0.698 1.073 1.681 1.073 2.79v3.598zM22.23 21.742h-1.982v-1.559h1.982v1.559z"></path>
</svg>
