<?xml version="1.0" encoding="utf-8"?>
<!-- Generated by IcoMoon.io -->
<!DOCTYPE svg PUBLIC "-//W3C//DTD SVG 1.1//EN" "http://www.w3.org/Graphics/SVG/1.1/DTD/svg11.dtd">
<svg version="1.1" xmlns="http://www.w3.org/2000/svg" xmlns:xlink="http://www.w3.org/1999/xlink" width="32" height="32" viewBox="0 0 32 32">
<path fill="#444444" d="M29.413 8.095c-0.007-0.748-0.154-1.461-0.438-2.131-0.289-0.681-0.683-1.285-1.179-1.805-0.498-0.522-1.090-0.935-1.766-1.234-0.679-0.301-1.41-0.452-2.178-0.452-0.003 0-0.005-0-0.007 0h-0.001c-0.771-0.001-1.504 0.151-2.192 0.451-0.684 0.298-1.283 0.71-1.789 1.232-0.504 0.519-0.906 1.122-1.203 1.803-0.301 0.688-0.452 1.423-0.452 2.194l-0.001 2.326-4.63-0.001 0.001-2.4-0.001-0.002c-0.009-0.743-0.159-1.453-0.45-2.119-0.297-0.681-0.698-1.285-1.202-1.804-0.505-0.522-1.104-0.933-1.787-1.232-0.685-0.299-1.416-0.45-2.182-0.452-0.005-0-0.009-0-0.014-0v-0c-0.771 0-1.505 0.151-2.193 0.451-0.684 0.298-1.283 0.71-1.789 1.232-0.504 0.519-0.906 1.122-1.203 1.804-0.299 0.685-0.45 1.416-0.452 2.184-0 0.004-0 0.007 0 0.008v0.002h0c0 0 0 0.001-0 0.002-0 0.77 0.15 1.502 0.451 2.182 0.297 0.675 0.701 1.265 1.207 1.763s1.103 0.894 1.785 1.184c0.688 0.293 1.421 0.439 2.191 0.439l2.438 0.001-0.001 4.653-2.426-0.001c-0.009-0-0.016 0-0.023 0-0.766 0.001-1.496 0.147-2.18 0.438-0.682 0.29-1.281 0.685-1.786 1.183s-0.91 1.088-1.208 1.763c-0.301 0.679-0.451 1.408-0.452 2.176-0 0.007 0 0.009 0 0.010-0.001 0.77 0.15 1.505 0.451 2.193 0.297 0.681 0.7 1.279 1.206 1.785s1.103 0.909 1.784 1.207c0.688 0.301 1.423 0.452 2.194 0.452h0.194l0.002-0.003c0.7-0.023 1.369-0.172 1.999-0.447 0.682-0.298 1.28-0.7 1.785-1.206s0.909-1.103 1.207-1.784c0.301-0.688 0.452-1.423 0.452-2.194l0.001-2.349 4.63 0.002-0.001 2.349v0.002c-0 0.77 0.15 1.504 0.451 2.192 0.297 0.681 0.7 1.28 1.205 1.785s1.103 0.909 1.785 1.207c0.686 0.3 1.418 0.45 2.187 0.452h0.004c0.001 0 0.002 0 0.003 0l0.506 0-0.011-0.021c0.59-0.051 1.155-0.194 1.689-0.43 0.675-0.298 1.266-0.701 1.764-1.207s0.893-1.104 1.184-1.786c0.293-0.687 0.439-1.421 0.439-2.191v-0.051l-0-0c-0.006-0.737-0.153-1.443-0.439-2.107-0.29-0.675-0.69-1.27-1.195-1.775s-1.1-0.905-1.775-1.196c-0.68-0.293-1.403-0.44-2.159-0.44l-2.393-0.001 0.001-4.653 2.707 0.001v-0.009c0.643-0.035 1.261-0.178 1.846-0.43 0.675-0.29 1.27-0.689 1.776-1.195s0.905-1.099 1.196-1.775c0.293-0.68 0.44-1.403 0.44-2.159v-0.060l-0-0.001zM10.375 23.941c-0 0.333-0.063 0.643-0.188 0.941-0.127 0.3-0.301 0.558-0.526 0.784-0.226 0.226-0.483 0.4-0.775 0.527-0.287 0.124-0.6 0.186-0.949 0.187-0.333-0.001-0.644-0.063-0.94-0.188-0.299-0.126-0.547-0.298-0.755-0.519-0.213-0.226-0.382-0.488-0.51-0.791-0.121-0.285-0.182-0.582-0.188-0.9v-0.042c0-0.316 0.061-0.614 0.187-0.904 0.127-0.292 0.297-0.54 0.512-0.749 0.219-0.212 0.472-0.38 0.768-0.508 0.276-0.119 0.568-0.181 0.886-0.186l2.479 0.001-0.001 2.349zM10.378 10.476l-2.438-0.001c-0.333-0-0.639-0.062-0.927-0.187-0.296-0.128-0.549-0.296-0.767-0.508-0.217-0.211-0.387-0.455-0.513-0.741-0.124-0.281-0.186-0.574-0.186-0.891v-0.001c0-0.35 0.063-0.663 0.187-0.949 0.128-0.296 0.297-0.555 0.511-0.782 0.208-0.221 0.457-0.392 0.755-0.519 0.297-0.125 0.606-0.187 0.94-0.187h0.001c0.35 0.001 0.663 0.064 0.949 0.187 0.292 0.126 0.549 0.3 0.775 0.527s0.4 0.482 0.527 0.775c0.123 0.286 0.186 0.6 0.186 0.95l-0.001 2.326zM18.205 18.374l-4.63-0.001 0.001-4.653 4.63 0.002-0.001 4.652zM23.84 21.597c0.316 0 0.61 0.062 0.892 0.186 0.287 0.128 0.533 0.295 0.744 0.506 0.209 0.21 0.376 0.458 0.504 0.753 0.125 0.29 0.186 0.588 0.186 0.905h0c-0 0.333-0.063 0.639-0.187 0.927-0.128 0.296-0.298 0.555-0.511 0.782-0.212 0.225-0.457 0.401-0.743 0.534-0.281 0.13-0.571 0.194-0.886 0.194-0.334-0-0.643-0.063-0.941-0.188-0.299-0.126-0.547-0.298-0.754-0.519-0.213-0.226-0.382-0.487-0.51-0.791-0.125-0.296-0.187-0.604-0.188-0.936l0.001-2.354 2.393 0.001zM25.984 9.046c-0.127 0.288-0.295 0.534-0.505 0.744s-0.457 0.378-0.744 0.505c-0.281 0.124-0.574 0.185-0.89 0.186l-2.395-0.001 0.001-2.326c0-0.35 0.063-0.663 0.187-0.949 0.128-0.297 0.297-0.555 0.511-0.782 0.208-0.221 0.456-0.392 0.755-0.519 0.284-0.12 0.581-0.182 0.899-0.188h0.042c0.314 0 0.605 0.065 0.886 0.195 0.285 0.133 0.531 0.311 0.742 0.535 0.213 0.228 0.383 0.486 0.511 0.783 0.124 0.288 0.186 0.594 0.187 0.927-0 0.316-0.062 0.61-0.186 0.891z"></path>
</svg>
