<?xml version="1.0" encoding="utf-8"?>
<!-- Generated by IcoMoon.io -->
<!DOCTYPE svg PUBLIC "-//W3C//DTD SVG 1.1//EN" "http://www.w3.org/Graphics/SVG/1.1/DTD/svg11.dtd">
<svg version="1.1" xmlns="http://www.w3.org/2000/svg" xmlns:xlink="http://www.w3.org/1999/xlink" width="32" height="32" viewBox="0 0 32 32">
<path fill="#444444" d="M24.295 26.090c-0.537 0-1.011 0.262-1.306 0.662h-3.263v-3.462c0.011-0.012 0.024-0.022 0.035-0.033 0.659-0.613 1.11-1.523 1.109-2.534v-3.058h-1.145v-1.656h2.438v-1.915h-6.794v1.915h2.439v1.656h-1.059v2.059c0 0 0 0.090 0 0.402h-6.526v-13.361h6.526v1.495h-1.381v1.916h6.794v-1.916h-1.294v-1.995c-0.008-2.004-1.615-3.61-3.619-3.618h-7.527c-2.003 0.008-3.609 1.614-3.618 3.618v14.363c0.008 2.004 1.615 3.61 3.618 3.618h7.527c0.19-0.002 0.374-0.018 0.558-0.047v2.553h-3.263c-0.295-0.4-0.77-0.662-1.305-0.662-0.895 0-1.621 0.725-1.621 1.621s0.726 1.619 1.621 1.619c0.535 0 1.010-0.26 1.304-0.662h8.444c0.294 0.402 0.768 0.662 1.305 0.662 0.893 0 1.619-0.723 1.619-1.619s-0.726-1.621-1.619-1.621z"></path>
</svg>
