<?xml version="1.0" encoding="utf-8"?>
<!-- Generated by IcoMoon.io -->
<!DOCTYPE svg PUBLIC "-//W3C//DTD SVG 1.1//EN" "http://www.w3.org/Graphics/SVG/1.1/DTD/svg11.dtd">
<svg version="1.1" xmlns="http://www.w3.org/2000/svg" xmlns:xlink="http://www.w3.org/1999/xlink" width="32" height="32" viewBox="0 0 32 32">
<path fill="#444444" d="M9.833 28.406h10.142v-24.904h-10.142v24.904zM18.478 24.91h-2.71v-2.71h2.71v2.71zM13.435 20.852v-2.71h2.71v2.71h-2.71zM18.478 16.795h-2.71v-2.709h2.71v2.709zM13.435 12.737v-2.71h2.71v2.71h-2.71zM15.768 5.97h2.71v2.709h-2.71v-2.709zM11.102 5.97h2.709v2.709h-2.709v-2.709zM11.102 14.085h2.709v2.709h-2.709v-2.709zM11.102 22.2h2.709v2.71h-2.709v-2.71zM2.326 28.406h6.081v-17.030h-6.081v17.030zM4.012 12.713h2.709v2.71h-2.709v-2.71zM4.012 17.53h2.709v2.709h-2.709v-2.709zM4.012 22.158h2.709v2.71h-2.709v-2.71zM28.4 13.775v-3.237h-1.475v-3.158h-1.059v-2.937h-0.89v2.937h-1.059v3.158h-1.475v3.237h-1.201v14.631h8.36v-14.631h-1.201zM25.334 26.545h-2.709v-2.709h2.709v2.709zM25.334 18.238h-2.709v-2.71h2.709v2.71zM28.514 22.357h-2.709v-2.709h2.709v2.709z"></path>
</svg>
