<?xml version="1.0" encoding="utf-8"?>
<!-- Generated by IcoMoon.io -->
<!DOCTYPE svg PUBLIC "-//W3C//DTD SVG 1.1//EN" "http://www.w3.org/Graphics/SVG/1.1/DTD/svg11.dtd">
<svg version="1.1" xmlns="http://www.w3.org/2000/svg" xmlns:xlink="http://www.w3.org/1999/xlink" width="32" height="32" viewBox="0 0 32 32">
<path fill="#444444" d="M28.426 7.734h-24.929c-0.704 0-1.274 0.532-1.274 1.189v14.061c0 0.656 0.57 1.188 1.274 1.188h24.929c0.704 0 1.274-0.532 1.274-1.188v-14.061c0-0.656-0.57-1.189-1.274-1.189zM27.812 22.284h-23.702v-6.111h23.702v6.111zM27.812 11.142h-23.702v-1.52h23.702v1.52zM10.090 18.129h-3.93v1.049h3.93v-1.049zM15.965 18.129h-5.124v1.049h5.124v-1.049zM16.715 19.736h-10.556v1.049h10.556v-1.049z"></path>
</svg>
