<?xml version="1.0" encoding="utf-8"?>
<!-- Generated by IcoMoon.io -->
<!DOCTYPE svg PUBLIC "-//W3C//DTD SVG 1.1//EN" "http://www.w3.org/Graphics/SVG/1.1/DTD/svg11.dtd">
<svg version="1.1" xmlns="http://www.w3.org/2000/svg" xmlns:xlink="http://www.w3.org/1999/xlink" width="32" height="32" viewBox="0 0 32 32">
<path fill="#444444" d="M27.878 15.034c-0.462-5.81-5.094-10.442-10.905-10.904v-1.741h-1.916v1.741c-5.809 0.463-10.44 5.094-10.904 10.905h-1.741v1.915h1.741c0.464 5.809 5.095 10.442 10.904 10.905v1.741h1.916v-1.741c5.811-0.463 10.443-5.096 10.905-10.905h1.741v-1.916h-1.741zM23.909 16.95c-0.435 3.621-3.315 6.499-6.936 6.936v-2.277h-1.916v2.277c-3.62-0.436-6.497-3.314-6.935-6.936h2.277v-1.915h-2.277c0.437-3.621 3.315-6.5 6.935-6.936v2.277h1.916v-2.277c3.621 0.436 6.498 3.314 6.936 6.935h-2.277v1.916h2.277zM16.016 13.948c-1.128 0-2.044 0.915-2.044 2.044 0 1.128 0.915 2.044 2.044 2.044 1.13 0 2.044-0.916 2.044-2.044 0-1.129-0.914-2.044-2.044-2.044z"></path>
</svg>
