<?xml version="1.0" encoding="utf-8"?>
<!-- Generated by IcoMoon.io -->
<!DOCTYPE svg PUBLIC "-//W3C//DTD SVG 1.1//EN" "http://www.w3.org/Graphics/SVG/1.1/DTD/svg11.dtd">
<svg version="1.1" xmlns="http://www.w3.org/2000/svg" xmlns:xlink="http://www.w3.org/1999/xlink" width="32" height="32" viewBox="0 0 32 32">
<path fill="#444444" d="M26.311 21.598l2.609-7.685c-0.8 0.449-2.159 0.85-3.725 0.85-3.212 0-7.292-1.689-9.195-8.119-2.020 6.419-6.082 8.109-9.261 8.109-1.535 0-2.864-0.394-3.658-0.839l2.469 7.685c1.884-2.263 6.133-3.395 10.381-3.395s8.497 1.132 10.381 3.395z"></path>
<path fill="#444444" d="M24.913 22.762c-0.332-0.399-0.798-0.766-1.37-1.093-1.575 1.14-4.459 1.868-7.614 1.868s-6.037-0.728-7.612-1.869c-0.572 0.327-1.038 0.694-1.37 1.093l-0.072 0.086c1.986 1.672 5.519 2.508 9.054 2.508s7.069-0.837 9.055-2.509l-0.072-0.086z"></path>
</svg>
