<?xml version="1.0" encoding="utf-8"?>
<!-- Generated by IcoMoon.io -->
<!DOCTYPE svg PUBLIC "-//W3C//DTD SVG 1.1//EN" "http://www.w3.org/Graphics/SVG/1.1/DTD/svg11.dtd">
<svg version="1.1" xmlns="http://www.w3.org/2000/svg" xmlns:xlink="http://www.w3.org/1999/xlink" width="32" height="32" viewBox="0 0 32 32">
<path fill="#444444" d="M5.717 23.412h20.566v2.33h-20.566v-2.33z"></path>
<path fill="#444444" d="M25.195 14.377c-3.212 0-7.292-1.689-9.195-8.12-2.020 6.419-6.082 8.109-9.261 8.109-1.535 0-2.864-0.394-3.658-0.839l2.469 7.685h20.762l2.609-7.685c-0.8 0.449-2.159 0.85-3.725 0.85zM16 18.241c-1.048 0-1.898-0.85-1.898-1.898s0.85-1.898 1.898-1.898c1.048 0 1.898 0.85 1.898 1.898s-0.85 1.898-1.898 1.898z"></path>
</svg>
