<?xml version="1.0" encoding="utf-8"?>
<!-- Generated by IcoMoon.io -->
<!DOCTYPE svg PUBLIC "-//W3C//DTD SVG 1.1//EN" "http://www.w3.org/Graphics/SVG/1.1/DTD/svg11.dtd">
<svg version="1.1" xmlns="http://www.w3.org/2000/svg" xmlns:xlink="http://www.w3.org/1999/xlink" width="32" height="32" viewBox="0 0 32 32">
<path fill="#444444" d="M10.157 16.262c-0.823 0.707-1.883 1.11-2.991 1.11-0.138 0-0.275-0.007-0.41-0.019l3.080 9.616h2.928l-1.502-10.004c-0.399-0.18-0.772-0.416-1.105-0.702z"></path>
<path fill="#444444" d="M22.122 16.262c-0.334 0.287-0.707 0.522-1.105 0.702l-1.501 10.004h2.928l3.080-9.616c-0.135 0.012-0.272 0.019-0.41 0.019-1.108 0-2.168-0.402-2.991-1.11z"></path>
<path fill="#444444" d="M16.14 16.263c-0.823 0.707-1.883 1.109-2.991 1.109-0.010 0-0.019-0.001-0.029-0.001l1.44 9.597h3.159l1.44-9.597c-0.010 0-0.019 0.001-0.029 0.001-1.108 0-2.168-0.402-2.991-1.109z"></path>
<path fill="#444444" d="M25.244 9.123c-0.031 0-0.062 0.001-0.093 0.002-1.718-1.118-4.141-1.993-6.94-2.29-0.142-1.018-1.013-1.803-2.071-1.803s-1.929 0.785-2.071 1.803c-2.812 0.298-5.244 1.18-6.964 2.306-0.115-0.011-0.231-0.017-0.349-0.017-1.849 0-3.348 1.442-3.348 3.22s1.63 3.211 3.48 3.211l0.013-0.013c0.087 0.008 0.176 0.013 0.266 0.013 0.892 0 1.734-0.432 2.251-1.157l0.74-1.037 0.741 1.037c0.517 0.725 1.359 1.157 2.251 1.157s1.734-0.432 2.251-1.157l0.74-1.038 0.74 1.038c0.517 0.724 1.358 1.157 2.251 1.157s1.734-0.432 2.251-1.157l0.74-1.038 0.74 1.038c0.517 0.725 1.358 1.157 2.251 1.157 1.849 0 3.48-1.433 3.48-3.211s-1.499-3.22-3.349-3.22z"></path>
</svg>
