<?xml version="1.0" encoding="utf-8"?>
<!-- Generated by IcoMoon.io -->
<!DOCTYPE svg PUBLIC "-//W3C//DTD SVG 1.1//EN" "http://www.w3.org/Graphics/SVG/1.1/DTD/svg11.dtd">
<svg version="1.1" xmlns="http://www.w3.org/2000/svg" xmlns:xlink="http://www.w3.org/1999/xlink" width="32" height="32" viewBox="0 0 32 32">
<path fill="#444444" d="M29.771 20.494c0.296-0.871 0.099-1.872-0.595-2.566s-1.695-0.891-2.566-0.595l-3.789-3.789 1.142-1.142-4.32-4.319-1.142 1.142-3.581-3.581c0.449-0.928 0.291-2.077-0.48-2.848-0.974-0.974-2.553-0.974-3.526 0s-0.974 2.553 0 3.526c0.693 0.693 1.691 0.89 2.561 0.597l3.439 3.439c-1.412-0.617-2.924-0.93-4.437-0.93-2.367-0.001-4.742 0.744-6.731 2.238-0.952-0.543-2.184-0.411-2.996 0.402-0.974 0.974-0.974 2.553 0 3.526s2.553 0.974 3.526 0c0.7-0.7 0.894-1.712 0.587-2.588 1.662-1.225 3.634-1.832 5.613-1.833 1.164 0.001 2.326 0.219 3.424 0.652l-0.578 0.578 4.319 4.32 0.922-0.922c0.868 1.462 1.306 3.107 1.306 4.754-0.001 1.573-0.384 3.141-1.153 4.553-0.884-0.325-1.916-0.136-2.626 0.574-0.974 0.974-0.974 2.553 0 3.526s2.552 0.974 3.526 0c0.793-0.793 0.94-1.987 0.442-2.928 1.040-1.762 1.556-3.747 1.555-5.725 0-1.508-0.313-3.015-0.928-4.422l2.479 2.479c-0.446 0.928-0.288 2.074 0.482 2.843 0.974 0.974 2.552 0.974 3.526 0 0.27-0.27 0.462-0.587 0.582-0.924l0.025-0.025-0.012-0.012z"></path>
</svg>
