<?xml version="1.0" encoding="utf-8"?>
<!-- Generated by IcoMoon.io -->
<!DOCTYPE svg PUBLIC "-//W3C//DTD SVG 1.1//EN" "http://www.w3.org/Graphics/SVG/1.1/DTD/svg11.dtd">
<svg version="1.1" xmlns="http://www.w3.org/2000/svg" xmlns:xlink="http://www.w3.org/1999/xlink" width="32" height="32" viewBox="0 0 32 32">
<path fill="#444444" d="M29.549 9.959l-0.285-0.57c-0.116-0.237-0.322-0.491-0.624-0.667-0.3-0.177-0.676-0.27-1.107-0.269-0.635 0.003-1.418 0.209-2.388 0.69l-8.368 3.948 3.579 2.005 9.193-5.137zM3.993 20.608l-0.011 0.006c-0.556 0.295-0.991 0.609-1.297 1.038-0.307 0.429-0.424 0.943-0.42 1.452-0.002 0.941 0.244 1.936 0.988 2.685s1.899 1.16 3.478 1.157c0.017 0 0.035 0 0.052 0 1.585 0 2.755-0.574 3.449-1.489 0.702-0.917 0.939-2.053 1.047-3.169 0.069-0.795 0.113-1.38 0.254-1.781 0.144-0.396 0.326-0.668 0.872-1.025l1.662-0.93-2.836-1.589-7.237 3.646zM8.224 24.27c-1.458 0.781-3.274 0.232-4.054-1.226l5.28-2.829c0.781 1.458 0.233 3.273-1.225 4.054zM12.4 12.496c-0.543-0.356-0.724-0.627-0.868-1.022-0.14-0.401-0.185-0.986-0.254-1.78-0.107-1.118-0.345-2.254-1.047-3.171-0.702-0.925-1.89-1.502-3.501-1.489-1.579-0.003-2.734 0.408-3.478 1.157s-0.99 1.744-0.988 2.685c-0.004 0.509 0.113 1.023 0.42 1.452 0.305 0.429 0.74 0.743 1.297 1.038l0.009 0.005 8.284 4.17c0.237 0.119 0.334 0.408 0.214 0.645-0.016 0.033-0.038 0.061-0.060 0.087-0.003 0.003-0.004 0.007-0.007 0.010-0.001 0.001-0.001 0.002-0.002 0.002l7.479 4.191 5.247 2.435c0.97 0.481 1.753 0.687 2.388 0.69 0.431 0.001 0.806-0.092 1.107-0.27 0.302-0.176 0.508-0.43 0.624-0.667l0.285-0.57-17.148-9.599zM9.481 11.847l-5.259-2.868c0.792-1.452 2.611-1.987 4.063-1.195s1.987 2.612 1.195 4.064z"></path>
</svg>
