<?xml version="1.0" encoding="utf-8"?>
<!-- Generated by IcoMoon.io -->
<!DOCTYPE svg PUBLIC "-//W3C//DTD SVG 1.1//EN" "http://www.w3.org/Graphics/SVG/1.1/DTD/svg11.dtd">
<svg version="1.1" xmlns="http://www.w3.org/2000/svg" xmlns:xlink="http://www.w3.org/1999/xlink" width="32" height="32" viewBox="0 0 32 32">
<path fill="#444444" d="M15.949 3.66c-6.799 0-12.311 5.512-12.311 12.311s5.512 12.311 12.311 12.311c6.799 0 12.311-5.512 12.311-12.311s-5.512-12.311-12.311-12.311zM15.36 5.998h1.565v3.072h-1.565v-3.072zM10.678 11.745l-2.172-2.173 1.106-1.106 2.173 2.172-1.107 1.107zM11.45 7.125l1.418-0.661 1.298 2.784-1.418 0.661-1.298-2.784zM16.165 24.944c-1.361 0-2.464-1.103-2.464-2.464 0-1.063 0.674-1.965 1.616-2.311v-7.027h1.565v6.981c1.011 0.307 1.746 1.246 1.746 2.357 0 1.361-1.103 2.464-2.464 2.464zM17.999 9.245l1.299-2.784 1.418 0.662-1.298 2.784-1.418-0.661zM21.439 11.745l-1.107-1.107 2.172-2.172 1.106 1.106-2.172 2.173z"></path>
</svg>
