<?xml version="1.0" encoding="utf-8"?>
<!-- Generated by IcoMoon.io -->
<!DOCTYPE svg PUBLIC "-//W3C//DTD SVG 1.1//EN" "http://www.w3.org/Graphics/SVG/1.1/DTD/svg11.dtd">
<svg version="1.1" xmlns="http://www.w3.org/2000/svg" xmlns:xlink="http://www.w3.org/1999/xlink" width="32" height="32" viewBox="0 0 32 32">
<path fill="#444444" d="M18.428 11.354c0.172 0.172 0.454 0.172 0.625 0l1.416-1.419c0.174-0.171 0.454-0.171 0.627 0l2.532 2.535c0.172 0.171 0.172 0.453 0 0.624l-0.094 0.095c-0.172 0.172-0.172 0.453 0 0.625l0.337 0.336h4.147l-6.923-6.923c-0.174-0.171-0.454-0.171-0.627 0l-2.771 2.773c-0.172 0.171-0.172 0.453 0 0.625l0.73 0.729zM7.959 13.814c0.172-0.172 0.172-0.453 0-0.625l-0.096-0.095c-0.172-0.172-0.172-0.454 0-0.624l2.534-2.535c0.172-0.171 0.454-0.171 0.626 0l1.418 1.419c0.172 0.172 0.452 0.172 0.623 0l0.732-0.729c0.172-0.173 0.172-0.454 0-0.625l-2.774-2.773c-0.172-0.171-0.454-0.171-0.626 0l-6.922 6.924h4.147l0.337-0.336zM28.755 15.977h-25.563c-0.411 0-0.746 0.336-0.746 0.747v7.484c0 0.411 0.335 0.747 0.746 0.747h10.227c0.411 0 0.873-0.311 1.030-0.691l0.536-1.313c0.155-0.379 0.601-0.691 0.989-0.691s0.834 0.312 0.989 0.691l0.535 1.313c0.155 0.38 0.619 0.691 1.030 0.691h10.225c0.413 0 0.748-0.336 0.748-0.747v-7.484c0-0.411-0.335-0.747-0.748-0.747zM13.161 20.546c0 1.313-1.065 2.378-2.379 2.378h-3.789c-1.314 0-2.379-1.065-2.379-2.378v-0.159c0-1.314 1.065-2.379 2.379-2.379h3.789c1.314 0 2.379 1.065 2.379 2.379v0.159zM27.337 20.546c0 1.313-1.065 2.378-2.379 2.378h-3.789c-1.314 0-2.379-1.065-2.379-2.378v-0.159c0-1.314 1.065-2.379 2.379-2.379h3.789c1.314 0 2.379 1.065 2.379 2.379v0.159z"></path>
</svg>
