<?xml version="1.0" encoding="utf-8"?>
<!-- Generated by IcoMoon.io -->
<!DOCTYPE svg PUBLIC "-//W3C//DTD SVG 1.1//EN" "http://www.w3.org/Graphics/SVG/1.1/DTD/svg11.dtd">
<svg version="1.1" xmlns="http://www.w3.org/2000/svg" xmlns:xlink="http://www.w3.org/1999/xlink" width="32" height="32" viewBox="0 0 32 32">
<path fill="#444444" d="M24.023 7.010c0-1.35-0.276-2.628-0.754-3.773l-0.201-0.479h-4.23v1.559h3.175c0.289 0.834 0.453 1.741 0.453 2.693 0 1.203-0.253 2.334-0.697 3.333-0.492 0.011-0.971 0.254-1.263 0.693-1.077 1.607-2.694 2.563-4.472 2.564-1.778-0.001-3.396-0.957-4.472-2.564-0.294-0.441-0.774-0.684-1.267-0.693-0.443-0.999-0.697-2.13-0.697-3.333 0.001-0.952 0.164-1.859 0.453-2.693h2.777v-1.559h-3.832l-0.198 0.479c-0.48 1.146-0.756 2.423-0.756 3.773 0 1.471 0.321 2.861 0.889 4.091-0.299 0.499-0.307 1.145 0.038 1.662v0c1.215 1.835 3.049 3.215 5.196 3.733 0 0.067-0.002 0.135-0.002 0.203-0.003 0.718 0.057 1.527 0.389 2.364 0.33 0.838 0.869 1.628 1.675 2.559 0.309 0.355 0.742 0.538 1.177 0.538 0.115 0 0.228-0.014 0.341-0.040 0.18 0.188 0.37 0.383 0.576 0.589 0.998 0.994 1.46 2.112 1.455 2.968-0.005 0.608-0.201 1.072-0.598 1.429-0.399 0.355-1.063 0.629-2.099 0.63-0.901 0.004-1.653-0.499-2.211-1.075-0.069-0.070-0.133-0.141-0.194-0.212 0.492-0.593 0.789-1.356 0.789-2.185 0-1.891-1.539-3.43-3.431-3.43s-3.429 1.538-3.429 3.43c0 1.892 1.537 3.429 3.429 3.429 0.499 0 0.972-0.107 1.4-0.299 0.097 0.114 0.201 0.232 0.316 0.35 0.711 0.738 1.829 1.547 3.332 1.551h0.008c1.303 0 2.375-0.355 3.127-1.024 0.754-0.666 1.125-1.621 1.12-2.594-0.004-1.388-0.685-2.838-1.912-4.072-0.189-0.188-0.367-0.368-0.532-0.541 0.155-0.498 0.059-1.061-0.309-1.485-0.687-0.79-0.989-1.299-1.127-1.654-0.136-0.357-0.173-0.639-0.175-1.227 0-0.025 0-0.053 0-0.080 2.414-0.38 4.491-1.844 5.823-3.855 0.343-0.518 0.335-1.166 0.035-1.665 0.568-1.229 0.887-2.617 0.887-4.088zM10.159 24.263c0-1.034 0.839-1.871 1.872-1.871s1.872 0.837 1.872 1.871c0 1.033-0.839 1.871-1.872 1.871s-1.872-0.838-1.872-1.871z"></path>
</svg>
