<?xml version="1.0" encoding="utf-8"?>
<!-- Generated by IcoMoon.io -->
<!DOCTYPE svg PUBLIC "-//W3C//DTD SVG 1.1//EN" "http://www.w3.org/Graphics/SVG/1.1/DTD/svg11.dtd">
<svg version="1.1" xmlns="http://www.w3.org/2000/svg" xmlns:xlink="http://www.w3.org/1999/xlink" width="32" height="32" viewBox="0 0 32 32">
<path fill="#444444" d="M23.891 4.427h-15.827l-4.489 6.295 12.402 16.844 12.402-16.844-4.488-6.295zM13.981 9.755l1.998-2.657 1.998 2.657h-3.996zM18.342 11.67l-2.363 9.828-2.363-9.828h4.725zM17.808 6.342h3.791l-1.896 2.521-1.896-2.521zM12.255 8.863l-1.897-2.519h3.791l-1.895 2.519zM10.528 9.755h-3.911l1.904-2.669 2.007 2.669zM11.647 11.67l2.421 10.071-7.415-10.071h4.994zM20.312 11.67h4.989l-7.408 10.063 2.419-10.063zM21.43 9.755l2.006-2.667 1.902 2.667h-3.908z"></path>
</svg>
