<?xml version="1.0" encoding="utf-8"?>
<!-- Generated by IcoMoon.io -->
<!DOCTYPE svg PUBLIC "-//W3C//DTD SVG 1.1//EN" "http://www.w3.org/Graphics/SVG/1.1/DTD/svg11.dtd">
<svg version="1.1" xmlns="http://www.w3.org/2000/svg" xmlns:xlink="http://www.w3.org/1999/xlink" width="32" height="32" viewBox="0 0 32 32">
<path fill="#444444" d="M12.218 13.961c0-0.649 0.525-1.173 1.173-1.173 0.207 0 0.403 0.054 0.571 0.148l3.022-3.022v-4.183c0-0.584-0.472-1.056-1.057-1.056h-10.258c-0.583 0-1.057 0.472-1.057 1.056v10.26c0 0.583 0.473 1.056 1.057 1.056h4.184c0.004-0.003 0.006-0.006 0.009-0.010l2.504-2.504c-0.093-0.17-0.148-0.364-0.148-0.571zM8.204 15.134c-0.648 0-1.174-0.524-1.174-1.173s0.526-1.173 1.174-1.173c0.648 0 1.174 0.524 1.174 1.173s-0.526 1.173-1.174 1.173zM7.030 10.86c0-0.649 0.526-1.174 1.174-1.174s1.174 0.525 1.174 1.174c0 0.648-0.526 1.173-1.174 1.173s-1.174-0.525-1.174-1.173zM8.204 8.933c-0.648-0.001-1.174-0.526-1.174-1.174s0.526-1.173 1.174-1.173c0.648 0 1.174 0.526 1.174 1.173s-0.526 1.173-1.174 1.174zM13.391 6.585c0.648 0 1.174 0.526 1.174 1.173s-0.526 1.174-1.174 1.174c-0.648-0.001-1.173-0.526-1.173-1.174s0.525-1.173 1.173-1.173zM13.391 9.686c0.65 0 1.173 0.525 1.174 1.174-0.001 0.648-0.524 1.173-1.174 1.173-0.648 0-1.173-0.525-1.173-1.173s0.525-1.174 1.173-1.174zM26.967 18.137l-7.255-7.254c-0.413-0.413-1.081-0.413-1.493-0.001l-7.256 7.255c-0.412 0.413-0.412 1.081 0 1.494l7.256 7.255c0.412 0.413 1.080 0.413 1.494 0l7.254-7.255c0.413-0.413 0.413-1.081 0-1.494zM15.769 19.716c-0.228 0.229-0.53 0.344-0.828 0.344h-0.001c-0.3 0-0.602-0.115-0.83-0.344-0.23-0.228-0.345-0.53-0.343-0.83-0.002-0.298 0.113-0.601 0.343-0.829 0.228-0.229 0.529-0.344 0.83-0.344 0.298 0 0.6 0.114 0.829 0.344l-0.22 0.22 0.221-0.22c0.227 0.228 0.342 0.53 0.342 0.829 0 0.3-0.115 0.601-0.343 0.83zM19.795 23.742c-0.228 0.226-0.529 0.342-0.828 0.342h-0.001c-0.3 0-0.602-0.116-0.831-0.344s-0.345-0.529-0.342-0.83c-0.002-0.298 0.113-0.602 0.342-0.829 0.229-0.228 0.53-0.344 0.831-0.344 0.298 0 0.601 0.115 0.829 0.344 0.228 0.228 0.344 0.53 0.343 0.829 0.001 0.3-0.116 0.601-0.343 0.832zM17.785 18.886c0-0.298 0.115-0.602 0.343-0.829 0.227-0.229 0.53-0.344 0.829-0.344s0.602 0.116 0.831 0.344c0.229 0.228 0.343 0.53 0.343 0.83 0 0.298-0.114 0.601-0.343 0.828-0.229 0.229-0.529 0.344-0.828 0.344h-0.003c-0.3 0-0.602-0.115-0.829-0.344-0.229-0.228-0.343-0.53-0.343-0.83zM19.795 15.688c-0.228 0.228-0.529 0.344-0.828 0.344h-0.001c-0.3 0-0.602-0.116-0.831-0.344s-0.345-0.53-0.345-0.83c0-0.299 0.116-0.602 0.345-0.83s0.53-0.344 0.831-0.343c0.298-0.001 0.601 0.114 0.83 0.343s0.343 0.53 0.343 0.83c0.001 0.3-0.116 0.6-0.343 0.83zM23.821 19.716c-0.227 0.229-0.528 0.344-0.827 0.344h-0.002c-0.3 0.001-0.602-0.115-0.83-0.344-0.229-0.228-0.344-0.53-0.344-0.828 0-0.3 0.115-0.602 0.344-0.83 0.228-0.23 0.53-0.344 0.83-0.344s0.601 0.116 0.829 0.343l-0.219 0.221 0.219-0.22c0.229 0.228 0.344 0.53 0.344 0.829s-0.115 0.601-0.344 0.83z"></path>
</svg>
