<?xml version="1.0" encoding="utf-8"?>
<!-- Generated by IcoMoon.io -->
<!DOCTYPE svg PUBLIC "-//W3C//DTD SVG 1.1//EN" "http://www.w3.org/Graphics/SVG/1.1/DTD/svg11.dtd">
<svg version="1.1" xmlns="http://www.w3.org/2000/svg" xmlns:xlink="http://www.w3.org/1999/xlink" width="32" height="32" viewBox="0 0 32 32">
<path fill="#444444" d="M4.773 16.719c0.195-0.445 0.419-1.323 0.514-2.567h-1.067c0.060 1.225 0.274 2.209 0.553 2.567z"></path>
<path fill="#444444" d="M4.203 8.278c-0.634 0-1.154 1.935-1.203 4.394h2.406c-0.049-2.459-0.569-4.394-1.202-4.394z"></path>
<path fill="#444444" d="M19.453 17.88l-1.585 5.115 1.851-0.66 1.153 1.591 1.563-5.042c-0.081 0.005-0.163 0.008-0.245 0.008-1.044 0-1.999-0.381-2.737-1.011z"></path>
<path fill="#444444" d="M25.046 14.67c0 1.578-1.279 2.856-2.856 2.856s-2.856-1.279-2.856-2.856c0-1.578 1.279-2.856 2.856-2.856s2.856 1.279 2.856 2.856z"></path>
<path fill="#444444" d="M23.766 18.585l-0.924 2.982 0.731 2.36 1.153-1.591 1.851 0.66-1.599-5.16c-0.356 0.314-0.765 0.569-1.212 0.749z"></path>
<path fill="#444444" d="M27.821 8.074h-21.908c0.848 1.347 0.903 4.124 0.903 4.821s-0.055 3.473-0.903 4.82h12.352l0.283-0.914c-0.368-0.626-0.58-1.354-0.58-2.131 0-2.328 1.894-4.221 4.221-4.221s4.221 1.894 4.221 4.221c0 0.746-0.195 1.448-0.537 2.057l0.306 0.988h1.641c0.651-0 1.179-2.158 1.179-4.82s-0.528-4.821-1.179-4.821zM14.657 15.262h-4.219v-1.48h4.219v1.48zM16.146 12.405h-6.892v-1.48h6.892v1.48z"></path>
</svg>
