<?xml version="1.0" encoding="utf-8"?>
<!-- Generated by IcoMoon.io -->
<!DOCTYPE svg PUBLIC "-//W3C//DTD SVG 1.1//EN" "http://www.w3.org/Graphics/SVG/1.1/DTD/svg11.dtd">
<svg version="1.1" xmlns="http://www.w3.org/2000/svg" xmlns:xlink="http://www.w3.org/1999/xlink" width="32" height="32" viewBox="0 0 32 32">
<path fill="#444444" d="M10.868 6.863h9.922v3.108h-9.922v-3.108z"></path>
<path fill="#444444" d="M10.868 12.725h9.922v1.48h-9.922v-1.48z"></path>
<path fill="#444444" d="M10.868 15.66h9.922v1.48h-9.922v-1.48z"></path>
<path fill="#444444" d="M7.191 3.225v18.798l5.831 5.832h2.979v-1.48h-1.042c-2.199 0-1.139-5.212-1.139-5.212s-5.083 1.236-5.148-1.095c0-3.967 0-15.362 0-15.362h14.658v21.67h-1.958v1.48h3.438v-24.63h-17.618z"></path>
<path fill="#444444" d="M18.686 19.823c-1.415 0-2.563 1.147-2.563 2.562s1.147 2.562 2.563 2.562c1.415 0 2.562-1.147 2.562-2.562s-1.147-2.562-2.562-2.562z"></path>
<path fill="#444444" d="M17.328 25.919v2.856l1.357-0.649 1.357 0.649v-2.856c-0.422 0.163-0.879 0.253-1.357 0.253s-0.936-0.090-1.357-0.253z"></path>
</svg>
