<?xml version="1.0" encoding="utf-8"?>
<!-- Generated by IcoMoon.io -->
<!DOCTYPE svg PUBLIC "-//W3C//DTD SVG 1.1//EN" "http://www.w3.org/Graphics/SVG/1.1/DTD/svg11.dtd">
<svg version="1.1" xmlns="http://www.w3.org/2000/svg" xmlns:xlink="http://www.w3.org/1999/xlink" width="32" height="32" viewBox="0 0 32 32">
<path fill="#444444" d="M15.951 2.349c7.525 0 13.625 6.1 13.625 13.625s-6.1 13.625-13.625 13.625c-7.525 0-13.625-6.1-13.625-13.625s6.1-13.625 13.625-13.625zM15.951 9.548c-3.543 0-6.426 2.883-6.426 6.426s2.883 6.426 6.426 6.426c3.543 0 6.426-2.883 6.426-6.426s-2.883-6.426-6.426-6.426v0z"></path>
<path fill="#444444" d="M15.951 11.464c-2.491 0-4.511 2.019-4.511 4.511s2.020 4.511 4.511 4.511 4.51-2.020 4.51-4.511c0-2.491-2.019-4.511-4.51-4.511zM15.951 17.564c-0.878 0-1.589-0.712-1.589-1.589s0.712-1.589 1.589-1.589c0.878 0 1.589 0.712 1.589 1.589s-0.712 1.589-1.589 1.589z"></path>
</svg>
