<?xml version="1.0" encoding="utf-8"?>
<!-- Generated by IcoMoon.io -->
<!DOCTYPE svg PUBLIC "-//W3C//DTD SVG 1.1//EN" "http://www.w3.org/Graphics/SVG/1.1/DTD/svg11.dtd">
<svg version="1.1" xmlns="http://www.w3.org/2000/svg" xmlns:xlink="http://www.w3.org/1999/xlink" width="32" height="32" viewBox="0 0 32 32">
<path fill="#444444" d="M19.234 24.747c-0.056-0.25-0.095-0.496-0.124-0.728h-6.511c-0.058 0.467-0.162 0.994-0.344 1.481-0.182 0.49-0.44 0.936-0.791 1.249-0.352 0.313-0.79 0.509-1.403 0.511v0.583h11.587v-0.583c-0.612-0.002-1.050-0.198-1.403-0.512-0.527-0.468-0.843-1.243-1.011-2.002zM28.678 4.246h-25.646c-0.427 0-0.774 0.347-0.774 0.774v16.852c0 0.427 0.346 0.774 0.774 0.774h25.646c0.428 0 0.774-0.347 0.774-0.774v-16.852c0-0.427-0.346-0.774-0.774-0.774zM27.574 20.768h-23.438v-14.645h23.438v14.645z"></path>
</svg>
