<?xml version="1.0" encoding="utf-8"?>
<!-- Generated by IcoMoon.io -->
<!DOCTYPE svg PUBLIC "-//W3C//DTD SVG 1.1//EN" "http://www.w3.org/Graphics/SVG/1.1/DTD/svg11.dtd">
<svg version="1.1" xmlns="http://www.w3.org/2000/svg" xmlns:xlink="http://www.w3.org/1999/xlink" width="32" height="32" viewBox="0 0 32 32">
<path fill="#444444" d="M19.706 9.722c-0.897-0.832-1.88-1.447-2.839-2.019-1.204-0.705-2.166-1.372-2.776-2.133-0.145-0.181-0.272-0.367-0.386-0.563l0.901-0.13c0.237-0.034 0.581 0.062 0.762 0.214 0 0 0.247 0.207 0.646 0.207 0.525 0 0.885-0.45 0.885-0.45 0.147-0.188 0.462-0.368 0.699-0.401l1.049-0.151c0 0.002-0.002 0.004-0.002 0.005-0.252 0.727-0.646 1.281-1.226 1.825-0.063 0.057-0.127 0.112-0.192 0.17 0.104 0.065 0.215 0.131 0.331 0.199l0.002 0.001c0.801 0.476 1.717 1.038 2.596 1.774 0.139-0.146 0.274-0.299 0.405-0.46 0.533-0.66 0.993-1.445 1.3-2.344 0.288-0.836 0.448-1.768 0.468-2.78h-3.411c-0.004 0.117-0.010 0.228-0.018 0.338l-1.478 0.212c-0.235 0.033-0.578-0.061-0.762-0.217 0 0-0.245-0.2-0.644-0.202-0.523 0.002-0.883 0.45-0.883 0.45-0.147 0.186-0.462 0.366-0.699 0.4l-1.179 0.17c-0.076-0.335-0.127-0.714-0.141-1.151h-3.409c0.020 1.014 0.178 1.942 0.468 2.78 0.46 1.353 1.261 2.432 2.152 3.255 0.897 0.833 1.88 1.449 2.841 2.020 1.204 0.705 2.166 1.373 2.774 2.132 0.074 0.089 0.139 0.18 0.202 0.271l-0.72 0.104c-0.235 0.033-0.578-0.063-0.762-0.217 0 0-0.245-0.201-0.644-0.203-0.523 0.002-0.883 0.449-0.883 0.449-0.147 0.187-0.462 0.369-0.699 0.402l-0.916 0.133c0.254-0.568 0.607-1.034 1.095-1.492 0.059-0.055 0.121-0.112 0.186-0.168-0.106-0.063-0.215-0.129-0.331-0.196l-0.012-0.008h-0.002c-0.797-0.475-1.707-1.036-2.583-1.766-0.137 0.144-0.27 0.294-0.399 0.454-0.535 0.658-0.993 1.443-1.302 2.343-0.309 0.898-0.468 1.902-0.468 3.002v0 0.021c0 1.098 0.159 2.102 0.47 3 0.46 1.352 1.261 2.429 2.152 3.253 0.897 0.834 1.88 1.449 2.841 2.019 1.202 0.707 2.166 1.374 2.774 2.136 0.112 0.136 0.211 0.278 0.302 0.424l-0.82 0.119c-0.235 0.034-0.578-0.063-0.762-0.216 0 0-0.245-0.203-0.644-0.203-0.523 0-0.883 0.449-0.883 0.449-0.147 0.187-0.462 0.367-0.699 0.401l-0.989 0.141c0.254-0.653 0.632-1.166 1.169-1.672 0.059-0.056 0.121-0.111 0.186-0.168-0.106-0.064-0.215-0.128-0.329-0.195v0l-0.006-0.005c-0.801-0.474-1.715-1.036-2.594-1.772-0.137 0.146-0.27 0.296-0.399 0.455-0.535 0.66-0.993 1.445-1.302 2.344-0.288 0.837-0.446 1.767-0.466 2.78h3.409c0.006-0.171 0.016-0.333 0.033-0.486l1.461-0.212c0.237-0.034 0.581 0.064 0.762 0.215 0 0 0.247 0.206 0.646 0.206 0.525 0 0.885-0.449 0.885-0.449 0.147-0.187 0.462-0.368 0.699-0.4l1.143-0.166c0.096 0.367 0.161 0.791 0.176 1.293h3.411c-0.020-1.013-0.18-1.943-0.468-2.78-0.46-1.352-1.263-2.43-2.154-3.253v0c-0.897-0.835-1.88-1.451-2.841-2.021-1.202-0.706-2.164-1.372-2.773-2.133-0.155-0.195-0.292-0.393-0.411-0.607l0.926-0.133c0.237-0.036 0.581 0.061 0.762 0.214 0 0 0.247 0.206 0.646 0.206 0.525 0 0.885-0.451 0.885-0.451 0.147-0.187 0.462-0.367 0.699-0.402l1.065-0.152c-0.006 0.018-0.012 0.036-0.018 0.055-0.252 0.727-0.646 1.278-1.226 1.823-0.063 0.057-0.127 0.114-0.192 0.172 0.104 0.064 0.215 0.128 0.331 0.197l0.006 0.003-0.008-0.005c0.803 0.477 1.719 1.042 2.6 1.778 0.139-0.147 0.274-0.3 0.405-0.459 0.533-0.661 0.991-1.446 1.3-2.346 0.308-0.896 0.47-1.902 0.47-3.001 0 0 0-0.003 0-0.014v-0.005c0-1.1-0.162-2.104-0.47-3.002-0.46-1.352-1.263-2.429-2.152-3.253zM18.921 16.217h-0.004c-0.004 0.1-0.008 0.196-0.014 0.29l-1.482 0.215c-0.235 0.033-0.578-0.062-0.762-0.217 0 0-0.245-0.201-0.644-0.203-0.523 0.002-0.883 0.449-0.883 0.449-0.147 0.188-0.462 0.368-0.699 0.401l-1.189 0.173c-0.084-0.382-0.133-0.819-0.135-1.336v-0.231h0.004c0.008-0.237 0.027-0.456 0.053-0.662l1.441-0.206c0.237-0.035 0.581 0.061 0.762 0.213 0 0 0.247 0.206 0.646 0.206 0.525 0 0.885-0.45 0.885-0.45 0.147-0.187 0.462-0.367 0.699-0.401l1.098-0.158c0.137 0.458 0.223 1.005 0.225 1.689v0.229z"></path>
</svg>
