<?xml version="1.0" encoding="utf-8"?>
<!-- Generated by IcoMoon.io -->
<!DOCTYPE svg PUBLIC "-//W3C//DTD SVG 1.1//EN" "http://www.w3.org/Graphics/SVG/1.1/DTD/svg11.dtd">
<svg version="1.1" xmlns="http://www.w3.org/2000/svg" xmlns:xlink="http://www.w3.org/1999/xlink" width="32" height="32" viewBox="0 0 32 32">
<path fill="#444444" d="M19.235 11.531h-6.792c-0.73 0.002-1.325 0.595-1.325 1.326s0.595 1.324 1.325 1.327h6.792c0.732-0.002 1.324-0.595 1.326-1.327-0.002-0.732-0.595-1.325-1.326-1.326zM18.82 13.403h-5.96v-1.092h5.96v1.092zM5.433 8.733v8.844h8.927v12.008h3.197v-12.008h9.048v-8.844h-21.172zM19.235 15.274h-6.792c-1.335 0-2.416-1.081-2.416-2.416 0-1.336 1.081-2.416 2.416-2.418l6.792 0.002c1.334 0 2.418 1.080 2.418 2.416 0 1.335-1.083 2.416-2.418 2.416zM24.821 2.408h-17.602v4.746h17.602v-4.746z"></path>
</svg>
