<?xml version="1.0" encoding="utf-8"?>
<!-- Generated by IcoMoon.io -->
<!DOCTYPE svg PUBLIC "-//W3C//DTD SVG 1.1//EN" "http://www.w3.org/Graphics/SVG/1.1/DTD/svg11.dtd">
<svg version="1.1" xmlns="http://www.w3.org/2000/svg" xmlns:xlink="http://www.w3.org/1999/xlink" width="32" height="32" viewBox="0 0 32 32">
<path fill="#444444" d="M15.217 4.054l-0.458-0.458h-12.463v26.044h18.629v-19.878l-5.708-5.708zM19.36 28.074h-15.5v-22.914h8.851c2.325 0 1.205 5.511 1.205 5.511s5.375-1.306 5.444 1.158v16.245zM29.175 7.395l-5.079-5.079h-7.913l1.565 1.565h4.468c0.004 0 0.008 0.001 0.012 0.001-0 0.018-0.001 0.034-0.001 0.052 0.698 0 1.043 0.565 1.195 1.309 0.272 1.435-0.145 3.489-0.145 3.489s0.009-0.002 0.021-0.005c-0.007 0.038-0.011 0.058-0.011 0.058s4.196-1.020 4.737 0.671c0.005 0.018 0.010 0.037 0.014 0.055 0.005 0.019 0.009 0.038 0.013 0.058 0.010 0.058 0.016 0.118 0.018 0.181v14.3h-5.5l0 1.565h7.065v-17.762l-0.458-0.459z"></path>
</svg>
