<?xml version="1.0" encoding="utf-8"?>
<!-- Generated by IcoMoon.io -->
<!DOCTYPE svg PUBLIC "-//W3C//DTD SVG 1.1//EN" "http://www.w3.org/Graphics/SVG/1.1/DTD/svg11.dtd">
<svg version="1.1" xmlns="http://www.w3.org/2000/svg" xmlns:xlink="http://www.w3.org/1999/xlink" width="32" height="32" viewBox="0 0 32 32">
<path fill="#444444" d="M10.528 28.949h2.877v-1.532h-2.877v1.532zM6.748 5.79h1.558v-1.193h1.13v-1.556h-2.689v2.749zM8.307 18.46h-1.558v2.769h1.558v-2.769zM8.307 26.178h-1.558v2.771h2.689v-1.532h-1.13v-1.239zM8.307 22.319h-1.558v2.768h1.558v-2.768zM8.307 6.88h-1.558v2.768h1.558v-2.768zM8.307 14.6h-1.558v2.769h1.558v-2.769zM8.307 10.74h-1.558v2.769h1.558v-2.769zM23.741 21.229h1.559v-2.769h-1.559v2.769zM23.741 17.369h1.559v-2.769h-1.559v2.769zM23.741 25.088h1.559v-2.768h-1.559v2.768zM24.843 8.724l-5.683-5.683h-4.663v1.556h2.624c2.316 0 1.199 5.49 1.199 5.49s5.357-1.302 5.421 1.155v2.268h1.559v-4.329l-0.458-0.457zM14.497 28.949h2.878v-1.532h-2.878v1.532zM23.741 27.417h-1.308v1.532h2.867v-2.771h-1.559v1.239zM10.528 4.597h2.877v-1.556h-2.877v1.556zM18.465 28.949h2.877v-1.532h-2.877v1.532z"></path>
</svg>
