<?xml version="1.0" encoding="utf-8"?>
<!-- Generated by IcoMoon.io -->
<!DOCTYPE svg PUBLIC "-//W3C//DTD SVG 1.1//EN" "http://www.w3.org/Graphics/SVG/1.1/DTD/svg11.dtd">
<svg version="1.1" xmlns="http://www.w3.org/2000/svg" xmlns:xlink="http://www.w3.org/1999/xlink" width="32" height="32" viewBox="0 0 32 32">
<path fill="#444444" d="M14.723 16.561c-0.12 0.095-0.213 0.214-0.281 0.356-0.068 0.141-0.102 0.307-0.102 0.498 0 0.3 0.096 0.533 0.287 0.697 0.191 0.163 0.506 0.296 0.943 0.396v-2.228c-0.155 0-0.307 0.023-0.452 0.068s-0.278 0.116-0.395 0.212zM17.518 21.167c-0.224-0.177-0.603-0.339-1.141-0.484v2.623c0.164-0.017 0.335-0.056 0.511-0.116 0.179-0.059 0.337-0.143 0.48-0.253 0.14-0.109 0.255-0.244 0.348-0.403 0.091-0.16 0.137-0.349 0.137-0.567-0-0.355-0.113-0.622-0.335-0.8zM20.271 10.798l0.002 0.002c-0.006-0.007-0.010-0.013-0.016-0.020-0.262-0.364-0.523-0.715-0.779-1.048-0.337-0.564-0.515-1.25-0.102-2.241v-0.001l1.424-3.407-2.235-1.019 0.229-1.010h-5.614l0.294 1.287-2.299 0.742 1.423 3.407c0.704 1.684-0.304 2.488-0.895 3.308-2.929 4.050-6.207 9.848-6.207 13.343 0 5.796 4.502 5.603 10.493 5.603s10.493 0.193 10.493-5.603c0-3.496-3.281-9.294-6.209-13.345zM14.577 7.954h2.865v1.808h-2.865v-1.808zM19.643 22.808c-0.1 0.306-0.28 0.604-0.54 0.895-0.26 0.292-0.609 0.552-1.047 0.78s-0.997 0.364-1.68 0.41v1.163h-0.807v-1.163c-1.021-0.073-1.819-0.387-2.392-0.944-0.575-0.556-0.908-1.371-0.998-2.447h1.927c-0.008 0.521 0.129 0.93 0.411 1.231s0.634 0.492 1.053 0.573v-2.856c-0.046-0.019-0.107-0.039-0.185-0.062s-0.162-0.043-0.252-0.061c-0.337-0.091-0.67-0.199-0.997-0.321-0.329-0.123-0.623-0.288-0.883-0.492s-0.467-0.461-0.622-0.765c-0.155-0.306-0.233-0.686-0.233-1.142 0-0.465 0.089-0.875 0.268-1.23 0.178-0.356 0.411-0.654 0.703-0.896s0.63-0.428 1.012-0.56c0.383-0.132 0.779-0.212 1.19-0.239v-1.053h0.807v1.053c0.409 0.046 0.794 0.135 1.155 0.267 0.359 0.133 0.675 0.314 0.95 0.547 0.272 0.232 0.497 0.522 0.668 0.867 0.174 0.348 0.274 0.758 0.3 1.231h-1.941c-0.009-0.364-0.124-0.674-0.341-0.929-0.22-0.256-0.483-0.383-0.792-0.383v2.42c0.108 0.028 0.22 0.055 0.335 0.082 0.112 0.028 0.234 0.059 0.362 0.096 0.674 0.182 1.194 0.408 1.557 0.677s0.634 0.549 0.807 0.84c0.173 0.293 0.275 0.584 0.308 0.875s0.048 0.551 0.048 0.78c0 0.199-0.051 0.453-0.151 0.757z"></path>
</svg>
