<?xml version="1.0" encoding="utf-8"?>
<!-- Generated by IcoMoon.io -->
<!DOCTYPE svg PUBLIC "-//W3C//DTD SVG 1.1//EN" "http://www.w3.org/Graphics/SVG/1.1/DTD/svg11.dtd">
<svg version="1.1" xmlns="http://www.w3.org/2000/svg" xmlns:xlink="http://www.w3.org/1999/xlink" width="32" height="32" viewBox="0 0 32 32">
<path fill="#444444" d="M14.785 18.686l-4.15-4.151-0.882 0.883c-0.488 0.486-0.488 1.277 0 1.762l2.538 2.54v1.329l-0.050-0.027-4.073-4.073v-6.749c0-0.903-0.732-1.635-1.635-1.635h-1.633v11.153h0.001l4.284 4.284v5.247h5.601l-0.001-1.994c0-0.002 0.001-0.004 0.001-0.004l-0.001-8.566zM25.515 8.565c-0.902 0-1.634 0.732-1.634 1.635v6.749l-4.072 4.073-0.052 0.027v-1.329l2.539-2.54c0.487-0.485 0.487-1.275 0-1.762l-0.882-0.883-4.151 4.151v8.565c0 0 0 0.002 0 0.004v1.994h5.602v-5.247l4.284-4.284v-11.153h-1.634zM20.2 12.493c0-1.316-1.067-2.381-2.382-2.381s-2.381 1.065-2.381 2.381c0 1.316 1.066 2.383 2.381 2.383s2.382-1.067 2.382-2.383zM13.265 6.194c-1.316 0-2.381 1.062-2.381 2.379 0 1.314 1.065 2.383 2.381 2.383 1.314 0 2.381-1.069 2.381-2.383 0-1.316-1.067-2.379-2.381-2.379zM18.187 7.507c1.314 0 2.382-1.067 2.382-2.382 0-1.314-1.068-2.38-2.382-2.38-1.316 0-2.381 1.066-2.381 2.38 0 1.316 1.065 2.382 2.381 2.382z"></path>
</svg>
