<?xml version="1.0" encoding="utf-8"?>
<!-- Generated by IcoMoon.io -->
<!DOCTYPE svg PUBLIC "-//W3C//DTD SVG 1.1//EN" "http://www.w3.org/Graphics/SVG/1.1/DTD/svg11.dtd">
<svg version="1.1" xmlns="http://www.w3.org/2000/svg" xmlns:xlink="http://www.w3.org/1999/xlink" width="32" height="32" viewBox="0 0 32 32">
<path fill="#444444" d="M26.368 28.796c-0.029-5.19-1.427-8.919-3.45-11.48-2.062-2.606-4.793-4.030-7.508-4.498-3.96-0.683-6.044-1.739-7.185-2.745-0.622-0.628-0.902-2.381-0.902-2.381s1.672 1.031 2.344 1.403c0.844 0.576 2.707 1.512 6.026 2.081 3.086 0.528 6.205 2.162 8.532 5.107 0.421 0.531 0.814 1.107 1.177 1.723 2.743-6.009-3.203-10.627-9.912-11.514-7.369-0.973-10.902-3.242-10.902-3.242-0.706 7.132 1.885 14.876 7.998 17.399 4.398 1.817 7.856 2.183 10.283 0.547 0.997 2.142 1.608 4.615 1.611 7.507v0.102l1.888-0.008z"></path>
</svg>
