<?xml version="1.0" encoding="utf-8"?>
<!-- Generated by IcoMoon.io -->
<!DOCTYPE svg PUBLIC "-//W3C//DTD SVG 1.1//EN" "http://www.w3.org/Graphics/SVG/1.1/DTD/svg11.dtd">
<svg version="1.1" xmlns="http://www.w3.org/2000/svg" xmlns:xlink="http://www.w3.org/1999/xlink" width="32" height="32" viewBox="0 0 32 32">
<path fill="#444444" d="M15.927 16.068c-0.030 0.050-0.034 0.074-0.036 0.088 0.002 0.013 0.006 0.037 0.036 0.087 0.036 0.061 0.113 0.154 0.244 0.259 0.258 0.211 0.717 0.453 1.317 0.655 1.201 0.412 2.95 0.684 4.882 0.682 2.53 0.009 4.763-0.482 5.825-1.090 0.354-0.195 0.556-0.398 0.616-0.506 0.029-0.049 0.034-0.074 0.036-0.087-0.002-0.014-0.007-0.038-0.036-0.088-0.036-0.060-0.114-0.154-0.243-0.258-0.259-0.212-0.719-0.453-1.319-0.655-1.2-0.412-2.949-0.684-4.879-0.683-2.53-0.008-4.765 0.484-5.827 1.092-0.354 0.194-0.557 0.399-0.616 0.505zM27.753 18.631c-1.427 0.484-3.306 0.765-5.383 0.767-2.667-0.009-4.989-0.45-6.479-1.233v1.566c0 0.014 0 0.034 0.036 0.097 0.036 0.061 0.113 0.155 0.244 0.258 0.258 0.21 0.717 0.453 1.317 0.655 1.201 0.411 2.95 0.684 4.882 0.683 2.526 0.009 4.762-0.483 5.824-1.091 0.355-0.195 0.557-0.399 0.617-0.505 0.036-0.063 0.035-0.083 0.036-0.097v-1.564c-0.328 0.174-0.693 0.327-1.095 0.465zM22.37 22.983c-2.667-0.008-4.989-0.45-6.479-1.233v1.733c0 0.014 0 0.035 0.036 0.097 0.036 0.061 0.113 0.154 0.244 0.258 0.258 0.212 0.717 0.453 1.317 0.655 1.201 0.412 2.95 0.684 4.882 0.682 2.526 0.009 4.762-0.483 5.824-1.090 0.355-0.195 0.557-0.398 0.617-0.506 0.036-0.063 0.035-0.083 0.036-0.096v-1.731c-0.329 0.175-0.695 0.328-1.098 0.465-1.424 0.484-3.305 0.764-5.379 0.767zM3.446 8.971c0.258 0.211 0.718 0.452 1.318 0.654 1.201 0.41 2.949 0.683 4.88 0.682 2.53 0.008 4.764-0.483 5.826-1.092 0.353-0.194 0.557-0.397 0.616-0.505 0.029-0.050 0.035-0.072 0.037-0.088-0.002-0.014-0.007-0.037-0.037-0.087-0.035-0.061-0.114-0.154-0.243-0.259-0.26-0.211-0.72-0.452-1.318-0.655-1.202-0.412-2.949-0.684-4.881-0.683-2.53-0.008-4.764 0.483-5.825 1.091-0.354 0.195-0.558 0.398-0.617 0.506-0.029 0.050-0.033 0.073-0.035 0.087 0.002 0.016 0.006 0.038 0.035 0.088 0.037 0.060 0.114 0.154 0.244 0.259zM14.333 23.482v-1.171c-1.319 0.354-2.934 0.555-4.689 0.557-2.665-0.007-4.988-0.449-6.477-1.233v1.773c0 0.013 0 0.035 0.035 0.097 0.037 0.060 0.114 0.154 0.244 0.258 0.258 0.211 0.718 0.453 1.318 0.655 1.201 0.411 2.949 0.683 4.88 0.683 1.969 0.006 3.756-0.291 4.954-0.71-0.002-0.004-0.004-0.007-0.007-0.011-0.156-0.258-0.258-0.572-0.258-0.899zM3.446 19.973c0.258 0.211 0.718 0.453 1.318 0.655 1.201 0.41 2.949 0.684 4.88 0.682 1.829 0.006 3.501-0.25 4.69-0.622v-0.944c0-0.004-0.001-0.008-0.001-0.013l0.001-1.087c-1.319 0.355-2.934 0.556-4.689 0.558-2.665-0.009-4.988-0.449-6.477-1.233v1.649c0 0.014 0 0.033 0.035 0.096 0.037 0.061 0.114 0.154 0.244 0.259zM16.086 12.468c0.037-0.063 0.035-0.084 0.037-0.097v-1.737c-0.329 0.175-0.694 0.328-1.096 0.466-1.427 0.484-3.306 0.764-5.383 0.765-2.665-0.008-4.988-0.45-6.477-1.233v1.738c0 0.014 0 0.034 0.035 0.097 0.037 0.060 0.114 0.154 0.244 0.258 0.258 0.211 0.718 0.453 1.318 0.656 1.201 0.411 2.949 0.684 4.88 0.682 2.526 0.008 4.762-0.483 5.825-1.091 0.354-0.196 0.558-0.398 0.617-0.505zM3.167 14.388v1.562c0 0.014 0 0.034 0.035 0.097 0.037 0.061 0.114 0.154 0.244 0.258 0.258 0.211 0.718 0.452 1.318 0.656 1.201 0.411 2.949 0.683 4.88 0.682 1.829 0.006 3.501-0.25 4.689-0.622v-0.902h0.001c0.008-0.311 0.108-0.607 0.257-0.854 0.079-0.129 0.169-0.246 0.267-0.355-1.404 0.45-3.218 0.71-5.214 0.712-2.664-0.008-4.988-0.449-6.477-1.233z"></path>
</svg>
