<?xml version="1.0" encoding="utf-8"?>
<!-- Generated by IcoMoon.io -->
<!DOCTYPE svg PUBLIC "-//W3C//DTD SVG 1.1//EN" "http://www.w3.org/Graphics/SVG/1.1/DTD/svg11.dtd">
<svg version="1.1" xmlns="http://www.w3.org/2000/svg" xmlns:xlink="http://www.w3.org/1999/xlink" width="32" height="32" viewBox="0 0 32 32">
<path fill="#444444" d="M29.479 24.718c-0.452-1.309-1.948-1.498-3.197-2.025-1.372-0.578-2.894-1.25-4.263-1.812-0.391-0.106-0.782-0.213-1.172-0.32-0.466-0.321-0.923-1.388-1.173-1.918-0.248-0.035-0.497-0.071-0.746-0.106 0.039-0.821 0.547-0.865 0.746-1.492 0.176-0.553 0.018-1.272 0.297-1.784 0.194-0.355 0.631-0.358 0.849-0.663 0.198-0.277 0.329-0.759 0.391-1.097 0.113-0.619 0.211-1.466-0.083-2.080-0.169-0.353-0.276-0.386-0.323-0.815-0.057-0.519 0.153-2.212 0.162-2.578 0.021-0.95-0.002-1.026-0.232-1.951 0 0-0.279-0.838-0.716-1.090l-0.872-0.15-0.539-0.499c-2.171-1.336-4.5-0.399-5.746 0.106-1.797 0.583-2.933 2.342-2.139 6.1 0.135 0.642-0.351 0.929-0.32 1.279 0.070 0.766 0.084 2.608 0.808 3.061 0.067 0.042 0.581 0.171 0.577 0.136 0.071 0.746 0.142 1.492 0.213 2.238 0.181 0.496 0.614 0.55 0.74 1.25l-0.555 0.135c-0.249 0.53-0.706 1.597-1.172 1.918-0.391 0.107-0.782 0.213-1.172 0.32-1.369 0.561-2.89 1.233-4.263 1.812-1.25 0.527-2.745 0.715-3.197 2.025 0 0.89-0.084 2.991-0.061 4.156h27.217c0.023-1.165-0.061-3.266-0.061-4.156zM23.764 27.694h-4.846v-2.132h4.846v2.132z"></path>
</svg>
