<?xml version="1.0" encoding="utf-8"?>
<!-- Generated by IcoMoon.io -->
<!DOCTYPE svg PUBLIC "-//W3C//DTD SVG 1.1//EN" "http://www.w3.org/Graphics/SVG/1.1/DTD/svg11.dtd">
<svg version="1.1" xmlns="http://www.w3.org/2000/svg" xmlns:xlink="http://www.w3.org/1999/xlink" width="32" height="32" viewBox="0 0 32 32">
<path fill="#444444" d="M10.011 7.756c0.148 0 0.299-0.021 0.45-0.061l6.064-1.69c0.891-0.249 1.41-1.17 1.163-2.061-0.248-0.891-1.171-1.411-2.060-1.163l-6.066 1.691c-0.889 0.248-1.41 1.169-1.163 2.061 0.207 0.74 0.88 1.224 1.613 1.224zM10.011 12.363c0.148 0 0.299-0.020 0.45-0.062l11.991-3.341c0.891-0.249 1.411-1.172 1.163-2.062-0.247-0.89-1.171-1.411-2.061-1.163l-11.992 3.343c-0.889 0.247-1.41 1.17-1.163 2.061 0.206 0.739 0.88 1.224 1.613 1.224zM21.554 10.341l-11.992 3.341c-0.889 0.248-1.41 1.172-1.161 2.061 0.204 0.741 0.878 1.225 1.611 1.225 0.148 0 0.299-0.020 0.45-0.062l11.991-3.342c0.891-0.249 1.41-1.171 1.163-2.060-0.248-0.891-1.171-1.411-2.061-1.163zM21.554 14.993l-11.992 3.341c-0.889 0.248-1.41 1.172-1.161 2.061 0.204 0.741 0.878 1.224 1.611 1.224 0.019 0 0.039-0.002 0.057-0.002 0.006 0 0.009 0.001 0.014 0.001v0c0.073 0.007 0.78 0.129 1.376 0.501 0.286 0.175 0.538 0.398 0.735 0.674v4.090h7.629v-4.092c0.317-0.453 0.819-0.762 1.285-0.944 0.239-0.096 0.461-0.155 0.615-0.189 0.077-0.018 0.137-0.028 0.174-0.034 0.017-0.003 0.029-0.004 0.035-0.005v0c0.415-0.046 0.767-0.335 0.895-0.733 0.127-0.398 0.008-0.836-0.301-1.116l-1.334-1.203 1.26-0.352c0.891-0.247 1.41-1.17 1.163-2.060s-1.171-1.41-2.061-1.162zM19.544 20.243c-0.54 0.315-1.108 0.774-1.545 1.438-0.174 0.263-0.323 0.56-0.439 0.884h-3.105c-0.116-0.324-0.264-0.621-0.438-0.884-0.234-0.354-0.504-0.648-0.785-0.894l5.532-1.542 0.983 0.887c-0.067 0.035-0.135 0.072-0.202 0.112zM13.851 29.507h4.314v-1.288h-4.314v1.288z"></path>
</svg>
