<?xml version="1.0" encoding="utf-8"?>
<!-- Generated by IcoMoon.io -->
<!DOCTYPE svg PUBLIC "-//W3C//DTD SVG 1.1//EN" "http://www.w3.org/Graphics/SVG/1.1/DTD/svg11.dtd">
<svg version="1.1" xmlns="http://www.w3.org/2000/svg" xmlns:xlink="http://www.w3.org/1999/xlink" width="32" height="32" viewBox="0 0 32 32">
<path fill="#444444" d="M14.592 16.815l2.261-2.26-6.894-6.894 3.46-3.461h-9.181v9.184l3.46-3.463 6.894 6.894zM16.018 4.22v3.197c2.371 0 4.503 0.957 6.058 2.51 1.551 1.553 2.506 3.685 2.508 6.056v0c-0.002 2.369-0.957 4.501-2.508 6.056-1.555 1.551-3.687 2.506-6.058 2.509-0.002 0-0.008 0-0.010 0.001-2.367-0.006-4.492-0.961-6.046-2.51-1.551-1.555-2.508-3.687-2.508-6.056h-3.199c0.002 6.495 5.267 11.759 11.762 11.759l1.598-0.107c5.729-0.776 10.146-5.68 10.164-11.615 0-0.012 0.002-0.027 0.002-0.037-0.002-6.497-5.267-11.763-11.764-11.763z"></path>
</svg>
