<?xml version="1.0" encoding="utf-8"?>
<!-- Generated by IcoMoon.io -->
<!DOCTYPE svg PUBLIC "-//W3C//DTD SVG 1.1//EN" "http://www.w3.org/Graphics/SVG/1.1/DTD/svg11.dtd">
<svg version="1.1" xmlns="http://www.w3.org/2000/svg" xmlns:xlink="http://www.w3.org/1999/xlink" width="32" height="32" viewBox="0 0 32 32">
<path fill="#444444" d="M20.291 10.798l0.001 0.002c-0.005-0.007-0.009-0.013-0.015-0.020-0.263-0.364-0.524-0.715-0.779-1.048-0.337-0.564-0.515-1.25-0.101-2.241v-0.001l1.423-3.407-2.236-1.019 0.231-1.010h-5.616l0.294 1.287-2.299 0.742 1.422 3.407c0.703 1.684-0.304 2.488-0.895 3.308-2.928 4.050-6.207 9.848-6.207 13.343 0 5.796 4.503 5.603 10.492 5.603 5.992 0 10.493 0.193 10.493-5.603-0-3.496-3.282-9.294-6.208-13.345zM14.596 7.954h2.866v1.808h-2.866v-1.808zM18.639 18.454l-0.423 0.984h-3.063l-0.014 0.574h2.913l-0.424 0.984h-2.379c0.292 1.441 0.967 2.16 2.023 2.16 0.683 0 1.386-0.287 2.105-0.861l-0.014 2.065c-0.61 0.355-1.311 0.532-2.104 0.532-1.148 0-2.074-0.368-2.777-1.107-0.637-0.665-1.052-1.595-1.244-2.79h-1.052l0.423-0.984h0.547v-0.355c0-0.128 0.005-0.201 0.014-0.219h-0.998l0.424-0.984h0.697c0.22-1.103 0.67-1.973 1.354-2.611 0.72-0.692 1.622-1.039 2.706-1.039 0.765 0 1.594 0.227 2.489 0.683l-0.835 1.709c-0.639-0.41-1.234-0.615-1.791-0.615-0.955 0-1.594 0.624-1.914 1.873h3.337z"></path>
</svg>
