<?xml version="1.0" encoding="utf-8"?>
<!-- Generated by IcoMoon.io -->
<!DOCTYPE svg PUBLIC "-//W3C//DTD SVG 1.1//EN" "http://www.w3.org/Graphics/SVG/1.1/DTD/svg11.dtd">
<svg version="1.1" xmlns="http://www.w3.org/2000/svg" xmlns:xlink="http://www.w3.org/1999/xlink" width="32" height="32" viewBox="0 0 32 32">
<path fill="#444444" d="M27.16 6.726l2.181-2.181-2.023-2.023-2.181 2.181-2.283-2.283v6.624h6.624l-2.317-2.318zM29.478 22.933h-6.624v6.624l2.318-2.317 2.181 2.181 2.023-2.023-2.181-2.181 2.283-2.283zM4.574 25.25l-2.181 2.181 2.023 2.023 2.181-2.181 2.284 2.284v-6.624h-6.624l2.317 2.317zM8.881 9.043v-6.624l-2.317 2.317-2.182-2.181-2.023 2.023 2.181 2.182-2.284 2.283h6.624zM24.15 18.78v-5.433c0-2.25-1.824-4.073-4.073-4.073h-8.482c-2.249 0-4.073 1.823-4.073 4.073v5.433c0 2.249 1.824 4.073 4.073 4.073h8.482c2.25 0 4.073-1.823 4.073-4.073z"></path>
</svg>
