<?xml version="1.0" encoding="utf-8"?>
<!-- Generated by IcoMoon.io -->
<!DOCTYPE svg PUBLIC "-//W3C//DTD SVG 1.1//EN" "http://www.w3.org/Graphics/SVG/1.1/DTD/svg11.dtd">
<svg version="1.1" xmlns="http://www.w3.org/2000/svg" xmlns:xlink="http://www.w3.org/1999/xlink" width="32" height="32" viewBox="0 0 32 32">
<path fill="#444444" d="M15.929 13.4c-1.394 0-2.528 1.134-2.528 2.527 0 1.395 1.134 2.53 2.528 2.53s2.53-1.135 2.53-2.53c0-1.393-1.135-2.527-2.53-2.527zM15.929 8.716c-6.705 0-13.457 7.29-13.457 7.29s6.752 7.29 13.457 7.29c6.706 0 13.458-7.29 13.458-7.29s-6.752-7.29-13.458-7.29zM15.929 21.088c-2.849 0-5.159-2.308-5.159-5.161 0-2.849 2.31-5.158 5.159-5.158 2.851 0 5.161 2.309 5.161 5.158 0 2.853-2.31 5.161-5.161 5.161z"></path>
</svg>
