<?xml version="1.0" encoding="utf-8"?>
<!-- Generated by IcoMoon.io -->
<!DOCTYPE svg PUBLIC "-//W3C//DTD SVG 1.1//EN" "http://www.w3.org/Graphics/SVG/1.1/DTD/svg11.dtd">
<svg version="1.1" xmlns="http://www.w3.org/2000/svg" xmlns:xlink="http://www.w3.org/1999/xlink" width="32" height="32" viewBox="0 0 32 32">
<path fill="#444444" d="M25.968 13.455l-1.394-0.839c-0.23-0.139-0.495-0.212-0.763-0.212h-2.195v-2.291l0.254-0.765c0.050-0.15 0.076-0.309 0.076-0.467v-1.528c0-0.817-0.663-1.48-1.48-1.48h-1.77c-0.567 0-1.085 0.324-1.332 0.835-0.020 0.042-2.062 4.258-3.014 6.325-0.441 0.958-1.931 1.403-2.616 1.536-0.079-0.324-0.369-0.565-0.717-0.565h-4.963c-0.408 0-0.74 0.331-0.74 0.74v2.549h6.442v-1.228c0.525-0.079 3.081-0.552 3.938-2.413 0.957-2.078 3.002-6.299 3.002-6.299h1.77v1.528l-0.33 0.992v4.011h3.675l1.393 0.839v8.373l-1.892 1.552h-6.349l-1.952-1.478h-3.254v-4.398h-6.442v5.641c0 0.409 0.331 0.74 0.74 0.74h4.963c0.325 0 0.598-0.211 0.697-0.502h2.799l1.556 1.178c0.257 0.195 0.571 0.3 0.893 0.3h6.349c0.342 0 0.674-0.119 0.939-0.336l1.892-1.552c0.343-0.281 0.541-0.701 0.541-1.144v-8.373c0-0.519-0.272-1-0.716-1.268z"></path>
</svg>
