<?xml version="1.0" encoding="utf-8"?>
<!-- Generated by IcoMoon.io -->
<!DOCTYPE svg PUBLIC "-//W3C//DTD SVG 1.1//EN" "http://www.w3.org/Graphics/SVG/1.1/DTD/svg11.dtd">
<svg version="1.1" xmlns="http://www.w3.org/2000/svg" xmlns:xlink="http://www.w3.org/1999/xlink" width="32" height="32" viewBox="0 0 32 32">
<path fill="#444444" d="M25.376 6.267v11.314l-5.861-3.129v3.8l-8.251-3.8v4.106l-8.916-4.106v15.17h27.163v-23.355h-4.135zM23.946 3.891c0.85-0.002 1.586 0.365 2.122 0.762 0.267 0.197 0.479 0.396 0.619 0.542 0.070 0.073 0.123 0.133 0.156 0.171 0.017 0.019 0.028 0.034 0.035 0.042 0.002 0.002 0.003 0.004 0.005 0.005l-0 0 0.002 0.001 0.161-0.126 1.079-0.827c-0.030-0.038-0.421-0.546-1.127-1.068-0.703-0.518-1.746-1.065-3.051-1.067-1.307-0.006-2.796 0.577-4.268 2.059l1.107 1.107c1.271-1.263 2.313-1.595 3.161-1.6zM12.266 7.69c0.703 0.518 1.746 1.066 3.051 1.067h0.018c1.303 0 2.785-0.584 4.25-2.058l-1.106-1.107c-1.273 1.263-2.314 1.595-3.162 1.6-0.849 0.002-1.585-0.365-2.122-0.762-0.266-0.197-0.478-0.396-0.618-0.542-0.070-0.073-0.123-0.133-0.156-0.172-0.017-0.019-0.028-0.033-0.035-0.042-0.002-0.003-0.004-0.004-0.004-0.006l-1.242 0.953c0.030 0.038 0.421 0.546 1.127 1.068zM12.38 5.667l-0.178 0.139 0.18-0.137c-0.001-0-0.002-0.002-0.002-0.002zM7.064 3.891c0.85-0.002 1.585 0.365 2.122 0.762 0.267 0.197 0.479 0.396 0.619 0.542 0.070 0.073 0.123 0.132 0.156 0.171 0.017 0.019 0.028 0.034 0.035 0.042 0.003 0.003 0.004 0.004 0.005 0.006l1.242-0.952c-0.030-0.038-0.421-0.546-1.127-1.068-0.703-0.518-1.746-1.066-3.051-1.068-1.306-0.005-2.797 0.577-4.268 2.059l1.107 1.106c1.272-1.263 2.313-1.595 3.161-1.6zM10.18 5.277l-0.18 0.138 0.002 0.002 0.178-0.14z"></path>
</svg>
