<?xml version="1.0" encoding="utf-8"?>
<!-- Generated by IcoMoon.io -->
<!DOCTYPE svg PUBLIC "-//W3C//DTD SVG 1.1//EN" "http://www.w3.org/Graphics/SVG/1.1/DTD/svg11.dtd">
<svg version="1.1" xmlns="http://www.w3.org/2000/svg" xmlns:xlink="http://www.w3.org/1999/xlink" width="32" height="32" viewBox="0 0 32 32">
<path fill="#444444" d="M24.407 11.524c0-4.64-3.759-8.399-8.399-8.4-4.639 0.001-8.398 3.76-8.4 8.4 0.002 4.092 2.928 7.497 6.802 8.245v2.145h-3.742v3.197h3.742v3.742h3.196v-3.742h3.744v-3.197h-3.744v-2.145c3.875-0.747 6.802-4.153 6.802-8.245zM10.805 11.524c0.001-1.443 0.579-2.733 1.524-3.681 0.946-0.943 2.237-1.523 3.679-1.523s2.734 0.579 3.678 1.523c0.946 0.947 1.524 2.238 1.525 3.681-0.001 1.441-0.578 2.731-1.525 3.679-0.944 0.944-2.236 1.522-3.678 1.523-1.442-0.001-2.733-0.579-3.679-1.523-0.944-0.948-1.523-2.238-1.524-3.679z"></path>
</svg>
