<?xml version="1.0" encoding="utf-8"?>
<!-- Generated by IcoMoon.io -->
<!DOCTYPE svg PUBLIC "-//W3C//DTD SVG 1.1//EN" "http://www.w3.org/Graphics/SVG/1.1/DTD/svg11.dtd">
<svg version="1.1" xmlns="http://www.w3.org/2000/svg" xmlns:xlink="http://www.w3.org/1999/xlink" width="32" height="32" viewBox="0 0 32 32">
<path fill="#444444" d="M6.116 3.095v25.809h19.768v-25.809h-19.768zM24.065 27.086h-16.13v-22.171h16.13v22.171z"></path>
<path fill="#444444" d="M9.488 25.521h13.023v-8.616h-13.023v8.616zM12.571 19.7c0-0.409 0.331-0.74 0.74-0.74s0.74 0.331 0.74 0.74v0.444h4.333v-0.444c0-0.409 0.331-0.74 0.74-0.74s0.74 0.331 0.74 0.74v1.184c0 0.409-0.331 0.74-0.74 0.74h-5.813c-0.409 0-0.74-0.331-0.74-0.74v-1.184zM9.488 6.479v8.798h13.023v-8.798h-13.023zM19.864 10.426c0 0.409-0.331 0.74-0.74 0.74h-5.813c-0.409 0-0.74-0.331-0.74-0.74v-1.184c0-0.409 0.331-0.74 0.74-0.74s0.74 0.331 0.74 0.74v0.444h4.333v-0.444c0-0.409 0.331-0.74 0.74-0.74s0.74 0.331 0.74 0.74v1.184z"></path>
</svg>
