<?xml version="1.0" encoding="utf-8"?>
<!-- Generated by IcoMoon.io -->
<!DOCTYPE svg PUBLIC "-//W3C//DTD SVG 1.1//EN" "http://www.w3.org/Graphics/SVG/1.1/DTD/svg11.dtd">
<svg version="1.1" xmlns="http://www.w3.org/2000/svg" xmlns:xlink="http://www.w3.org/1999/xlink" width="32" height="32" viewBox="0 0 32 32">
<path fill="#444444" d="M11.17 14.528h9.661l-0.268-2.472h-9.126z"></path>
<path fill="#444444" d="M11.915 7.642l-0.277 2.561h8.724l-0.277-2.561z"></path>
<path fill="#444444" d="M10.705 18.821h10.591l-0.264-2.439h-10.063z"></path>
<path fill="#444444" d="M5.963 20.915l1.396 7.13h17.283l1.396-7.13h-20.074zM19.008 25.025h-6.016v-2.266h6.016v2.266z"></path>
<path fill="#444444" d="M10.251 5.809h11.498l1.409 13.013h1.865l-1.43-13.212c-0.102-0.941-0.896-1.654-1.843-1.654h-11.498c-0.947 0-1.741 0.713-1.843 1.654l-1.431 13.212h1.865l1.409-13.013z"></path>
</svg>
