<?xml version="1.0" encoding="utf-8"?>
<!-- Generated by IcoMoon.io -->
<!DOCTYPE svg PUBLIC "-//W3C//DTD SVG 1.1//EN" "http://www.w3.org/Graphics/SVG/1.1/DTD/svg11.dtd">
<svg version="1.1" xmlns="http://www.w3.org/2000/svg" xmlns:xlink="http://www.w3.org/1999/xlink" width="32" height="32" viewBox="0 0 32 32">
<path fill="#444444" d="M12.969 6.063c1.376 0 3.284 0.139 5.277 0.701 1.917 0.538 3.906 1.457 5.605 2.996 0.892 0.809 1.708 1.792 2.399 2.991l0.437-0.123c-0.022-0.699-0.095-1.384-0.218-2.048l-0.011-0.055-0.034-0.045c-0.506-0.656-1.053-1.242-1.628-1.762-1.901-1.722-4.098-2.729-6.171-3.31-1.745-0.489-3.403-0.679-4.752-0.732l-0.075-0.004-0.061 0.039c-0.441 0.284-0.877 0.599-1.304 0.94l-0.536 0.431 0.687-0.014c0.123-0.002 0.25-0.004 0.384-0.004zM7.434 16.243c0.317 0 0.64-0.025 0.962-0.080l-0.040-0.229 0.041 0.229c0.607-0.107 1.222-0.339 1.747-0.775 0.528-0.435 0.937-1.064 1.162-1.87 0.072-0.256 0.127-0.531 0.162-0.826 0.035-0.291 0.089-0.553 0.155-0.792 0.234-0.823 0.619-1.351 1.077-1.737 0.681-0.57 1.582-0.803 2.327-0.871 0.205-0.019 0.398-0.025 0.568-0.025 0.136 0 0.259 0.004 0.361 0.010 0.116 0.006 0.208 0.017 0.266 0.023 0.031 0.004 0.053 0.006 0.062 0.008 0.006 0 0.011 0.002 0.015 0.002 0.043 0.006 0.078 0.008 0.113 0.008 0.34 0 0.638-0.245 0.694-0.591 0.006-0.039 0.009-0.077 0.009-0.113 0-0.34-0.246-0.639-0.592-0.694-0.014-0.002-0.392-0.061-0.928-0.061-0.459 0-1.049 0.041-1.682 0.193-0.695 0.167-1.447 0.473-2.115 1.029-0.668 0.554-1.231 1.359-1.531 2.438-0.088 0.312-0.154 0.646-0.198 1.003-0.027 0.23-0.069 0.434-0.121 0.618-0.162 0.57-0.407 0.914-0.704 1.164-0.436 0.367-1.065 0.527-1.764 0.53h-0.044c-0.348 0-0.707-0.039-1.046-0.096l-0.2-0.035-0.061 0.194c-0.1 0.308-0.188 0.615-0.27 0.92l-0.063 0.243 0.247 0.047c0.431 0.078 0.904 0.135 1.392 0.135zM6.818 14.003c0.742-0.059 1.36-0.376 1.789-0.832 0.428-0.45 0.677-1.002 0.83-1.546 0.188-0.673 0.238-1.358 0.238-1.937 0-0.12-0.003-0.235-0.005-0.343-0.003-0.089-0.008-0.172-0.012-0.25l-0.018-0.294 0.395-0.143c0.661-0.241 1.379-0.446 2.141-0.578 0.341-0.061 0.582-0.358 0.582-0.693 0-0.041-0.004-0.082-0.011-0.121l-0.23 0.039 0.23-0.041c-0.060-0.342-0.357-0.583-0.694-0.583-0.039 0-0.080 0.003-0.125 0.011-0.272 0.048-0.541 0.105-0.803 0.169l-0.066 0.014-0.045 0.047c-0.428 0.427-0.843 0.884-1.241 1.367l-0.153 0.186-0.001-0.014-0.124 0.163-0.27 0.327 0.032-0.010-0.021 0.026c-0.342 0.452-0.669 0.924-0.978 1.414l-0.028 0.045-0.006 0.055c-0.030 0.261-0.076 0.521-0.143 0.76-0.149 0.538-0.394 0.938-0.724 1.147-0.057 0.035-0.123 0.068-0.197 0.099l-0.084 0.035-0.038 0.082c-0.17 0.359-0.329 0.718-0.474 1.078l-0.14 0.349 0.376-0.031c-0 0 0.003 0 0.016 0zM18.1 3.892c0.682 0.163 1.361 0.382 1.959 0.656v0c0.094 0.045 0.195 0.064 0.294 0.064 0.266 0 0.521-0.152 0.639-0.409 0.044-0.095 0.065-0.196 0.065-0.294 0-0.267-0.152-0.521-0.409-0.64-0.166-0.075-0.332-0.145-0.5-0.212l-0.022-0.008-0.025-0.003c-0.357-0.061-0.719-0.091-1.087-0.091-0.648 0-1.309 0.092-1.975 0.263l0.019 0.457c0.341 0.060 0.691 0.132 1.042 0.218zM7.094 23.977c2.962 0 5.106-0.617 6.644-1.563 1.97-1.208 2.882-2.929 3.268-4.326 0.252-0.905 0.3-1.68 0.3-2.148 0-0.273-0.018-0.456-0.018-0.46v-0.012c-0.039-0.362-0.343-0.629-0.701-0.629-0.023 0-0.049 0.002-0.084 0.006-0.352 0.039-0.62 0.343-0.62 0.699 0 0.018 0.001 0.039 0.003 0.061v0.002l0.002 0.012c0 0.004 0.011 0.125 0.011 0.315 0 0.369-0.040 1.026-0.249 1.774-0.33 1.157-1.031 2.508-2.65 3.506-1.267 0.782-3.139 1.356-5.908 1.356-0.366 0-0.747-0.010-1.145-0.031l-0.319-0.017 0.081 0.309c0.088 0.337 0.192 0.662 0.309 0.977l0.055 0.145 0.155 0.006c0.295 0.012 0.583 0.016 0.863 0.016h0.003zM21.686 5.233v0 0c0 0 0.002 0 0.006 0.002l0.015 0.006c0.004 0.001 0.009 0.004 0.013 0.006 0.2 0.086 1.184 0.522 2.263 1.23 0.206 0.137 0.417 0.282 0.627 0.435l0.335-0.313c-0.621-0.979-1.406-1.828-2.342-2.496l-0.018-0.012-0.020-0.009c-0.205-0.096-0.336-0.15-0.336-0.15-0.093-0.039-0.185-0.057-0.274-0.057-0.277 0-0.54 0.166-0.651 0.437-0.037 0.086-0.054 0.178-0.054 0.268 0 0.276 0.164 0.538 0.435 0.652zM22.868 19.576c-0.562-2.394-1.369-3.912-1.388-3.947l-0.206 0.107 0.206-0.109c-0.128-0.237-0.371-0.373-0.622-0.373-0.111 0-0.226 0.026-0.332 0.085-0.236 0.126-0.372 0.37-0.372 0.621 0 0.111 0.027 0.225 0.083 0.329l0.006 0.012 0.003 0.004c0.087 0.168 0.815 1.622 1.3 3.803 0.253 1.139 0.439 2.473 0.442 3.929l0.001 0.633 0.41-0.48c0.319-0.374 0.622-0.762 0.915-1.165l0.049-0.066-0.005-0.085c-0.077-1.216-0.262-2.33-0.49-3.299zM23.474 14.526c-1.608-2.505-3.814-3.496-5.212-3.885-0.355-0.099-0.658-0.162-0.889-0.202-0.117-0.020-0.214-0.035-0.287-0.043-0.036-0.006-0.067-0.010-0.092-0.015-0.012-0.002-0.020-0.004-0.028-0.004s-0.006 0-0.006 0v0c-0.479-0.087-0.908-0.129-1.301-0.129-0.442 0-0.843 0.053-1.206 0.159-0.605 0.176-1.091 0.509-1.45 0.922-0.62 0.722-0.885 1.602-1.148 2.439-0.195 0.631-0.382 1.251-0.645 1.784-0.197 0.405-0.432 0.758-0.74 1.058-0.462 0.447-1.090 0.798-2.133 0.97-0.373 0.058-0.797 0.093-1.28 0.093-0.406 0-0.85-0.024-1.339-0.074l-0.225-0.023-0.031 0.223c-0.043 0.319-0.077 0.636-0.1 0.948l-0.016 0.227 0.227 0.023c0.531 0.054 1.024 0.081 1.482 0.081 1.384 0 2.459-0.241 3.31-0.679 1.093-0.563 1.744-1.443 2.156-2.327 0.31-0.662 0.506-1.334 0.694-1.94 0.141-0.454 0.278-0.872 0.435-1.215 0.12-0.257 0.249-0.473 0.395-0.644 0.226-0.258 0.461-0.425 0.867-0.534 0.2-0.052 0.446-0.085 0.744-0.085 0.296 0 0.643 0.031 1.049 0.105 0.059 0.009 0.11 0.017 0.177 0.026 0.201 0.029 0.548 0.084 0.996 0.208 1.192 0.337 3.029 1.15 4.409 3.292 0.852 1.329 1.544 3.2 1.755 5.844l0.060 0.758 0.376-0.661c0.288-0.508 0.547-1.022 0.778-1.541l0.028-0.062-0.010-0.070c-0.333-2.114-0.985-3.759-1.802-5.030zM21.022 20.325c-0.004-0.038-0.008-0.070-0.010-0.090 0-0.010-0.002-0.018-0.003-0.022v-0.004l-0.002-0.013c-0.048-0.353-0.349-0.61-0.697-0.61-0.029 0-0.060 0.001-0.095 0.007v-0.001c-0.354 0.048-0.61 0.35-0.61 0.698 0.001 0.029 0.001 0.061 0.007 0.097 0 0 0 0.004 0.001 0.015 0.015 0.116 0.075 0.659 0.075 1.443 0 0.982-0.093 2.352-0.482 3.733-0.124 0.439-0.278 0.881-0.464 1.312l-0.316 0.728 0.659-0.44c0.475-0.317 0.938-0.666 1.386-1.049l0.054-0.046 0.020-0.067c0.004-0.017 0.009-0.036 0.014-0.055 0.434-1.553 0.537-3.037 0.537-4.11 0-0.495-0.021-0.903-0.043-1.189-0.011-0.142-0.022-0.255-0.031-0.335zM19.319 8.321v0c-0.090-0.039-0.185-0.058-0.278-0.058-0.273-0.001-0.534 0.159-0.648 0.426-0.039 0.089-0.057 0.184-0.057 0.278 0 0.272 0.159 0.532 0.426 0.648l0.067 0.029c2.493 1.090 4.239 2.673 5.5 4.531 0.585 0.864 1.063 1.791 1.451 2.751l0.27 0.667 0.174-0.698c0.135-0.543 0.239-1.083 0.316-1.623l0.011-0.072-0.033-0.065c-1.402-2.798-3.665-5.297-7.199-6.814zM18.639 23.239c0-0.337-0.243-0.635-0.587-0.693v0c-0.039-0.006-0.080-0.010-0.12-0.010-0.337 0-0.634 0.243-0.692 0.586-0.085 0.493-0.168 1.028-0.319 1.572-0.18 0.631-0.448 1.274-0.918 1.893-0.554 0.719-1.396 1.423-2.776 2.003l0.088 0.45c0.041 0 0.082 0 0.123 0 0.803 0 1.598-0.114 2.377-0.331l0.045-0.012 0.037-0.029c0.493-0.386 0.898-0.799 1.224-1.226 0.605-0.791 0.944-1.617 1.155-2.367 0.18-0.646 0.27-1.24 0.351-1.715 0.007-0.041 0.010-0.082 0.010-0.12zM15.603 25.941c0.105-0.129 0.156-0.288 0.156-0.443 0-0.203-0.091-0.41-0.262-0.548-0.131-0.104-0.287-0.156-0.443-0.156-0.204 0-0.41 0.090-0.549 0.263-0.392 0.482-0.8 0.849-1.38 1.159-0.86 0.462-2.152 0.786-4.257 0.91l-0.641 0.037 0.516 0.384c0.456 0.335 0.954 0.618 1.49 0.844l0.057 0.024 0.062-0.007c0.199-0.023 0.393-0.050 0.579-0.080 1.178-0.184 2.098-0.468 2.855-0.869s1.337-0.924 1.814-1.518zM19.395 18.342l-0.225-0.063 0.225 0.062c0.152-0.545 0.253-1.111 0.295-1.691 0.015-0.216 0.023-0.423 0.023-0.624 0-0.884-0.152-1.614-0.446-2.204-0.36-0.728-0.956-1.22-1.632-1.404-0.233-0.065-0.471-0.096-0.708-0.096-0.645 0-1.28 0.225-1.829 0.597-0.754 0.511-1.377 1.319-1.662 2.33-0.105 0.376-0.163 0.781-0.163 1.202 0 0.074 0.002 0.149 0.005 0.227 0.003 0.061 0.005 0.125 0.005 0.188 0 0.319-0.041 0.599-0.11 0.846-0.117 0.416-0.313 0.744-0.588 1.036-0.474 0.506-1.215 0.881-2.088 1.12-1.048 0.29-2.266 0.382-3.341 0.382-0.266 0-0.524-0.006-0.767-0.014-0.284-0.012-0.55-0.027-0.791-0.047l-0.266-0.019 0.014 0.265c0.016 0.328 0.045 0.651 0.087 0.968l0.023 0.19 0.192 0.014c0.444 0.029 0.957 0.051 1.508 0.051 0.468 0 0.965-0.017 1.471-0.057 1.188-0.099 2.435-0.327 3.519-0.847 0.542-0.261 1.043-0.598 1.46-1.039 0.419-0.44 0.744-0.985 0.922-1.623 0.106-0.38 0.162-0.791 0.162-1.228 0-0.084-0.002-0.17-0.006-0.256-0.002-0.053-0.004-0.105-0.004-0.157 0-0.294 0.040-0.566 0.11-0.82 0.19-0.681 0.613-1.22 1.094-1.545 0.355-0.241 0.729-0.357 1.047-0.356 0.116 0 0.224 0.014 0.322 0.043 0.294 0.090 0.533 0.257 0.752 0.679 0.172 0.339 0.299 0.858 0.299 1.58 0 0.161-0.007 0.333-0.020 0.515-0.037 0.488-0.121 0.959-0.249 1.415-0.661 2.369-2.536 4.348-5.090 5.571-1.737 0.832-3.78 1.302-5.922 1.302-0.052 0-0.104 0-0.157 0l-0.408-0.002 0.203 0.352c0.194 0.337 0.409 0.66 0.646 0.962l0.072 0.093 0.119-0.005c2.176-0.061 4.249-0.568 6.057-1.431 2.836-1.356 5.038-3.616 5.838-6.46z"></path>
</svg>
