<?xml version="1.0" encoding="utf-8"?>
<!-- Generated by IcoMoon.io -->
<!DOCTYPE svg PUBLIC "-//W3C//DTD SVG 1.1//EN" "http://www.w3.org/Graphics/SVG/1.1/DTD/svg11.dtd">
<svg version="1.1" xmlns="http://www.w3.org/2000/svg" xmlns:xlink="http://www.w3.org/1999/xlink" width="32" height="32" viewBox="0 0 32 32">
<path fill="#444444" d="M18.019 4.084c0 0-9.739 3.646-9.739 13.814 0 6.989 3.121 9.174 5.677 9.857-0.668-0.314-1.306-1.010-1.306-2.558 0-2.849 2.802-3.871 2.802-3.871-0.73 1.531-0.073 2.087 0.614 2.716 0.915-1.166 1.213-2.286 0.223-4.978 0 0 4.401 1.868 3.491 6.246-0.292 1.405-1.113 2.179-2.004 2.606 2.251-0.569 5.941-2.801 5.941-7.282 0-8.069-10.104-7.076-5.7-16.55z"></path>
<path fill="#444444" d="M19.704 7.864c0.178 1.254 0.063 2.111-0.226 2.748 0.453 0.59 1.054 1.155 1.711 1.771 0.408 0.384 0.838 0.787 1.261 1.227-0.056-3.7-2.746-5.747-2.746-5.747z"></path>
</svg>
