<?xml version="1.0" encoding="utf-8"?>
<!-- Generated by IcoMoon.io -->
<!DOCTYPE svg PUBLIC "-//W3C//DTD SVG 1.1//EN" "http://www.w3.org/Graphics/SVG/1.1/DTD/svg11.dtd">
<svg version="1.1" xmlns="http://www.w3.org/2000/svg" xmlns:xlink="http://www.w3.org/1999/xlink" width="32" height="32" viewBox="0 0 32 32">
<path fill="#444444" d="M15.907 10.698c-2.547 0-4.611 2.057-4.611 4.596s2.064 4.596 4.611 4.596c2.547 0 4.611-2.058 4.611-4.596s-2.064-4.596-4.611-4.596zM15.907 17.868c-1.426 0-2.582-1.153-2.582-2.574s1.156-2.574 2.582-2.574c1.426 0 2.582 1.153 2.582 2.574s-1.157 2.574-2.582 2.574zM12.864 23.935v-2.023h6.086v2.023h-6.086zM12.864 27.98v-2.023h6.086v2.023h-6.086zM11.929 7.040l1.435 1.429-4.304 4.29-1.434-1.43 4.303-4.289zM9.060 4.204l1.435 1.406-4.304 4.314-1.435-1.43 4.303-4.29zM23.435 4.020l3.758 3.77-4.724 4.662-3.758-3.723 4.724-4.709z"></path>
</svg>
