<?xml version="1.0" encoding="utf-8"?>
<!-- Generated by IcoMoon.io -->
<!DOCTYPE svg PUBLIC "-//W3C//DTD SVG 1.1//EN" "http://www.w3.org/Graphics/SVG/1.1/DTD/svg11.dtd">
<svg version="1.1" xmlns="http://www.w3.org/2000/svg" xmlns:xlink="http://www.w3.org/1999/xlink" width="32" height="32" viewBox="0 0 32 32">
<path fill="#444444" d="M19.321 10.48h3.682v-3.3h-8.844v3.3h3.682z"></path>
<path fill="#444444" d="M12.679 11.96h-3.682v3.3h8.844v-3.3h-3.682z"></path>
<path fill="#444444" d="M3.835 10.48h8.844v-3.3h-8.844z"></path>
<path fill="#444444" d="M8.997 20.040h3.682v-3.3h-8.844v3.3h3.682z"></path>
<path fill="#444444" d="M3.835 21.52h3.682v3.3h-3.682v-3.3z"></path>
<path fill="#444444" d="M3.835 11.96h3.682v3.3h-3.682v-3.3z"></path>
<path fill="#444444" d="M24.483 7.18h3.682v3.3h-3.682v-3.3z"></path>
<path fill="#444444" d="M24.483 16.74h3.682v3.3h-3.682v-3.3z"></path>
<path fill="#444444" d="M17.841 21.52h-8.844v3.3h8.844z"></path>
<path fill="#444444" d="M28.165 11.96h-8.844v3.3h8.844z"></path>
<path fill="#444444" d="M19.321 20.040h3.682v-3.3h-8.844v3.3h3.682z"></path>
<path fill="#444444" d="M28.165 21.52h-8.844v3.3h8.844z"></path>
</svg>
