<?xml version="1.0" encoding="utf-8"?>
<!-- Generated by IcoMoon.io -->
<!DOCTYPE svg PUBLIC "-//W3C//DTD SVG 1.1//EN" "http://www.w3.org/Graphics/SVG/1.1/DTD/svg11.dtd">
<svg version="1.1" xmlns="http://www.w3.org/2000/svg" xmlns:xlink="http://www.w3.org/1999/xlink" width="32" height="32" viewBox="0 0 32 32">
<path fill="#444444" d="M24.628 7.37c-1.453-1.453-3.196-2.32-4.662-2.32-0.801 0-1.486 0.261-1.98 0.756-0.248 0.248-0.435 0.54-0.561 0.866l-2.42 5.4-8.937 8.937c-1.36 1.36-1.36 3.564 0 4.923 0.68 0.68 1.571 1.020 2.462 1.020s1.782-0.34 2.462-1.020l8.937-8.937 5.466-2.45c0.012-0.005 0.025-0.012 0.038-0.018 0.286-0.125 0.543-0.295 0.762-0.513 1.448-1.448 0.775-4.303-1.564-6.643zM19.966 7.039c0.7 0 1.973 0.455 3.256 1.738 1.621 1.621 2.015 3.378 1.564 3.829-0.143 0.143-0.391 0.173-0.574 0.173h-0c-0.7 0-1.973-0.455-3.255-1.738-0.782-0.782-1.371-1.702-1.617-2.523-0.178-0.595-0.158-1.096 0.053-1.306 0.143-0.143 0.391-0.173 0.574-0.173z"></path>
</svg>
