<?xml version="1.0" encoding="utf-8"?>
<!-- Generated by IcoMoon.io -->
<!DOCTYPE svg PUBLIC "-//W3C//DTD SVG 1.1//EN" "http://www.w3.org/Graphics/SVG/1.1/DTD/svg11.dtd">
<svg version="1.1" xmlns="http://www.w3.org/2000/svg" xmlns:xlink="http://www.w3.org/1999/xlink" width="32" height="32" viewBox="0 0 32 32">
<path fill="#444444" d="M22.589 8.519c-2.655 0.001-4.97 1.448-6.203 3.596-1.233-2.148-3.548-3.596-6.203-3.596-3.949 0.001-7.149 3.201-7.15 7.15s3.2 7.149 7.15 7.15c2.655-0.001 4.97-1.448 6.203-3.596 1.233 2.148 3.548 3.596 6.203 3.596 3.949-0.001 7.149-3.201 7.149-7.149s-3.201-7.149-7.149-7.15zM26.294 19.374c-0.951 0.95-2.255 1.534-3.705 1.535-1.45-0.001-2.754-0.585-3.705-1.535-0.95-0.952-1.535-2.256-1.535-3.705s0.585-2.754 1.535-3.705c0.951-0.95 2.255-1.535 3.705-1.535 1.45 0.001 2.754 0.585 3.705 1.535 0.95 0.951 1.534 2.255 1.535 3.705-0.001 1.45-0.585 2.754-1.535 3.705z"></path>
</svg>
