<?xml version="1.0" encoding="utf-8"?>
<!-- Generated by IcoMoon.io -->
<!DOCTYPE svg PUBLIC "-//W3C//DTD SVG 1.1//EN" "http://www.w3.org/Graphics/SVG/1.1/DTD/svg11.dtd">
<svg version="1.1" xmlns="http://www.w3.org/2000/svg" xmlns:xlink="http://www.w3.org/1999/xlink" width="32" height="32" viewBox="0 0 32 32">
<path fill="#444444" d="M16.256 10.832c1.423 0 2.577-1.154 2.577-2.577s-2.577-5.787-2.577-5.787-2.577 4.364-2.577 5.787c-0 1.423 1.153 2.577 2.577 2.577zM14.494 13.65c0.65-0.65 0.65-1.704 0-2.355-0.65-0.649-3.82-1.467-3.82-1.467s0.818 3.171 1.468 3.821c0.65 0.648 1.703 0.648 2.353 0zM18.006 13.65c0.65 0.648 1.704 0.648 2.354 0 0.65-0.65 1.465-3.821 1.465-3.821s-3.17 0.818-3.82 1.467c-0.65 0.651-0.65 1.705 0 2.355zM17 17.646v-5.999h-1.557v5.999h-6.544v3.903h14.172v-3.903h-6.070zM11.52 29.529h8.93l1.557-6.645h-12.046l1.559 6.645z"></path>
</svg>
