<?xml version="1.0" encoding="utf-8"?>
<!-- Generated by IcoMoon.io -->
<!DOCTYPE svg PUBLIC "-//W3C//DTD SVG 1.1//EN" "http://www.w3.org/Graphics/SVG/1.1/DTD/svg11.dtd">
<svg version="1.1" xmlns="http://www.w3.org/2000/svg" xmlns:xlink="http://www.w3.org/1999/xlink" width="32" height="32" viewBox="0 0 32 32">
<path fill="#444444" d="M28.576 10.594v-0.020l-25.29 0.021c-0.497 0.097-0.872 0.534-0.872 1.060 0 0 0.355 5.404 0.42 7.351s0.24 7.171 0.24 7.171c0 0.596 0.123 1.080 0.72 1.080h24.279c0.596 0 0.72-0.484 0.72-1.080 0 0 0.175-5.224 0.24-7.171s0.42-7.351 0.42-7.351c-0-0.527-0.377-0.965-0.876-1.060zM28.576 7.949c0-0.561-0.455-1.016-1.016-1.016h-12.853c-0.402-0.010-0.711-0.74-0.711-1.019l0-0.119c0-0.597-0.484-1.080-1.080-1.080h-6.842c-0.596 0-1.080 0.483-1.080 1.080l0 0.119c0 0.281-0.314 1.020-0.72 1.020h0.010c-0.553 0.010-0.998 0.46-0.998 1.015v0.701h25.29v-0.701z"></path>
</svg>
