<?xml version="1.0" encoding="utf-8"?>
<!-- Generated by IcoMoon.io -->
<!DOCTYPE svg PUBLIC "-//W3C//DTD SVG 1.1//EN" "http://www.w3.org/Graphics/SVG/1.1/DTD/svg11.dtd">
<svg version="1.1" xmlns="http://www.w3.org/2000/svg" xmlns:xlink="http://www.w3.org/1999/xlink" width="32" height="32" viewBox="0 0 32 32">
<path fill="#444444" d="M28.468 21.226c0.065-1.947 1.024-5.404 1.024-5.404 0-0.527-0.377-0.965-0.876-1.060v-6.829h-0c-0.002-0.56-0.456-1.013-1.016-1.013h-12.853c-0.402-0.010-0.711-0.74-0.711-1.019l0-0.119c0-0.596-0.483-1.080-1.080-1.080h-6.842c-0.596 0-1.080 0.484-1.080 1.080l0 0.119c0 0.281-0.314 1.020-0.72 1.020h0.010c-0.553 0.010-0.998 0.46-0.998 1.015l0 6.827c-0.497 0.097-0.873 0.534-0.873 1.060 0 0 0.916 3.496 0.982 5.442s-0.321 4.898-0.321 4.898c0 0.596 0.123 1.080 0.72 1.080h24.279c0.596 0 0.72-0.484 0.72-1.080-0 0-0.428-2.989-0.363-4.936zM4.577 14.742v-5.558h22.787v5.558h-22.787z"></path>
</svg>
