<?xml version="1.0" encoding="utf-8"?>
<!-- Generated by IcoMoon.io -->
<!DOCTYPE svg PUBLIC "-//W3C//DTD SVG 1.1//EN" "http://www.w3.org/Graphics/SVG/1.1/DTD/svg11.dtd">
<svg version="1.1" xmlns="http://www.w3.org/2000/svg" xmlns:xlink="http://www.w3.org/1999/xlink" width="32" height="32" viewBox="0 0 32 32">
<path fill="#444444" d="M28.214 6.236l-10.683 0c-0.309-0.008-0.548-0.57-0.548-0.785v-0.092c0-0.459-0.372-0.832-0.832-0.832h-5.27c-0.459 0-0.832 0.372-0.832 0.832l0 0.092c0 0.215-0.239 0.778-0.549 0.785h-0.767c-0.383 0.075-0.672 0.411-0.672 0.816 0 0 0.049 0.742 0.109 1.711 0.075-0.022 0.153-0.034 0.235-0.034h5.27c0.46 0 0.832 0.372 0.832 0.832v0.092c0 0.215 0.238 0.777 0.548 0.785l10.682-0c0.384 0.073 0.675 0.411 0.675 0.817 0 0-0.274 4.162-0.324 5.662-0.017 0.511-0.044 1.315-0.072 2.153h1.808c0.459 0 0.554-0.372 0.554-0.832 0 0 0.135-4.024 0.185-5.523s0.324-5.662 0.324-5.662c-0-0.406-0.291-0.743-0.675-0.817z"></path>
<path fill="#444444" d="M23.263 14.639l-10.683 0c-0.309-0.008-0.547-0.57-0.547-0.785v-0.092c0-0.459-0.373-0.832-0.832-0.832h-5.27c-0.459 0-0.832 0.373-0.832 0.832l0 0.092c0 0.215-0.239 0.778-0.549 0.785h-0.767c-0.383 0.075-0.672 0.411-0.672 0.816 0 0 0.274 4.162 0.324 5.662s0.185 5.523 0.185 5.523c0 0.459 0.095 0.832 0.554 0.832h18.7c0.459 0 0.554-0.372 0.554-0.832 0 0 0.135-4.023 0.185-5.523s0.324-5.662 0.324-5.662c0-0.406-0.291-0.743-0.675-0.817z"></path>
</svg>
