<?xml version="1.0" encoding="utf-8"?>
<!-- Generated by IcoMoon.io -->
<!DOCTYPE svg PUBLIC "-//W3C//DTD SVG 1.1//EN" "http://www.w3.org/Graphics/SVG/1.1/DTD/svg11.dtd">
<svg version="1.1" xmlns="http://www.w3.org/2000/svg" xmlns:xlink="http://www.w3.org/1999/xlink" width="32" height="32" viewBox="0 0 32 32">
<path fill="#444444" d="M28.185 10.615v-1.203c0-1.462-1.19-2.652-2.652-2.652h-9.451c-0.368-1.058-1.374-1.819-2.555-1.819h-5.61c-1.284 0-2.362 0.899-2.637 2.101-0.868 0.439-1.468 1.341-1.468 2.37v1.207c-0.447 0.486-0.715 1.133-0.715 1.83v0.060l0.004 0.060c0.003 0.044 0.29 4.42 0.342 5.968l0.196 5.851c0.002 0.377 0.043 0.924 0.329 1.456 0.41 0.761 1.188 1.215 2.080 1.215h19.906c0.892 0 1.67-0.454 2.080-1.215 0.287-0.532 0.327-1.080 0.329-1.456l0.196-5.851c0.052-1.549 0.339-5.924 0.342-5.968l0.004-0.060v-0.060c-0-0.7-0.27-1.348-0.719-1.834zM5.631 9.412c0-0.455 0.365-0.824 0.818-0.832h-0.008c0.333 0 0.59-0.606 0.59-0.836l-0-0.098c0-0.489 0.396-0.885 0.886-0.885h5.61c0.489 0 0.885 0.396 0.885 0.886v0.098c0 0.229 0.254 0.827 0.583 0.836h10.538c0.46 0 0.833 0.373 0.833 0.833v0.575h-20.735v-0.575zM26.74 18.476c-0.053 1.596-0.197 5.879-0.197 5.879 0 0.489-0.101 0.886-0.59 0.886h-19.906c-0.489 0-0.59-0.397-0.59-0.886 0 0-0.144-4.283-0.197-5.879s-0.345-6.027-0.345-6.027c0-0.431 0.308-0.789 0.715-0.869l20.735-0.001c0.409 0.078 0.718 0.437 0.718 0.869 0 0-0.291 4.431-0.345 6.027z"></path>
</svg>
