<?xml version="1.0" encoding="utf-8"?>
<!-- Generated by IcoMoon.io -->
<!DOCTYPE svg PUBLIC "-//W3C//DTD SVG 1.1//EN" "http://www.w3.org/Graphics/SVG/1.1/DTD/svg11.dtd">
<svg version="1.1" xmlns="http://www.w3.org/2000/svg" xmlns:xlink="http://www.w3.org/1999/xlink" width="32" height="32" viewBox="0 0 32 32">
<path fill="#808080" d="M29.283-1.831l-16.095-16.097-16.099 16.097 3.028 3.028 1.59-1.589v13.070h22.959v-13.071l1.59 1.59 3.028-3.028zM13.188-11.871l0-0 0.010 0.010-0.011-0.010z"></path>
<path fill="#fff" d="M8.682 26.231c-0.291 0.291-0.437 0.67-0.437 1.052s0.146 0.76 0.437 1.052c0.291 0.291 0.67 0.436 1.051 0.436 0.377 0 0.75-0.141 1.042-0.425l5.851-7.335-1.279-1.446-6.665 6.667zM27.277 9.184l-0.774-0.776-9.367 9.367 2.928 2.588c0.080-0.048 0.155-0.104 0.223-0.171l6.991-9.256c0.278-0.277 0.364-0.559 0.364-0.876 0-0.319-0.12-0.634-0.364-0.876zM15.634 17.16l0.752-0.752c0.4-0.4 0.305-1.146-0.216-1.668l-6.157-6.158-0.759 0.757 5.442 5.442-0.774 0.775-5.442-5.442-0.795 0.794 5.442 5.442-0.776 0.774-5.44-5.441-0.757 0.757 6.159 6.158c0.52 0.521 1.267 0.617 1.667 0.217l0.752-0.752 9.073 10.274c0.291 0.285 0.666 0.428 1.044 0.428 0.383 0 0.762-0.144 1.053-0.436 0.292-0.291 0.435-0.67 0.435-1.052 0-0.378-0.143-0.755-0.428-1.046l-10.274-9.074z"></path>
</svg>
