<?xml version="1.0" encoding="utf-8"?>
<!-- Generated by IcoMoon.io -->
<!DOCTYPE svg PUBLIC "-//W3C//DTD SVG 1.1//EN" "http://www.w3.org/Graphics/SVG/1.1/DTD/svg11.dtd">
<svg version="1.1" xmlns="http://www.w3.org/2000/svg" xmlns:xlink="http://www.w3.org/1999/xlink" width="32" height="32" viewBox="0 0 32 32">
<path fill="#444444" d="M13.888 14.045l4.721-3.566c1.681-1.681 3.151-5.802 1.983-6.97s-5.249 0.341-6.931 2.022l-3.566 4.721c-0.098 0.909 2.843 3.895 3.793 3.793z"></path>
<path fill="#444444" d="M8.096 12.233l-1.306 1.306c-1.295 1.295-0.772 2.813 0.127 3.712s2.388 1.392 3.682 0.097l1.306-1.306c0.579-0.578-3.231-4.388-3.81-3.81z"></path>
<path fill="#444444" d="M25.567 14.276c-1.168-1.168-5.249 0.341-6.931 2.022l-3.566 4.721c-0.098 0.909 2.843 3.895 3.793 3.793l4.72-3.566c1.681-1.681 3.151-5.802 1.983-6.97z"></path>
<path fill="#444444" d="M13.072 23l-1.306 1.306c-1.295 1.294-0.772 2.813 0.127 3.712s2.388 1.392 3.682 0.097l1.306-1.306c0.579-0.578-3.231-4.388-3.81-3.81z"></path>
</svg>
