<?xml version="1.0" encoding="utf-8"?>
<!-- Generated by IcoMoon.io -->
<!DOCTYPE svg PUBLIC "-//W3C//DTD SVG 1.1//EN" "http://www.w3.org/Graphics/SVG/1.1/DTD/svg11.dtd">
<svg version="1.1" xmlns="http://www.w3.org/2000/svg" xmlns:xlink="http://www.w3.org/1999/xlink" width="32" height="32" viewBox="0 0 32 32">
<path fill="#444444" d="M23.114 23.043v-8.249h-3.197v8.249h-3l4.597 5.572 4.601-5.572h-3zM12.122 20.86c-0.008-0.127 0.061-0.491 0.2-0.814 0.131-0.329 0.341-0.633 0.433-0.718l8.789-8.788c0.513-0.522 0.856-1.118 1.124-1.756 0.261-0.639 0.439-1.304 0.445-2.036v-3.387h-3.197v3.387c0.004 0.125-0.063 0.49-0.202 0.814-0.131 0.327-0.339 0.633-0.431 0.717l-8.789 8.789c-0.513 0.521-0.857 1.118-1.126 1.754-0.26 0.642-0.44 1.304-0.444 2.038v2.183h-3.002l4.599 5.572 4.599-5.572h-2.998v-2.183z"></path>
</svg>
