<?xml version="1.0" encoding="utf-8"?>
<!-- Generated by IcoMoon.io -->
<!DOCTYPE svg PUBLIC "-//W3C//DTD SVG 1.1//EN" "http://www.w3.org/Graphics/SVG/1.1/DTD/svg11.dtd">
<svg version="1.1" xmlns="http://www.w3.org/2000/svg" xmlns:xlink="http://www.w3.org/1999/xlink" width="32" height="32" viewBox="0 0 32 32">
<path fill="#444444" d="M26.857 24.185c-0.188-0.141-0.343-0.454-0.343-0.697v-14.842c0-0.244 0.155-0.559 0.343-0.698 0 0 1.095-0.815 1.095-1.681 0-1.17-1.079-2.119-2.412-2.119-0.703 0-1.416 0.458-1.416 0.458-0.196 0.127-0.548 0.231-0.779 0.231h-2.175c-0.231 0-0.58-0.104-0.779-0.231 0 0-0.983-0.627-1.864-0.627-0.184 0-0.184 0-0.184 0-0.198 0.024-0.499-0.088-0.668-0.252 0 0-0.901-0.865-1.842-0.865-0.944 0-1.845 0.873-1.845 0.873-0.172 0.163-0.489 0.276-0.705 0.245 0 0 0 0-0.208 0-0.879 0-1.862 0.627-1.862 0.627-0.198 0.127-0.55 0.231-0.781 0.231h-1.768c-0.229 0-0.58-0.104-0.777-0.231 0 0-0.713-0.458-1.416-0.458-1.333 0-2.412 0.948-2.412 2.119 0 0.866 1.096 1.681 1.096 1.681 0.188 0.139 0.341 0.454 0.341 0.698v14.842c0 0.243-0.153 0.554-0.341 0.697 0 0-1.096 0.816-1.096 1.682 0 1.169 1.079 2.117 2.412 2.117 0.787 0 1.58-0.59 1.58-0.59 0.19-0.14 0.531-0.254 0.762-0.254h1.388c0.231 0 0.574 0.116 0.76 0.259 0 0 1.104 0.844 2.113 0.844 0.303 0 0.46-0.031 0.46-0.031 0.227-0.046 0.56 0.041 0.742 0.191 0 0 0.85 0.71 1.707 0.71 0.824 0 1.652-0.652 1.652-0.652 0.184-0.146 0.501-0.245 0.701-0.219 0 0 0 0 0.192 0 1.010 0 2.113-0.844 2.113-0.844 0.188-0.143 0.529-0.259 0.76-0.259h1.794c0.231 0 0.574 0.114 0.762 0.254 0 0 0.795 0.59 1.582 0.59 1.333 0 2.412-0.948 2.412-2.117-0-0.866-1.096-1.682-1.096-1.682zM23.254 23.361h-14.745v-14.745h14.744v14.745z"></path>
</svg>
