<?xml version="1.0" encoding="utf-8"?>
<!-- Generated by IcoMoon.io -->
<!DOCTYPE svg PUBLIC "-//W3C//DTD SVG 1.1//EN" "http://www.w3.org/Graphics/SVG/1.1/DTD/svg11.dtd">
<svg version="1.1" xmlns="http://www.w3.org/2000/svg" xmlns:xlink="http://www.w3.org/1999/xlink" width="32" height="32" viewBox="0 0 32 32">
<path fill="#444444" d="M16.158 12.841v0.782h-2.783v-0.753c0 0-0.138-1.076 0.72-1.31 0.14-0.038 0.293-0.054 0.447-0.054 0.705 0 1.466 0.327 1.466 0.327v-1.507c0 0-1.17-0.234-2.185-0.234s-2.602 0.622-2.602 2.75v0.782h-1.203v1.385h1.203c0 2.738 0 6.477 0 6.477h2.153v-6.477h2.783c0 2.738 0 6.477 0 6.477h2.153v-6.477h1.912v-1.385h-1.912v-0.753c0 0-0.138-1.076 0.72-1.31 0.14-0.038 0.292-0.054 0.447-0.054 0.705 0 1.467 0.327 1.467 0.327v-1.507c0 0-1.171-0.234-2.185-0.234s-2.602 0.622-2.602 2.75zM23.181 6.255h-15.678c-0.891 0-1.614 0.723-1.614 1.614v15.678c0 0.892 0.723 1.614 1.614 1.614h15.678c0.892 0 1.614-0.723 1.614-1.614v-15.678c0-0.891-0.723-1.614-1.614-1.614zM22.407 11.832c0 0.494-0.24 0.959-0.654 1.229-0.048 0.031-0.097 0.059-0.147 0.085 0.051 0.15 0.079 0.31 0.079 0.477v1.385c0 0.808-0.655 1.462-1.463 1.462h-0.45v5.014c0 0.808-0.655 1.462-1.462 1.462h-2.153c-0.65 0-1.201-0.424-1.391-1.011-0.19 0.587-0.741 1.011-1.391 1.011h-2.153c-0.808 0-1.462-0.655-1.462-1.462v-5.037c-0.684-0.123-1.203-0.721-1.203-1.44v-1.385c0-0.733 0.54-1.341 1.244-1.446 0.3-2.332 2.172-3.547 4.023-3.547 1.147 0 2.419 0.252 2.472 0.263 0.189 0.038 0.363 0.111 0.517 0.212 0.601-0.315 1.275-0.475 1.947-0.475 1.146 0 2.418 0.252 2.472 0.263 0.684 0.137 1.176 0.737 1.176 1.434v1.507z"></path>
</svg>
