<?xml version="1.0" encoding="utf-8"?>
<!-- Generated by IcoMoon.io -->
<!DOCTYPE svg PUBLIC "-//W3C//DTD SVG 1.1//EN" "http://www.w3.org/Graphics/SVG/1.1/DTD/svg11.dtd">
<svg version="1.1" xmlns="http://www.w3.org/2000/svg" xmlns:xlink="http://www.w3.org/1999/xlink" width="32" height="32" viewBox="0 0 32 32">
<path fill="#444444" d="M28.39 13.552c-0.974-3.996-2.325-8.156-7.143-7.472-1.859 0.264-3.265 1.354-5.339 1.359-1.733 0.004-3.091-1.090-4.684-1.359-4.814-0.813-5.955 1.493-7.353 5.791-0.791 2.43-3.315 10.809-0.446 12.816 2.908 2.033 6.082-3.56 8.27-4.411 1.89-0.736 5.956-0.672 7.819-0.11 2.527 0.763 5.017 5.593 7.865 4.957 3.9-0.871 1.602-9.152 1.012-11.57zM10.188 17.079c-2.096-0-3.795-1.699-3.795-3.795s1.699-3.795 3.795-3.795c2.096 0 3.795 1.699 3.795 3.795s-1.699 3.795-3.795 3.795zM22.014 10.13c0.434-0.434 1.137-0.434 1.57 0s0.433 1.136-0 1.57c-0.434 0.434-1.136 0.434-1.57 0s-0.433-1.136 0-1.57zM19.901 13.813c-0.434-0.434-0.434-1.137 0-1.57s1.137-0.434 1.57 0c0.433 0.433 0.433 1.136-0 1.57s-1.136 0.434-1.57 0zM23.51 15.852c-0.434 0.434-1.136 0.434-1.57 0s-0.433-1.136 0-1.57c0.434-0.434 1.137-0.434 1.57-0s0.434 1.137 0 1.57zM25.623 13.739c-0.434 0.434-1.136 0.434-1.57 0s-0.433-1.136 0-1.57c0.434-0.434 1.136-0.434 1.57 0s0.434 1.136 0 1.57zM10.188 11.054c1.231 0.002 2.228 0.999 2.23 2.231-0.002 1.232-0.999 2.228-2.23 2.23-1.232-0.002-2.228-0.999-2.23-2.23 0.002-1.232 0.999-2.228 2.23-2.23z"></path>
</svg>
