<?xml version="1.0" encoding="utf-8"?>
<!-- Generated by IcoMoon.io -->
<!DOCTYPE svg PUBLIC "-//W3C//DTD SVG 1.1//EN" "http://www.w3.org/Graphics/SVG/1.1/DTD/svg11.dtd">
<svg version="1.1" xmlns="http://www.w3.org/2000/svg" xmlns:xlink="http://www.w3.org/1999/xlink" width="32" height="32" viewBox="0 0 32 32">
<path fill="#444444" d="M4.689 29.6h10.454v-11.629h-10.454v11.629zM28.25 9.854h-6.132c0.435-0.223 0.823-0.459 1.167-0.706 1.327-0.947 2.026-2.149 2.024-3.343 0.001-0.978-0.465-1.841-1.136-2.426-0.673-0.588-1.564-0.935-2.521-0.937-1.020-0.001-1.966 0.353-2.777 0.894-1.219 0.817-2.179 2.049-2.862 3.4-0.033 0.066-0.064 0.132-0.096 0.198-0.25-0.521-0.541-1.025-0.87-1.498-0.578-0.824-1.273-1.556-2.087-2.099-0.811-0.541-1.757-0.894-2.777-0.894-1.014 0.004-1.942 0.429-2.638 1.083-0.692 0.654-1.179 1.575-1.181 2.62-0.002 0.611 0.177 1.249 0.543 1.829 0.461 0.729 1.191 1.361 2.201 1.879h-5.507c-0.734 0-1.33 0.595-1.33 1.33v4.93h12.871v-6.26h1.565v6.26h12.871v-4.93c0-0.734-0.595-1.33-1.33-1.33zM9.556 7.899c-0.519-0.326-0.835-0.656-1.019-0.949-0.183-0.295-0.246-0.553-0.248-0.805-0.003-0.422 0.208-0.872 0.579-1.222 0.364-0.347 0.86-0.558 1.306-0.558h0.011c0.572 0 1.142 0.194 1.71 0.571 0.85 0.561 1.651 1.547 2.21 2.664 0.286 0.564 0.509 1.162 0.659 1.744-2.576-0.266-4.245-0.836-5.208-1.446zM18.364 6.538c0.465-0.666 1.012-1.226 1.577-1.602 0.569-0.377 1.138-0.571 1.71-0.571 0.002 0 0.004 0 0.006 0 0.479 0 0.934 0.184 1.247 0.46 0.316 0.281 0.479 0.618 0.48 0.979-0.003 0.428-0.228 1.053-1.226 1.783-0.951 0.69-2.591 1.399-5.122 1.894 0.243-1.005 0.708-2.068 1.326-2.943zM16.709 29.6h10.454v-11.629h-10.454v11.629z"></path>
</svg>
