<?xml version="1.0" encoding="utf-8"?>
<!-- Generated by IcoMoon.io -->
<!DOCTYPE svg PUBLIC "-//W3C//DTD SVG 1.1//EN" "http://www.w3.org/Graphics/SVG/1.1/DTD/svg11.dtd">
<svg version="1.1" xmlns="http://www.w3.org/2000/svg" xmlns:xlink="http://www.w3.org/1999/xlink" width="32" height="32" viewBox="0 0 32 32">
<path fill="#444444" d="M15.352 6.865c-0.010 0-0.022-0.001-0.033-0.001-0.001 0-0.003 0.001-0.004 0.001h0.038z"></path>
<path fill="#444444" d="M16 3.095c-7.127 0-12.905 5.778-12.905 12.905s5.778 12.905 12.905 12.905 12.905-5.778 12.905-12.905c0-7.127-5.778-12.905-12.905-12.905zM17.849 5.205c-0.172 0.52-1.069 0.171-1.439 0.172 0.291-0.114 0.726-0.264 0.971-0.444 0.128-0.094-0.002-0.157 0.174-0.249 0.225 0.031 0.449 0.067 0.67 0.11-0.262 0.088-0.51 0.208-0.734 0.356 0.12 0.018 0.239 0.037 0.358 0.055zM13.661 4.826c-0.169 0.098-0.501 0.42-0.308 0.621 0.188 0.195 0.413-0.105 0.602-0.2 0.438-0.221 1.024-0.243 1.51-0.338-0.086 0.228-0.779 0.146-1.022 0.235-0.305 0.111-0.169 0.189-0.383 0.53 0.091-0.010 0.19 0.043 0.282 0.041v0.062c-0.21-0.018-0.41-0.118-0.455 0.131-0.269-0.403-0.444-0.371-0.73-0.014 0.283 0.157 0.561 0.353 0.338 0.623-0.271 0.328-0.436-0.076-0.158-0.245-0.252-0.117-0.449-0.316-0.648-0.062 0.085-0.008 0.176 0.035 0.262 0.035-0.048 0.069-0.097 0.295-0.143 0.321-0.109 0.061-0.51-0.073-0.63-0.088-0.299-0.037-0.595-0.028-0.901-0.012 0.056 0.374-0.363 0.016-0.516-0.076 0.277-0.28 0.612-0.174 0.932-0.13 0.267 0.037 0.662 0.034 0.694-0.304-0.291-0.061-0.433-0.044-0.582-0.265-0.059-0.087-0.098-0.178-0.112-0.269 0.618-0.253 1.262-0.453 1.929-0.595h0.040zM4.575 16c0-2.697 0.942-5.178 2.511-7.134 0.269 0.186 0.555 0.409 0.665 0.504 0.193 0.165 0.287 0.363 0.408 0.565 0.006 0.011 0.112 0.176 0.155 0.244 0.131 0.131 0.236 0.279 0.266 0.457 0.036 0.214-0.045 0.393-0.065 0.616-0.061 0.684 0.036 1.325 0.57 1.806 0.148 0.133 0.341 0.202 0.489 0.343 0.152 0.145 0.135 0.245 0.227 0.398 0.245 0.406 0.572 0.787 0.854 1.17 0.246 0.335 0.35 0.27 0.107-0.076-0.165-0.235-0.369-0.466-0.506-0.718-0.014-0.026-0.152-0.357-0.107-0.347 0.381 0.081 0.459 0.341 0.707 0.647 0.244 0.301 0.452 0.47 0.594 0.832 0.166 0.422 0.419 0.627 0.835 0.813 0.204 0.091 0.538 0.334 0.757 0.363 0.257 0.034 0.395-0.134 0.638-0.017 0.163 0.078 0.287 0.326 0.488 0.386 0.193 0.057 0.321-0.016 0.502 0.106 0.216 0.146 0.291 0.397 0.494 0.551 0.145 0.11 0.354 0.248 0.539 0.278 0.133 0.022 0.278-0.077 0.41-0.035 0.237 0.077 0.291 0.366 0.22 0.597-0.080 0.259-0.322 0.419-0.419 0.675-0.088 0.232-0.032 0.43-0.062 0.651-0.031 0.229-0.214-0.002-0.031 0.386 0.086 0.181 0.211 0.345 0.321 0.512 0.216 0.329 0.372 0.616 0.663 0.881 0.206 0.187 0.656 0.406 0.758 0.684 0.091 0.247 0.015 0.791-0.030 1.052-0.096 0.546-0.082 1.203-0.233 1.71-0.147 0.493-0.317 0.641-0.192 1.179 0.054 0.23 0.095 0.118-0 0.414-0.028 0.086-0.001 0.12-0.034 0.206-0.069 0.183-0.233 0.291-0.302 0.481 0.26 0.012 0.241 0.103 0.159 0.206-0.307 0.025-0.616 0.041-0.93 0.041-6.3-0-11.425-5.125-11.425-11.425zM18.218 27.207c-0.074-0.077-0.152-0.157-0.152-0.211 0-0.060 0.233-0.359 0.265-0.434 0.050-0.119 0.085-0.377 0.158-0.469 0.125-0.157 0.393-0.099 0.341-0.392 0.598-0.006 0.856-0.097 0.954-0.706-0.106-0.054-0.085-0.023-0.102-0.115 0.020 0.11 0.448-0.045 0.488 0.033 0.031 0.059 0.574-0.682 0.633-0.744 0.154-0.163 0.288-0.286 0.386-0.482 0.038-0.077 0.079-0.31 0.161-0.424-0.005 0.020-0.012 0.040-0.019 0.059 0.193-0.306 0.439-0.269 0.718-0.393 0.277-0.123 0.077-0.090 0.281-0.283 0.243-0.23 0.298-0.098 0.367-0.474 0.051-0.278-0.016-0.531 0.073-0.782 0.113-0.317 0.386-0.42 0.567-0.689 0.138-0.205 0.268-0.54 0.081-0.746-0.155-0.171-0.618-0.313-0.828-0.363-0.247-0.059-0.532-0.064-0.764-0.158-0.272-0.111-0.499-0.399-0.636 0.049-0.046-0.032-0.233-0.136-0.233-0.186 0 0.098 0.264-0.087 0.302-0.13-0.113 0.008-0.501 0.095-0.557 0.056 0 0 0 0-0 0 0.027 0.020 0.096 0.011 0.127 0.016-0.118 0.064-0.143 0.042-0.127-0.016-0.001-0.001-0.002-0.001-0.003-0.002 0.001 0.001 0.003 0.001 0.003 0.001 0.033-0.112 0.223-0.361 0.227-0.411 0.021-0.277-0.381-0.592-0.6-0.655-0.298-0.085-0.467-0.047-0.723-0.234-0.31-0.227-0.611-0.478-1.004-0.522-0.083-0.009-0.173 0.036-0.261 0.023-0.212-0.032-0.283-0.169-0.461-0.214-0.218-0.055-0.302 0.134-0.432 0.133-0.192-0.001-0.238-0.202-0.519-0.033-0.416 0.251-0.19 0.408-0.664 0.288-0.251-0.064-0.533 0.090-0.773-0.076-0.216-0.15-0.265-0.564-0.055-0.739-0.107 0.089-0.103-0.193-0.181-0.244-0.123-0.082-0.326 0.014-0.468-0.021-0.193-0.046-0.305-0.064-0.261-0.251 0.047-0.203 0.584-0.755 0.035-0.74-0.299 0.008-0.394 0.451-0.711 0.516-0.356 0.073-0.667-0.049-0.851-0.364-0.384-0.657 0.226-1.466 0.849-1.522 0.488-0.045 1.201-0.405 1.558 0.133 0.104 0.156 0.36 0.762 0.492 0.37 0.040-0.119-0.104-0.638-0.149-0.855-0.001 0.002-0.003 0.004-0.005 0.006-0.002-0.023-0.004-0.046-0.007-0.070 0.002 0.016 0.007 0.038 0.012 0.064 0.099-0.154 0.26-0.252 0.386-0.385-0.016 0.017-0.033 0.034-0.050 0.050 0.127-0.125 0.456-0.271 0.513-0.444 0.032-0.095-0.112-0.218-0.037-0.35 0.058-0.101 0.199-0.061 0.254-0.128 0.079-0.096 0.089-0.255 0.172-0.356 0.085-0.104 0.25-0.117 0.337-0.197 0.2-0.181 0.254-0.388 0.489-0.499 0.221-0.15 0.456-0.405 0.737-0.289-0.101 0.116-0.359 0.187-0.434 0.295-0.051 0.074 0.382 0.033 0.441 0.011 0.244-0.090 0.437-0.272 0.642-0.407 0.355-0.234 0.765-0.245 1.193-0.159 0.131 0.026-0.237-0.503-0.276-0.548-0.149-0.171-0.186-0.323-0.425-0.102-0.070 0.064-0.143 0.282-0.193 0.372-0.152 0.275-0.117 0.24-0.447 0.409 0.018-0.008 0.035-0.017 0.051-0.027-0.242 0.048-0.472 0.152-0.57-0.146-0.033-0.1 0.107-0.246 0.029-0.346-0.171-0.221-0.743 0.245-0.943 0.32 0.104-0.821 1.075-0.389 1.593-0.552 0.142-0.045 0.671-0.248 0.701-0.381 0.044-0.198-0.42-0.52-0.526-0.611-0.228-0.194-0.349-0.306-0.477-0.608-0.136-0.322-0.226-0.643-0.567-0.406-0.127 0.088-0.035 0.28-0.255 0.31-0.138 0.019-0.28-0.156-0.359-0.238-0.119-0.124-0.243-0.427-0.462-0.454-0.188-0.023-0.71-0.298-0.955-0.12-0.188 0.137 0.026 0.655 0.082 0.84 0.122 0.399 0.198 0.414-0.141 0.664-0.166 0.123-0.267-0.009-0.206 0.322 0.032 0.172 0.217 0.205 0.085 0.354-0.081 0.091-0.275 0.082-0.37 0.038-0.295-0.138-0.032-0.323-0.173-0.519-0.105-0.147-0.671-0.267-0.865-0.354-0.429-0.194-1.559-0.4-1.211-1.064 0.094-0.18 0.448-0.446 0.608-0.549 0.165-0.106 0.37-0.135 0.508-0.282 0.077-0.082 0.083-0.31 0.152-0.366 0.098-0.080 0.384-0.043 0.536-0.038 0.658-0.132 0.059-1.088 0.926-0.915 0.239 0.048 0.479 0.29 0.676 0.426 0.222 0.152 0.296 0.135 0.226 0.367-0.016 0.054-0.264 0.295-0.328 0.344-0.116 0.089-0.302 0.131-0.437 0.186 0.452 0 0.642-0.022 1.011 0.223 0.317 0.21 0.515 0.35 0.904 0.335-0.024-0.189-0.357-0.116-0.344-0.303 0.011-0.158 0.212 0.050 0.238 0.052 0.108 0.005 0.388 0.133 0.327-0.169-0.054-0.265-0.634-0.139-0.448-0.572 0.261-0.029 0.191 0.258 0.363 0.319 0.183 0.066 0.423-0.159 0.463-0.313-0.257-0.131-1.046-0.343-0.957-0.716 0.526 0.335 1.052 0.67 1.577 1.006-0.426 0.381 0.31 0.167 0.355 0.178 0.125 0.031 0.445 0.306 0.236 0.357-0.217 0.053-0.329-0.26-0.549-0.026 0.183 0.048 0.828 0.085 0.656 0.433-0.069 0.139-0.484 0.115-0.608 0.387 0.089-0.017 0.185 0.010 0.276-0.014-0.198 0.308 0.095 0.512 0.256 0.759 0.183 0.28 0.438 0.709 0.801 0.798 0.773 0.19 0.679-1.066 1.266-1.265 0.162-0.055 0.339-0.015 0.503-0.061 0.183-0.052 0.28-0.183 0.424-0.283 0.357-0.247 0.667-0.248 1.111-0.261 0.011-0 0.022 0 0.034 0 1.949 2.050 3.148 4.818 3.148 7.863 0 5.541-3.965 10.172-9.206 11.207z"></path>
</svg>
