<?xml version="1.0" encoding="utf-8"?>
<!-- Generated by IcoMoon.io -->
<!DOCTYPE svg PUBLIC "-//W3C//DTD SVG 1.1//EN" "http://www.w3.org/Graphics/SVG/1.1/DTD/svg11.dtd">
<svg version="1.1" xmlns="http://www.w3.org/2000/svg" xmlns:xlink="http://www.w3.org/1999/xlink" width="32" height="32" viewBox="0 0 32 32">
<path fill="#444444" d="M15.974 2.409c-7.503 0-13.588 6.083-13.588 13.588 0 7.506 6.085 13.59 13.588 13.59 7.507 0 13.59-6.084 13.59-13.59 0-7.505-6.082-13.588-13.59-13.588zM15.018 9.987c-1.343-0.084-2.618-0.343-3.787-0.748 0.94-1.914 2.258-3.468 3.787-4.482v5.23zM15.018 11.907v3.132h-5.285c0.084-1.424 0.354-2.778 0.769-4.024 1.4 0.496 2.921 0.802 4.517 0.892zM15.018 16.954v3.1c-1.604 0.091-3.131 0.402-4.537 0.902-0.409-1.243-0.67-2.587-0.748-4.003h5.285zM15.018 21.975v5.304c-1.547-1.025-2.876-2.601-3.818-4.541 1.177-0.413 2.463-0.677 3.818-0.762zM16.933 21.975c1.355 0.086 2.641 0.349 3.818 0.762-0.942 1.94-2.273 3.519-3.818 4.543v-5.306zM16.933 20.055v-3.1h5.285c-0.078 1.415-0.339 2.76-0.748 4.003-1.404-0.501-2.933-0.811-4.537-0.902zM16.933 15.039v-3.132c1.594-0.090 3.117-0.396 4.517-0.892 0.415 1.247 0.683 2.6 0.766 4.024h-5.283zM16.933 9.987v-5.23c1.531 1.014 2.847 2.568 3.787 4.48-1.169 0.405-2.444 0.666-3.787 0.75zM20.264 5.145c1.396 0.554 2.661 1.368 3.734 2.386-0.468 0.346-0.975 0.665-1.514 0.948-0.601-1.245-1.349-2.367-2.22-3.334zM9.464 8.479c-0.54-0.284-1.045-0.603-1.513-0.948 1.073-1.018 2.336-1.834 3.732-2.386-0.869 0.967-1.617 2.090-2.22 3.334zM8.737 10.254c-0.511 1.487-0.828 3.099-0.918 4.785h-3.474c0.184-2.27 1.022-4.361 2.324-6.079 0.635 0.483 1.326 0.92 2.068 1.294zM7.815 16.954c0.086 1.677 0.399 3.284 0.899 4.763-0.738 0.378-1.427 0.813-2.060 1.298-1.296-1.717-2.126-3.797-2.309-6.061h3.47zM9.438 23.499c0.593 1.239 1.331 2.361 2.189 3.33-1.382-0.559-2.633-1.371-3.693-2.383 0.464-0.343 0.965-0.663 1.504-0.946zM22.512 23.499c0.538 0.283 1.040 0.603 1.502 0.947-1.059 1.011-2.31 1.823-3.691 2.38 0.858-0.967 1.596-2.089 2.189-3.327zM23.236 21.717c0.501-1.48 0.811-3.084 0.899-4.763h3.471c-0.184 2.264-1.014 4.344-2.31 6.061-0.634-0.485-1.324-0.92-2.060-1.298zM24.131 15.039c-0.090-1.686-0.407-3.298-0.916-4.785 0.74-0.375 1.431-0.811 2.064-1.294 1.304 1.719 2.14 3.808 2.326 6.079h-3.475z"></path>
</svg>
