<?xml version="1.0" encoding="utf-8"?>
<!-- Generated by IcoMoon.io -->
<!DOCTYPE svg PUBLIC "-//W3C//DTD SVG 1.1//EN" "http://www.w3.org/Graphics/SVG/1.1/DTD/svg11.dtd">
<svg version="1.1" xmlns="http://www.w3.org/2000/svg" xmlns:xlink="http://www.w3.org/1999/xlink" width="32" height="32" viewBox="0 0 32 32">
<path fill="#444444" d="M21.487 11.251c0.063 0 0.122-0.006 0.175-0.017l0.069-0.015-0.032-0.18c-0.003-0.087-0.049-0.41-0.168-0.461-0.007-0.003-0.018-0.029-0.017-0.066l0.119 0.011c0.035 0 0.066-0.020 0.082-0.055 0.027-0.058 0.009-0.164-0.037-0.218-0.050-0.059-0.161-0.089-0.28-0.070-0.050-0.132-0.177-0.217-0.291-0.293-0.058-0.039-0.115-0.076-0.154-0.116 0.198-0.007 0.639-0.029 0.68-0.047l0.096-0.043-0.074-0.076c-0.406-0.417-0.688-0.525-0.84-0.364-0.104 0.11-0.096 0.306-0.095 0.328 0.027 0.466-0.071 0.904-0.083 0.936-0.007 0.020-0.027 0.028-0.030 0.030l-0.114-0.005 0.011 0.087c0.053 0.413 0.604 0.633 0.982 0.633z"></path>
<path fill="#444444" d="M19.352 10.126h0.024l0.032-0.004 0.017-0.010-0.041-0.075-0.007-0.014v-0.046l-0.002 0.043v-0l0.001-0.043-0.238-0.008 0.192 0.142z"></path>
<path fill="#444444" d="M18.235 12.459l0.022-0.091-0.193-0.207 0.050 0.308z"></path>
<path fill="#444444" d="M16 3.095c-7.127 0-12.905 5.778-12.905 12.905s5.778 12.905 12.905 12.905c7.127 0 12.905-5.778 12.905-12.905s-5.778-12.905-12.905-12.905zM10.337 8.994v0.001l-0-0.001c0 0 0 0 0 0zM14.090 24.474c-0.014-0.018-1.438-1.837-0.752-2.836 0.766-1.115-0.167-2.713-0.207-2.78-0.178-0.299-0.769-1.086-1.047-1.086l-0.036 0.003c-0.015 0-0.018-0.005-0.021-0.010-0.030-0.050-0.012-0.248 0.163-0.565l0.060-0.11h-0.125c-0.013 0-0.013 0-1.252 0.376-0.282 0.086-0.522 0.1-0.754 0.115-0.221 0.014-0.451 0.028-0.709 0.103-0.061 0.018-0.123 0.027-0.186 0.027-0.619 0-1.16-0.853-1.166-0.862-0.222-0.355-0.397-0.646-0.426-0.698-0.007-0.115-0.067-0.329-0.084-0.365-0.031-0.064-0.077-0.466-0.082-0.976-0-0.011 0.004-1.097 1.047-1.778 0.481-0.336 0.773-0.846 0.785-0.867 0.215-0.38 0.759-0.768 1.175-0.848l1.311-0.018 0.025-0.005c0.378-0.143 0.851-0.25 0.962-0.263 0.003 0.016 0.003 0.039 0 0.053-0.017 0.017-0.028 0.040-0.030 0.066-0.005 0.044 0.014 0.095 0.051 0.142l0 0.017c-0.001 0.029-0.016 0.053-0.039 0.090-0.027 0.042-0.060 0.095-0.064 0.17-0.003 0.375 0.935 0.598 1.124 0.639 0.328 0.071 0.665 0.117 0.858 0.117 0.104 0 0.143-0.013 0.165-0.025l0.042-0.022-0.003-0.075c0.001-0.046 0.002-0.101 0.001-0.132l0.005-0.162c0.137-0.018 0.283-0.023 0.374-0.027 0.052-0.002 0.089-0.004 0.094-0.005 0.043 0 0.366 0.064 0.857 0.184l0.722 0.207 0.019 0.003c0.388 0.005 0.721 0.030 0.813 0.044l0.008 0.012 0.082-0 0.022-0.034c0.021-0.033 0.012-0.058-0.008-0.104 0.004-0.092 0.079-0.614 0.161-0.792 0.024-0.052 0.024-0.105-0-0.154-0.070-0.141-0.323-0.205-0.598-0.264-0.030-0.006-0.057-0.012-0.078-0.017-0.172-0.041-0.601-0.067-0.768-0.067-0.021 0-0.038 0-0.052 0.001-0.061 0.003-0.111 0.003-0.136 0.001-0.030-0.035-0.094-0.094-0.227-0.214l-0.057-0.052c-0.020-0.018-0.024-0.034-0.030-0.031 0.002-0.001 0.006-0.004 0.015-0.006l0.054-0.014 0.005-0.158-0-0.028c0-0.027-0.011-0.047-0.029-0.063 0.048-0.012 0.098-0.030 0.144-0.051 0.019-0.003 0.039-0.005 0.060-0.005l0.020 0.001c0.201 0.012 0.712 0.021 1.163 0.021l0.076-0.001 0.866-0.131c0.315 0.018 0.492-0.037 0.53-0.16 0.029-0.092-0.030-0.19-0.175-0.29-0.266-0.184-0.247-0.402-0.232-0.438 0.013-0.031 0.010-0.065-0.008-0.092-0.030-0.045-0.095-0.065-0.21-0.065-0.089 0-0.192 0.013-0.263 0.034-0.118 0.034-0.198 0.12-0.19 0.203 0.002 0.020 0.008 0.038 0.019 0.053-0.010 0.003-0.020 0.005-0.031 0.007-0.025 0.005-0.055 0.007-0.085 0.007-0.117 0-0.217-0.029-0.242-0.049-0.015-0.012-0.025-0.024-0.033-0.034l0.017-0.007-0.012-0.060c-0.009-0.048-0.018-0.090-0.518-0.090-0.196 0-0.238 0.017-0.263 0.057-0.027 0.043-0.048 0.106-0.054 0.147-0.032 0.044-0.17 0.209-0.38 0.443l-0.019 0.027 0.005 0.173 0.008 0.043 0.002 0.001c-0.018 0.016-0.050 0.038-0.097 0.061-0.052 0.011-0.105 0.029-0.155 0.055-0.051 0.012-0.097 0.016-0.137 0.011-0.061-0.007-0.122-0.011-0.181-0.011-0.14 0-0.214 0.016-0.255 0.036-0.007-0.002-0.015-0.004-0.023-0.006-0.061-0.016-0.135-0.032-0.181-0.010-0.038 0.018-0.062 0.053-0.067 0.095-0.006 0.058 0.025 0.116 0.060 0.154l-0.006 0.010 0.012 0.035c0.010 0.030 0.049 0.095 0.102 0.145-0.009 0.004-0.018 0.007-0.026 0.010-0.013-0.017-0.031-0.025-0.055-0.025h-0.033l-0.022 0.025c-0.023 0.026-0.023 0.026-0.006 0.182-0.002 0.009-0.046 0.040-0.157 0.040-0.020 0-0.040-0.001-0.061-0.003l-0.001-0.127 0.001-0.020c0.039-0.055 0.050-0.113 0.029-0.158-0.013-0.028-0.037-0.047-0.066-0.053-0.052-0.030-0.301-0.22-0.659-0.518l-0.217-0.211c-0.339-0.266-0.755-0.467-0.86-0.467l-0.032 0.005c-0.032 0.011-0.107 0.044-0.112 0.106l-0.002 0.051 0.002 0.001c-0.010 0.031 0.001 0.059 0.013 0.082 0.038 0.077 0.192 0.311 0.4 0.381 0.145 0.049 0.251 0.091 0.306 0.117l-0.045 0.102 0.067 0.030c0.117 0.052 0.204 0.096 0.264 0.129-0.021 0.018-0.039 0.038-0.050 0.057-0.024 0.041-0.020 0.075-0.012 0.096-0.007 0.036-0.064 0.135-0.095 0.163-0.019 0.017-0.053 0.033-0.075 0.041-0.069-0.065-0.229-0.211-0.374-0.341 0.015 0.007 0.029 0.014 0.043 0.021l0.068-0.132c-0.104-0.055-0.229-0.137-0.361-0.224-0.322-0.213-0.688-0.454-0.995-0.454-0.068 0-0.131 0.012-0.189 0.035-0.461 0.189-0.717 0.331-0.764 0.424l-0.005-0.002c-0.022 0.046-0.238 0.318-0.361 0.381-0.003 0.002-0.279 0.145-0.291 0.248-0.023 0.031-0.089 0.103-0.204 0.211-0.137 0.128-0.211 0.198-0.25 0.24l-0.187 0.011-0.026 0.006c-0.155 0.070-0.414 0.113-0.565 0.113-0.065 0-0.087-0.008-0.089-0.009-0.074-0.030-0.139-0.059-0.18-0.078l0.007-0.067c0.009-0.108-0.032-0.208-0.056-0.253 0-0.060 0.025-0.3 0.051-0.416 0.023-0.103 0.477-0.726 0.819-0.727l0.131-0c0.279 0 0.48 0.002 0.536 0.003l0.009 0.006 0.1-0.023-0.009-0.048c0.004-0.008 0.008-0.017 0.010-0.024 0.007-0.020 0.016-0.044-0.045-0.155-0.043-0.078-0.162-0.264-0.328-0.298-0.067-0.014-0.129-0.028-0.181-0.040 0.037-0.017 0.078-0.030 0.119-0.030 0 0 0 0 0 0l0.017 0c0.125 0 0.247-0.039 0.296-0.094 0.007-0.008 0.013-0.016 0.016-0.024 0.045-0.022 0.172-0.067 0.268-0.101 0.128-0.046 0.261-0.093 0.347-0.132 0.126-0.058 0.371-0.185 0.609-0.308 0.125-0.065 0.246-0.128 0.343-0.177 0.254-0.129 0.412-0.342 0.443-0.453 0.011-0.040 0.008-0.075-0.004-0.090-0.005-0.038 0.061-0.179 0.127-0.194 0.074-0.017 0.171 0.039 0.185 0.052 0.002 0.002 0.004 0.004 0.005 0.006-0.012 0.020-0.031 0.047-0.051 0.076-0.019 0.011-0.033 0.027-0.037 0.053-0.029 0.042-0.075 0.111-0.078 0.143l-0.004 0.034 0.046 0.050h0.033c0.023 0 0.051-0.012 0.073-0.029 0.016 0.013 0.065 0.046 0.276 0.046 0.035 0 0.153-0.001 0.214-0.019 0.031-0.009 0.057-0.013 0.074-0.015 0.097 0.054 0.314 0.068 0.361 0.068 0.074 0 0.145-0.008 0.211-0.024 0.216-0.053 0.388-0.087 0.436-0.093h0.014c0.022 0 0.538-0.11 0.653-0.279 0.059-0.086 0.232-0.121 0.325-0.14 0.027-0.005 0.050-0.010 0.064-0.014 0.078-0.023 0.165-0.139 0.152-0.23-0.001-0.006-0.002-0.012-0.004-0.018 0.075-0.018 0.169-0.038 0.261-0.059 0.212-0.047 0.233-0.149 0.227-0.205-0.014-0.133-0.211-0.23-0.474-0.23l-0.036 0c-0.242 0-0.431-0.017-0.513-0.029-0.006-0.011-0.014-0.021-0.022-0.031 0-0.015 0.002-0.042 0.005-0.065 0.043-0.027 0.166-0.079 0.259-0.119 0.055-0.024 0.111-0.048 0.163-0.071 0.114-0.051 0.123-0.122 0.119-0.16-0.019-0.151-0.316-0.235-0.563-0.279l-0.085-0.015-0.009 0.298c-0.048 0.041-0.203 0.149-0.386 0.231-0.148 0.066-0.242 0.171-0.256 0.288-0.011 0.088 0.023 0.172 0.096 0.241-0.006 0.020-0.041 0.031-0.118 0.050-0.108 0.026-0.289 0.069-0.287 0.277l-0.002 0.049c-0.038 0.039-0.136 0.115-0.263 0.153-0.105 0.031-0.227 0.051-0.32 0.051-0.027 0-0.046-0.002-0.057-0.004-0.005-0.025-0.007-0.048-0.007-0.054l-0.001-0c0.001-0.095-0.186-0.258-0.188-0.26-0.025-0.021-0.042-0.044-0.050-0.057l-0.001-0.007c-0.004-0.046-0.039-0.066-0.089-0.094-0.009-0.005-0.018-0.010-0.021-0.012l-0.029-0.018h-0.027c-0.027 0-0.072 0.008-0.163 0.024-0.097 0.017-0.229 0.041-0.34 0.051-0.142 0.012-0.313 0.012-0.348 0.008-0.031-0.014-0.048-0.009-0.069-0.008-0.004-0.017-0.009-0.034-0.015-0.051-0.021-0.066-0.057-0.176-0.021-0.243 0.017-0.030 0.049-0.052 0.1-0.065 0.325-0.085 0.449-0.132 0.496-0.168 0.021-0.010 0.065-0.028 0.122-0.051 0.193-0.080 0.517-0.214 0.738-0.335 0.247-0.136 0.359-0.252 0.335-0.348-0.001-0.005-0.003-0.010-0.005-0.014 0.049-0.024 0.109-0.047 0.153-0.054 0.088-0.014 0.148-0.026 0.182-0.049 0.043-0.014 0.145-0.042 0.191-0.045 0.052-0.003 0.105-0.007 0.137-0.030 0.033-0.008 0.099-0.020 0.139-0.023 0.031-0.002 0.059-0 0.075 0.002l0.009 0.009h0.034c0.031 0 0.154-0.019 0.203-0.034 0.011-0.003 0.021-0.005 0.030-0.005l0.040 0.007c0.014 0 0.027-0.003 0.071-0.016 0.043-0.012 0.123-0.034 0.159-0.035 0.034-0.002 0.094-0.004 0.116-0.049 0.053-0.017 0.155-0.041 0.261-0.033 0.085 0.006 0.148 0.022 0.184 0.035l0.013 0.048h0.067c0.030 0 0.131-0.006 0.179-0.024 0.009-0.003 0.022-0.006 0.036-0.007l0.057 0.006c0.015 0 0.030-0.004 0.063-0.013 0.041-0.011 0.109-0.029 0.156-0.029 0.043 0.018 0.113 0.021 0.223 0.024 0.008 0 0.016 0 0.025 0.001l-0.001 0.006c-0.009 0.080-0.009 0.085 0.769 0.258 0.434 0.097 0.905 0.213 1.118 0.278-0.157 0.077-0.248 0.062-0.253 0.061-0.203-0.041-0.371-0.063-0.488-0.063-0.114 0-0.176 0.020-0.205 0.066-0.018 0.028-0.021 0.062-0.006 0.094 0.046 0.102 0.362 0.239 0.485 0.241 0.025 0 0.091 0 0.109-0.060 0.005-0.015 0.005-0.029 0.002-0.041 0.081 0.007 0.172 0.019 0.231 0.026l0.049 0.006c0.084 0.009 0.192-0.021 0.223-0.089 0.001-0.001 0.001-0.003 0.002-0.004 0.046-0.010 0.137-0.022 0.256-0.032 0.043-0.004 0.11-0.004 0.172-0.004s0.118-0.001 0.146-0.004c0.043-0.004 0.080-0.030 0.101-0.072 0.007-0.014 0.012-0.029 0.015-0.045l0.125 0.059c0.439 0.207 0.666 0.156 0.666 0.156 0.374-0.068 0.683-0.112 0.759-0.121 0.162 0.095 0.58 0.165 0.585 0.166 0.22 0.034 0.678 0.155 1.046 0.276 1.598 1.133 2.893 2.664 3.739 4.449 0.357 0.902 0.638 1.781 0.844 2.497 0.11 0.52 0.185 1.052 0.222 1.595-0.034-0.080-0.072-0.18-0.106-0.293-0.124-0.415-0.267-0.46-0.323-0.46l-0.019 0.001c-0.026 0-0.064-0.007-0.084-0.012l-0.012-0.023h-0.047c-0.036 0-0.059 0.023-0.080 0.042-0.004 0.004-0.008 0.008-0.012 0.012-0.041 0.013-0.155 0.095-0.646 0.629-0.008 0.009-0.207 0.228-0.2 0.518l-0.004 0.288c0 0.3-0.085 0.654-0.149 0.776-0.049-0.043-0.157-0.21-0.271-0.564l-0.222-0.453c-0.091-0.441-0.169-1.055-0.174-1.152-0.011-0.252-0.082-0.25-0.112-0.252-0.035 0.001-0.042 0.009-0.13 0.101-0.022 0.024-0.045 0.047-0.062 0.064-0.003 0-0.008 0.001-0.015 0.001-0.079 0-0.181-0.041-0.195-0.065-0.012-0.023 0.016-0.059 0.046-0.093 0.008-0.009 0.014-0.016 0.019-0.023l0.020-0.031-0.004-0.031c-0.008-0.051-0.052-0.085-0.191-0.186-0.091-0.066-0.216-0.156-0.249-0.21-0.092-0.146-0.435-0.318-0.563-0.318h-0c-0.002 0-0.135 0.008-0.212 0.034-0.092-0.022-0.512-0.157-0.711-0.256-0.18-0.090-0.498-0.147-0.812-0.147-0.083 0-0.163 0.004-0.236 0.012l-0.312-0.306c-0.044-0.046-0.074-0.111-0.105-0.18-0.068-0.148-0.152-0.333-0.42-0.343l-0.017-0c-0.158 0-0.26 0.044-0.302 0.132-0.072 0.149 0.076 0.342 0.094 0.363 0.195 0.245 0.497 0.538 0.636 0.605 0.003 0.023 0.004 0.051 0 0.064-0.017 0.064 0.047 0.157 0.076 0.194 0.042 0.055 0.157 0.183 0.316 0.183 0.075 0 0.146-0.028 0.212-0.084 0.172-0.145 0.312-0.207 0.374-0.223 0.056 0.115 0.219 0.317 0.322 0.39 0.129 0.090 0.19 0.133 0.223 0.154 0.019 0.023 0.034 0.041 0.047 0.055-0.048 0.144-0.306 0.702-0.63 0.857-0.24 0.115-0.626 0.306-0.729 0.4l-0.001-0.002c-0.052 0.037-0.732 0.361-1.003 0.466-0.236 0.091-0.468 0.146-0.556 0.146-0.003 0-0.006-0-0.008-0-0.049-0.058-0.196-0.358-0.353-0.795-0.033-0.091-0.142-0.393-0.172-0.443-0.252-0.423-0.332-0.535-0.335-0.539l-0.085-0.118c-0.257-0.359-0.609-0.85-0.717-1.033-0.118-0.2-0.194-0.423-0.196-0.456l0.008-0.045-0.045-0.055h-0.035c-0.054 0-0.063 0.020-0.125 0.174-0.060-0.002-0.179-0.053-0.217-0.115-0.014-0.022-0.039-0.064-0.087-0.064l-0.041 0.001-0.022 0.032c-0.023 0.033-0.045 0.065 0.176 0.668 0.004 0.010 0.091 0.246 0.35 0.713 0.106 0.192 0.175 0.396 0.248 0.613 0.064 0.189 0.13 0.385 0.223 0.57 0.071 0.141 0.173 0.271 0.272 0.396 0.112 0.142 0.218 0.276 0.274 0.418 0.021 0.053 0.027 0.111 0.033 0.173 0.008 0.078 0.016 0.159 0.055 0.235 0.165 0.325 0.449 0.497 0.82 0.497 0.323 0 0.599-0.129 0.611-0.135 0.341-0.162 0.586-0.25 0.698-0.277-0.064 1.014-1.29 2.123-1.816 2.599-0.987 0.832-0.799 1.232-0.774 1.275 0.223 0.387 0.401 1.056 0.387 1.195-0.010 0.099-0.302 0.356-0.756 0.549-0.021 0.009-0.512 0.224-0.537 0.803l-0.008 0.775c-0.268 0.152-0.737 0.494-1.074 0.785l-0.021 0.018-0.040 0.311c-0.434 0.188-1.361 0.372-1.572 0.376l-0.005 0.073v-0.073c-0.192-0-0.595-0.25-0.889-0.621z"></path>
</svg>
