<?xml version="1.0" encoding="utf-8"?>
<!-- Generated by IcoMoon.io -->
<!DOCTYPE svg PUBLIC "-//W3C//DTD SVG 1.1//EN" "http://www.w3.org/Graphics/SVG/1.1/DTD/svg11.dtd">
<svg version="1.1" xmlns="http://www.w3.org/2000/svg" xmlns:xlink="http://www.w3.org/1999/xlink" width="32" height="32" viewBox="0 0 32 32">
<path fill="#444444" d="M16 3.095c-7.127 0-12.905 5.778-12.905 12.905s5.778 12.905 12.905 12.905c7.127 0 12.905-5.778 12.905-12.905s-5.778-12.905-12.905-12.905zM23.837 8.263l-0.185-0.042c0.324 0.455-1.154-0.098-1.54-0.035-0.115 0.023-0.115 0.023-0.115 0.023-0.108 0.111-0.197 0.269-0.153 0.27s-0.040 0.473-0.253 0.593c-0.213 0.12-0.244-0.115-0.068-0.522s-0.293-0.377-0.293-0.377c0.414-0.174 0.39-0.257-0.053-0.185 0 0-0.487 0.079-0.866 0.032-0.421-0.074-2.064 0.256-2.064 0.256-0.44 0.088-0.433 0.174 0.015 0.191 0 0 0.239 0.010 0.266 0.208 0.060-0.080 0.111-0.137 0.118-0.137 0.009 0.001 0.122 0.46 0.222 0.625s0.141 0.27 0.090 0.235c0 0 0 0-0.047-0.005-0.274-0.019-0.274-0.019-0.274-0.019 0.081 0.164 0.156 0.381 0.168 0.512s0.246 0.196 0.522 0.145c0 0 0 0 0.238-0.115 0.267-0.129 0.542-0.071 0.518 0.115 0.011-0.017 0.026-0.031 0.039-0.030 0.024 0.001 0.020 0.046-0.010 0.099 0 0 0 0-0.042-0.002-0.001-0.004-0.001-0.007-0.002-0.010-0.022 0.056-0.067 0.119-0.141 0.191-0.161 0.156-0.508 0.197-0.775 0.3-0.026 0.014-0.027 0.014-0.027 0.014-0.013 0.006-0.027 0.009-0.041 0.014-0.109 0.050-0.2 0.114-0.248 0.208-0.143 0.277 0.1 0.714-0.069 1.019-0.17 0.306-0.642 0.31-0.938 0.457-0.222 0.111-0.857 0.421-1.256 0.395-0.013 0.001-0.038 0.002-0.088 0.004-0.002-0.008-0.004-0.012-0.006-0.018-0.006-0.001-0.011-0.003-0.016-0.005 0 0.002 0 0.003 0 0.005-0.207-0.015-0.207-0.015-0.207-0.015 0.022-0.027 0.040-0.054 0.057-0.080-0.008-0.009-0.017-0.016-0.024-0.026-0.042-0.062-0.044-0.124-0.022-0.184-0.007-0.004-0.015-0.007-0.022-0.011 0 0 0 0 0.001-0.022 0.008-0.071 0.060-0.102 0.125-0.114 0.040-0.038 0.088-0.074 0.138-0.106 0.022-0.192 1.050-0.413 1.134-0.42 0.005-0.002 0.098-0.136 0.113-0.14-0.046 0.040-0.046 0.070 0.003 0.092 0.326 0.001 0.326 0.001 0.326 0.001 0.111-0.323 0.232-0.684 0.273-0.72s0.104-0.060 0.125-0.055c0.021 0.005 0.031 0.005 0.026 0.004s-0.022-0.023-0.039-0.049c0 0 0 0 0.015-0.003 0.036 0.001 0.075 0.050 0.11 0.111 0.025-0.116 0.037-0.235 0.040-0.358-0.009-0.005-0.018-0.010-0.030-0.015-0.194 0.051-0.289-0.026-0.112 0.153-0.059 0.059-0.125 0.083-0.198 0.074 0.018-0.071 0.004-0.132-0.042-0.183 0.089-0.040 0.089-0.040 0.089-0.040 0.013-0.074 0.044-0.122 0.053-0.116s0.012 0.006 0.009 0.004c-0.003-0.003 0.023 0.001 0.037-0s0.092-0.094 0.173-0.207c0 0 0 0-0.003-0.066-0.049-0.038-0.049-0.079-0.001-0.122 0 0 0 0 0.001 0-0.043-0.409-0.124-0.817-0.124-1.162-0.034 0.082-0.088 0.177-0.175 0.293-0.308 0.393-0.64 1.345-1.327 1.346-0.216-0.008-0.216-0.008-0.216-0.008-0.012-0.074-0.462 0.127-0.639 0.251s-0.426 0.833-0.467 1.015c-0.019 0.085-0.033 0.153-0.043 0.201 0.001 0.039-0.004 0.067-0.009 0.075s-0.002-0.020 0.009-0.075c-0.001-0.039-0.006-0.088-0.019-0.139-0.027-0.103-0.050-0.215-0.050-0.228s0.070-0.042 0.085-0.065c0.015-0.023-0.086-0.216-0.148-0.214s-0.168-0.015-0.173-0.039c-0.005-0.024 0.064-0.135 0.065-0.178s-0.397-0.071-0.525-0.035c-0.128 0.037-0.173 0.010-0.1-0.060 0 0 0 0 0.002-0.078-0-0.023-0-0.023-0-0.023-0.074-0.038-0.32 0.015-0.513 0.117s-0.171 0.296-0.133 0.368c0.039 0.072 0.158 0.157 0.193 0.152s0.111-0.059 0.13-0.116c0.019-0.057 0.209 0.052 0.296 0.068s-0.13 0.088-0.485 0.159c0 0 0 0-0.007 0.224 0.001 0.086 0.001 0.086 0.001 0.086 0.106 0.042 0.195 0.133 0.196 0.157s0.008 0.046 0.011 0.045c0.003-0.001 0.002 0.001 0.001 0.002s-0.181 0.324-0.399 0.716l-1.006 1.595c-0.388 0.226-0.83 0.332-0.948 0.24s-0.423-0.044-0.678 0.107c0 0 0 0-0.006 0.31 0.013 0.464 0.245 0.853 0.245 0.853 0.23 0.385 0.2 0.871-0.068 1.080 0 0 0 0-0.073 0.001-0.010-0-0.010-0-0.010-0-0.004-0.023-0.040 0.072-0.085 0.113s-0.39-0.166-0.622-0.442c-0.232-0.276-0.727-0.249-0.623 0.047s0.185 0.537 0.182 0.537c-0.003 0.001 0.297 0.208 0.666 0.46 0 0 0 0 0.009 0.317-0.002 0.203-0.002 0.203-0.002 0.203 0.1 0.194-0.716 0.006-0.821-0.348s-0.183-0.794-0.165-0.849c0.018-0.056 0.048-0.101 0.054-0.1s-0.184-0.399-0.183-0.742c0.001-0.343-0.093-0.663-0.111-0.699s-0.113 0.064-0.211 0.222c0 0 0 0-0.182 0.003-0.052-0.001-0.365-0.627-0.365-0.627-0.201-0.401-0.482-0.483-0.611-0.503s-0.648 0.532-0.967 0.788c-0.319 0.256-0.567 0.897-0.566 1.061s-0.179 0.407-0.233 0.518c-0.054 0.111-0.231-0.14-0.392-0.559l-0.247-0.465c-0.088-0.44-0.159-0.798-0.158-0.797s0.011-0.246 0.013-0.337c0.002-0.091-0.032-0.065-0.076 0.057 0 0 0 0-0.163 0.006-0.144 0-0.144 0-0.144 0-0.061-0.145-0.003-0.289 0.021-0.323s-0.229-0.215-0.293-0.311c-0.064-0.096-0.305-0.197-0.366-0.184s-0.135 0.043-0.139 0.052c-0 0.001-0.005 0.001-0.009 0.001 0.869-5.445 5.596-9.619 11.281-9.619 3.079 0 5.875 1.226 7.931 3.213 0.009 0.146-0.018 0.304-0.094 0.475zM13.217 22.913c0.019-0.005 0.037 0.008 0.040 0.028 0 0 0 0 0.003 0.016 0.196-0.021 1.552-0.403 1.565-0.634-0.017-0.091-0.017-0.091-0.017-0.091 0.057-0.079 0.155-0.077 0.173-0.061s0.106-0.045 0.107-0.084c0-0.039 0.074-0.041 0.098-0.036s0.082-0.188 0.121-0.229c0.040-0.041 0.297-0.107 0.346-0.138s0.231-0.001 0.251 0.056c0.020 0.057 0.099 0.057 0.131 0.050s0.098 0.005 0.148 0.025c0 0 0 0 0.009 0.008 0.257-0.351 0.257-0.351 0.257-0.351 0.212-0.101 0.338-0.213 0.28-0.247 0 0 0 0-0.013-0.069 0.266 0.169 0.266 0.169 0.266 0.169 0.289-0.041 0.584-0.048 0.654-0.014 0 0 0 0 0.001 0.039-0.165 0.080-0.249 0.217-0.25 0.412-0.001 0.106 0.716 0.424 0.86 0.416 0.515-0.050 0.129-0.987 0.526-1.195 0.077 0.19 0.077 0.19 0.077 0.19 0.050 0.218 0.174 0.414 0.276 0.435 0 0 0 0 0.021 0.009-0.036-0.023 0.676 1.080 0.678 1.092-0.002-0.008 0.415 0.336 0.469 0.382-0.035 0.868-0.198 1.076-0.198 1.076-0.276 0.353-0.503 0.642-0.503 0.642s-0.239 0.079-0.531 0.176c0 0 0 0-0.090 0.186-0.365 0.041-1.003 0.131-1.135-0.342-0.062 0.030-0.062 0.030-0.062 0.030-0.073 0.008-0.104-0.032-0.096-0.049s0.002-0.060-0.013-0.095c0 0 0 0-0.023-0.016-0.011 0.089-0.011 0.089-0.011 0.089-0.123 0.011-0.055-0.081-0.041-0.159s-0.104 0.001-0.261 0.177c0 0 0 0-0.134 0.009-0.084-0.001-0.349-0.383-0.544-0.409-0.441-0.058-0.843 0.1-1.278 0.16-0.169 0.023-1.768 0.604-1.835 0.155-0.002-0.141-0.078-0.358-0.078-0.358-0.148-0.423-0.253-0.799-0.246-0.811s0.031 0.003 0.055 0.035c0 0 0 0 0.018 0.010-0.059-0.347-0.092-0.677-0.073-0.682zM10.304 18.93c0 0 0 0-0.011-0.015-0.127-0.071-0.795-0.933-0.783-1.070 0.234 0.020 0.882 0.528 0.882 0.528 0.353 0.277 0.639 0.514 0.634 0.528 0 0 0 0-0.004 0.008 0.052-0.011 0.052-0.011 0.052-0.011 0.035 0.041 0.056 0.097 0.047 0.124 0 0 0 0-0.008 0.017 0.005 0.215 0.388 0.634 0.418 0.97-0.001 0.074-0.139 0.087-0.176 0.084-0.394-0.055-0.582-0.417-0.582-0.417-0.206-0.398-0.418-0.734-0.47-0.747zM10.337 19.328c-0.085-0.048-0.085-0.048-0.085-0.048-0.022-0.078-0.023-0.143-0.002-0.145 0 0 0 0 0.013 0.005-0 0.069 0.024 0.131 0.073 0.188zM10.020 18.808c-0.028-0.040-0.053-0.075-0.054-0.074s0.008-0.003 0.021-0.007c0 0 0 0 0.008-0.005 0.041 0.029 0.054 0.059 0.069 0.096s-0.015 0.030-0.043-0.010zM11.472 19.356c-0.029-0.006-0.007-0.049 0.049-0.094 0 0 0 0 0.037 0 0.118 0.077 0.18 0.177 0.186 0.3-0.11-0.004-0.139-0.045-0.187-0.14-0.031-0.055-0.055-0.060-0.084-0.067zM11.632 20.114c0 0 0 0 0.031 0.005 0.281-0.020 0.599 0.131 0.883 0.128 0.245 0.009 0.245 0.009 0.245 0.009 0.181 0.054 0.219 0.117 0.085 0.141 0 0 0 0-0.011-0.004 0.11 0.094 0.11 0.094 0.11 0.094 0.283 0.074 0.49 0.166 0.473 0.18s-0.059 0.001-0.092-0.027c0 0 0 0-0.085 0.004-0.016-0.001-0.005 0.049 0.002 0.064-0.278-0.107-0.976-0.272-0.976-0.272-0.437-0.103-0.735-0.248-0.664-0.322zM12.464 15.2c-0.237-0.003-0.431-0.047-0.431-0.065s0.119-0.071 0.202-0.112c0.082-0.042 0.184-0.046 0.226-0.011 0 0 0 0-0 0.027 0.004 0.161 0.004 0.161 0.004 0.161zM13.808 18.262c-0.009 0.012 0.071 0.221 0.178 0.465 0 0 0 0 0.128 0.008-0.070 0.044-0.145 0.071-0.226 0.081-0.422 0.818-0.422 0.818-0.422 0.818-0.377-0-0.709-0.011-0.72-0.020s-0.025-0.052-0.030-0.096c0 0 0 0-0.006-0.020-0.175-0.025-0.496-0.049-0.382-0.379-0.037-0.097-0.185-0.164-0.2-0.33 0 0.125 0.982-0.691 0.982-0.691 0.345-0.287 0.663-0.436 0.795-0.331s0.204 0.254 0.162 0.261c-0.043 0.007-0.070 0.029-0.063 0.036s-0.041 0.045-0.095 0.068c-0.053 0.023-0.085 0.067-0.079 0.080s-0.012 0.039-0.022 0.050zM13.684 20.671c-0.039 0.079-0.039 0.079-0.039 0.079-0.047-0.034-0.086-0.089-0.086-0.102s0.021-0.025 0.047-0.027c0 0 0 0 0.015 0.004 0.026-0 0.043 0.034 0.063 0.046zM14.287 15.825c0.113-0.353 0.297-0.612 0.307-0.581s0.057 0.034 0.103 0.005c0 0 0 0 0.022-0.011 0.005 0.307 0.005 0.307 0.005 0.307-0.052 0.192-0.068 0.489-0.024 0.543s0.081 0.084 0.082 0.078c0.001-0.007 0.024-0.038 0.048-0.047s0.145 0.024 0.158 0.063c0.014 0.040 0.058 0.063 0.072 0.050s0.043-0.015 0.052-0.013c0.009 0.002-0.006 0.027-0.035 0.056 0 0 0 0-0.003 0.023 0.061-0.010 0.108 0.017 0.141 0.080 0.005 0.038-0.009 0.068-0.041 0.090-0.059-0.113-0.059-0.113-0.059-0.113-0.121-0.075-0.255-0.072-0.245-0.051s-0.109-0.003-0.135-0.040c-0.026-0.037-0.11-0.061-0.132-0.051s-0.087-0.011-0.145-0.049c0 0 0 0 0.002-0.024 0.046-0.034 0.066-0.079 0.062-0.134-0.043-0.010-0.077 0.005-0.103 0.044-0.022 0.001-0.152-0.090-0.151-0.118 0.017-0.108 0.017-0.108 0.017-0.108zM14.564 13.915c0.203 0.019 0.021 0.597-0.16 0.614-0.296-0.007-0.027-0.6 0.16-0.614zM15.32 16.558c-0.046-0.027-0.058-0.059-0.027-0.073 0 0 0 0 0.016 0.001 0.061-0.002 0.083 0.005 0.111 0.013s0.048 0.040 0.046 0.054c-0.002 0.014 0.015 0.025 0.025 0.025s0.017 0.046 0.012 0.066c-0.004 0.021 0.004 0.050 0.018 0.066s0.008 0.069 0 0.084c-0.008 0.015-0.053 0.026-0.1 0.024 0 0 0 0-0.027 0.002 0.045 0.052 0.045 0.052 0.045 0.052 0.001 0.063-0.022 0.113-0.050 0.111 0 0 0 0-0.016 0.004-0.026-0.042-0.026-0.042-0.026-0.042 0.002-0.048-0.061-0.109-0.074-0.131s-0.023-0.054-0.022-0.070c0 0 0 0 0.002-0.009 0.060 0.023 0.060 0.023 0.060 0.023 0.044-0.033 0.051-0.173 0.006-0.2zM15.495 17.033c0.053 0 0.094 0.040 0.113 0.059 0.224 0.251 0.224 0.251 0.224 0.251-0.12 0.247-0.246 0.413-0.261 0.376s-0.027-0.063-0.028-0.062c-0 0.001-0.014-0.015-0.030-0.036 0 0 0 0-0.010-0.014-0.104 0.062-0.104 0.062-0.104 0.062 0.054 0.088 0.072 0.217 0.048 0.228s-0.063 0.009-0.067-0.005c-0.004-0.015-0.034-0.025-0.066-0.023 0 0 0 0-0.017 0.002-0.178-0.095-0.178-0.095-0.178-0.095 0.033-0.113 0.050-0.232 0.046-0.245s-0.052-0.023-0.074-0.024c-0.022-0.001-0.043 0.022-0.044 0.034s-0.054 0.014-0.061 0.005c-0.007-0.009-0.023-0.003-0.029 0.003s-0.038-0.006-0.052-0.020c-0.014-0.015-0.069 0.096-0.121 0.247 0 0 0 0-0.081-0.004-0.223-0.020 0.392-0.396 0.502-0.405 0.010-0.084 0.239-0.23 0.291-0.335zM15.014 17.206c-0.013 0.006-0.090-0.050-0.171-0.125 0 0 0 0 0.002-0.033 0.002-0.010 0.297-0.365 0.275-0.149-0.11 0.088-0.11 0.088-0.11 0.088 0.016 0.109 0.016 0.213 0.003 0.219zM14.849 16.894c-0.068 0.024-0.124-0.067-0.124-0.203 0 0 0 0 0.007-0.042 0.027-0.039 0.054-0.042 0.079-0.010 0.059 0.024 0.086 0.041 0.12 0.061s-0.013 0.17-0.081 0.195zM14.696 16.321c0.012-0.003 0.066-0.009 0.075 0.001-0.012 0.003-0.067 0.009-0.075-0.001zM14.421 18.848c0.102-0.154 0.201-0.228 0.386-0.193 0.2 0.038 0.2 0.038 0.2 0.038 0.197 0.007 0.29 0.125 0.207 0.263 0 0 0 0-0.089 0.021-0.020 0.005-0.042 0.002-0.065-0.005-0.046-0.013-0.097-0.038-0.136-0.042-0.062-0.006-0.144-0.017-0.198 0.020-0.103 0.071-0.092 0.172-0.038 0.257 0.034 0.055 0.064 0.051 0.077 0.137 0.017 0.11 0.017 0.11 0.017 0.11 0.024 0.115 0.032 0.222 0.018 0.237 0 0 0 0 0.001 0.010 0.002 0.031 0.002 0.031 0.002 0.031 0.052 0.049 0.037 0.191-0.028 0.204s-0.169-0.084-0.232-0.215c0 0 0 0 0.031-0.168 0.001-0.006-0.101 0.051-0.113 0.070-0.024 0.039-0.020 0.089-0.020 0.132-0.001 0.070 0.051 0.191-0.053 0.184-0.129-0.009-0.215-0.34-0.226-0.438-0.022-0.208 0.15-0.486 0.262-0.655zM18.457 19.477c0.003 0.004 0.003 0.004 0.003 0.004h-0c0.004 0.005 0.005 0.007 0.005 0.007 0.013 0.004 0.025 0.010 0.025 0.013 0 0 0 0-0.001 0.001 0.169 0.114 0.833 0.451 1.050 0.556 0.275 0.11 0.105-0.027 0.064 0.197 0.006 0.186 0.436 0.544 0.624 0.522-0.424 0.334-0.694-0.413-1.114-0.401-0.165 0.012-0.268 0.176-0.287 0.32-0.289 0.044-0.381-0.171-0.623-0.165-0.029-0.001-0.029-0.001-0.029-0.001-0.172 0-0.25-0.051-0.172-0.114 0 0 0 0 0.029-0.018-0.176-0.168-0.258-0.216-0.258-0.216-0.387-0.227-0.701-0.438-0.701-0.451s-0.039 0.048-0.063 0.066c-0.023 0.018-0.071 0.031-0.107 0.030 0 0 0 0-0.004-0.016 0.011-0.117 0.011-0.117 0.011-0.117-0.090-0.057-0.030-0.121 0.134-0.143 0 0 0 0 0.053-0.079-0.096 0.011-0.59 0.034-0.593-0.19 0.013-0.305 0.626-0.062 0.68-0.050-0.003 0.116 0.019 0.412 0.229 0.424 0.124-0.001 0.381-0.347 0.515-0.361 0.023 0.13 0.023 0.13 0.023 0.13 0.285 0.036 0.513 0.060 0.508 0.055-0.001-0.001-0.001-0.002-0.003-0.004zM19.207 25.368c0 0 0 0-0.011 0.057-0.080 0.287-0.080 0.287-0.080 0.287-0.282-0.149-0.377-0.288-0.211-0.31 0 0 0 0 0.005-0.001 0.071-0.011 0.112-0.025 0.161-0.041s0.111-0.012 0.137 0.010zM21.262 20.067c0.002 0.001 0.003 0.001 0.004 0.002s0.002 0.001 0.002 0.001-0 0-0 0l-0.006-0.003zM6.896 17.477c-0.008-0.204 0.062-0.348 0.061-0.564 0.327 0.607-0.062 0.799-0.061 0.564z"></path>
</svg>
