<?xml version="1.0" encoding="utf-8"?>
<!-- Generated by IcoMoon.io -->
<!DOCTYPE svg PUBLIC "-//W3C//DTD SVG 1.1//EN" "http://www.w3.org/Graphics/SVG/1.1/DTD/svg11.dtd">
<svg version="1.1" xmlns="http://www.w3.org/2000/svg" xmlns:xlink="http://www.w3.org/1999/xlink" width="32" height="32" viewBox="0 0 32 32">
<path fill="#444444" d="M25.901 16.584c-0.002 0.099-0.021 0.186-0.040 0.277-0.019 0.089-0.039 0.181-0.043 0.289l-0.003 0.133 0.029 0.023c0.018 0.014 0.040 0.022 0.061 0.022 0 0 0 0 0 0 0.043 0 0.171-0.001 0.181-0.638l0-0.014-0.043-0.116-0.143 0.024z"></path>
<path fill="#444444" d="M9.847 7.732l0.109-0.025 0.016-0.021c0.041-0.054 0.052-0.102 0.032-0.141-0.020-0.040-0.066-0.059-0.119-0.042-0.046 0.014-0.149 0.079-0.129 0.155 0.018 0.067 0.070 0.074 0.091 0.074z"></path>
<path fill="#444444" d="M19.617 5.973c-0.076-0.047-0.269-0.019-0.297 0.028 0.248 0.036 0.381 0.024 0.297-0.028z"></path>
<path fill="#444444" d="M19.32 6.001c-0.012-0.002-0.024-0.003-0.037-0.005 0 0 0 0 0.035 0.017 0-0.004-0.001-0.008 0.002-0.012z"></path>
<path fill="#444444" d="M11.095 8.256c0 0 0.001 0 0.001-0 0.008-0.005 0.006-0.004-0.001 0z"></path>
<path fill="#444444" d="M10.142 8.272c0.030-0.003 0.1-0.017 0.118-0.077 0.003-0.009 0.005-0.018 0.009-0.035l0.016-0.090h-0.092c-0.067 0-0.12 0.039-0.148 0.106l-0.053 0.131 0.15-0.034z"></path>
<path fill="#444444" d="M13.524 11.112l0.022 0.012 0.116-0.018 0.054-0.003 0.021-0.031c0.031-0.046 0.029-0.13 0.021-0.186l0.090-0.194-0.098-0.014c-0.007-0.001-0.022-0.002-0.044-0.002-0.062 0-0.486 0.013-0.565 0.044l-0.044 0.028-0.003 0.048c-0.002 0.043-0.004 0.078 0.43 0.316z"></path>
<path fill="#444444" d="M12.383 10.001c0.013 0.043 0.029 0.096 0.056 0.136-0.003 0.002-0.007 0.003-0.011 0.005l-0.014 0.010c-0.055 0.041-0.095 0.074-0.099 0.121l0.009 0.051 0.023 0.024c0 0 0.002 0.005 0.003 0.012l-0.004 0.024c-0.023 0.049-0.046 0.121-0.049 0.167l-0.001 0.037 0.055 0.050h0.032c0.077 0 0.246-0.089 0.361-0.19l0.043-0.037-0.136-0.278-0.020-0.003c0.096-0.14 0.069-0.26 0.025-0.339l-0.042-0.075-0.068 0.053c-0.041 0.032-0.087 0.053-0.137 0.064l-0.118 0.022 0.073 0.093c0.004 0.007 0.012 0.035 0.017 0.052z"></path>
<path fill="#444444" d="M20.167 6.083l0.018 0.006 0.142-0.028 0.042-0.018 0.034-0.072-0.023-0.035c-0.010-0.015-0.023-0.035-0.224-0.122l-0.023-0.010-0.097 0.024-0.026-0.011-0.033 0.024c-0.028 0.021-0.042 0.053-0.036 0.086 0.004 0.022 0.014 0.090 0.227 0.156z"></path>
<path fill="#444444" d="M9.736 8.477c0.015-0.073 0.028-0.146 0.038-0.22l0.004-0.015c-0.036-0.017-0.103-0.041-0.211-0.069l-0 0 0.002 0.002-0.007 0.047c-0.005 0.024-0.015 0.069-0.191 0.133l-0.018 0.016c0.013 0.017 0.018 0.034 0.020 0.045 0.004 0.022 0.006 0.080-0.067 0.13-0.017 0.014-0.040 0.071-0.050 0.109 0.005-0.001 0.009-0.001 0.015-0.003 0.114-0.010 0.365-0.106 0.465-0.174z"></path>
<path fill="#444444" d="M10.457 8.070c0.034 0.006 0.060 0.014 0.078 0.040l0.018 0.025-0.005 0.033c-0.009 0.047-0.082 0.115-0.132 0.142-0.020 0.011-0.056 0.027-0.091 0.041-0.017 0.007-0.040 0.017-0.059 0.025 0 0 0 0 0 0-0.010 0.042-0.050 0.12-0.113 0.154 0.019 0.003 0.040 0.005 0.065 0.008 0.049-0.017 0.088-0.032 0.114-0.043l0.147-0.14-0.005 0.169 0.006 0.011-0.011 0.031c-0.010 0.029-0.033 0.043-0.055 0.053l-0.084 0.080-0.096-0.012c-0.070 0.024-0.154 0.052-0.247 0.082l0.001 0.003c0.321-0.036 0.823-0.14 1.087-0.264-0.002-0.004-0.003-0.008-0.004-0.012-0.005-0.018-0.014-0.083 0.069-0.128 0.001-0.003 0.008-0.022 0.004-0.046-0-0.004-0.001-0.007-0.002-0.010l-0.024 0.014-0.001-0.002-0.036 0.005c-0.022 0-0.064-0.005-0.092-0.039l-0.022-0.027 0.012-0.087 0.010-0.004c-0.002-0.003-0.004-0.005-0.006-0.008-0.080-0.097-0.312-0.19-0.443-0.225l-0.080 0.127z"></path>
<path fill="#444444" d="M10.086 7.833c0.002-0 0.004-0 0.006-0 0.052 0.008 0.080 0.042 0.094 0.062 0.023 0.034 0.035 0.072 0.035 0.111 0.065-0.010 0.128-0.025 0.141-0.029l0.138-0.043c-0.018-0.004-0.032-0.006-0.041-0.006h-0.112l0.042-0.103c0.023-0.053 0.078-0.095 0.136-0.138 0.014-0.011 0.030-0.023 0.046-0.036-0.092 0.013-0.188 0.024-0.221 0.024h-0.037l-0.051-0.060 0.002-0.007c-0.038 0.004-0.087 0.011-0.144 0.024l-0.003 0.008c0.003 0.005 0.005 0.010 0.007 0.015l0.011 0.035-0.022 0.037c-0.004 0.005-0.008 0.010-0.013 0.014-0.001 0.028-0.009 0.054-0.022 0.078 0.002 0.003 0.005 0.007 0.007 0.011 0.001 0.002 0.002 0.003 0.002 0.005z"></path>
<path fill="#444444" d="M10.337 8.995v-0h-0z"></path>
<path fill="#444444" d="M20.181 21.942c-0.272 0.299-0.528 0.581-0.643 1.030-0.008 0.134 0.016 0.412 0.123 0.526 0.031 0.033 0.065 0.049 0.108 0.049l0.009-0c0.526-0.058 0.905-1.254 0.951-1.751l0.006-0.064 0.050-0.003c0.022-0.056 0.055-0.227 0.067-0.499l-0.114-0.008c-0.165 0.29-0.363 0.508-0.555 0.719z"></path>
<path fill="#444444" d="M16 3.095c-7.127 0-12.905 5.778-12.905 12.905s5.778 12.905 12.905 12.905 12.905-5.778 12.905-12.905c0-7.127-5.778-12.905-12.905-12.905zM16 27.425c-6.3 0-11.425-5.125-11.425-11.425s5.125-11.425 11.425-11.425c1.665 0 3.246 0.361 4.674 1.004-0.041 0.004-0.081 0.017-0.106 0.040-0.006 0.001-0.017 0.003-0.027 0.003-0.050 0-0.092 0.033-0.104 0.082-0.013 0.053 0.011 0.11 0.057 0.134l0.021 0.011c0.020 0.010 0.032 0.017 0.040 0.021v0c0.293 0.126 0.567 0.192 0.884 0.269l0.061-0.132c-0.007-0.005-0.015-0.010-0.022-0.015l0-0.001-0 0.001c-0.001-0.001-0.003-0.002-0.004-0.003l0-0.001c-0.002-0.001-0.004-0.002-0.006-0.003-0.035-0.024-0.070-0.048-0.106-0.071 0.085 0.045 0.168 0.093 0.252 0.14l-0.042 0.003-0.045 0.067 0.020 0.056 0.016 0.013c0.091 0.075 0.195 0.115 0.307 0.12l0.136 0.006-0.031-0.053c0.208 0.128 0.41 0.264 0.609 0.405-0.367-0.121-0.821-0.241-1.039-0.274-0.005-0.001-0.423-0.071-0.585-0.166-0.075 0.009-0.384 0.053-0.759 0.121-0 0-0.228 0.051-0.666-0.156l-0.125-0.059c-0.003 0.016-0.008 0.031-0.015 0.045-0.020 0.041-0.057 0.067-0.101 0.072-0.028 0.003-0.085 0.003-0.146 0.004s-0.129 0.001-0.172 0.004c-0.119 0.010-0.209 0.022-0.256 0.032-0 0.001-0.001 0.003-0.001 0.004-0.031 0.067-0.138 0.099-0.223 0.089l-0.048-0.006c-0.059-0.007-0.151-0.019-0.232-0.026 0.003 0.012 0.003 0.025-0.002 0.041-0.018 0.060-0.084 0.060-0.11 0.060-0.122-0.001-0.439-0.139-0.485-0.24-0.014-0.032-0.012-0.066 0.006-0.094 0.030-0.046 0.091-0.066 0.205-0.066 0.116 0 0.285 0.022 0.488 0.063 0.005 0.001 0.096 0.016 0.253-0.061-0.213-0.066-0.684-0.181-1.118-0.278-0.779-0.174-0.778-0.179-0.769-0.259l0.001-0.006c-0.008-0-0.017-0-0.025-0.001-0.11-0.003-0.18-0.006-0.223-0.024-0.048 0-0.116 0.018-0.157 0.029-0.034 0.009-0.047 0.013-0.062 0.013l-0.057-0.007c-0.014 0.001-0.027 0.003-0.035 0.007-0.047 0.018-0.149 0.024-0.179 0.024h-0.067l-0.013-0.048c-0.036-0.012-0.099-0.028-0.184-0.035-0.106-0.009-0.208 0.016-0.261 0.033-0.022 0.045-0.082 0.048-0.116 0.049-0.036 0.002-0.116 0.024-0.159 0.035s-0.056 0.015-0.071 0.015l-0.040-0.007c-0.009 0-0.019 0.002-0.030 0.005-0.049 0.015-0.172 0.034-0.204 0.034h-0.034l-0.009-0.009c-0.016-0.002-0.044-0.005-0.075-0.002-0.041 0.003-0.107 0.016-0.139 0.024-0.032 0.023-0.085 0.026-0.137 0.030-0.046 0.003-0.148 0.031-0.19 0.045-0.033 0.023-0.094 0.035-0.182 0.049-0.044 0.007-0.104 0.031-0.153 0.054 0.002 0.005 0.003 0.010 0.005 0.014 0.025 0.095-0.088 0.212-0.335 0.348-0.221 0.122-0.545 0.256-0.739 0.336-0.057 0.024-0.1 0.041-0.122 0.051-0.046 0.036-0.171 0.084-0.496 0.168-0.050 0.013-0.083 0.034-0.1 0.065-0.036 0.066-0.001 0.176 0.021 0.242 0.006 0.017 0.011 0.034 0.015 0.051 0.021-0.001 0.038-0.007 0.069 0.008 0.035 0.003 0.206 0.004 0.348-0.008 0.111-0.010 0.243-0.033 0.34-0.051 0.091-0.016 0.136-0.024 0.164-0.024h0.026l0.030 0.018c0.003 0.002 0.012 0.007 0.021 0.012 0.049 0.028 0.084 0.048 0.088 0.094l0.001 0.007c0.008 0.013 0.025 0.036 0.050 0.057 0.002 0.002 0.189 0.165 0.188 0.26l0.001 0c-0 0.006 0.002 0.029 0.007 0.054 0.011 0.002 0.029 0.004 0.057 0.004 0.092 0 0.215-0.020 0.32-0.051 0.127-0.038 0.225-0.114 0.263-0.153l0.002-0.049c-0.002-0.208 0.179-0.251 0.287-0.277 0.077-0.018 0.112-0.030 0.118-0.049-0.073-0.069-0.107-0.154-0.096-0.241 0.014-0.117 0.108-0.222 0.256-0.288 0.183-0.082 0.338-0.19 0.386-0.231l0.009-0.298 0.085 0.015c0.246 0.044 0.544 0.129 0.563 0.279 0.004 0.038-0.005 0.108-0.118 0.159-0.052 0.023-0.108 0.047-0.163 0.071-0.092 0.040-0.215 0.092-0.259 0.119-0.003 0.023-0.004 0.050-0.005 0.065 0.008 0.010 0.016 0.020 0.022 0.031 0.081 0.012 0.271 0.029 0.512 0.029l0.037-0c0.263 0 0.459 0.097 0.474 0.23 0.006 0.057-0.015 0.158-0.227 0.205-0.092 0.021-0.186 0.042-0.261 0.059 0.002 0.006 0.003 0.012 0.004 0.018 0.013 0.091-0.074 0.207-0.152 0.23-0.014 0.004-0.036 0.009-0.064 0.014-0.093 0.019-0.266 0.053-0.325 0.139-0.116 0.17-0.632 0.279-0.653 0.279h-0.014c-0.046 0.006-0.209 0.037-0.436 0.093-0.066 0.016-0.137 0.025-0.211 0.025-0.046 0-0.263-0.014-0.361-0.068-0.017 0.001-0.043 0.006-0.074 0.015-0.061 0.018-0.18 0.019-0.214 0.019-0.211 0-0.259-0.033-0.276-0.046-0.023 0.017-0.050 0.029-0.073 0.029h-0.033l-0.046-0.050 0.004-0.034c0.004-0.031 0.049-0.1 0.078-0.142-0 0.001-0.001 0.002-0.001 0.003-0.005 0.044 0.031 0.086 0.054 0.102 0.004 0.003 0.010 0.003 0.015 0.006l-0.057 0.054 0.181-0.003 0.001 0.002 0.235-0.004 0.018-0.048c0.015-0.041 0.049-0.143 0.031-0.195-0.021-0.060-0.091-0.060-0.118-0.060-0.024 0-0.105 0.003-0.145 0.036-0.014 0.012-0.026 0.026-0.035 0.042-0.017-0.006-0.035-0.010-0.052-0.010 0 0-0 0-0 0-0.029 0.001-0.061 0.007-0.085 0.021 0.020-0.028 0.038-0.055 0.050-0.074-0.002-0.003-0.004-0.005-0.005-0.007-0.014-0.013-0.11-0.070-0.184-0.052-0.067 0.016-0.132 0.156-0.127 0.194 0.012 0.015 0.015 0.050 0.003 0.090-0.031 0.111-0.189 0.324-0.443 0.453-0.096 0.049-0.216 0.111-0.34 0.175-0.239 0.124-0.485 0.251-0.612 0.309-0.086 0.040-0.219 0.086-0.347 0.132-0.096 0.034-0.223 0.079-0.268 0.101-0.004 0.008-0.009 0.016-0.017 0.024-0.049 0.055-0.171 0.094-0.297 0.094l-0.016-0c-0.041 0-0.082 0.013-0.119 0.030 0.051 0.012 0.113 0.026 0.181 0.040 0.166 0.034 0.285 0.22 0.328 0.298 0.061 0.111 0.053 0.135 0.045 0.155-0.002 0.007-0.006 0.015-0.010 0.024l0.009 0.051-0.144 0.028-0.003-0.014c-0.085-0.001-0.267-0.003-0.507-0.003l-0.122 0c-0.342 0.001-0.796 0.624-0.819 0.727-0.026 0.116-0.051 0.355-0.051 0.416 0.025 0.045 0.066 0.145 0.057 0.253l-0.007 0.067c0.041 0.019 0.106 0.049 0.18 0.078 0.002 0.001 0.024 0.009 0.089 0.009 0.151 0 0.41-0.043 0.565-0.113l0.026-0.006 0.187-0.011c0.039-0.042 0.114-0.112 0.25-0.24 0.115-0.108 0.181-0.18 0.204-0.21 0.012-0.103 0.288-0.246 0.291-0.248 0.124-0.064 0.339-0.335 0.361-0.381l0.005 0.002c0.047-0.092 0.303-0.235 0.764-0.424 0.057-0.024 0.121-0.035 0.189-0.035 0.308 0 0.673 0.241 0.995 0.454 0.132 0.087 0.256 0.169 0.361 0.224l-0.068 0.132c-0.014-0.007 0.262 0.254 0.331 0.319 0.022-0.008 0.056-0.024 0.075-0.041 0.032-0.029 0.089-0.127 0.095-0.163-0.008-0.022-0.012-0.055 0.012-0.096 0.011-0.019 0.029-0.039 0.050-0.057-0.060-0.033-0.147-0.077-0.264-0.129l-0.067-0.030 0.045-0.102c-0.056-0.026-0.161-0.068-0.306-0.117-0.209-0.070-0.363-0.304-0.4-0.381-0.012-0.024-0.023-0.051-0.013-0.082l-0.003-0.001 0.002-0.051c0.005-0.061 0.080-0.094 0.112-0.105l0.031-0.005c0.105 0 0.521 0.2 0.86 0.466l0.217 0.211c0.358 0.298 0.607 0.488 0.659 0.518 0.029 0.006 0.053 0.025 0.066 0.053 0.021 0.045 0.010 0.103-0.029 0.158l-0 0.020 0.001 0.127c0.021 0.002 0.041 0.003 0.061 0.003 0.096 0 0.142-0.023 0.155-0.037-0.016-0.159-0.016-0.159 0.008-0.185l0.022-0.025 0.033-0c0.024 0 0.042 0.009 0.055 0.025 0.008-0.003 0.017-0.006 0.026-0.010-0.053-0.050-0.092-0.116-0.102-0.145l-0.012-0.035 0.005-0.011c-0.035-0.038-0.066-0.096-0.059-0.154 0.005-0.043 0.029-0.077 0.067-0.095 0.046-0.022 0.12-0.006 0.181 0.010 0.008 0.002 0.016 0.004 0.023 0.006 0.040-0.020 0.115-0.036 0.255-0.036 0.059 0 0.12 0.004 0.181 0.011 0.040 0.005 0.086 0.001 0.137-0.011 0.049-0.025 0.102-0.044 0.154-0.054 0.047-0.023 0.079-0.045 0.098-0.061l-0.002-0.001-0.008-0.043-0.004-0.173 0.019-0.027c0.21-0.234 0.348-0.399 0.38-0.443 0.006-0.041 0.027-0.104 0.054-0.147 0.025-0.040 0.067-0.057 0.263-0.057 0.501 0 0.509 0.041 0.518 0.090l0.012 0.060-0.017 0.007c0.007 0.010 0.018 0.022 0.033 0.034 0.025 0.020 0.125 0.049 0.242 0.049 0.031 0 0.060-0.002 0.085-0.007 0.011-0.002 0.021-0.005 0.030-0.008-0.011-0.015-0.018-0.033-0.019-0.053-0.008-0.083 0.072-0.169 0.19-0.203 0.071-0.020 0.174-0.034 0.263-0.034 0.115 0 0.18 0.020 0.21 0.066 0.018 0.027 0.021 0.061 0.008 0.092-0.015 0.035-0.034 0.253 0.232 0.438 0.145 0.1 0.204 0.198 0.175 0.29-0.038 0.123-0.215 0.178-0.53 0.16l-0.866 0.131-0.072 0.001c-0.454 0-0.967-0.009-1.168-0.021l-0.020-0.001c-0.021 0-0.041 0.002-0.060 0.005-0.046 0.021-0.095 0.039-0.144 0.051 0.018 0.016 0.029 0.036 0.029 0.063l0 0.028-0.005 0.158-0.054 0.014c-0.008 0.002-0.013 0.005-0.015 0.006 0.003-0.001 0.009 0.012 0.030 0.031l0.058 0.053c0.132 0.119 0.196 0.178 0.226 0.214 0.025 0.001 0.075 0.002 0.137-0.001 0.014-0.001 0.031-0.001 0.052-0.001 0.167 0 0.596 0.026 0.768 0.067 0.021 0.005 0.048 0.011 0.078 0.017 0.275 0.059 0.527 0.123 0.598 0.264 0.024 0.049 0.025 0.102 0 0.154-0.083 0.178-0.157 0.701-0.161 0.792 0.020 0.046 0.029 0.072 0.008 0.104l-0.022 0.034-0.082 0-0.008-0.012c-0.092-0.014-0.425-0.039-0.813-0.043l-0.020-0.003-0.722-0.207c-0.49-0.119-0.813-0.184-0.857-0.184-0.005 0.002-0.042 0.003-0.094 0.006-0.091 0.003-0.237 0.009-0.374 0.027l-0.005 0.162c0.001 0.031-0 0.086-0.001 0.132l0.003 0.075-0.042 0.021c-0.022 0.011-0.062 0.025-0.165 0.025-0.193 0-0.529-0.046-0.858-0.117-0.188-0.041-1.126-0.263-1.124-0.639 0.004-0.075 0.037-0.127 0.064-0.17 0.024-0.037 0.038-0.062 0.039-0.090l-0-0.017c-0.037-0.047-0.056-0.098-0.052-0.142 0.003-0.026 0.013-0.049 0.031-0.067 0.003-0.014 0.003-0.036-0-0.053-0.11 0.013-0.584 0.119-0.962 0.263l-0.025 0.005-1.311 0.019c-0.416 0.079-0.96 0.468-1.175 0.848-0.012 0.021-0.304 0.531-0.785 0.867-1.045 0.683-1.047 1.767-1.047 1.778 0.005 0.509 0.051 0.912 0.082 0.976 0.017 0.035 0.076 0.249 0.083 0.364 0.028 0.049 0.208 0.348 0.427 0.699 0.005 0.009 0.547 0.862 1.166 0.862 0.063 0 0.126-0.009 0.186-0.027 0.258-0.076 0.487-0.090 0.709-0.103 0.232-0.014 0.472-0.029 0.754-0.115 1.239-0.376 1.239-0.376 1.252-0.376h0.125l-0.060 0.11c-0.175 0.317-0.193 0.515-0.163 0.565 0.003 0.005 0.006 0.010 0.021 0.010l0.037-0.003c0.278 0 0.869 0.787 1.047 1.086 0.040 0.067 0.973 1.665 0.207 2.78-0.686 0.999 0.737 2.818 0.751 2.836 0.294 0.371 0.698 0.621 0.89 0.621h0.005c0.211-0.004 1.138-0.189 1.572-0.376l0.040-0.311 0.021-0.018c0.337-0.291 0.806-0.632 1.073-0.785l0.009-0.775c0.026-0.579 0.516-0.795 0.537-0.803 0.454-0.193 0.746-0.449 0.756-0.549 0.014-0.139-0.164-0.807-0.387-1.195-0.025-0.043-0.212-0.443 0.774-1.275 0.526-0.476 1.752-1.585 1.816-2.599-0.112 0.027-0.357 0.116-0.698 0.277-0.012 0.006-0.288 0.134-0.611 0.134-0.371 0-0.655-0.172-0.82-0.497-0.039-0.077-0.047-0.157-0.055-0.235-0.006-0.062-0.012-0.12-0.033-0.173-0.056-0.142-0.162-0.276-0.274-0.418-0.099-0.125-0.201-0.254-0.272-0.396-0.093-0.185-0.159-0.381-0.223-0.57-0.073-0.216-0.142-0.421-0.248-0.613-0.258-0.467-0.346-0.703-0.35-0.713-0.222-0.604-0.2-0.635-0.176-0.668l0.022-0.032 0.041-0.001c0.048 0 0.073 0.042 0.087 0.064 0.038 0.062 0.156 0.113 0.217 0.115 0.063-0.154 0.072-0.174 0.125-0.174h0.035l0.045 0.055-0.008 0.045c0.001 0.033 0.078 0.255 0.196 0.456 0.107 0.182 0.455 0.668 0.71 1.023l0.092 0.128c0.003 0.005 0.083 0.116 0.335 0.539 0.030 0.050 0.139 0.352 0.172 0.443 0.157 0.437 0.303 0.737 0.353 0.795 0.002 0 0.005 0 0.008 0 0.088 0 0.32-0.054 0.556-0.146 0.271-0.105 0.951-0.429 1.003-0.466l0.001 0.002c0.104-0.094 0.489-0.286 0.729-0.4 0.324-0.155 0.581-0.713 0.63-0.857-0.013-0.014-0.029-0.032-0.047-0.056-0.033-0.020-0.094-0.063-0.223-0.153-0.104-0.073-0.266-0.275-0.322-0.39-0.062 0.016-0.202 0.077-0.374 0.222-0.066 0.056-0.138 0.084-0.212 0.084-0.158 0-0.273-0.128-0.316-0.183-0.028-0.037-0.093-0.13-0.076-0.194 0.004-0.014 0.003-0.042 0-0.064-0.14-0.066-0.441-0.359-0.636-0.605-0.017-0.022-0.165-0.215-0.094-0.363 0.042-0.088 0.144-0.132 0.302-0.132l0.017 0c0.267 0.010 0.352 0.195 0.42 0.343 0.032 0.069 0.061 0.134 0.105 0.18l0.312 0.306c0.073-0.008 0.153-0.012 0.236-0.012 0.314 0 0.633 0.058 0.812 0.148 0.199 0.099 0.62 0.234 0.711 0.256 0.077-0.026 0.211-0.034 0.212-0.034h0c0.128 0 0.471 0.172 0.563 0.318 0.033 0.053 0.158 0.144 0.249 0.21 0.139 0.101 0.183 0.135 0.191 0.185l0.004 0.031-0.020 0.031c-0.005 0.007-0.012 0.014-0.019 0.023-0.030 0.034-0.059 0.070-0.047 0.093 0.014 0.024 0.116 0.066 0.195 0.066 0.007 0 0.012-0 0.015-0.001 0.016-0.016 0.039-0.040 0.062-0.064 0.088-0.093 0.095-0.1 0.13-0.101 0.032 0.005 0.1 0 0.111 0.252 0.004 0.098 0.082 0.711 0.174 1.152l0.222 0.453c0.113 0.355 0.222 0.521 0.271 0.564 0.064-0.122 0.15-0.476 0.149-0.776l0.004-0.288c-0.007-0.29 0.192-0.509 0.2-0.518 0.491-0.533 0.605-0.616 0.646-0.629 0.004-0.004 0.008-0.008 0.012-0.012 0.021-0.020 0.045-0.042 0.080-0.042h0.047l0.012 0.023c0.020 0.006 0.058 0.012 0.084 0.012l0.019-0.001c0.056 0 0.199 0.045 0.323 0.46 0.033 0.111 0.070 0.209 0.103 0.288 0.018 0.261 0.030 0.524 0.030 0.79-0 6.299-5.125 11.424-11.425 11.424zM20.72 9.569c-0.001-0.022-0.009-0.218 0.095-0.328 0.152-0.161 0.434-0.053 0.84 0.364l0.074 0.076-0.097 0.043c-0.041 0.018-0.483 0.040-0.68 0.047 0.039 0.039 0.095 0.077 0.154 0.116 0.114 0.076 0.241 0.161 0.291 0.293 0.118-0.020 0.23 0.011 0.28 0.070 0.046 0.054 0.064 0.16 0.037 0.218-0.016 0.034-0.046 0.055-0.082 0.055l-0.119-0.011c-0.001 0.038 0.010 0.063 0.018 0.066 0.119 0.051 0.165 0.374 0.168 0.461l0.032 0.18-0.069 0.015c-0.053 0.012-0.112 0.017-0.175 0.017-0.378 0-0.929-0.22-0.981-0.633l-0.011-0.087 0.113 0.004c0.012-0.002 0.023-0.010 0.030-0.030 0.012-0.032 0.11-0.472 0.083-0.936zM19.382 10.038l0.006 0.010 0.036 0.065-0.017 0.009-0.031 0.004h-0.023l-0.022-0.014-0.193-0.135h0.236c-0.004 0-0.011 0-0.021 0.006l0.030 0.055zM18.102 12.386l0.061 0.002 0.007-0.007 0.052-0.050 0.029 0.023-0.003 0.075-0.119 0.080-0.026-0.102 0.058-0.019-0.060-0.003z"></path>
</svg>
