<?xml version="1.0" encoding="utf-8"?>
<!-- Generated by IcoMoon.io -->
<!DOCTYPE svg PUBLIC "-//W3C//DTD SVG 1.1//EN" "http://www.w3.org/Graphics/SVG/1.1/DTD/svg11.dtd">
<svg version="1.1" xmlns="http://www.w3.org/2000/svg" xmlns:xlink="http://www.w3.org/1999/xlink" width="32" height="32" viewBox="0 0 32 32">
<path fill="#444444" d="M15.181 17.407c-0.113 0.010-0.745 0.396-0.516 0.417 0.084 0.004 0.084 0.004 0.084 0.004 0.054-0.155 0.11-0.27 0.124-0.255s0.048 0.027 0.054 0.021c0.006-0.006 0.022-0.012 0.029-0.004s0.061 0.007 0.063-0.005c0.001-0.012 0.023-0.036 0.045-0.035s0.071 0.011 0.076 0.025-0.014 0.136-0.047 0.252c0 0 0 0 0.183 0.098 0.017-0.002 0.017-0.002 0.017-0.002 0.033-0.002 0.064 0.008 0.069 0.023s0.044 0.016 0.069 0.005c0.025-0.011 0.007-0.144-0.049-0.234 0 0 0 0 0.108-0.064 0.010 0.014 0.010 0.014 0.010 0.014 0.016 0.021 0.030 0.038 0.030 0.037s0.013 0.026 0.028 0.064c0.016 0.038 0.146-0.133 0.269-0.387 0 0 0 0-0.231-0.258-0.020-0.020-0.061-0.061-0.116-0.061-0.053 0.107-0.289 0.258-0.299 0.344z"></path>
<path fill="#444444" d="M14.376 16.054c0.027-0.040 0.063-0.055 0.106-0.045 0.004 0.057-0.017 0.103-0.064 0.138-0.002 0.024-0.002 0.024-0.002 0.024 0.059 0.039 0.126 0.062 0.149 0.050s0.109 0.014 0.136 0.052c0.027 0.038 0.149 0.062 0.139 0.041s0.128-0.025 0.252 0.053c0 0 0 0 0.061 0.116 0.034-0.022 0.048-0.052 0.042-0.092-0.033-0.065-0.082-0.093-0.145-0.082 0.004-0.024 0.004-0.024 0.004-0.024 0.029-0.030 0.045-0.056 0.036-0.058s-0.039 0-0.054 0.013c-0.014 0.013-0.060-0.011-0.074-0.052s-0.138-0.074-0.163-0.065c-0.024 0.009-0.048 0.041-0.049 0.048s-0.040-0.024-0.085-0.080c-0.045-0.055-0.030-0.361 0.024-0.559 0 0 0 0-0.005-0.316-0.023 0.011-0.023 0.011-0.023 0.011-0.047 0.029-0.095 0.027-0.106-0.005s-0.2 0.234-0.316 0.597c0 0 0 0-0.017 0.112-0.001 0.030 0.132 0.123 0.155 0.122z"></path>
<path fill="#444444" d="M14.358 14.487c0.186-0.017 0.374-0.613 0.165-0.632-0.193 0.015-0.469 0.624-0.165 0.632z"></path>
<path fill="#444444" d="M14.338 20.054c0.107 0.007 0.054-0.117 0.055-0.19 0.001-0.044-0.004-0.097 0.021-0.137 0.012-0.020 0.117-0.078 0.116-0.072-0.032 0.173-0.032 0.173-0.032 0.173 0.065 0.135 0.173 0.234 0.239 0.221s0.082-0.159 0.029-0.21c0 0 0 0-0.002-0.032-0.001-0.011-0.001-0.011-0.001-0.011 0.014-0.016 0.006-0.126-0.018-0.244 0 0 0 0-0.017-0.113-0.014-0.089-0.044-0.085-0.080-0.141-0.055-0.087-0.067-0.191 0.039-0.264 0.056-0.038 0.14-0.027 0.204-0.020 0.041 0.004 0.092 0.030 0.14 0.043 0.024 0.006 0.047 0.009 0.067 0.005 0.092-0.022 0.092-0.022 0.092-0.022 0.086-0.142-0.009-0.263-0.213-0.27 0 0 0 0-0.206-0.039-0.19-0.036-0.292 0.040-0.397 0.198-0.114 0.174-0.291 0.46-0.269 0.674 0.011 0.102 0.099 0.442 0.232 0.451z"></path>
<path fill="#444444" d="M15.329 16.972c0 0 0 0 0.026 0.043 0.016-0.003 0.016-0.003 0.016-0.003 0.029 0.003 0.052-0.049 0.052-0.114 0 0 0 0-0.046-0.054 0.028-0.002 0.028-0.002 0.028-0.002 0.048 0.002 0.094-0.009 0.102-0.025s0.015-0.070-0-0.087c-0.015-0.016-0.023-0.047-0.019-0.068s-0.003-0.068-0.013-0.068c-0.009-0-0.027-0.012-0.025-0.026s-0.018-0.047-0.047-0.055c-0.029-0.008-0.052-0.015-0.115-0.013-0.017-0.001-0.017-0.001-0.017-0.001-0.031 0.014-0.019 0.048 0.028 0.075s0.040 0.172-0.006 0.206c0 0 0 0-0.062-0.024-0.003 0.009-0.003 0.009-0.003 0.009-0.001 0.017 0.009 0.049 0.022 0.072s0.079 0.086 0.076 0.135z"></path>
<path fill="#444444" d="M14.659 16.33c0.009 0.011 0.065 0.004 0.078 0.001-0.010-0.010-0.065-0.004-0.078-0.001z"></path>
<path fill="#444444" d="M16.297 12.452c0.007 0.010 0.017 0.018 0.025 0.027-0.017 0.027-0.036 0.054-0.058 0.082 0 0 0 0 0.213 0.016-0-0.002-0-0.003-0-0.005 0.006 0.002 0.011 0.004 0.017 0.005 0.002 0.006 0.004 0.011 0.006 0.018 0.051-0.002 0.078-0.004 0.091-0.004 0.411 0.026 1.063-0.293 1.292-0.407 0.304-0.151 0.79-0.155 0.965-0.47 0.205-0.368-0.043-0.724 0.101-1.034 0.034-0.074 0.093-0.146 0.185-0.214 0.029-0.008 0.057-0.017 0.082-0.029 0 0 0 0 0.206-0.11-0.021-0.008-0.021-0.008-0.021-0.008-0.007-0.007-0.012-0.014-0.018-0.021 0.154-0.101 0.155-0.101 0.155-0.101 0.279-0.34 0.331-0.579 0.116-0.531 0 0 0 0-0.201-0.018-0.131-0.012-0.213-0.135-0.369-0.136-0.259-0.001-0.378 0.145-0.454 0.371-0.036 0.107-0.046 0.22-0.047 0.336-0.036 0.043-0.062 0.072-0.070 0.072-0.014 0.001-0.041-0.002-0.038 0s0.001 0.002-0.009-0.004c-0.010-0.006-0.042 0.043-0.055 0.119 0 0 0 0-0.092 0.041 0.047 0.052 0.062 0.115 0.043 0.188 0.075 0.010 0.143-0.016 0.204-0.076-0.151-0.152-0.108-0.125 0.024-0.14 0.018 0.293 0.053 0.592-0.11 0.839-0.364 0.553-1.078 0.466-1.624 0.592-0.121 0.028-0.337 0.129-0.473 0.258-0.067 0.012-0.121 0.044-0.129 0.117-0.001 0.023-0.001 0.023-0.001 0.023 0.007 0.004 0.015 0.008 0.022 0.012-0.023 0.062-0.020 0.126 0.022 0.19z"></path>
<path fill="#444444" d="M6.636 17.519c-0.001 0.242 0.399 0.045 0.062-0.58 0.002 0.222-0.070 0.37-0.062 0.58z"></path>
<path fill="#444444" d="M15.601 11.955c0.006-0.009 0.010-0.037 0.009-0.077-0.011 0.057-0.015 0.086-0.009 0.077z"></path>
<path fill="#444444" d="M18.238 20.66c0 0 0 0 0.030 0.001 0.248-0.006 0.343 0.215 0.64 0.17 0.019-0.148 0.125-0.317 0.295-0.329 0.432-0.012 0.709 0.756 1.146 0.413-0.194 0.023-0.636-0.345-0.642-0.536 0.042-0.231 0.216-0.090-0.066-0.203-0.224-0.108-0.907-0.455-1.080-0.572 0.001-0.001 0.001-0.001 0.001-0.001-0.001-0.003-0.012-0.009-0.026-0.014 0 0-0.001-0.002-0.006-0.007 0.004 0.005-0.23-0.020-0.523-0.057 0 0 0 0-0.023-0.134-0.138 0.014-0.402 0.37-0.53 0.371-0.216-0.012-0.238-0.317-0.236-0.436-0.055-0.012-0.686-0.262-0.699 0.052 0.004 0.23 0.512 0.206 0.61 0.195-0.055 0.081-0.055 0.081-0.055 0.081-0.168 0.022-0.231 0.088-0.138 0.147 0 0 0 0-0.011 0.12 0.004 0.016 0.004 0.016 0.004 0.016 0.036 0.001 0.086-0.012 0.11-0.030s0.064-0.080 0.064-0.068c0 0.012 0.324 0.229 0.722 0.463 0 0 0.084 0.050 0.265 0.222-0.030 0.018-0.030 0.018-0.030 0.018-0.080 0.065 0 0.117 0.177 0.117z"></path>
<path fill="#444444" d="M18.528 19.576c0.002 0.002 0.002 0.003 0.003 0.004h0c0 0 0 0-0.004-0.004z"></path>
<path fill="#444444" d="M19.237 21.777c-0.022-0.009-0.022-0.009-0.022-0.009-0.104-0.022-0.232-0.223-0.284-0.447 0 0 0 0-0.079-0.195-0.409 0.213-0.011 1.178-0.541 1.229-0.149 0.008-0.886-0.319-0.885-0.428 0.001-0.2 0.087-0.341 0.257-0.424-0.001-0.040-0.001-0.040-0.001-0.040-0.073-0.035-0.375-0.028-0.673 0.015 0 0 0 0-0.274-0.174 0.014 0.071 0.014 0.071 0.014 0.071 0.060 0.036-0.070 0.15-0.288 0.255 0 0 0 0-0.264 0.361-0.009-0.008-0.009-0.008-0.009-0.008-0.052-0.021-0.12-0.032-0.152-0.026s-0.113 0.007-0.134-0.052c-0.021-0.059-0.209-0.089-0.259-0.058s-0.315 0.099-0.356 0.142c-0.041 0.043-0.1 0.241-0.125 0.235s-0.101-0.003-0.101 0.037c-0 0.041-0.091 0.104-0.11 0.087s-0.119-0.019-0.178 0.062c0 0 0 0 0.018 0.094-0.013 0.238-1.408 0.63-1.61 0.652-0.003-0.017-0.003-0.017-0.003-0.017-0.004-0.021-0.022-0.034-0.041-0.029s0.014 0.345 0.075 0.702c-0.019-0.010-0.019-0.010-0.019-0.010-0.024-0.032-0.049-0.048-0.056-0.036s0.101 0.398 0.253 0.834c0 0 0.078 0.223 0.080 0.368 0.069 0.462 1.714-0.136 1.888-0.16 0.447-0.061 0.86-0.224 1.314-0.164 0.2 0.027 0.473 0.42 0.559 0.421 0.137-0.009 0.137-0.009 0.137-0.009 0.162-0.181 0.283-0.263 0.269-0.182s-0.084 0.176 0.042 0.164c0 0 0 0 0.011-0.091 0.024 0.017 0.024 0.017 0.024 0.017 0.016 0.036 0.022 0.080 0.014 0.098s0.023 0.059 0.099 0.050c0 0 0 0 0.064-0.030 0.135 0.487 0.792 0.394 1.167 0.352 0.092-0.191 0.092-0.191 0.092-0.191 0.3-0.1 0.546-0.182 0.546-0.181s0.233-0.297 0.517-0.66c0 0 0.168-0.214 0.203-1.107-0.055-0.046-0.485-0.401-0.483-0.393-0.002-0.013-0.734-1.147-0.698-1.124z"></path>
<path fill="#444444" d="M13.192 20.777c0.087-0.003 0.087-0.003 0.087-0.003 0.034 0.029 0.077 0.042 0.095 0.028s-0.195-0.109-0.486-0.185c0 0 0 0-0.113-0.097 0.012 0.005 0.012 0.005 0.012 0.005 0.137-0.025 0.098-0.090-0.088-0.145 0 0 0 0-0.252-0.009-0.293 0.003-0.62-0.152-0.909-0.132-0.031-0.005-0.031-0.005-0.031-0.005-0.074 0.077 0.233 0.226 0.683 0.332 0 0 0.718 0.169 1.004 0.279-0.007-0.015-0.018-0.067-0.002-0.066z"></path>
<path fill="#444444" d="M19.159 25.627c-0.051 0.017-0.093 0.031-0.166 0.043-0.005 0.002-0.005 0.002-0.005 0.002-0.171 0.023-0.074 0.167 0.217 0.319 0 0 0 0 0.083-0.295 0.011-0.058 0.011-0.058 0.011-0.058-0.026-0.023-0.090-0.027-0.14-0.010z"></path>
<path fill="#444444" d="M21.413 20.184l0.006 0.003c0 0 0 0 0-0s-0.001-0.001-0.002-0.001-0.002-0.001-0.004-0.002z"></path>
<path fill="#444444" d="M19.969 20.098c0.009-0.001 0.018-0.004 0.027-0.005-0.018-0.010-0.030-0.011-0.027 0.005z"></path>
<path fill="#444444" d="M20.635 19.799c-0.133 0.010-0.396 0.256-0.638 0.293 0.042 0.023 0.121 0.097 0.151 0.123 0.005-0 0.005-0 0.005-0-0.008-0.006 0.221-0.056 0.511-0.111 0 0 0 0 0.022-0.212 0.002-0.031-0.018-0.093-0.051-0.093z"></path>
<path fill="#444444" d="M12.016 18.868c0.016 0.171 0.168 0.24 0.206 0.34-0.117 0.339 0.213 0.364 0.394 0.39 0.006 0.021 0.006 0.021 0.006 0.021 0.005 0.046 0.019 0.090 0.031 0.099s0.354 0.020 0.741 0.020c0 0 0 0 0.434-0.841 0.083-0.010 0.16-0.038 0.232-0.083-0.131-0.008-0.131-0.008-0.131-0.008-0.11-0.251-0.193-0.466-0.183-0.479s0.029-0.039 0.022-0.052c-0.006-0.013 0.026-0.059 0.081-0.082s0.105-0.063 0.097-0.070c-0.008-0.007 0.021-0.029 0.064-0.037s-0.030-0.16-0.166-0.268c-0.136-0.108-0.463 0.045-0.818 0.34 0 0-1.011 0.839-1.011 0.711z"></path>
<path fill="#444444" d="M10.982 19.109c0.009-0.028-0.012-0.085-0.048-0.128 0 0 0 0-0.054 0.011 0.004-0.009 0.004-0.009 0.004-0.009 0.004-0.014-0.29-0.259-0.653-0.543 0 0-0.666-0.522-0.907-0.544-0.011 0.142 0.675 1.028 0.806 1.101 0.011 0.015 0.011 0.015 0.011 0.015 0.053 0.013 0.271 0.359 0.483 0.769 0 0 0.193 0.372 0.598 0.429 0.037 0.003 0.18-0.010 0.181-0.086-0.031-0.346-0.424-0.776-0.43-0.998 0.008-0.017 0.008-0.017 0.008-0.017z"></path>
<path fill="#444444" d="M16 3.095c-6.045 0-11.119 4.157-12.52 9.768-0.012 0.032-0.024 0.064-0.036 0.098-0.033 0.092-0.050 0.198-0.058 0.305-0.19 0.881-0.291 1.796-0.291 2.734 0 7.127 5.778 12.905 12.905 12.905s12.905-5.778 12.905-12.905c0-7.127-5.778-12.905-12.905-12.905zM16 27.425c-6.3 0-11.425-5.125-11.425-11.425 0-0.634 0.054-1.255 0.154-1.862 0.080 0.037 0.162 0.089 0.196 0.14 0.065 0.099 0.325 0.285 0.301 0.32s-0.084 0.182-0.021 0.332c0 0 0 0 0.148-0 0.168-0.006 0.168-0.006 0.168-0.006 0.045-0.126 0.080-0.152 0.078-0.059s-0.013 0.347-0.014 0.347c-0.001-0.001 0.072 0.368 0.163 0.82l0.254 0.479c0.166 0.431 0.348 0.689 0.404 0.575s0.241-0.365 0.24-0.533c-0.001-0.168 0.254-0.827 0.582-1.091s0.863-0.832 0.995-0.811c0.132 0.021 0.422 0.104 0.629 0.517 0 0 0.322 0.643 0.375 0.645 0.187-0.003 0.187-0.003 0.187-0.003 0.101-0.162 0.199-0.265 0.217-0.228s0.115 0.366 0.114 0.719c-0.001 0.353 0.195 0.764 0.188 0.763s-0.037 0.046-0.056 0.103c-0.018 0.057 0.061 0.509 0.17 0.874s0.948 0.557 0.845 0.358c0 0 0 0 0.002-0.209-0.010-0.326-0.010-0.326-0.010-0.326-0.38-0.259-0.689-0.472-0.686-0.473s-0.080-0.248-0.187-0.553c-0.107-0.305 0.402-0.332 0.641-0.049s0.593 0.498 0.639 0.454c0.046-0.043 0.083-0.141 0.088-0.117 0 0 0 0 0.011 0 0.075-0.001 0.075-0.001 0.075-0.001 0.275-0.215 0.306-0.715 0.069-1.111 0 0-0.24-0.401-0.253-0.877 0.006-0.319 0.006-0.319 0.006-0.319 0.263-0.155 0.576-0.204 0.697-0.11s0.576-0.015 0.975-0.247l1.035-1.641c0.224-0.403 0.409-0.735 0.41-0.736s0.002-0.003-0.001-0.002c-0.003 0.001-0.010-0.022-0.012-0.046s-0.093-0.118-0.202-0.161c0 0 0 0-0.001-0.088 0.007-0.231 0.007-0.231 0.007-0.231 0.365-0.073 0.59-0.147 0.499-0.164s-0.285-0.128-0.305-0.070c-0.020 0.058-0.098 0.114-0.134 0.119s-0.159-0.082-0.198-0.156c-0.040-0.074-0.062-0.273 0.136-0.379s0.451-0.16 0.527-0.121c0 0 0 0 0 0.024-0.003 0.080-0.003 0.080-0.003 0.080-0.075 0.071-0.030 0.099 0.103 0.061s0.541-0.009 0.54 0.036c-0.001 0.045-0.072 0.159-0.066 0.183s0.114 0.042 0.178 0.040c0.064-0.002 0.168 0.196 0.152 0.22s-0.088 0.053-0.088 0.067c-0 0.014 0.023 0.129 0.051 0.235 0.014 0.053 0.019 0.103 0.020 0.143 0.010-0.049 0.025-0.119 0.044-0.206 0.041-0.187 0.297-0.916 0.48-1.044s0.645-0.335 0.658-0.258c0 0 0 0 0.223 0.008 0.707-0.002 1.048-0.981 1.365-1.385 0.537-0.72-0.051-0.741-0.051-0.741-0.461-0.017-0.468-0.105-0.016-0.196 0 0 1.69-0.339 2.123-0.263 0.39 0.049 0.891-0.033 0.891-0.033 0.456-0.074 0.48 0.011 0.055 0.19 0 0 0.482-0.031 0.301 0.388s-0.149 0.66 0.070 0.537c0.219-0.123 0.306-0.609 0.26-0.61s0.046-0.164 0.157-0.278c0 0 0 0 0.118-0.023 0.398-0.065 1.918 0.504 1.584 0.036l0.19 0.043c0.014-0.031 0.026-0.061 0.037-0.091 2.054 2.067 3.326 4.913 3.326 8.050 0 6.3-5.125 11.425-11.425 11.425z"></path>
</svg>
