<?xml version="1.0" encoding="utf-8"?>
<!-- Generated by IcoMoon.io -->
<!DOCTYPE svg PUBLIC "-//W3C//DTD SVG 1.1//EN" "http://www.w3.org/Graphics/SVG/1.1/DTD/svg11.dtd">
<svg version="1.1" xmlns="http://www.w3.org/2000/svg" xmlns:xlink="http://www.w3.org/1999/xlink" width="32" height="32" viewBox="0 0 32 32">
<path fill="#444444" d="M15.632 13.689c0.001-0.002 0.004-0.004 0.005-0.007-0.006-0.027-0.010-0.050-0.012-0.067 0.002 0.024 0.005 0.049 0.007 0.074zM20.872 19.412c0 0 0-0 0-0s-0.003-0-0.004-0.001c0.001 0.001 0.003 0.001 0.003 0.002zM21.007 19.429c-0.032-0.005-0.105 0.004-0.134-0.017-0.018 0.061 0.009 0.085 0.134 0.017zM15.902 2.361c-7.537 0-13.646 6.109-13.646 13.646s6.109 13.646 13.646 13.646c7.536 0 13.646-6.11 13.646-13.646s-6.11-13.646-13.646-13.646zM24.618 7.692c-0.47 0.014-0.797 0.015-1.175 0.276-0.152 0.105-0.255 0.245-0.449 0.299-0.173 0.049-0.36 0.006-0.532 0.064-0.62 0.21-0.522 1.538-1.339 1.338-0.384-0.094-0.654-0.548-0.847-0.844-0.17-0.261-0.48-0.476-0.271-0.802-0.095 0.025-0.197-0.003-0.291 0.014 0.131-0.288 0.57-0.262 0.643-0.409 0.182-0.368-0.501-0.407-0.694-0.458 0.233-0.248 0.351 0.083 0.581 0.027 0.221-0.054-0.117-0.345-0.249-0.378-0.048-0.012-0.826 0.215-0.375-0.188-0.556-0.354-1.112-0.709-1.668-1.063-0.094 0.394 0.74 0.618 1.012 0.757-0.042 0.163-0.296 0.4-0.489 0.33-0.183-0.065-0.108-0.368-0.384-0.338-0.197 0.458 0.416 0.324 0.473 0.605 0.065 0.32-0.232 0.184-0.346 0.179-0.027-0.001-0.24-0.221-0.251-0.055-0.014 0.198 0.339 0.121 0.364 0.32-0.411 0.017-0.621-0.132-0.956-0.354-0.39-0.259-0.591-0.236-1.069-0.236 0.143-0.059 0.34-0.102 0.463-0.197 0.067-0.052 0.329-0.307 0.346-0.364 0.074-0.245-0.004-0.227-0.239-0.388-0.209-0.143-0.462-0.399-0.715-0.45-0.917-0.183-0.283 0.828-0.979 0.967 0.012 0.001 0.025 0.001 0.035 0.001h-0.040c0.002-0 0.003-0.001 0.005-0.001-0.161-0.006-0.463-0.045-0.566 0.040-0.073 0.060-0.079 0.3-0.161 0.387-0.146 0.155-0.363 0.186-0.537 0.298-0.17 0.109-0.544 0.39-0.644 0.58-0.367 0.702 0.828 0.92 1.281 1.125 0.205 0.093 0.803 0.22 0.914 0.374 0.149 0.208-0.129 0.403 0.183 0.549 0.1 0.047 0.305 0.056 0.391-0.040 0.139-0.157-0.057-0.193-0.090-0.374-0.065-0.35 0.042-0.211 0.218-0.341 0.358-0.264 0.278-0.281 0.149-0.702-0.060-0.196-0.286-0.744-0.087-0.889 0.259-0.189 0.811 0.102 1.010 0.127 0.231 0.028 0.362 0.349 0.488 0.479 0.084 0.087 0.233 0.271 0.379 0.251 0.232-0.032 0.135-0.234 0.269-0.328 0.361-0.25 0.456 0.090 0.6 0.43 0.135 0.319 0.263 0.438 0.504 0.643 0.112 0.095 0.602 0.436 0.556 0.646-0.031 0.141-0.591 0.356-0.741 0.403-0.547 0.173-1.574-0.284-1.684 0.584 0.212-0.079 0.816-0.573 0.998-0.339 0.083 0.106-0.066 0.261-0.031 0.366 0.103 0.316 0.347 0.206 0.603 0.155-0.017 0.011-0.035 0.020-0.054 0.029 0.349-0.179 0.313-0.142 0.473-0.433 0.052-0.095 0.13-0.325 0.204-0.393 0.254-0.233 0.293-0.073 0.45 0.107 0.041 0.047 0.43 0.607 0.292 0.579-0.452-0.091-0.886-0.079-1.261 0.169-0.216 0.143-0.42 0.335-0.678 0.43-0.062 0.023-0.52 0.066-0.466-0.012 0.079-0.114 0.351-0.189 0.458-0.312-0.297-0.123-0.546 0.148-0.779 0.306-0.248 0.117-0.306 0.336-0.517 0.528-0.092 0.084-0.267 0.098-0.357 0.208-0.088 0.107-0.099 0.275-0.182 0.376-0.058 0.071-0.208 0.028-0.269 0.135-0.079 0.14 0.073 0.269 0.039 0.37-0.061 0.183-0.409 0.338-0.543 0.47 0.018-0.017 0.036-0.035 0.053-0.053-0.134 0.141-0.304 0.244-0.408 0.407 0.048 0.23 0.2 0.778 0.157 0.904-0.139 0.415-0.41-0.226-0.52-0.391-0.377-0.569-1.132-0.188-1.647-0.141-0.659 0.060-1.305 0.916-0.898 1.61 0.195 0.333 0.523 0.462 0.9 0.385 0.335-0.069 0.436-0.537 0.751-0.546 0.58-0.015 0.013 0.568-0.037 0.783-0.046 0.198 0.072 0.217 0.277 0.266 0.151 0.036 0.364-0.064 0.495 0.022 0.082 0.054 0.078 0.352 0.192 0.258-0.223 0.185-0.171 0.623 0.058 0.782 0.254 0.176 0.552 0.013 0.818 0.081 0.501 0.128 0.262-0.038 0.702-0.304 0.297-0.179 0.346 0.034 0.549 0.035 0.138 0.001 0.226-0.199 0.457-0.141 0.188 0.047 0.263 0.193 0.488 0.226 0.092 0.014 0.187-0.035 0.275-0.025 0.416 0.046 0.734 0.312 1.062 0.552 0.27 0.198 0.449 0.158 0.764 0.248 0.23 0.066 0.656 0.399 0.634 0.692-0.004 0.052-0.205 0.316-0.24 0.434 0.059 0.041 0.469-0.051 0.589-0.059-0.039 0.046-0.319 0.242-0.319 0.138 0 0.053 0.198 0.163 0.246 0.197 0.146-0.473 0.385-0.169 0.673-0.052 0.245 0.1 0.546 0.105 0.807 0.167 0.222 0.053 0.711 0.203 0.875 0.384 0.198 0.218 0.061 0.572-0.085 0.789-0.191 0.284-0.48 0.394-0.599 0.728-0.094 0.265-0.023 0.533-0.077 0.827-0.073 0.398-0.131 0.258-0.388 0.501-0.216 0.204-0.004 0.169-0.297 0.299-0.295 0.131-0.555 0.092-0.759 0.416 0.008-0.020 0.015-0.041 0.020-0.062-0.086 0.121-0.129 0.368-0.17 0.448-0.103 0.207-0.245 0.337-0.408 0.509-0.062 0.066-0.636 0.85-0.669 0.787-0.043-0.082-0.495 0.082-0.517-0.035 0.018 0.098-0.004 0.065 0.108 0.122-0.104 0.644-0.376 0.74-1.009 0.747 0.054 0.31-0.229 0.248-0.361 0.414-0.077 0.097-0.114 0.37-0.167 0.496-0.033 0.079-0.28 0.396-0.28 0.459-0 0.058 0.083 0.142 0.161 0.224-0.446 0.088-0.901 0.15-1.362 0.187 0.086-0.109 0.107-0.205-0.168-0.218 0.074-0.2 0.247-0.314 0.32-0.508 0.035-0.091 0.006-0.128 0.035-0.218 0.101-0.313 0.057-0.195 0-0.438-0.133-0.57 0.047-0.725 0.203-1.247 0.159-0.536 0.145-1.231 0.247-1.808 0.048-0.276 0.128-0.851 0.032-1.112-0.108-0.294-0.584-0.526-0.802-0.724-0.308-0.281-0.472-0.585-0.701-0.932-0.116-0.176-0.249-0.349-0.339-0.541-0.194-0.41 0-0.166 0.033-0.408 0.031-0.234-0.028-0.443 0.065-0.688 0.103-0.271 0.359-0.441 0.443-0.714 0.076-0.244 0.018-0.55-0.232-0.631-0.139-0.045-0.293 0.059-0.433 0.036-0.195-0.032-0.417-0.177-0.57-0.294-0.214-0.163-0.294-0.428-0.522-0.583-0.191-0.129-0.327-0.052-0.531-0.112-0.213-0.063-0.344-0.325-0.516-0.408-0.258-0.123-0.403 0.054-0.675 0.018-0.231-0.030-0.584-0.287-0.8-0.384-0.44-0.197-0.707-0.414-0.883-0.86-0.151-0.383-0.37-0.561-0.628-0.88-0.262-0.323-0.344-0.598-0.747-0.684-0.047-0.010 0.099 0.339 0.114 0.367 0.144 0.267 0.361 0.511 0.535 0.76 0.256 0.366 0.147 0.435-0.114 0.081-0.298-0.405-0.644-0.808-0.903-1.237-0.098-0.162-0.079-0.267-0.24-0.421-0.156-0.149-0.36-0.221-0.517-0.363-0.564-0.508-0.667-1.185-0.603-1.909 0.021-0.236 0.106-0.425 0.069-0.651-0.031-0.188-0.142-0.344-0.281-0.483-0.045-0.071-0.157-0.247-0.164-0.258-0.128-0.213-0.228-0.422-0.431-0.597-0.117-0.1-0.419-0.336-0.704-0.533 1.278-1.594 2.951-2.858 4.87-3.642 0.015 0.096 0.057 0.193 0.119 0.285 0.158 0.234 0.308 0.215 0.616 0.28-0.033 0.357-0.451 0.36-0.734 0.321-0.338-0.046-0.693-0.158-0.985 0.138 0.162 0.097 0.605 0.475 0.546 0.080 0.323-0.016 0.636-0.026 0.952 0.013 0.127 0.016 0.552 0.158 0.667 0.093 0.048-0.027 0.1-0.266 0.151-0.339-0.090 0-0.187-0.045-0.277-0.036 0.21-0.268 0.418-0.058 0.685 0.066-0.294 0.178-0.12 0.606 0.168 0.259 0.236-0.286-0.058-0.493-0.357-0.659 0.302-0.378 0.488-0.412 0.772 0.015 0.047-0.263 0.259-0.158 0.481-0.138v-0.066c-0.098 0.002-0.202-0.054-0.298-0.044 0.226-0.36 0.082-0.443 0.405-0.56 0.257-0.094 0.991-0.006 1.081-0.248-0.513 0.1-1.133 0.124-1.597 0.357-0.2 0.101-0.438 0.418-0.637 0.212-0.204-0.212 0.146-0.552 0.326-0.656h-0.043c0.812-0.173 1.653-0.265 2.516-0.265 0.558 0 1.106 0.041 1.644 0.115-0.186 0.098-0.048 0.164-0.184 0.264-0.259 0.19-0.719 0.349-1.027 0.47 0.392-0.001 1.34 0.367 1.522-0.182-0.126-0.019-0.253-0.039-0.379-0.058 0.236-0.157 0.499-0.283 0.776-0.376 2.494 0.494 4.712 1.759 6.4 3.534-0.012-0-0.024-0.001-0.035-0zM26.826 12.483c0.022-0.048 0.075-0.064 0.097-0.103 0.046-0.083 0.035-0.14 0.092-0.211 0.060-0.077 0.141-0.096 0.208-0.156 0.027-0.024 0.042-0.047 0.055-0.070 0.201 0.562 0.362 1.143 0.478 1.739-0.004 0.004-0.006 0.011-0.010 0.014-0.029 0.023-0.221 0.052-0.26 0.053-0.139 0.005-0.241-0.086-0.341-0.173-0.101-0.088-0.22-0.206-0.292-0.319-0.077-0.121-0.029-0.246-0.024-0.385 0.005-0.117-0.052-0.283-0.003-0.388zM26.983 18.739c-0.234-0.204-0.511-0.477-0.678-0.741-0.178-0.281-0.068-0.571-0.055-0.893 0.011-0.271-0.121-0.656-0.006-0.9 0.053-0.111 0.174-0.148 0.224-0.239 0.106-0.193 0.082-0.324 0.213-0.49 0.14-0.178 0.327-0.222 0.483-0.362 0.163-0.147 0.158-0.262 0.261-0.45 0.075-0.137 0.253-0.367 0.421-0.486 0.091 0.597 0.139 1.207 0.139 1.829 0 1.075-0.143 2.118-0.408 3.111-0.226-0.058-0.412-0.221-0.592-0.378z"></path>
</svg>
