<?xml version="1.0" encoding="utf-8"?>
<!-- Generated by IcoMoon.io -->
<!DOCTYPE svg PUBLIC "-//W3C//DTD SVG 1.1//EN" "http://www.w3.org/Graphics/SVG/1.1/DTD/svg11.dtd">
<svg version="1.1" xmlns="http://www.w3.org/2000/svg" xmlns:xlink="http://www.w3.org/1999/xlink" width="32" height="32" viewBox="0 0 32 32">
<path fill="#444444" d="M5.976 6.141v20.582h20.582v-20.582h-20.582zM22.36 19.084v2.787h-0.001l0.001 0.253c-2.704 1.365-7.193 1.754-9.782 0.008-1.568-1.058-3.114-3.161-3.030-5.821 0.080-2.527 1.718-4.789 3.971-5.928 2.59-1.31 6.499-1.062 8.778 0.824l-1.343 1.369-0.87 0.247 0.463-0.842c-0.664-0.667-1.427-1.152-2.267-1.42-1.34-0.429-2.575-0.192-3.605 0.312-2.109 1.032-3.357 3.535-2.873 6.181 0.511 2.788 2.668 5.024 5.496 5.26 0.834 0.070 1.747 0.028 2.555-0.184 0.574-0.186 0.57-0.241 0.57-0.59v-2.456l-2.833 0.084 1.459-0.821h3.939l-0.629 0.737z"></path>
</svg>
