<?xml version="1.0" encoding="utf-8"?>
<!-- Generated by IcoMoon.io -->
<!DOCTYPE svg PUBLIC "-//W3C//DTD SVG 1.1//EN" "http://www.w3.org/Graphics/SVG/1.1/DTD/svg11.dtd">
<svg version="1.1" xmlns="http://www.w3.org/2000/svg" xmlns:xlink="http://www.w3.org/1999/xlink" width="32" height="32" viewBox="0 0 32 32">
<path fill="#444444" d="M28.636 21.319c-0.074-0.074-3.221-3.222-4.877-4.876l-0.542-0.542-3.669-0.029 1.545-1.31-3.654-3.654-1.308 1.544-0.023-2.902-0.008-0.767-6.745-6.744-7.299 7.3 1.326 1.324c0.076 0.075 4.877 4.877 4.877 4.877l0.542 0.541 4.223 0.034-0.779 0.918 2.72 2.72 0.92-0.779 0.002 0.427 0.025 3.030 0.006 0.766 6.745 6.744 7.303-7.302-1.331-1.324zM12.614 14.243l-3.031-0.025c0 0-4.879-4.879-4.881-4.88l4.654-4.653 4.881 4.881 0.025 3.030-1.647 1.647zM22.664 27.299l-4.881-4.881-0.023-3.031 1.645-1.646 3.031 0.023 4.881 4.88-4.654 4.654zM12.822 22.412c-1.784-0.002-3.231-1.45-3.233-3.232 0-0.691-0.56-1.252-1.251-1.252-0.693 0-1.253 0.561-1.253 1.252 0.002 3.168 2.567 5.734 5.737 5.737 0.691 0 1.251-0.56 1.251-1.252s-0.558-1.252-1.251-1.253zM12.843 28.887c-0.002 0.001-0.002 0.002-0.002 0.003-0.004 0.005-0.006 0.011-0.010 0.017 0.004-0.007 0.008-0.015 0.012-0.020zM12.982 28.020c-0.008-0.045-0.020-0.088-0.033-0.13 0 0.002 0.002 0.002 0.002 0.004-0.002-0.006-0.004-0.012-0.006-0.018-0.014-0.041-0.029-0.081-0.047-0.119 0.006 0.011 0.010 0.022 0.014 0.034-0.004-0.012-0.010-0.022-0.014-0.034-0.006-0.012-0.010-0.024-0.014-0.035 0.002 0.006 0.004 0.013 0.006 0.017-0.039-0.085-0.088-0.166-0.145-0.241-0.043-0.053-0.088-0.103-0.137-0.149-0.037-0.035-0.076-0.067-0.118-0.098-0.020-0.015-0.045-0.031-0.068-0.045-0.063-0.040-0.133-0.075-0.202-0.103v0c-0.139-0.056-0.29-0.087-0.448-0.089-0.006 0-0.012 0-0.016 0-1.874-0-3.556-0.754-4.787-1.981-1.22-1.224-1.974-2.897-1.98-4.758 0.012-0.521-0.307-1.015-0.824-1.202-0.65-0.238-1.367 0.099-1.604 0.748-0.104 0.321-0.068 0.425-0.076 0.431 0 5.117 4.149 9.265 9.271 9.266 0.004 0 0.010 0 0.016 0 0.084-0.001 0.168-0.013 0.249-0.030 0.039-0.009 0.078-0.017 0.117-0.030 0.002-0.002 0.006-0.002 0.008-0.003 0 0 0.002 0 0.004-0.001-0.002 0-0.002 0.001-0.004 0.001 0.010-0.003 0.021-0.009 0.031-0.012-0.010 0.003-0.018 0.008-0.027 0.011 0.039-0.013 0.080-0.029 0.131-0.050 0.002-0.001 0.002-0.002 0.004-0.003-0.004 0.003-0.010 0.004-0.016 0.006 0.025-0.010 0.047-0.023 0.069-0.036-0.008 0.005-0.018 0.012-0.028 0.017 0.041-0.020 0.084-0.043 0.135-0.077-0.010 0.008-0.022 0.013-0.035 0.021 0.019-0.012 0.039-0.024 0.057-0.038-0.008 0.005-0.014 0.011-0.023 0.016 0.043-0.026 0.088-0.060 0.135-0.101-0.008 0.006-0.014 0.011-0.023 0.017 0.008-0.007 0.018-0.014 0.029-0.022 0.004-0.005 0.010-0.010 0.016-0.017 0.014-0.011 0.027-0.023 0.039-0.037 0.014-0.012 0.025-0.025 0.037-0.039 0.033-0.034 0.061-0.071 0.090-0.11 0.027-0.036 0.051-0.074 0.074-0.112 0.004-0.008 0.006-0.015 0.010-0.022 0.018-0.034 0.035-0.068 0.051-0.103 0.004-0.011 0.010-0.023 0.014-0.034 0 0.002-0.002 0.004-0.004 0.007 0.016-0.037 0.029-0.075 0.041-0.113-0.002 0.009-0.004 0.018-0.008 0.026 0.006-0.017 0.010-0.034 0.016-0.049 0.010-0.036 0.016-0.073 0.025-0.11 0.012-0.069 0.020-0.139 0.022-0.21 0-0.006 0-0.011 0-0.016s0-0.010 0-0.016c-0.002-0.079-0.012-0.155-0.027-0.229zM12.585 29.203v0c-0.002 0.001-0.004 0.003-0.006 0.006 0.002-0.003 0.004-0.005 0.006-0.006zM12.773 28.994c0.002-0.003 0.004-0.006 0.006-0.009-0.004 0.006-0.008 0.010-0.012 0.016-0.004 0.004-0.006 0.008-0.008 0.012 0.004-0.007 0.010-0.014 0.014-0.020zM12.992 28.459c-0.002 0.011-0.006 0.022-0.006 0.032-0.008 0.035-0.014 0.068-0.022 0.102 0.012-0.044 0.022-0.089 0.029-0.134zM12.962 28.601c0-0.003 0-0.006 0.002-0.008-0.002 0.002-0.002 0.005-0.002 0.008v0zM12.843 28.886c0.018-0.032 0.035-0.065 0.051-0.1-0.014 0.027-0.029 0.054-0.043 0.081-0.002 0.005-0.006 0.012-0.008 0.019zM12.902 28.763v0.002c-0.002 0.007-0.006 0.014-0.008 0.022 0.002-0.008 0.006-0.016 0.008-0.024zM12.489 27.249v0.001c0.002 0.004 0.006 0.004 0.008 0.006-0.002-0.002-0.006-0.005-0.008-0.007zM12.594 27.335c0.006 0.004 0.008 0.009 0.014 0.013 0.002 0.002 0.006 0.005 0.008 0.008-0.008-0.008-0.014-0.015-0.023-0.021zM12.737 27.487c0.002 0.003 0.004 0.008 0.008 0.010 0 0.004 0.004 0.006 0.006 0.009-0.006-0.006-0.010-0.012-0.014-0.019zM12.925 27.819c-0.004-0.011-0.008-0.020-0.012-0.029 0.006 0.015 0.012 0.029 0.019 0.045-0.002-0.005-0.004-0.011-0.006-0.016zM12.945 27.877c-0.004-0.015-0.010-0.029-0.014-0.043 0.004 0.013 0.010 0.027 0.014 0.041 0 0 0 0.001 0 0.002zM12.982 28.015c0 0.002 0 0.004 0 0.005 0 0.003 0.002 0.007 0.004 0.010-0.002-0.005-0.004-0.009-0.004-0.016zM12.138 29.456v0.001c-0.006 0.002-0.014 0.005-0.021 0.006 0.006-0.002 0.014-0.005 0.021-0.007zM11.976 29.498c0.037-0.007 0.084-0.017 0.141-0.034-0.033 0.009-0.065 0.015-0.096 0.023-0.014 0.003-0.030 0.008-0.045 0.011zM12.22 27.102v0 0zM12.42 27.204c0.002 0.001 0.002 0.001 0.002 0.001 0 0.001 0.002 0.002 0.002 0.002-0.002-0-0.002-0.002-0.004-0.003z"></path>
</svg>
