<?xml version="1.0" encoding="utf-8"?>
<!-- Generated by IcoMoon.io -->
<!DOCTYPE svg PUBLIC "-//W3C//DTD SVG 1.1//EN" "http://www.w3.org/Graphics/SVG/1.1/DTD/svg11.dtd">
<svg version="1.1" xmlns="http://www.w3.org/2000/svg" xmlns:xlink="http://www.w3.org/1999/xlink" width="32" height="32" viewBox="0 0 32 32">
<path fill="#444444" d="M16.456 18.020l-0.456 0.148-6.844-2.216-0.446 6.091c0 0 2.108 2.338 7.363 2.338s7.217-2.338 7.217-2.338l-0.564-6.053-6.27 2.030z"></path>
<path fill="#444444" d="M7.255 15.848v-0.285l8.165-4.204c0.182-0.094 0.405-0.022 0.498 0.16s0.022 0.405-0.16 0.498l-5.387 2.774 5.627 1.822 13.891-4.497-13.891-4.497-13.891 4.497 5.285 1.711-1.619 0.834v1.142c-0.246 0.298-0.403 0.746-0.403 1.247 0 0.356 0.080 0.684 0.214 0.952l-0.149 1.737 0.715-0.282 0.344 0.282 0.455-0.356 0.604 0.356-0.149-1.737c0.134-0.268 0.214-0.596 0.214-0.952 0-0.476-0.141-0.904-0.367-1.201z"></path>
</svg>
