<?xml version="1.0" encoding="utf-8"?>
<!-- Generated by IcoMoon.io -->
<!DOCTYPE svg PUBLIC "-//W3C//DTD SVG 1.1//EN" "http://www.w3.org/Graphics/SVG/1.1/DTD/svg11.dtd">
<svg version="1.1" xmlns="http://www.w3.org/2000/svg" xmlns:xlink="http://www.w3.org/1999/xlink" width="32" height="32" viewBox="0 0 32 32">
<path fill="#444444" d="M29.599 9.074v-1.559h-5.117v-5.116h-1.558v5.116h-6.136v-5.116h-1.559v5.116h-6.135v-5.116h-1.559v5.116h-5.116v1.559h5.116v6.135h-5.116v1.559h5.116v6.135h-5.116v1.558h5.116v5.116h1.559v-5.116h6.134v5.116h1.558v-5.116h6.136v5.116h1.558v-5.116h5.117v-1.558h-5.117v-6.135h5.117v-1.559h-5.117v-6.135h5.117zM9.096 9.074h6.134v6.135h-6.134v-6.135zM9.096 22.903v-6.135h6.134v6.135h-6.134zM22.924 22.903h-6.136v-6.135h6.136v6.135zM22.924 15.209h-6.136v-6.135h6.136v6.135z"></path>
</svg>
