<?xml version="1.0" encoding="utf-8"?>
<!-- Generated by IcoMoon.io -->
<!DOCTYPE svg PUBLIC "-//W3C//DTD SVG 1.1//EN" "http://www.w3.org/Graphics/SVG/1.1/DTD/svg11.dtd">
<svg version="1.1" xmlns="http://www.w3.org/2000/svg" xmlns:xlink="http://www.w3.org/1999/xlink" width="32" height="32" viewBox="0 0 32 32">
<path fill="#444444" d="M26.131 10.754c-0.508-0.508-0.737-1.187-0.692-1.851l-0.852-0.852c0 0-5.196-5.965-11.266-2.503l0.287 0.36 2.264-0.351-1.866 0.85 0.349 0.438c2.519-0.379 7.060 1.435 5.563 3.311l-4.425 4.425-0.009-0.010c-0.305 0.291-0.668 0.485-1.051 0.582l-11.929 10.896 3.735 3.734 10.872-11.903c0.099-0.416 0.308-0.811 0.632-1.136 0.040-0.040 0.083-0.077 0.126-0.114l4.745-4.745c0.61 0.001 1.262 0.192 1.727 0.657 0.486 0.486 0.716 1.129 0.696 1.765l1.404 1.404 2.904-2.904-1.363-1.363c-0.664 0.045-1.343-0.184-1.851-0.692z"></path>
</svg>
