<?xml version="1.0" encoding="utf-8"?>
<!-- Generated by IcoMoon.io -->
<!DOCTYPE svg PUBLIC "-//W3C//DTD SVG 1.1//EN" "http://www.w3.org/Graphics/SVG/1.1/DTD/svg11.dtd">
<svg version="1.1" xmlns="http://www.w3.org/2000/svg" xmlns:xlink="http://www.w3.org/1999/xlink" width="32" height="32" viewBox="0 0 32 32">
<path fill="#444444" d="M25.12 10.678c-0.052-0.004-1.279-0.106-2.358-1.185-0.991-0.991-1.499-1.002-1.504-1.002h-6.492l-3.745 3.268c0.328 0.194 0.808 0.398 1.367 0.398 0.494 0 0.985-0.16 1.459-0.477 1.129-0.752 2.025-1.219 3.003-1.219 1.023 0 2.020 0.505 3.335 1.688 2.37 2.133 4.954 4.683 4.979 4.708l0.154 0.152v2.897h3.604v-9.228l-3.802-0.001z"></path>
<path fill="#444444" d="M11.328 20.46c-0.205-0.205-0.478-0.318-0.767-0.318s-0.563 0.113-0.768 0.318l-0.288 0.288 1.535 1.535 0.289-0.289c0.423-0.423 0.423-1.112-0-1.535z"></path>
<path fill="#444444" d="M13.386 22.519c-0.205-0.205-0.478-0.318-0.768-0.318s-0.562 0.113-0.767 0.317c-0 0-0 0-0 0l-0.289 0.289 1.535 1.535 0.289-0.289c0.423-0.423 0.423-1.112 0-1.535z"></path>
<path fill="#444444" d="M14.677 24.259c-0.29 0-0.563 0.113-0.768 0.318l-0.288 0.289 1.535 1.535 0.289-0.289c0.423-0.423 0.423-1.112 0-1.535-0.205-0.205-0.477-0.318-0.768-0.318z"></path>
<path fill="#444444" d="M9.269 18.402c-0.205-0.205-0.477-0.318-0.767-0.318s-0.563 0.113-0.768 0.318l-0.289 0.289 1.535 1.535 0.289-0.289c0.423-0.423 0.423-1.112-0-1.535z"></path>
<path fill="#444444" d="M19.471 12.902l-0.001 0.001c-1.083-0.971-1.892-1.405-2.622-1.405-0.717 0-1.461 0.4-2.428 1.045-0.648 0.432-1.332 0.65-2.034 0.65-1.486 0-2.513-0.988-2.556-1.030l-0.401-0.392 4.947-4.317h5.956c0.782-0.698 0.648-1.855 0.648-1.855s-2.991 0-5.941 0c-2.95 0-3.038 0.487-5.104 2.552-1.82 1.82-3.589 1.874-3.589 1.874h-3.269v8.772h3.214l0.919-0.919c0.345-0.345 0.803-0.535 1.291-0.535s0.946 0.19 1.291 0.535c0.42 0.42 0.59 0.995 0.514 1.543 0.083-0.012 0.168-0.019 0.254-0.019 0.488 0 0.946 0.19 1.291 0.535 0.42 0.42 0.59 0.996 0.514 1.543 0.083-0.012 0.168-0.020 0.253-0.020 0.488 0 0.946 0.19 1.291 0.535 0.42 0.42 0.59 0.996 0.514 1.543 0.084-0.012 0.168-0.019 0.254-0.019 0.488 0 0.946 0.19 1.291 0.534 0.23 0.23 0.384 0.507 0.466 0.8 0.367 0.282 0.897 0.256 1.233-0.080 0.365-0.365 0.365-0.96-0-1.326l-4.37-4.37 0.733-0.733 4.37 4.37c0.366 0.365 0.96 0.366 1.326-0 0.177-0.177 0.275-0.412 0.275-0.663s-0.098-0.486-0.275-0.663l-4.37-4.37 0.733-0.733 4.37 4.37c0.366 0.365 0.96 0.365 1.326-0s0.365-0.96 0-1.326l-4.37-4.37 0.733-0.733 4.37 4.37c0.366 0.365 0.96 0.365 1.326-0s0.365-0.96 0-1.326l-4.37-4.37z"></path>
</svg>
