<?xml version="1.0" encoding="utf-8"?>
<!-- Generated by IcoMoon.io -->
<!DOCTYPE svg PUBLIC "-//W3C//DTD SVG 1.1//EN" "http://www.w3.org/Graphics/SVG/1.1/DTD/svg11.dtd">
<svg version="1.1" xmlns="http://www.w3.org/2000/svg" xmlns:xlink="http://www.w3.org/1999/xlink" width="32" height="32" viewBox="0 0 32 32">
<path fill="#444444" d="M12.9 6.387h0.264c0.703-0.002 1.273-0.571 1.275-1.275v-0.831c-0.002-0.704-0.572-1.272-1.275-1.274h-0.264c-0.703 0.002-1.273 0.571-1.273 1.274v0.831c0 0.704 0.57 1.273 1.273 1.275zM17.965 5.535v0l0.262 0.029c0.047 0.006 0.092 0.008 0.137 0.008 0.644-0.002 1.194-0.482 1.269-1.136l0.1-0.94c0.006-0.047 0.008-0.091 0.008-0.138-0.001-0.644-0.482-1.194-1.135-1.267l-0.263-0.029c-0.045-0.006-0.095-0.007-0.139-0.007-0.642 0.001-1.194 0.483-1.266 1.135l-0.102 0.941c-0.005 0.047-0.008 0.094-0.008 0.138 0.001 0.643 0.483 1.194 1.137 1.266zM22.1 7.572v0l0.261 0.046c0.072 0.011 0.146 0.019 0.221 0.019 0.608-0.001 1.144-0.434 1.255-1.052l0.197-1.112c0.010-0.075 0.017-0.147 0.017-0.221-0.001-0.608-0.434-1.144-1.053-1.255l-0.259-0.046c-0.075-0.013-0.15-0.020-0.221-0.020-0.609 0-1.145 0.434-1.256 1.053l-0.196 1.111c-0.013 0.075-0.020 0.149-0.020 0.22 0.001 0.609 0.434 1.147 1.054 1.257zM26.936 8.213l-0.251-0.084c-0.133-0.044-0.268-0.066-0.401-0.064-0.536 0-1.032 0.337-1.21 0.871l-0.275 0.823c-0.046 0.133-0.067 0.268-0.067 0.402 0 0.534 0.337 1.032 0.871 1.211l0.25 0.084c0.132 0.043 0.265 0.064 0.397 0.064 0.003 0 0.003 0 0.005 0 0.534 0 1.032-0.336 1.211-0.872l0.275-0.824c0.043-0.133 0.065-0.268 0.065-0.401-0-0.535-0.337-1.031-0.871-1.21zM13.18 9.897c0.685-0.009 1.17-0.606 1.171-1.273v-0.735c-0.001-0.668-0.486-1.265-1.171-1.275-0.687 0.010-1.171 0.607-1.171 1.275v0.735c-0 0.667 0.485 1.264 1.171 1.273zM17.868 9.053l0.007 0.001c0.016 0 0.037 0.001 0.059 0.001 0.655-0.009 1.143-0.557 1.181-1.202l0.039-0.639c0.002-0.031 0.002-0.056 0.002-0.086 0.002-0.632-0.439-1.21-1.093-1.258-0.022-0.003-0.049-0.003-0.066-0.003-0.655 0.009-1.142 0.558-1.18 1.204l-0.039 0.638c-0.003 0.029-0.003 0.059-0.003 0.086-0.003 0.632 0.439 1.211 1.093 1.258zM17.141 12.506l0.365 0.053c0.055 0.007 0.108 0.011 0.161 0.011 0.549-0.001 1.026-0.401 1.108-0.958l0.079-0.531c0.007-0.056 0.011-0.109 0.011-0.161 0-0.549-0.399-1.025-0.957-1.109l-0.365-0.053c-0.055-0.009-0.11-0.012-0.162-0.012-0.549 0.001-1.025 0.402-1.108 0.959l-0.079 0.53c-0.008 0.054-0.011 0.109-0.011 0.162 0 0.548 0.401 1.026 0.958 1.108zM11.938 12.236c0.002 0.59 0.478 1.066 1.067 1.067h0.352c0.589-0.001 1.065-0.477 1.067-1.067v-0.838c-0.002-0.588-0.478-1.066-1.067-1.067h-0.352c-0.589 0.001-1.065 0.478-1.067 1.067v0.838zM21.693 10.867l0.005 0.001c0.038 0.005 0.077 0.007 0.12 0.007 0.627-0.008 1.112-0.515 1.185-1.138l0.042-0.352c0.005-0.055 0.009-0.107 0.009-0.161 0-0.601-0.403-1.161-1.026-1.241-0.043-0.005-0.086-0.008-0.127-0.008-0.627 0.008-1.112 0.515-1.184 1.139l-0.042 0.353c-0.007 0.053-0.010 0.108-0.010 0.159-0.001 0.601 0.402 1.161 1.027 1.241zM20.598 13.791l0.357 0.122c0.122 0.041 0.246 0.061 0.368 0.061 0.477 0 0.923-0.298 1.086-0.775l0.104-0.305c0.041-0.12 0.061-0.245 0.061-0.368-0.001-0.478-0.301-0.922-0.775-1.086l-0.358-0.122c-0.123-0.042-0.247-0.061-0.369-0.061-0.477 0-0.923 0.299-1.086 0.777l-0.103 0.303c-0.042 0.12-0.061 0.245-0.061 0.368-0 0.477 0.298 0.922 0.775 1.086zM25.717 11.717c-0.101-0.029-0.205-0.044-0.307-0.044-0.548 0.005-1.017 0.394-1.176 0.939l-0.093 0.313c-0.039 0.129-0.055 0.259-0.055 0.385-0.002 0.512 0.296 1.011 0.823 1.168v0c0.097 0.029 0.197 0.043 0.298 0.043h0.005c0.549-0.005 1.017-0.393 1.177-0.938l0.092-0.314c0.038-0.129 0.055-0.258 0.055-0.385 0.004-0.511-0.296-1.009-0.82-1.167zM24.916 15.168l-0.273-0.156c-0.148-0.088-0.314-0.129-0.475-0.129-0.329 0-0.65 0.172-0.827 0.476l-0.156 0.274c-0.086 0.149-0.129 0.314-0.129 0.474 0 0.329 0.172 0.651 0.476 0.827l0.272 0.159c0.149 0.084 0.315 0.127 0.474 0.127 0.329 0 0.652-0.17 0.828-0.476l0.158-0.272c0.085-0.15 0.127-0.315 0.127-0.476 0-0.328-0.17-0.65-0.475-0.827zM23.913 19.431c-0.058-0.307-0.256-0.593-0.521-0.756l-2.588-1.494c-0.176-0.102-0.471-0.3-0.629-0.425l-1.564-1.221c-0.223-0.166-0.544-0.301-0.822-0.342l-3.275-0.425c-0.1-0.013-0.215-0.018-0.333-0.018-0.183 0-0.371 0.012-0.524 0.039l-1.242 0.227c-0.336 0.067-0.575 0.355-0.584 0.699l0.001 1.981c0.010 0.323 0.183 0.627 0.455 0.802l2.483 1.479c0.243 0.139 0.578 0.233 0.856 0.241l2.393 0.027c0.144-0.004 0.454 0.108 0.562 0.204l1.359 1.102c0.224 0.175 0.546 0.308 0.827 0.341l2.894 0.294c0.021 0.002 0.044 0.003 0.063 0.003h0.004c0.141 0 0.278-0.053 0.375-0.149 0.1-0.098 0.153-0.238 0.153-0.378 0-0.033-0.004-0.062-0.006-0.093l-0.339-2.135zM23.426 22.274l-4.457-0.18c-0.003 0-0.013-0.001-0.026-0.001-0.325 0.009-0.615 0.201-0.741 0.505l-0.646 1.661 0.028-0.788c0.001-0.009 0.001-0.017 0.001-0.021-0.006-0.335-0.238-0.617-0.568-0.687l-0.010-0.002-0.479-0.041 0.531-0.341c0.055-0.012 0.108-0.028 0.162-0.059 0.064-0.036 0.155-0.129 0.155-0.262-0.001-0.115-0.059-0.187-0.106-0.233-0.049-0.047-0.103-0.078-0.165-0.108l-1.882-0.891c-0.19-0.088-0.508-0.251-0.693-0.355l-1.87-1.041c-0.093-0.051-0.196-0.078-0.298-0.078-0.225-0.001-0.443 0.128-0.548 0.343l-0.69 1.409c-0.050 0.12-0.285 0.318-0.413 0.347 0 0-0.735 0.212-1.473 0.454-0.368 0.12-0.736 0.247-1.021 0.362-0.142 0.055-0.263 0.108-0.356 0.16-0.048 0.026-0.091 0.051-0.131 0.086-0.035 0.038-0.105 0.074-0.117 0.226 0.004 0.089 0.019 0.107 0.037 0.159 0.12 0.334 0.599 1.318 1.056 2.25 0.458 0.924 0.889 1.774 0.889 1.774 0.123 0.238 0.343 0.511 0.551 0.68l2.638 2.119c0.191 0.149 0.435 0.216 0.673 0.219 0.077 0 0.152-0.008 0.226-0.027l3.074-0.816c0.088-0.024 0.172-0.041 0.227-0.048 0.047 0.034 0.088 0.049 0.147 0.077 0.074 0.031 0.166 0.066 0.264 0.096l1.271 0.403c0.128 0.040 0.266 0.053 0.409 0.055 0.172-0.002 0.343-0.022 0.492-0.078l1.713-0.633c0.288-0.116 0.531-0.361 0.649-0.649l1.967-5.341c0.025-0.068 0.039-0.136 0.039-0.204 0.008-0.272-0.237-0.499-0.509-0.501zM7.892 17.596c0-0.048-0.002-0.093-0.006-0.136l-0.087-0.866c-0.024-0.234-0.086-0.585-0.143-0.814l-0.18-0.723c-0.092-0.323-0.362-0.559-0.693-0.607l-1.078-0.123c-0.028-0.003-0.058-0.005-0.088-0.005-0.289 0.006-0.575 0.129-0.767 0.352l-0.509 0.614c-0.124 0.152-0.175 0.339-0.176 0.523 0 0.134 0.027 0.269 0.098 0.393l2.114 3.69c0.072 0.127 0.193 0.25 0.379 0.254 0.206-0.006 0.331-0.16 0.387-0.303l0.616-1.507c0.086-0.214 0.13-0.495 0.132-0.739z"></path>
</svg>
