<?xml version="1.0" encoding="utf-8"?>
<!-- Generated by IcoMoon.io -->
<!DOCTYPE svg PUBLIC "-//W3C//DTD SVG 1.1//EN" "http://www.w3.org/Graphics/SVG/1.1/DTD/svg11.dtd">
<svg version="1.1" xmlns="http://www.w3.org/2000/svg" xmlns:xlink="http://www.w3.org/1999/xlink" width="32" height="32" viewBox="0 0 32 32">
<path fill="#444444" d="M23.141 11.462c-0.355-0.222-0.769-0.458-1.215-0.458-0.083 0-0.176 0.008-0.273 0.030l0.053-0.299c0.060-0.338 0.115-1.461-1.668-1.778-0.194-0.034-0.363-0.051-0.519-0.051-0.496 0-0.879 0.177-1.125 0.51l-0.008-0.165-0-0.011-0.001-0.011c-0.033-0.394-0.254-1.309-1.597-1.309-0.098 0-0.203 0.005-0.313 0.014-1.247 0.104-1.612 0.707-1.701 1.185-0.26-0.687-0.924-1.171-1.704-1.171-0.023 0-0.045 0-0.068 0.001-0.485 0.018-0.935 0.223-1.266 0.58s-0.504 0.82-0.486 1.307l0.081 1.785c0 0.571 0.011 1.063 0.027 1.488-0.265-0.701-0.94-1.176-1.702-1.176-0.157 0-0.314 0.020-0.466 0.061-0.47 0.124-0.864 0.424-1.109 0.845s-0.311 0.911-0.187 1.382l0.020 0.074 0.037 0.068 2.545 4.629c0.902 1.627 1.913 2.495 2.419 2.86l0.015 1.66 0.006 0.62h8.156l0.009-0.616 0.029-1.81 2.307-7.275 0.004-0.017 0.059-0.229c0.311-1.2 0.557-2.148-0.357-2.72z"></path>
</svg>
