<?xml version="1.0" encoding="utf-8"?>
<!-- Generated by IcoMoon.io -->
<!DOCTYPE svg PUBLIC "-//W3C//DTD SVG 1.1//EN" "http://www.w3.org/Graphics/SVG/1.1/DTD/svg11.dtd">
<svg version="1.1" xmlns="http://www.w3.org/2000/svg" xmlns:xlink="http://www.w3.org/1999/xlink" width="32" height="32" viewBox="0 0 32 32">
<path fill="#444444" d="M14.261 5.18c0.641 0 1.171 0.507 1.195 1.152 0 0 0.030 7.179 0.030 7.259 0 0.356 0.201 0.538 0.434 0.538 0.32 0 0.699-0.344 0.699-1.056l-0.050-1.176c-0.055-0.658 0.49-0.867 1.149-0.921 0.090-0.007 0.177-0.012 0.261-0.012 0.531 0 0.926 0.167 0.973 0.735l0.063 1.329c0.085 0.376 0.223 0.492 0.361 0.492 0.222 0 0.444-0.299 0.444-0.299l0.106-0.596c0.089-0.501 0.364-0.674 0.784-0.674 0.124 0 0.261 0.015 0.41 0.042 0.65 0.116 1.276 0.402 1.161 1.052l-0.083 0.464v-0.001c0 0-0.454 1.316-0.116 1.316 0.045 0 0.103-0.023 0.178-0.075 0.001-0.001-0-0.001 0.001-0.002l0.326-0.364c0.151-0.241 0.33-0.334 0.53-0.334 0.264 0 0.564 0.163 0.883 0.362 0.559 0.35 0.354 0.978 0.024 2.262l-2.329 7.347-0.030 2.743h-6.919l-0.018-2.835c0 0-1.33-0.725-2.493-2.823l-3.972-3.358c-0.504-0.426-0.567-1.181-0.141-1.685 0.237-0.28 0.574-0.424 0.914-0.424 0.273 0 0.546 0.093 0.771 0.283l2.272 1.785c0.171 0.134 0.317 0.206 0.441 0.206 0.485 0 0.628-1.104 0.628-3.888l-0.081-7.607c-0.025-0.661 0.492-1.215 1.151-1.238 0.014-0 0.029-0.001 0.043-0.001zM14.261 3.616c-0.033 0-0.066 0.001-0.099 0.002-0.738 0.027-1.42 0.339-1.922 0.878-0.496 0.533-0.758 1.226-0.738 1.954l0.081 7.586c-0 0.507-0.006 0.93-0.015 1.282l-0.775-0.609c-0.494-0.408-1.117-0.633-1.757-0.633-0.814 0-1.583 0.357-2.109 0.979-0.982 1.162-0.836 2.908 0.326 3.89l3.76 3.179c0.756 1.287 1.569 2.116 2.155 2.605l0.013 2.045 0.010 1.555h10.022l0.017-1.548 0.027-2.509 2.272-7.166 0.011-0.042 0.059-0.226c0.169-0.651 0.302-1.166 0.315-1.671 0.030-1.202-0.665-1.82-1.082-2.081-0.306-0.191-0.632-0.374-0.991-0.487-0.116-0.917-0.79-1.852-2.446-2.146-0.248-0.044-0.472-0.066-0.683-0.066-0.201 0-0.394 0.021-0.576 0.060-0.381-0.589-1.068-1.048-2.156-1.048-0.123 0-0.254 0.006-0.39 0.017-0.197 0.016-0.381 0.043-0.555 0.079-0.006-1.473-0.012-2.853-0.013-3.17l-0-0.025-0.001-0.025c-0.055-1.492-1.266-2.66-2.759-2.66v0z"></path>
</svg>
