<?xml version="1.0" encoding="utf-8"?>
<!-- Generated by IcoMoon.io -->
<!DOCTYPE svg PUBLIC "-//W3C//DTD SVG 1.1//EN" "http://www.w3.org/Graphics/SVG/1.1/DTD/svg11.dtd">
<svg version="1.1" xmlns="http://www.w3.org/2000/svg" xmlns:xlink="http://www.w3.org/1999/xlink" width="32" height="32" viewBox="0 0 32 32">
<path fill="#444444" d="M16.951 8.324c0.531 0 0.925 0.168 0.973 0.735l0.063 1.329c0.121 0.484 0.262 0.637 0.392 0.637 0.222 0 0.412-0.443 0.412-0.443l0.107-0.596c0.089-0.501 0.364-0.674 0.784-0.674 0.124 0 0.261 0.015 0.409 0.042 0.65 0.116 1.276 0.402 1.161 1.052l-0.083 0.463v-0.001c0 0-0.425 1.549-0.214 1.549 0.051 0 0.137-0.088 0.275-0.308-0-0.001-0-0.001 0.001-0.002l0.326-0.364c0.151-0.241 0.33-0.334 0.53-0.334 0.264 0 0.564 0.163 0.883 0.362 0.559 0.35 0.354 0.978 0.024 2.263l-2.329 7.346-0.030 2.259h-6.919l-0.018-2.351c0 0-1.33-0.725-2.493-2.823l-2.545-4.629c-0.169-0.639 0.212-1.293 0.851-1.461 0.102-0.027 0.205-0.040 0.306-0.040 0.529 0 1.014 0.354 1.155 0.89l0.728 1.639c0.188 0.148 0.313 0.23 0.394 0.23 0.281 0 0.025-0.995 0.025-3.71l-0.081-1.795c-0.024-0.66 0.492-1.214 1.151-1.238 0.014-0.001 0.029-0.001 0.044-0.001 0.641 0 1.171 0.507 1.195 1.152 0 0 0.030 0.622 0.030 0.703 0 0.502 0.4 0.922 0.725 0.922 0.222 0 0.408-0.196 0.408-0.695l-0.050-1.176c-0.055-0.658 0.49-0.867 1.149-0.921 0.090-0.007 0.177-0.011 0.262-0.011zM16.951 6.759c-0.124 0-0.256 0.006-0.392 0.017-0.725 0.060-1.271 0.267-1.67 0.558-0.461-0.345-1.034-0.548-1.656-0.548-0.033 0-0.066 0.001-0.099 0.002-0.738 0.027-1.42 0.338-1.922 0.878s-0.764 1.244-0.737 1.981l0 0.007 0 0.007 0.055 1.203c-0.228-0.061-0.467-0.094-0.712-0.094-0.238 0-0.475 0.031-0.706 0.092-0.713 0.188-1.31 0.643-1.681 1.28s-0.472 1.381-0.283 2.094l0.049 0.186 0.093 0.168 2.546 4.629c0.797 1.438 1.681 2.347 2.305 2.868l0.012 1.563 0.012 1.553h10.016l0.020-1.544 0.027-2.027 2.272-7.168 0.011-0.042 0.059-0.226c0.169-0.651 0.302-1.166 0.314-1.671 0.030-1.202-0.665-1.819-1.082-2.081-0.306-0.192-0.632-0.374-0.991-0.487-0.116-0.917-0.79-1.852-2.447-2.147-0.248-0.044-0.472-0.066-0.683-0.066-0.202 0-0.394 0.021-0.576 0.060-0.381-0.589-1.067-1.047-2.154-1.047v0z"></path>
</svg>
