<?xml version="1.0" encoding="utf-8"?>
<!-- Generated by IcoMoon.io -->
<!DOCTYPE svg PUBLIC "-//W3C//DTD SVG 1.1//EN" "http://www.w3.org/Graphics/SVG/1.1/DTD/svg11.dtd">
<svg version="1.1" xmlns="http://www.w3.org/2000/svg" xmlns:xlink="http://www.w3.org/1999/xlink" width="32" height="32" viewBox="0 0 32 32">
<path fill="#444444" d="M15.549 4.929c0.616 0 1.138 0.472 1.19 1.096l0.645 7.771c0.121 0.484 0.262 0.637 0.393 0.637 0.222 0 0.412-0.443 0.412-0.443l1.148-6.451c0.103-0.578 0.607-0.986 1.176-0.986 0.069 0 0.14 0.006 0.21 0.019 0.65 0.116 1.083 0.736 0.968 1.386l-1.124 6.318c0-0 0-0.001 0-0.001v0.001c0.001 0.025 0.029 0.939 0.335 0.939 0.105 0 0.243-0.108 0.423-0.395-0-0.001-0-0.001 0.001-0.002l1.884-4.077c0.227-0.362 0.616-0.561 1.015-0.561 0.217 0 0.436 0.059 0.634 0.182 0.559 0.351 0.729 1.089 0.378 1.649l-3.379 7.145c0 0-0.417 3.104-1.795 5.633l-0.030 2.163h-6.919l-0.018-2.255c0 0-1.33-0.725-2.493-2.822l-3.971-3.358c-0.504-0.426-0.567-1.181-0.141-1.685 0.237-0.28 0.574-0.424 0.914-0.424 0.272-0 0.546 0.093 0.771 0.282l2.272 1.785c0.239 0.187 0.535 0.323 0.807 0.323 0.689 0 1.222-0.873 0.263-4.005l-1.909-6.219c-0.194-0.632 0.161-1.3 0.791-1.494 0.117-0.036 0.235-0.053 0.351-0.053 0.511 0 0.985 0.331 1.143 0.845l1.892 6.164c0.021 0.038 0.044 0.091 0.070 0.167 0.14 0.4 0.518 0.997 0.801 0.997 0.213 0 0.371-0.339 0.332-1.358l-0.633-7.619c-0.055-0.658 0.434-1.235 1.093-1.29 0.034-0.003 0.067-0.004 0.1-0.004zM15.549 3.365c-0.076 0-0.153 0.003-0.228 0.010-1.519 0.126-2.65 1.462-2.524 2.979l0.001 0.015c-0.51-0.565-1.244-0.905-2.047-0.905-0.274 0-0.547 0.041-0.811 0.122-0.705 0.217-1.283 0.694-1.628 1.346s-0.416 1.399-0.199 2.104l1.909 6.219c0.138 0.449 0.235 0.824 0.303 1.135l-1.163-0.913c-0.493-0.407-1.116-0.631-1.756-0.631-0 0-0 0-0.001 0-0.814 0-1.583 0.357-2.108 0.978-0.476 0.563-0.704 1.278-0.643 2.013s0.406 1.401 0.969 1.877l3.76 3.179c0.756 1.288 1.57 2.117 2.156 2.606l0.012 1.467 0.012 1.553h10.015l0.021-1.543 0.025-1.79c1.144-2.26 1.619-4.768 1.748-5.565l3.25-6.872c0.731-1.277 0.327-2.921-0.931-3.71-0.44-0.276-0.947-0.421-1.464-0.421-0.387 0-0.761 0.079-1.102 0.227l0.109-0.611c0.265-1.5-0.738-2.935-2.235-3.201-0.159-0.028-0.322-0.043-0.484-0.043-0.889 0-1.692 0.422-2.199 1.091l-0.015-0.184c-0.118-1.419-1.326-2.531-2.749-2.531v0z"></path>
</svg>
