<?xml version="1.0" encoding="utf-8"?>
<!-- Generated by IcoMoon.io -->
<!DOCTYPE svg PUBLIC "-//W3C//DTD SVG 1.1//EN" "http://www.w3.org/Graphics/SVG/1.1/DTD/svg11.dtd">
<svg version="1.1" xmlns="http://www.w3.org/2000/svg" xmlns:xlink="http://www.w3.org/1999/xlink" width="32" height="32" viewBox="0 0 32 32">
<path fill="#444444" d="M25.192 9.996c-0.266-0.166-0.571-0.254-0.883-0.254-0.578 0-1.106 0.292-1.412 0.781l-0.016 0.025-0.013 0.027-1.746 3.778c-0-0.005-0.001-0.009-0.001-0.014l1.115-6.268c0.16-0.904-0.445-1.77-1.348-1.931-0.096-0.017-0.195-0.026-0.293-0.026-0.808 0-1.497 0.578-1.638 1.373l-1.054 5.923-0.614-7.394c-0.071-0.856-0.799-1.527-1.658-1.527-0.046 0-0.092 0.002-0.138 0.005-0.916 0.076-1.598 0.882-1.522 1.797l0.632 7.607c0.010 0.266 0.005 0.462-0.007 0.605-0.082-0.126-0.163-0.279-0.214-0.427-0.024-0.070-0.050-0.132-0.077-0.188l-1.88-6.125c-0.217-0.704-0.856-1.177-1.592-1.177-0.165 0-0.33 0.025-0.489 0.074-0.425 0.13-0.774 0.419-0.982 0.811s-0.251 0.844-0.12 1.269l1.909 6.219c0.761 2.486 0.459 3.168 0.348 3.317-0.043 0.058-0.087 0.080-0.162 0.080-0.144 0-0.342-0.085-0.517-0.223l-2.265-1.779c-0.299-0.25-0.678-0.388-1.067-0.388-0.492 0-0.955 0.215-1.272 0.59-0.287 0.34-0.425 0.771-0.388 1.214s0.245 0.845 0.584 1.133l3.907 3.303c0.92 1.629 1.937 2.46 2.393 2.777l0.016 2.001 0.004 0.466h7.848l0.006-0.463 0.028-1.994c1.812-2.185 1.825-5.067 1.803-5.713l3.318-7.016c0.466-0.776 0.227-1.788-0.543-2.27z"></path>
</svg>
