<?xml version="1.0" encoding="utf-8"?>
<!-- Generated by IcoMoon.io -->
<!DOCTYPE svg PUBLIC "-//W3C//DTD SVG 1.1//EN" "http://www.w3.org/Graphics/SVG/1.1/DTD/svg11.dtd">
<svg version="1.1" xmlns="http://www.w3.org/2000/svg" xmlns:xlink="http://www.w3.org/1999/xlink" width="32" height="32" viewBox="0 0 32 32">
<path fill="#444444" d="M10.686 13.811h-4.662v-5.497h-3.935v15.358h3.935v-6.435h4.662v6.435h3.935v-15.358h-3.935v5.497zM29.436 13.154c-0.196-0.895-0.566-1.731-1.102-2.497-0.679-0.964-1.593-1.646-2.695-2.006-0.658-0.216-1.445-0.323-2.372-0.337h-6.693v15.358h6.687c0.016 0 0.032 0 0.048 0 2.285 0 4.095-1.010 5.194-2.924 0.821-1.417 1.22-3.129 1.219-5.107 0-0.795-0.096-1.624-0.285-2.488zM25.292 18.421c-0.256 0.638-0.593 1.079-1 1.367-0.409 0.287-0.905 0.438-1.54 0.439h-2.311v-8.467h2.311c0.641-0 1.151 0.093 1.53 0.256 0.38 0.165 0.633 0.387 0.812 0.69 0.397 0.672 0.628 1.722 0.626 3.141 0 1.018-0.148 1.875-0.427 2.573z"></path>
</svg>
