<?xml version="1.0" encoding="utf-8"?>
<!-- Generated by IcoMoon.io -->
<!DOCTYPE svg PUBLIC "-//W3C//DTD SVG 1.1//EN" "http://www.w3.org/Graphics/SVG/1.1/DTD/svg11.dtd">
<svg version="1.1" xmlns="http://www.w3.org/2000/svg" xmlns:xlink="http://www.w3.org/1999/xlink" width="32" height="32" viewBox="0 0 32 32">
<path fill="#444444" d="M16 3.094c-7.326 0.001-13.264 5.852-13.265 13.072v4.571h2.091v-4.571c0.001-3.044 1.249-5.79 3.273-7.786 2.025-1.994 4.812-3.225 7.901-3.225s5.876 1.231 7.901 3.225c2.024 1.996 3.272 4.742 3.273 7.786v4.571h2.091v-4.571c-0.001-7.22-5.938-13.071-13.265-13.072z"></path>
<path fill="#444444" d="M24.307 14.124h-2.75c-0.422 0-0.765 0.337-0.765 0.753v8.29c0 0.416 0.342 0.754 0.765 0.754h2.75c0.422 0 0.764-0.337 0.764-0.754v-8.29c0-0.416-0.342-0.753-0.764-0.753z"></path>
<path fill="#444444" d="M10.443 23.922c0.422 0 0.764-0.337 0.764-0.754v-8.29c0-0.416-0.342-0.753-0.764-0.753h-2.75c-0.422 0-0.765 0.337-0.765 0.753v8.29c0 0.416 0.342 0.754 0.765 0.754h2.75z"></path>
<path fill="#444444" d="M17.062 24.609h-2.438c-0.531 0-0.961 0.424-0.961 0.948v1.29h-8.837v-2.439h-2.091v4.5h14.327c0.531 0 0.961-0.424 0.961-0.948v-2.403c0-0.523-0.43-0.948-0.961-0.948z"></path>
</svg>
