<?xml version="1.0" encoding="utf-8"?>
<!-- Generated by IcoMoon.io -->
<!DOCTYPE svg PUBLIC "-//W3C//DTD SVG 1.1//EN" "http://www.w3.org/Graphics/SVG/1.1/DTD/svg11.dtd">
<svg version="1.1" xmlns="http://www.w3.org/2000/svg" xmlns:xlink="http://www.w3.org/1999/xlink" width="32" height="32" viewBox="0 0 32 32">
<path fill="#444444" d="M27.734 23.226v-4.86c-0.001-3.237-1.309-6.157-3.429-8.279v0c-2.122-2.121-5.043-3.429-8.28-3.429v0c-3.237 0-6.157 1.309-8.279 3.429v0c-2.12 2.122-3.429 5.042-3.429 8.279v0 4.86h-2.191v-4.86c0.001-7.677 6.223-13.899 13.899-13.899v0c7.677 0.001 13.899 6.222 13.9 13.899v0 4.86h-2.191z"></path>
<path fill="#444444" d="M25.531 26.751c0 0.442-0.359 0.801-0.801 0.801h-2.881c-0.442 0-0.801-0.359-0.801-0.801v-8.815c0-0.442 0.359-0.801 0.801-0.801h2.881c0.443 0 0.801 0.359 0.801 0.801v8.815z"></path>
<path fill="#444444" d="M11.003 26.751c0 0.442-0.359 0.801-0.801 0.801h-2.881c-0.443 0-0.801-0.359-0.801-0.801v-8.815c0-0.442 0.359-0.801 0.801-0.801h2.881c0.443 0 0.801 0.359 0.801 0.801v8.815z"></path>
</svg>
