<?xml version="1.0" encoding="utf-8"?>
<!-- Generated by IcoMoon.io -->
<!DOCTYPE svg PUBLIC "-//W3C//DTD SVG 1.1//EN" "http://www.w3.org/Graphics/SVG/1.1/DTD/svg11.dtd">
<svg version="1.1" xmlns="http://www.w3.org/2000/svg" xmlns:xlink="http://www.w3.org/1999/xlink" width="32" height="32" viewBox="0 0 32 32">
<path fill="#444444" d="M15.991 2.381c7.518 0 13.613 6.095 13.613 13.613s-6.095 13.613-13.613 13.613c-7.518 0-13.613-6.095-13.613-13.613s6.095-13.613 13.613-13.613zM15.991 4.728c-6.212 0-11.266 5.054-11.266 11.266s5.054 11.266 11.266 11.266 11.266-5.054 11.266-11.266c0-6.212-5.054-11.266-11.266-11.266v0z"></path>
<path fill="#444444" d="M12.422 8.362c0.922-0.593 2.055-0.89 3.398-0.89 1.765 0 3.232 0.422 4.4 1.266s1.752 2.094 1.752 3.75c0 1.015-0.253 1.871-0.76 2.566-0.296 0.422-0.865 0.961-1.706 1.617l-0.829 0.645c-0.452 0.352-0.752 0.762-0.9 1.231-0.094 0.297-0.144 0.758-0.152 1.383h-3.175c0.047-1.32 0.171-2.232 0.374-2.736s0.724-1.084 1.565-1.74l0.853-0.668c0.28-0.211 0.506-0.441 0.678-0.691 0.311-0.43 0.467-0.902 0.467-1.418 0-0.594-0.173-1.135-0.52-1.623s-0.98-0.732-1.9-0.732c-0.904 0-1.545 0.301-1.923 0.902s-0.567 1.226-0.567 1.875h-3.387c0.094-2.226 0.871-3.804 2.332-4.734zM14.367 21.533h3.503v3.387h-3.503v-3.386z"></path>
</svg>
