<?xml version="1.0" encoding="utf-8"?>
<!-- Generated by IcoMoon.io -->
<!DOCTYPE svg PUBLIC "-//W3C//DTD SVG 1.1//EN" "http://www.w3.org/Graphics/SVG/1.1/DTD/svg11.dtd">
<svg version="1.1" xmlns="http://www.w3.org/2000/svg" xmlns:xlink="http://www.w3.org/1999/xlink" width="32" height="32" viewBox="0 0 32 32">
<path fill="#444444" d="M28.214 15.998c0.618-1.062 0.953-2.296 0.953-3.593 0.001-2.199-0.958-4.569-3.028-6.635-2.064-2.068-4.434-3.028-6.633-3.026-1.298-0.001-2.531 0.335-3.594 0.953-1.063-0.618-2.297-0.953-3.594-0.953-2.199-0.001-4.569 0.958-6.633 3.027-2.068 2.066-3.028 4.436-3.027 6.636-0.001 1.297 0.335 2.53 0.952 3.592-0.618 1.062-0.953 2.296-0.952 3.593-0.002 2.2 0.959 4.57 3.027 6.635 2.064 2.069 4.435 3.028 6.634 3.027h0.004c1.296 0 2.528-0.335 3.589-0.952 1.062 0.617 2.295 0.952 3.593 0.951h0.004c2.198 0 4.566-0.959 6.63-3.026 2.069-2.065 3.028-4.435 3.027-6.634 0.001-1.298-0.335-2.531-0.953-3.594zM19.506 4.309c1.742 0.002 3.706 0.75 5.527 2.568 1.819 1.821 2.567 3.786 2.569 5.528-0.001 0.792-0.156 1.54-0.444 2.216-0.004-0.004-0.007-0.008-0.011-0.012-0.002-0.002-0.005-0.004-0.008-0.006-0.631-5.128-4.693-9.199-9.831-9.832-0.002-0.002-0.003-0.004-0.005-0.006-0.004-0.004-0.008-0.008-0.012-0.012 0.676-0.288 1.424-0.444 2.216-0.445zM22.686 23.067l-2.687-2.625 0.031-0.030c2.378-2.377 2.389-6.257 0.026-8.65l2.672-2.638c3.824 3.871 3.8 10.102-0.042 13.944zM6.791 6.877c1.82-1.818 3.784-2.567 5.526-2.568 0.792 0.001 1.54 0.156 2.216 0.444-0.004 0.004-0.008 0.008-0.012 0.012-0.002 0.002-0.003 0.004-0.005 0.006-5.127 0.631-9.199 4.693-9.831 9.832-0.002 0.002-0.005 0.004-0.007 0.006-0.004 0.004-0.008 0.008-0.012 0.012-0.288-0.676-0.444-1.423-0.444-2.215 0.002-1.743 0.751-3.707 2.568-5.529zM11.813 11.611l-0.031 0.030c-2.377 2.377-2.388 6.257-0.026 8.65l-2.671 2.638c-3.824-3.871-3.801-10.102 0.042-13.944l2.686 2.626zM12.319 27.688c-1.743-0.001-3.707-0.75-5.527-2.568-1.818-1.821-2.567-3.786-2.569-5.529 0.001-0.792 0.157-1.54 0.444-2.216 0.004 0.004 0.008 0.008 0.012 0.012 0.002 0.002 0.005 0.004 0.007 0.006 0.631 5.127 4.691 9.197 9.829 9.831 0.003 0.003 0.004 0.006 0.007 0.009 0.004 0.004 0.008 0.007 0.012 0.011-0.676 0.288-1.423 0.443-2.215 0.444zM15.874 20.539c-1.215-0.011-2.332-0.482-3.194-1.35-0.85-0.865-1.306-1.977-1.309-3.19 0-0.004 0-0.011 0-0.022v-0.009c0.011-2.479 2.060-4.516 4.538-4.511h0.043c1.211 0.011 2.329 0.482 3.191 1.351 0.849 0.863 1.306 1.974 1.309 3.182v0.037c-0.009 2.479-2.060 4.516-4.538 4.511h-0.040zM25.033 25.119c-1.821 1.818-3.785 2.567-5.527 2.568-0.792-0-1.539-0.156-2.215-0.443 0.004-0.004 0.008-0.007 0.012-0.011s0.005-0.006 0.007-0.009c5.126-0.632 9.197-4.691 9.829-9.83 0.002-0.003 0.006-0.004 0.008-0.006 0.004-0.004 0.007-0.008 0.011-0.012 0.288 0.676 0.444 1.424 0.444 2.216-0.002 1.743-0.751 3.706-2.569 5.527z"></path>
</svg>
