<?xml version="1.0" encoding="utf-8"?>
<!-- Generated by IcoMoon.io -->
<!DOCTYPE svg PUBLIC "-//W3C//DTD SVG 1.1//EN" "http://www.w3.org/Graphics/SVG/1.1/DTD/svg11.dtd">
<svg version="1.1" xmlns="http://www.w3.org/2000/svg" xmlns:xlink="http://www.w3.org/1999/xlink" width="32" height="32" viewBox="0 0 32 32">
<path fill="#444444" d="M19.446 11.87c0.068-0.078 0.119-0.159 0.149-0.213v-1.184h-7.17v1.184c0.014 0.025 0.033 0.057 0.055 0.090 0.104 0.159 0.307 0.352 0.427 0.421l1.854 1.168c0.429 0.271 0.828 0.631 1.128 1.101 0.041 0.065 0.082 0.133 0.121 0.204 0.039-0.072 0.078-0.139 0.12-0.204 0.303-0.473 0.701-0.832 1.128-1.101l1.854-1.168c0.090-0.053 0.227-0.173 0.333-0.298zM20.636 14.736c0.527-0.335 0.963-0.775 1.3-1.259 0.327-0.488 0.581-1.004 0.593-1.645v-4.39h0.856v-3.27h-14.748v3.27h0.856v4.39c0.012 0.64 0.268 1.157 0.593 1.645 0.337 0.484 0.771 0.924 1.298 1.259l1.795 1.128c0.063 0.041 0.1 0.074 0.125 0.098-0.025 0.027-0.061 0.061-0.125 0.1l-1.795 1.129c-0.527 0.334-0.961 0.775-1.298 1.257-0.325 0.489-0.58 1.007-0.593 1.648v4.459h-0.856v3.269h14.749v-3.269h-0.856v-4.459c-0.012-0.642-0.266-1.159-0.593-1.648-0.335-0.484-0.773-0.923-1.3-1.257l-1.795-1.129c-0.061-0.039-0.1-0.074-0.125-0.1 0.024-0.024 0.063-0.057 0.125-0.098l1.794-1.128zM17.821 17.683l1.795 1.13c0.268 0.165 0.552 0.445 0.742 0.721 0.196 0.272 0.266 0.55 0.253 0.562v4.459h-1.016v-0.093c-0.012-0.027-0.033-0.059-0.055-0.092-0.104-0.158-0.309-0.352-0.427-0.421l-1.854-1.167c-0.427-0.27-0.826-0.629-1.128-1.102-0.043-0.065-0.082-0.133-0.12-0.202-0.039 0.070-0.080 0.139-0.121 0.203-0.303 0.471-0.699 0.831-1.128 1.101l-1.852 1.167c-0.092 0.055-0.231 0.174-0.333 0.299-0.068 0.077-0.121 0.159-0.151 0.215v0.093h-1.016v-4.459c-0.014-0.012 0.057-0.29 0.254-0.562 0.188-0.276 0.472-0.556 0.74-0.721l1.796-1.13c0.589-0.364 1.042-0.988 1.040-1.721 0.002-0.732-0.452-1.356-1.040-1.718l-1.796-1.131c-0.268-0.167-0.552-0.448-0.74-0.722-0.196-0.271-0.268-0.55-0.254-0.56v-4.39h9.201v4.39c0.012 0.010-0.057 0.289-0.253 0.56-0.188 0.274-0.474 0.555-0.742 0.722l-1.795 1.131c-0.591 0.363-1.042 0.987-1.042 1.718-0 0.734 0.452 1.357 1.042 1.721z"></path>
</svg>
