<?xml version="1.0" encoding="utf-8"?>
<!-- Generated by IcoMoon.io -->
<!DOCTYPE svg PUBLIC "-//W3C//DTD SVG 1.1//EN" "http://www.w3.org/Graphics/SVG/1.1/DTD/svg11.dtd">
<svg version="1.1" xmlns="http://www.w3.org/2000/svg" xmlns:xlink="http://www.w3.org/1999/xlink" width="32" height="32" viewBox="0 0 32 32">
<path fill="#444444" d="M19.352 26.385c-0.055-0.249-0.094-0.494-0.125-0.726h-6.483c-0.059 0.466-0.162 0.991-0.341 1.476-0.182 0.488-0.44 0.932-0.789 1.245-0.351 0.311-0.787 0.507-1.396 0.509v0.58h11.537v-0.58c-0.609-0.002-1.046-0.198-1.398-0.51-0.523-0.466-0.84-1.238-1.006-1.994zM28.756 2.542h-25.54c-0.425 0-0.77 0.344-0.77 0.77v20.212c0 0.425 0.346 0.771 0.77 0.771h25.54c0.425 0 0.77-0.346 0.77-0.771v-20.212c0-0.426-0.345-0.77-0.77-0.77zM27.656 18.994h-23.339v-14.583h23.339v14.583z"></path>
</svg>
