<?xml version="1.0" encoding="utf-8"?>
<!-- Generated by IcoMoon.io -->
<!DOCTYPE svg PUBLIC "-//W3C//DTD SVG 1.1//EN" "http://www.w3.org/Graphics/SVG/1.1/DTD/svg11.dtd">
<svg version="1.1" xmlns="http://www.w3.org/2000/svg" xmlns:xlink="http://www.w3.org/1999/xlink" width="32" height="32" viewBox="0 0 32 32">
<path fill="#444444" d="M11.233 8.507h9.534v1.834h-9.534v-1.834z"></path>
<path fill="#444444" d="M9.889 11.734h12.222v2.399h-12.222v-2.399z"></path>
<path fill="#444444" d="M8.543 17.44h3.51v3.996c0 0.326 0.265 0.592 0.592 0.592h6.709c0.326 0 0.592-0.265 0.592-0.592v-3.996h3.51v-1.727h-14.913v1.727z"></path>
<path fill="#444444" d="M23.772 4.342h-15.549l-5.27 13.643v9.672h26.093v-9.823l-5.274-13.493zM20.835 18.328v3.108c0 0.817-0.663 1.48-1.48 1.48h-6.709c-0.817 0-1.48-0.663-1.48-1.48v-3.108h-5.331l4.317-11.173h11.701l4.368 11.173h-5.386z"></path>
</svg>
