<?xml version="1.0" encoding="utf-8"?>
<!-- Generated by IcoMoon.io -->
<!DOCTYPE svg PUBLIC "-//W3C//DTD SVG 1.1//EN" "http://www.w3.org/Graphics/SVG/1.1/DTD/svg11.dtd">
<svg version="1.1" xmlns="http://www.w3.org/2000/svg" xmlns:xlink="http://www.w3.org/1999/xlink" width="32" height="32" viewBox="0 0 32 32">
<path fill="#444444" d="M9.012 22.823c-1.901 0.002-3.631-0.768-4.863-2.010v0c-1.236-1.239-1.992-2.964-1.991-4.843v0c0-1.917 0.824-3.635 2.071-4.857v0c1.247-1.223 2.944-1.995 4.783-1.998v0c1.372-0.004 2.613 0.37 3.648 0.969v0c1.039 0.598 1.879 1.396 2.611 2.244v0c0.261 0.305 0.511 0.619 0.751 0.935v0c0.171-0.228 0.345-0.455 0.525-0.678v0c0.924-1.136 2.017-2.219 3.487-2.879v0c0.836-0.375 1.787-0.592 2.806-0.59v0c3.74 0.010 6.841 3.047 6.854 6.854v0c-0.002 1.934-0.859 3.649-2.111 4.863v0c-1.255 1.214-2.934 1.985-4.743 1.991v0c-0.008 0-0.017 0-0.025 0v0c-1.331 0-2.537-0.381-3.535-0.981v0c-1.009-0.603-1.822-1.4-2.534-2.245v0c-0.251-0.301-0.492-0.608-0.724-0.919v0c-0.176 0.232-0.357 0.462-0.543 0.688v0c-0.948 1.141-2.081 2.223-3.591 2.875v0c-0.858 0.37-1.83 0.583-2.875 0.581v0zM9.012 19.694c0.83-0.004 1.466-0.2 2.088-0.553v0c0.618-0.353 1.213-0.891 1.8-1.573v0c0.414-0.476 0.816-1.019 1.222-1.597v0c-0.351-0.5-0.699-0.974-1.056-1.401v0c-0.783-0.947-1.569-1.636-2.415-1.997v0c-0.488-0.208-1.006-0.326-1.639-0.327v0c-0.94-0.003-1.888 0.409-2.59 1.1v0c-0.703 0.693-1.134 1.618-1.134 2.624v0c0.007 2.071 1.626 3.718 3.724 3.724v0zM18.975 17.382c0.769 0.952 1.534 1.64 2.332 1.993v0c0.46 0.203 0.941 0.316 1.532 0.319v0c0.881 0.006 1.846-0.407 2.563-1.107v0c0.72-0.701 1.163-1.63 1.161-2.617v0c-0-1.023-0.42-1.946-1.107-2.63v0c-0.688-0.682-1.618-1.095-2.617-1.094v0c-0.774 0.004-1.363 0.192-1.956 0.54v0c-0.588 0.349-1.166 0.887-1.742 1.572v0c-0.408 0.48-0.807 1.029-1.214 1.613v0c0.351 0.504 0.696 0.981 1.048 1.411v0z"></path>
</svg>
