<?xml version="1.0" encoding="utf-8"?>
<!-- Generated by IcoMoon.io -->
<!DOCTYPE svg PUBLIC "-//W3C//DTD SVG 1.1//EN" "http://www.w3.org/Graphics/SVG/1.1/DTD/svg11.dtd">
<svg version="1.1" xmlns="http://www.w3.org/2000/svg" xmlns:xlink="http://www.w3.org/1999/xlink" width="32" height="32" viewBox="0 0 32 32">
<path fill="#444444" d="M14.399 14.037l-2.683 6.749c-0.27 0.652-1.573 3.797-1.573 5.637 0 1.457 0.958 2.109 2.339 2.109 3.873 0 8.359-4.755 8.359-5.867 0-0.345-0.268-0.575-0.459-0.575-0.537 0-2.647 3.26-3.797 3.26-0.307 0-0.459-0.269-0.459-0.537 0-0.613 0.422-1.573 0.651-2.148l2.761-7.476c1.38-3.72-0.384-4.717-2.032-4.717-2.224 0-4.219 1.112-5.752 2.569-0.499 0.499-2.186 2.109-2.186 2.799 0 0.23 0.23 0.499 0.499 0.499 0.689 0 2.53-3.336 3.948-3.336 0.307 0 0.652 0.345 0.384 1.035zM16.469 6.484c0 1.573 1.036 2.609 2.608 2.609 1.726 0 3.182-1.304 3.182-3.068 0-1.573-1.111-2.607-2.646-2.607-1.687 0-3.144 1.38-3.144 3.067z"></path>
</svg>
