<?xml version="1.0" encoding="utf-8"?>
<!-- Generated by IcoMoon.io -->
<!DOCTYPE svg PUBLIC "-//W3C//DTD SVG 1.1//EN" "http://www.w3.org/Graphics/SVG/1.1/DTD/svg11.dtd">
<svg version="1.1" xmlns="http://www.w3.org/2000/svg" xmlns:xlink="http://www.w3.org/1999/xlink" width="32" height="32" viewBox="0 0 32 32">
<path fill="#444444" d="M24.375 9.083l-5.398-5.398h-11.786v24.63h17.618v-18.798l-0.433-0.433zM23.329 26.835h-14.658v-21.67h8.37c2.199 0 1.139 5.212 1.139 5.212s5.083-1.235 5.148 1.095c0 3.967 0 15.362 0 15.362z"></path>
<path fill="#444444" d="M12.508 12.542c-0.19-0.202-0.282-0.479-0.276-0.829h-1.298c0.061 0.724 0.285 1.274 0.672 1.648s0.924 0.586 1.611 0.635v0.782h0.543v-0.782c0.46-0.031 0.838-0.123 1.132-0.276s0.529-0.328 0.704-0.525c0.175-0.197 0.296-0.397 0.364-0.603s0.101-0.376 0.101-0.511c0-0.153-0.011-0.328-0.032-0.525s-0.090-0.393-0.207-0.589c-0.117-0.196-0.298-0.385-0.543-0.566s-0.595-0.333-1.049-0.456c-0.086-0.024-0.168-0.046-0.244-0.064s-0.152-0.037-0.225-0.055v-1.63c0.209 0 0.387 0.086 0.534 0.258s0.224 0.38 0.23 0.626h1.307c-0.019-0.319-0.086-0.595-0.203-0.829s-0.267-0.428-0.451-0.584c-0.184-0.157-0.397-0.279-0.64-0.368s-0.502-0.149-0.778-0.18v-0.709h-0.543v0.709c-0.276 0.019-0.543 0.072-0.801 0.161s-0.485 0.215-0.681 0.378c-0.197 0.163-0.355 0.363-0.474 0.603s-0.179 0.515-0.179 0.829c0 0.307 0.052 0.563 0.156 0.769s0.244 0.378 0.419 0.516c0.175 0.138 0.373 0.248 0.594 0.331s0.445 0.155 0.672 0.216c0.062 0.012 0.118 0.026 0.171 0.041s0.093 0.029 0.124 0.041v1.924c-0.282-0.055-0.519-0.184-0.709-0.386zM13.76 11.161c0.362 0.098 0.618 0.207 0.769 0.327s0.226 0.299 0.226 0.539c0 0.147-0.031 0.275-0.092 0.382s-0.14 0.198-0.235 0.272c-0.095 0.074-0.203 0.13-0.322 0.17s-0.235 0.066-0.345 0.078v-1.768zM12.581 9.43c-0.129-0.11-0.193-0.267-0.193-0.469 0-0.129 0.023-0.241 0.069-0.336s0.109-0.175 0.189-0.239c0.080-0.064 0.169-0.112 0.267-0.143s0.199-0.046 0.304-0.046v1.501c-0.295-0.068-0.506-0.157-0.635-0.267z"></path>
<path fill="#444444" d="M10.801 16.146h10.398v1.48h-10.398v-1.48z"></path>
<path fill="#444444" d="M10.801 19.006v5.651h10.398v-5.651h-10.398zM12.281 20.485h1.874v2.692h-1.874v-2.692zM19.719 23.177h-4.083v-2.692h4.083v2.692z"></path>
</svg>
