<?xml version="1.0" encoding="utf-8"?>
<!-- Generated by IcoMoon.io -->
<!DOCTYPE svg PUBLIC "-//W3C//DTD SVG 1.1//EN" "http://www.w3.org/Graphics/SVG/1.1/DTD/svg11.dtd">
<svg version="1.1" xmlns="http://www.w3.org/2000/svg" xmlns:xlink="http://www.w3.org/1999/xlink" width="32" height="32" viewBox="0 0 32 32">
<path fill="#444444" d="M20.887 4.1h-10.022c-0.958 0-1.735 0.777-1.735 1.735v20.352c0 0.958 0.776 1.735 1.735 1.735h10.022c0.96 0 1.735-0.777 1.735-1.735v-20.352c0-0.958-0.776-1.735-1.735-1.735zM14.743 5.577h2.267v0.753h-2.267v-0.753zM15.877 27.011c-0.611 0-1.107-0.495-1.107-1.106s0.496-1.106 1.107-1.106c0.611 0 1.105 0.496 1.105 1.106s-0.495 1.106-1.105 1.106zM21.323 24.101h-10.893v-16.181h10.893v16.181z"></path>
</svg>
