<?xml version="1.0" encoding="utf-8"?>
<!-- Generated by IcoMoon.io -->
<!DOCTYPE svg PUBLIC "-//W3C//DTD SVG 1.1//EN" "http://www.w3.org/Graphics/SVG/1.1/DTD/svg11.dtd">
<svg version="1.1" xmlns="http://www.w3.org/2000/svg" xmlns:xlink="http://www.w3.org/1999/xlink" width="32" height="32" viewBox="0 0 32 32">
<path fill="#444444" d="M28.275 10.213l0.464-1.247-1.199-1.38-2.666-3.447-1.551-0.761h-14.285l-1.473 0.667-3.556 4.046 0.004 0.009-0.753 0.866 0.26 5.314 0.197 0.857 1.149 2.366-1.229 3.399-0.117 0.667v5.091l1.961 1.961h20.97l1.813-2.71-0.906-2.193 1-4.182 0.016-0.839-1.1-5.53 0.999-2.954zM12.496 22.007v2.112h-1.243c-0.755 0-1.452-0.402-1.829-1.056s-0.377-1.459 0-2.112l1.499-2.596-1.683-0.974 4.447-1.654 0.78 4.68-1.705-0.987-1.492 2.578-0.008-0.005-0.008 0.013h1.243zM15.607 14.465l-0.496 0.859-1.828-1.058 0.495-0.857c0.377-0.653 1.074-1.056 1.829-1.056s1.452 0.403 1.829 1.056l1.493 2.586 1.66-0.954-0.781 4.6-4.368-1.639 1.659-0.954-1.491-2.582zM21.791 23.063c-0.377 0.653-1.074 1.056-1.829 1.056h-2.673l0.002 1.901-3.601-2.967 3.596-2.973 0.002 1.927h2.675l-0.435-0.753 1.831-1.053 0.433 0.749c0.377 0.653 0.377 1.459 0 2.112zM5.482 9.386l3.556-4.046h14.285l3.13 4.046h-20.97z"></path>
</svg>
