<?xml version="1.0" encoding="utf-8"?>
<!-- Generated by IcoMoon.io -->
<!DOCTYPE svg PUBLIC "-//W3C//DTD SVG 1.1//EN" "http://www.w3.org/Graphics/SVG/1.1/DTD/svg11.dtd">
<svg version="1.1" xmlns="http://www.w3.org/2000/svg" xmlns:xlink="http://www.w3.org/1999/xlink" width="32" height="32" viewBox="0 0 32 32">
<path fill="#444444" d="M15.925 2.636c-3.651 0-6.611 2.96-6.611 6.611 0 2.587 1.487 4.825 3.651 5.911v2.233l0.124 0.156 2.226 2.226-2.35 2.35v0.123l2.164 2.164-2.040 2.040 2.89 2.89 2.906-2.906v-11.276c2.165-1.086 3.651-3.325 3.651-5.911 0-3.651-2.96-6.611-6.611-6.611zM15.925 9.54c-1.127 0-2.040-0.914-2.040-2.040s0.914-2.040 2.040-2.040c1.127 0 2.040 0.913 2.040 2.040s-0.913 2.040-2.040 2.040z"></path>
</svg>
