<?xml version="1.0" encoding="utf-8"?>
<!-- Generated by IcoMoon.io -->
<!DOCTYPE svg PUBLIC "-//W3C//DTD SVG 1.1//EN" "http://www.w3.org/Graphics/SVG/1.1/DTD/svg11.dtd">
<svg version="1.1" xmlns="http://www.w3.org/2000/svg" xmlns:xlink="http://www.w3.org/1999/xlink" width="32" height="32" viewBox="0 0 32 32">
<path fill="#444444" d="M2.345 6.517v18.991h27.303v-18.991h-27.303zM28.083 23.942h-24.172v-15.86h24.172v15.86zM12.305 11.024h-2.575v2.574h2.575v-2.574zM16.377 11.024h-2.574v2.574h2.574v-2.574zM20.45 11.024h-2.576v2.574h2.576v-2.574zM19.968 17.826h2.505v-2.574h-2.505v2.574zM8.076 10.973h-2.574v2.574h2.574v-2.574zM10.411 15.251h-4.857v2.574h4.857v-2.574zM11.932 15.251v2.574h2.573v-2.574h-2.573zM16.028 15.251v2.574h2.576v-2.574h-2.575zM5.548 22.054h2.574v-2.575h-2.574v2.575zM9.666 22.054h12.597v-2.575h-12.597v2.575zM23.84 17.853h2.574v-6.835h-4.315v2.574h1.741v4.261zM23.805 22.054h2.575v-2.575h-2.575v2.575z"></path>
</svg>
