<?xml version="1.0" encoding="utf-8"?>
<!-- Generated by IcoMoon.io -->
<!DOCTYPE svg PUBLIC "-//W3C//DTD SVG 1.1//EN" "http://www.w3.org/Graphics/SVG/1.1/DTD/svg11.dtd">
<svg version="1.1" xmlns="http://www.w3.org/2000/svg" xmlns:xlink="http://www.w3.org/1999/xlink" width="32" height="32" viewBox="0 0 32 32">
<path fill="#444444" d="M12.331 13.434c0.321-0.557 0.734-1.054 1.218-1.471-0.092-0.154-0.177-0.313-0.251-0.479-0.518-1.145-0.56-2.423-0.116-3.599s1.318-2.109 2.463-2.627c1.145-0.518 2.423-0.559 3.599-0.117v-0c0 0 0 0 0 0 1.176 0.443 2.108 1.317 2.627 2.462s0.559 2.423 0.116 3.599c-0.691 1.834-2.447 3.047-4.398 3.047-0.042 0-0.084-0.001-0.126-0.002-0.008-0-0.016-0-0.023-0-0.494 0-0.903 0.395-0.916 0.893-0.013 0.505 0.386 0.926 0.892 0.938 0.056 0.001 0.112 0.003 0.169 0.003 2.711 0 5.155-1.684 6.115-4.233 0.616-1.634 0.559-3.41-0.161-5s-2.016-2.805-3.65-3.421c-0.001-0-0.002-0-0.003-0.001-1.633-0.615-3.408-0.557-4.998 0.163s-2.805 2.016-3.421 3.65c-0.616 1.634-0.558 3.409 0.162 5 0.194 0.427 0.43 0.826 0.702 1.195z"></path>
<path fill="#444444" d="M11.873 18.078l-3.996 3.996v2.605h2.591v-1.828h1.941l1.48-1.48v-0.541c-0.949-0.693-1.646-1.655-2.016-2.752z"></path>
<path fill="#444444" d="M22.709 22.468l-0.925-2.802c-0.331 0.439-0.728 0.832-1.181 1.164v6.508l2.041 1.027 1.165-2.315-0.76-2.555-0.339-1.028z"></path>
<path fill="#444444" d="M21.402 15.728c-1.127 0.697-2.443 1.093-3.817 1.093-0.050 0-0.1-0.001-0.15-0.002l-0.037-0.001c-0.222-0.006-0.432-0.055-0.623-0.14-0.653-0.201-1.127-0.809-1.127-1.528 0-0.788 0.57-1.44 1.319-1.572 0.15-0.046 0.309-0.071 0.473-0.071 0.014 0 0.028 0 0.043 0.001 0.035 0.001 0.071 0.001 0.106 0.001 0.77 0 1.507-0.231 2.132-0.633-0.694-0.509-1.549-0.81-2.475-0.81-2.315 0-4.191 1.877-4.191 4.192 0 1.64 0.943 3.059 2.315 3.747v1.416l0.079 0.099 1.411 1.411-1.49 1.489v0.078l1.372 1.372-1.293 1.293 1.833 1.832 1.842-1.842v-7.149c1.372-0.688 2.315-2.107 2.315-3.747 0-0.18-0.012-0.357-0.035-0.531z"></path>
</svg>
