<?xml version="1.0" encoding="utf-8"?>
<!-- Generated by IcoMoon.io -->
<!DOCTYPE svg PUBLIC "-//W3C//DTD SVG 1.1//EN" "http://www.w3.org/Graphics/SVG/1.1/DTD/svg11.dtd">
<svg version="1.1" xmlns="http://www.w3.org/2000/svg" xmlns:xlink="http://www.w3.org/1999/xlink" width="32" height="32" viewBox="0 0 32 32">
<path fill="#444444" d="M25.273 22.207l-0.012-0.023-0.014-0.023-4.451-7.483c-0.57-1.057-1.069-3.012-1.069-4.202v-3.456h0.939v-1.87h-9.36v1.87h1.097v3.456c0 1.188-0.496 3.135-1.066 4.194l-4.638 7.538c-0.605 1.105-0.64 2.265-0.096 3.186 0.546 0.918 1.58 1.446 2.839 1.446h13.089c1.259 0 2.293-0.528 2.839-1.446 0.544-0.921 0.509-2.081-0.096-3.186zM15.295 15.699l-4.633 7.528-1.592-0.98 4.609-7.487c0.6-1.077 1.163-3.284 1.146-4.503v-2.583h1.87v2.584c-0.015 1.686-0.592 3.936-1.388 5.424l-0.012 0.019zM17.384 20.694c-0.657 0-1.189-0.532-1.189-1.189s0.532-1.189 1.189-1.189c0.656 0 1.19 0.532 1.19 1.189s-0.533 1.189-1.19 1.189zM21.028 24.573c-1.044 0-1.892-0.847-1.892-1.891s0.847-1.892 1.892-1.892c1.044 0 1.892 0.847 1.892 1.892s-0.847 1.891-1.892 1.891z"></path>
</svg>
