<?xml version="1.0" encoding="utf-8"?>
<!-- Generated by IcoMoon.io -->
<!DOCTYPE svg PUBLIC "-//W3C//DTD SVG 1.1//EN" "http://www.w3.org/Graphics/SVG/1.1/DTD/svg11.dtd">
<svg version="1.1" xmlns="http://www.w3.org/2000/svg" xmlns:xlink="http://www.w3.org/1999/xlink" width="32" height="32" viewBox="0 0 32 32">
<path fill="#444444" d="M27.336 20.989h-22.813l-1.693 3.3h26.199l-1.693-3.3zM13.073 23.497l0.703-1.337h4.375l0.634 1.337h-5.712zM26.945 20.226c0-0.021-0.004-0.041-0.006-0.061 0.002-0.021 0.006-0.040 0.006-0.061v-13.653c0-0.346-0.281-0.627-0.627-0.627h-20.777c-0.346 0-0.627 0.281-0.627 0.627v13.653c0 0.020 0.004 0.040 0.006 0.061-0.002 0.020-0.006 0.040-0.006 0.061l-0.005 0.010 22.036-0.010zM25.38 19.166h-18.901v-11.777h18.901v11.777zM29.415 25.042h-26.971l-0.065 0.127c0 0.346 0.281 0.94 0.627 0.94h25.848c0.346 0 0.627-0.594 0.627-0.94l-0.065-0.127z"></path>
</svg>
