<?xml version="1.0" encoding="utf-8"?>
<!-- Generated by IcoMoon.io -->
<!DOCTYPE svg PUBLIC "-//W3C//DTD SVG 1.1//EN" "http://www.w3.org/Graphics/SVG/1.1/DTD/svg11.dtd">
<svg version="1.1" xmlns="http://www.w3.org/2000/svg" xmlns:xlink="http://www.w3.org/1999/xlink" width="32" height="32" viewBox="0 0 32 32">
<path fill="#444444" d="M17.087 6.028c-5.849 0-10.59 4.741-10.59 10.59s4.741 10.59 10.59 10.59c5.848 0 10.59-4.741 10.59-10.59s-4.741-10.59-10.59-10.59zM21.899 21.992c-1.715-0.008-2.629-0.883-3.262-2.426l-0.182-0.421-1.566-3.726c-0.517-1.319-1.806-2.21-3.26-2.21-1.967 0-3.562 1.665-3.562 3.721 0 2.053 1.595 3.72 3.562 3.72 1.373 0 2.564-0.811 3.159-1.997l0.633 1.524c-0.898 1.144-2.264 1.873-3.792 1.873-2.709 0-4.904-2.291-4.904-5.12s2.195-5.123 4.904-5.123c2.044 0 3.694 1.139 4.533 3.159 0.063 0.157 0.886 2.167 1.605 3.877 0.444 1.058 0.823 1.761 2.054 1.804 1.206 0.043 2.037-0.724 2.037-1.695 0-0.949-0.634-1.177-1.701-1.548-1.918-0.66-2.909-1.323-2.909-2.912 0-1.55 1.008-2.584 2.651-2.584 1.067 0 1.841 0.497 2.376 1.487l-1.051 0.56c-0.394-0.577-0.83-0.805-1.384-0.805-0.771 0-1.319 0.56-1.319 1.304 0 1.056 0.905 1.216 2.169 1.648 1.703 0.579 2.494 1.241 2.494 2.892 0 1.735-1.425 2.999-3.285 2.996z"></path>
</svg>
