<?xml version="1.0" encoding="utf-8"?>
<!-- Generated by IcoMoon.io -->
<!DOCTYPE svg PUBLIC "-//W3C//DTD SVG 1.1//EN" "http://www.w3.org/Graphics/SVG/1.1/DTD/svg11.dtd">
<svg version="1.1" xmlns="http://www.w3.org/2000/svg" xmlns:xlink="http://www.w3.org/1999/xlink" width="32" height="32" viewBox="0 0 32 32">
<path fill="#444444" d="M10.897 18.22l-3.932-9.177-3.942 9.177c0 2.177 1.763 3.936 3.937 3.936s3.937-1.76 3.937-3.936zM4.728 18.22l2.237-5.22 2.237 5.22h-4.474zM25.094 9.044l-3.943 9.177c0 2.177 1.762 3.936 3.936 3.936s3.938-1.76 3.938-3.936l-3.931-9.177zM22.856 18.22l2.238-5.22 2.236 5.22h-4.474zM17.466 24.434v-15.562h9.761v-1.915h-9.761v-0.047c0.593-0.47 0.974-1.195 0.974-2.011 0-1.421-1.152-2.569-2.572-2.569-1.419 0-2.571 1.149-2.571 2.569 0 0.816 0.382 1.541 0.973 2.011v0.047h-9.451v1.915h9.451v15.562c0 1.784-1.447 3.233-3.236 3.233h-3.317v1.917h16.303v-1.917h-3.318c-1.786 0-3.235-1.449-3.235-3.233z"></path>
</svg>
