<?xml version="1.0" encoding="utf-8"?>
<!-- Generated by IcoMoon.io -->
<!DOCTYPE svg PUBLIC "-//W3C//DTD SVG 1.1//EN" "http://www.w3.org/Graphics/SVG/1.1/DTD/svg11.dtd">
<svg version="1.1" xmlns="http://www.w3.org/2000/svg" xmlns:xlink="http://www.w3.org/1999/xlink" width="32" height="32" viewBox="0 0 32 32">
<path fill="#444444" d="M16.024 2.401c-7.504 0-13.589 6.082-13.589 13.588 0 7.504 6.085 13.588 13.589 13.588 7.506 0 13.589-6.083 13.589-13.588 0-7.506-6.083-13.588-13.589-13.588zM16.024 26.381c-5.73 0-10.392-4.662-10.392-10.391 0-5.731 4.662-10.393 10.392-10.393s10.392 4.662 10.392 10.393c0 5.729-4.662 10.391-10.392 10.391zM16.023 7.293c-4.802 0-8.695 3.893-8.695 8.695 0 4.804 3.893 8.697 8.695 8.697 4.804 0 8.699-3.892 8.699-8.697 0-4.802-3.895-8.695-8.699-8.695zM15.976 22.347c-3.546-0.001-6.421-2.877-6.421-6.424 0-0.402 0.038-0.794 0.108-1.174-0.448-0.038-0.894-0.078-1.332-0.117 0.206-0.796 0.523-1.568 0.951-2.292l2.682 1.826c-0.13 0.239-0.242 0.486-0.336 0.738-0.288-0.021-0.578-0.043-0.873-0.066-0.073 0.351-0.11 0.713-0.11 1.085 0 1.474 0.597 2.804 1.562 3.771 0.967 0.966 2.295 1.561 3.769 1.561 1.161 0 2.231-0.37 3.105-0.997-0.466-0.173-0.799-0.618-0.799-1.143 0-0.673 0.547-1.218 1.22-1.218 0.482 0 0.899 0.28 1.095 0.687 0.453-0.783 0.711-1.689 0.711-2.66 0-1.475-0.595-2.803-1.561-3.77-0.967-0.965-2.295-1.562-3.771-1.562-0.131 0-0.262 0.006-0.39 0.017l-0.031 0.76c-0.957 0.242-1.862 0.736-2.613 1.487-0.017 0.020-0.035 0.038-0.052 0.055l-2.7-1.838c0.148-0.172 0.303-0.339 0.465-0.503 1.415-1.416 3.189-2.256 5.030-2.52l-0.058 1.461c0.118-0.006 0.234-0.010 0.35-0.010 3.548 0.002 6.424 2.876 6.424 6.423s-2.875 6.423-6.424 6.424zM15.32 15.99c0-0.389 0.317-0.704 0.704-0.704 0.389 0 0.703 0.315 0.703 0.704 0 0.388-0.314 0.703-0.703 0.703-0.387 0-0.704-0.315-0.704-0.703z"></path>
</svg>
