<?xml version="1.0" encoding="utf-8"?>
<!-- Generated by IcoMoon.io -->
<!DOCTYPE svg PUBLIC "-//W3C//DTD SVG 1.1//EN" "http://www.w3.org/Graphics/SVG/1.1/DTD/svg11.dtd">
<svg version="1.1" xmlns="http://www.w3.org/2000/svg" xmlns:xlink="http://www.w3.org/1999/xlink" width="32" height="32" viewBox="0 0 32 32">
<path fill="#444444" d="M27.194 12.844v-1.233h-4.39v1.233h0.567v7.659h-0.567v1.233h4.39v-1.233h-0.567v-7.659h0.567zM28.875 8.213h0l-12.905-4.002-12.905 4.002v1.918h25.81v-1.918zM15.97 8.512c-0.676 0-1.223-0.548-1.223-1.223s0.548-1.223 1.223-1.223 1.223 0.548 1.223 1.223c0 0.676-0.548 1.223-1.223 1.223zM21.204 12.844v-1.233h-4.39v1.233h0.567v7.659h-0.567v1.233h4.39v-1.233h-0.567v-7.659h0.567zM27.455 23.436h-22.85l-1.48 4.353h25.81l-1.48-4.353zM15.215 12.844v-1.233h-4.391v1.233h0.567v7.659h-0.567v1.233h4.39v-1.233h-0.568v-7.659h0.568zM9.225 12.844v-1.233h-4.391v1.233h0.567v7.659h-0.567v1.233h4.391v-1.233h-0.567v-7.659h0.567z"></path>
</svg>
