<?xml version="1.0" encoding="utf-8"?>
<!-- Generated by IcoMoon.io -->
<!DOCTYPE svg PUBLIC "-//W3C//DTD SVG 1.1//EN" "http://www.w3.org/Graphics/SVG/1.1/DTD/svg11.dtd">
<svg version="1.1" xmlns="http://www.w3.org/2000/svg" xmlns:xlink="http://www.w3.org/1999/xlink" width="32" height="32" viewBox="0 0 32 32">
<path fill="#444444" d="M15.924 11.659c2.382 0 4.312 1.931 4.312 4.312s-1.931 4.313-4.312 4.313c-2.382 0-4.313-1.931-4.313-4.313s1.931-4.312 4.313-4.312z"></path>
<path fill="#444444" d="M14.829 8.254v-4.709c0-0.605 0.49-1.095 1.095-1.095v0c0.605 0 1.096 0.49 1.096 1.095v0 4.709c0 0.605-0.491 1.095-1.096 1.095v0c-0.605 0-1.095-0.491-1.095-1.095v0z"></path>
<path fill="#444444" d="M14.829 28.398v-4.709c0-0.605 0.49-1.095 1.095-1.095v0c0.605 0 1.095 0.49 1.095 1.095v0 4.709c0 0.605-0.49 1.096-1.095 1.096v0c-0.605-0-1.095-0.491-1.095-1.096v0z"></path>
<path fill="#444444" d="M20.607 11.289c-0.428-0.428-0.428-1.122 0-1.549v0l3.33-3.33c0.428-0.428 1.121-0.428 1.549 0v0c0.428 0.428 0.428 1.122 0 1.55v0l-3.33 3.33c-0.214 0.214-0.494 0.32-0.775 0.32v0c-0.28 0-0.561-0.107-0.774-0.32v0z"></path>
<path fill="#444444" d="M6.362 25.533c-0.428-0.428-0.428-1.121 0-1.549v0l3.33-3.33c0.428-0.428 1.121-0.428 1.549 0v0c0.428 0.428 0.428 1.122 0 1.549v0l-3.33 3.33c-0.214 0.214-0.494 0.321-0.775 0.321v0c-0.28 0-0.561-0.107-0.775-0.321v0z"></path>
<path fill="#444444" d="M23.641 17.067c-0.605 0-1.095-0.491-1.095-1.096v0c0-0.605 0.491-1.095 1.095-1.095v0h4.709c0.605 0 1.095 0.49 1.095 1.095v0c0 0.605-0.491 1.096-1.095 1.096v0h-4.709z"></path>
<path fill="#444444" d="M3.497 17.067c-0.605 0-1.095-0.491-1.095-1.096v0c0-0.605 0.49-1.095 1.095-1.095v0h4.709c0.605 0 1.095 0.49 1.095 1.095v0c0 0.605-0.491 1.096-1.095 1.096v0h-4.709z"></path>
<path fill="#444444" d="M23.937 25.533l-3.33-3.33c-0.428-0.427-0.428-1.121 0-1.549v0c0.428-0.428 1.121-0.428 1.549 0v0l3.33 3.33c0.428 0.428 0.428 1.121 0 1.549v0c-0.214 0.214-0.495 0.321-0.775 0.321v0c-0.28 0-0.561-0.107-0.774-0.321v0z"></path>
<path fill="#444444" d="M9.692 11.289l-3.33-3.33c-0.427-0.428-0.427-1.122 0-1.55v0c0.428-0.428 1.122-0.428 1.55 0v0l3.33 3.33c0.428 0.428 0.428 1.122 0 1.549v0c-0.214 0.214-0.494 0.32-0.775 0.32v0c-0.28 0-0.561-0.107-0.775-0.32v0z"></path>
</svg>
