<?xml version="1.0" encoding="utf-8"?>
<!-- Generated by IcoMoon.io -->
<!DOCTYPE svg PUBLIC "-//W3C//DTD SVG 1.1//EN" "http://www.w3.org/Graphics/SVG/1.1/DTD/svg11.dtd">
<svg version="1.1" xmlns="http://www.w3.org/2000/svg" xmlns:xlink="http://www.w3.org/1999/xlink" width="32" height="32" viewBox="0 0 32 32">
<path fill="#444444" d="M17.634 19.027h-4.712l-2.703 4.875 2.82-0.592-2.823 5.645 9.229-8.596-2.924 0.613 1.112-1.946zM23.297 9.262c0.101-0.39 0.155-0.799 0.155-1.221 0-2.66-2.156-4.817-4.817-4.817-2 0-3.716 1.219-4.443 2.955-0.627-0.735-1.557-1.202-2.598-1.202-1.884 0-3.411 1.527-3.411 3.41 0 0.324 0.047 0.637 0.131 0.933-1.537 0.565-2.635 2.042-2.635 3.776 0 2.217 1.798 4.018 4.019 4.018h12.388c2.222 0 4.019-1.801 4.019-4.018 0-1.8-1.179-3.321-2.808-3.834z"></path>
</svg>
