<?xml version="1.0" encoding="utf-8"?>
<!-- Generated by IcoMoon.io -->
<!DOCTYPE svg PUBLIC "-//W3C//DTD SVG 1.1//EN" "http://www.w3.org/Graphics/SVG/1.1/DTD/svg11.dtd">
<svg version="1.1" xmlns="http://www.w3.org/2000/svg" xmlns:xlink="http://www.w3.org/1999/xlink" width="32" height="32" viewBox="0 0 32 32">
<path fill="#444444" d="M23.415 10.828c-0.095 1.039-0.398 2.028-0.876 2.941-0.029 0.051-2.868 5.142-2.868 8.323l-0.097 0.942c-0.153 0.628-0.473 0.947-0.954 0.947h-5.454c-0.478 0-0.799-0.319-0.953-0.947l-0.096-0.942c0-3.181-2.839-8.272-2.845-8.323-0.502-0.913-0.806-1.902-0.9-2.941l-0.032-0.695c0-2.017 0.785-3.914 2.212-5.34 1.428-1.428 3.324-2.214 5.342-2.214 0.726 0 1.443 0.103 2.132 0.305 1.207 0.355 2.316 1.016 3.21 1.909 1.426 1.426 2.211 3.322 2.211 5.34l-0.032 0.695z"></path>
<path fill="#444444" d="M12.823 27.211v-1.924h6.142v1.924h-6.142z"></path>
<path fill="#444444" d="M14.158 29.427v-1.087h3.472v1.087h-3.472z"></path>
</svg>
