<?xml version="1.0" encoding="utf-8"?>
<!-- Generated by IcoMoon.io -->
<!DOCTYPE svg PUBLIC "-//W3C//DTD SVG 1.1//EN" "http://www.w3.org/Graphics/SVG/1.1/DTD/svg11.dtd">
<svg version="1.1" xmlns="http://www.w3.org/2000/svg" xmlns:xlink="http://www.w3.org/1999/xlink" width="32" height="32" viewBox="0 0 32 32">
<path fill="#444444" d="M21.14 5.041c-0.871-0.871-1.952-1.514-3.126-1.861-0.671-0.197-1.37-0.295-2.078-0.295-1.966 0-3.811 0.764-5.202 2.156-1.391 1.388-2.154 3.235-2.154 5.2l0.031 0.676c0.092 1.011 0.387 1.975 0.877 2.864 0.005 0.049 2.769 5.008 2.769 8.105l0.095 0.917c0.149 0.612 0.461 0.923 0.928 0.923h5.311c0.467 0 0.779-0.311 0.928-0.923l0.095-0.917c0-3.098 2.764-8.056 2.793-8.105 0.467-0.889 0.762-1.853 0.853-2.864l0.032-0.676c-0-1.965-0.765-3.812-2.153-5.2zM21.391 10.787c-0.070 0.725-0.283 1.432-0.632 2.103-0.295 0.529-2.965 5.407-3.017 8.892l-0.007 0.071h-0.862v-3.417h-1.874v3.417h-0.861l-0.007-0.071c-0.039-2.611-1.528-6.049-2.815-8.545l-0.003-0.029-0.183-0.332c-0.358-0.65-0.576-1.354-0.649-2.092l-0.027-0.583c0.010-1.451 0.579-2.812 1.606-3.837 1.036-1.036 2.412-1.607 3.877-1.607 0.532 0 1.053 0.074 1.546 0.218 0.877 0.259 1.683 0.74 2.333 1.389 1.024 1.025 1.593 2.384 1.604 3.833l-0.028 0.588zM12.946 26.872h5.98v-1.873h-5.98v1.873zM14.245 29.031h3.381v-1.059h-3.381v1.059z"></path>
</svg>
