<?xml version="1.0" encoding="utf-8"?>
<!-- Generated by IcoMoon.io -->
<!DOCTYPE svg PUBLIC "-//W3C//DTD SVG 1.1//EN" "http://www.w3.org/Graphics/SVG/1.1/DTD/svg11.dtd">
<svg version="1.1" xmlns="http://www.w3.org/2000/svg" xmlns:xlink="http://www.w3.org/1999/xlink" width="32" height="32" viewBox="0 0 32 32">
<path fill="#444444" d="M17.872 16.031v-0.032c-0.007 0.011-0.014 0.021-0.021 0.032h0.021zM25.92 6.625h-17.661c-0.846 0-1.531 0.669-1.531 1.494v17.867c0 0.825 0.686 1.494 1.531 1.494h17.661c0.846 0 1.532-0.669 1.532-1.494v-17.867c0-0.825-0.686-1.494-1.532-1.494zM13.009 24.082h-3.13v-9.417h3.13v9.417zM11.445 13.38h-0.020c-1.051 0-1.73-0.723-1.73-1.628 0-0.923 0.7-1.627 1.771-1.627s1.73 0.703 1.75 1.627c0 0.904-0.68 1.628-1.771 1.628zM24.296 24.082h-3.13v-5.038c0-1.265-0.453-2.129-1.586-2.129-0.865 0-1.38 0.582-1.606 1.144-0.083 0.201-0.103 0.482-0.103 0.764v5.259h-3.13c0 0 0.041-8.533 0-9.417h3.13v1.334c0.415-0.641 1.159-1.555 2.821-1.555 2.059 0 3.603 1.346 3.603 4.239v5.399z"></path>
</svg>
