<?xml version="1.0" encoding="utf-8"?>
<!-- Generated by IcoMoon.io -->
<!DOCTYPE svg PUBLIC "-//W3C//DTD SVG 1.1//EN" "http://www.w3.org/Graphics/SVG/1.1/DTD/svg11.dtd">
<svg version="1.1" xmlns="http://www.w3.org/2000/svg" xmlns:xlink="http://www.w3.org/1999/xlink" width="32" height="32" viewBox="0 0 32 32">
<path fill="#444444" d="M16.907 21.125c-1.707 0.002-3.418-0.667-4.708-1.957v0l-0.204-0.204 2.924-2.925 0.204 0.204c0.503 0.502 1.14 0.745 1.783 0.746v0c0.674-0.003 1.318-0.246 1.82-0.746v0l4.794-4.794c0.502-0.503 0.744-1.144 0.747-1.806v0c-0.002-0.656-0.245-1.295-0.746-1.798v0l-0.204-0.204c-0.503-0.502-1.143-0.744-1.802-0.746v0c-0.659 0.003-1.299 0.245-1.802 0.746v0l-1.971 1.971c-0.807 0.808-2.117 0.808-2.924 0v0c-0.808-0.807-0.808-2.117-0-2.924v0l1.971-1.971c1.3-1.301 3.023-1.96 4.726-1.958v0c1.704-0.002 3.426 0.657 4.726 1.958v0l0.204 0.204c1.299 1.298 1.96 3.018 1.957 4.723v0c0.002 1.703-0.655 3.428-1.958 4.73v0l-4.794 4.794c-1.307 1.309-3.037 1.958-4.734 1.958v0c-0.004 0-0.007 0-0.011 0v0z"></path>
<path fill="#444444" d="M10.248 29.275c-1.707 0.002-3.418-0.667-4.708-1.958v0l-0.204-0.204c-1.305-1.303-1.96-3.030-1.958-4.733v0c-0.002-1.704 0.66-3.424 1.958-4.72v0l4.794-4.794c1.3-1.301 3.023-1.96 4.726-1.958v0c1.336-0.002 2.683 0.403 3.829 1.205v0c0.19 0.096 0.368 0.224 0.526 0.382v0l0.575 0.575-2.924 2.925-0.204-0.204c-0.503-0.502-1.143-0.744-1.802-0.746v0c-0.659 0.002-1.299 0.245-1.802 0.746v0l-4.794 4.795c-0.501 0.503-0.744 1.141-0.746 1.795v0c0.002 0.664 0.245 1.305 0.746 1.808v0l0.204 0.204c0.503 0.502 1.14 0.745 1.783 0.746v0c0.675-0.003 1.318-0.245 1.821-0.746v0l2.066-2.066c0.808-0.807 2.117-0.807 2.924 0v0c0.808 0.807 0.808 2.116 0 2.924v0l-2.066 2.066c-1.307 1.309-3.037 1.958-4.734 1.958v0c-0.004 0-0.007 0-0.011 0v0z"></path>
</svg>
