<?xml version="1.0" encoding="utf-8"?>
<!-- Generated by IcoMoon.io -->
<!DOCTYPE svg PUBLIC "-//W3C//DTD SVG 1.1//EN" "http://www.w3.org/Graphics/SVG/1.1/DTD/svg11.dtd">
<svg version="1.1" xmlns="http://www.w3.org/2000/svg" xmlns:xlink="http://www.w3.org/1999/xlink" width="32" height="32" viewBox="0 0 32 32">
<path fill="#444444" d="M27.415 23.322c-0.119-0.092-0.421-0.525-0.529-0.924l-0.123-0.449c-0.211-0.775-0.826-1.358-1.582-1.553-0.030 0.405-0.096 0.765-0.198 1.082 0.343 0.116 0.627 0.389 0.728 0.758l0.123 0.448c0.157 0.578 0.584 1.262 0.946 1.523 0.364 0.261 0.262 0.758-0.228 1.103l-3.357 2.379c-0.488 0.346-1.373 0.695-1.966 0.775l-0.008 0.003c-0.053 0.006-0.105 0.009-0.16 0.009-0.547 0-1.12-0.368-1.32-0.876l-0.158-0.401c-0.222-0.556-0.225-1.468-0.007-2.026l1.114-2.869c-0.366-0.471-0.591-1.033-0.595-1.584 0.002-0.528 0.317-0.966 0.727-1.256 0.348-0.246 0.778-0.406 1.226-0.451 0.028-0.162 0.043-0.328 0.044-0.496 0.005-1.223-0.845-3.214-0.845-3.214 0.005-0.003 0.009-0.005 0.015-0.005 0.2 0 1.445 1.605 1.453 3.219 0 0.168-0.012 0.339-0.037 0.511 0.218 0.034 0.432 0.1 0.636 0.207 0.151 0.080 0.21 0.269 0.131 0.42-0.055 0.108-0.166 0.168-0.277 0.168-0.049 0-0.097-0.012-0.144-0.035-0.215-0.113-0.462-0.168-0.719-0.168h-0.004c-0.403 0-0.82 0.137-1.117 0.351-0.303 0.216-0.466 0.484-0.465 0.747-0.002 0.419 0.217 0.943 0.581 1.34 0.363 0.399 0.848 0.667 1.361 0.667h0.002c0.442-0.002 0.904-0.167 1.268-0.587s0.645-1.114 0.646-2.21c0-0.284-0.022-0.596-0.062-0.933-0.321-1.637-0.992-2.993-2.059-4.326-1.082-1.354-1.489-2.256-2.119-3.428-0.594-1.105-0.468-3.704-0.716-5.435-0.174-2.047-2.118-3.392-4.333-3.392-2.003 0-3.673 1.276-3.673 4.116l0.002 0.735-0.002-0.020c0 0 0.002 0.163 0.003 0.462l0.011 3.477c-0.005 2.364-3.666 7.025-3.685 8.347-0.001 0.118 0.007 0.232 0.021 0.343-0.456 0.167-0.836 0.53-1.051 1.033l-0.047 0.109c-0.083 0.191-0.424 0.46-0.63 0.494l-0.114 0.020c-1.15 0.194-1.952 1.291-1.788 2.445l0.064 0.444c0.055 0.384-0.045 0.873-0.113 1-0.267 0.445-0.306 0.969-0.101 1.439 0.235 0.543 0.758 0.936 1.435 1.079l3.889 0.826c0.382 0.082 0.791 0.098 1.065 0.098 0.321 0 0.94-0.022 1.496-0.178l0.006-0.002c0.71-0.197 1.29-0.738 1.58-1.404h4.809c0.031 0.112 0.066 0.22 0.106 0.322l0.158 0.397c0.366 0.923 1.327 1.566 2.335 1.566 0.102 0 0.204-0.006 0.304-0.020h0.001l0.005-0.001h0.004c0.765-0.104 1.819-0.519 2.451-0.967l3.357-2.379c0.575-0.406 0.904-0.983 0.905-1.582 0.002-0.516-0.243-0.988-0.672-1.297zM16.859 6.031c0.725 0 1.314 0.686 1.314 1.535 0 0.51-0.215 0.962-0.543 1.241-0.216-0.065-0.439-0.137-0.656-0.246 0.203-0.126 0.344-0.408 0.344-0.735 0-0.447-0.261-0.807-0.583-0.807s-0.584 0.361-0.584 0.807c0 0.087 0.013 0.171 0.032 0.25-0.213-0.104-0.425-0.176-0.617-0.226-0.015-0.091-0.024-0.186-0.024-0.283 0-0.848 0.589-1.535 1.316-1.535zM13.298 6.194c0.539 0 0.977 0.618 0.977 1.382 0 0.086-0.007 0.17-0.019 0.253-0.194 0.060-0.386 0.149-0.57 0.258 0.008-0.061 0.013-0.122 0.013-0.187 0-0.427-0.187-0.773-0.418-0.773s-0.419 0.346-0.419 0.773c0 0.261 0.072 0.492 0.179 0.632-0.091 0.070-0.179 0.141-0.263 0.212-0.274-0.244-0.457-0.676-0.457-1.167 0-0.763 0.436-1.382 0.976-1.382zM12.411 9.817c0.194-0.122 0.396-0.289 0.629-0.483 0.492-0.408 1.165-0.966 1.723-0.966h0.010l0.007-0.001h0.009c0.086 0 0.851 0.014 1.475 0.486 0.436 0.33 0.909 0.469 1.287 0.581 0.558 0.164 0.666 0.228 0.724 0.425 0.129 0.436-0.744 0.96-1.228 1.108-0.325 0.098-0.55 0.281-0.748 0.441-0.309 0.251-0.601 0.488-1.45 0.488-0.688 0-1.099-0.396-1.575-0.854-0.276-0.263-0.558-0.536-0.901-0.711-0.074-0.039-0.089-0.137-0.092-0.192-0.006-0.132 0.050-0.27 0.131-0.32zM11.782 27.634l-0.008 0.003c-0.325 0.091-0.775 0.138-1.204 0.138-0.307 0-0.603-0.025-0.838-0.075l-3.89-0.826c-0.566-0.121-0.846-0.522-0.624-0.892s0.337-1.141 0.256-1.714l-0.063-0.445c-0.081-0.572 0.319-1.119 0.889-1.215l0.113-0.020c0.572-0.095 1.224-0.609 1.452-1.14l0.047-0.108c0.132-0.31 0.364-0.472 0.614-0.472 0.18 0 0.368 0.083 0.537 0.255l2.917 2.962c0.407 0.412 0.752 1.221 0.768 1.8l0.012 0.416c0.016 0.579-0.424 1.178-0.981 1.334zM15.538 25.904c-0.266 0-0.542-0.035-0.824-0.111-0.272-0.077-0.528-0.173-0.765-0.281-0.060-0.049-0.116-0.11-0.173-0.192-0.115-0.569-0.376-1.169-0.713-1.636 0.197-0.487 0.135-1.050-0.455-1.522l-0.371-0.29c-1.416-0.866-2.169-1.679-2.563-2.34-0.417-0.688-0.431-1.227-0.429-1.389h0.001c-0.001-0.172 0.138-0.311 0.31-0.311 0.106 0.257 0.031 0.948 0.742 1.829-0.013-0.193 0.004-0.412 0.047-0.651 0.023-0.101 0.044-0.204 0.064-0.309 0.512-2.081 2.502-5.332 2.24-6.292-0.14-0.516-0.188-0.926-0.171-1.251 0.609 0.517 1.201 1.359 2.37 1.359 1.601 0 1.753-0.764 2.379-0.954 0.265-0.081 0.631-0.247 0.953-0.479-0.103 0.686-0.064 1.7 0.64 3.028 0.67 1.262 0.961 2.581 1.030 3.862l-0.008 0.017v1.373c-0.079 1.313-0.344 2.54-0.613 3.566-0.29 1.115-1.745 2.974-3.691 2.974zM14.911 11.253c1.403-0.006 2.034-0.874 2.866-1.093 0.089-0.025 0.14-0.117 0.116-0.206-0.025-0.090-0.117-0.142-0.206-0.116-0.988 0.294-1.531 1.087-2.776 1.080-0.619 0-1.148-0.235-1.524-0.474-0.187-0.12-0.336-0.239-0.438-0.329-0.099-0.089-0.148-0.144-0.15-0.144-0.061-0.068-0.168-0.073-0.236-0.010s-0.072 0.168-0.011 0.236c0.013 0.013 0.946 1.051 2.358 1.057zM14.191 8.959c0.164-0.070 0.275-0.174 0.251-0.23s-0.177-0.044-0.339 0.026c-0.163 0.071-0.275 0.174-0.25 0.23s0.176 0.044 0.338-0.027zM15.694 8.913c0.178 0.023 0.326-0.006 0.335-0.068 0.008-0.060-0.129-0.129-0.305-0.152-0.176-0.025-0.325 0.006-0.334 0.066-0.008 0.061 0.129 0.129 0.304 0.153z"></path>
</svg>
