<?xml version="1.0" encoding="utf-8"?>
<!-- Generated by IcoMoon.io -->
<!DOCTYPE svg PUBLIC "-//W3C//DTD SVG 1.1//EN" "http://www.w3.org/Graphics/SVG/1.1/DTD/svg11.dtd">
<svg version="1.1" xmlns="http://www.w3.org/2000/svg" xmlns:xlink="http://www.w3.org/1999/xlink" width="32" height="32" viewBox="0 0 32 32">
<path fill="#444444" d="M20.42 10.78v-5.225h-9.036v5.225c-1.602 1.31-2.626 3.301-2.626 5.533s1.024 4.223 2.626 5.533v4.688h9.036v-4.688c1.602-1.31 2.625-3.301 2.626-5.533s-1.024-4.223-2.626-5.532zM19.847 20.258c-1.012 1.011-2.402 1.634-3.945 1.634s-2.933-0.623-3.945-1.634c-1.011-1.012-1.633-2.402-1.634-3.945s0.623-2.933 1.634-3.945c1.012-1.011 2.402-1.633 3.945-1.634s2.932 0.623 3.945 1.634c1.011 1.012 1.634 2.402 1.634 3.945s-0.623 2.933-1.634 3.945zM16.642 15.53v-2.928h-1.565l-0 4.494h5.281v-1.565h-3.716z"></path>
</svg>
