<?xml version="1.0" encoding="utf-8"?>
<!-- Generated by IcoMoon.io -->
<!DOCTYPE svg PUBLIC "-//W3C//DTD SVG 1.1//EN" "http://www.w3.org/Graphics/SVG/1.1/DTD/svg11.dtd">
<svg version="1.1" xmlns="http://www.w3.org/2000/svg" xmlns:xlink="http://www.w3.org/1999/xlink" width="32" height="32" viewBox="0 0 32 32">
<path fill="#444444" d="M15.925 2.324c-7.541 0.001-13.652 6.112-13.653 13.653 0.001 7.541 6.112 13.652 13.653 13.653 7.541-0.001 13.651-6.112 13.653-13.653-0.002-7.541-6.112-13.652-13.653-13.653zM17.333 25.39v-3.794h-2.817v3.794c-2.066-0.306-3.907-1.271-5.321-2.683-1.412-1.414-2.377-3.255-2.683-5.321h3.794v-2.817h-3.794c0.306-2.066 1.272-3.907 2.683-5.321 1.414-1.412 3.256-2.378 5.321-2.684v3.794h2.817v-3.794c2.066 0.306 3.907 1.271 5.321 2.683 1.412 1.415 2.378 3.256 2.683 5.321h-3.794v2.817h3.794c-0.306 2.066-1.272 3.907-2.683 5.321-1.414 1.412-3.255 2.378-5.321 2.683z"></path>
</svg>
