<?xml version="1.0" encoding="utf-8"?>
<!-- Generated by IcoMoon.io -->
<!DOCTYPE svg PUBLIC "-//W3C//DTD SVG 1.1//EN" "http://www.w3.org/Graphics/SVG/1.1/DTD/svg11.dtd">
<svg version="1.1" xmlns="http://www.w3.org/2000/svg" xmlns:xlink="http://www.w3.org/1999/xlink" width="32" height="32" viewBox="0 0 32 32">
<path fill="#444444" d="M18.984 6.288c0 1.648-1.336 2.984-2.984 2.984s-2.984-1.336-2.984-2.984c0-1.648 1.336-2.984 2.984-2.984s2.984 1.336 2.984 2.984z"></path>
<path fill="#444444" d="M20.014 18.971v1.843c3.117 0.514 5.27 1.608 5.27 2.874 0 1.761-4.156 3.188-9.284 3.188s-9.284-1.427-9.284-3.188c0-1.267 2.153-2.361 5.27-2.875v-1.843c-3.924 0.592-7.090 2.112-7.090 4.718 0 3.459 5.576 5.007 11.103 5.007s11.103-1.548 11.103-5.007c0-2.606-3.165-4.126-7.089-4.718z"></path>
<path fill="#444444" d="M20.256 10.978c0-0.666-0.54-1.206-1.206-1.206h-6.1c-0.666 0-1.207 0.54-1.207 1.206v6.319h1.723v6.54h5.067v-6.54h1.723v-6.319z"></path>
</svg>
