<?xml version="1.0" encoding="utf-8"?>
<!-- Generated by IcoMoon.io -->
<!DOCTYPE svg PUBLIC "-//W3C//DTD SVG 1.1//EN" "http://www.w3.org/Graphics/SVG/1.1/DTD/svg11.dtd">
<svg version="1.1" xmlns="http://www.w3.org/2000/svg" xmlns:xlink="http://www.w3.org/1999/xlink" width="32" height="32" viewBox="0 0 32 32">
<path fill="#444444" d="M16.018 3.034c-3.715 0-6.727 3.011-6.727 6.726s6.727 15.882 6.727 15.882 6.726-12.167 6.726-15.882c0-3.715-3.012-6.726-6.726-6.726zM16.018 11.805c-1.129 0-2.044-0.915-2.044-2.044s0.915-2.044 2.044-2.044c1.129 0 2.044 0.915 2.044 2.044s-0.915 2.044-2.044 2.044z"></path>
<path fill="#444444" d="M20.853 19.383c-0.054 0.113-0.106 0.224-0.162 0.341-0.223 0.464-0.445 0.92-0.664 1.363 3.11 0.515 5.258 1.607 5.258 2.872 0 1.761-4.157 3.188-9.284 3.188s-9.284-1.427-9.284-3.188c0-1.27 2.162-2.365 5.29-2.878-0.219-0.441-0.44-0.895-0.662-1.357-0.057-0.119-0.11-0.232-0.165-0.347-3.542 0.672-6.282 2.157-6.282 4.582 0 3.459 5.577 5.007 11.103 5.007s11.103-1.548 11.103-5.007c0-2.417-2.724-3.901-6.25-4.576z"></path>
</svg>
