<?xml version="1.0" encoding="utf-8"?>
<!-- Generated by IcoMoon.io -->
<!DOCTYPE svg PUBLIC "-//W3C//DTD SVG 1.1//EN" "http://www.w3.org/Graphics/SVG/1.1/DTD/svg11.dtd">
<svg version="1.1" xmlns="http://www.w3.org/2000/svg" xmlns:xlink="http://www.w3.org/1999/xlink" width="32" height="32" viewBox="0 0 32 32">
<path fill="#444444" d="M25.302 15.411h-1.38l-0-4.6c0-2.292-0.87-4.394-2.307-5.931-1.432-1.537-3.472-2.523-5.721-2.521-2.25-0.002-4.29 0.985-5.722 2.521-1.438 1.536-2.307 3.639-2.308 5.931v4.6h-1.38c-0.572 0-1.037 0.464-1.037 1.036v12.158c0 0.572 0.464 1.037 1.037 1.037h18.819c0.573 0 1.037-0.464 1.037-1.037v-12.158c0-0.573-0.464-1.036-1.037-1.036zM11.677 10.811c0-1.323 0.501-2.493 1.279-3.326 0.784-0.832 1.806-1.311 2.938-1.313 1.131 0.002 2.152 0.48 2.937 1.313 0.778 0.833 1.279 2.003 1.279 3.326v4.6h-8.433v-4.6z"></path>
</svg>
