<?xml version="1.0" encoding="utf-8"?>
<!-- Generated by IcoMoon.io -->
<!DOCTYPE svg PUBLIC "-//W3C//DTD SVG 1.1//EN" "http://www.w3.org/Graphics/SVG/1.1/DTD/svg11.dtd">
<svg version="1.1" xmlns="http://www.w3.org/2000/svg" xmlns:xlink="http://www.w3.org/1999/xlink" width="32" height="32" viewBox="0 0 32 32">
<path fill="#444444" d="M26.187 14.523c-0.043-0.745-0.483-1.377-1.202-1.9-0.127 1.189-0.929 2.633-3.746 3.438-1.434 0.41-3.295 0.636-5.239 0.636s-3.804-0.226-5.238-0.636c-2.817-0.805-3.619-2.249-3.746-3.438-0.719 0.523-1.16 1.155-1.202 1.901l-1.447 8.637v0.076c0 2.93 5.852 4.463 11.633 4.463s11.633-1.533 11.633-4.463v-0.076l-1.447-8.638zM16 25.881c-6.228 0-9.68-1.68-9.81-2.591l1.081-6.454c1.911 1.22 5.405 1.792 8.729 1.792s6.818-0.573 8.729-1.792l1.081 6.454c-0.131 0.911-3.582 2.591-9.81 2.591z"></path>
<path fill="#444444" d="M8.685 12.216c0.191 2.561 6.577 2.636 7.315 2.636s7.126-0.075 7.315-2.637l0.906-4.349c0.048-0.138 0.076-0.282 0.085-0.431 0.002-0.020 0.003-0.040 0.003-0.060 0-0.012 0.002-0.024 0.002-0.037 0-0.003-0-0.006-0-0.010 0-0.008-0.001-0.016-0.001-0.024-0.056-2.92-7.462-3.005-8.31-3.005s-8.255 0.085-8.31 3.005c-0 0.007-0.001 0.015-0.001 0.022 0 0.003-0 0.007-0 0.010 0 0.195 0.033 0.376 0.094 0.547l0.902 4.332zM16 6.171c1.901 0 3.441 0.376 3.441 0.84s-1.541 0.84-3.441 0.84c-1.9 0-3.441-0.376-3.441-0.84s1.541-0.84 3.441-0.84z"></path>
</svg>
