<?xml version="1.0" encoding="utf-8"?>
<!-- Generated by IcoMoon.io -->
<!DOCTYPE svg PUBLIC "-//W3C//DTD SVG 1.1//EN" "http://www.w3.org/Graphics/SVG/1.1/DTD/svg11.dtd">
<svg version="1.1" xmlns="http://www.w3.org/2000/svg" xmlns:xlink="http://www.w3.org/1999/xlink" width="32" height="32" viewBox="0 0 32 32">
<path fill="#444444" d="M27.323 17.326l-4.235-4.236-7.382 7.382c-0.595 0.59-1.331 0.869-2.109 0.874-0.775-0.005-1.512-0.284-2.105-0.874-0.587-0.591-0.867-1.329-0.871-2.108 0.004-0.775 0.284-1.511 0.873-2.103l7.382-7.384-4.233-4.235-7.384 7.385c-1.752 1.752-2.628 4.052-2.627 6.343-0.002 2.293 0.877 4.59 2.627 6.339 1.749 1.747 4.047 2.626 6.338 2.626h0.002c2.291 0 4.59-0.877 6.34-2.626l7.384-7.383zM14.643 6.846l2.030 2.031-2.107 2.109-2.032-2.032 2.109-2.108zM23.088 15.293l2.032 2.033-2.107 2.106-2.032-2.032 2.107-2.106z"></path>
</svg>
