<?xml version="1.0" encoding="utf-8"?>
<!-- Generated by IcoMoon.io -->
<!DOCTYPE svg PUBLIC "-//W3C//DTD SVG 1.1//EN" "http://www.w3.org/Graphics/SVG/1.1/DTD/svg11.dtd">
<svg version="1.1" xmlns="http://www.w3.org/2000/svg" xmlns:xlink="http://www.w3.org/1999/xlink" width="32" height="32" viewBox="0 0 32 32">
<path fill="#444444" d="M25.607 14.292l1.063-9.013-9.012 1.063 2.908 2.909-2.104 2.105c-1.415-0.958-3.062-1.441-4.7-1.439-2.144-0.002-4.303 0.824-5.938 2.46v0.001c-1.637 1.635-2.463 3.793-2.461 5.938-0.002 2.145 0.824 4.304 2.461 5.94 1.641 1.642 3.807 2.462 5.952 2.46h0.009c2.139 0 4.288-0.83 5.918-2.46 1.636-1.636 2.461-3.795 2.46-5.94 0.001-1.637-0.481-3.284-1.439-4.699l2.104-2.103 2.78 2.78zM10.084 14.638c1.020-1.020 2.342-1.522 3.678-1.525 1.337 0.003 2.66 0.505 3.68 1.525 1.018 1.020 1.52 2.342 1.524 3.677-0.003 1.337-0.506 2.66-1.525 3.681-1.019 1.016-2.335 1.521-3.666 1.523-1.345-0.002-2.671-0.503-3.691-1.525-1.020-1.019-1.522-2.34-1.525-3.679 0.003-1.337 0.505-2.657 1.524-3.677z"></path>
</svg>
