<?xml version="1.0" encoding="utf-8"?>
<!-- Generated by IcoMoon.io -->
<!DOCTYPE svg PUBLIC "-//W3C//DTD SVG 1.1//EN" "http://www.w3.org/Graphics/SVG/1.1/DTD/svg11.dtd">
<svg version="1.1" xmlns="http://www.w3.org/2000/svg" xmlns:xlink="http://www.w3.org/1999/xlink" width="32" height="32" viewBox="0 0 32 32">
<path fill="#444444" d="M28.581 28.601l-6.075-9.031c0.404-0.735 0.688-1.546 0.825-2.405l6.074-1.189-6.074-1.189c-0.508-3.173-3.013-5.679-6.186-6.186l-1.189-6.074-1.189 6.074c-0.859 0.138-1.669 0.421-2.404 0.825l-9.033-6.075 6.075 9.032c-0.404 0.735-0.687 1.545-0.825 2.404l-6.074 1.189 6.074 1.189c0.507 3.173 3.013 5.678 6.186 6.186l1.189 6.074 1.189-6.074c0.859-0.137 1.669-0.421 2.404-0.825l9.032 6.075zM15.956 9.929c3.335 0 6.047 2.713 6.047 6.047 0 0.783-0.151 1.53-0.423 2.218l-2.561-3.808-1.471-1.473-3.808-2.561c0.687-0.272 1.434-0.423 2.217-0.423zM17.128 15.977c0 0.647-0.525 1.172-1.173 1.172s-1.173-0.525-1.173-1.172c0-0.648 0.525-1.173 1.173-1.173s1.173 0.525 1.173 1.173zM15.956 22.023c-3.335 0-6.047-2.713-6.047-6.047 0-0.782 0.151-1.529 0.423-2.216l2.562 3.808 1.471 1.471 3.809 2.561c-0.687 0.272-1.434 0.423-2.216 0.423z"></path>
</svg>
