<?xml version="1.0" encoding="utf-8"?>
<!-- Generated by IcoMoon.io -->
<!DOCTYPE svg PUBLIC "-//W3C//DTD SVG 1.1//EN" "http://www.w3.org/Graphics/SVG/1.1/DTD/svg11.dtd">
<svg version="1.1" xmlns="http://www.w3.org/2000/svg" xmlns:xlink="http://www.w3.org/1999/xlink" width="32" height="32" viewBox="0 0 32 32">
<path fill="#444444" d="M16.296 2.737c-3.785 0-6.853 3.068-6.853 6.853s6.853 16.18 6.853 16.18 6.853-12.396 6.853-16.18c0-3.785-3.068-6.853-6.853-6.853zM16.296 11.672c-1.15 0-2.082-0.932-2.082-2.082s0.932-2.082 2.082-2.082c1.15 0 2.082 0.932 2.082 2.082s-0.932 2.082-2.082 2.082z"></path>
<path fill="#444444" d="M25.953 17.532h-3.87c-0.254 0.565-0.534 1.171-0.842 1.819h3.294l2.042 8.092h-21.156l2.042-8.092h3.886c-0.308-0.648-0.588-1.254-0.842-1.819h-4.462l-2.96 11.73h25.826l-2.96-11.73z"></path>
</svg>
