<?xml version="1.0" encoding="utf-8"?>
<!-- Generated by IcoMoon.io -->
<!DOCTYPE svg PUBLIC "-//W3C//DTD SVG 1.1//EN" "http://www.w3.org/Graphics/SVG/1.1/DTD/svg11.dtd">
<svg version="1.1" xmlns="http://www.w3.org/2000/svg" xmlns:xlink="http://www.w3.org/1999/xlink" width="32" height="32" viewBox="0 0 32 32">
<path fill="#444444" d="M20.313 9.782c0-2.382-1.931-4.313-4.313-4.313s-4.313 1.931-4.313 4.313c0 2.070 1.458 3.798 3.403 4.216v11.505c-0.652 0.090-1.1 0.273-1.1 0.484 0 0.3 0.9 0.543 2.010 0.543s2.010-0.243 2.010-0.543c0-0.211-0.448-0.394-1.1-0.484v-11.505c1.945-0.418 3.403-2.146 3.403-4.216zM14.44 9.535c-0.669 0-1.211-0.542-1.211-1.21s0.542-1.21 1.211-1.21c0.668 0 1.21 0.542 1.21 1.21s-0.542 1.21-1.21 1.21z"></path>
</svg>
