<?xml version="1.0" encoding="utf-8"?>
<!-- Generated by IcoMoon.io -->
<!DOCTYPE svg PUBLIC "-//W3C//DTD SVG 1.1//EN" "http://www.w3.org/Graphics/SVG/1.1/DTD/svg11.dtd">
<svg version="1.1" xmlns="http://www.w3.org/2000/svg" xmlns:xlink="http://www.w3.org/1999/xlink" width="32" height="32" viewBox="0 0 32 32">
<path fill="#444444" d="M18.234 13.388c-0.727-0.208-1.494-0.322-2.288-0.322s-1.56 0.114-2.287 0.321v-7.107h-6.112v3.533l2.972 5.273c-1.765 1.524-2.884 3.776-2.884 6.291 0 4.59 3.721 8.311 8.311 8.311s8.311-3.721 8.311-8.311c0-2.717-1.304-5.129-3.32-6.645l3.408-4.838v-3.614h-6.111v7.107zM21.283 21.377c0 2.943-2.395 5.337-5.337 5.337s-5.337-2.394-5.337-5.337c0-2.943 2.394-5.337 5.337-5.337s5.337 2.394 5.337 5.337zM5.19 2.305v2.411h21.513v-2.411h-21.512zM15.766 16.4l-1.067 3.261h-3.424c-0.082 0-0.154 0.053-0.18 0.13s0.002 0.163 0.068 0.211l2.77 2.018-1.067 3.279c-0.025 0.077 0.002 0.163 0.068 0.211s0.156 0.048 0.222 0l2.788-2.024 2.782 2.024c0.033 0.024 0.072 0.036 0.111 0.036s0.078-0.012 0.111-0.036c0.066-0.048 0.094-0.133 0.069-0.211l-1.067-3.278 2.776-2.018c0.066-0.048 0.094-0.133 0.069-0.211s-0.098-0.13-0.179-0.13h-3.43l-1.062-3.26c-0.025-0.078-0.098-0.13-0.179-0.13s-0.154 0.052-0.18 0.13z"></path>
</svg>
