<?xml version="1.0" encoding="utf-8"?>
<!-- Generated by IcoMoon.io -->
<!DOCTYPE svg PUBLIC "-//W3C//DTD SVG 1.1//EN" "http://www.w3.org/Graphics/SVG/1.1/DTD/svg11.dtd">
<svg version="1.1" xmlns="http://www.w3.org/2000/svg" xmlns:xlink="http://www.w3.org/1999/xlink" width="32" height="32" viewBox="0 0 32 32">
<path fill="#444444" d="M16.902 8.64c-0.329-0.255-0.253-0.654-0.997-0.55 0.067 0.286 0.237 0.57 0.997 0.55zM29.601 12.659l-3.894-6.738-5.809 3.352v-6.709h-7.785v6.714l-5.813-3.357-3.889 6.738 5.813 3.352-5.813 3.358 3.889 6.743 5.813-3.358v6.714h7.785v-6.709l5.809 3.353 3.894-6.743-5.815-3.353 5.815-3.357zM16.612 5.775l-0.033 1.535c-0.116-0.029-0.235-0.046-0.356-0.046-0.039 0-0.080 0.002-0.119 0.006-0.153 0.014-0.39 0.044-0.666 0.106l-0.035-1.601h1.208zM13.089 10.784c-0.076-0.913 0.323-1.756 1.016-2.324 0.544-0.448 1.351-0.681 2.044-0.744 0.024-0.003 0.051-0.004 0.076-0.004 0.601 0 1.292 0.605 1.629 1.055 0.298 0.396 0.411 0.805 0.247 0.908s-0.421 0.292-0.578 0.416c-0.092 0.075-0.196 0.103-0.309 0.103-0.192 0-0.403-0.083-0.609-0.164-0.206-0.084-0.407-0.166-0.576-0.166-0.008 0-0.016 0-0.027 0-0.509 0.029-0.928 0.27-1.026 0.781-0.018 0.1 0.018 0.227 0.094 0.369l0.055 2.482c-0.834-0.562-1.721-1.179-2.036-2.712zM16.422 14.518l-0.014 0.668c-0.119 0.057-0.255 0.115-0.364 0.162-0.131 0.055-0.278 0.117-0.427 0.188l-0.045-2.042c0-0.002 0-0.005 0-0.008l-0.053-2.482-0.002-0.002-0.010-0.478c0.102-0.127 0.272-0.2 0.519-0.213 0.082 0 0.253 0.070 0.392 0.127l0.018 0.006c0.024 0.010 0.049 0.019 0.074 0.028l-0.047 2.234c0 0-0.002 0.001-0.002 0.002l-0.039 1.804c-0 0.002-0 0.003-0 0.003zM15.789 23.43c0-0.001 0-0.002 0-0.004l-0.012-0.527c0-0.001 0-0.003 0-0.004l-0.010-0.452c0.135-0.061 0.325-0.125 0.486-0.176l-0.031 1.392c0 0.002 0 0.002 0 0.004l-0.010 0.395c0 0.001 0.002 0.003 0.002 0.005l-0.022 1.007c-0.033 0.033-0.067 0.068-0.108 0.105-0.082 0.080-0.166 0.163-0.251 0.253l-0.043-2zM16.144 27.234h-0.272l-0.025-1.1c0.012 0.009 0.023 0.019 0.037 0.027l0.11 0.066c0.053 0.033 0.112 0.048 0.17 0.056l-0.020 0.949zM16.228 25.846l-0.11-0.066c0.403-0.447 0.895-0.727 0.775-1.286-0.027-0.175-0.11-0.313-0.231-0.427l0.010-0.394c0.249 0.189 0.446 0.44 0.474 0.797 0.102 0.695-0.593 1.065-0.918 1.376zM17.906 20.438c-0.108 0.916-0.983 1.146-1.443 1.298-0.519 0.161-1.11 0.305-1.259 0.619-0.094 0.214-0.033 0.396 0.127 0.553l0.010 0.529c-0.127-0.061-0.249-0.137-0.37-0.253-0.258-0.259-0.374-0.652-0.241-1.014 0.37-0.735 1.051-0.798 1.52-1.031 0.987-0.311 1.167-0.929 0.501-1.188l0.019-0.885c0.206 0.067 0.419 0.155 0.633 0.306 0.325 0.189 0.574 0.683 0.503 1.065zM16.304 19.944l-0.014 0.704c-0.053 0.021-0.11 0.043-0.174 0.063-0.022 0.007-0.045 0.016-0.063 0.026-0.090 0.044-0.202 0.085-0.319 0.129l-0.027-1.252c0-0.002 0-0.003 0-0.004l-0.027-1.212c0-0.002-0.002-0.003-0.002-0.005l-0.010-0.447c0.016-0.022 0.031-0.044 0.043-0.061 0.006-0.006 0.010-0.012 0.012-0.018 0.079-0.123 0.333-0.211 0.631-0.309l-0.033 1.496c0 0.002 0 0.003 0 0.004l-0.018 0.883c0 0.002 0 0.002 0 0.003zM18.247 15.931c-1.128 1.306-2.487 1.063-2.898 1.69-0.211 0.289-0.254 0.559-0.119 0.785l0.029 1.214c-0.255-0.092-0.513-0.235-0.752-0.475-0.591-0.605-0.509-1.61-0.068-2.207 1.006-1.193 2.442-1.183 2.651-1.775 0.151-0.365 0.149-0.318-0.086-0.54-0.041-0.033-0.086-0.064-0.135-0.097l0.039-1.806c0.331 0.198 0.717 0.417 1.116 0.782 0.268 0.249 0.585 0.682 0.607 1.208 0.012 0.524-0.137 0.886-0.384 1.221z"></path>
</svg>
