<?xml version="1.0" encoding="utf-8"?>
<!-- Generated by IcoMoon.io -->
<!DOCTYPE svg PUBLIC "-//W3C//DTD SVG 1.1//EN" "http://www.w3.org/Graphics/SVG/1.1/DTD/svg11.dtd">
<svg version="1.1" xmlns="http://www.w3.org/2000/svg" xmlns:xlink="http://www.w3.org/1999/xlink" width="32" height="32" viewBox="0 0 32 32">
<path fill="#444444" d="M22.808 13.783l-0.932-1.954c-0.159-0.339-0.615-1.375-1.091-2.467h-9.596c-0.476 1.092-0.932 2.128-1.091 2.467l-0.932 1.954c-0.386 0.811-0.703 2.212-0.703 3.112v11.333c0 0.835 0.677 1.51 1.51 1.51h12.026c0.836 0 1.51-0.675 1.51-1.51v-11.333c-0-0.9-0.315-2.3-0.701-3.112zM21.093 21.433h-3.452v3.453h-3.307v-3.453h-3.454v-3.307h3.454v-3.453h3.307v3.453h3.452v3.307zM22.076 3.804c0-0.835-0.675-1.511-1.508-1.511h-9.163c-0.834 0-1.511 0.676-1.511 1.511v4h12.182v-4z"></path>
</svg>
