<?xml version="1.0" encoding="utf-8"?>
<!-- Generated by IcoMoon.io -->
<!DOCTYPE svg PUBLIC "-//W3C//DTD SVG 1.1//EN" "http://www.w3.org/Graphics/SVG/1.1/DTD/svg11.dtd">
<svg version="1.1" xmlns="http://www.w3.org/2000/svg" xmlns:xlink="http://www.w3.org/1999/xlink" width="32" height="32" viewBox="0 0 32 32">
<path fill="#444444" d="M15.975 8.955c1.109 0 2.011-0.902 2.011-2.011s-0.902-2.011-2.011-2.011c-1.109 0-2.011 0.902-2.011 2.011s0.902 2.011 2.011 2.011z"></path>
<path fill="#444444" d="M25.516 15.544c1.109 0 2.011-0.902 2.011-2.011s-0.902-2.011-2.011-2.011c-1.109 0-2.011 0.902-2.011 2.011s0.902 2.011 2.011 2.011z"></path>
<path fill="#444444" d="M6.484 15.544c1.109 0 2.011-0.902 2.011-2.011s-0.902-2.011-2.011-2.011-2.011 0.902-2.011 2.011c0 1.109 0.902 2.011 2.011 2.011z"></path>
<path fill="#444444" d="M19.511 11.387c0-0.548-0.444-0.992-0.992-0.992h-5.013c-0.548 0-0.992 0.444-0.992 0.992v1.746h6.997v-1.746z"></path>
<path fill="#444444" d="M24.481 17.426c-0.060 0-0.117 0.012-0.171 0.030l2.791 5.785v-5.265c0-0.303-0.247-0.55-0.55-0.55h-2.070z"></path>
<path fill="#444444" d="M4.899 17.977v5.098l2.777-5.623c-0.050-0.015-0.102-0.026-0.158-0.026h-2.070c-0.303 0-0.55 0.247-0.55 0.55z"></path>
<path fill="#444444" d="M10.724 14.606l-6.155 12.462h7.909v-2.627c0-0.548 0.444-0.992 0.992-0.992h5.013c0.548 0 0.992 0.444 0.992 0.992v2.627h7.839l-6.012-12.462h-10.577zM15.975 22.007c-1.109 0-2.011-0.902-2.011-2.011s0.902-2.011 2.011-2.011c1.109 0 2.011 0.902 2.011 2.011s-0.902 2.011-2.011 2.011z"></path>
</svg>
