<?xml version="1.0" encoding="utf-8"?>
<!-- Generated by IcoMoon.io -->
<!DOCTYPE svg PUBLIC "-//W3C//DTD SVG 1.1//EN" "http://www.w3.org/Graphics/SVG/1.1/DTD/svg11.dtd">
<svg version="1.1" xmlns="http://www.w3.org/2000/svg" xmlns:xlink="http://www.w3.org/1999/xlink" width="32" height="32" viewBox="0 0 32 32">
<path fill="#444444" d="M13.567 24.227l-3.346-0.897v-2.942l-1.862-0.574v4.23l0.69 0.899 4.879 1.308 1.123-0.601 1.156-3.419-1.78-0.548z"></path>
<path fill="#444444" d="M25.125 5.752c-0.015-0.001-0.029-0.002-0.044-0.002-0.007-0-0.014-0.001-0.022-0.001-0.009 0-0.017 0.001-0.026 0.002-0.015 0-0.029 0.001-0.044 0.002-0.323 0.012-0.625 0.102-0.906 0.26l-19.287 5.941c-1.096 0.138-1.554 0.906-1.554 2.557s0.458 2.42 1.554 2.557l19.287 5.941c0.301 0.169 0.626 0.263 0.976 0.263 0 0 0 0 0 0v0c0 0 0 0 0 0 2.428 0 3.699-4.407 3.699-8.761 0-4.314-1.248-8.678-3.633-8.757zM25.059 21.671c-0.713 0-2.1-2.528-2.1-7.162s1.387-7.162 2.1-7.162 2.1 2.528 2.1 7.162c0 4.634-1.387 7.162-2.1 7.162z"></path>
</svg>
