<?xml version="1.0" encoding="utf-8"?>
<!-- Generated by IcoMoon.io -->
<!DOCTYPE svg PUBLIC "-//W3C//DTD SVG 1.1//EN" "http://www.w3.org/Graphics/SVG/1.1/DTD/svg11.dtd">
<svg version="1.1" xmlns="http://www.w3.org/2000/svg" xmlns:xlink="http://www.w3.org/1999/xlink" width="32" height="32" viewBox="0 0 32 32">
<path fill="#444444" d="M21.617 13.95l-3.944 3.944-1.326-1.326 3.944-3.944 1.326 1.326z"></path>
<path fill="#444444" d="M21.11 26.866v-1.743h-2.559v-2.618c1.559-0.277 2.994-1.020 4.137-2.163l1.133-1.133-3.187-3.187-2.266 2.266 0.72 0.72c-0.595 0.274-1.247 0.418-1.922 0.418-1.23 0-2.386-0.479-3.256-1.349-1.79-1.79-1.795-4.699-0.015-6.496l1.867 1.867 2.265-2.266-7.923-7.923-2.265 2.266 3.791 3.791c-3.028 3.046-3.024 7.988 0.015 11.027 1.036 1.036 2.312 1.743 3.702 2.073v2.708h-3.17v1.743h-3.052v1.876h15.037v-1.876h-3.052z"></path>
</svg>
