<?xml version="1.0" encoding="utf-8"?>
<!-- Generated by IcoMoon.io -->
<!DOCTYPE svg PUBLIC "-//W3C//DTD SVG 1.1//EN" "http://www.w3.org/Graphics/SVG/1.1/DTD/svg11.dtd">
<svg version="1.1" xmlns="http://www.w3.org/2000/svg" xmlns:xlink="http://www.w3.org/1999/xlink" width="32" height="32" viewBox="0 0 32 32">
<path fill="#444444" d="M28.084 22.646h-2.24v-0.035c-0.004-0.997-0.343-1.977-0.861-2.841-0.524-0.862-1.235-1.618-2.113-2.086l-3.877-2.039c-0.475-0.246-0.997-0.763-1.365-1.38-0.375-0.612-0.59-1.317-0.587-1.85v-3.050h2.431c0.975 0 1.766-0.792 1.766-1.767v-4.102c0-0.975-0.791-1.767-1.766-1.767h-6.776c-0.976 0-1.767 0.792-1.767 1.767v4.102c0 0.975 0.791 1.767 1.767 1.767h2.43v3.050c0.004 0.532-0.212 1.236-0.586 1.85-0.368 0.616-0.89 1.135-1.366 1.38l-3.877 2.039c-0.88 0.468-1.59 1.223-2.114 2.086-0.504 0.84-0.835 1.792-0.856 2.759h-2.434c-0.977 0-1.767 0.791-1.767 1.766v4.102c0 0.976 0.79 1.767 1.767 1.767h6.775c0.976 0 1.768-0.791 1.768-1.767v-4.102c0-0.975-0.792-1.766-1.768-1.766h-2.427c0.017-0.524 0.228-1.187 0.582-1.769 0.368-0.618 0.89-1.137 1.365-1.381l3.879-2.040c0.827-0.44 1.502-1.136 2.016-1.935 0.514 0.799 1.188 1.496 2.016 1.935l3.878 2.040c0.476 0.245 0.997 0.763 1.365 1.381 0.375 0.612 0.592 1.316 0.587 1.851v0.035h-2.619c-0.976 0-1.767 0.791-1.767 1.767v4.102c0 0.975 0.791 1.766 1.767 1.766h6.774c0.977 0 1.768-0.791 1.768-1.766v-4.102c-0-0.976-0.791-1.767-1.768-1.767z"></path>
</svg>
