<?xml version="1.0" encoding="utf-8"?>
<!-- Generated by IcoMoon.io -->
<!DOCTYPE svg PUBLIC "-//W3C//DTD SVG 1.1//EN" "http://www.w3.org/Graphics/SVG/1.1/DTD/svg11.dtd">
<svg version="1.1" xmlns="http://www.w3.org/2000/svg" xmlns:xlink="http://www.w3.org/1999/xlink" width="32" height="32" viewBox="0 0 32 32">
<path fill="#444444" d="M22.512 2.304h-13.182c-0.734 0-1.329 0.595-1.329 1.329v24.665c0 0.734 0.595 1.33 1.329 1.33h13.182c0.734 0 1.33-0.595 1.33-1.33v-24.665c0-0.734-0.596-1.33-1.33-1.33zM13.102 27.667h-2.894v-2.894h2.894v2.894zM13.102 23.412h-2.894v-2.894h2.894v2.894zM17.452 27.667h-2.894v-2.894h2.894v2.894zM17.452 23.412h-2.894v-2.894h2.894v2.894zM14.685 18.391c0-0.684 0.554-1.238 1.238-1.238s1.238 0.554 1.238 1.238-0.554 1.238-1.238 1.238-1.238-0.554-1.238-1.238zM21.744 27.667h-2.894v-2.894h2.894v2.894zM21.744 23.412h-2.894v-2.894h2.894v2.894zM21.744 16.583h-11.536v-12.151h11.536v12.151z"></path>
</svg>
