<?xml version="1.0" encoding="utf-8"?>
<!-- Generated by IcoMoon.io -->
<!DOCTYPE svg PUBLIC "-//W3C//DTD SVG 1.1//EN" "http://www.w3.org/Graphics/SVG/1.1/DTD/svg11.dtd">
<svg version="1.1" xmlns="http://www.w3.org/2000/svg" xmlns:xlink="http://www.w3.org/1999/xlink" width="32" height="32" viewBox="0 0 32 32">
<path fill="#444444" d="M25.613 19c-1.024 0-1.962 0.38-2.675 1.005l-3.638-2.084c0.014-0.133 0.025-0.269 0.025-0.406 0-0.352-0.053-0.691-0.151-1.010l2.181-1.264c0.595 0.62 1.431 1.011 2.359 1.011 1.803 0 3.264-1.461 3.264-3.265 0-1.801-1.461-3.263-3.264-3.263-1.805 0-3.264 1.462-3.264 3.263 0 0.322 0.047 0.631 0.135 0.925l-2.189 1.267c-0.321-0.338-0.707-0.611-1.144-0.795v-4.030c1.596-0.55 2.745-2.063 2.745-3.845 0-2.246-1.823-4.068-4.069-4.068-2.244 0-4.065 1.822-4.065 4.068 0 1.782 1.147 3.296 2.741 3.845v4.030c-0.409 0.174-0.779 0.425-1.085 0.737l-2.136-1.223c0.082-0.289 0.131-0.595 0.131-0.911 0-1.801-1.463-3.263-3.264-3.263-1.803 0-3.264 1.462-3.264 3.263 0 1.804 1.461 3.265 3.264 3.265 0.932 0 1.772-0.394 2.367-1.022l2.091 1.198c-0.112 0.341-0.176 0.707-0.176 1.087 0 0.143 0.008 0.283 0.027 0.421l-3.55 2.056c-0.713-0.619-1.643-0.993-2.661-0.993-2.246 0-4.067 1.819-4.067 4.066s1.821 4.066 4.067 4.066c2.246 0 4.067-1.819 4.067-4.066 0-0.267-0.029-0.528-0.076-0.781l3.546-2.055c0.399 0.3 0.862 0.515 1.37 0.617v2.26c-1.429 0.346-2.493 1.63-2.493 3.168 0 1.803 1.461 3.264 3.264 3.264s3.262-1.461 3.262-3.264c0-1.538-1.063-2.822-2.493-3.168v-2.305c0.437-0.114 0.842-0.315 1.194-0.582l3.636 2.083c-0.047 0.248-0.072 0.503-0.072 0.763 0 2.247 1.821 4.066 4.065 4.066 2.246 0 4.067-1.819 4.067-4.066s-1.821-4.066-4.067-4.066z"></path>
</svg>
