<?xml version="1.0" encoding="utf-8"?>
<!-- Generated by IcoMoon.io -->
<!DOCTYPE svg PUBLIC "-//W3C//DTD SVG 1.1//EN" "http://www.w3.org/Graphics/SVG/1.1/DTD/svg11.dtd">
<svg version="1.1" xmlns="http://www.w3.org/2000/svg" xmlns:xlink="http://www.w3.org/1999/xlink" width="32" height="32" viewBox="0 0 32 32">
<path fill="#444444" d="M26.858 8.731c-1.519-0.582-3.221 0.177-3.808 1.695l-2.115-0.073c-0.425-1.571-2.003-2.562-3.618-2.228-0.102 0.021-0.204 0.048-0.303 0.079l-0.958-1.191c0.28-0.578 0.337-1.26 0.102-1.911-0.46-1.275-1.866-1.935-3.142-1.473s-1.934 1.867-1.473 3.142c0.421 1.161 1.625 1.809 2.798 1.567l0.967 1.196c-0.401 0.651-0.568 1.447-0.401 2.254 0.133 0.649 0.462 1.206 0.91 1.627l-1.116 1.848c-0.448-0.166-0.932-0.255-1.437-0.255-0.695 0-1.345 0.17-1.919 0.47l-1.2-1.3c0.548-0.96 0.65-2.156 0.172-3.246-0.801-1.823-2.931-2.653-4.754-1.85-1.823 0.801-2.653 2.929-1.852 4.752 0.803 1.825 2.929 2.653 4.754 1.852 0.029-0.014 0.059-0.027 0.088-0.041l1.198 1.298c-0.407 0.642-0.642 1.402-0.642 2.217 0 0.786 0.219 1.521 0.597 2.147l-1.559 1.359c-0.388-0.232-0.828-0.389-1.306-0.44-1.766-0.19-3.35 1.088-3.54 2.853-0.188 1.766 1.087 3.35 2.853 3.54 1.766 0.188 3.35-1.088 3.538-2.853 0.055-0.5-0.012-0.982-0.172-1.426l1.758-1.532c0.591 0.323 1.267 0.506 1.986 0.506 1.23 0 2.338-0.536 3.099-1.389l2.839 1.36c-0.059 0.792 0.215 1.604 0.826 2.206 1.1 1.084 2.872 1.072 3.955-0.029 1.087-1.099 1.073-2.873-0.027-3.957-1.038-1.023-2.673-1.070-3.765-0.147l-2.857-1.369c0.053-0.268 0.084-0.546 0.084-0.83 0-1.002-0.356-1.921-0.946-2.64l1.367-2.262c0.239 0.008 0.487-0.008 0.732-0.059 0.981-0.202 1.756-0.85 2.162-1.687l2.336 0.079c0.298 0.735 0.883 1.349 1.682 1.654 1.523 0.583 3.229-0.181 3.81-1.703 0.582-1.524-0.18-3.23-1.703-3.81z"></path>
</svg>
