<?xml version="1.0" encoding="utf-8"?>
<!-- Generated by IcoMoon.io -->
<!DOCTYPE svg PUBLIC "-//W3C//DTD SVG 1.1//EN" "http://www.w3.org/Graphics/SVG/1.1/DTD/svg11.dtd">
<svg version="1.1" xmlns="http://www.w3.org/2000/svg" xmlns:xlink="http://www.w3.org/1999/xlink" width="32" height="32" viewBox="0 0 32 32">
<path fill="#444444" d="M17.404 6.235c-0.437-2.219-2.392-3.892-4.74-3.892h-3.576v1.565l3.576-0c1.47 0.003 2.711 0.973 3.122 2.308-3.165 0.363-5.624 3.050-5.624 6.313v2.824l0.013-0.010c0-0 0.003 0.003 0.018 0.022s0.039 0.046 0.072 0.083c0.066 0.074 0.168 0.183 0.305 0.316 0.273 0.265 0.685 0.623 1.227 0.98 1.086 0.715 2.682 1.428 4.764 1.428 3.899 0.003 6.072-2.201 6.314-2.461v-3.182c0-3.21-2.38-5.863-5.471-6.294zM17.613 12.248c0 0.604-0.49 1.094-1.094 1.094s-1.094-0.49-1.094-1.094v-1.826c0-0.604 0.49-1.094 1.094-1.094s1.094 0.49 1.094 1.094v1.826zM11.194 17.658c-0.411-0.271-0.754-0.542-1.032-0.783v6.488c0 3.511 2.846 6.357 6.356 6.357s6.356-2.846 6.356-6.357v-6.188c-1.088 0.846-3.212 2.089-6.314 2.093-2.338 0-4.15-0.806-5.367-1.61z"></path>
</svg>
