<?xml version="1.0" encoding="utf-8"?>
<!-- Generated by IcoMoon.io -->
<!DOCTYPE svg PUBLIC "-//W3C//DTD SVG 1.1//EN" "http://www.w3.org/Graphics/SVG/1.1/DTD/svg11.dtd">
<svg version="1.1" xmlns="http://www.w3.org/2000/svg" xmlns:xlink="http://www.w3.org/1999/xlink" width="32" height="32" viewBox="0 0 32 32">
<path fill="#444444" d="M4.047 10.271l3.13 3.13-3.13 3.13z"></path>
<path fill="#444444" d="M8.667 13.394l-4.621 4.621v10.192h24.355v-14.813h-19.734zM23.288 23.364h-13.529v-1.565h13.529v1.565zM23.289 19.769h-13.529v-1.565h13.529v1.565zM28.045 8.96l-0.946-5.154-23.577 4.326 4.502 4.502 20.021-3.673zM25.453 5.063l1.348 2.326 0.15 0.817-2.877 0.528-1.791-3.090 3.17-0.582zM18.975 6.251l1.791 3.090-3.17 0.582-1.791-3.090 3.17-0.582zM12.497 7.44l1.791 3.090-3.17 0.582-1.791-3.090 3.17-0.582z"></path>
</svg>
