<?xml version="1.0" encoding="utf-8"?>
<!-- Generated by IcoMoon.io -->
<!DOCTYPE svg PUBLIC "-//W3C//DTD SVG 1.1//EN" "http://www.w3.org/Graphics/SVG/1.1/DTD/svg11.dtd">
<svg version="1.1" xmlns="http://www.w3.org/2000/svg" xmlns:xlink="http://www.w3.org/1999/xlink" width="32" height="32" viewBox="0 0 32 32">
<path fill="#444444" d="M5.221 3.977v24.029h21.394v-24.029h-21.394zM8.603 26.46h-2.296v-2.296h2.296v2.296zM8.603 21.8h-2.296v-2.296h2.296v2.296zM8.603 16.945h-2.296v-2.296h2.296v2.296zM8.603 12.284h-2.296v-2.296h2.296v2.296zM8.603 7.818h-2.296v-2.296h2.296v2.296zM21.857 25.377h-11.879v-8.164h11.879v8.164zM21.857 14.77h-11.879v-8.164h11.879v8.164zM25.528 26.46h-2.296v-2.296h2.296v2.296zM25.528 21.8h-2.296v-2.296h2.296v2.296zM25.528 16.945h-2.296v-2.296h2.296v2.296zM25.528 12.284h-2.296v-2.296h2.296v2.296zM25.528 7.818h-2.296v-2.296h2.296v2.296z"></path>
</svg>
