<?xml version="1.0" encoding="utf-8"?>
<!-- Generated by IcoMoon.io -->
<!DOCTYPE svg PUBLIC "-//W3C//DTD SVG 1.1//EN" "http://www.w3.org/Graphics/SVG/1.1/DTD/svg11.dtd">
<svg version="1.1" xmlns="http://www.w3.org/2000/svg" xmlns:xlink="http://www.w3.org/1999/xlink" width="32" height="32" viewBox="0 0 32 32">
<path fill="#444444" d="M26.928 18.987c-0.126-3.036-2.856-4.67-4.43-5.363 0.844-0.678 1.384-1.717 1.384-2.884 0-2.042-1.656-3.698-3.698-3.698s-3.698 1.656-3.698 3.698c0 1.166 0.541 2.206 1.384 2.884-1.574 0.693-4.304 2.327-4.43 5.363-0.075 1.801 0.324 2.448 0.811 2.594 0.422-2.024 1.888-5.579 1.996-5.517 0 0-0.51 1.587-0.764 2.337-0.466 1.379-0.791 2.927-0.818 3.895 0.539 2.070 2.804 2.363 5.519 2.363s4.979-0.292 5.518-2.363c-0.027-0.968-0.353-2.516-0.818-3.895-0.253-0.75-0.763-2.337-0.763-2.337 0.107-0.063 1.574 3.492 1.996 5.517 0.487-0.146 0.887-0.793 0.811-2.594zM12.777 18.96c0.041-0.988 0.321-1.841 0.741-2.572-0.142-0.434-0.277-0.855-0.277-0.855 0.026-0.015 0.168 0.281 0.353 0.728 0.193-0.318 0.412-0.612 0.649-0.883-0.632-0.73-1.48-1.198-2.077-1.461 0.559-0.449 0.917-1.137 0.917-1.91 0-1.353-1.097-2.449-2.449-2.449s-2.449 1.097-2.449 2.449c0 0.773 0.358 1.461 0.917 1.91-1.043 0.459-2.851 1.541-2.934 3.552-0.050 1.193 0.215 1.621 0.537 1.718 0.28-1.341 1.251-3.696 1.322-3.654 0 0-0.338 1.051-0.506 1.548-0.308 0.913-0.524 1.939-0.542 2.58 0.357 1.371 1.857 1.565 3.655 1.565 0.879 0 1.685-0.047 2.322-0.255-0.231-0.748-0.196-1.612-0.179-2.012z"></path>
</svg>
