<?xml version="1.0" encoding="utf-8"?>
<!-- Generated by IcoMoon.io -->
<!DOCTYPE svg PUBLIC "-//W3C//DTD SVG 1.1//EN" "http://www.w3.org/Graphics/SVG/1.1/DTD/svg11.dtd">
<svg version="1.1" xmlns="http://www.w3.org/2000/svg" xmlns:xlink="http://www.w3.org/1999/xlink" width="32" height="32" viewBox="0 0 32 32">
<path fill="#444444" d="M9.465 20.169h3.277v0.875h-3.277v-0.875z"></path>
<path fill="#444444" d="M13.369 20.169h4.272v0.875h-4.272v-0.875z"></path>
<path fill="#444444" d="M9.465 21.509h8.802v0.874h-8.802v-0.874z"></path>
<path fill="#444444" d="M28.032 10.405h-2.214v-2.622c0-0.547-0.475-0.991-1.062-0.991h-20.787c-0.587 0-1.062 0.444-1.062 0.991v12.822c0 0.547 0.476 0.991 1.062 0.991h2.214v2.623c0 0.547 0.475 0.99 1.062 0.99h20.787c0.587 0 1.062-0.443 1.062-0.99v-12.822c0-0.548-0.475-0.991-1.062-0.991zM6.183 11.396v8.423h-1.5v-11.252h19.359v1.837h-16.797c-0.587 0-1.062 0.444-1.062 0.991zM27.52 23.634h-19.763v-5.096h19.763v5.096zM27.52 14.344h-19.763v-2.365h19.763v2.365z"></path>
</svg>
