<?xml version="1.0" encoding="utf-8"?>
<!-- Generated by IcoMoon.io -->
<!DOCTYPE svg PUBLIC "-//W3C//DTD SVG 1.1//EN" "http://www.w3.org/Graphics/SVG/1.1/DTD/svg11.dtd">
<svg version="1.1" xmlns="http://www.w3.org/2000/svg" xmlns:xlink="http://www.w3.org/1999/xlink" width="32" height="32" viewBox="0 0 32 32">
<path fill="#444444" d="M20.971 12.876c1.935 0 3.454-1.52 3.454-3.454 0-1.865-1.519-3.454-3.454-3.454-1.866 0-3.453 1.589-3.453 3.454 0 1.934 1.588 3.454 3.453 3.454zM21.247 13.842h-0.207c-1.39 0-2.634 0.678-3.419 1.717-0.212-1.452-1.491-2.546-3.005-2.546h-0.139c-1.049 0-1.959 0.527-2.486 1.334v-0.298c0-1.174-0.967-2.141-2.141-2.141h-0.069c-1.174 0-2.141 0.967-2.141 2.141v4.283h3.867v3.591h5.25v4.697h8.772v-8.496c-0-2.348-1.934-4.282-4.282-4.282zM14.478 12.323c1.314 0 2.418-1.105 2.418-2.418s-1.104-2.418-2.418-2.418c-1.381 0-2.417 1.105-2.417 2.418s1.036 2.418 2.417 2.418zM9.781 11.425c0.899 0 1.727-0.76 1.727-1.727 0-0.898-0.828-1.727-1.727-1.727-0.967 0-1.727 0.829-1.727 1.727 0 0.967 0.76 1.727 1.727 1.727z"></path>
</svg>
