<?xml version="1.0" encoding="utf-8"?>
<!-- Generated by IcoMoon.io -->
<!DOCTYPE svg PUBLIC "-//W3C//DTD SVG 1.1//EN" "http://www.w3.org/Graphics/SVG/1.1/DTD/svg11.dtd">
<svg version="1.1" xmlns="http://www.w3.org/2000/svg" xmlns:xlink="http://www.w3.org/1999/xlink" width="32" height="32" viewBox="0 0 32 32">
<path fill="#444444" d="M29.631 9.253v-6.866h-6.867v2.434h-0.419c-1.108 0.005-2.213 0.384-3.186 0.969-0.973 0.59-1.821 1.392-2.342 2.371l-2.342 4.452c-0.296 0.576-0.909 1.189-1.635 1.623-0.723 0.441-1.549 0.698-2.197 0.692h-1.451v-2.473h-6.865v6.867h6.865v-2.479h1.451c0.648-0.003 1.474 0.253 2.197 0.693 0.726 0.435 1.339 1.048 1.635 1.623l2.342 4.453c0.521 0.979 1.369 1.78 2.342 2.371 0.973 0.585 2.079 0.962 3.186 0.969h0.419v2.64h6.867v-6.867h-6.867v2.31h-0.419c-0.648 0.004-1.474-0.252-2.197-0.691-0.726-0.435-1.339-1.049-1.635-1.625l-2.342-4.451c-0.282-0.53-0.662-1.004-1.099-1.425h7.693v2.479h6.867v-6.867h-6.867v2.473h-7.693c0.437-0.419 0.819-0.894 1.099-1.425l2.342-4.449c0.296-0.576 0.909-1.189 1.635-1.623 0.724-0.441 1.549-0.699 2.197-0.693h0.419v2.515h6.867z"></path>
</svg>
