<?xml version="1.0" encoding="utf-8"?>
<!-- Generated by IcoMoon.io -->
<!DOCTYPE svg PUBLIC "-//W3C//DTD SVG 1.1//EN" "http://www.w3.org/Graphics/SVG/1.1/DTD/svg11.dtd">
<svg version="1.1" xmlns="http://www.w3.org/2000/svg" xmlns:xlink="http://www.w3.org/1999/xlink" width="32" height="32" viewBox="0 0 32 32">
<path fill="#444444" d="M7.135 4.389v1.576h0.002v4.677h-0.002v14.019c0 0.575-0.468 1.043-1.043 1.043s-1.043-0.468-1.043-1.043v-15.088h1.293v-1.905h-3.199v16.993c0 1.626 1.322 2.948 2.948 2.948h19.815c1.626 0 2.948-1.323 2.948-2.948v-20.273h-21.721zM13.719 19.191h-3.811v-3.811h3.811v3.811zM26.165 23.709h-10.162v-1.588h10.162v1.588zM26.165 20.51h-10.162v-1.588h10.162v1.588zM26.165 17.047h-10.162v-1.588h10.162v1.588zM26.271 12.408h-16.257v-4.723h16.257v4.723z"></path>
</svg>
