<?xml version="1.0" encoding="utf-8"?>
<!-- Generated by IcoMoon.io -->
<!DOCTYPE svg PUBLIC "-//W3C//DTD SVG 1.1//EN" "http://www.w3.org/Graphics/SVG/1.1/DTD/svg11.dtd">
<svg version="1.1" xmlns="http://www.w3.org/2000/svg" xmlns:xlink="http://www.w3.org/1999/xlink" width="32" height="32" viewBox="0 0 32 32">
<path fill="#444444" d="M10.889 15.489h3.811v3.811h-3.811v-3.811z"></path>
<path fill="#444444" d="M10.889 8.277h14.274v4.723h-14.274v-4.723z"></path>
<path fill="#444444" d="M17.187 15.459h7.976v1.588h-7.976v-1.588z"></path>
<path fill="#444444" d="M17.187 18.922h7.976v1.588h-7.976v-1.588z"></path>
<path fill="#444444" d="M17.187 22.121h7.976v1.588h-7.976v-1.588z"></path>
<path fill="#444444" d="M7.135 4.389v3.28h-3.991v16.993c0 1.626 1.322 2.948 2.948 2.948h19.815c1.626 0 2.948-1.323 2.948-2.948v-20.273h-21.721zM7.135 24.662c0 0.575-0.468 1.043-1.043 1.043s-1.043-0.468-1.043-1.043v-15.088h2.086v15.088zM26.95 24.662c0 0.575-0.468 1.043-1.043 1.043h-17.057c0.123-0.324 0.191-0.676 0.191-1.043v-18.367h17.91v18.367z"></path>
</svg>
