<?xml version="1.0" encoding="utf-8"?>
<!-- Generated by IcoMoon.io -->
<!DOCTYPE svg PUBLIC "-//W3C//DTD SVG 1.1//EN" "http://www.w3.org/Graphics/SVG/1.1/DTD/svg11.dtd">
<svg version="1.1" xmlns="http://www.w3.org/2000/svg" xmlns:xlink="http://www.w3.org/1999/xlink" width="32" height="32" viewBox="0 0 32 32">
<path fill="#444444" d="M25.579 20.534v-5.443h-5.443c-0.416-1.902-2.11-3.325-4.136-3.325s-3.72 1.424-4.136 3.325h-3.624v-3.624c1.902-0.416 3.325-2.109 3.325-4.136 0-2.339-1.896-4.235-4.235-4.235s-4.235 1.896-4.235 4.235c0 2.027 1.424 3.72 3.326 4.136v5.443h5.443c0.416 1.902 2.11 3.326 4.136 3.326s3.72-1.424 4.136-3.326h3.624v3.624c-1.902 0.416-3.325 2.109-3.325 4.136 0 2.339 1.896 4.235 4.235 4.235s4.235-1.896 4.235-4.235c0-2.027-1.424-3.72-3.326-4.136zM4.914 7.33c0-1.332 1.084-2.416 2.416-2.416s2.416 1.084 2.416 2.416c0 1.332-1.084 2.416-2.416 2.416s-2.416-1.084-2.416-2.416zM16 18.416c-1.332 0-2.416-1.084-2.416-2.416s1.084-2.416 2.416-2.416c1.332 0 2.416 1.084 2.416 2.416s-1.084 2.416-2.416 2.416zM24.67 27.086c-1.332 0-2.416-1.084-2.416-2.416s1.084-2.416 2.416-2.416c1.332 0 2.416 1.084 2.416 2.416s-1.084 2.416-2.416 2.416z"></path>
</svg>
