<?xml version="1.0" encoding="utf-8"?>
<!-- Generated by IcoMoon.io -->
<!DOCTYPE svg PUBLIC "-//W3C//DTD SVG 1.1//EN" "http://www.w3.org/Graphics/SVG/1.1/DTD/svg11.dtd">
<svg version="1.1" xmlns="http://www.w3.org/2000/svg" xmlns:xlink="http://www.w3.org/1999/xlink" width="32" height="32" viewBox="0 0 32 32">
<path fill="#444444" d="M7.191 3.685v18.798l5.831 5.832h11.786v-24.63h-17.618zM14.959 26.835c-2.199 0-1.139-5.212-1.139-5.212s-1.346 0.327-2.662 0.327c-1.241 0-2.455-0.291-2.487-1.422 0-2.44 0-7.69 0-11.37h14.658v17.677h-8.37z"></path>
<path fill="#444444" d="M15.075 23.937h6.8v-1.48h-6.673c-0.074 0.5-0.117 1.015-0.127 1.48z"></path>
<path fill="#444444" d="M10.178 18.568h11.698v1.48h-11.698v-1.48z"></path>
<path fill="#444444" d="M10.178 10.79h11.698v1.48h-11.698v-1.48z"></path>
<path fill="#444444" d="M10.178 14.679h11.698v1.48h-11.698v-1.48z"></path>
</svg>
