<?xml version="1.0" encoding="utf-8"?>
<!-- Generated by IcoMoon.io -->
<!DOCTYPE svg PUBLIC "-//W3C//DTD SVG 1.1//EN" "http://www.w3.org/Graphics/SVG/1.1/DTD/svg11.dtd">
<svg version="1.1" xmlns="http://www.w3.org/2000/svg" xmlns:xlink="http://www.w3.org/1999/xlink" width="32" height="32" viewBox="0 0 32 32">
<path fill="#444444" d="M23.56 3.871v1.401c0.182 0.295 0.289 0.641 0.289 1.012 0 1.068-0.866 1.933-1.933 1.933s-1.933-0.865-1.933-1.933c0-0.372 0.107-0.717 0.288-1.012v-1.401h-2.608v1.401c0.182 0.295 0.289 0.641 0.289 1.012 0 1.068-0.866 1.933-1.933 1.933s-1.933-0.865-1.933-1.933c0-0.372 0.107-0.717 0.288-1.012v-1.401h-2.608v1.401c0.182 0.295 0.289 0.641 0.289 1.012 0 1.068-0.866 1.933-1.933 1.933s-1.933-0.865-1.933-1.933c0-0.372 0.107-0.717 0.288-1.012v-1.401h-1.793v19.135l6.166 6.166h12.463v-25.301h-1.752zM23.747 27.607h-8.851c-2.325 0-1.205-5.511-1.205-5.511s-5.375 1.306-5.444-1.158v-11.248h15.5v17.917zM22.385 14.615v1.923h-12.415v-1.923h12.415zM22.385 11.379v1.924h-12.415v-1.924h12.415zM22.385 17.851v1.923h-12.415v-1.923h12.415zM21.915 7.411c-0.532 0-0.962-0.431-0.962-0.963v-2.689c0-0.531 0.431-0.962 0.962-0.962s0.962 0.431 0.962 0.962v2.689c0 0.531-0.431 0.963-0.962 0.963zM10.121 7.411c-0.531 0-0.962-0.431-0.962-0.963v-2.689c0-0.531 0.431-0.962 0.962-0.962s0.962 0.431 0.962 0.962v2.689c0 0.531-0.431 0.963-0.962 0.963zM16.018 7.411c-0.531 0-0.962-0.431-0.962-0.963v-2.689c0-0.531 0.431-0.962 0.962-0.962s0.962 0.431 0.962 0.962v2.689c0 0.531-0.431 0.963-0.962 0.963z"></path>
</svg>
