<?xml version="1.0" encoding="utf-8"?>
<!-- Generated by IcoMoon.io -->
<!DOCTYPE svg PUBLIC "-//W3C//DTD SVG 1.1//EN" "http://www.w3.org/Graphics/SVG/1.1/DTD/svg11.dtd">
<svg version="1.1" xmlns="http://www.w3.org/2000/svg" xmlns:xlink="http://www.w3.org/1999/xlink" width="32" height="32" viewBox="0 0 32 32">
<path fill="#444444" d="M29.642 16.916v-3.197c0 0-4.2 0-8.48 0h-8.96c-0.634-2.187-2.532-3.773-4.776-3.773-2.761 0-5.001 2.404-5.001 5.371s2.24 5.371 5.001 5.371c2.244 0 4.143-1.588 4.776-3.773h12.3v1.882h-1.911v3.197h7.020v-3.197h-1.912v-1.882c1.192 0 1.944 0 1.944 0zM7.426 18.32c-1.451 0-2.631-1.347-2.631-3.002 0-1.657 1.18-3.005 2.631-3.005 1.452 0 2.633 1.347 2.633 3.005 0 1.655-1.18 3.002-2.633 3.002z"></path>
</svg>
