<?xml version="1.0" encoding="utf-8"?>
<!-- Generated by IcoMoon.io -->
<!DOCTYPE svg PUBLIC "-//W3C//DTD SVG 1.1//EN" "http://www.w3.org/Graphics/SVG/1.1/DTD/svg11.dtd">
<svg version="1.1" xmlns="http://www.w3.org/2000/svg" xmlns:xlink="http://www.w3.org/1999/xlink" width="32" height="32" viewBox="0 0 32 32">
<path fill="#444444" d="M21.272 11.507l0.012-0.005c0.003 0.003 0.005 0.005 0.005 0.005l0 3.166c0 0 2.693 1.488 4.693 1.488 0.815 0 1.515-0.247 1.871-0.943 1.227-2.353-0.636-5.538-2.735-6.569-3.294-1.571-6.341-2.123-8.988-2.123-0.044 0-0.087 0-0.131 0s-0.087-0-0.13-0c-2.647-0-5.694 0.551-8.988 2.123-2.099 1.031-3.962 4.216-2.735 6.569 0.356 0.695 1.056 0.942 1.871 0.942 2 0 4.693-1.488 4.693-1.488l0-3.166c0 0 0.002-0.002 0.005-0.005l0.012 0.005c0 0 0.945-1.032 5.272-1.033 4.327 0.001 5.272 1.033 5.272 1.033z"></path>
<path fill="#444444" d="M16 16.771c-1.49 0-2.699 1.208-2.699 2.699s1.208 2.699 2.699 2.699c1.49 0 2.699-1.208 2.699-2.699s-1.208-2.699-2.699-2.699z"></path>
<path fill="#444444" d="M20.574 15.969l-0.764-0.422v-0.873l-0-2.060h-7.619v2.060l-0 0.873-0.764 0.422c-0.253 0.14-2.151 1.164-4.099 1.537l-1.373 4.234v3.732h19.655v-3.732l-1.406-4.336c-1.774-0.431-3.398-1.307-3.63-1.436zM16 23.648c-2.304 0-4.178-1.874-4.178-4.178s1.874-4.179 4.178-4.179c2.304 0 4.178 1.875 4.178 4.179s-1.874 4.178-4.178 4.178z"></path>
</svg>
