<?xml version="1.0" encoding="utf-8"?>
<!-- Generated by IcoMoon.io -->
<!DOCTYPE svg PUBLIC "-//W3C//DTD SVG 1.1//EN" "http://www.w3.org/Graphics/SVG/1.1/DTD/svg11.dtd">
<svg version="1.1" xmlns="http://www.w3.org/2000/svg" xmlns:xlink="http://www.w3.org/1999/xlink" width="32" height="32" viewBox="0 0 32 32">
<path fill="#444444" d="M28.812 23.996c-0.427-1.238-1.842-1.416-3.024-1.915-1.297-0.547-2.736-1.183-4.031-1.713-0.369-0.101-0.739-0.202-1.108-0.302-0.441-0.303-0.873-1.312-1.109-1.814-0.235-0.034-0.47-0.067-0.705-0.101 0.036-0.776 0.517-0.818 0.705-1.411 0.166-0.523 0.017-1.203 0.281-1.687 0.183-0.336 0.596-0.338 0.803-0.627 0.188-0.262 0.311-0.718 0.369-1.038 0.107-0.585 0.2-1.387-0.078-1.967-0.16-0.334-0.261-0.366-0.305-0.771-0.054-0.491 0.145-2.092 0.153-2.438 0.020-0.898-0.001-0.971-0.219-1.845 0 0-0.264-0.793-0.677-1.031l-0.825-0.142-0.51-0.472c-2.053-1.264-4.255-0.377-5.434 0.101-1.612 0.523-2.661 2.049-2.123 5.241 0.18 0.025 0.319 0.178 0.319 0.365v4.025c0.070 0.101 0.15 0.185 0.243 0.243 0.064 0.040 0.549 0.162 0.546 0.128 0.049 0.514 0.098 1.029 0.147 1.544l0.659 0.631h1.608c0.080-0.369 0.401-0.645 0.786-0.645h1.219c0.445 0 0.805 0.368 0.805 0.823s-0.361 0.823-0.805 0.823h-1.219c-0.232 0-0.44-0.1-0.587-0.26h-2.105l-2.038-1.951v-0.398l-0.009-0.009v-5.066c0-0.327-0.265-0.592-0.592-0.592s-0.592 0.265-0.592 0.592v0.504h-1.083v3.837h1.083v1.224l2.771 2.713h0.169c-0.246 0.526-0.595 1.228-0.95 1.473-0.37 0.101-0.739 0.202-1.108 0.302-1.295 0.531-2.733 1.166-4.031 1.713-1.182 0.498-2.596 0.676-3.024 1.915 0 0.841-0.079 2.828-0.058 3.93h25.739c0.022-1.102-0.058-3.089-0.058-3.93z"></path>
</svg>
