<?xml version="1.0" encoding="utf-8"?>
<!-- Generated by IcoMoon.io -->
<!DOCTYPE svg PUBLIC "-//W3C//DTD SVG 1.1//EN" "http://www.w3.org/Graphics/SVG/1.1/DTD/svg11.dtd">
<svg version="1.1" xmlns="http://www.w3.org/2000/svg" xmlns:xlink="http://www.w3.org/1999/xlink" width="32" height="32" viewBox="0 0 32 32">
<path fill="#444444" d="M11.309 10.424v-5.194h16.766v5.194h-16.766z"></path>
<path fill="#444444" d="M11.308 18.612v-5.194h16.767v5.194h-16.767z"></path>
<path fill="#444444" d="M11.309 26.8v-5.194h16.766v5.194h-16.766z"></path>
<path fill="#444444" d="M4.121 6.73v-0.752c0.348-0.016 0.591-0.039 0.731-0.070 0.221-0.049 0.402-0.147 0.541-0.295 0.095-0.101 0.167-0.235 0.216-0.403 0.028-0.101 0.043-0.176 0.043-0.225h0.922v5.619h-1.132v-3.875h-1.321z"></path>
<path fill="#444444" d="M4.079 17.789c0.158-0.375 0.53-0.771 1.116-1.19 0.509-0.364 0.838-0.625 0.988-0.783 0.23-0.245 0.345-0.514 0.345-0.806 0-0.238-0.066-0.435-0.198-0.593s-0.32-0.236-0.566-0.236c-0.336 0-0.564 0.125-0.686 0.376-0.070 0.145-0.111 0.375-0.124 0.69h-1.074c0.018-0.478 0.105-0.864 0.26-1.159 0.295-0.561 0.819-0.841 1.571-0.841 0.595 0 1.068 0.165 1.42 0.494s0.528 0.765 0.528 1.308c0 0.416-0.124 0.785-0.373 1.108-0.163 0.215-0.431 0.453-0.804 0.717l-0.443 0.314c-0.277 0.197-0.466 0.339-0.569 0.426s-0.188 0.19-0.258 0.306h2.453v0.973h-3.848c0.010-0.403 0.097-0.771 0.26-1.105z"></path>
<path fill="#444444" d="M4.865 25.131c0 0.225 0.036 0.411 0.108 0.558 0.134 0.271 0.378 0.407 0.731 0.407 0.216 0 0.405-0.074 0.566-0.223s0.242-0.362 0.242-0.641c0-0.369-0.149-0.616-0.448-0.74-0.17-0.070-0.438-0.105-0.804-0.105v-0.79c0.358-0.005 0.608-0.040 0.749-0.105 0.245-0.109 0.367-0.328 0.367-0.659 0-0.215-0.062-0.389-0.187-0.523s-0.301-0.201-0.528-0.201c-0.26 0-0.452 0.083-0.574 0.248s-0.181 0.386-0.176 0.663h-1.031c0.010-0.279 0.058-0.544 0.143-0.795 0.090-0.22 0.232-0.422 0.426-0.608 0.144-0.132 0.316-0.233 0.515-0.302s0.443-0.105 0.732-0.105c0.537 0 0.97 0.139 1.299 0.417s0.494 0.651 0.494 1.118c0 0.331-0.098 0.61-0.294 0.837-0.124 0.142-0.253 0.239-0.388 0.291 0.101 0 0.245 0.087 0.434 0.26 0.282 0.261 0.423 0.617 0.423 1.070 0 0.475-0.165 0.893-0.494 1.254s-0.816 0.541-1.462 0.541c-0.795 0-1.348-0.259-1.657-0.779-0.163-0.276-0.253-0.638-0.271-1.085h1.085z"></path>
</svg>
