<?xml version="1.0" encoding="utf-8"?>
<!-- Generated by IcoMoon.io -->
<!DOCTYPE svg PUBLIC "-//W3C//DTD SVG 1.1//EN" "http://www.w3.org/Graphics/SVG/1.1/DTD/svg11.dtd">
<svg version="1.1" xmlns="http://www.w3.org/2000/svg" xmlns:xlink="http://www.w3.org/1999/xlink" width="32" height="32" viewBox="0 0 32 32">
<path fill="#444444" d="M6.587 27.13v-22.914h8.851c2.325 0 1.205 5.511 1.205 5.511s5.375-1.307 5.444 1.158v7.44c0.542 0.008 1.067 0.089 1.565 0.232v-9.74l-6.166-6.166h-12.463v26.044h12.863c-0.48-0.451-0.885-0.979-1.196-1.565h-10.102zM21.945 19.418c-2.71 0-4.906 2.197-4.906 4.907s2.197 4.906 4.906 4.906c2.71 0 4.907-2.197 4.907-4.906s-2.197-4.907-4.907-4.907zM18.419 25.206v-1.765h7.052v1.765h-7.052z"></path>
</svg>
