<?xml version="1.0" encoding="utf-8"?>
<!-- Generated by IcoMoon.io -->
<!DOCTYPE svg PUBLIC "-//W3C//DTD SVG 1.1//EN" "http://www.w3.org/Graphics/SVG/1.1/DTD/svg11.dtd">
<svg version="1.1" xmlns="http://www.w3.org/2000/svg" xmlns:xlink="http://www.w3.org/1999/xlink" width="32" height="32" viewBox="0 0 32 32">
<path fill="#444444" d="M6.624 27.13v-22.914h8.851c2.325 0 1.205 5.511 1.205 5.511s5.375-1.307 5.444 1.158v7.44c0.542 0.008 1.067 0.089 1.565 0.232v-9.74l-6.166-6.166h-12.463v26.044h12.863c-0.479-0.451-0.885-0.979-1.196-1.565h-10.102zM19.634 24.249c0 1.299 1.057 2.356 2.357 2.356 0.464 0 0.895-0.137 1.26-0.369l-3.248-3.248c-0.232 0.365-0.369 0.797-0.369 1.261zM21.991 21.892c-0.464 0-0.896 0.137-1.261 0.369l3.248 3.248c0.232-0.365 0.369-0.797 0.369-1.26 0-1.3-1.057-2.357-2.356-2.357zM21.981 19.418c-2.71 0-4.906 2.197-4.906 4.907s2.197 4.906 4.906 4.906c2.71 0 4.907-2.197 4.907-4.906s-2.197-4.907-4.907-4.907zM21.991 27.634c-1.869 0-3.385-1.515-3.385-3.385s1.515-3.385 3.385-3.385c1.869 0 3.384 1.515 3.384 3.385s-1.515 3.385-3.384 3.385z"></path>
</svg>
