<?xml version="1.0" encoding="utf-8"?>
<!-- Generated by IcoMoon.io -->
<!DOCTYPE svg PUBLIC "-//W3C//DTD SVG 1.1//EN" "http://www.w3.org/Graphics/SVG/1.1/DTD/svg11.dtd">
<svg version="1.1" xmlns="http://www.w3.org/2000/svg" xmlns:xlink="http://www.w3.org/1999/xlink" width="32" height="32" viewBox="0 0 32 32">
<path fill="#444444" d="M28.53 15.094l-11.278-11.277c-0.691-0.69-1.809-0.69-2.498 0l-0.362 0.36-1.833-1.835-4.752 4.75 6.297 9.706-0.683 0.713-1.102-1.102-9.579 9.581 3.656 3.657 9.582-9.58-1.202-1.201 1.758-1.839-6.275-9.678 2.299-2.297 0.48 0.479-0.619 0.618c-0.691 0.69-0.691 1.809 0 2.499l11.276 11.277c0.691 0.69 1.811 0.69 2.499 0l2.334-2.334c0.689-0.689 0.689-1.808-0-2.498z"></path>
</svg>
