<?xml version="1.0" encoding="utf-8"?>
<!-- Generated by IcoMoon.io -->
<!DOCTYPE svg PUBLIC "-//W3C//DTD SVG 1.1//EN" "http://www.w3.org/Graphics/SVG/1.1/DTD/svg11.dtd">
<svg version="1.1" xmlns="http://www.w3.org/2000/svg" xmlns:xlink="http://www.w3.org/1999/xlink" width="32" height="32" viewBox="0 0 32 32">
<path fill="#444444" d="M23.317 14.973c-0.884-0.18-1.994 0.208-2.83-0.163-1.448-0.642-1.448-2.938-1.567-4.235-0.146-1.582-0.829-2.493-2.026-3.158-2.393-1.33-5.74-1.65-8.281 0.672-3.298 3.014-3.448 8.949-0.334 13.257 1.77 2.448 5.586 4.273 8.437 4.273 4.475 0 8.581-2.727 9.176-6.365 0.363-2.221-0.65-3.889-2.573-4.282zM9.38 10.385c1.023-1.222 2.762-1.362 3.885-0.311 1.121 1.050 1.201 2.893 0.178 4.115s-2.762 1.361-3.883 0.311c-1.122-1.051-1.202-2.892-0.179-4.115zM14.28 20.782c-0.824 0.985-2.226 1.097-3.13 0.251s-0.969-2.331-0.144-3.316c0.825-0.985 2.226-1.098 3.131-0.251 0.903 0.847 0.968 2.331 0.144 3.317zM19.18 22.403c-0.594 0.709-1.603 0.79-2.254 0.181s-0.698-1.679-0.104-2.389c0.594-0.709 1.603-0.79 2.255-0.181s0.697 1.679 0.103 2.389zM22.659 19.032c-0.443 0.529-1.197 0.59-1.683 0.135s-0.521-1.253-0.077-1.783 1.196-0.59 1.683-0.135c0.486 0.455 0.52 1.253 0.077 1.783z"></path>
</svg>
