<?xml version="1.0" encoding="utf-8"?>
<!-- Generated by IcoMoon.io -->
<!DOCTYPE svg PUBLIC "-//W3C//DTD SVG 1.1//EN" "http://www.w3.org/Graphics/SVG/1.1/DTD/svg11.dtd">
<svg version="1.1" xmlns="http://www.w3.org/2000/svg" xmlns:xlink="http://www.w3.org/1999/xlink" width="32" height="32" viewBox="0 0 32 32">
<path fill="#444444" d="M26.395 12.536l-8.757 6.679 2.111-5.079c-0.022-0.445-0.416-0.911-1.076-1.266l-2.611 6.282-2.712-6.294c-0.638 0.337-1.033 0.777-1.092 1.205l2.277 5.284-8.929-6.81c-0.617 0.189-1.108 0.462-1.435 0.767l9.894 7.546h3.873l9.894-7.546c-0.327-0.305-0.818-0.578-1.435-0.767z"></path>
<path fill="#444444" d="M11.469 22.328h9.063v6.183h-9.063v-6.183z"></path>
<path fill="#444444" d="M20.19 12.736c0.713-1.712 0.809-3.314 0.28-4.775-0.969-2.675-3.75-4.133-4.47-4.472-0.72 0.341-3.508 1.807-4.472 4.478-0.527 1.459-0.43 3.060 0.282 4.769 0.809-0.901 2.364-1.5 4.19-1.5s3.381 0.599 4.19 1.5z"></path>
<path fill="#444444" d="M17.833 3.492c1.214 0.81 2.766 2.173 3.486 4.161 0.486 1.341 0.521 2.772 0.108 4.272 0.831-0.431 1.913-0.689 3.111-0.689 1.567 0 2.947 0.438 3.818 1.141-0.205-4.519-4.709-8.232-10.523-8.885z"></path>
<path fill="#444444" d="M7.461 11.236c1.198 0 2.28 0.258 3.111 0.689-0.413-1.501-0.378-2.931 0.108-4.273 0.72-1.987 2.272-3.35 3.486-4.16-5.814 0.653-10.318 4.365-10.523 8.885 0.87-0.703 2.25-1.141 3.817-1.141z"></path>
</svg>
