<?xml version="1.0" encoding="utf-8"?>
<!-- Generated by IcoMoon.io -->
<!DOCTYPE svg PUBLIC "-//W3C//DTD SVG 1.1//EN" "http://www.w3.org/Graphics/SVG/1.1/DTD/svg11.dtd">
<svg version="1.1" xmlns="http://www.w3.org/2000/svg" xmlns:xlink="http://www.w3.org/1999/xlink" width="32" height="32" viewBox="0 0 32 32">
<path fill="#444444" d="M11.832 10.477c2.128 0 3.855-1.724 3.855-3.854 0-2.128-1.727-3.853-3.855-3.853-2.13 0-3.855 1.725-3.855 3.853-0 2.13 1.725 3.854 3.855 3.854zM23.238 19.68c1.531 0 2.772-1.241 2.772-2.771s-1.241-2.771-2.772-2.771c-1.531 0-2.769 1.24-2.769 2.771s1.239 2.771 2.769 2.771zM25.809 20.842c-0.405-0.403-0.883-0.644-2.614-0.644-1.729 0-2.085 0.456-2.579 0.644l-2.516 0.752c-0.014-0.464-0.284-8.58-1.073-9.371-0.815-0.814-1.782-1.303-5.281-1.303s-4.441 0.53-5.216 1.303c-0.773 0.773-0.511 9.017-0.511 9.017l1.711-4.066 1.075 12.11 3.103-6.196 2.896 6.196 1.024-12.11 2.265 4.423-0.029 0.009 3.146 0.819 0.533 6.859 1.533-3.066 1.435 3.066 0.505-5.992 0.848 2.012c0 0 0.149-4.059-0.253-4.462z"></path>
</svg>
