<?xml version="1.0" encoding="utf-8"?>
<!-- Generated by IcoMoon.io -->
<!DOCTYPE svg PUBLIC "-//W3C//DTD SVG 1.1//EN" "http://www.w3.org/Graphics/SVG/1.1/DTD/svg11.dtd">
<svg version="1.1" xmlns="http://www.w3.org/2000/svg" xmlns:xlink="http://www.w3.org/1999/xlink" width="32" height="32" viewBox="0 0 32 32">
<path fill="#444444" d="M27.425 21.936c0.105-0.405 0.162-0.832 0.162-1.271 0-2.772-2.247-5.021-5.020-5.021-2.085 0-3.871 1.272-4.631 3.081-0.65-0.766-1.621-1.253-2.706-1.253-1.962 0-3.552 1.59-3.552 3.553 0 0.337 0.048 0.663 0.135 0.974-1.602 0.587-2.745 2.126-2.745 3.933 0 2.311 1.873 4.187 4.187 4.187h12.908c2.316 0 4.189-1.876 4.189-4.187 0-1.875-1.23-3.46-2.926-3.997zM13.132 6.026c0.666 0 1.206-0.54 1.206-1.207v-1.737c0-0.665-0.54-1.206-1.206-1.206-0.664 0-1.204 0.541-1.204 1.206v1.737c0 0.667 0.54 1.207 1.204 1.207zM19.139 8.514c0.309 0 0.618-0.118 0.852-0.353l1.23-1.23c0.47-0.47 0.47-1.233 0-1.703-0.47-0.472-1.234-0.472-1.705 0l-1.23 1.228c-0.47 0.47-0.47 1.234 0 1.705 0.235 0.235 0.544 0.354 0.852 0.354zM6.275 8.161c0.235 0.235 0.544 0.353 0.852 0.353s0.617-0.118 0.853-0.353c0.471-0.47 0.471-1.235 0-1.705l-1.228-1.228c-0.47-0.472-1.235-0.472-1.707 0-0.468 0.47-0.468 1.233 0 1.703l1.23 1.229zM20.423 13.314c0 0.375 0.17 0.71 0.437 0.931 0.549-0.146 1.121-0.224 1.707-0.224 0.55 0 1.085 0.068 1.596 0.196 0.251-0.22 0.409-0.543 0.409-0.902 0-0.666-0.54-1.206-1.206-1.206h-1.737c-0.667 0-1.206 0.54-1.206 1.205zM11.479 17.464c-1.649-0.658-2.812-2.267-2.812-4.149 0-2.469 1.999-4.47 4.468-4.47 2.467 0 4.468 2.001 4.468 4.47 0 1.031-0.352 1.981-0.938 2.737 0.286 0.082 0.564 0.189 0.831 0.319 0.442-0.522 0.962-0.971 1.536-1.332 0.16-0.547 0.249-1.126 0.249-1.723 0-3.389-2.757-6.147-6.146-6.147s-6.146 2.757-6.146 6.147c0 2.455 1.447 4.576 3.534 5.561 0.24-0.523 0.564-0.999 0.957-1.411zM6.275 18.469l-1.23 1.23c-0.47 0.47-0.47 1.232 0 1.704 0.235 0.235 0.545 0.352 0.852 0.352 0.31 0 0.618-0.117 0.854-0.352l1.228-1.23c0.471-0.47 0.471-1.232 0-1.703s-1.234-0.471-1.705 0zM5.845 13.315c0-0.666-0.541-1.206-1.207-1.206h-1.737c-0.665 0-1.206 0.54-1.206 1.205s0.541 1.205 1.206 1.205h1.737c0.666 0 1.207-0.538 1.207-1.204z"></path>
</svg>
