<?xml version="1.0" encoding="utf-8"?>
<!-- Generated by IcoMoon.io -->
<!DOCTYPE svg PUBLIC "-//W3C//DTD SVG 1.1//EN" "http://www.w3.org/Graphics/SVG/1.1/DTD/svg11.dtd">
<svg version="1.1" xmlns="http://www.w3.org/2000/svg" xmlns:xlink="http://www.w3.org/1999/xlink" width="32" height="32" viewBox="0 0 32 32">
<path fill="#444444" d="M23.768 5.943h-4.28c0.004-0.070 0.006-0.138 0.006-0.208 0-1.925-1.559-3.484-3.483-3.484-1.925 0-3.485 1.559-3.485 3.484 0 0.069 0.004 0.138 0.006 0.208h-4.278v3.61h15.513v-3.61zM16.012 7.303c-0.867-0.002-1.566-0.702-1.567-1.568 0.002-0.866 0.701-1.568 1.567-1.569 0.865 0.001 1.568 0.702 1.568 1.569s-0.703 1.565-1.568 1.568zM25.328 8.165v3.042h-18.63v-3.042h-1.727v21.567h22.082v-21.567h-1.725z"></path>
</svg>
