<?xml version="1.0" encoding="utf-8"?>
<!-- Generated by IcoMoon.io -->
<!DOCTYPE svg PUBLIC "-//W3C//DTD SVG 1.1//EN" "http://www.w3.org/Graphics/SVG/1.1/DTD/svg11.dtd">
<svg version="1.1" xmlns="http://www.w3.org/2000/svg" xmlns:xlink="http://www.w3.org/1999/xlink" width="32" height="32" viewBox="0 0 32 32">
<path fill="#444444" d="M21.978 7.227l-4.599 5.572h3v6.619c-0.002 1.188-0.963 2.149-2.15 2.152-1.189-0.003-2.15-0.965-2.154-2.152v-5.954c0-2.954-2.393-5.347-5.347-5.349-2.954 0.002-5.347 2.394-5.349 5.349v10.786h3.197v-10.786c0.002-1.188 0.965-2.15 2.152-2.152 1.188 0.002 2.148 0.965 2.15 2.152v5.954c0.002 2.954 2.396 5.347 5.351 5.348 2.952-0.001 5.345-2.393 5.347-5.348v-6.619h3.001l-4.599-5.572z"></path>
</svg>
