<?xml version="1.0" encoding="utf-8"?>
<!-- Generated by IcoMoon.io -->
<!DOCTYPE svg PUBLIC "-//W3C//DTD SVG 1.1//EN" "http://www.w3.org/Graphics/SVG/1.1/DTD/svg11.dtd">
<svg version="1.1" xmlns="http://www.w3.org/2000/svg" xmlns:xlink="http://www.w3.org/1999/xlink" width="32" height="32" viewBox="0 0 32 32">
<path fill="#444444" d="M27.239 3.219h-22.45c-0.425 0-0.773 0.345-0.773 0.771v15.737c0 0.425 0.347 0.771 0.773 0.771h22.45c0.425 0 0.768-0.346 0.768-0.771v-15.737c0-0.426-0.343-0.771-0.768-0.771zM26.139 18.627h-20.253v-13.538h20.253v13.538zM4.072 28.792h23.813v-6.078h-23.813v6.078zM19.231 24.974h6.837v1.558h-6.837v-1.558zM7.162 24.852c0.537 0 0.975 0.438 0.975 0.975s-0.437 0.975-0.975 0.975c-0.538 0-0.975-0.437-0.975-0.975s0.437-0.975 0.975-0.975z"></path>
</svg>
