<?xml version="1.0" encoding="utf-8"?>
<!-- Generated by IcoMoon.io -->
<!DOCTYPE svg PUBLIC "-//W3C//DTD SVG 1.1//EN" "http://www.w3.org/Graphics/SVG/1.1/DTD/svg11.dtd">
<svg version="1.1" xmlns="http://www.w3.org/2000/svg" xmlns:xlink="http://www.w3.org/1999/xlink" width="32" height="32" viewBox="0 0 32 32">
<path fill="#444444" d="M23.768 16.387l-4.202-5.927c-0.19-0.277-0.413-0.446-0.65-0.578-0.256-0.133-0.532-0.226-0.883-0.231-0.041 0-0.076 0.001-0.102 0.004l-1.919 0.12-1.978-0.124c-0.035-0.003-0.076-0.003-0.1-0.003-0.352 0.004-0.63 0.097-0.883 0.233-0.237 0.133-0.46 0.304-0.652 0.582v0l-4.147 5.928c-0.348 0.494-0.227 1.174 0.268 1.521 0.19 0.133 0.409 0.197 0.623 0.197 0.345 0 0.683-0.163 0.895-0.466v0l3.853-5.504c0.008 0.034 0.018 0.068 0.018 0.104 0 0 0 0 0 0.314v0c0 2.232-0.358 8.026-3.538 15.383-0.239 0.552 0.014 1.195 0.568 1.434 0.141 0.060 0.288 0.089 0.431 0.089 0.423 0 0.824-0.246 1.002-0.659 1.482-3.423 2.814-8.712 2.814-8.712 0.059-0.237 0.306-0.429 0.548-0.429v0h0.552c0.243 0 0.493 0.192 0.55 0.429 0 0 1.332 5.289 2.812 8.712 0.178 0.413 0.58 0.659 1.003 0.659 0.145 0 0.29-0.028 0.431-0.089 0.552-0.24 0.807-0.882 0.57-1.434-3.182-7.357-3.54-13.151-3.54-15.383 0-0.315 0-0.315 0-0.315 0-0.017 0.004-0.034 0.008-0.050l3.867 5.456c0.347 0.491 1.028 0.607 1.521 0.259 0.493-0.349 0.607-1.029 0.26-1.52zM16.011 8.865c1.733 0 3.135-1.404 3.135-3.137s-1.402-3.137-3.135-3.137c-1.733 0-3.137 1.405-3.137 3.137s1.404 3.137 3.137 3.137z"></path>
</svg>
