<?xml version="1.0" encoding="utf-8"?>
<!-- Generated by IcoMoon.io -->
<!DOCTYPE svg PUBLIC "-//W3C//DTD SVG 1.1//EN" "http://www.w3.org/Graphics/SVG/1.1/DTD/svg11.dtd">
<svg version="1.1" xmlns="http://www.w3.org/2000/svg" xmlns:xlink="http://www.w3.org/1999/xlink" width="32" height="32" viewBox="0 0 32 32">
<path fill="#444444" d="M15.998 10.385c2.138 0 3.871-1.733 3.871-3.871s-1.733-3.871-3.871-3.871-3.871 1.733-3.871 3.871c0 2.138 1.733 3.871 3.871 3.871zM21.215 12.137c-0.818-0.818-1.789-1.308-5.302-1.308s-4.461 0.532-5.237 1.308c-0.776 0.776-0.514 9.055-0.514 9.055l1.718-4.081 1.080 12.16 3.116-6.223 2.908 6.223 1.029-12.16 1.718 4.081c0-0 0.304-8.238-0.514-9.055z"></path>
</svg>
