<?xml version="1.0" encoding="utf-8"?>
<!-- Generated by IcoMoon.io -->
<!DOCTYPE svg PUBLIC "-//W3C//DTD SVG 1.1//EN" "http://www.w3.org/Graphics/SVG/1.1/DTD/svg11.dtd">
<svg version="1.1" xmlns="http://www.w3.org/2000/svg" xmlns:xlink="http://www.w3.org/1999/xlink" width="32" height="32" viewBox="0 0 32 32">
<path fill="#444444" d="M24.528 17.528c0.212 0 0.403-0.086 0.541-0.224s0.224-0.33 0.224-0.541c-0-2.761-1.126-5.265-2.935-7.072-1.803-1.804-4.304-2.918-7.055-2.918-0.423 0-0.765 0.343-0.766 0.765s0.343 0.765 0.766 0.765h-0c2.335 0.001 4.443 0.941 5.973 2.47 1.535 1.537 2.486 3.648 2.486 5.99 0 0.423 0.343 0.765 0.765 0.765z"></path>
<path fill="#444444" d="M18.864 13.197c0.913 0.914 1.476 2.168 1.476 3.56 0 0.423 0.343 0.766 0.766 0.765 0.211 0 0.403-0.086 0.541-0.224s0.224-0.33 0.224-0.541c0-1.812-0.738-3.457-1.925-4.643-1.185-1.186-2.83-1.92-4.637-1.919-0.423-0-0.766 0.343-0.765 0.765s0.342 0.765 0.765 0.765v0c1.391 0 2.643 0.561 3.555 1.471z"></path>
<path fill="#444444" d="M24.879 7.171c-2.435-2.436-5.809-3.941-9.525-3.941-0.423 0-0.766 0.343-0.765 0.766s0.342 0.765 0.765 0.765c3.299 0.001 6.28 1.332 8.442 3.493 2.167 2.168 3.508 5.153 3.509 8.459-0 0.423 0.343 0.765 0.765 0.765 0.211 0 0.403-0.086 0.541-0.224s0.224-0.33 0.224-0.541c0-3.725-1.516-7.101-3.957-9.541z"></path>
<path fill="#444444" d="M17.308 23.465c0 0-1.59 0.069-5.072-3.412s-3.412-5.072-3.412-5.072l2.543-2.544c-0.425-2.578-1.917-6.653-4.835-5.712-2.876 0.905-3.938 4.96-3.080 7.474 4.246 11.989 14.327 14.411 15.872 14.526 3.705 0.392 6.088-1.929 6.553-5.442 0 0-3.747-2.383-5.616-2.774l-2.955 2.955z"></path>
</svg>
