<?xml version="1.0" encoding="utf-8"?>
<!-- Generated by IcoMoon.io -->
<!DOCTYPE svg PUBLIC "-//W3C//DTD SVG 1.1//EN" "http://www.w3.org/Graphics/SVG/1.1/DTD/svg11.dtd">
<svg version="1.1" xmlns="http://www.w3.org/2000/svg" xmlns:xlink="http://www.w3.org/1999/xlink" width="32" height="32" viewBox="0 0 32 32">
<path fill="#444444" d="M19.809 12.152c-2.819 0-5.105 2.285-5.105 5.105s2.285 5.105 5.105 5.105c2.819 0 5.105-2.285 5.105-5.105s-2.285-5.105-5.105-5.105zM19.809 20.252c-1.654 0-2.995-1.341-2.995-2.996s1.341-2.995 2.995-2.995c1.654 0 2.995 1.341 2.995 2.995s-1.341 2.996-2.995 2.996zM11.895 7.854l-1.429-1.644h-4.195l-1.429 1.644h-2.609v17.906h27.394v-17.906h-17.731zM10.839 11.43h-3.899c-0.461 0-0.835-0.374-0.835-0.835s0.374-0.835 0.835-0.835h3.899c0.461 0 0.835 0.374 0.835 0.835s-0.374 0.835-0.835 0.835zM19.809 23.926c-3.678 0-6.67-2.992-6.67-6.67s2.992-6.67 6.67-6.67 6.67 2.992 6.67 6.67c0 3.678-2.992 6.67-6.67 6.67zM28.199 10.84c0 0.245-0.198 0.443-0.443 0.443h-1.028c-0.244 0-0.443-0.198-0.443-0.443v-1.028c0-0.245 0.198-0.443 0.443-0.443h1.028c0.244 0 0.443 0.198 0.443 0.443v1.028z"></path>
</svg>
