<?xml version="1.0" encoding="utf-8"?>
<!-- Generated by IcoMoon.io -->
<!DOCTYPE svg PUBLIC "-//W3C//DTD SVG 1.1//EN" "http://www.w3.org/Graphics/SVG/1.1/DTD/svg11.dtd">
<svg version="1.1" xmlns="http://www.w3.org/2000/svg" xmlns:xlink="http://www.w3.org/1999/xlink" width="32" height="32" viewBox="0 0 32 32">
<path fill="#444444" d="M28.835 16.521c-0.073-0.049-0.149-0.113-0.227-0.188 0.127-0.121 0.235-0.273 0.303-0.435 0.089-0.21 0.121-0.425 0.121-0.633 0-0.206-0.031-0.41-0.082-0.627-0.073-0.376-0.24-0.699-0.476-0.959-0.243-0.258-0.575-0.493-1.061-0.503-0.086-0.001-0.175 0.012-0.264 0.033-0.945-4.591-4.197-7.553-10.585-7.553-2.708 0-4.981 0.535-6.793 1.498l-1.51-0.872c-0.855-0.494-1.683-0.1-1.841 0.876l-0.646 4.035c-0.319 0.631-0.574 1.307-0.76 2.023h-0.433c-0.988 0-1.797 0.809-1.797 1.797v3.216c0 0.988 0.808 1.796 1.797 1.796h0.731c0.623 1.375 1.669 2.324 3.12 2.958v3.26c0 0.030 0.003 0.058 0.004 0.086h5.575c0.001-0.028 0.003-0.056 0.003-0.086v-2.176c0.803 0.046 1.652 0.065 2.551 0.065 0.713 0 1.388-0.024 2.023-0.074v2.184c0 0.030 0.002 0.058 0.004 0.086h5.572c0.002-0.028 0.006-0.056 0.006-0.086v-3.693c1.942-1.142 2.955-2.865 3.213-5.046 0.149 0.149 0.31 0.286 0.483 0.408 0.347 0.24 0.753 0.432 1.234 0.459l0.086-1.693c-0.047 0-0.18-0.037-0.35-0.155zM8.165 15.355c-0.63 0-1.141-0.512-1.141-1.143s0.511-1.142 1.141-1.142c0.631 0 1.143 0.511 1.143 1.142s-0.512 1.143-1.143 1.143zM20.155 10.261c-1.038-0.306-2.235-0.477-3.607-0.477-1.422 0-2.737 0.184-3.929 0.518l-0.521-1.863c1.37-0.383 2.862-0.588 4.45-0.588 1.531 0 2.915 0.191 4.153 0.555l-0.546 1.856z"></path>
</svg>
