<?xml version="1.0" encoding="utf-8"?>
<!-- Generated by IcoMoon.io -->
<!DOCTYPE svg PUBLIC "-//W3C//DTD SVG 1.1//EN" "http://www.w3.org/Graphics/SVG/1.1/DTD/svg11.dtd">
<svg version="1.1" xmlns="http://www.w3.org/2000/svg" xmlns:xlink="http://www.w3.org/1999/xlink" width="32" height="32" viewBox="0 0 32 32">
<path fill="#444444" d="M15.991 9.639c0.237 0 0.294-0.088 0.294-0.088s-0.025-0.706-0.294-0.706c-0.272 0-0.294 0.706-0.294 0.706s0.055 0.088 0.294 0.088zM14.795 9.079c0.145 0 0.382-0.064 0.527-0.143 0.147-0.080 0.262-0.277 0.26-0.439s-0.094-0.36-0.206-0.44c-0.11-0.079-0.356-0.094-0.546-0.030-0.192 0.063-0.368 0.23-0.394 0.374-0.025 0.141-0.014 0.353 0.025 0.469 0.039 0.115 0.19 0.209 0.335 0.209zM16.657 8.936c0.147 0.078 0.382 0.143 0.527 0.143 0.147 0 0.296-0.094 0.337-0.209 0.037-0.116 0.049-0.328 0.022-0.469-0.026-0.144-0.2-0.311-0.392-0.374-0.19-0.064-0.437-0.049-0.548 0.030s-0.202 0.277-0.206 0.44c-0.002 0.163 0.115 0.359 0.26 0.439zM10.139 11.9h3.779c1.633 0.501 3.769 0.976 6.228 1.099-0.010-0.257 0.023-0.689 0.059-1.099h1.827c1.457 0 3.011-0.867 3.452-1.926 0.439-1.061-0.309-0.677-1.662-0.416-1.351 0.261-3.1-2.409-3.881-3.396-0.785-0.986-2.557-2.74-3.945-2.74-1.386 0-3.172 1.675-3.971 2.563-0.799 0.886-2.573 3.545-3.943 3.366s-2.064-0.484-1.541 0.593c0.521 1.076 2.142 1.956 3.597 1.956zM15.991 5.431c1.363 0 2.209 1.009 2.209 1.693 0 0.686-0.259 1.087-0.327 1.287-0.137 0.406 0.027 0.604 0.027 0.604s-0.049 0.418-0.182 0.603c-0.133 0.185-0.785-0.123-0.785 0.573 0 0-0.249 0.187-0.936 0.187s-0.95-0.187-0.95-0.187c0-0.697-0.652-0.388-0.785-0.573s-0.18-0.603-0.18-0.603 0.161-0.198 0.027-0.604c-0.068-0.2-0.329-0.601-0.329-1.287 0-0.684 0.846-1.693 2.211-1.693zM27.524 25.099c-0.384-1.113-1.656-1.273-2.718-1.721-1.167-0.492-2.459-1.063-3.624-1.541-0.331-0.090-0.664-0.181-0.995-0.271-0.396-0.273-0.785-1.179-0.997-1.631-0.213-0.030-0.423-0.060-0.636-0.091 0.035-0.696 0.466-0.734 0.636-1.267 0.149-0.47 0.016-1.081 0.253-1.516 0.164-0.302 0.535-0.305 0.721-0.564 0.168-0.235 0.28-0.645 0.333-0.934 0.078-0.427 0.143-0.984 0.033-1.457-0.511-0.018-1.012-0.048-1.496-0.092l-0.331 1.124c-0.127 0.424-0.589 0.726-1.028 0.672l-0.773-0.096c-0.437-0.055-0.803-0.46-0.811-0.903l-0.018-1.15c0-0.030 0.006-0.056 0.008-0.085-1.991-0.409-3.587-0.971-4.65-1.407 0.035 0.278 0.084 0.572 0.149 0.882 0.117 0.545-0.298 0.789-0.272 1.086 0.059 0.651 0.071 2.217 0.687 2.603 0.057 0.036 0.495 0.145 0.49 0.116 0.061 0.634 0.123 1.267 0.182 1.901 0.153 0.422 0.523 0.468 0.63 1.064l-0.472 0.114c-0.213 0.452-0.601 1.358-0.995 1.631-0.333 0.091-0.664 0.182-0.999 0.271-1.163 0.478-2.455 1.049-3.622 1.541-1.063 0.448-2.334 0.607-2.716 1.721 0 0.757-0.074 2.542-0.053 3.533h23.137c0.020-0.991-0.051-2.777-0.051-3.533z"></path>
</svg>
