<?xml version="1.0" encoding="utf-8"?>
<!-- Generated by IcoMoon.io -->
<!DOCTYPE svg PUBLIC "-//W3C//DTD SVG 1.1//EN" "http://www.w3.org/Graphics/SVG/1.1/DTD/svg11.dtd">
<svg version="1.1" xmlns="http://www.w3.org/2000/svg" xmlns:xlink="http://www.w3.org/1999/xlink" width="32" height="32" viewBox="0 0 32 32">
<path fill="#444444" d="M27.347 3.76c-0.791 0.304-1.657 0.659-2.328 1.193l-4.687 3.965-14.377-3.039-1.752 1.728 11.070 6.311-5.551 6.714-4.39-1.343-1.87 1.745 4.174 2.122-0.372 0.449c-0.2 0.201-0.188 0.837 0.002 1.066 0.227 0.192 0.867 0.206 1.069 0.002l0.46-0.371 2.134 4.197 1.745-1.868-1.343-4.38 6.73-5.437 6.166 10.817 1.727-1.754-2.974-14.075 4.043-4.832c0.527-0.673 0.885-1.54 1.196-2.329 0.311-0.788-0.082-1.185-0.873-0.881zM7.284 24.691c-0.006-0.007-0.012-0.014-0.018-0.021-0.006-0.005-0.012-0.011-0.020-0.016l0.039 0.038z"></path>
</svg>
