<?xml version="1.0" encoding="utf-8"?>
<!-- Generated by IcoMoon.io -->
<!DOCTYPE svg PUBLIC "-//W3C//DTD SVG 1.1//EN" "http://www.w3.org/Graphics/SVG/1.1/DTD/svg11.dtd">
<svg version="1.1" xmlns="http://www.w3.org/2000/svg" xmlns:xlink="http://www.w3.org/1999/xlink" width="32" height="32" viewBox="0 0 32 32">
<path fill="#444444" d="M28.371 2.893c-1.404 0-4.347 1.66-7.873 4.436l-0.153 0.12-0.176-0.084c-1.286-0.617-2.722-0.943-4.155-0.943-2.563 0-4.971 0.997-6.782 2.809-2.88 2.876-3.628 7.272-1.866 10.939l0.084 0.176-0.121 0.152c-3.869 4.912-4.924 7.786-4.253 8.457 0.12 0.122 0.317 0.183 0.585 0.183 1.355 0 4.135-1.54 7.491-4.136-0.311-0.167-0.609-0.349-0.899-0.548-1.134 0.665-2.019 1.003-2.632 1.003-0.325 0-0.582-0.093-0.766-0.277-0.556-0.556-0.284-1.725 0.83-3.575l0.243-0.407 0.278 0.386c0.311 0.439 0.658 0.847 1.028 1.217 0.323 0.322 0.675 0.626 1.048 0.906 2.087-1.29 4.746-3.497 7.34-6.089 2.594-2.594 4.799-5.255 6.087-7.339-0.278-0.373-0.583-0.725-0.905-1.050-0.37-0.369-0.779-0.714-1.216-1.027l-0.386-0.276 0.407-0.245c1.218-0.734 2.162-1.106 2.806-1.106 0.325 0 0.585 0.094 0.767 0.276 0.54 0.538 0.302 1.651-0.726 3.4 0.198 0.289 0.382 0.59 0.55 0.898 3.624-4.678 4.607-7.421 3.953-8.073-0.121-0.123-0.317-0.184-0.585-0.184v0zM24.874 12.321c-1.713 2.132-3.761 4.404-5.954 6.599-2.193 2.192-4.464 4.242-6.598 5.953 1.163 0.482 2.43 0.737 3.697 0.737 2.561 0 4.971-0.997 6.781-2.808 2.757-2.756 3.561-6.911 2.072-10.48v0z"></path>
</svg>
