<?xml version="1.0" encoding="utf-8"?>
<!-- Generated by IcoMoon.io -->
<!DOCTYPE svg PUBLIC "-//W3C//DTD SVG 1.1//EN" "http://www.w3.org/Graphics/SVG/1.1/DTD/svg11.dtd">
<svg version="1.1" xmlns="http://www.w3.org/2000/svg" xmlns:xlink="http://www.w3.org/1999/xlink" width="32" height="32" viewBox="0 0 32 32">
<path fill="#444444" d="M22.834 7.417c-1.557-1.558-1.445-2.839-1.445-2.839l-1.731-0.004 0.004 16.077c-0.891-0.311-1.958-0.37-3.043-0.098-2.41 0.603-3.987 2.592-3.526 4.441s2.792 2.859 5.204 2.256c2.117-0.531 3.593-2.131 3.605-3.767v-11.641c0 0 4.701 0.591 4.284 3.596-0.415 3.006-0.869 4.020-0.869 4.020l0.627 0.628c0 0 1.856-3.458 2.005-5.679 0.288-4.313-3.381-5.259-5.116-6.992zM16.006 4.086h-12.265v3.197h12.265v-3.197zM16.006 9.788h-12.265v3.197h12.265v-3.197zM16.006 15.488h-12.265v3.197h12.265v-3.197zM3.74 24.387h6.336v-3.197h-6.336v3.197z"></path>
</svg>
