<?xml version="1.0" encoding="utf-8"?>
<!-- Generated by IcoMoon.io -->
<!DOCTYPE svg PUBLIC "-//W3C//DTD SVG 1.1//EN" "http://www.w3.org/Graphics/SVG/1.1/DTD/svg11.dtd">
<svg version="1.1" xmlns="http://www.w3.org/2000/svg" xmlns:xlink="http://www.w3.org/1999/xlink" width="32" height="32" viewBox="0 0 32 32">
<path fill="#444444" d="M14.416 6.787h0.004l3.346 0.006c0.002-0.002 0.004-0.003 0.005-0.004-0.582 0.393-1.039 0.969-1.279 1.666l-3.949 11.518c-0.018 0.052-0.034 0.103-0.049 0.155l0.023-11.448c0.002-1.048 0.852-1.894 1.899-1.894zM4.493 16c-0.795-0.685-0.883-1.884-0.198-2.678l1.868-2.165c0.027 0.083 0.054 0.166 0.087 0.246l3.825 9.414-5.582-4.817zM11.111 8.679l-0.021 10.899-3.537-8.705c-0.394-0.971 0.072-2.079 1.042-2.474l2.853-1.16c-0.212 0.436-0.335 0.924-0.337 1.44zM28.014 12.405l-3.949 11.518c-0.27 0.789-1.008 1.286-1.797 1.286-0.204 0-0.411-0.034-0.615-0.104l-6.6-2.261c-0.991-0.339-1.521-1.421-1.179-2.413l3.949-11.518c0.27-0.788 1.008-1.284 1.796-1.284 0.203 0 0.411 0.033 0.615 0.103l6.598 2.262c0.993 0.34 1.521 1.419 1.181 2.412z"></path>
</svg>
