<?xml version="1.0" encoding="utf-8"?>
<!-- Generated by IcoMoon.io -->
<!DOCTYPE svg PUBLIC "-//W3C//DTD SVG 1.1//EN" "http://www.w3.org/Graphics/SVG/1.1/DTD/svg11.dtd">
<svg version="1.1" xmlns="http://www.w3.org/2000/svg" xmlns:xlink="http://www.w3.org/1999/xlink" width="32" height="32" viewBox="0 0 32 32">
<path fill="#444444" d="M27.34 13.59h-0.004c-1.184 0-2.383 1.39-2.383 0.207v-6.375h-6.014c-1.422 0 0.249 1.441 0.249 2.864v0.005c0 1.423-1.154 2.577-2.576 2.577s-2.576-1.154-2.576-2.577l-0.005-0.005c0-1.391 1.768-2.864 0.345-2.864h-6.608v6.081c0 1.423-1.473-0.346-2.864-0.346l-0.005 0.005c-1.423 0-2.577 1.153-2.577 2.576s1.154 2.576 2.577 2.576h0.005c1.423 0 2.864-1.671 2.864-0.249v6.542h6.902c1.184 0-0.207-1.199-0.207-2.383v-0.005c0-1.184 0.96-2.143 2.143-2.143s2.144 0.96 2.144 2.143l0.004 0.005c0 1.157-1.471 2.383-0.287 2.383h6.486v-7.014c0-1.184 1.226 0.287 2.383 0.287l0.004-0.004c1.184 0 2.143-0.959 2.143-2.144s-0.96-2.143-2.143-2.143z"></path>
</svg>
