<?xml version="1.0" encoding="utf-8"?>
<!-- Generated by IcoMoon.io -->
<!DOCTYPE svg PUBLIC "-//W3C//DTD SVG 1.1//EN" "http://www.w3.org/Graphics/SVG/1.1/DTD/svg11.dtd">
<svg version="1.1" xmlns="http://www.w3.org/2000/svg" xmlns:xlink="http://www.w3.org/1999/xlink" width="32" height="32" viewBox="0 0 32 32">
<path fill="#444444" d="M16.004 8.602c3.643 0.006 6.591 2.954 6.597 6.6-0.004 1.994-0.793 3.774-1.843 5.278 1.581-0.832 3.574-2.578 3.576-5.278-0.001-4.602-3.731-8.33-8.33-8.331h-0.025c-4.599 0.001-8.329 3.729-8.33 8.331 0.001 2.7 1.994 4.446 3.576 5.278-1.050-1.504-1.839-3.284-1.843-5.278 0.006-3.646 2.954-6.594 6.597-6.6h0.025zM15.981 2.41c-7.066 0-12.789 5.725-12.79 12.788 0 1.895 0.413 3.695 1.152 5.312 1.483 3.242 4.281 5.212 7.713 6.107l-0.233-0.481c-2.62-1.284-4.74-3.801-5.909-6.366-0.635-1.393-0.988-2.941-0.991-4.572 0.010-6.107 4.951-11.045 11.058-11.057 6.105 0.012 11.046 4.95 11.056 11.057-0.008 4.552-2.756 9.009-6.683 10.914l-0.199 0.524c5.013-1.54 8.615-5.838 8.615-11.438-0.001-7.063-5.726-12.788-12.789-12.788z"></path>
<path fill="#444444" d="M19.687 19.087c0.367 4.52-2.127 10.075-2.127 10.075s-0.632 0.303-1.572 0.303c-0.937 0-1.586-0.303-1.586-0.303s-2.496-5.556-2.129-10.075c0 0 0.588-1.901 3.736-1.901s3.678 1.901 3.678 1.901z"></path>
<path fill="#444444" d="M18.796 13.433c0 1.555-1.261 2.816-2.816 2.816-1.554 0-2.815-1.261-2.815-2.816s1.261-2.816 2.815-2.816c1.555 0 2.816 1.261 2.816 2.816z"></path>
</svg>
