<?xml version="1.0" encoding="utf-8"?>
<!-- Generated by IcoMoon.io -->
<!DOCTYPE svg PUBLIC "-//W3C//DTD SVG 1.1//EN" "http://www.w3.org/Graphics/SVG/1.1/DTD/svg11.dtd">
<svg version="1.1" xmlns="http://www.w3.org/2000/svg" xmlns:xlink="http://www.w3.org/1999/xlink" width="32" height="32" viewBox="0 0 32 32">
<path fill="#444444" d="M16 3.11c-7.119 0-12.89 5.771-12.89 12.89s5.771 12.89 12.89 12.89c7.119 0 12.89-5.771 12.89-12.89s-5.771-12.89-12.89-12.89zM16 27.071c-6.105 0-11.071-4.966-11.071-11.071s4.966-11.071 11.071-11.071 11.071 4.966 11.071 11.071-4.966 11.071-11.071 11.071z"></path>
<path fill="#444444" d="M25.634 15.966c0-0.001 0-0.001 0-0.002s0-0.002 0-0.003c0 0 0-0 0-0.001 0-0.002 0-0.005 0-0.007 0-0.001 0-0.001 0-0.001 0-0.002 0-0.004 0-0.007 0-0 0-0.001 0-0.001 0-0.001 0-0.002 0-0.003s0-0.001 0-0.002c0-0.002-0-0.003-0-0.005s0-0.002 0-0.003-0-0.002-0-0.002c0-0.002 0-0.003 0-0.005 0-0 0-0.001 0-0.001 0-0.008 0-0.016-0-0.024l-2.013 0.021c-0.009-0.884-0.167-1.731-0.453-2.518l1.892-0.686c-0.071-0.197-0.149-0.391-0.233-0.582-0-0 0-0-0-0-0.001-0.002-0.001-0.003-0.002-0.005v-0c-0.001-0.002-0.001-0.003-0.002-0.005-0-0-0-0-0-0.001-0.001-0.003-0.003-0.007-0.004-0.010 0-0-0-0-0-0.001-0.001-0.003-0.003-0.007-0.004-0.009-0-0-0-0.001-0-0.001-0.001-0.003-0.003-0.006-0.004-0.009-0-0.001-0-0.001-0-0.001-0.001-0.003-0.003-0.006-0.004-0.009-0-0-0-0.001-0-0.001-0-0.001-0.001-0.003-0.002-0.005 0-0 0-0-0-0-0-0.002-0.001-0.003-0.002-0.004 0-0-0-0.001-0.001-0.001-0.001-0.001-0.001-0.003-0.002-0.004-0-0-0-0.001-0-0.001s-0.001-0.002-0.002-0.004c0-0-0-0.001-0.001-0.001-0.001-0.002-0.001-0.003-0.002-0.004s-0-0.001-0-0.001c-0.001-0.001-0.001-0.002-0.001-0.003s-0.001-0.001-0.001-0.002-0.001-0.003-0.002-0.004c-0-0.001-0-0.001-0.001-0.001s-0.001-0.002-0.001-0.003c-0-0.001-0-0.001-0-0.001s-0.001-0.003-0.002-0.004c0-0-0-0.001-0.001-0.001s-0.001-0.002-0.001-0.003c-0-0.001-0-0.001-0.001-0.002s-0.001-0.002-0.002-0.004c-0-0-0.001-0.001-0.001-0.002s-0.001-0.002-0.001-0.003c-0-0.001-0-0.001-0.001-0.002s-0.001-0.003-0.002-0.004c-0-0.001-0.001-0.001-0.001-0.002s-0.001-0.002-0.001-0.003c-0-0.001-0.001-0.001-0.001-0.002s-0.001-0.002-0.002-0.004c-0-0.001-0-0.001-0.001-0.002s-0.001-0.002-0.001-0.003c-0.001-0.001-0.001-0.001-0.001-0.002s-0.001-0.002-0.002-0.003c-0-0.001-0.001-0.001-0.001-0.002s-0.001-0.002-0.001-0.003c-0-0.001-0.001-0.001-0.001-0.003s-0.001-0.002-0.001-0.003c-0-0.001-0.001-0.001-0.001-0.002s-0.001-0.002-0.001-0.003c-0-0.001-0.001-0.001-0.001-0.002s-0.001-0.002-0.001-0.003c-0-0-0-0.001-0.001-0.002s-0.001-0.002-0.001-0.003-0.001-0.002-0.001-0.003-0.001-0.001-0.001-0.002-0.001-0.001-0.001-0.002-0.001-0.002-0.001-0.003-0.001-0.002-0.001-0.003-0.001-0.002-0.001-0.002-0.001-0.001-0.001-0.002-0.001-0.002-0.001-0.003c-0.001-0.001-0.001-0.002-0.001-0.002s-0.001-0.002-0.001-0.002-0-0.002-0.001-0.002-0.001-0.002-0.002-0.004c-0-0.001-0.001-0.001-0.001-0.002s-0-0.001-0.001-0.002-0.001-0.001-0.001-0.002-0.001-0.002-0.002-0.003c-0-0.001-0.001-0.002-0.001-0.003s-0.001-0.001-0.001-0.002-0.001-0.003-0.002-0.004c-0-0-0-0.001-0.001-0.001s-0.001-0.002-0.001-0.002c-0-0.001-0-0.001-0.001-0.002s-0.001-0.002-0.002-0.004c-0-0.001-0.001-0.001-0.001-0.002s-0.001-0.002-0.001-0.003c-0-0.001-0-0.001-0.001-0.002s-0.001-0.003-0.002-0.004c-0-0.001-0-0.001-0.001-0.002s-0.001-0.002-0.001-0.003c-0-0-0-0.001-0.001-0.001s-0.002-0.004-0.003-0.005c0-0 0-0-0-0.001s-0.001-0.002-0.001-0.003c-0-0-0-0.001-0-0.001-0.001-0.002-0.002-0.004-0.003-0.005 0-0-0-0.001-0-0.001s-0.001-0.002-0.001-0.003c0-0.001-0-0.001-0.001-0.001-0.001-0.002-0.001-0.003-0.002-0.005-0-0-0-0.001-0-0.001s-0.001-0.002-0.001-0.003c0-0-0-0.001-0-0.001-0.001-0.001-0.002-0.004-0.003-0.005-0-0.001-0-0.001-0.001-0.001-0.001-0.003-0.003-0.006-0.004-0.009 0-0-0-0-0-0.001-0.001-0.003-0.003-0.006-0.004-0.009-0-0.001-0-0.001-0-0.001-0.002-0.003-0.003-0.006-0.005-0.009 0-0 0-0-0-0.001-0.001-0.003-0.003-0.006-0.004-0.009 0-0-0-0.001-0-0.001-0.001-0.003-0.003-0.006-0.004-0.009 0-0 0-0-0-0-0.001-0.003-0.003-0.006-0.004-0.009-0-0-0-0-0-0.001-0.002-0.003-0.003-0.006-0.005-0.009s-0.003-0.007-0.005-0.010c-0.011-0.022-0.021-0.044-0.032-0.066 0 0 0-0-0-0-0.262-0.527-0.571-1.027-0.921-1.494l-1.609 1.207c-0.515-0.687-1.144-1.285-1.859-1.764l1.122-1.67c-0.266-0.178-0.541-0.344-0.824-0.496-0.034-0.018-0.069-0.036-0.103-0.054-0 0-0-0-0-0-0.003-0.002-0.006-0.003-0.009-0.005-0-0-0-0-0-0-0.003-0.002-0.006-0.003-0.010-0.005l-0-0c-0.003-0.002-0.006-0.003-0.009-0.005-0 0-0-0-0.001-0-0.003-0.002-0.006-0.003-0.009-0.005-0-0-0-0-0.001-0-0.002-0.001-0.004-0.002-0.006-0.003v0c-0.001-0.001-0.002-0.001-0.003-0.001s-0.001-0-0.001-0c-0.002-0.001-0.004-0.002-0.006-0.003 0-0-0-0-0-0-0.001-0-0.002-0.001-0.003-0.001s-0.001-0-0.001-0c-0.002-0.001-0.004-0.002-0.006-0.003-0 0-0-0-0.001-0s-0.002-0.001-0.003-0.002c-0 0-0-0-0.001-0-0.002-0.001-0.004-0.002-0.006-0.003-0-0-0.001-0-0.001-0s-0.002-0.001-0.003-0.001c-0-0-0.001-0-0.001-0-0.002-0.001-0.003-0.002-0.005-0.003-0-0-0.001-0-0.001-0s-0.002-0.001-0.003-0.001c-0 0-0-0-0.001-0-0.002-0.001-0.003-0.002-0.005-0.003-0-0-0.001-0-0.001-0.001-0.001-0.001-0.002-0.001-0.003-0.001s-0.001-0-0.001-0c-0.001-0.001-0.003-0.002-0.005-0.002-0-0-0.001-0-0.001-0.001s-0.002-0.001-0.002-0.001c-0-0-0.001-0-0.001-0-0.001-0.001-0.003-0.002-0.005-0.002-0-0-0.001-0-0.001-0.001s-0.002-0.001-0.003-0.001c-0-0-0.001-0-0.001-0-0.002-0.001-0.004-0.002-0.006-0.003-0-0-0.001-0-0.001-0.001s-0.002-0.001-0.003-0.001c-0 0-0 0-0-0-0.002-0.001-0.004-0.002-0.006-0.003-0-0-0.001-0-0.001-0.001-0.003-0.001-0.006-0.003-0.009-0.004-0-0-0.001-0-0.001-0.001-0.002-0.001-0.004-0.002-0.005-0.003-0 0-0 0-0.001 0s-0.002-0.001-0.003-0.001c-0-0-0.001-0-0.002-0.001s-0.002-0.001-0.003-0.001c-0.001-0-0.002-0.001-0.003-0.001s-0.001-0.001-0.002-0.001-0.001-0-0.002-0.001-0.002-0.001-0.003-0.002c-0.001-0-0.001-0.001-0.002-0.001s-0.002-0.001-0.003-0.001c-0-0-0.001-0-0.001-0.001s-0.003-0.001-0.004-0.002c-0.001-0-0.001-0.001-0.002-0.001s-0.002-0.001-0.002-0.001-0.001-0.001-0.002-0.001c-0.001-0.001-0.003-0.001-0.004-0.002s-0.001-0-0.002-0.001-0.002-0.001-0.003-0.001c-0.001-0-0.001-0.001-0.002-0.001s-0.002-0.001-0.003-0.002c-0.001-0-0.001-0.001-0.002-0.001s-0.002-0.001-0.002-0.001-0.001-0-0.002-0.001-0.002-0.001-0.003-0.002c-0.001-0-0.002-0.001-0.002-0.001s-0.002-0.001-0.002-0.001-0.001-0.001-0.002-0.001-0.002-0.001-0.003-0.002c-0.001-0-0.001-0.001-0.002-0.001s-0.002-0.001-0.002-0.001-0.002-0.001-0.003-0.001-0.002-0.001-0.003-0.002c-0.001-0-0.001-0.001-0.002-0.001s-0.001-0-0.002-0.001-0.002-0.001-0.004-0.002c-0.001-0-0.001-0.001-0.002-0.001s-0.002-0.001-0.003-0.001c-0-0-0.001-0.001-0.002-0.001s-0.002-0.001-0.004-0.002c-0.001-0-0.001-0.001-0.002-0.001s-0.002-0.001-0.003-0.001c-0.001-0-0.001-0-0.002-0.001s-0.003-0.001-0.004-0.002c-0.001-0-0.001-0-0.001-0.001s-0.002-0.001-0.003-0.001c-0.001-0-0.001-0.001-0.002-0.001s-0.003-0.001-0.004-0.002c-0.001-0-0.001-0-0.002-0.001s-0.002-0.001-0.003-0.001c-0-0-0.001-0-0.001-0.001-0.001-0.001-0.002-0.001-0.004-0.002s-0.001-0-0.002-0.001c-0.001-0-0.002-0.001-0.003-0.001s-0.001-0.001-0.002-0.001-0.003-0.001-0.004-0.002c-0.001-0-0.001-0-0.002-0.001s-0.002-0.001-0.003-0.001c-0-0-0.001-0.001-0.002-0.001s-0.002-0.001-0.004-0.002c-0.001-0-0.001-0.001-0.002-0.001s-0.002-0.001-0.002-0.001-0.002-0.001-0.002-0.001-0.002-0.001-0.004-0.001c-0.001-0-0.001-0.001-0.002-0.001s-0.002-0.001-0.003-0.001c-0.001-0-0.001-0.001-0.002-0.001s-0.002-0.001-0.004-0.002c-0-0-0.001-0.001-0.002-0.001s-0.002-0.001-0.003-0.001c-0.001-0-0.002-0.001-0.002-0.001s-0.002-0.001-0.003-0.001c-0.001-0-0.001-0.001-0.002-0.001s-0.002-0.001-0.003-0.001c-0.001-0-0.001-0.001-0.002-0.001s-0.002-0.001-0.003-0.002c-0.001-0-0.001-0.001-0.002-0.001s-0.002-0.001-0.003-0.002c-0-0-0.001-0-0.002-0.001s-0.002-0.001-0.003-0.001c-0.001-0-0.001-0-0.001-0.001s-0.003-0.001-0.004-0.002c-0-0-0.001-0-0.001-0.001-0.001-0-0.002-0.001-0.003-0.002s-0.001-0-0.001-0.001c-0.001-0.001-0.003-0.001-0.004-0.002s-0.001-0-0.001-0.001c-0.001-0-0.002-0.001-0.003-0.002s-0.001-0-0.001-0.001c-0.001-0.001-0.003-0.001-0.004-0.002s-0.001-0-0.001-0.001-0.002-0.001-0.003-0.001c-0.001-0-0.001-0.001-0.001-0.001-0.001-0.001-0.003-0.001-0.004-0.002s-0.001-0-0.001-0.001-0.002-0.001-0.003-0.001c-0-0-0.001-0.001-0.002-0.001s-0.003-0.001-0.004-0.002c-0-0-0.001-0-0.001-0.001s-0.002-0.001-0.003-0.002c-0-0-0.001-0-0.001-0.001s-0.003-0.001-0.004-0.002c-0.001-0-0.001-0.001-0.002-0.001s-0.002-0.001-0.003-0.001c-0-0-0.001-0-0.001-0.001s-0.003-0.001-0.004-0.002c-0-0-0.001-0-0.001-0.001s-0.002-0.001-0.003-0.002c-0.001-0-0.001-0-0.001-0s-0.003-0.001-0.004-0.002c-0-0-0.001-0-0.001-0-0.001-0.001-0.002-0.001-0.004-0.002s-0-0-0.001-0c-0.001-0.001-0.003-0.001-0.004-0.002-0-0-0.001-0-0.001-0.001-0.001-0.001-0.002-0.001-0.004-0.002-0-0-0-0-0.001-0-0.001-0.001-0.003-0.001-0.004-0.002-0-0-0.001-0-0.001-0s-0.002-0.001-0.004-0.002c-0-0-0-0-0.001-0s-0.003-0.001-0.004-0.002c-0.001-0-0.001-0-0.001-0.001-0.001-0.001-0.003-0.001-0.004-0.002-0-0-0-0-0-0-0.001-0.001-0.003-0.001-0.004-0.002s-0.001-0-0.001-0.001c-0.001-0.001-0.003-0.001-0.004-0.002l-0.001-0c-0.001-0.001-0.003-0.001-0.004-0.002s-0.001-0-0.001-0c-0.003-0.001-0.006-0.003-0.009-0.004-0-0-0.001-0-0.001-0-0.001-0.001-0.003-0.001-0.004-0.002l-0-0c-0.001-0.001-0.003-0.001-0.004-0.002-0-0-0.001-0-0.001-0.001-0.001-0.001-0.003-0.001-0.004-0.002-0 0-0 0-0.001-0s-0.003-0.001-0.004-0.002c-0-0-0.001-0-0.001-0-0.001-0.001-0.003-0.001-0.004-0.002-0-0-0-0-0.001-0-0.001-0.001-0.003-0.001-0.004-0.002s-0-0-0.001-0c-0.002-0.001-0.003-0.001-0.005-0.002l-0.001-0c-0.001-0-0.003-0.001-0.004-0.002-0-0-0.001-0-0.001-0-0.002-0.001-0.003-0.001-0.005-0.002l-0-0c-0.001-0.001-0.003-0.001-0.004-0.002-0-0-0-0-0.001-0-0.002-0.001-0.003-0.001-0.004-0.002s-0.001-0-0.001-0c-0.001-0.001-0.003-0.001-0.004-0.002-0-0-0.001-0-0.001-0-0.001-0-0.003-0.001-0.004-0.002-0 0-0-0-0.001-0-0.001-0-0.003-0.001-0.004-0.002l-0-0c-0.002-0.001-0.003-0.001-0.005-0.002-0-0-0-0-0.001-0s-0.003-0.001-0.004-0.002c-0 0-0-0-0.001-0-0.001-0-0.003-0.001-0.005-0.002-0 0-0-0-0-0-0.001-0-0.003-0.001-0.005-0.002-0 0 0 0-0 0-0.002-0.001-0.003-0.001-0.005-0.002-0-0-0-0-0-0-0.001-0.001-0.003-0.001-0.005-0.002h-0c-0.001-0.001-0.003-0.001-0.005-0.002-0-0-0.001-0-0.001-0-0.003-0.001-0.006-0.003-0.009-0.004-0-0-0.001-0-0.001-0-0.003-0.001-0.006-0.003-0.009-0.004l-0.001-0c-0.003-0.001-0.006-0.003-0.009-0.004-0-0-0-0-0.001-0-0.002-0.001-0.003-0.001-0.005-0.002-0-0-0-0-0-0-0.001-0.001-0.003-0.001-0.004-0.002-0-0-0.001-0-0.001-0-0.003-0.001-0.006-0.003-0.009-0.004-0-0-0-0-0.001-0-0.001-0.001-0.003-0.001-0.005-0.002-0-0-0 0-0.001-0-0.001-0.001-0.003-0.001-0.004-0.002-0-0-0-0-0.001-0-0.002-0.001-0.003-0.001-0.005-0.002l-0-0c-0.001-0-0.003-0.001-0.005-0.002-0-0 0-0-0-0-0.002-0.001-0.003-0.001-0.005-0.002l-0.001-0c-0.001-0-0.003-0.001-0.004-0.002l-0.001-0c-0.001-0.001-0.003-0.001-0.005-0.002l-0-0c-0.001-0.001-0.003-0.001-0.005-0.002h-0c-0.002-0.001-0.003-0.001-0.005-0.002l-0-0c-0.004-0.001-0.007-0.003-0.010-0.004-0 0-0 0-0-0-0.003-0.001-0.006-0.003-0.009-0.004-0-0-0.001-0-0.001-0s-0.003-0.001-0.004-0.002c-0-0 0 0-0-0-0.002-0.001-0.003-0.001-0.005-0.002-0-0-0-0-0-0-0.003-0.001-0.006-0.003-0.009-0.004-0 0-0.001-0-0.001-0-0.003-0.001-0.006-0.003-0.009-0.004-0-0-0-0-0.001-0-0.003-0.001-0.006-0.003-0.009-0.004-0.001-0-0-0-0.001-0-0.003-0.001-0.006-0.003-0.009-0.004-0-0-0-0-0.001-0-0.001-0.001-0.003-0.001-0.005-0.002-0-0 0 0-0-0-0.001-0.001-0.003-0.001-0.004-0.002-0-0-0.001-0-0.001-0-0.002-0.001-0.003-0.001-0.005-0.002-0-0-0-0-0-0-0.001-0.001-0.003-0.001-0.004-0.002-0 0-0.001-0-0.001-0-0.001-0.001-0.003-0.001-0.005-0.002-0 0-0 0-0-0-0.001-0-0.003-0.001-0.004-0.002-0 0-0.001-0-0.001-0-0.001-0.001-0.003-0.001-0.004-0.002l-0.001-0c-0.001-0.001-0.003-0.001-0.004-0.002s-0.001-0-0.001-0c-0.001-0.001-0.003-0.001-0.005-0.002-0 0-0 0-0.001-0s-0.003-0.001-0.004-0.002c-0-0-0.001-0-0.001-0-0.001-0-0.003-0.001-0.004-0.002-0 0-0.001-0-0.001-0-0.001-0.001-0.003-0.001-0.004-0.002s-0.001-0-0.001-0c-0.001-0-0.003-0.001-0.004-0.002-0-0-0.001-0-0.001-0s-0.002-0.001-0.004-0.001c-0.001-0-0-0-0.001-0s-0.003-0.001-0.004-0.002c-0-0-0.001-0-0.001-0-0.001-0.001-0.003-0.001-0.004-0.002-0-0-0-0-0.001-0-0.001-0.001-0.003-0.001-0.004-0.002-0-0-0.001-0-0.001-0-0.001-0.001-0.003-0.001-0.004-0.002-0-0-0-0-0-0-0.002-0.001-0.003-0.001-0.005-0.002s-0.001-0-0.001-0.001c-0.001-0.001-0.003-0.001-0.004-0.002s-0-0-0.001-0c-0.001-0.001-0.003-0.001-0.004-0.002s-0.001-0-0.001-0.001c-0.001-0-0.002-0.001-0.004-0.001s-0.001-0-0.001-0.001c-0.001-0-0.002-0.001-0.004-0.001s-0.001-0-0.001-0.001c-0.001-0.001-0.003-0.001-0.004-0.002s-0.001-0-0.001-0-0.002-0.001-0.004-0.001c-0-0-0.001-0-0.002-0.001s-0.003-0.001-0.004-0.002c-0-0-0.001-0-0.001-0s-0.002-0.001-0.003-0.001c-0.001-0-0.001-0-0.002-0.001s-0.003-0.001-0.004-0.002c-0 0-0.001-0-0.001-0s-0.002-0.001-0.004-0.001c-0-0-0.001-0-0.001-0.001-0.001-0.001-0.003-0.001-0.004-0.002s-0.001-0-0.001-0c-0.001-0-0.002-0.001-0.003-0.001s-0.001-0-0.001-0.001c-0.001-0-0.003-0.001-0.004-0.002s-0.001-0-0.002-0.001-0.002-0.001-0.003-0.001c-0.001-0-0.001-0-0.002-0.001s-0.003-0.001-0.004-0.002c-0.001-0-0.001-0-0.002-0.001s-0.002-0.001-0.002-0.001-0.001-0-0.002-0.001c-0.001-0-0.003-0.001-0.004-0.001s-0.001-0.001-0.002-0.001-0.001-0.001-0.002-0.001c-0.001-0-0.001-0-0.002-0.001s-0.003-0.001-0.004-0.001c-0.001-0-0.001-0.001-0.002-0.001s-0.001-0.001-0.002-0.001-0.001-0-0.002-0.001-0.003-0.001-0.004-0.001c-0.001-0-0.001-0-0.002-0.001s-0.002-0.001-0.003-0.001c-0.001-0-0.001-0.001-0.002-0.001s-0.002-0.001-0.004-0.001c-0.001-0-0.001-0-0.002-0.001s-0.002-0.001-0.002-0.001-0.002-0.001-0.002-0.001-0.002-0.001-0.003-0.001c-0.001-0-0.001-0.001-0.002-0.001s-0.002-0-0.003-0.001c-0.001-0-0.002-0.001-0.003-0.001s-0.002-0.001-0.002-0.001-0.002-0.001-0.002-0.001-0.001-0.001-0.002-0.001-0.002-0.001-0.003-0.001c-0.001-0-0.002-0.001-0.002-0.001s-0.002-0.001-0.002-0.001-0.002-0.001-0.002-0.001-0.002-0.001-0.003-0.001c-0.001-0-0.002-0.001-0.002-0.001s-0.002-0.001-0.002-0.001-0.001-0-0.002-0.001-0.003-0.001-0.004-0.001c-0-0-0.001-0.001-0.002-0.001s-0.002-0.001-0.003-0.001c-0-0-0.001-0-0.002-0.001s-0.003-0.001-0.005-0.002c-0-0-0.001-0-0.001-0s-0.002-0.001-0.003-0.001c0 0-0-0-0-0-0.002-0.001-0.004-0.001-0.005-0.002s-0.001-0-0.001-0-0.002-0.001-0.003-0.001c-0 0-0.001-0-0.001-0-0.002-0.001-0.004-0.001-0.005-0.002-0-0-0.001-0-0.001-0-0.003-0.001-0.006-0.002-0.009-0.003-0-0-0.001-0-0.001-0s-0.002-0.001-0.003-0.001c-0-0-0.001-0-0.001-0-0.002-0.001-0.004-0.001-0.006-0.002-0-0-0.001-0-0.001-0-0.003-0.001-0.006-0.002-0.009-0.004 0-0-0-0-0-0-0.003-0.001-0.006-0.002-0.009-0.003-0-0-0.001-0-0.001-0-0.003-0.001-0.007-0.002-0.010-0.003 0-0-0-0-0-0-0.004-0.001-0.006-0.002-0.010-0.004 0 0-0 0-0 0-0.002-0.001-0.004-0.002-0.006-0.002-0.001-0-0.002-0.001-0.004-0.001 0 0-0-0-0-0-0.003-0.001-0.006-0.002-0.010-0.004 0 0 0 0-0 0-0.162-0.059-0.326-0.114-0.493-0.165l-0.585 1.926c-0.703-0.214-1.448-0.33-2.22-0.33-0 0-0 0-0 0v-2.011c-0.002 0-0.004 0-0.005 0-0.001 0-0.001 0-0.001 0s-0.003 0-0.005 0c-0 0-0 0-0.001 0-0.002 0-0.003 0-0.005 0-0 0-0.001 0-0.001 0-0.001 0-0.003 0-0.004 0s-0.001 0-0.001 0c-0.002 0-0.003 0-0.005 0-0 0-0.001 0-0.001 0-0.001 0-0.003 0-0.004 0s-0 0-0.001 0c-0.002 0-0.003 0-0.005 0-0 0-0.001 0-0.001 0-0.001 0-0.003 0-0.004 0s-0.001 0-0.001 0c-0.001 0-0.003 0-0.005 0-0.001 0-0.001 0-0.001 0s-0.003 0-0.004 0c-0 0-0.001 0-0.001 0-0.002 0-0.004 0-0.005 0-0 0-0 0-0.001 0-0.001 0-0.003 0-0.004 0-0 0-0.001 0-0.001 0-0.002 0-0.004 0-0.005 0-0 0-0.001 0-0.001 0-0.001 0-0.003 0-0.004 0s-0.001 0-0.001 0c-0.002 0-0.003 0-0.005 0h-0.001c-0.001 0-0.003 0-0.005 0-0.001 0-0.001 0-0.001 0s-0.003 0-0.004 0c-0 0-0 0-0.001 0-0.002 0-0.004 0-0.005 0-0 0-0.001 0-0.001 0-0.001 0-0.003 0-0.004 0-0 0-0.001 0-0.001 0-0.002 0-0.003 0-0.005 0-0 0-0.001 0-0.001 0s-0.003 0-0.004 0c-0 0-0.001 0-0.001 0s-0.003 0-0.005 0c-0 0-0 0-0.001 0s-0.003 0-0.004 0c-0.001 0-0.001 0-0.001 0-0.002 0-0.004 0-0.005 0s-0 0-0.001 0c-0.001 0-0.003 0-0.004 0-0 0-0.001 0-0.001 0-0.002 0-0.004 0-0.005 0-0 0-0.001 0-0.001 0-0.001 0-0.003 0-0.005 0-0.001 0-0.001 0-0.001 0-0.002 0-0.003 0-0.005 0-0 0 0 0-0 0-0.002 0-0.003 0-0.005 0s-0.001 0-0.001 0c-0.004 0-0.007 0-0.010 0-0 0-0.001 0-0.001 0-0.001 0-0.003 0-0.004 0s-0.001 0-0.001 0c-0.002 0-0.003 0-0.005 0-0 0-0.001 0-0.001 0-0.001 0-0.003 0-0.005 0-0 0-0 0-0.001 0-0.002 0-0.004 0-0.005 0-0 0-0.001 0-0.001 0s-0.003 0-0.004 0c-0 0-0.001 0-0.001 0-0.002 0-0.004 0-0.005 0h-0.001c-0.002 0-0.003 0-0.005 0-0.001 0-0.001 0-0.001 0-0.002 0-0.003 0-0.005 0h-0.001c-0.001 0-0.003 0-0.005 0-0 0-0.001 0-0.001 0-0.002 0-0.004 0-0.005 0-0 0 0 0-0 0-0.001 0-0.003 0-0.005 0-0 0-0.001 0-0.001 0-0.004 0-0.007 0-0.011 0h-0.001c-0.004 0-0.007 0-0.011 0-0 0-0.001 0-0.001 0-0.002 0-0.003 0-0.005 0-0 0 0 0 0 0-0.002 0-0.004 0-0.005 0-0 0-0.001 0-0.001 0-0.002 0-0.003 0-0.005 0h-0c-0.002 0-0.004 0-0.005 0-0 0-0.001 0-0.001 0s-0.003 0-0.005 0h-0.001c-0.002 0-0.004 0-0.005 0h-0.001c-0.001 0-0.003 0-0.005 0-0 0-0.001 0-0.001 0-0.002 0-0.004 0-0.005 0h-0.001c-0.001 0-0.003 0-0.005 0s-0.001 0-0.001 0c-0.002 0-0.004 0-0.005 0-0 0 0 0-0 0-0.002 0-0.003 0-0.005 0-0 0-0.001 0-0.001 0-0.004 0-0.007 0-0.010 0h-0.001c-0.003 0-0.007 0-0.010 0-0 0-0.001 0-0.001 0-0.002 0-0.003 0-0.005 0-0 0-0 0-0.001 0-0.002 0-0.003 0-0.005 0-0 0-0 0-0.001 0-0.002 0-0.003 0-0.005 0h-0.001c-0.002 0-0.003 0-0.005 0-0 0-0 0-0.001 0-0.002 0-0.004 0-0.005 0h-0c-0.002 0-0.004 0-0.005 0h-0c-0.002 0-0.003 0-0.005 0-0 0 0 0-0.001 0-0.003 0-0.007 0-0.011 0-0 0-0 0-0.001 0-0.003 0-0.007 0-0.011 0-0 0-0 0-0.001 0-0.004 0-0.007 0-0.011 0h-0.001c-0.004 0-0.007 0-0.011 0.001h-0c-0.004 0-0.007 0-0.011 0-0 0 0 0-0 0-0.004 0-0.007 0-0.011 0h-0c-0.813 0.038-1.6 0.177-2.349 0.404l0.585 1.926c-0.831 0.252-1.602 0.643-2.286 1.146l-1.191-1.622c-0.334 0.245-0.652 0.512-0.951 0.797v0c-0.011 0.010-0.021 0.020-0.031 0.030v0c-0.002 0.002-0.003 0.003-0.005 0.005 0 0 0 0 0 0-0.003 0.002-0.005 0.005-0.008 0.007-0 0-0 0-0.001 0-0.002 0.002-0.005 0.005-0.007 0.007-0 0-0 0-0.001 0.001-0.002 0.002-0.005 0.005-0.007 0.007-0 0-0 0.001-0.001 0.001-0.003 0.002-0.005 0.004-0.007 0.007-0 0-0 0-0.001 0.001-0.002 0.002-0.003 0.003-0.005 0.005-0 0-0 0-0 0s-0.001 0.001-0.002 0.002c-0 0-0.001 0.001-0.001 0.001-0.001 0.001-0.003 0.003-0.004 0.004s-0 0.001-0.001 0.001c-0.001 0.001-0.001 0.001-0.002 0.002s-0.001 0.001-0.001 0.001c-0.001 0.001-0.002 0.002-0.004 0.004-0 0-0.001 0.001-0.001 0.001s-0.001 0.001-0.002 0.002c-0 0-0.001 0.001-0.001 0.001-0.001 0.001-0.003 0.002-0.004 0.004-0 0-0.001 0.001-0.001 0.001s-0.001 0.001-0.002 0.002c-0 0-0 0-0.001 0.001-0.001 0.001-0.003 0.002-0.004 0.004s-0.001 0.001-0.001 0.001-0.001 0.001-0.002 0.002c0 0 0 0-0 0-0.001 0.001-0.003 0.003-0.004 0.004-0 0-0.001 0.001-0.001 0.001-0.002 0.002-0.005 0.004-0.007 0.007-0 0-0.001 0.001-0.001 0.001s-0.002 0.002-0.003 0.003c-0.001 0-0.001 0.001-0.002 0.001s-0.001 0.001-0.002 0.002-0.001 0.001-0.001 0.001c-0.001 0.001-0.002 0.003-0.004 0.004-0 0-0.001 0-0.001 0.001s-0.001 0.001-0.002 0.002c-0.001 0-0.001 0.001-0.001 0.001s-0.002 0.002-0.003 0.003c-0 0-0.001 0.001-0.001 0.001s-0.001 0.001-0.002 0.002c-0.001 0-0.001 0.001-0.002 0.001s-0.002 0.002-0.003 0.003c-0.001 0.001-0.001 0.001-0.002 0.002s-0.001 0.001-0.002 0.002-0.001 0.001-0.002 0.002-0.002 0.002-0.003 0.002c-0.001 0.001-0.001 0.001-0.002 0.002s-0.001 0.001-0.002 0.002-0.002 0.002-0.003 0.003c-0.001 0-0.001 0.001-0.002 0.001s-0.001 0.001-0.002 0.002c-0 0.001-0.001 0.001-0.001 0.001s-0.002 0.002-0.003 0.003c-0.001 0.001-0.001 0.001-0.001 0.002s-0.001 0.001-0.002 0.002-0.001 0.001-0.001 0.001c-0.001 0.001-0.002 0.002-0.003 0.003s-0.001 0.001-0.002 0.001-0.001 0.001-0.002 0.002c-0.001 0-0.001 0.001-0.002 0.002s-0.002 0.002-0.003 0.003c-0 0.001-0.001 0.001-0.001 0.001s-0.001 0.001-0.002 0.002c-0.001 0.001-0.001 0.001-0.002 0.002s-0.001 0.001-0.002 0.002c-0 0-0.001 0.001-0.001 0.001s-0.001 0.002-0.002 0.002c-0.001 0.001-0.001 0.001-0.002 0.002s-0.001 0.002-0.002 0.002c-0 0.001-0.001 0.001-0.001 0.001s-0.002 0.002-0.003 0.003c-0 0-0.001 0.001-0.001 0.001s-0.002 0.002-0.002 0.002c-0 0-0.001 0.001-0.001 0.001s-0.002 0.002-0.003 0.003c-0.001 0-0.001 0.001-0.001 0.001s-0.002 0.002-0.002 0.002c-0 0-0.001 0.001-0.001 0.001s-0.002 0.002-0.003 0.003c-0 0.001-0.001 0.001-0.001 0.001s-0.002 0.002-0.003 0.002c-0 0.001-0.001 0.001-0.001 0.001s-0.002 0.002-0.003 0.003c0 0-0.001 0.001-0.001 0.001s-0.002 0.002-0.002 0.003c-0.001 0.001-0.001 0-0.001 0.001-0.001 0.001-0.002 0.002-0.003 0.003s-0.001 0.001-0.001 0.001c-0.001 0.001-0.002 0.002-0.003 0.003s-0.001 0.001-0.001 0.001c-0.001 0.001-0.002 0.002-0.003 0.003s-0.001 0.001-0.001 0.001-0.002 0.002-0.003 0.003l-0 0c-0.001 0.001-0.002 0.002-0.003 0.003s-0.001 0.001-0.001 0.001c-0.001 0.001-0.002 0.002-0.003 0.003-0 0-0.001 0.001-0.001 0.001s-0.002 0.002-0.003 0.003c-0 0-0.001 0.001-0.001 0.001s-0.002 0.002-0.003 0.003c-0 0-0 0-0.001 0.001s-0.002 0.002-0.003 0.003c-0 0-0.001 0.001-0.001 0.001-0.001 0.001-0.002 0.002-0.003 0.004s-0.001 0-0.001 0.001c-0.001 0.001-0.002 0.002-0.003 0.003s-0.001 0.001-0.001 0.001c-0.001 0.001-0.002 0.002-0.003 0.004s-0.001 0.001-0.001 0.001c-0.001 0.001-0.002 0.002-0.003 0.003s-0 0-0.001 0c-0.001 0.001-0.002 0.003-0.004 0.004-0 0-0.001 0.001-0.001 0.001-0.001 0.001-0.002 0.002-0.003 0.004-0 0 0 0 0 0-0.001 0.001-0.002 0.002-0.004 0.004-0 0-0.001 0.001-0.001 0.001-0.002 0.002-0.005 0.005-0.007 0.007-0 0-0.001 0.001-0.001 0.001-0.003 0.003-0.005 0.005-0.007 0.007-0 0-0 0-0 0.001-0.001 0.001-0.002 0.002-0.004 0.004v0c-0.001 0.001-0.002 0.003-0.004 0.004s-0 0.001-0.001 0.001c-0.001 0.001-0.002 0.002-0.004 0.004l-0 0c-0.001 0.001-0.003 0.002-0.004 0.004v0c-0.003 0.003-0.005 0.005-0.007 0.008h-0c-0.001 0.001-0.002 0.003-0.004 0.004-0 0 0 0-0 0-0.003 0.003-0.005 0.005-0.007 0.008l-0 0c-0.002 0.003-0.005 0.005-0.007 0.008l-0 0c-0.002 0.003-0.005 0.005-0.007 0.008-0 0-0 0-0 0-0.003 0.003-0.005 0.005-0.007 0.008s-0.005 0.005-0.008 0.008l-0 0c-0.001 0.001-0.002 0.003-0.004 0.004l-0 0c-0.005 0.005-0.010 0.011-0.015 0.016-0.237 0.254-0.462 0.521-0.671 0.8l1.609 1.207c-0.51 0.679-0.908 1.446-1.169 2.275l-1.919-0.605c0 0 0 0-0 0.001s-0.001 0.003-0.001 0.004c-0 0.001-0 0.001-0 0.002s-0.001 0.002-0.001 0.003c-0 0.001-0 0.001-0 0.002s-0.001 0.003-0.001 0.004c-0 0.001-0.001 0.001-0.001 0.002s-0.001 0.002-0.001 0.003c-0 0.001-0.001 0.001-0.001 0.002s-0.001 0.003-0.001 0.004c-0 0.001-0 0.002-0.001 0.002s-0.001 0.002-0.001 0.003c0 0.001-0 0.001-0 0.002s-0.001 0.002-0.001 0.004c-0 0.001-0 0.001-0.001 0.002s-0.001 0.002-0.001 0.003c0 0.001-0 0.001-0.001 0.002s-0.001 0.002-0.001 0.003-0.001 0.002-0.001 0.003-0.001 0.002-0.001 0.003c-0 0.001-0.001 0.002-0.001 0.002s-0 0.001-0.001 0.002-0.001 0.003-0.001 0.004c-0 0.001-0 0.001-0.001 0.002s-0 0.002-0.001 0.003c0 0.001-0 0.001-0.001 0.002s-0.001 0.003-0.001 0.004c-0 0.001-0 0.001-0 0.002s-0.001 0.002-0.001 0.003c-0 0.001-0 0.001-0.001 0.002-0.001 0.003-0.002 0.006-0.003 0.009-0 0-0 0.001-0 0.001-0.001 0.003-0.002 0.006-0.003 0.009-0 0-0 0.001-0.001 0.001s-0 0.002-0.001 0.003c0 0 0 0.001-0 0.001-0 0.002-0.001 0.004-0.002 0.006-0 0-0 0.001-0 0.001s-0.001 0.002-0.001 0.003c0 0-0 0.001-0 0.001-0 0.002-0.001 0.004-0.002 0.005 0 0.001-0 0.001-0 0.001s-0.001 0.002-0.001 0.003c0 0-0 0.001-0 0.001-0.001 0.002-0.001 0.004-0.002 0.006 0 0-0 0.001-0 0.001-0 0.001-0 0.002-0.001 0.003s-0 0.001-0 0.001c-0.001 0.002-0.001 0.004-0.002 0.006 0 0 0 0.001-0 0.001s-0.001 0.002-0.001 0.003c0 0.001-0 0.001-0 0.001-0 0.002-0.001 0.004-0.002 0.006 0 0 0 0.001-0 0.001s-0.001 0.002-0.001 0.003c0 0 0 0.001-0 0.001-0.001 0.003-0.002 0.007-0.003 0.010 0 0 0 0.001-0 0.001-0.001 0.004-0.002 0.007-0.003 0.010 0 0 0 0.001-0 0.001-0.001 0.004-0.002 0.007-0.003 0.010-0 0-0 0.001-0 0.001-0.001 0.004-0.002 0.007-0.003 0.010-0 0-0 0-0 0.001-0.001 0.004-0.002 0.007-0.003 0.010 0 0-0 0-0 0-0.001 0.005-0.002 0.009-0.004 0.014 0 0 0 0 0 0-0.001 0.004-0.002 0.007-0.003 0.010 0 0 0 0-0 0-0.001 0.004-0.002 0.007-0.003 0.010 0 0 0 0.001 0 0.001-0.001 0.004-0.002 0.007-0.003 0.011s-0.002 0.007-0.003 0.010c0 0 0 0.001-0 0.001-0.001 0.004-0.002 0.007-0.003 0.010s-0.002 0.007-0.003 0.011c0 0 0 0 0 0-0.003 0.012-0.007 0.024-0.010 0.036 0 0 0 0 0 0-0.016 0.056-0.031 0.112-0.045 0.169-0.003 0.011-0.005 0.021-0.008 0.032 0 0 0 0 0 0-0.005 0.019-0.010 0.038-0.014 0.058v0c-0.002 0.007-0.004 0.014-0.005 0.022 0 0-0 0-0 0-0.006 0.027-0.013 0.053-0.019 0.080v0c-0.002 0.007-0.003 0.014-0.005 0.022 0 0-0 0-0 0-0.001 0.004-0.002 0.007-0.002 0.011 0 0-0 0-0 0s-0 0.002-0.001 0.003c0 0-0 0-0 0-0 0.002-0.001 0.005-0.001 0.007 0 0 0 0.001 0 0.001-0 0.001-0.001 0.002-0.001 0.003 0 0 0 0.001-0 0.001-0.001 0.003-0.002 0.007-0.002 0.010-0 0-0 0.001-0 0.001-0.001 0.003-0.002 0.007-0.002 0.010 0 0-0 0-0 0.001-0.001 0.004-0.001 0.007-0.002 0.010 0 0 0 0.001 0 0.001-0.001 0.004-0.001 0.006-0.002 0.010-0 0-0 0.001-0 0.001-0.001 0.003-0.001 0.007-0.002 0.010 0 0 0 0.001-0 0.001s-0 0.002-0.001 0.003c0 0 0 0 0 0.001-0.001 0.002-0.001 0.004-0.001 0.006 0 0-0 0.001-0 0.001-0 0.001-0 0.002-0 0.003-0 0-0 0.001-0 0.001-0 0.002-0.001 0.004-0.001 0.006-0 0-0 0.001-0 0.001-0 0.001-0.001 0.002-0.001 0.003s0 0.001 0 0.001c-0 0.002-0.001 0.004-0.001 0.006 0 0 0 0.001-0 0.001s-0 0.002-0.001 0.003c0 0-0 0.001-0 0.001-0 0.002-0.001 0.004-0.001 0.006-0 0-0 0.001-0 0.001s-0 0.002-0.001 0.003c-0 0-0 0.001-0 0.002s-0.001 0.003-0.001 0.005c0 0.001-0 0.001-0 0.002s-0 0.002-0.001 0.003c-0 0.001-0 0.001-0 0.002-0.001 0.003-0.001 0.006-0.002 0.009-0 0.001-0 0.001-0.001 0.002s-0 0.002-0.001 0.003c0 0.001-0 0.001-0 0.002s-0.001 0.003-0.001 0.005c-0 0.001-0 0.001-0 0.002s-0 0.002-0.001 0.003c0 0.001-0 0.001-0 0.002s-0.001 0.003-0.001 0.005c-0 0.001-0 0.001-0 0.002s-0 0.002-0.001 0.003c0 0.001-0 0.001-0 0.002-0 0.002-0.001 0.003-0.001 0.005s-0 0.001-0 0.002-0 0.002-0.001 0.003c0 0.001-0 0.001-0 0.002-0 0.002-0 0.003-0.001 0.004s-0 0.001-0 0.002-0 0.002-0 0.002-0 0.002-0 0.003-0 0.003-0.001 0.004c-0 0.001-0 0.001-0.001 0.002s-0 0.002-0 0.002-0 0.001-0 0.002-0 0.001-0.001 0.002-0 0.003-0.001 0.004c-0 0.001-0 0.002-0 0.002s-0 0.001-0 0.002-0 0.002-0.001 0.002-0.001 0.003-0.001 0.004c0 0.001-0 0.001-0 0.002s-0.001 0.002-0.001 0.003-0 0.001-0.001 0.002-0.001 0.003-0.001 0.004c0 0.001-0 0.001-0 0.002s-0 0.002-0 0.003c-0 0.001-0 0.001-0 0.002s-0 0.003-0.001 0.004c-0 0.001-0 0.001-0.001 0.002s-0 0.002-0 0.003c0 0.001-0 0.001-0 0.002s-0.001 0.003-0.001 0.004c0 0-0 0.001-0 0.002s-0.001 0.002-0.001 0.003c-0 0.001-0 0.001-0.001 0.002s-0 0.002-0.001 0.003c-0 0.001-0 0.002-0.001 0.003s-0 0.002-0 0.003c0 0.001-0 0.001-0 0.002s-0 0.002-0.001 0.003c-0 0.001-0 0.001-0 0.002s-0.001 0.003-0.001 0.004c0 0.001-0 0.001-0 0.002s-0 0.002-0.001 0.003c-0 0.001-0 0.001-0 0.002s-0.001 0.003-0.001 0.004c-0 0.001-0 0.001-0 0.002s-0 0.002-0.001 0.003c0 0.001 0 0.001-0 0.002s-0.001 0.003-0.001 0.004c0 0.001-0 0.001-0 0.002s-0 0.002-0 0.003c-0 0.001-0 0.001-0 0.002-0 0.002-0.001 0.003-0.001 0.004s-0 0.001-0 0.002-0 0.002-0 0.003c-0 0-0 0.001-0 0.002-0 0.002-0.001 0.003-0.001 0.004s0 0.001-0 0.001c-0 0.001-0 0.002-0.001 0.003s-0 0.001-0 0.002-0.001 0.003-0.001 0.004c0 0-0 0.001-0 0.001s-0 0.002-0 0.003c-0 0.001-0 0.001-0.001 0.002-0 0.001-0 0.003-0.001 0.004s-0 0.001-0 0.001c-0 0.001-0.001 0.002-0.001 0.004s-0 0.001-0 0.002-0 0.003-0.001 0.004c-0 0-0 0.001-0 0.001s-0 0.003-0.001 0.004c-0 0.001-0 0.001-0 0.001s-0 0.003-0.001 0.004c0 0 0 0 0 0.001-0 0.002-0.001 0.003-0.001 0.005s-0 0.001-0 0.001c-0 0.001-0.001 0.003-0.001 0.004 0 0 0 0.001 0 0.001-0 0.002-0.001 0.003-0.001 0.005-0 0.001-0 0.001-0 0.001-0 0.001-0 0.003-0.001 0.004s0 0.001-0 0.001c-0 0.001-0.001 0.003-0.001 0.004s0 0.001-0 0.001c-0 0.001-0 0.003-0.001 0.004 0 0-0 0.001-0 0.001-0 0.002-0.001 0.003-0.001 0.005s0 0.001-0 0.001c-0 0.001-0 0.003-0.001 0.004 0 0-0 0.001-0 0.001-0 0.002-0.001 0.003-0.001 0.005 0 0 0 0.001-0 0.001s-0 0.003-0.001 0.004c0 0-0 0.001-0 0.001-0 0.002-0 0.003-0.001 0.005v0c-0 0.002-0.001 0.003-0.001 0.005 0 0-0 0.001-0 0.001-0 0.002-0.001 0.003-0.001 0.005v0.001c-0 0.002-0 0.003-0.001 0.005s0 0.001-0 0.001c-0 0.002-0.001 0.003-0.001 0.005v0c-0 0.002-0.001 0.003-0.001 0.005 0 0 0 0.001-0 0.001s-0 0.003-0.001 0.005c-0 0-0 0-0 0-0 0.002-0.001 0.003-0.001 0.005 0 0 0 0 0 0.001-0 0.002-0.001 0.003-0.001 0.005l-0 0c-0 0.002-0.001 0.004-0.001 0.005 0 0 0 0 0 0.001-0 0.002-0.001 0.003-0.001 0.005v0.001c-0.001 0.003-0.001 0.007-0.002 0.010 0 0 0 0 0 0.001-0.001 0.003-0.001 0.007-0.002 0.010-0 0.001-0 0-0 0.001-0 0.004-0.001 0.007-0.002 0.011v0c-0.001 0.003-0.001 0.007-0.002 0.010v0.001c-0.001 0.003-0.001 0.007-0.002 0.010-0 0-0 0-0 0.001-0 0.003-0.001 0.007-0.002 0.010 0 0.001 0-0 0 0-0.001 0.003-0.001 0.007-0.002 0.011l-0 0c-0.001 0.004-0.001 0.007-0.002 0.011v0c-0.084 0.495-0.13 1.003-0.136 1.52l2.013 0.021c-0 0.027-0.002 0.054-0.002 0.081 0 0.856 0.143 1.679 0.404 2.447l-1.908 0.646c0.070 0.206 0.146 0.409 0.229 0.608 0.003 0.007 0.006 0.014 0.009 0.021 0.001 0.003 0.003 0.007 0.004 0.010v0c0.001 0.003 0.003 0.007 0.004 0.010 0.003 0.007 0.006 0.014 0.009 0.021v0c0.001 0.003 0.003 0.007 0.004 0.010 0.002 0.005 0.004 0.010 0.007 0.015 0 0 0 0 0 0 0.001 0.003 0.003 0.007 0.004 0.010 0 0 0-0 0 0 0.001 0.003 0.003 0.007 0.004 0.010l0 0c0.001 0.003 0.003 0.007 0.004 0.010l0 0c0.001 0.003 0.003 0.007 0.004 0.010v0c0.001 0.003 0.003 0.007 0.004 0.010l0 0.001c0.001 0.003 0.003 0.006 0.004 0.010 0 0 0 0 0 0 0.001 0.003 0.003 0.007 0.004 0.010 0 0 0-0 0 0 0.001 0.002 0.001 0.003 0.002 0.005v0c0.001 0.002 0.001 0.003 0.002 0.005v0c0.001 0.002 0.001 0.003 0.002 0.005l0 0c0.001 0.002 0.001 0.003 0.002 0.005l0 0c0.001 0.002 0.001 0.003 0.002 0.005l0 0c0.001 0.002 0.001 0.003 0.002 0.005v0c0.001 0.001 0.001 0.003 0.002 0.005 0 0 0 0 0 0 0.001 0.001 0.001 0.003 0.002 0.005l0 0c0.001 0.002 0.001 0.003 0.002 0.005 0 0 0 0 0 0 0.001 0.003 0.003 0.006 0.004 0.010 0 0 0 0 0 0.001 0.001 0.002 0.001 0.003 0.002 0.005v0c0.001 0.002 0.001 0.003 0.002 0.005s0 0.001 0 0.001c0.001 0.003 0.003 0.006 0.004 0.009l0 0.001c0.001 0.003 0.003 0.006 0.004 0.009 0 0 0 0 0 0.001 0.001 0.003 0.003 0.006 0.004 0.009 0 0 0 0 0 0.001 0.001 0.003 0.003 0.006 0.005 0.009 0 0 0 0 0 0.001 0.001 0.003 0.003 0.006 0.004 0.010 0 0 0 0 0 0 0.001 0.002 0.001 0.003 0.002 0.005v0c0.001 0.001 0.001 0.003 0.002 0.004 0 0 0 0 0 0.001 0.001 0.002 0.001 0.003 0.002 0.005v0c0.001 0.001 0.001 0.003 0.002 0.005l0 0.001c0.001 0.002 0.001 0.003 0.002 0.005 0 0 0 0 0 0.001 0.001 0.001 0.001 0.003 0.002 0.004l0 0.001c0.001 0.002 0.001 0.003 0.002 0.005 0 0 0 0 0 0 0.001 0.002 0.001 0.003 0.002 0.005s0.001 0.003 0.002 0.005c0 0 0 0 0 0.001 0.001 0.001 0.001 0.003 0.002 0.004s0 0 0 0c0.001 0.002 0.001 0.003 0.002 0.005 0 0 0 0 0 0.001 0.001 0.001 0.001 0.003 0.002 0.005v0c0.001 0.002 0.001 0.003 0.002 0.005s0 0.001 0 0.001c0.001 0.003 0.003 0.006 0.004 0.009l0 0.001c0.001 0.003 0.003 0.006 0.004 0.009 0 0 0 0 0 0.001 0.001 0.003 0.003 0.006 0.004 0.009 0 0 0 0 0 0 0.001 0.001 0.001 0.003 0.002 0.005 0 0 0-0 0 0 0.001 0.002 0.001 0.003 0.002 0.005 0 0 0 0 0 0.001 0.001 0.002 0.001 0.003 0.002 0.005 0 0 0 0 0 0.001 0.001 0.001 0.001 0.003 0.002 0.004 0 0 0 0 0 0.001s0.001 0.003 0.002 0.005l0 0c0.001 0.001 0.001 0.003 0.002 0.004 0 0 0 0 0 0.001 0.001 0.002 0.001 0.003 0.002 0.005l0 0.001c0.001 0.001 0.001 0.003 0.002 0.004l0 0c0.001 0.002 0.001 0.003 0.002 0.005l0 0c0.001 0.002 0.001 0.003 0.002 0.005s0.001 0.003 0.002 0.005c0 0 0 0 0 0.001 0.001 0.002 0.001 0.003 0.002 0.005l0 0c0.001 0.002 0.002 0.003 0.002 0.005 0 0 0 0 0 0 0.001 0.003 0.003 0.006 0.005 0.009 0 0 0 0 0 0 0.001 0.003 0.003 0.006 0.004 0.009l0 0c0.001 0.003 0.003 0.006 0.005 0.009l0 0.001c0.001 0.003 0.003 0.006 0.005 0.009v0c0.002 0.003 0.003 0.007 0.005 0.010 0 0 0 0 0 0 0.002 0.003 0.003 0.006 0.005 0.009 0 0 0 0 0 0 0.001 0.003 0.003 0.006 0.005 0.010 0 0 0 0 0 0 0.001 0.003 0.003 0.007 0.005 0.010v0c0.002 0.003 0.003 0.006 0.005 0.010 0.001 0.002 0.002 0.003 0.003 0.005l0 0c0.001 0.001 0.001 0.003 0.002 0.005v0c0.001 0.001 0.002 0.003 0.002 0.005l0 0c0.001 0.001 0.001 0.003 0.002 0.005v0c0.001 0.002 0.002 0.003 0.002 0.005 0 0 0 0 0 0 0.001 0.003 0.003 0.006 0.005 0.010 0 0 0 0 0 0 0.001 0.003 0.003 0.006 0.005 0.010l0 0c0.001 0.003 0.003 0.006 0.005 0.010l0 0c0.002 0.003 0.003 0.006 0.005 0.010v0c0.002 0.003 0.003 0.007 0.005 0.010v0c0.002 0.003 0.003 0.006 0.005 0.010 0 0 0 0 0 0 0.002 0.003 0.003 0.006 0.005 0.010l0 0c0.001 0.002 0.002 0.003 0.003 0.005v0c0.002 0.003 0.003 0.006 0.005 0.009l0 0c0.002 0.003 0.003 0.006 0.005 0.010v0c0.002 0.003 0.003 0.006 0.005 0.010v0c0.002 0.003 0.003 0.007 0.005 0.010 0 0 0 0 0 0 0.002 0.003 0.003 0.006 0.005 0.010v0c0.002 0.003 0.003 0.006 0.005 0.010h0c0.001 0.003 0.003 0.006 0.005 0.010v0c0.002 0.003 0.003 0.006 0.005 0.009l0 0c0.002 0.003 0.003 0.006 0.005 0.009 0 0 0 0 0 0 0.002 0.003 0.004 0.006 0.005 0.010 0 0-0 0 0 0 0.003 0.006 0.007 0.013 0.010 0.020v0c0.151 0.289 0.315 0.569 0.493 0.839 0 0-0-0 0 0 0.002 0.003 0.004 0.006 0.006 0.009h0c0.002 0.003 0.004 0.006 0.006 0.009l0 0c0.001 0.001 0.002 0.003 0.003 0.004l0 0c0.001 0.001 0.002 0.003 0.003 0.004l0 0c0.001 0.001 0.002 0.003 0.003 0.004l0 0c0.001 0.001 0.002 0.003 0.003 0.004l0 0c0.001 0.001 0.002 0.003 0.003 0.004 0 0 0 0 0 0 0.001 0.001 0.002 0.003 0.003 0.004s0.002 0.003 0.003 0.005c0 0 0 0 0 0 0.001 0.002 0.002 0.003 0.003 0.005 0 0 0-0 0 0 0.001 0.001 0.002 0.003 0.003 0.004 0 0 0 0 0 0 0.002 0.003 0.004 0.006 0.006 0.009 0 0 0 0 0.001 0.001s0.002 0.003 0.003 0.004h0c0.001 0.001 0.002 0.003 0.003 0.004l0 0.001c0.002 0.003 0.004 0.006 0.006 0.009 0 0 0 0 0 0.001 0.001 0.001 0.002 0.003 0.003 0.004 0 0 0 0 0 0s0.002 0.002 0.003 0.004c0 0 0 0.001 0.001 0.001 0.001 0.001 0.002 0.003 0.003 0.004 0 0-0 0 0 0 0.001 0.001 0.002 0.003 0.003 0.004 0 0 0.001 0.001 0.001 0.001s0.002 0.003 0.002 0.004c0.001 0 0.001 0 0.001 0.001s0.001 0.002 0.002 0.003c0 0 0.001 0.001 0.001 0.001 0.001 0.001 0.002 0.003 0.003 0.004s0 0 0.001 0.001c0.001 0.001 0.001 0.002 0.002 0.003s0.001 0.001 0.001 0.001c0.001 0.001 0.002 0.002 0.003 0.004 0 0 0.001 0.001 0.001 0.001s0.001 0.002 0.002 0.003c0.001 0 0.001 0.001 0.001 0.001s0.001 0.002 0.002 0.004c0 0 0.001 0.001 0.001 0.001s0.001 0.002 0.002 0.003c0 0 0.001 0.001 0.001 0.001s0.002 0.002 0.002 0.003c0.001 0.001 0.001 0.001 0.001 0.002s0.001 0.002 0.002 0.002c0.001 0 0.001 0.001 0.001 0.001s0.001 0.002 0.002 0.003c0 0.001 0.001 0.001 0.001 0.002s0.001 0.001 0.001 0.002c0.001 0.001 0.001 0.002 0.002 0.002s0.001 0.002 0.002 0.003c0.001 0.001 0.001 0.001 0.001 0.002s0.001 0.001 0.001 0.002 0.001 0.002 0.002 0.003c0.001 0.001 0.001 0.001 0.001 0.002s0.001 0.002 0.001 0.002c0.001 0 0.001 0.001 0.001 0.002s0.002 0.003 0.003 0.004c0 0 0.001 0.001 0.001 0.001s0.001 0.002 0.002 0.003c0 0 0.001 0.001 0.001 0.001 0.001 0.002 0.002 0.003 0.003 0.004 0 0 0.001 0.001 0.001 0.001s0.001 0.002 0.002 0.002c0 0 0.001 0.001 0.001 0.001 0.001 0.001 0.002 0.003 0.003 0.004s0.001 0.001 0.001 0.001c0.001 0.001 0.001 0.002 0.002 0.003 0 0 0 0 0 0.001 0.001 0.001 0.002 0.003 0.003 0.005 0 0 0.001 0.001 0.001 0.001 0.002 0.003 0.004 0.005 0.006 0.008 0 0 0 0 0 0 0.002 0.003 0.004 0.006 0.006 0.009 0 0 0 0 0 0 0.002 0.003 0.004 0.006 0.006 0.009s0.004 0.006 0.006 0.009c0 0 0 0 0 0 0.020 0.028 0.039 0.056 0.059 0.083l1.635-1.174c0.501 0.698 1.117 1.308 1.822 1.803l-1.157 1.647c0.144 0.101 0.291 0.199 0.441 0.292 0 0-0-0 0 0 0.003 0.002 0.006 0.004 0.009 0.006l0 0c0.003 0.002 0.006 0.004 0.009 0.006l0 0c0.003 0.002 0.006 0.004 0.009 0.006l0 0c0.003 0.002 0.006 0.004 0.009 0.006l0.001 0c0.003 0.002 0.006 0.004 0.009 0.006 0 0 0 0 0 0 0.003 0.002 0.006 0.004 0.009 0.006 0 0 0 0 0.001 0 0.001 0.001 0.003 0.002 0.004 0.003s0.003 0.002 0.004 0.003c0 0 0 0 0.001 0 0.001 0.001 0.003 0.002 0.005 0.003v0c0.001 0.001 0.003 0.002 0.004 0.002 0 0 0 0 0.001 0 0.001 0.001 0.003 0.002 0.004 0.003l0 0c0.001 0.001 0.003 0.002 0.004 0.003l0 0c0.001 0.001 0.003 0.002 0.005 0.003l0.001 0c0.001 0.001 0.003 0.002 0.004 0.003l0 0c0.002 0.001 0.003 0.002 0.005 0.003 0 0 0 0 0.001 0s0.003 0.002 0.004 0.003c0 0 0.001 0 0.001 0 0.001 0.001 0.003 0.002 0.004 0.003s0.001 0 0.001 0c0.001 0.001 0.003 0.002 0.004 0.002 0 0 0 0 0.001 0 0.001 0.001 0.003 0.002 0.004 0.002 0 0 0.001 0 0.001 0.001s0.003 0.002 0.004 0.002c0 0 0 0 0.001 0 0.001 0.001 0.003 0.002 0.004 0.002s0.001 0 0.001 0.001c0.001 0.001 0.002 0.001 0.004 0.002 0 0 0 0 0.001 0 0.001 0.001 0.003 0.002 0.004 0.002s0.001 0 0.001 0.001c0.001 0.001 0.002 0.001 0.004 0.002s0.001 0 0.001 0.001c0.001 0.001 0.002 0.001 0.003 0.002s0.001 0.001 0.001 0.001 0.002 0.001 0.003 0.002c0.001 0 0.001 0.001 0.002 0.001s0.002 0.001 0.003 0.002c0.001 0 0.001 0.001 0.002 0.001s0.002 0.001 0.003 0.002c0 0 0.001 0.001 0.002 0.001s0.002 0.001 0.003 0.002c0.001 0 0.001 0.001 0.001 0.001 0.001 0.001 0.003 0.001 0.004 0.002s0.001 0 0.001 0.001 0.002 0.001 0.003 0.002c0.001 0 0.001 0.001 0.002 0.001s0.002 0.001 0.004 0.002c0 0 0.001 0.001 0.001 0.001s0.002 0.001 0.003 0.001c0.001 0 0.001 0.001 0.002 0.001s0.002 0.001 0.004 0.002c0.001 0 0.001 0.001 0.002 0.001s0.002 0.001 0.003 0.002c0 0 0.001 0 0.001 0.001s0.002 0.002 0.004 0.002c0.001 0 0.001 0.001 0.002 0.001s0.002 0.001 0.003 0.002c0 0 0.001 0.001 0.002 0.001s0.002 0.001 0.004 0.002c0.001 0 0.001 0.001 0.002 0.001s0.002 0.001 0.002 0.001 0.001 0.001 0.002 0.001 0.002 0.001 0.003 0.002c0.001 0 0.001 0.001 0.002 0.001s0.001 0.001 0.002 0.002 0.002 0.001 0.002 0.001 0.002 0.001 0.003 0.002c0.001 0 0.001 0.001 0.002 0.001s0.001 0.001 0.002 0.001 0.002 0.001 0.003 0.002 0.002 0.001 0.003 0.001 0.001 0.001 0.002 0.001 0.001 0.001 0.002 0.001 0.002 0.001 0.002 0.001 0.002 0.001 0.003 0.002c0.001 0 0.001 0.001 0.002 0.001s0.001 0.001 0.002 0.001 0.002 0.001 0.003 0.002 0.002 0.001 0.002 0.001 0.002 0.001 0.002 0.001 0.001 0.001 0.002 0.001 0.002 0.001 0.003 0.002c0.001 0 0.001 0.001 0.002 0.001s0.001 0.001 0.002 0.001 0.002 0.001 0.002 0.002 0.002 0.001 0.003 0.002c0.001 0 0.001 0.001 0.002 0.001s0.001 0.001 0.002 0.001c0.001 0 0.001 0.001 0.002 0.001s0.002 0.001 0.003 0.002c0.001 0 0.001 0.001 0.002 0.001s0.001 0.001 0.002 0.001 0.002 0.001 0.002 0.002 0.002 0.001 0.003 0.002c0.001 0 0.001 0.001 0.002 0.001s0.001 0.001 0.002 0.001 0.002 0.001 0.003 0.001 0.002 0.001 0.003 0.002c0.001 0 0.001 0.001 0.001 0.001 0.003 0.001 0.006 0.003 0.008 0.005 0.001 0 0.001 0 0.001 0.001 0.003 0.002 0.006 0.003 0.008 0.005 0.001 0 0.001 0.001 0.001 0.001 0.002 0.001 0.004 0.002 0.005 0.003 0 0 0 0 0 0 0.001 0.001 0.002 0.001 0.003 0.002 0 0 0.001 0 0.001 0 0.002 0.001 0.004 0.002 0.006 0.003v0c0.001 0 0.002 0.001 0.003 0.001s0.001 0 0.001 0c0.002 0.001 0.003 0.002 0.005 0.003 0 0 0.001 0 0.001 0s0.002 0.001 0.003 0.002c0 0 0.001 0 0.001 0 0.002 0.001 0.004 0.002 0.005 0.003 0 0 0 0 0.001 0s0.002 0.001 0.003 0.001c0 0 0.001 0 0.001 0.001 0.002 0.001 0.004 0.002 0.005 0.003 0 0 0 0 0.001 0 0.001 0 0.002 0.001 0.003 0.002s0.001 0 0.001 0c0.002 0.001 0.004 0.002 0.006 0.003 0 0 0 0 0.001 0 0.001 0.001 0.002 0.001 0.003 0.001s0 0 0 0c0.002 0.001 0.004 0.002 0.006 0.003 0 0 0 0 0.001 0s0.002 0.001 0.003 0.002c0 0 0 0 0.001 0 0.001 0.001 0.004 0.002 0.005 0.003 0 0 0.001 0 0.001 0s0.002 0.001 0.003 0.001c0 0 0.001 0 0.001 0 0.002 0.001 0.004 0.002 0.005 0.003 0 0 0 0 0.001 0 0.003 0.002 0.006 0.003 0.009 0.005 0 0 0.001 0 0.001 0 0.003 0.002 0.006 0.003 0.009 0.005 0 0 0.001 0 0.001 0 0.003 0.002 0.005 0.003 0.009 0.005 0 0 0 0 0.001 0 0.003 0.002 0.006 0.003 0.009 0.005 0 0 0 0 0 0 0.003 0.002 0.006 0.003 0.009 0.005h0c0.003 0.002 0.006 0.004 0.009 0.005 0 0 0 0 0 0 0.008 0.005 0.017 0.009 0.025 0.014v0c0.003 0.002 0.006 0.004 0.009 0.005 0 0 0 0 0 0 0.003 0.002 0.006 0.003 0.009 0.005 0 0 0.001 0 0.001 0 0.007 0.004 0.012 0.007 0.019 0.010 0 0 0 0 0.001 0 0.006 0.003 0.012 0.007 0.019 0.010h0c0.156 0.084 0.315 0.163 0.476 0.238v0c0.032 0.015 0.064 0.030 0.096 0.044 0 0 0 0 0 0 0.003 0.002 0.006 0.003 0.009 0.004 0 0 0 0 0.001 0 0.004 0.001 0.007 0.003 0.009 0.004h0c0.003 0.001 0.007 0.003 0.010 0.004 0 0 0 0 0 0 0.003 0.001 0.007 0.003 0.010 0.004 0 0 0 0 0.001 0 0.003 0.001 0.006 0.003 0.010 0.004 0 0 0 0 0.001 0 0.003 0.001 0.006 0.003 0.009 0.004l0 0c0.002 0.001 0.004 0.002 0.006 0.003 0 0 0 0 0.001 0s0.002 0.001 0.003 0.001c0 0 0.001 0 0.001 0 0.002 0.001 0.004 0.002 0.006 0.003 0 0 0 0 0.001 0s0.002 0.001 0.003 0.001c0 0 0 0 0 0 0.002 0.001 0.004 0.002 0.006 0.003 0 0 0.001 0 0.001 0s0.002 0.001 0.003 0.001c0 0 0.001 0 0.001 0 0.002 0.001 0.004 0.002 0.005 0.002 0 0 0.001 0 0.001 0 0.003 0.001 0.006 0.003 0.009 0.004 0 0 0.001 0 0.001 0s0.002 0.001 0.003 0.001c0 0 0 0 0.001 0 0.002 0.001 0.004 0.002 0.005 0.002s0.001 0 0.001 0c0.003 0.001 0.006 0.003 0.009 0.004 0 0 0.001 0 0.001 0 0.003 0.001 0.006 0.003 0.009 0.004 0 0 0.001 0 0.001 0 0.003 0.001 0.006 0.003 0.009 0.004 0 0 0.001 0 0.001 0 0.002 0.001 0.004 0.002 0.006 0.002 0 0 0 0 0 0s0.002 0.001 0.003 0.001c0 0 0.001 0 0.001 0.001s0.003 0.001 0.005 0.002c0.001 0 0.001 0 0.001 0.001s0.002 0.001 0.002 0.001c0 0 0.001 0 0.001 0.001s0.003 0.001 0.004 0.002c0.001 0 0.001 0 0.002 0s0.002 0.001 0.003 0.001c0.001 0 0.001 0 0.001 0.001 0.002 0.001 0.003 0.001 0.005 0.002 0.001 0 0.001 0 0.001 0.001s0.002 0.001 0.003 0.001c0.001 0 0.001 0 0.002 0.001s0.003 0.001 0.004 0.002c0.001 0 0.001 0 0.002 0.001s0.002 0.001 0.003 0.001c0.001 0 0.001 0.001 0.002 0.001s0.003 0.001 0.004 0.002c0.001 0 0.001 0 0.002 0.001s0.002 0.001 0.003 0.001c0.001 0 0.001 0.001 0.002 0.001 0.001 0.001 0.003 0.001 0.004 0.002s0.001 0 0.002 0.001 0.002 0.001 0.002 0.001c0.001 0 0.002 0.001 0.002 0.001s0.002 0.001 0.003 0.001c0.001 0 0.001 0.001 0.002 0.001s0.001 0 0.002 0.001 0.002 0.001 0.003 0.001 0.002 0.001 0.003 0.001 0.001 0 0.002 0.001 0.001 0.001 0.002 0.001 0.002 0.001 0.003 0.002c0.001 0 0.001 0.001 0.002 0.001s0.001 0 0.002 0.001 0.001 0.001 0.002 0.001 0.003 0.001 0.004 0.002c0.001 0 0.001 0.001 0.002 0.001s0.002 0.001 0.002 0.001 0.001 0 0.002 0.001c0.001 0 0.003 0.001 0.004 0.001s0.001 0.001 0.002 0.001 0.001 0.001 0.002 0.001 0.001 0.001 0.002 0.001 0.002 0.001 0.004 0.001c0.001 0 0.001 0.001 0.002 0.001s0.002 0.001 0.003 0.001c0.001 0 0.001 0 0.002 0.001s0.003 0.001 0.004 0.002c0.001 0 0.001 0.001 0.002 0.001s0.001 0.001 0.002 0.001 0.002 0.001 0.003 0.001 0.002 0.001 0.003 0.001 0.001 0.001 0.002 0.001 0.002 0.001 0.002 0.001 0.002 0.001 0.003 0.001c0.001 0 0.002 0.001 0.002 0.001s0.002 0.001 0.002 0.001 0.002 0.001 0.003 0.001 0.002 0.001 0.003 0.001 0.002 0.001 0.003 0.001 0.001 0 0.002 0.001 0.002 0.001 0.003 0.001c0.001 0 0.001 0.001 0.002 0.001s0.002 0.001 0.003 0.001c0.001 0 0.001 0 0.002 0.001s0.002 0.001 0.004 0.001c0 0 0.001 0 0.001 0.001s0.002 0.001 0.004 0.001c0.001 0 0.001 0 0.001 0.001s0.003 0.001 0.004 0.002c0.001 0 0.001 0 0.001 0s0.002 0.001 0.003 0.001c0.001 0 0.001 0 0.002 0.001s0.002 0.001 0.004 0.002c0.001 0 0.001 0 0.001 0.001s0.002 0.001 0.003 0.001c0 0 0.001 0 0.001 0.001 0.001 0.001 0.003 0.001 0.004 0.002s0.001 0 0.001 0.001c0.001 0 0.002 0.001 0.004 0.001s0.001 0 0.001 0.001c0.001 0.001 0.003 0.001 0.004 0.002s0.001 0 0.001 0.001c0.001 0 0.002 0.001 0.004 0.001s0.001 0 0.001 0.001c0.001 0.001 0.003 0.001 0.004 0.002s0.001 0 0.001 0 0.002 0.001 0.003 0.001c0.001 0 0.001 0 0.001 0s0.003 0.001 0.004 0.002c0 0 0.001 0 0.001 0 0.001 0 0.003 0.001 0.004 0.001s0.001 0 0.001 0c0.001 0.001 0.003 0.001 0.004 0.002 0 0 0.001 0 0.001 0 0.001 0.001 0.003 0.001 0.004 0.002s0.001 0 0.001 0c0.002 0.001 0.003 0.001 0.005 0.002 0 0 0.001 0 0.001 0 0.001 0.001 0.003 0.001 0.004 0.002 0 0 0 0 0.001 0 0.001 0 0.003 0.001 0.005 0.002 0.001 0 0.001 0 0.001 0s0.003 0.001 0.004 0.002c0 0 0 0 0.001 0s0.003 0.001 0.005 0.002c0.001 0 0 0 0.001 0 0.003 0.001 0.006 0.002 0.009 0.004l0.001 0c0.002 0.001 0.003 0.001 0.005 0.002h0c0.001 0.001 0.003 0.001 0.005 0.002 0 0 0.001 0 0.001 0 0.001 0.001 0.003 0.001 0.005 0.002 0 0 0 0 0.001 0 0.002 0.001 0.003 0.001 0.004 0.002 0 0 0.001 0 0.001 0 0.001 0.001 0.003 0.001 0.005 0.002 0 0 0 0 0.001 0 0.001 0.001 0.003 0.001 0.004 0.002 0 0 0.001 0 0.001 0 0.002 0.001 0.003 0.001 0.005 0.002l0.001 0c0.001 0 0.003 0.001 0.004 0.002 0 0 0 0 0.001 0 0.002 0.001 0.003 0.001 0.005 0.002l0.001 0c0.001 0.001 0.003 0.001 0.005 0.002l0 0c0.002 0 0.003 0.001 0.005 0.002l0 0c0.002 0.001 0.003 0.001 0.005 0.002l0 0c0.002 0.001 0.003 0.001 0.005 0.002 0 0 0 0 0.001 0 0.001 0.001 0.003 0.001 0.005 0.002h0c0.002 0.001 0.003 0.001 0.005 0.002 0 0 0 0 0 0 0.003 0.001 0.007 0.003 0.010 0.004 0 0 0 0 0.001 0 0.003 0.001 0.007 0.003 0.010 0.004l0 0c0.003 0.001 0.007 0.003 0.010 0.004h0c0.007 0.003 0.014 0.005 0.021 0.008 0.133 0.050 0.267 0.097 0.402 0.142l0.626-1.913c0.747 0.244 1.544 0.379 2.373 0.379 0.054 0 0.107-0.003 0.16-0.004l0.041 2.013c0.007-0 0.013-0 0.019-0 0 0 0 0 0 0 0.004-0 0.007-0 0.011-0 0 0 0.001 0 0.001 0 0.004-0 0.007-0 0.011-0 0 0 0.001 0 0.001 0 0.003-0 0.007-0 0.010-0 0.001 0 0.001 0 0.002 0s0.002-0 0.003-0c0 0 0.001 0 0.001 0 0.002 0 0.004-0 0.006-0 0.001 0 0.001 0 0.001 0s0.002-0 0.003-0c0.001 0 0.001 0 0.001 0 0.002-0 0.003-0 0.005-0 0.001 0 0.001-0 0.002-0s0.002 0 0.003 0c0.001 0 0.001 0 0.001-0 0.002 0 0.003 0 0.005-0 0 0 0.001 0 0.001 0s0.002 0 0.003-0c0.001 0 0.001 0 0.002 0s0.003-0 0.004-0c0.001 0 0.002 0 0.003 0s0.002-0 0.003-0 0.002 0 0.003-0 0.002 0 0.003 0 0.003-0 0.004-0c0.001 0 0.002 0 0.002 0s0.002-0 0.003-0c0.001 0 0.001 0 0.002-0s0.003 0 0.004-0c0.001 0 0.001 0 0.002 0s0.002-0 0.003-0c0.001 0 0.001 0 0.002 0 0.001-0 0.003-0 0.005-0s0.001-0 0.002-0 0.002 0 0.003-0c0.001 0 0.001 0 0.002 0s0.003-0 0.005-0c0.001 0 0.001 0 0.002 0s0.003-0 0.004-0c0 0 0.001-0 0.002-0 0.001 0 0.003-0 0.005-0s0.001 0 0.001 0c0.001-0 0.003-0 0.004-0s0.001-0 0.001-0c0.002 0 0.003-0 0.005-0 0 0 0 0 0.001 0 0.001-0 0.003-0 0.004-0s0 0 0.001-0c0.001 0 0.003-0 0.005-0 0 0 0 0 0.001 0s0.003-0 0.004-0c0-0 0-0 0.001-0 0.003-0 0.007-0 0.011-0 0 0 0 0 0.001 0 0.002 0 0.004-0 0.005-0s0.004-0 0.005-0c0 0 0 0 0.001 0 0.004-0 0.007-0 0.011-0 0 0 0 0 0-0 0.002 0 0.003-0 0.005-0h0c0.002-0 0.004-0 0.006-0v0c0.006-0 0.011-0 0.017-0.001 0.007-0 0.015-0.001 0.023-0.001v0c0.604-0.029 1.194-0.114 1.764-0.25v0c0.016-0.004 0.032-0.008 0.048-0.012 0.004-0.001 0.007-0.002 0.011-0.002v0c0.003-0.001 0.007-0.002 0.011-0.003v0c0.003-0.001 0.007-0.002 0.010-0.003h0c0.003-0.001 0.007-0.002 0.010-0.003 0 0 0 0 0-0 0.004-0.001 0.007-0.002 0.010-0.002l0-0c0.002-0 0.004-0.001 0.005-0.001l0-0c0.003-0.001 0.007-0.002 0.011-0.003h0c0.003-0.001 0.007-0.002 0.010-0.003 0-0 0 0 0-0 0.003-0.001 0.007-0.002 0.010-0.003 0 0 0 0 0-0 0.003-0.001 0.007-0.002 0.010-0.003h0.001c0.003-0.001 0.007-0.002 0.010-0.003l0-0c0.003-0.001 0.007-0.002 0.010-0.003l0-0c0.004-0.001 0.007-0.002 0.010-0.002 0-0 0 0 0-0 0.003-0.001 0.007-0.002 0.010-0.003v0c0.004-0.001 0.007-0.002 0.011-0.003h0c0.002-0 0.004-0.001 0.005-0.001s0.003-0.001 0.005-0.002h0c0.002-0 0.003-0.001 0.005-0.001l0-0c0.003-0.001 0.007-0.002 0.010-0.003 0 0-0 0 0 0 0.004-0.001 0.007-0.002 0.010-0.003l0-0c0.003-0.001 0.007-0.002 0.010-0.003l0-0c0.004-0.001 0.007-0.002 0.010-0.003l0.001-0c0.003-0.001 0.007-0.002 0.010-0.003 0.009-0.002 0.017-0.005 0.026-0.007v0c0.003-0.001 0.007-0.002 0.010-0.003h0c0.004-0.001 0.007-0.002 0.010-0.003 0-0 0 0 0-0 0.003-0.001 0.007-0.002 0.010-0.003l0-0c0.004-0.001 0.007-0.002 0.010-0.003l0.001-0c0.003-0.001 0.007-0.002 0.010-0.003l0-0c0.004-0.001 0.007-0.002 0.010-0.003 0-0-0 0 0 0 0.007-0.002 0.014-0.004 0.021-0.006h0c0.009-0.002 0.017-0.005 0.026-0.007h0c0.004-0.001 0.007-0.002 0.010-0.003l0-0c0.003-0.001 0.007-0.002 0.010-0.003h0c0.004-0.001 0.007-0.002 0.010-0.003h0c0.004-0.001 0.007-0.002 0.011-0.003 0.019-0.006 0.038-0.011 0.058-0.017v0c0.084-0.025 0.167-0.051 0.25-0.078l-0.626-1.914c0.825-0.27 1.588-0.676 2.262-1.193l1.225 1.597c0.354-0.272 0.689-0.568 1.002-0.885v-0c0.003-0.003 0.005-0.005 0.008-0.008 0.004-0.004 0.008-0.008 0.012-0.012v-0c0.003-0.002 0.005-0.005 0.008-0.008 0-0 0 0 0-0 0.003-0.003 0.005-0.005 0.007-0.008l0-0c0.002-0.003 0.005-0.005 0.007-0.007l0.001-0.001c0.002-0.003 0.005-0.005 0.007-0.007 0-0 0-0 0.001-0.001 0.001-0.001 0.002-0.002 0.003-0.004 0-0 0 0 0-0 0.001-0.001 0.002-0.002 0.003-0.003 0-0 0.001-0.001 0.001-0.001s0.002-0.002 0.003-0.003c0-0 0-0 0.001-0.001s0.002-0.002 0.003-0.003c0-0 0-0.001 0.001-0.001s0.002-0.002 0.004-0.003c0-0 0-0 0-0.001 0.001-0.001 0.002-0.002 0.003-0.003l0-0.001c0.001-0.001 0.002-0.002 0.003-0.004 0-0 0.001-0 0.001-0.001s0.002-0.002 0.003-0.003c0-0 0.001-0 0.001-0.001 0.001-0.001 0.002-0.002 0.003-0.003s0-0.001 0.001-0.001c0.001-0.001 0.002-0.002 0.003-0.003s0-0 0-0c0.001-0.001 0.002-0.002 0.003-0.003s0-0 0.001-0.001c0.001-0.001 0.002-0.002 0.003-0.004v-0c0.001-0.001 0.002-0.002 0.004-0.003 0-0 0.001-0.001 0.001-0.001s0.002-0.002 0.003-0.003c0-0 0-0 0.001-0s0.002-0.002 0.003-0.003c0-0 0-0 0.001-0.001s0.002-0.002 0.003-0.004c0 0 0-0 0-0 0.001-0.001 0.002-0.002 0.003-0.003 0-0 0.001-0 0.001-0.001 0.001-0.001 0.002-0.002 0.003-0.003s0.001-0.001 0.001-0.001c0.001-0.001 0.002-0.002 0.003-0.003s0-0 0.001-0.001c0.001-0.001 0.002-0.002 0.003-0.003 0-0 0-0.001 0.001-0.001s0.002-0.002 0.003-0.003c0-0 0-0 0.001-0.001s0.002-0.002 0.003-0.003c0-0 0.001-0.001 0.001-0.001s0.001-0.002 0.002-0.003c0-0 0.001-0.001 0.001-0.001s0.002-0.002 0.003-0.003c0-0 0.001-0.001 0.001-0.001s0.002-0.002 0.003-0.003c0.001-0 0.001-0.001 0.001-0.001s0.002-0.002 0.003-0.003c0-0 0.001-0.001 0.001-0.001s0.002-0.002 0.003-0.003c0-0 0.001-0.001 0.001-0.001s0.002-0.002 0.003-0.003c0-0 0.001-0.001 0.001-0.001 0.001-0.001 0.002-0.002 0.003-0.003s0.001-0.001 0.001-0.001 0.001-0.001 0.002-0.002c0.001-0.001 0.001-0.001 0.001-0.002s0.002-0.002 0.003-0.003c0-0 0.001-0.001 0.001-0.001s0.001-0.001 0.002-0.002c0.001-0.001 0.001-0.001 0.001-0.001s0.002-0.002 0.003-0.003c0-0 0.001-0.001 0.002-0.002s0.001-0.001 0.001-0.002 0.002-0.002 0.003-0.003c0.001-0.001 0.001-0.001 0.002-0.002s0.001-0.001 0.002-0.002 0.001-0.001 0.002-0.002 0.001-0.001 0.002-0.002 0.002-0.002 0.002-0.002 0.001-0.001 0.001-0.002 0.001-0.001 0.002-0.002c0.001-0.001 0.001-0.001 0.002-0.002s0.001-0.001 0.002-0.002 0.001-0.001 0.001-0.002 0.001-0.001 0.002-0.002c0.001-0.001 0.002-0.002 0.002-0.002s0.001-0.001 0.002-0.002 0.001-0.001 0.002-0.002 0.001-0.001 0.002-0.002 0.001-0.002 0.002-0.003 0.001-0.001 0.002-0.002 0.001-0.001 0.001-0.002 0.002-0.002 0.003-0.003c0.001-0.001 0.001-0.001 0.002-0.002s0.001-0.001 0.002-0.002 0.001-0.001 0.001-0.002 0.002-0.002 0.003-0.003c0.001-0.001 0.001-0.001 0.002-0.002s0.001-0.001 0.002-0.002c0-0 0.001-0.001 0.002-0.001s0.002-0.002 0.003-0.003c0.001-0.001 0.001-0.001 0.002-0.001s0.001-0.001 0.002-0.002 0.002-0.002 0.003-0.003 0.001-0.001 0.001-0.002 0.001-0.001 0.002-0.002c0-0.001 0.001-0.001 0.001-0.002s0.002-0.002 0.003-0.003c0-0 0.001-0.001 0.001-0.001s0.001-0.001 0.002-0.002 0.001-0.001 0.002-0.002 0.002-0.002 0.003-0.003c0-0.001 0.001-0.001 0.002-0.002s0.001-0.001 0.002-0.002 0.001-0.001 0.001-0.002 0.002-0.002 0.003-0.003c0-0.001 0.001-0.001 0.002-0.002s0.001-0.001 0.002-0.002 0.001-0.002 0.002-0.002 0.001-0.001 0.002-0.002 0.001-0.001 0.001-0.002 0.001-0.001 0.002-0.002 0.002-0.002 0.002-0.003 0.001-0.002 0.002-0.002 0.001-0.001 0.001-0.001 0.002-0.002 0.003-0.003c0-0.001 0.001-0.001 0.001-0.001s0.001-0.001 0.002-0.002c0-0 0.001-0.001 0.001-0.001s0.002-0.003 0.003-0.004c0-0 0.001-0.001 0.001-0.001s0.001-0.001 0.002-0.002c0-0 0.001-0.001 0.001-0.001s0.002-0.002 0.004-0.004c0-0 0-0.001 0.001-0.001s0.001-0.001 0.002-0.002c0-0 0-0 0-0.001 0.001-0.001 0.003-0.003 0.004-0.004 0-0 0-0 0.001-0.001s0.001-0.001 0.002-0.002c0-0 0-0 0.001-0.001 0.001-0.001 0.003-0.003 0.004-0.004 0-0 0.001-0.001 0.001-0.001s0.001-0.001 0.002-0.002c0 0 0-0 0-0 0.001-0.002 0.003-0.003 0.004-0.005 0-0 0.001-0.001 0.001-0.001 0.002-0.002 0.005-0.005 0.007-0.007 0-0 0.001-0 0.001-0.001 0.002-0.002 0.005-0.005 0.007-0.007 0-0 0-0 0-0 0.002-0.003 0.004-0.005 0.007-0.008 0-0 0-0.001 0.001-0.001 0.001-0.002 0.003-0.003 0.004-0.005 0-0 0-0 0-0s0.001-0.002 0.002-0.002c0-0 0-0 0-0 0.001-0.002 0.003-0.003 0.004-0.005 0-0 0-0 0.001-0 0.002-0.003 0.005-0.005 0.007-0.008 0-0 0-0 0-0 0.002-0.003 0.005-0.005 0.007-0.008 0-0 0-0 0-0 0.002-0.003 0.005-0.005 0.007-0.008 0-0 0-0 0-0 0.002-0.003 0.005-0.005 0.007-0.008 0-0 0-0 0-0 0.002-0.003 0.005-0.005 0.007-0.008 0-0 0-0 0-0 0.006-0.007 0.012-0.014 0.019-0.021 0-0 0 0 0-0 0.199-0.228 0.387-0.466 0.564-0.712l-1.635-1.175c0.495-0.689 0.877-1.463 1.121-2.298l1.933 0.565c0.177-0.606 0.296-1.236 0.351-1.885 0.001-0.013 0.002-0.025 0.003-0.038v-0c0-0.004 0-0.007 0.001-0.011 0-0.006 0.001-0.011 0.001-0.016v-0c0.001-0.009 0.001-0.018 0.002-0.027v-0c0-0.003 0-0.007 0-0.011 0-0 0-0 0-0 0-0.003 0-0.007 0.001-0.011 0-0.002 0-0.003 0-0.005 0-0 0-0 0-0 0-0.003 0-0.007 0.001-0.010v-0.001c0-0.003 0.001-0.007 0.001-0.010v-0c0-0.002 0-0.003 0-0.005v-0c0-0.003 0-0.007 0.001-0.010v-0c0-0.004 0-0.007 0.001-0.010 0-0 0-0 0-0.001 0-0.002 0-0.003 0-0.005 0-0.003 0-0.007 0.001-0.011 0-0 0-0 0-0 0-0.004 0.001-0.007 0.001-0.010 0-0 0-0 0-0.001 0-0.004 0-0.007 0.001-0.011 0-0.002 0-0.004 0-0.005 0-0 0-0 0-0.001 0-0.003 0-0.007 0-0.010v-0.001c0-0.003 0.001-0.007 0.001-0.011 0-0 0 0 0-0 0-0.002 0-0.003 0-0.005v-0c0-0.004 0-0.007 0.001-0.011v-0c0-0.004 0-0.007 0.001-0.011 0-0 0 0 0-0 0-0.003 0-0.007 0-0.011v-0c0-0.002 0-0.003 0-0.005 0-0 0-0 0-0 0-0.004 0.001-0.007 0.001-0.011l0-0c0-0.004 0-0.007 0.001-0.011 0-0 0-0 0-0 0-0.002 0-0.003 0-0.005 0-0 0-0 0-0 0-0.004 0-0.007 0.001-0.011v-0c0-0.004 0-0.007 0-0.011 0-0 0 0 0-0 0-0.002 0-0.004 0-0.005v-0c0-0.003 0-0.007 0-0.010 0-0 0-0 0-0.001 0-0.003 0-0.007 0.001-0.010 0-0 0-0 0-0.001 0-0.003 0-0.007 0.001-0.010v-0c0-0.001 0-0.003 0-0.005 0-0 0-0 0-0 0-0.003 0-0.007 0-0.010l0-0.001c0-0.002 0-0.003 0-0.005 0-0 0 0 0-0 0.004-0.002 0.004-0.003 0.004-0.005 0-0 0-0 0-0.001 0-0.001 0-0.003 0-0.005 0-0 0-0 0-0.001 0-0.002 0-0.003 0-0.005v-0c0-0.001 0-0.003 0-0.004s0-0.001 0-0.001c0-0.003 0-0.007 0-0.010 0-0 0-0.001 0-0.001 0-0.002 0-0.003 0-0.005v-0.001c0-0.002 0-0.003 0-0.005v-0.001c0-0.001 0-0.003 0-0.004s0-0.001 0-0.001c0-0.002 0-0.003 0-0.005v-0c0-0.002 0-0.003 0-0.005 0-0 0-0.001 0-0.001 0-0.002 0-0.003 0-0.005 0-0 0 0 0-0 0-0.002 0-0.003 0-0.005s0-0.001 0-0.001c0-0.001 0-0.003 0-0.004s0-0.001 0-0.001c0-0.002 0-0.003 0-0.005 0-0 0-0 0-0.001s0-0.003 0-0.004c0-0.001 0-0.001 0-0.002s0-0.003 0-0.004v-0c0-0.002 0-0.003 0-0.005 0-0 0-0.001 0-0.001 0-0.001 0-0.003 0-0.004v-0.001c0-0.002 0-0.003 0-0.005 0-0 0-0 0-0.001s0-0.003 0-0.004c0-0 0-0.001 0-0.001 0-0.003 0-0.007 0-0.010 0-0 0-0.001 0-0.001 0-0.002 0-0.003 0-0.004 0-0 0-0.001 0-0.001 0-0.002 0-0.003 0-0.005 0-0 0-0.001 0-0.001 0-0.002 0-0.003 0-0.004 0-0 0-0.001 0-0.001 0-0.002 0-0.003 0-0.005v-0c0-0.002 0-0.003 0-0.005s0-0 0-0.001c0-0.002 0-0.003 0-0.005v-0c0-0.002 0-0.003 0-0.005 0-0 0-0.001 0-0.001 0-0.002 0-0.003 0-0.004 0-0 0-0 0-0.001 0-0.002 0-0.004 0-0.005 0-0 0-0 0-0.001 0-0.001 0-0.003 0-0.004 0-0 0-0.001 0-0.001 0-0.003 0-0.007 0-0.010 0-0 0-0 0-0.001 0-0.001 0-0.003 0-0.005v-0.001c0-0.002 0-0.003 0-0.005l0-0.001c0-0.001 0-0.003 0-0.004 0-0 0-0.001 0-0.001 0-0.003 0-0.007 0-0.010 0-0.001 0-0.001 0-0.001s0-0.003 0-0.004c0-0 0-0 0-0.001 0-0.002 0-0.003 0-0.005 0-0 0-0.001 0-0.001s0-0.003 0-0.004c0-0 0-0.001 0-0.001 0-0.002 0-0.003 0-0.005 0-0 0-0.001 0-0.001s0-0.003 0-0.004c0-0.001 0-0.001 0-0.001s0-0.003 0-0.004c0-0 0-0 0-0.001 0-0.001 0-0.003 0-0.005 0-0 0-0.001 0-0.001s0-0.002 0-0.004c0-0.001 0-0.001 0-0.001 0-0.002 0-0.003 0-0.005s0-0 0-0.001c0-0.001 0-0.003 0-0.004s0-0.001 0-0.001c0-0.003 0-0.007 0-0.010 0-0 0-0.001 0-0.001s0-0.003 0-0.004c0-0 0-0 0-0.001 0-0.002 0-0.003 0-0.005 0-0 0-0.001 0-0.001s0-0.003 0-0.004c0-0 0-0.001 0-0.001 0-0.001 0-0.003 0-0.005 0-0 0-0 0-0.001 0-0.002 0-0.003 0-0.005 0-0 0-0 0-0.001s0-0.003 0-0.005c0-0 0-0 0-0.001 0-0.002 0-0.003 0-0.005 0-0 0-0.001 0-0.001s0-0.003 0-0.004c0-0 0-0.001 0-0.001 0-0.002 0-0.003 0-0.005 0-0 0-0.001 0-0.001s0-0.003 0-0.004c0-0.001 0-0.001 0-0.001s0-0.003 0-0.005v-0c0-0.001 0-0.003 0-0.005 0-0 0-0.001 0-0.002 0-0.001 0-0.002 0-0.004s0-0.001 0-0.001c0-0.002 0-0.003 0-0.005 0-0 0-0.001 0-0.001 0-0.001 0-0.003 0-0.004 0-0 0-0.001 0-0.001 0-0.002 0-0.003 0-0.005v-0c0-0.002 0-0.003 0-0.005s0-0 0-0.001c0-0.001 0-0.003 0-0.004 0-0 0-0.001 0-0.001 0-0.002 0-0.003 0-0.005 0-0 0-0.001 0-0.001s0-0.002 0-0.004c0-0 0-0.001 0-0.002 0-0.002 0-0.003 0-0.005 0-0 0-0.001 0-0.001s0-0.003 0-0.004c0-0.001 0-0.001 0-0.001s0-0.003 0-0.004c0-0 0-0 0-0.001 0-0.002 0-0.003 0-0.005 0-0 0-0.001 0-0.001 0-0.001 0-0.002 0-0.004 0-0 0-0.001 0-0.001 0-0.002 0-0.003 0-0.005 0-0 0-0.001 0-0.001 0-0.001 0-0.003 0-0.004s0-0.001 0-0.001c0-0.002 0-0.003 0-0.005s0-0.004 0-0.005c0-0 0-0.001 0-0.001 0-0.002 0-0.003 0-0.005s0-0.001 0-0.001c0-0.001 0-0.003 0-0.004s0-0.001 0-0.002c0-0.002 0-0.003 0-0.005s0-0.002 0-0.003 0-0.002 0-0.003-0-0.003-0-0.004zM16.959 20.527h-1.638v-6.404h-2.184v-1.016c0.527-0.026 0.893-0.063 1.116-0.113 0.387-0.086 0.708-0.261 0.954-0.52 0.169-0.179 0.299-0.419 0.385-0.714 0.032-0.114 0.054-0.209 0.065-0.287h1.302v9.054z"></path>
</svg>
