<?xml version="1.0" encoding="utf-8"?>
<!-- Generated by IcoMoon.io -->
<!DOCTYPE svg PUBLIC "-//W3C//DTD SVG 1.1//EN" "http://www.w3.org/Graphics/SVG/1.1/DTD/svg11.dtd">
<svg version="1.1" xmlns="http://www.w3.org/2000/svg" xmlns:xlink="http://www.w3.org/1999/xlink" width="32" height="32" viewBox="0 0 32 32">
<path fill="#444444" d="M20.308 10.788v0.001c-0.004-0.007-0.010-0.013-0.014-0.019-0.264-0.365-0.523-0.715-0.779-1.049-0.339-0.564-0.517-1.249-0.102-2.24v0l1.422-3.407-2.236-1.019 0.231-1.010h-5.616l0.294 1.287-2.299 0.742 1.423 3.407c0.705 1.684-0.303 2.488-0.895 3.308-2.927 4.050-6.205 9.848-6.205 13.343 0 5.795 4.501 5.602 10.491 5.602 5.993 0 10.495 0.193 10.495-5.602-0-3.496-3.282-9.293-6.209-13.344zM14.612 7.943h2.865v1.809h-2.866v-1.809zM18.702 24.813c-0.374 0.129-0.734 0.192-1.079 0.192-0.347 0-0.634-0.022-0.861-0.067-0.229-0.046-0.439-0.101-0.629-0.166-0.2-0.072-0.401-0.136-0.603-0.19-0.2-0.055-0.45-0.082-0.75-0.082-0.247 0-0.505 0.033-0.775 0.101-0.268 0.068-0.533 0.203-0.799 0.404l-0.846-1.257c0.19-0.119 0.38-0.259 0.566-0.418s0.352-0.334 0.493-0.525c0.141-0.191 0.257-0.4 0.35-0.622 0.090-0.224 0.137-0.458 0.137-0.704 0-0.154-0.027-0.308-0.076-0.459-0.051-0.15-0.112-0.301-0.184-0.457h-1.355v-1.162h0.875c-0.137-0.174-0.274-0.428-0.409-0.767-0.137-0.336-0.206-0.71-0.206-1.121 0-0.364 0.076-0.71 0.227-1.038 0.149-0.328 0.372-0.619 0.662-0.869 0.292-0.251 0.658-0.449 1.093-0.595 0.437-0.145 0.942-0.218 1.519-0.218 1.046 0 1.862 0.291 2.447 0.875 0.582 0.583 0.875 1.431 0.875 2.543h-1.846c-0.008-0.137-0.026-0.309-0.055-0.512-0.027-0.207-0.088-0.404-0.184-0.596s-0.241-0.358-0.437-0.499c-0.196-0.142-0.468-0.212-0.813-0.212-0.411 0-0.736 0.115-0.979 0.342-0.239 0.228-0.362 0.533-0.362 0.915 0 0.11 0.006 0.216 0.014 0.316 0.010 0.099 0.031 0.215 0.063 0.349 0.031 0.132 0.086 0.285 0.164 0.458 0.075 0.174 0.184 0.382 0.321 0.629h1.817v1.162h-1.435c0.045 0.136 0.076 0.273 0.090 0.41 0.012 0.137 0.018 0.282 0.018 0.437 0 0.428-0.11 0.795-0.333 1.1-0.225 0.306-0.487 0.575-0.787 0.813l0.027 0.027c0.219-0.136 0.396-0.224 0.533-0.258 0.137-0.037 0.27-0.055 0.397-0.055 0.184 0 0.364 0.015 0.541 0.047s0.356 0.067 0.54 0.102c0.182 0.047 0.36 0.085 0.531 0.116 0.176 0.033 0.352 0.048 0.535 0.048 0.18 0 0.366-0.032 0.554-0.095 0.184-0.064 0.403-0.228 0.648-0.491l0.82 1.381c-0.329 0.317-0.678 0.541-1.052 0.668z"></path>
</svg>
