<?xml version="1.0" encoding="utf-8"?>
<!-- Generated by IcoMoon.io -->
<!DOCTYPE svg PUBLIC "-//W3C//DTD SVG 1.1//EN" "http://www.w3.org/Graphics/SVG/1.1/DTD/svg11.dtd">
<svg version="1.1" xmlns="http://www.w3.org/2000/svg" xmlns:xlink="http://www.w3.org/1999/xlink" width="32" height="32" viewBox="0 0 32 32">
<path fill="#444444" d="M14.686 8.66c-0.419 0-0.758 0.337-0.758 0.758v1.757c0 0.419 0.339 0.758 0.758 0.758 0.417 0 0.756-0.339 0.756-0.758v-1.757c0-0.42-0.339-0.758-0.756-0.758zM17.284 20.079c-0.417 0-0.756 0.339-0.756 0.759v1.758c0 0.418 0.339 0.756 0.756 0.756 0.419 0 0.758-0.338 0.758-0.756v-1.758c0-0.419-0.339-0.759-0.758-0.759zM14.686 20.079c-0.419 0-0.758 0.339-0.758 0.759v1.758c0 0.418 0.339 0.756 0.758 0.756 0.417 0 0.756-0.338 0.756-0.756v-1.758c0-0.419-0.339-0.759-0.756-0.759zM22.579 4.124h-13.189c-0.836 0-1.513 0.675-1.513 1.51v20.742c0 0.834 0.677 1.511 1.513 1.511h13.189c0.834 0 1.51-0.678 1.51-1.509v-20.744c-0-0.835-0.677-1.51-1.511-1.51zM15.984 25.689c-2.195 0-3.973-1.779-3.973-3.973s1.778-3.974 3.973-3.974c2.195 0 3.973 1.779 3.973 3.974s-1.778 3.973-3.973 3.973zM15.984 14.268c-2.195 0-3.973-1.778-3.973-3.973 0-2.193 1.778-3.973 3.973-3.973s3.973 1.78 3.973 3.973c0 2.195-1.778 3.973-3.973 3.973zM17.284 8.66c-0.417 0-0.756 0.337-0.756 0.758v1.757c0 0.419 0.339 0.756 0.756 0.756 0.419 0 0.758-0.337 0.758-0.756v-1.757c0-0.42-0.339-0.758-0.758-0.758z"></path>
</svg>
