<?xml version="1.0" encoding="utf-8"?>
<!-- Generated by IcoMoon.io -->
<!DOCTYPE svg PUBLIC "-//W3C//DTD SVG 1.1//EN" "http://www.w3.org/Graphics/SVG/1.1/DTD/svg11.dtd">
<svg version="1.1" xmlns="http://www.w3.org/2000/svg" xmlns:xlink="http://www.w3.org/1999/xlink" width="32" height="32" viewBox="0 0 32 32">
<path fill="#444444" d="M15.914 30.1c-3.475 0.002-6.97-1.332-9.621-3.985v0c-2.653-2.652-3.988-6.146-3.986-9.622v0c-0.002-3.475 1.332-6.97 3.986-9.621v0c0.808-0.807 2.117-0.807 2.924 0v0c0.808 0.807 0.807 2.117-0 2.924v0c-1.853 1.855-2.772 4.266-2.774 6.697v0c0.002 2.431 0.921 4.842 2.774 6.697v0c1.854 1.853 4.265 2.771 6.696 2.773v0c2.431-0.002 4.843-0.921 6.697-2.773v0c1.853-1.855 2.772-4.267 2.774-6.697v0c-0.002-2.431-0.921-4.842-2.774-6.697v0 0c-0.808-0.808-0.808-2.117 0-2.925v0c0.808-0.807 2.117-0.807 2.925 0v0c2.653 2.652 3.988 6.146 3.985 9.621v0c0.003 3.475-1.332 6.97-3.985 9.621v0c-2.649 2.651-6.14 3.986-9.613 3.985v0c-0.003 0-0.006 0-0.009 0v0z"></path>
<path fill="#444444" d="M13.846 16.494v-12.483c0-1.142 0.926-2.068 2.068-2.068v0c1.142 0 2.068 0.926 2.068 2.068v0 12.483c0 1.142-0.926 2.068-2.068 2.068v0c-1.142 0-2.068-0.926-2.068-2.068v0z"></path>
</svg>
