<?xml version="1.0" encoding="utf-8"?>
<!-- Generated by IcoMoon.io -->
<!DOCTYPE svg PUBLIC "-//W3C//DTD SVG 1.1//EN" "http://www.w3.org/Graphics/SVG/1.1/DTD/svg11.dtd">
<svg version="1.1" xmlns="http://www.w3.org/2000/svg" xmlns:xlink="http://www.w3.org/1999/xlink" width="32" height="32" viewBox="0 0 32 32">
<path fill="#444444" d="M6.895 21.517c0 1.049-0.851 1.9-1.9 1.9s-1.9-0.851-1.9-1.9c0-1.049 0.851-1.9 1.9-1.9s1.9 0.851 1.9 1.9z"></path>
<path fill="#444444" d="M12.332 19.617c-1.049 0-1.9 0.851-1.9 1.9s0.85 1.9 1.9 1.9c1.049 0 1.9-0.851 1.9-1.9s-0.851-1.9-1.9-1.9z"></path>
<path fill="#444444" d="M21.568 21.517c0 1.049-0.851 1.9-1.9 1.9s-1.9-0.851-1.9-1.9c0-1.049 0.851-1.9 1.9-1.9s1.9 0.851 1.9 1.9z"></path>
<path fill="#444444" d="M17.9 26.638c0 1.049-0.851 1.9-1.9 1.9s-1.9-0.851-1.9-1.9c0-1.049 0.851-1.9 1.9-1.9s1.9 0.851 1.9 1.9z"></path>
<path fill="#444444" d="M28.905 21.517c0 1.049-0.851 1.9-1.9 1.9s-1.9-0.851-1.9-1.9c0-1.049 0.851-1.9 1.9-1.9s1.9 0.851 1.9 1.9z"></path>
<path fill="#444444" d="M25.236 26.638c0 1.049-0.851 1.9-1.9 1.9s-1.9-0.851-1.9-1.9c0-1.049 0.851-1.9 1.9-1.9s1.9 0.851 1.9 1.9z"></path>
<path fill="#444444" d="M10.563 26.638c0 1.049-0.851 1.9-1.9 1.9s-1.9-0.851-1.9-1.9c0-1.049 0.851-1.9 1.9-1.9s1.9 0.851 1.9 1.9z"></path>
<path fill="#444444" d="M3.095 3.462v13.736h18.507c0.364-1.833 0.429-3.219 0.429-3.967l0 0.001v-0.001c0-0.197 0-0.197 0-0.197-0.001-0.023-0.006-0.044-0.012-0.066 0 0-4.382 2.12-4.598 2.12-0.136 0-0.272-0.040-0.392-0.123-0.31-0.216-0.385-0.643-0.168-0.953 0 0 4.482-2.376 4.631-2.459 0.16-0.085 0.334-0.143 0.554-0.146 0.016 0 0.041 0 0.063 0.002l1.24 0.077 1.204-0.075c0.017-0.001 0.038-0.002 0.064-0.002 0.22 0.002 0.393 0.061 0.552 0.145 0.149 0.082 0.366 0.18 0.417 0.459l0.393 4.503c0.014 0.226 0.073 0.475 0.021 0.681h2.903v-13.736h-25.81zM7.635 14.177h-1.48v-4.137h1.48v4.137zM11.067 14.177h-1.48v-6.941h1.48v6.941zM14.499 14.177h-1.48v-2.289h1.48v2.289zM23.349 10.62c-1.086 0-1.967-0.88-1.967-1.966s0.88-1.967 1.967-1.967 1.967 0.88 1.967 1.967c0 1.086-0.88 1.966-1.967 1.966z"></path>
</svg>
