<?xml version="1.0" encoding="utf-8"?>
<!-- Generated by IcoMoon.io -->
<!DOCTYPE svg PUBLIC "-//W3C//DTD SVG 1.1//EN" "http://www.w3.org/Graphics/SVG/1.1/DTD/svg11.dtd">
<svg version="1.1" xmlns="http://www.w3.org/2000/svg" xmlns:xlink="http://www.w3.org/1999/xlink" width="32" height="32" viewBox="0 0 32 32">
<path fill="#444444" d="M17.509 17.297c-0.225-0.178-0.605-0.34-1.142-0.486v2.625c0.163-0.019 0.335-0.057 0.513-0.117s0.337-0.143 0.478-0.252c0.141-0.11 0.258-0.244 0.347-0.405 0.094-0.158 0.137-0.347 0.137-0.566 0-0.356-0.11-0.623-0.333-0.8zM27.743 9.944c-0.615-0.597-1.116-1.46-1.116-1.918s-0.703-0.835-1.559-0.835h-18.18c-0.856 0-1.557 0.376-1.557 0.835s-0.503 1.321-1.118 1.918c0 0-2.259 2.199-2.259 6.026 0 3.828 2.259 6.026 2.259 6.026 0.615 0.597 1.118 1.461 1.118 1.92 0 0.457 0.701 0.832 1.557 0.832h18.18c0.856 0 1.559-0.375 1.559-0.832 0-0.459 0.501-1.324 1.116-1.92 0 0 2.261-2.198 2.261-6.026 0-3.827-2.26-6.026-2.26-6.026zM19.635 18.937c-0.1 0.306-0.28 0.604-0.539 0.895-0.262 0.292-0.609 0.552-1.047 0.779-0.437 0.229-0.997 0.365-1.682 0.411v1.162h-0.807v-1.162c-1.020-0.074-1.817-0.386-2.391-0.942s-0.905-1.374-0.997-2.449h1.927c-0.010 0.519 0.127 0.93 0.409 1.23 0.284 0.3 0.634 0.493 1.052 0.574v-2.857c-0.043-0.018-0.106-0.039-0.184-0.061s-0.162-0.043-0.254-0.061c-0.337-0.091-0.668-0.199-0.995-0.321-0.331-0.124-0.624-0.287-0.883-0.493-0.262-0.205-0.468-0.46-0.621-0.765-0.158-0.306-0.233-0.686-0.233-1.141 0-0.464 0.088-0.875 0.266-1.23 0.18-0.355 0.413-0.654 0.705-0.894 0.292-0.242 0.627-0.43 1.012-0.561 0.382-0.133 0.779-0.213 1.187-0.24v-1.053h0.807v1.053c0.411 0.046 0.795 0.134 1.155 0.267s0.677 0.313 0.95 0.548c0.276 0.231 0.499 0.521 0.671 0.868 0.174 0.346 0.274 0.755 0.3 1.23h-1.942c-0.008-0.365-0.12-0.675-0.339-0.93-0.221-0.255-0.485-0.383-0.795-0.383v2.42c0.11 0.027 0.221 0.055 0.335 0.082 0.114 0.028 0.235 0.059 0.362 0.096 0.675 0.183 1.194 0.409 1.56 0.677 0.364 0.269 0.632 0.55 0.805 0.841s0.276 0.584 0.307 0.875c0.035 0.292 0.049 0.551 0.049 0.78 0 0.2-0.049 0.454-0.149 0.758zM14.713 12.691c-0.118 0.095-0.213 0.214-0.282 0.355-0.067 0.142-0.1 0.309-0.1 0.499 0 0.301 0.094 0.535 0.286 0.697 0.192 0.166 0.505 0.298 0.942 0.398v-2.229c-0.153 0-0.304 0.022-0.449 0.069-0.145 0.045-0.278 0.116-0.396 0.212z"></path>
</svg>
