<?xml version="1.0" encoding="utf-8"?>
<!-- Generated by IcoMoon.io -->
<!DOCTYPE svg PUBLIC "-//W3C//DTD SVG 1.1//EN" "http://www.w3.org/Graphics/SVG/1.1/DTD/svg11.dtd">
<svg version="1.1" xmlns="http://www.w3.org/2000/svg" xmlns:xlink="http://www.w3.org/1999/xlink" width="32" height="32" viewBox="0 0 32 32">
<path fill="#444444" d="M27.798 9.971c-0.613-0.598-1.117-1.462-1.117-1.92s-0.702-0.832-1.558-0.832h-18.179c-0.857 0-1.559 0.374-1.559 0.832s-0.503 1.322-1.116 1.92c0 0-2.262 2.198-2.262 6.025s2.262 6.027 2.262 6.027c0.613 0.596 1.116 1.46 1.116 1.918s0.701 0.833 1.559 0.833h18.179c0.856 0 1.558-0.375 1.558-0.833s0.504-1.322 1.117-1.918c0 0 2.261-2.2 2.261-6.027s-2.261-6.025-2.261-6.025zM19.213 15.368v1.298h-1.956l-0.204 0.396v0.63h2.16v1.3h-2.16v1.885h-2.079v-1.885h-2.146v-1.3h2.146v-0.63l-0.191-0.396h-1.955v-1.298h1.299l-2.092-4.251h2.214l1.805 4.251 1.764-4.251h2.213l-2.117 4.251h1.299z"></path>
</svg>
