<?xml version="1.0" encoding="utf-8"?>
<!-- Generated by IcoMoon.io -->
<!DOCTYPE svg PUBLIC "-//W3C//DTD SVG 1.1//EN" "http://www.w3.org/Graphics/SVG/1.1/DTD/svg11.dtd">
<svg version="1.1" xmlns="http://www.w3.org/2000/svg" xmlns:xlink="http://www.w3.org/1999/xlink" width="32" height="32" viewBox="0 0 32 32">
<path fill="#444444" d="M27.773 9.931c-0.615-0.599-1.118-1.461-1.118-1.919s-0.701-0.834-1.558-0.834h-18.179c-0.858 0-1.558 0.376-1.558 0.834s-0.504 1.32-1.118 1.919c0 0-2.259 2.199-2.259 6.025 0 3.828 2.259 6.027 2.259 6.027 0.614 0.597 1.118 1.462 1.118 1.919s0.701 0.834 1.558 0.834h18.179c0.857 0 1.558-0.376 1.558-0.834s0.503-1.323 1.118-1.919c0 0 2.259-2.199 2.259-6.027 0-3.826-2.259-6.025-2.259-6.025zM18.686 20.871c-0.373 0.127-0.734 0.192-1.079 0.192-0.347 0-0.634-0.022-0.862-0.072-0.228-0.045-0.438-0.098-0.629-0.163-0.201-0.074-0.4-0.135-0.602-0.19-0.201-0.053-0.452-0.084-0.752-0.084-0.246 0-0.504 0.035-0.771 0.104-0.27 0.069-0.537 0.202-0.801 0.405l-0.847-1.259c0.191-0.118 0.381-0.257 0.568-0.419 0.186-0.157 0.351-0.331 0.492-0.526 0.141-0.192 0.257-0.398 0.348-0.621s0.137-0.458 0.137-0.703c0-0.155-0.024-0.309-0.075-0.458-0.051-0.151-0.112-0.305-0.184-0.46h-1.355v-1.161h0.875c-0.135-0.174-0.272-0.427-0.409-0.767-0.138-0.337-0.206-0.709-0.206-1.12 0-0.364 0.076-0.711 0.227-1.040 0.15-0.327 0.372-0.617 0.662-0.869 0.291-0.249 0.656-0.446 1.093-0.592 0.437-0.145 0.944-0.219 1.518-0.219 1.048 0 1.864 0.29 2.447 0.875s0.875 1.431 0.875 2.543h-1.846c-0.010-0.137-0.027-0.306-0.055-0.513-0.027-0.202-0.088-0.405-0.184-0.593-0.096-0.194-0.241-0.36-0.439-0.501-0.195-0.139-0.466-0.213-0.812-0.213-0.411 0-0.736 0.114-0.977 0.344-0.243 0.227-0.363 0.531-0.363 0.916 0 0.108 0.005 0.215 0.013 0.315s0.029 0.217 0.061 0.347c0.033 0.133 0.086 0.286 0.165 0.458 0.077 0.174 0.185 0.382 0.321 0.63h1.818v1.161h-1.435c0.045 0.139 0.076 0.276 0.088 0.413 0.014 0.135 0.021 0.282 0.021 0.435 0 0.427-0.111 0.795-0.334 1.102-0.224 0.305-0.486 0.576-0.787 0.813l0.027 0.025c0.22-0.133 0.398-0.221 0.534-0.257s0.269-0.055 0.396-0.055c0.183 0 0.363 0.016 0.54 0.049 0.178 0.031 0.36 0.064 0.541 0.1 0.182 0.049 0.36 0.088 0.532 0.119s0.352 0.045 0.534 0.045c0.182 0 0.366-0.031 0.553-0.092 0.186-0.066 0.404-0.229 0.65-0.495l0.82 1.38c-0.327 0.321-0.679 0.544-1.053 0.672z"></path>
</svg>
