<?xml version="1.0" encoding="utf-8"?>
<!-- Generated by IcoMoon.io -->
<!DOCTYPE svg PUBLIC "-//W3C//DTD SVG 1.1//EN" "http://www.w3.org/Graphics/SVG/1.1/DTD/svg11.dtd">
<svg version="1.1" xmlns="http://www.w3.org/2000/svg" xmlns:xlink="http://www.w3.org/1999/xlink" width="32" height="32" viewBox="0 0 32 32">
<path fill="#444444" d="M27.733 9.966c-0.615-0.597-1.117-1.461-1.117-1.919s-0.7-0.834-1.557-0.834h-18.18c-0.856 0-1.558 0.376-1.558 0.834s-0.502 1.323-1.117 1.919c0 0-2.259 2.201-2.259 6.025 0 3.828 2.259 6.027 2.259 6.027 0.615 0.597 1.117 1.461 1.117 1.921 0 0.456 0.702 0.83 1.558 0.83h18.18c0.857 0 1.557-0.374 1.557-0.83 0-0.46 0.502-1.325 1.117-1.921 0 0 2.261-2.199 2.261-6.027-0-3.824-2.261-6.025-2.261-6.025zM18.6 14.6l-0.424 0.981h-3.061l-0.014 0.574h2.912l-0.424 0.985h-2.378c0.292 1.443 0.966 2.162 2.022 2.162 0.685 0 1.387-0.288 2.106-0.863l-0.013 2.064c-0.612 0.354-1.313 0.533-2.106 0.533-1.147 0-2.073-0.368-2.775-1.108-0.638-0.666-1.053-1.596-1.244-2.79h-1.053l0.424-0.985h0.546v-0.354c0-0.129 0.006-0.202 0.014-0.221h-0.997l0.424-0.981h0.696c0.219-1.104 0.671-1.972 1.354-2.612 0.72-0.693 1.623-1.038 2.706-1.038 0.767 0 1.596 0.227 2.488 0.685l-0.833 1.706c-0.638-0.409-1.236-0.615-1.791-0.615-0.957 0-1.594 0.623-1.913 1.874h3.334z"></path>
</svg>
