<?xml version="1.0" encoding="utf-8"?>
<!-- Generated by IcoMoon.io -->
<!DOCTYPE svg PUBLIC "-//W3C//DTD SVG 1.1//EN" "http://www.w3.org/Graphics/SVG/1.1/DTD/svg11.dtd">
<svg version="1.1" xmlns="http://www.w3.org/2000/svg" xmlns:xlink="http://www.w3.org/1999/xlink" width="32" height="32" viewBox="0 0 32 32">
<path fill="#444444" d="M8.239 2.622h15.339v4.404h-15.339v-4.404z"></path>
<path fill="#444444" d="M28.233 8.612h-24.648c-0.734 0-1.33 0.595-1.33 1.33v9.781h4.005v-5.938h19.297v5.938h4.005v-9.781c0-0.734-0.595-1.33-1.33-1.33zM26.674 11.872c-0.587 0-1.063-0.476-1.063-1.064s0.476-1.063 1.063-1.063c0.587 0 1.064 0.476 1.064 1.063s-0.476 1.064-1.064 1.064z"></path>
<path fill="#444444" d="M22.445 16.027v11.728h-6.419c-2.325 0-1.205-5.511-1.205-5.511s-5.375 1.306-5.444-1.158v-5.059h-1.565v7.127l6.166 6.166h10.032v-13.293h-1.565z"></path>
</svg>
