<?xml version="1.0" encoding="utf-8"?>
<!-- Generated by IcoMoon.io -->
<!DOCTYPE svg PUBLIC "-//W3C//DTD SVG 1.1//EN" "http://www.w3.org/Graphics/SVG/1.1/DTD/svg11.dtd">
<svg version="1.1" xmlns="http://www.w3.org/2000/svg" xmlns:xlink="http://www.w3.org/1999/xlink" width="32" height="32" viewBox="0 0 32 32">
<path fill="#444444" d="M28.276 7.891h-4.224v-4.602h-16.198v4.602h-4.227c-0.734 0-1.329 0.595-1.329 1.329v11.289h5.556v1.923l6.166 6.166h10.032v-8.026h5.553v-11.353c-0-0.734-0.596-1.329-1.33-1.329zM9.42 4.854h13.068v3.037h-13.068v-3.037zM25.601 18.4h-1.548v-3.095h-1.565v11.728h-6.419c-2.325 0-1.205-5.511-1.205-5.511s-5.375 1.306-5.444-1.158v-5.059h-1.565v3.031h-1.551v-5.272h19.297v5.336zM26.718 11.151c-0.587 0-1.064-0.476-1.064-1.063s0.476-1.063 1.064-1.063c0.587 0 1.063 0.476 1.063 1.063s-0.476 1.063-1.063 1.063zM20.634 15.521h-8.996v1.565h8.996v-1.565zM11.639 20.156h8.995v-1.565h-8.995v1.565z"></path>
</svg>
