<?xml version="1.0" encoding="utf-8"?>
<!-- Generated by IcoMoon.io -->
<!DOCTYPE svg PUBLIC "-//W3C//DTD SVG 1.1//EN" "http://www.w3.org/Graphics/SVG/1.1/DTD/svg11.dtd">
<svg version="1.1" xmlns="http://www.w3.org/2000/svg" xmlns:xlink="http://www.w3.org/1999/xlink" width="32" height="32" viewBox="0 0 32 32">
<path fill="#444444" d="M28.246 10.674c0-0.694-0.563-1.257-1.257-1.257h-21.978c-0.694 0-1.257 0.563-1.257 1.257v8.511h24.493v-8.511zM12.658 16.513h-6.487v-1.48h6.487v1.48zM12.658 13.419h-6.487v-1.48h6.487v1.48zM18.535 18.122c-2.148 0-3.896-1.748-3.896-3.896s1.748-3.896 3.896-3.896 3.896 1.748 3.896 3.896c0 2.148-1.748 3.896-3.896 3.896zM25.16 13.048c-0.617 0-1.118-0.501-1.118-1.118s0.501-1.118 1.118-1.118c0.617 0 1.118 0.501 1.118 1.118s-0.501 1.118-1.118 1.118z"></path>
<path fill="#444444" d="M4.91 20.665h3.911v1.918h-3.911v-1.918z"></path>
<path fill="#444444" d="M23.179 20.665h3.911v1.918h-3.911v-1.918z"></path>
<path fill="#444444" d="M18.535 11.677c-1.407 0-2.548 1.141-2.548 2.549s1.141 2.548 2.548 2.548c1.408 0 2.549-1.141 2.549-2.548s-1.141-2.549-2.549-2.549z"></path>
</svg>
