<?xml version="1.0" encoding="utf-8"?>
<!-- Generated by IcoMoon.io -->
<!DOCTYPE svg PUBLIC "-//W3C//DTD SVG 1.1//EN" "http://www.w3.org/Graphics/SVG/1.1/DTD/svg11.dtd">
<svg version="1.1" xmlns="http://www.w3.org/2000/svg" xmlns:xlink="http://www.w3.org/1999/xlink" width="32" height="32" viewBox="0 0 32 32">
<path fill="#444444" d="M9.495 20.004l-4.955 7.471 7.452-4.992c-0.46-0.376-0.913-0.785-1.352-1.224-0.407-0.407-0.79-0.827-1.146-1.256zM24.355 7.671c-2.158-2.157-4.689-3.124-5.654-2.159-0.295 0.295-0.409 0.738-0.364 1.27-0.020 0.436-0.074 0.837-0.159 1.205l-3.722 3.722c-1.142 0.325-2.241 0.346-2.831 0.325-1.247-0.39-2.301-0.329-2.911 0.281-1.352 1.352-0.015 4.882 2.986 7.883s6.531 4.339 7.883 2.986c0.515-0.515 0.639-1.346 0.431-2.343l0.012 0.012c0 0-0.213-1.716 0.316-3.468l3.506-3.507c0.425-0.106 0.895-0.172 1.416-0.188 0.523 0.040 0.957-0.074 1.249-0.365 0.965-0.965-0.001-3.497-2.159-5.654z"></path>
</svg>
