<?xml version="1.0" encoding="utf-8"?>
<!-- Generated by IcoMoon.io -->
<!DOCTYPE svg PUBLIC "-//W3C//DTD SVG 1.1//EN" "http://www.w3.org/Graphics/SVG/1.1/DTD/svg11.dtd">
<svg version="1.1" xmlns="http://www.w3.org/2000/svg" xmlns:xlink="http://www.w3.org/1999/xlink" width="32" height="32" viewBox="0 0 32 32">
<path fill="#444444" d="M11.479 2.503h-8.946v8.947h8.946v-8.947zM10.277 10.249h-6.543v-6.543h6.543v6.543zM15.35 2.503h-2.534v2.538h1.337v1.335h1.198v-3.873zM19.225 2.503h-2.538v1.203h1.202v2.67h1.337v-3.873zM20.557 2.503v8.947h8.948v-8.947h-8.948zM28.303 10.249h-6.543v-6.543h6.543v6.543zM8.942 5.041h-3.873v3.872h3.873v-3.872zM26.967 5.041h-3.871v3.872h3.871v-3.872zM14.152 6.376h-1.337v1.202h1.337v-1.202zM17.888 8.913v-2.537h-1.202v1.202h-2.534v1.336h3.736zM16.686 15.322v-2.537h1.202v-1.336h-1.202v-1.201h-1.337v1.201h-1.198v-1.201h-1.337v2.537h1.337v1.335h-1.337v-1.335h-3.873v1.335h2.537v1.202h1.337v1.334h1.337v-1.334h2.534zM19.225 10.249h-1.337v1.201h1.337v-1.201zM2.532 12.785v2.537h1.202v-2.537h-1.202zM5.069 12.785v1.335h2.538v-1.335h-2.538zM19.225 14.12v-1.335h-1.337v1.335h1.337zM20.557 12.785v1.335h1.204v-1.335h-1.204zM25.632 14.12v-1.335h-1.202v1.335h-2.669v3.738h-1.204v1.337h2.538v1.335h-2.538v1.201h1.204v2.671h-1.204v2.537h-1.332v-3.871h-1.337v5.205h2.669v1.202h3.873v-1.202h-1.335v-1.334h-1.335v-1.335h1.335v-3.873h1.335v-3.873h1.202v-1.202h-2.537v-1.334h3.871v-1.202h-1.335zM26.967 14.12h1.337v1.202h-1.337v2.536h1.337v-1.202h1.202v-3.871h-2.538v1.335zM8.942 14.12h-1.335v1.202h-3.873v1.334h1.335v1.202h-1.335v1.337h2.671v-1.337h1.202v-1.202h3.871v-1.334h-2.537v-1.202zM20.557 15.322h-1.332v1.334h1.332v-1.334zM2.532 16.656v1.202h1.202v-1.202h-1.202zM14.152 16.656v1.202h1.198v-1.202h-1.198zM19.225 19.195v-2.538h-2.538v1.202h1.202v1.337h-1.202v2.536h1.202v-1.201h2.669v-1.335h-1.332zM10.277 19.195h1.202v-1.337h-1.202v1.337zM15.35 17.858v1.337h1.337v-1.337h-1.337zM29.505 20.529v-2.671h-1.202v2.671h1.202zM12.815 23.068h1.337v-2.538h1.198v-1.335h-2.534v3.873zM25.632 20.529h1.335v-1.335h-1.335v1.335zM2.532 29.475h8.946v-8.945h-8.946v8.945zM3.734 21.731h6.543v6.542h-6.543v-6.542zM20.557 21.731h-1.332v1.337h1.332v-1.337zM25.632 23.068v1.334h1.335v1.202h1.337v-2.536h-1.337v-1.337h-2.536v1.337h1.202zM29.505 21.731h-1.202v1.337h1.202v-1.337zM5.069 26.939h3.873v-3.871h-3.873v3.871zM15.35 24.402h-2.534v2.537h1.337v-1.335h1.198v1.335h1.337v-3.871h-1.337v1.334zM24.43 25.604h1.202v-1.202h-1.202v1.202zM28.303 28.273h1.202v-1.334h-1.202v1.334zM12.815 29.475h3.871v-1.202h-3.871v1.202zM25.632 29.475h1.335v-1.202h-1.335v1.202z"></path>
</svg>
