<?xml version="1.0" encoding="utf-8"?>
<!-- Generated by IcoMoon.io -->
<!DOCTYPE svg PUBLIC "-//W3C//DTD SVG 1.1//EN" "http://www.w3.org/Graphics/SVG/1.1/DTD/svg11.dtd">
<svg version="1.1" xmlns="http://www.w3.org/2000/svg" xmlns:xlink="http://www.w3.org/1999/xlink" width="32" height="32" viewBox="0 0 32 32">
<path fill="#444444" d="M10.605 7.723c-1.029 0.564-1.917 1.275-2.656 2.134-0.744 0.858-1.316 1.854-1.725 2.98-0.375 1.030-0.56 2.128-0.56 3.286 0 0.111 0.001 0.221 0.005 0.333v8.946h8.555v-9.24h-3.759c0.028-1.275 0.287-2.346 0.768-3.222 0.497-0.904 1.425-1.603 2.836-2.088l0.155-0.053v-4.19l-0.258 0.034c-1.207 0.155-2.328 0.516-3.36 1.080zM26.213 10.852l0.155-0.053v-4.19l-0.261 0.034c-1.205 0.155-2.327 0.516-3.359 1.080-1.030 0.564-1.917 1.275-2.657 2.134-0.742 0.858-1.317 1.854-1.724 2.98-0.375 1.030-0.561 2.128-0.561 3.284 0 0.113 0.002 0.223 0.005 0.335v8.946h8.556v-9.24h-3.761c0.027-1.275 0.287-2.346 0.769-3.222 0.496-0.904 1.426-1.604 2.837-2.088z"></path>
</svg>
