<?xml version="1.0" encoding="utf-8"?>
<!-- Generated by IcoMoon.io -->
<!DOCTYPE svg PUBLIC "-//W3C//DTD SVG 1.1//EN" "http://www.w3.org/Graphics/SVG/1.1/DTD/svg11.dtd">
<svg version="1.1" xmlns="http://www.w3.org/2000/svg" xmlns:xlink="http://www.w3.org/1999/xlink" width="32" height="32" viewBox="0 0 32 32">
<path fill="#444444" d="M25.755 13.565h-2.859l-13.069-6.363c-0.145-0.827-0.864-1.456-1.733-1.456-0.973 0-1.762 0.788-1.762 1.761s0.789 1.763 1.762 1.763c0.366 0 0.703-0.111 0.983-0.302l9.443 4.597h-12.224c-0.427 0-0.773 0.345-0.773 0.77v11.158c0 0.426 0.346 0.771 0.773 0.771h19.46c0.427 0 0.77-0.345 0.77-0.771v-11.158c0-0.425-0.343-0.77-0.77-0.77zM12.339 24.045c-2.267 0-4.106-1.838-4.106-4.105s1.84-4.104 4.106-4.104c2.267 0 4.104 1.837 4.104 4.104s-1.838 4.105-4.104 4.105zM21.672 23.189c-0.648 0-1.173-0.524-1.173-1.172s0.525-1.173 1.173-1.173c0.648 0 1.173 0.525 1.173 1.173s-0.525 1.172-1.173 1.172zM21.672 19.117c-0.648 0-1.173-0.524-1.173-1.172s0.525-1.172 1.173-1.172c0.648 0 1.173 0.525 1.173 1.172s-0.525 1.172-1.173 1.172z"></path>
</svg>
