<?xml version="1.0" encoding="utf-8"?>
<!-- Generated by IcoMoon.io -->
<!DOCTYPE svg PUBLIC "-//W3C//DTD SVG 1.1//EN" "http://www.w3.org/Graphics/SVG/1.1/DTD/svg11.dtd">
<svg version="1.1" xmlns="http://www.w3.org/2000/svg" xmlns:xlink="http://www.w3.org/1999/xlink" width="32" height="32" viewBox="0 0 32 32">
<path fill="#444444" d="M15.943 13.931h-0.004c-0.836 0.001-1.677-0.198-2.441-0.599l-6.373 16.541h3.019l0.513-1.331 5.233-2.109 5.292 2.095 0.518 1.345h3.018l-6.372-16.538c-0.75 0.395-1.576 0.596-2.403 0.596zM15.922 14.878l0.916 2.378h-1.832l0.916-2.378zM14.403 18.821h3.038l0.402 1.043-1.87 1.080-1.934-1.176 0.365-0.946zM13.466 21.251l0.961 0.584-1.526 0.881 0.565-1.465zM20.416 26.542l-4.241-1.679-0.581 0.002-4.168 1.68 0.579-1.504 3.946-2.278 3.928 2.388 0.536 1.391zM18.959 22.759l-1.461-0.889 0.915-0.529 0.546 1.417zM8.876 12.872c0.3 0 0.601-0.114 0.83-0.343 0.458-0.459 0.458-1.202 0-1.66h-0c-0.594-0.595-0.886-1.363-0.887-2.143 0.001-0.779 0.293-1.548 0.887-2.142 0.458-0.458 0.458-1.202 0-1.66s-1.201-0.459-1.66-0c-1.048 1.046-1.576 2.43-1.575 3.802-0.001 1.372 0.527 2.755 1.575 3.803 0.229 0.229 0.529 0.343 0.83 0.343zM22.164 4.925c-0.459 0.458-0.459 1.202 0 1.66 0.594 0.595 0.886 1.363 0.887 2.142-0.001 0.779-0.293 1.548-0.887 2.142-0.459 0.459-0.459 1.202 0 1.66 0.229 0.229 0.53 0.344 0.83 0.344s0.601-0.114 0.83-0.344c1.047-1.047 1.576-2.43 1.575-3.802 0.001-1.372-0.527-2.755-1.575-3.802-0.458-0.458-1.202-0.458-1.66 0zM5.948 13.211c-1.241-1.242-1.856-2.858-1.857-4.485 0.001-1.627 0.617-3.243 1.857-4.484 0.458-0.458 0.458-1.201 0-1.66s-1.201-0.458-1.66 0c-1.694 1.693-2.546 3.924-2.545 6.144-0.001 2.22 0.851 4.45 2.545 6.144 0.229 0.229 0.53 0.344 0.83 0.344s0.601-0.115 0.83-0.344c0.458-0.458 0.458-1.201 0-1.66h-0zM27.581 2.583c-0.458-0.458-1.202-0.458-1.66 0s-0.458 1.201 0 1.66c1.24 1.241 1.856 2.857 1.857 4.484-0.001 1.627-0.617 3.243-1.858 4.484-0.458 0.458-0.458 1.202 0 1.66 0.229 0.229 0.529 0.344 0.83 0.344s0.601-0.114 0.83-0.344c1.694-1.694 2.546-3.924 2.545-6.144 0.002-2.22-0.85-4.45-2.545-6.144zM15.922 12.215c1.927 0 3.488-1.562 3.488-3.488s-1.562-3.488-3.488-3.488c-1.926 0-3.488 1.562-3.488 3.488s1.562 3.488 3.488 3.488z"></path>
</svg>
