<?xml version="1.0" encoding="utf-8"?>
<!-- Generated by IcoMoon.io -->
<!DOCTYPE svg PUBLIC "-//W3C//DTD SVG 1.1//EN" "http://www.w3.org/Graphics/SVG/1.1/DTD/svg11.dtd">
<svg version="1.1" xmlns="http://www.w3.org/2000/svg" xmlns:xlink="http://www.w3.org/1999/xlink" width="32" height="32" viewBox="0 0 32 32">
<path fill="#444444" d="M13.696 22.752c0 1.181 0.957 2.138 2.136 2.138 1.181 0 2.138-0.957 2.138-2.138s-2.138-3.695-2.138-3.695-2.136 2.515-2.136 3.695zM6.894 25.741c0 1.18 0.957 2.137 2.138 2.137 1.179 0 2.136-0.957 2.136-2.137s-2.136-3.696-2.136-3.696-2.138 2.516-2.138 3.696zM20.498 25.741c0 1.18 0.957 2.137 2.136 2.137 1.181 0 2.138-0.957 2.138-2.137s-2.138-3.696-2.138-3.696-2.136 2.516-2.136 3.696zM23.38 10.155c0.102-0.389 0.157-0.799 0.157-1.22 0-2.66-2.158-4.817-4.817-4.817-2.001 0-3.716 1.22-4.445 2.954-0.625-0.735-1.555-1.201-2.596-1.201-1.884 0-3.411 1.526-3.411 3.409 0 0.324 0.045 0.637 0.131 0.934-1.537 0.564-2.635 2.041-2.635 3.775 0 2.219 1.797 4.018 4.018 4.018h12.388c2.224 0 4.020-1.8 4.020-4.018-0-1.8-1.179-3.32-2.81-3.834z"></path>
</svg>
