<?xml version="1.0" encoding="utf-8"?>
<!-- Generated by IcoMoon.io -->
<!DOCTYPE svg PUBLIC "-//W3C//DTD SVG 1.1//EN" "http://www.w3.org/Graphics/SVG/1.1/DTD/svg11.dtd">
<svg version="1.1" xmlns="http://www.w3.org/2000/svg" xmlns:xlink="http://www.w3.org/1999/xlink" width="32" height="32" viewBox="0 0 32 32">
<path fill="#444444" d="M29.979 12.755c-0.073-0.225-0.284-0.379-0.521-0.379h-9.959l-3.082-9.467c-0.074-0.225-0.284-0.378-0.521-0.378s-0.447 0.152-0.521 0.377l-3.1 9.468h-9.941c-0.237 0-0.448 0.153-0.521 0.378s0.007 0.473 0.198 0.613l8.045 5.86-3.1 9.52c-0.073 0.225 0.007 0.473 0.199 0.613s0.452 0.139 0.644 0l8.096-5.878 8.080 5.878c0.096 0.070 0.209 0.105 0.322 0.105s0.226-0.035 0.322-0.105c0.193-0.14 0.272-0.387 0.199-0.613l-3.1-9.52 8.062-5.86c0.191-0.139 0.272-0.387 0.199-0.613z"></path>
</svg>
