<?xml version="1.0" encoding="utf-8"?>
<!-- Generated by IcoMoon.io -->
<!DOCTYPE svg PUBLIC "-//W3C//DTD SVG 1.1//EN" "http://www.w3.org/Graphics/SVG/1.1/DTD/svg11.dtd">
<svg version="1.1" xmlns="http://www.w3.org/2000/svg" xmlns:xlink="http://www.w3.org/1999/xlink" width="32" height="32" viewBox="0 0 32 32">
<path fill="#444444" d="M2.638 3.965l25.313 25.312 1.36-1.36-25.313-25.312-1.36 1.36zM29.535 6.038l-3.673-3.672-3.124 3.124 3.673 3.673 3.123-3.124zM19.589 15.983l5.162-5.162-1.659-1.658-5.162 5.162 1.659 1.659zM11.16 21.096l-0.995-0.996 3.198-3.198-1.018-1.018-6.947 6.947 0.012 0.012-2.995 6.673 6.645-3.024 0.011 0.011 6.947-6.947-1.659-1.659-3.198 3.198zM8.706 24.786l-2.898 1.319 1.306-2.911 1.462-1.462 0.21 1.394 1.381 0.198-1.462 1.462zM22.097 8.166l-1.018-1.018-5.162 5.162 1.018 1.017 5.162-5.162z"></path>
</svg>
