<?xml version="1.0" encoding="utf-8"?>
<!-- Generated by IcoMoon.io -->
<!DOCTYPE svg PUBLIC "-//W3C//DTD SVG 1.1//EN" "http://www.w3.org/Graphics/SVG/1.1/DTD/svg11.dtd">
<svg version="1.1" xmlns="http://www.w3.org/2000/svg" xmlns:xlink="http://www.w3.org/1999/xlink" width="32" height="32" viewBox="0 0 32 32">
<path fill="#444444" d="M16 9.158c1.645 0 2.979-1.334 2.979-2.979s-1.334-2.979-2.979-2.979-2.979 1.334-2.979 2.979c0 1.645 1.334 2.979 2.979 2.979zM3.095 16.993v6.166h2.624l1.028 5.641h18.507l1.028-5.641h2.624v-6.166h-25.809zM13.985 12.267c0.010 0.032 0.018 0.065 0.019 0.099 0 0 0 0 0 0.298v0.001l-0-0.001c0 0.648-0.033 1.614-0.163 2.839h4.319c-0.13-1.226-0.163-2.192-0.163-2.839 0-0.3 0-0.3 0-0.3 0-0.016 0.004-0.032 0.007-0.048l2.259 3.187h2.539l-3.424-4.832c-0.181-0.263-0.393-0.423-0.618-0.548-0.242-0.127-0.504-0.216-0.837-0.219-0.039 0-0.071 0.002-0.097 0.003l-1.824 0.114-1.878-0.117c-0.034-0.003-0.071-0.003-0.096-0.003-0.334 0.004-0.597 0.092-0.839 0.221-0.225 0.126-0.438 0.288-0.618 0.553l-0-0-3.379 4.828h2.528l2.266-3.237z"></path>
</svg>
