<?xml version="1.0" encoding="utf-8"?>
<!-- Generated by IcoMoon.io -->
<!DOCTYPE svg PUBLIC "-//W3C//DTD SVG 1.1//EN" "http://www.w3.org/Graphics/SVG/1.1/DTD/svg11.dtd">
<svg version="1.1" xmlns="http://www.w3.org/2000/svg" xmlns:xlink="http://www.w3.org/1999/xlink" width="32" height="32" viewBox="0 0 32 32">
<path fill="#444444" d="M6.751 2.43v27.132h18.511v-27.132h-18.511zM23.347 27.648h-14.68v-23.301h14.68v23.301zM20.486 20.388h-8.883v1.558h8.883v-1.558zM20.486 23.951h-8.883v1.557h8.883v-1.557zM14.417 15.149c-0.282-0.302-0.419-0.711-0.41-1.232h-1.928c0.091 1.077 0.425 1.893 0.998 2.448 0.575 0.556 1.371 0.869 2.392 0.942v1.163h0.807v-1.163c0.683-0.046 1.244-0.183 1.681-0.409 0.437-0.229 0.786-0.488 1.047-0.78 0.258-0.29 0.439-0.59 0.538-0.895 0.1-0.305 0.151-0.558 0.151-0.759 0-0.228-0.016-0.487-0.047-0.779-0.034-0.292-0.136-0.585-0.31-0.875-0.173-0.292-0.442-0.573-0.805-0.841-0.366-0.269-0.885-0.495-1.558-0.677-0.128-0.038-0.249-0.068-0.362-0.096-0.115-0.028-0.228-0.055-0.335-0.083v-2.419c0.309 0 0.573 0.128 0.792 0.383 0.218 0.254 0.333 0.565 0.342 0.929h1.941c-0.027-0.473-0.127-0.884-0.302-1.23-0.172-0.346-0.395-0.636-0.668-0.867-0.274-0.233-0.592-0.415-0.951-0.547s-0.744-0.221-1.154-0.267v-1.054h-0.807v1.054c-0.411 0.027-0.806 0.107-1.19 0.239s-0.719 0.319-1.012 0.561c-0.291 0.24-0.525 0.538-0.704 0.894-0.177 0.355-0.267 0.767-0.267 1.23 0 0.457 0.078 0.837 0.233 1.143s0.363 0.56 0.621 0.765c0.261 0.204 0.555 0.369 0.882 0.492 0.328 0.123 0.661 0.231 0.998 0.321 0.091 0.018 0.175 0.039 0.254 0.061 0.077 0.023 0.139 0.043 0.184 0.061v2.858c-0.419-0.082-0.771-0.275-1.053-0.574zM16.277 13.099c0.538 0.145 0.918 0.308 1.14 0.486 0.223 0.177 0.334 0.443 0.334 0.799 0 0.218-0.045 0.408-0.137 0.567-0.090 0.159-0.207 0.293-0.348 0.404s-0.3 0.193-0.476 0.252c-0.178 0.059-0.351 0.097-0.513 0.117v-2.624zM14.526 10.527c-0.191-0.163-0.287-0.396-0.287-0.697 0-0.191 0.035-0.356 0.103-0.498s0.16-0.261 0.28-0.356c0.118-0.095 0.25-0.167 0.397-0.212 0.145-0.045 0.295-0.068 0.451-0.068v2.228c-0.438-0.1-0.752-0.232-0.943-0.396z"></path>
</svg>
