<?xml version="1.0" encoding="utf-8"?>
<!-- Generated by IcoMoon.io -->
<!DOCTYPE svg PUBLIC "-//W3C//DTD SVG 1.1//EN" "http://www.w3.org/Graphics/SVG/1.1/DTD/svg11.dtd">
<svg version="1.1" xmlns="http://www.w3.org/2000/svg" xmlns:xlink="http://www.w3.org/1999/xlink" width="32" height="32" viewBox="0 0 32 32">
<path fill="#444444" d="M6.768 2.425v27.134h18.512v-27.134h-18.512zM23.364 27.64h-14.681v-23.3h14.681v23.3zM20.504 20.382h-8.883v1.557h8.883v-1.557zM20.504 23.946h-8.883v1.557h8.883v-1.557zM12.974 12.068v0.354h-0.547l-0.424 0.985h1.053c0.191 1.194 0.606 2.123 1.244 2.788 0.702 0.738 1.626 1.108 2.775 1.108 0.792 0 1.493-0.178 2.104-0.533l0.013-2.064c-0.72 0.574-1.422 0.86-2.105 0.86-1.058 0-1.731-0.72-2.023-2.158h2.378l0.424-0.985h-2.911l0.013-0.574h3.062l0.424-0.983h-3.335c0.318-1.249 0.956-1.872 1.913-1.872 0.556 0 1.153 0.202 1.79 0.613l0.835-1.709c-0.894-0.456-1.723-0.683-2.488-0.683-1.085 0-1.986 0.348-2.707 1.038-0.682 0.64-1.134 1.509-1.353 2.612h-0.697l-0.425 0.983h0.999c-0.009 0.018-0.014 0.092-0.014 0.221z"></path>
</svg>
