<?xml version="1.0" encoding="utf-8"?>
<!-- Generated by IcoMoon.io -->
<!DOCTYPE svg PUBLIC "-//W3C//DTD SVG 1.1//EN" "http://www.w3.org/Graphics/SVG/1.1/DTD/svg11.dtd">
<svg version="1.1" xmlns="http://www.w3.org/2000/svg" xmlns:xlink="http://www.w3.org/1999/xlink" width="32" height="32" viewBox="0 0 32 32">
<path fill="#444444" d="M6.325 1.822v28.27h19.289v-28.27h-19.289zM23.618 28.097h-15.296v-24.281h15.296v24.281zM20.638 20.533h-9.256v1.623h9.256v-1.623zM20.638 24.245h-9.256v1.623h9.256v-1.623zM13.78 12.846c0.050 0.158 0.078 0.317 0.078 0.476 0 0.257-0.048 0.501-0.142 0.734-0.096 0.233-0.217 0.449-0.365 0.65-0.146 0.198-0.318 0.38-0.512 0.548-0.195 0.166-0.392 0.311-0.591 0.433l0.883 1.31c0.275-0.208 0.552-0.347 0.833-0.419 0.279-0.071 0.549-0.108 0.804-0.108 0.314 0 0.576 0.030 0.785 0.086 0.208 0.057 0.417 0.124 0.625 0.2 0.2 0.066 0.419 0.123 0.656 0.17s0.538 0.072 0.896 0.072c0.362 0 0.737-0.067 1.127-0.2 0.388-0.131 0.753-0.364 1.095-0.697l-0.854-1.439c-0.256 0.276-0.482 0.448-0.677 0.513-0.194 0.068-0.386 0.1-0.577 0.1-0.189 0-0.375-0.016-0.555-0.049-0.18-0.035-0.365-0.076-0.556-0.123-0.19-0.037-0.376-0.072-0.562-0.106-0.186-0.033-0.373-0.049-0.563-0.049-0.134 0-0.271 0.019-0.414 0.057-0.141 0.037-0.327 0.127-0.555 0.27l-0.029-0.029c0.314-0.247 0.586-0.529 0.821-0.848 0.231-0.319 0.348-0.701 0.348-1.145 0-0.161-0.009-0.315-0.021-0.458-0.014-0.141-0.047-0.284-0.092-0.427h1.496v-1.21h-1.897c-0.141-0.256-0.254-0.476-0.333-0.656-0.082-0.182-0.139-0.339-0.172-0.476s-0.055-0.26-0.063-0.364c-0.010-0.104-0.016-0.214-0.016-0.329 0-0.396 0.127-0.715 0.378-0.954 0.251-0.235 0.591-0.353 1.018-0.353 0.362 0 0.645 0.072 0.848 0.221 0.204 0.147 0.357 0.319 0.456 0.519s0.166 0.405 0.192 0.621c0.029 0.21 0.048 0.39 0.058 0.531h1.922c0-1.159-0.302-2.042-0.912-2.649-0.607-0.607-1.457-0.912-2.55-0.912-0.598 0-1.125 0.075-1.581 0.229-0.456 0.151-0.836 0.357-1.139 0.619s-0.534 0.562-0.691 0.903c-0.156 0.343-0.236 0.703-0.236 1.083 0 0.427 0.072 0.816 0.213 1.167 0.143 0.354 0.286 0.617 0.429 0.799h-0.912v1.21h1.409c0.077 0.161 0.14 0.321 0.194 0.478z"></path>
</svg>
