<?xml version="1.0" encoding="utf-8"?>
<!-- Generated by IcoMoon.io -->
<!DOCTYPE svg PUBLIC "-//W3C//DTD SVG 1.1//EN" "http://www.w3.org/Graphics/SVG/1.1/DTD/svg11.dtd">
<svg version="1.1" xmlns="http://www.w3.org/2000/svg" xmlns:xlink="http://www.w3.org/1999/xlink" width="32" height="32" viewBox="0 0 32 32">
<path fill="#444444" d="M18.363 15.626l-4.049 4.048 14.63 1.401-1.4-14.631-3.971 3.972c-2.272-1.564-4.973-2.441-7.772-2.448-2.37-0.004-4.846 0.662-6.976 2.176-0.661 0.466-1.28 1.012-1.848 1.629 0.727-0.252 1.497-0.378 2.29-0.373 2.904 0.012 6.074 1.551 9.095 4.226zM10.269 25.67v-2.214c0-2.736 0.544-4.578 1.213-5.762 0.68-1.186 1.452-1.793 2.343-2.179 0.44-0.184 0.918-0.303 1.425-0.353-2.138-1.455-4.224-2.213-5.982-2.204-1.815 0.015-3.292 0.728-4.447 2.405-0.219 0.323-0.425 0.684-0.613 1.083-0.051 0.144-0.101 0.287-0.148 0.433-0.634 1.936-0.956 4.126-0.956 6.578v2.214h7.167z"></path>
</svg>
