<?xml version="1.0" encoding="utf-8"?>
<!-- Generated by IcoMoon.io -->
<!DOCTYPE svg PUBLIC "-//W3C//DTD SVG 1.1//EN" "http://www.w3.org/Graphics/SVG/1.1/DTD/svg11.dtd">
<svg version="1.1" xmlns="http://www.w3.org/2000/svg" xmlns:xlink="http://www.w3.org/1999/xlink" width="32" height="32" viewBox="0 0 32 32">
<path fill="#444444" d="M15.743 2.31c0.003 0 0.006 0 0.009 0s0.005 0 0.008 0l-0.018-0zM29.316 15.969c-0.001-7.502-6.053-13.603-13.563-13.658-0.041-0.001-0.075-0.001-0.098-0.001-3.866-0.001-7.373 1.616-9.856 4.205l-3.243-3.284v9.543h9.422l-3.272-3.314c1.743-1.858 4.204-3.013 6.948-3.014 0.025 0 0.039 0 0.045 0h0.017c5.238 0.032 9.464 4.292 9.463 9.523 0 0.006-0 0.032 0 0.075-0.039 5.232-4.297 9.451-9.523 9.45-0.017 0-0.044 0-0.082 0l0.013 4.136c0.012-0 0.035-0 0.069 0 7.505-0.001 13.609-6.058 13.658-13.573v-0.023l-0-0.027c0-0.007 0-0.020 0-0.039z"></path>
</svg>
