<?xml version="1.0" encoding="utf-8"?>
<!-- Generated by IcoMoon.io -->
<!DOCTYPE svg PUBLIC "-//W3C//DTD SVG 1.1//EN" "http://www.w3.org/Graphics/SVG/1.1/DTD/svg11.dtd">
<svg version="1.1" xmlns="http://www.w3.org/2000/svg" xmlns:xlink="http://www.w3.org/1999/xlink" width="32" height="32" viewBox="0 0 32 32">
<path fill="#444444" d="M22.233 3.080h-12.466c-0.694 0-1.257 0.563-1.257 1.257v23.325c0 0.694 0.563 1.257 1.257 1.257h12.466c0.694 0 1.257-0.563 1.257-1.257v-23.325c0-0.694-0.563-1.257-1.257-1.257zM20.23 11.601c0.468 0 0.847 0.379 0.847 0.847s-0.379 0.847-0.847 0.847h-0.715c0.066-0.272 0.101-0.556 0.101-0.847s-0.036-0.575-0.101-0.847h0.715zM15.153 8.218c0-0.468 0.379-0.847 0.847-0.847s0.847 0.379 0.847 0.847v0.715c-0.272-0.066-0.556-0.101-0.847-0.101s-0.575 0.036-0.847 0.101v-0.715zM11.77 11.601h0.715c-0.066 0.272-0.101 0.556-0.101 0.847s0.036 0.575 0.101 0.847h-0.715c-0.468 0-0.847-0.379-0.847-0.847s0.379-0.847 0.847-0.847zM13.334 27.065h-2.737v-2.737h2.737v2.737zM13.334 23.041h-2.737v-2.737h2.737v2.737zM17.448 27.065h-2.737v-2.737h2.737v2.737zM17.448 23.041h-2.737v-2.737h2.737v2.737zM15.153 16.678v-0.714c0.272 0.066 0.556 0.101 0.847 0.101s0.575-0.036 0.847-0.101v0.715c0 0.468-0.379 0.847-0.847 0.847s-0.847-0.379-0.847-0.847zM16 14.371c-1.062 0-1.922-0.861-1.922-1.922s0.861-1.922 1.922-1.922c1.062 0 1.922 0.861 1.922 1.922s-0.861 1.922-1.922 1.922zM21.507 27.065h-2.737v-2.737h2.737v2.737zM21.507 23.041h-2.737v-2.737h2.737v2.737z"></path>
</svg>
