<?xml version="1.0" encoding="utf-8"?>
<!-- Generated by IcoMoon.io -->
<!DOCTYPE svg PUBLIC "-//W3C//DTD SVG 1.1//EN" "http://www.w3.org/Graphics/SVG/1.1/DTD/svg11.dtd">
<svg version="1.1" xmlns="http://www.w3.org/2000/svg" xmlns:xlink="http://www.w3.org/1999/xlink" width="32" height="32" viewBox="0 0 32 32">
<path fill="#444444" d="M6.842 11.925l1.508-1.499h10.849v3.013l5.595-4.618-5.595-4.618v3.013h-12.173l-3.394 3.373v4.151h3.21v-2.816zM22.855 16.235l-0.685 0.681c0.388-0.079 0.789-0.121 1.2-0.121 0.969 0 1.884 0.232 2.695 0.642v-4.017h-3.21v2.815zM20.154 17.734h-9.63v-3.013l-5.595 4.618 5.595 4.618v-3.013l7.138-0c0.435-1.337 1.327-2.468 2.491-3.21zM23.37 17.89c-2.71 0-4.907 2.197-4.907 4.907s2.197 4.907 4.907 4.907 4.906-2.197 4.906-4.907c0-2.71-2.197-4.907-4.906-4.907zM24.152 26.086h-1.309v-4.484h-1.529v-0.87c0.402-0.018 0.684-0.045 0.845-0.081 0.256-0.057 0.465-0.17 0.626-0.341 0.11-0.117 0.194-0.272 0.25-0.466 0.033-0.116 0.049-0.203 0.049-0.26h1.067v6.502z"></path>
</svg>
