<?xml version="1.0" encoding="utf-8"?>
<!-- Generated by IcoMoon.io -->
<!DOCTYPE svg PUBLIC "-//W3C//DTD SVG 1.1//EN" "http://www.w3.org/Graphics/SVG/1.1/DTD/svg11.dtd">
<svg version="1.1" xmlns="http://www.w3.org/2000/svg" xmlns:xlink="http://www.w3.org/1999/xlink" width="32" height="32" viewBox="0 0 32 32">
<path fill="#444444" d="M18.636 18.137v2.702c0 2.237-1.813 4.050-4.050 4.050s-4.050-1.813-4.050-4.050v-9.677c0-2.237 1.813-4.050 4.050-4.050s4.050 1.813 4.050 4.050v0.8h-2.798l4.367 5.291 4.367-5.291h-2.828v-0.8c0-3.947-3.211-7.158-7.158-7.158s-7.158 3.211-7.158 7.158v9.677c0 3.947 3.211 7.158 7.158 7.158s7.158-3.211 7.158-7.158v-2.665l-1.539 1.864-1.569-1.901z"></path>
</svg>
