<?xml version="1.0" encoding="utf-8"?>
<!-- Generated by IcoMoon.io -->
<!DOCTYPE svg PUBLIC "-//W3C//DTD SVG 1.1//EN" "http://www.w3.org/Graphics/SVG/1.1/DTD/svg11.dtd">
<svg version="1.1" xmlns="http://www.w3.org/2000/svg" xmlns:xlink="http://www.w3.org/1999/xlink" width="32" height="32" viewBox="0 0 32 32">
<path fill="#444444" d="M28.975 14.959l-11.934-11.935c-0.284-0.286-0.66-0.428-1.034-0.428s-0.752 0.142-1.036 0.428l-11.934 11.935c-0.572 0.572-0.572 1.499 0 2.070l11.934 11.935c0.284 0.286 0.66 0.429 1.036 0.429 0.374 0 0.748-0.143 1.034-0.43l11.934-11.935c0.573-0.572 0.573-1.499 0-2.070zM27.984 16.038l-11.934 11.934c-0.006 0.006-0.018 0.018-0.043 0.018-0.027 0-0.039-0.012-0.045-0.017l-11.934-11.935c-0.025-0.025-0.025-0.064 0-0.088l11.934-11.934c0.006-0.006 0.018-0.019 0.045-0.019 0.025 0 0.037 0.012 0.043 0.019l11.934 11.934c0.006 0.005 0.018 0.018 0.018 0.044 0 0.025-0.012 0.037-0.018 0.044zM6.148 15.995l9.86 9.859 9.858-9.859-9.858-9.86-9.86 9.86z"></path>
</svg>
