<?xml version="1.0" encoding="utf-8"?>
<!-- Generated by IcoMoon.io -->
<!DOCTYPE svg PUBLIC "-//W3C//DTD SVG 1.1//EN" "http://www.w3.org/Graphics/SVG/1.1/DTD/svg11.dtd">
<svg version="1.1" xmlns="http://www.w3.org/2000/svg" xmlns:xlink="http://www.w3.org/1999/xlink" width="32" height="32" viewBox="0 0 32 32">
<path fill="#444444" d="M23.047 5.042c0.129 1.16 0.515 2.092 1.155 2.729 0.638 0.642 1.57 1.027 2.733 1.155 1.698-3.434 2.236-6.12 2.236-6.12s-2.688 0.536-6.123 2.235zM21.26 5.999c-1.852 1.074-3.812 2.475-5.625 4.288-1.159 1.161-2.091 2.285-2.843 3.342l-4.592 0.849-5.396 5.398 4.811 0.15 3.387-3.386c-1.194 2.477-1.3 4.118-1.3 4.118l1.515 1.515c0 0 1.696-0.162 4.19-1.369l-3.458 3.456 0.151 4.811 5.396-5.396 0.852-4.615c1.067-0.747 2.193-1.673 3.34-2.821 1.813-1.813 3.215-3.773 4.288-5.625-1.183-0.239-2.268-0.734-3.127-1.588-0.854-0.859-1.351-1.943-1.588-3.127z"></path>
</svg>
