<?xml version="1.0" encoding="utf-8"?>
<!-- Generated by IcoMoon.io -->
<!DOCTYPE svg PUBLIC "-//W3C//DTD SVG 1.1//EN" "http://www.w3.org/Graphics/SVG/1.1/DTD/svg11.dtd">
<svg version="1.1" xmlns="http://www.w3.org/2000/svg" xmlns:xlink="http://www.w3.org/1999/xlink" width="32" height="32" viewBox="0 0 32 32">
<path fill="#444444" d="M23.749 2.332l-21.422 21.421 5.9 5.899 21.422-21.42-5.9-5.9zM7.332 26.78l-2.867-2.867 0.534-0.532 2.865 2.866-0.533 0.534zM7.978 23.646l-1.621-1.622 0.531-0.533 1.623 1.621-0.533 0.534zM9.869 21.756l-1.622-1.623 0.533-0.533 1.623 1.622-0.533 0.533zM11.759 19.865l-1.623-1.623 0.533-0.533 1.623 1.622-0.534 0.533zM13.65 17.975l-1.623-1.622 0.534-0.534 1.623 1.622-0.534 0.534zM16.785 17.329l-2.867-2.866 0.533-0.533 2.867 2.867-0.532 0.532zM17.429 14.194l-1.621-1.621 0.533-0.535 1.622 1.623-0.534 0.533zM19.321 12.305l-1.623-1.623 0.532-0.533 1.624 1.621-0.533 0.536zM21.21 10.414l-1.623-1.622 0.535-0.533 1.622 1.622-0.534 0.533zM23.101 8.522l-1.623-1.621 0.533-0.534 1.623 1.622-0.533 0.532zM23.368 5.011l0.535-0.533 2.866 2.865-0.533 0.534-2.868-2.867z"></path>
</svg>
