<?xml version="1.0" encoding="utf-8"?>
<!-- Generated by IcoMoon.io -->
<!DOCTYPE svg PUBLIC "-//W3C//DTD SVG 1.1//EN" "http://www.w3.org/Graphics/SVG/1.1/DTD/svg11.dtd">
<svg version="1.1" xmlns="http://www.w3.org/2000/svg" xmlns:xlink="http://www.w3.org/1999/xlink" width="32" height="32" viewBox="0 0 32 32">
<path fill="#444444" d="M3.943 30.104h24.068v-2.598h-24.068v2.598zM28.696 1.886h-25.436c-0.762 0-1.38 0.617-1.38 1.379v21.355c0 0.763 0.617 1.38 1.38 1.38h25.436c0.762 0 1.38-0.617 1.38-1.38v-21.355c0-0.761-0.618-1.379-1.38-1.379zM5.99 11.542h1.622v4.883h-1.622v-4.883zM25.967 10.131v12.581h-19.977v-3.718h1.622v2.095h16.731v-14.291h-16.731v2.175h-1.622v-3.801h19.977v4.959zM15.658 10.969c0.471-0.348 1.026-0.586 1.631-0.678v1.001h1.114v-1.001c0.603 0.092 1.159 0.331 1.629 0.678l-0.705 0.704 0.787 0.789 0.705-0.706c0.347 0.472 0.587 1.026 0.676 1.631h-0.997v1.114h0.997c-0.090 0.604-0.329 1.159-0.676 1.631l-0.705-0.707-0.787 0.787 0.705 0.707c-0.47 0.347-1.026 0.585-1.629 0.675v-0.998h-1.114v0.998c-0.605-0.091-1.16-0.328-1.631-0.675l0.705-0.707-0.787-0.787-0.705 0.707c-0.347-0.472-0.585-1.027-0.677-1.631h0.998v-1.114h-0.998c0.092-0.604 0.33-1.158 0.677-1.631l0.705 0.706 0.787-0.789-0.705-0.704zM17.846 15.291c0.744 0 1.349-0.605 1.349-1.349s-0.605-1.348-1.349-1.348c-0.744 0-1.348 0.603-1.348 1.348s0.604 1.349 1.348 1.349z"></path>
</svg>
