<?xml version="1.0" encoding="utf-8"?>
<!-- Generated by IcoMoon.io -->
<!DOCTYPE svg PUBLIC "-//W3C//DTD SVG 1.1//EN" "http://www.w3.org/Graphics/SVG/1.1/DTD/svg11.dtd">
<svg version="1.1" xmlns="http://www.w3.org/2000/svg" xmlns:xlink="http://www.w3.org/1999/xlink" width="32" height="32" viewBox="0 0 32 32">
<path fill="#444444" d="M24.261 15.306c-0.147-1.764-0.844-3.37-1.923-4.646l-1.768 1.768-0.979-0.977 1.768-1.767c-1.273-1.079-2.88-1.778-4.644-1.924v2.5h-1.382v-2.5c-1.764 0.146-3.37 0.845-4.646 1.924l1.768 1.768-0.977 0.976-1.768-1.768c-1.079 1.275-1.776 2.882-1.923 4.646h2.502v1.382h-2.502c0.147 1.764 0.844 3.368 1.923 4.645l1.768-1.768 0.977 0.977-1.768 1.767c1.275 1.080 2.882 1.778 4.646 1.924v-2.5h1.382v2.5c1.764-0.146 3.37-0.844 4.644-1.924l-1.768-1.767 0.977-0.977 1.77 1.768c1.079-1.276 1.776-2.881 1.923-4.646h-2.5v-1.381h2.5zM16.024 18.572c-1.423 0-2.575-1.152-2.575-2.575s1.153-2.575 2.575-2.575c1.422 0 2.575 1.153 2.575 2.575s-1.153 2.575-2.575 2.575zM16.024 2.443c-7.487 0-13.553 6.068-13.553 13.554s6.066 13.553 13.553 13.553c7.484 0 13.553-6.068 13.553-13.553s-6.068-13.554-13.553-13.554zM16.024 27.635c-6.418 0-11.638-5.221-11.638-11.638 0-5.612 3.992-10.309 9.287-11.399l2.351 2.98 2.35-2.98c5.293 1.090 9.287 5.787 9.287 11.399 0 6.417-5.222 11.638-11.638 11.638z"></path>
</svg>
