<?xml version="1.0" encoding="utf-8"?>
<!-- Generated by IcoMoon.io -->
<!DOCTYPE svg PUBLIC "-//W3C//DTD SVG 1.1//EN" "http://www.w3.org/Graphics/SVG/1.1/DTD/svg11.dtd">
<svg version="1.1" xmlns="http://www.w3.org/2000/svg" xmlns:xlink="http://www.w3.org/1999/xlink" width="32" height="32" viewBox="0 0 32 32">
<path fill="#444444" d="M10.597 4.952c-3.805 0-6.9 3.095-6.9 6.9 0 0.502 0.407 0.909 0.91 0.909s0.91-0.407 0.91-0.909c0-2.802 2.279-5.081 5.081-5.081s5.081 2.28 5.081 5.081c0 0.502 0.407 0.909 0.91 0.909s0.91-0.407 0.91-0.909c-0-3.805-3.095-6.9-6.9-6.9z"></path>
<path fill="#444444" d="M16.761 14.153h-12.404c-0.381 0-0.691 0.309-0.691 0.691v2.417c0 0.381 0.309 0.691 0.691 0.691h12.404c0.381 0 0.691-0.309 0.691-0.691v-2.417c0-0.381-0.309-0.691-0.691-0.691z"></path>
<path fill="#444444" d="M5.856 25.633c0.078 0.551 0.549 0.96 1.106 0.96h7.194c0.556 0 1.028-0.41 1.106-0.96l0.822-5.82h-11.051l0.823 5.82z"></path>
<path fill="#444444" d="M27.775 9.654h-5.77c-0.308 0-0.558 0.25-0.558 0.558v6.329c0 0.308 0.25 0.558 0.558 0.558h5.77c0.308 0 0.558-0.25 0.558-0.558v-6.329c0-0.308-0.25-0.558-0.558-0.558z"></path>
<path fill="#444444" d="M26.274 18.965h-2.769v4.781c-0.345 0.351-0.558 0.831-0.558 1.36 0 1.071 0.871 1.942 1.942 1.942s1.942-0.871 1.942-1.942c0-0.529-0.213-1.009-0.558-1.36v-4.781zM24.89 26.043c-0.517 0-0.937-0.421-0.937-0.938s0.421-0.938 0.937-0.938c0.517 0 0.938 0.421 0.938 0.938s-0.421 0.938-0.938 0.938z"></path>
</svg>
