<?xml version="1.0" encoding="utf-8"?>
<!-- Generated by IcoMoon.io -->
<!DOCTYPE svg PUBLIC "-//W3C//DTD SVG 1.1//EN" "http://www.w3.org/Graphics/SVG/1.1/DTD/svg11.dtd">
<svg version="1.1" xmlns="http://www.w3.org/2000/svg" xmlns:xlink="http://www.w3.org/1999/xlink" width="32" height="32" viewBox="0 0 32 32">
<path fill="#444444" d="M6.929 22.033v7.405l4.121-0v-3.879c-1.184-0.752-2.293-1.641-3.307-2.659-0.282-0.281-0.552-0.57-0.814-0.867zM28.66 11.397c-0.024-5.096-4.163-9.218-9.271-9.218-0.691 0-1.251 0.561-1.251 1.253s0.56 1.252 1.251 1.252c1.874 0 3.558 0.754 4.787 1.98 1.218 1.221 1.97 2.891 1.98 4.75-0.002 0.043 0.004 0.251 0.053 0.393 0.163 0.543 0.66 0.893 1.2 0.893 0.119 0 0.241-0.016 0.36-0.053 0.56-0.167 0.916-0.693 0.891-1.251zM18.324 6.78c-0.691-0.001-1.253 0.56-1.253 1.251 0 0.693 0.56 1.253 1.251 1.253 1.784 0.004 3.231 1.451 3.233 3.233 0 0.691 0.562 1.252 1.253 1.252 0.693 0 1.251-0.561 1.251-1.252-0-3.169-2.567-5.735-5.735-5.737zM18.491 12.105h-12.024l-2.785-2.792c-0.012 9.72 7.859 17.612 17.579 17.624l-2.77-2.777v-12.054zM8.033 13.675h7.776l-3.893 3.893-3.883-3.893zM13.026 18.68l3.894-3.894 0 7.799-3.894-3.904z"></path>
</svg>
