<?xml version="1.0" encoding="utf-8"?>
<!-- Generated by IcoMoon.io -->
<!DOCTYPE svg PUBLIC "-//W3C//DTD SVG 1.1//EN" "http://www.w3.org/Graphics/SVG/1.1/DTD/svg11.dtd">
<svg version="1.1" xmlns="http://www.w3.org/2000/svg" xmlns:xlink="http://www.w3.org/1999/xlink" width="32" height="32" viewBox="0 0 32 32">
<path fill="#444444" d="M24.414 2.781c-0.805 0.005-1.554 0.207-2.275 0.501-0.717 0.301-1.389 0.689-1.962 1.255l-3.996 3.994c-0.055 0.057-0.105 0.114-0.156 0.171-0.052-0.056-0.103-0.113-0.158-0.171l-3.996-3.994c-0.571-0.566-1.245-0.954-1.962-1.255-0.722-0.294-1.47-0.496-2.275-0.501h-3.868v3.197h3.868c0.197-0.006 0.647 0.082 1.052 0.257 0.409 0.163 0.79 0.417 0.924 0.561l3.997 3.997c0.144 0.134 0.398 0.517 0.562 0.924 0.173 0.4 0.261 0.844 0.257 1.045 0 0.002-0.001 0.005-0.001 0.008v4.29h-5.026l6.494 6.494 6.492-6.492h-4.763v-4.292c-0.006-0.199 0.083-0.648 0.257-1.053 0.163-0.407 0.418-0.789 0.561-0.924l3.997-3.997c0.135-0.144 0.515-0.398 0.925-0.561 0.404-0.175 0.853-0.264 1.052-0.257h3.867v-3.197h-3.867zM22.081 11.311c1.673 1.676 2.506 3.852 2.508 6.038-0.002 2.207-0.83 4.397-2.508 6.078-1.676 1.675-3.859 2.506-6.056 2.508-2.197-0.002-4.38-0.833-6.057-2.508-1.676-1.679-2.507-3.866-2.508-6.066 0.001-2.192 0.834-4.373 2.507-6.049l-2.26-2.259c-2.289 2.289-3.446 5.306-3.445 8.308-0.001 3.005 1.149 6.030 3.447 8.327 2.291 2.292 5.31 3.447 8.316 3.445h0.007c3.002 0 6.018-1.155 8.308-3.445 2.301-2.302 3.447-5.33 3.446-8.338 0.001-3.001-1.159-6.012-3.446-8.297l-2.259 2.259z"></path>
</svg>
