<?xml version="1.0" encoding="utf-8"?>
<!-- Generated by IcoMoon.io -->
<!DOCTYPE svg PUBLIC "-//W3C//DTD SVG 1.1//EN" "http://www.w3.org/Graphics/SVG/1.1/DTD/svg11.dtd">
<svg version="1.1" xmlns="http://www.w3.org/2000/svg" xmlns:xlink="http://www.w3.org/1999/xlink" width="32" height="32" viewBox="0 0 32 32">
<path fill="#444444" d="M25.286 6.599c-2.578-2.579-5.967-3.873-9.346-3.872-3.379-0.001-6.769 1.293-9.346 3.872-2.609 2.608-3.873 6.042-3.871 9.442-0.001 3.356 1.323 6.702 3.871 9.25 2.578 2.579 5.967 3.873 9.346 3.872h0.005c3.377 0 6.764-1.294 9.341-3.872 2.579-2.578 3.873-5.967 3.872-9.346 0.001-3.379-1.293-6.768-3.872-9.346zM23.695 23.701c-2.145 2.144-4.945 3.212-7.756 3.213-2.811-0.001-5.611-1.069-7.756-3.213-2.126-2.126-3.212-4.891-3.213-7.659 0.002-2.853 1.050-5.689 3.213-7.852 2.145-2.144 4.945-3.211 7.756-3.213 2.811 0.002 5.611 1.069 7.756 3.213s3.211 4.944 3.212 7.755c-0.001 2.811-1.069 5.611-3.212 7.756zM24.374 13.414c-0.405-1.352-1.141-2.627-2.208-3.694-0.153-0.153-0.401-0.152-0.553 0s-0.153 0.401 0 0.553c0.958 0.957 1.62 2.096 1.993 3.306-0.502 0.255-0.846 0.775-0.846 1.377 0 0.729 0.505 1.338 1.184 1.501-0.119 1.88-0.894 3.724-2.331 5.162-1.568 1.567-3.618 2.349-5.673 2.35s-4.105-0.783-5.672-2.35c-0.096-0.096-0.189-0.194-0.279-0.294 0.090-0.157 0.143-0.338 0.143-0.532 0-0.59-0.479-1.069-1.069-1.069-0.065 0-0.129 0.007-0.191 0.018-0.488-0.907-0.789-1.887-0.901-2.885 0.667-0.172 1.16-0.775 1.16-1.495 0-0.644-0.394-1.195-0.953-1.427 0.259-1.003 0.713-1.964 1.365-2.825l1.379 1.379c-0.716 1.038-1.077 2.248-1.076 3.457-0 1.559 0.596 3.121 1.786 4.311 0.544 0.544 1.167 0.963 1.832 1.259-0.001 0.019-0.003 0.038-0.003 0.058 0 0.853 0.692 1.545 1.545 1.545 0.699 0 1.289-0.464 1.48-1.101 1.374-0.122 2.716-0.709 3.767-1.761 1.19-1.19 1.786-2.752 1.786-4.311 0-1.559-0.596-3.122-1.786-4.311-0.153-0.153-0.401-0.153-0.553 0s-0.153 0.401 0 0.554c1.038 1.038 1.556 2.396 1.556 3.757s-0.518 2.719-1.557 3.757c-0.894 0.893-2.023 1.4-3.189 1.525-0.157-0.687-0.77-1.201-1.505-1.201-0.555 0-1.041 0.294-1.313 0.734-0.545-0.255-1.057-0.607-1.508-1.058-1.039-1.039-1.556-2.396-1.557-3.757 0-1.010 0.286-2.017 0.857-2.894l2.842 2.842c0 0.005-0.001 0.010-0.001 0.015 0 0.854 0.692 1.545 1.545 1.545s1.545-0.692 1.545-1.545c0-0.815-0.632-1.482-1.433-1.539l-5.64-5.64c-0.439-0.439-1.151-0.439-1.591 0s-0.439 1.151 0 1.59l0.232 0.233c-0.771 0.992-1.301 2.11-1.589 3.277-0.764 0.094-1.355 0.743-1.355 1.533 0 0.714 0.484 1.313 1.142 1.49 0.117 1.143 0.459 2.268 1.024 3.303-0.133 0.178-0.213 0.398-0.213 0.638 0 0.59 0.479 1.069 1.069 1.069 0.11 0 0.216-0.017 0.315-0.047 0.109 0.121 0.221 0.241 0.337 0.357 1.718 1.718 3.974 2.579 6.226 2.579s4.508-0.861 6.226-2.579c1.593-1.593 2.447-3.647 2.564-5.732 0.647-0.185 1.12-0.778 1.12-1.484-0-0.83-0.655-1.505-1.476-1.542z"></path>
</svg>
