<?xml version="1.0" encoding="utf-8"?>
<!-- Generated by IcoMoon.io -->
<!DOCTYPE svg PUBLIC "-//W3C//DTD SVG 1.1//EN" "http://www.w3.org/Graphics/SVG/1.1/DTD/svg11.dtd">
<svg version="1.1" xmlns="http://www.w3.org/2000/svg" xmlns:xlink="http://www.w3.org/1999/xlink" width="32" height="32" viewBox="0 0 32 32">
<path fill="#444444" d="M5.898 26.495h20.186v1.819h-20.186v-1.819z"></path>
<path fill="#444444" d="M8.213 23.114h15.556v1.819h-15.556v-1.819z"></path>
<path fill="#444444" d="M16.010 12.827c1.272 0 2.308-1.035 2.308-2.308s-1.035-2.308-2.308-2.308c-1.273 0-2.308 1.035-2.308 2.308s1.035 2.308 2.308 2.308zM15.639 9.177h0.74v1.348h1.225v0.74h-1.965v-2.088z"></path>
<path fill="#444444" d="M12.787 21.421v-5.567h2.463v5.561h1.48v-5.561h2.463v5.555l4.502-0.008-0.025-13.846-7.683-3.87-7.664 3.897 0.025 13.846 4.439-0.008zM16.010 7.206c1.83 0 3.314 1.484 3.314 3.314s-1.483 3.314-3.314 3.314c-1.83 0-3.314-1.484-3.314-3.314s1.484-3.314 3.314-3.314z"></path>
<path fill="#444444" d="M25.151 8.097l0.023 12.86 3.72-0.738v-3.005h0.019v-8.080z"></path>
<path fill="#444444" d="M6.844 8.106l-3.74 1.028v5.251h-0.019v5.833l3.782 0.753z"></path>
</svg>
