<?xml version="1.0" encoding="utf-8"?>
<!-- Generated by IcoMoon.io -->
<!DOCTYPE svg PUBLIC "-//W3C//DTD SVG 1.1//EN" "http://www.w3.org/Graphics/SVG/1.1/DTD/svg11.dtd">
<svg version="1.1" xmlns="http://www.w3.org/2000/svg" xmlns:xlink="http://www.w3.org/1999/xlink" width="32" height="32" viewBox="0 0 32 32">
<path fill="#444444" d="M14.595 23.447l-0.757-0.757-1.59 1.589c-0.44 0.44-0.658 1.012-0.658 1.59 0.001 0.576 0.219 1.149 0.658 1.589 0.439 0.439 1.011 0.657 1.587 0.658 0.578-0 1.152-0.218 1.592-0.658s0.658-1.013 0.658-1.59c-0-0.577-0.218-1.149-0.658-1.589l-0.833-0.833zM13.049 14.199l6.543-6.542c0.44-0.44 0.658-1.013 0.658-1.59-0-0.577-0.219-1.149-0.658-1.589s-1.013-0.658-1.589-0.659c-0.577 0-1.15 0.219-1.589 0.658l-6.514 6.543c0.801 0.009 1.604 0.322 2.215 0.933 0.619 0.619 0.932 1.434 0.934 2.245zM23.587 16.121l-5.566-5.566-5.906 5.906-0.664-0.664c0.44-0.44 0.658-1.013 0.658-1.589-0.001-0.577-0.219-1.15-0.658-1.589s-1.013-0.658-1.589-0.659c-0.577 0.001-1.149 0.218-1.589 0.659s-0.658 1.012-0.658 1.589c0 0.577 0.218 1.149 0.659 1.589l7.819 7.819c0.621 0.621 0.934 1.439 0.933 2.253 0 0.011-0.001 0.021-0.002 0.032l6.564-6.564c0.445-0.446 0.666-1.025 0.666-1.609-0-0.583-0.221-1.162-0.666-1.608zM14.799 19.148l-1.107-1.107 4.654-4.653 1.107 1.107-4.653 4.653zM17.371 21.72l-1.107-1.107 4.654-4.653 1.107 1.107-4.654 4.654z"></path>
</svg>
