<?xml version="1.0" encoding="utf-8"?>
<!-- Generated by IcoMoon.io -->
<!DOCTYPE svg PUBLIC "-//W3C//DTD SVG 1.1//EN" "http://www.w3.org/Graphics/SVG/1.1/DTD/svg11.dtd">
<svg version="1.1" xmlns="http://www.w3.org/2000/svg" xmlns:xlink="http://www.w3.org/1999/xlink" width="32" height="32" viewBox="0 0 32 32">
<path fill="#444444" d="M24.525 15.202l-5.281-5.281 1.305-1.305c0.699-0.698 1.052-1.622 1.051-2.538 0.001-0.916-0.352-1.839-1.051-2.538s-1.623-1.052-2.538-1.051c-0.916-0.001-1.84 0.352-2.538 1.052l-7.818 7.853c-0.112 0.088-0.22 0.184-0.323 0.287-0.699 0.698-1.052 1.622-1.051 2.538-0.001 0.915 0.352 1.839 1.051 2.538l5.281 5.281-1.305 1.304c-0.7 0.698-1.052 1.622-1.051 2.538-0.001 0.916 0.352 1.839 1.052 2.538 0.697 0.698 1.619 1.052 2.535 1.051h0.003c0.914 0 1.838-0.352 2.537-1.051l0 0 8.14-8.14c0.699-0.699 1.052-1.622 1.051-2.538 0.001-0.916-0.352-1.84-1.051-2.538zM16.707 4.772c0.361-0.36 0.828-0.538 1.304-0.539 0.475 0.001 0.942 0.178 1.304 0.54s0.539 0.83 0.541 1.305c-0.001 0.475-0.179 0.942-0.541 1.304l-5.963 5.963c-0.153-0.611-0.469-1.19-0.944-1.665-0.469-0.47-1.041-0.784-1.643-0.938l5.942-5.97zM15.151 27.185c-0.362 0.362-0.83 0.539-1.307 0.541-0.473-0.002-0.94-0.179-1.301-0.541s-0.54-0.83-0.541-1.304c0.001-0.475 0.178-0.942 0.54-1.304l1.305-1.305 1.305 1.304c0.362 0.363 0.539 0.83 0.54 1.305-0.001 0.475-0.178 0.942-0.541 1.304zM23.291 19.045l-5.966 5.966c-0.152-0.611-0.464-1.193-0.94-1.669l-7.819-7.819c-0.362-0.363-0.539-0.83-0.54-1.304 0.001-0.475 0.178-0.942 0.54-1.304s0.829-0.54 1.305-0.541c0.475 0.001 0.942 0.179 1.304 0.54s0.539 0.829 0.541 1.305c-0.001 0.475-0.179 0.942-0.541 1.304l1.233 1.234 5.602-5.602 5.281 5.281c0.362 0.362 0.54 0.829 0.54 1.304-0.001 0.475-0.178 0.942-0.54 1.305zM17.596 12.694l-4.654 4.654 1.233 1.233 4.653-4.653-1.233-1.234zM19.457 14.556l-4.653 4.654 1.233 1.234 4.654-4.654-1.234-1.234zM16.665 21.071l1.234 1.233 4.653-4.653-1.233-1.233-4.654 4.653z"></path>
</svg>
