<?xml version="1.0" encoding="utf-8"?>
<!-- Generated by IcoMoon.io -->
<!DOCTYPE svg PUBLIC "-//W3C//DTD SVG 1.1//EN" "http://www.w3.org/Graphics/SVG/1.1/DTD/svg11.dtd">
<svg version="1.1" xmlns="http://www.w3.org/2000/svg" xmlns:xlink="http://www.w3.org/1999/xlink" width="32" height="32" viewBox="0 0 32 32">
<path fill="#444444" d="M29.419 25.494l-0.168-0.168 0-0-6.72-6.72c0.934-1.608 1.476-3.473 1.489-5.466 0.039-6.101-4.874-11.078-10.975-11.116-0.025-0-0.048-0-0.073-0-6.066 0-11.004 4.899-11.043 10.975-0.039 6.101 4.875 11.077 10.975 11.116 0.024 0 0.048 0 0.072 0 2.028 0 3.928-0.549 5.562-1.505l6.882 6.882c0.508 0.508 1.331 0.507 1.838 0l2.16-2.16c0.507-0.507 0.508-1.331-0-1.838zM12.922 21.298c-4.537-0.029-8.204-3.744-8.176-8.281 0.029-4.508 3.72-8.176 8.227-8.176l0.055 0c2.198 0.014 4.259 0.883 5.803 2.447s2.387 3.636 2.373 5.835c-0.014 2.188-0.877 4.243-2.429 5.785s-3.611 2.391-5.798 2.391h-0.054z"></path>
</svg>
