<?xml version="1.0" encoding="utf-8"?>
<!-- Generated by IcoMoon.io -->
<!DOCTYPE svg PUBLIC "-//W3C//DTD SVG 1.1//EN" "http://www.w3.org/Graphics/SVG/1.1/DTD/svg11.dtd">
<svg version="1.1" xmlns="http://www.w3.org/2000/svg" xmlns:xlink="http://www.w3.org/1999/xlink" width="32" height="32" viewBox="0 0 32 32">
<path fill="#444444" d="M21.39 10.637l-2.302 2.302c0.817 0.817 1.268 1.904 1.268 3.060s-0.45 2.243-1.268 3.061l2.302 2.302c1.432-1.432 2.221-3.337 2.221-5.363s-0.789-3.93-2.221-5.363z"></path>
<path fill="#444444" d="M25.063 6.851l-2.302 2.302c3.775 3.775 3.775 9.918 0 13.693l2.302 2.302c5.044-5.044 5.044-13.252 0-18.297z"></path>
<path fill="#444444" d="M12.912 12.939l-2.302-2.302c-1.433 1.432-2.221 3.337-2.221 5.363s0.789 3.93 2.221 5.363l2.302-2.302c-0.818-0.817-1.268-1.904-1.268-3.061s0.45-2.243 1.268-3.060z"></path>
<path fill="#444444" d="M9.239 9.154l-2.302-2.302c-5.044 5.045-5.044 13.253 0 18.297l2.302-2.302c-3.775-3.775-3.775-9.918 0-13.693z"></path>
<path fill="#444444" d="M18.26 16c0 1.294-1.049 2.343-2.343 2.343s-2.343-1.049-2.343-2.343c0-1.294 1.049-2.343 2.343-2.343s2.343 1.049 2.343 2.343z"></path>
</svg>
