<?xml version="1.0" encoding="utf-8"?>
<!-- Generated by IcoMoon.io -->
<!DOCTYPE svg PUBLIC "-//W3C//DTD SVG 1.1//EN" "http://www.w3.org/Graphics/SVG/1.1/DTD/svg11.dtd">
<svg version="1.1" xmlns="http://www.w3.org/2000/svg" xmlns:xlink="http://www.w3.org/1999/xlink" width="32" height="32" viewBox="0 0 32 32">
<path fill="#444444" d="M16.025 23.405c-3.221 0-6.274-0.435-8.595-1.226-1.229-0.418-2.134-0.895-2.795-1.394v4.596c0 1.205 1.613 2.282 4.145 2.993 1.968 0.554 4.494 0.886 7.246 0.886 6.291 0 11.389-1.737 11.389-3.879v-4.596c-0.662 0.499-1.567 0.976-2.795 1.394-2.321 0.791-5.374 1.226-8.594 1.226zM27.414 18.097v-4.723c-0.662 0.497-1.567 0.975-2.795 1.393-2.321 0.79-5.374 1.225-8.594 1.225-3.221 0-6.274-0.435-8.595-1.225-1.229-0.418-2.135-0.896-2.795-1.393v4.723c0.378 2.027 5.346 3.632 11.39 3.632 6.044 0 11.012-1.605 11.389-3.632zM4.635 10.618c0.278 2.058 5.278 3.697 11.39 3.697 6.111 0 11.111-1.639 11.389-3.697v-4.021c0-2.143-5.098-3.879-11.389-3.879-6.292 0-11.39 1.736-11.39 3.879v4.021z"></path>
</svg>
