<?xml version="1.0" encoding="utf-8"?>
<!-- Generated by IcoMoon.io -->
<!DOCTYPE svg PUBLIC "-//W3C//DTD SVG 1.1//EN" "http://www.w3.org/Graphics/SVG/1.1/DTD/svg11.dtd">
<svg version="1.1" xmlns="http://www.w3.org/2000/svg" xmlns:xlink="http://www.w3.org/1999/xlink" width="32" height="32" viewBox="0 0 32 32">
<path fill="#444444" d="M2.287 10.583v5.327h27.476v-5.327h-27.476zM5.786 14.461h-1.559v-2.103h1.559v2.103zM9.595 14.461h-1.557v-2.103h1.557v2.103zM13.407 14.461h-1.559v-2.103h1.559v2.103zM26.66 14.549c-0.679 0-1.228-0.549-1.228-1.228s0.55-1.228 1.228-1.228c0.678 0 1.228 0.55 1.228 1.227s-0.55 1.228-1.228 1.228zM16.868 24.273h-1.558v3.639h-12.554v1.559h26.667v-1.559h-12.554v-3.639zM22.651 2.583h-13.255l-5.424 6.084h24.107l-5.427-6.084zM2.287 23.156h27.476v-5.327h-27.476v5.327zM26.66 19.34c0.678 0 1.228 0.549 1.228 1.227s-0.55 1.228-1.228 1.228c-0.679 0-1.228-0.55-1.228-1.228s0.55-1.227 1.228-1.227zM11.849 19.605h1.559v2.103h-1.559v-2.103zM8.038 19.605h1.557v2.103h-1.557v-2.103zM4.226 19.605h1.559v2.103h-1.559v-2.103z"></path>
</svg>
