<?xml version="1.0" encoding="utf-8"?>
<!-- Generated by IcoMoon.io -->
<!DOCTYPE svg PUBLIC "-//W3C//DTD SVG 1.1//EN" "http://www.w3.org/Graphics/SVG/1.1/DTD/svg11.dtd">
<svg version="1.1" xmlns="http://www.w3.org/2000/svg" xmlns:xlink="http://www.w3.org/1999/xlink" width="32" height="32" viewBox="0 0 32 32">
<path fill="#444444" d="M29.37 17.482v-3.056l-3.704-1.209-0.873-2.108 1.678-3.551-2.162-2.161-3.474 1.764-2.108-0.873-1.325-3.698h-3.056l-0.141 0.432-1.068 3.272-2.107 0.873-3.552-1.678-2.161 2.161 1.764 3.474-0.873 2.107-3.699 1.324v3.057l3.704 1.209 0.873 2.107-1.678 3.551 2.16 2.162 3.474-1.764 2.107 0.873 1.324 3.698h3.056l0.141-0.432 1.068-3.272 2.108-0.873 3.551 1.678 2.162-2.162-0.205-0.405-1.559-3.068 0.873-2.108 3.698-1.324zM15.941 20.299c-2.364 0-4.28-1.916-4.28-4.28s1.916-4.28 4.28-4.28 4.28 1.916 4.28 4.28c0 2.364-1.916 4.28-4.28 4.28z"></path>
</svg>
