<?xml version="1.0" encoding="utf-8"?>
<!-- Generated by IcoMoon.io -->
<!DOCTYPE svg PUBLIC "-//W3C//DTD SVG 1.1//EN" "http://www.w3.org/Graphics/SVG/1.1/DTD/svg11.dtd">
<svg version="1.1" xmlns="http://www.w3.org/2000/svg" xmlns:xlink="http://www.w3.org/1999/xlink" width="32" height="32" viewBox="0 0 32 32">
<path fill="#444444" d="M25.888 17.956v-3.911h-2.65c-0.17-0.629-0.421-1.226-0.739-1.778l1.876-1.876-2.766-2.766-1.876 1.876c-0.552-0.319-1.149-0.569-1.778-0.739v-2.65h-3.911v2.65c-0.629 0.17-1.225 0.421-1.778 0.739l-1.876-1.876-2.766 2.766 1.876 1.876c-0.319 0.552-0.569 1.149-0.739 1.778h-2.65v3.911h2.65c0.17 0.629 0.421 1.225 0.739 1.778l-1.876 1.876 2.766 2.766 1.876-1.876c0.552 0.319 1.149 0.569 1.778 0.739v2.65h3.911v-2.65c0.629-0.17 1.226-0.421 1.778-0.739l1.876 1.876 2.766-2.766-1.876-1.876c0.319-0.553 0.569-1.149 0.739-1.778h2.65zM16 19.588c-1.978 0-3.588-1.61-3.588-3.588s1.61-3.587 3.588-3.587 3.588 1.609 3.588 3.587c0 1.978-1.61 3.588-3.588 3.588z"></path>
</svg>
