<?xml version="1.0" encoding="utf-8"?>
<!-- Generated by IcoMoon.io -->
<!DOCTYPE svg PUBLIC "-//W3C//DTD SVG 1.1//EN" "http://www.w3.org/Graphics/SVG/1.1/DTD/svg11.dtd">
<svg version="1.1" xmlns="http://www.w3.org/2000/svg" xmlns:xlink="http://www.w3.org/1999/xlink" width="32" height="32" viewBox="0 0 32 32">
<path fill="#444444" d="M17.804 18.791l0.564-1.361 2.388-0.855v-1.974l-2.392-0.781-0.564-1.361 1.084-2.293-1.396-1.396-2.243 1.139-1.361-0.564-0.856-2.388h-1.974l-0.091 0.279-0.69 2.113-1.361 0.564-2.294-1.084-1.396 1.396 0.133 0.261 1.006 1.982-0.564 1.36-2.389 0.855v1.974l2.392 0.781 0.564 1.361-1.084 2.293 1.395 1.396 2.243-1.139 1.361 0.564 0.855 2.388h1.974l0.091-0.279 0.69-2.113 1.361-0.564 2.293 1.084 1.396-1.396-1.139-2.243zM12.083 18.393c-1.527 0-2.764-1.237-2.764-2.764s1.238-2.764 2.764-2.764c1.526 0 2.764 1.238 2.764 2.764s-1.238 2.764-2.764 2.764z"></path>
<path fill="#444444" d="M27.257 19.858c-0.063-0.912-0.473-1.771-1.141-2.395l0.131-1.609-1.932-0.685-0.912 1.332c-0.912 0.064-1.771 0.473-2.395 1.142l-1.609-0.131-0.684 1.931 1.332 0.912c0.063 0.912 0.473 1.771 1.141 2.395l-0.131 1.609 1.931 0.685 0.912-1.332c0.912-0.063 1.771-0.473 2.395-1.142l1.609 0.131 0.684-1.931-1.332-0.912zM25.106 20.622c-0.284 0.803-1.166 1.223-1.969 0.938s-1.223-1.166-0.939-1.969c0.285-0.803 1.166-1.223 1.969-0.939s1.223 1.166 0.939 1.97z"></path>
</svg>
