<?xml version="1.0" encoding="utf-8"?>
<!-- Generated by IcoMoon.io -->
<!DOCTYPE svg PUBLIC "-//W3C//DTD SVG 1.1//EN" "http://www.w3.org/Graphics/SVG/1.1/DTD/svg11.dtd">
<svg version="1.1" xmlns="http://www.w3.org/2000/svg" xmlns:xlink="http://www.w3.org/1999/xlink" width="32" height="32" viewBox="0 0 32 32">
<path fill="#444444" d="M20.565 20.734c-0.694 0-1.35 0.161-1.934 0.446l-3.383-3.383c0.249-0.552 0.389-1.164 0.389-1.81s-0.14-1.257-0.389-1.81l3.369-3.369c0.587 0.29 1.249 0.454 1.948 0.454 2.436 0 4.411-1.975 4.411-4.411s-1.975-4.411-4.411-4.411c-2.436 0-4.411 1.975-4.411 4.411 0 0.59 0.117 1.153 0.327 1.668l-3.446 3.446c-0.552-0.249-1.165-0.388-1.809-0.388-2.436 0-4.411 1.975-4.411 4.411s1.975 4.411 4.411 4.411c0.645 0 1.257-0.139 1.809-0.388l3.452 3.452c-0.214 0.519-0.333 1.087-0.333 1.683 0 2.436 1.975 4.411 4.411 4.411s4.411-1.975 4.411-4.411c0-2.436-1.975-4.411-4.411-4.411z"></path>
</svg>
