<?xml version="1.0" encoding="utf-8"?>
<!-- Generated by IcoMoon.io -->
<!DOCTYPE svg PUBLIC "-//W3C//DTD SVG 1.1//EN" "http://www.w3.org/Graphics/SVG/1.1/DTD/svg11.dtd">
<svg version="1.1" xmlns="http://www.w3.org/2000/svg" xmlns:xlink="http://www.w3.org/1999/xlink" width="32" height="32" viewBox="0 0 32 32">
<path fill="#444444" d="M6.837 21.422c-2.146 0-3.885 1.739-3.885 3.883 0 2.149 1.739 3.887 3.885 3.887 2.148 0 3.887-1.738 3.887-3.887 0-2.144-1.739-3.883-3.887-3.883zM7.839 15.308l-0.728 2.893v0.084c1.664-0.051 3.344 0.552 4.613 1.823 1.271 1.269 1.874 2.95 1.825 4.613h0.002l2.976-0.653c-0.11-2.212-0.996-4.396-2.682-6.082-1.67-1.669-3.818-2.551-6.007-2.678zM10.98 2.804l-0.754 2.991c3.842 0.596 7.538 2.353 10.499 5.315 3.054 3.052 4.826 6.891 5.363 10.864l3.009-0.66c-1.384-9.446-8.736-16.93-18.117-18.51zM9.431 8.967l-0.787 3.132c2.741 0.296 5.404 1.479 7.507 3.581 2.146 2.146 3.344 4.877 3.605 7.681l3.148-0.69c-0.411-3.497-1.96-6.734-4.486-9.258-2.461-2.462-5.596-3.988-8.987-4.447z"></path>
</svg>
