<?xml version="1.0" encoding="utf-8"?>
<!-- Generated by IcoMoon.io -->
<!DOCTYPE svg PUBLIC "-//W3C//DTD SVG 1.1//EN" "http://www.w3.org/Graphics/SVG/1.1/DTD/svg11.dtd">
<svg version="1.1" xmlns="http://www.w3.org/2000/svg" xmlns:xlink="http://www.w3.org/1999/xlink" width="32" height="32" viewBox="0 0 32 32">
<path fill="#444444" d="M19.755 20.564v0c0.054 0 0.108 0.004 0.161 0.005l-9.988-12.716c-0.67-0.852-1.678-1.3-2.677-1.298-0.73-0.002-1.48 0.237-2.099 0.726l-3.126 2.457 1.975 2.513 3.125-2.456c0.039-0.030 0.074-0.041 0.125-0.043 0.069 0.002 0.125 0.027 0.163 0.076l9.323 11.867c0.812-0.705 1.872-1.129 3.019-1.13zM27.951 15.206l-7.019 5.511c1.134 0.298 2.082 1.011 2.693 1.951l6.3-4.948-1.974-2.514zM20.122 22.147c-0.124-0.017-0.246-0.023-0.368-0.023-1.523 0-2.839 1.139-3.025 2.688-0.2 1.672 0.992 3.191 2.665 3.393 0.124 0.014 0.247 0.023 0.368 0.023 1.523 0 2.839-1.138 3.027-2.688 0.2-1.674-0.993-3.192-2.667-3.393zM28.834 11.954l-6.445-8.205-8.205 6.445 6.446 8.205 8.204-6.445zM21.766 7.889l2.347 2.988-1.408 1.106-2.347-2.987 1.408-1.107z"></path>
</svg>
