<?xml version="1.0" encoding="utf-8"?>
<!-- Generated by IcoMoon.io -->
<!DOCTYPE svg PUBLIC "-//W3C//DTD SVG 1.1//EN" "http://www.w3.org/Graphics/SVG/1.1/DTD/svg11.dtd">
<svg version="1.1" xmlns="http://www.w3.org/2000/svg" xmlns:xlink="http://www.w3.org/1999/xlink" width="32" height="32" viewBox="0 0 32 32">
<path fill="#444444" d="M24.050 15.157c-1.521 0-2.593-0.411-2.593-0.411l-8.976-5.14-3.011 2.401-5.635-0.479c-1.603 0-1.673 2.857-1.673 2.857v4.951h27.247c0-0 0.43-4.178-5.36-4.178zM13.754 12.073c-0.089 0.358-0.453 0.577-0.812 0.488-0.359-0.090-0.577-0.454-0.487-0.814 0.089-0.358 0.453-0.577 0.813-0.487 0.359 0.089 0.577 0.453 0.487 0.813zM16.274 13.483c-0.090 0.36-0.455 0.578-0.813 0.489s-0.577-0.453-0.486-0.814c0.088-0.358 0.453-0.577 0.812-0.487 0.36 0.089 0.577 0.453 0.487 0.812zM18.694 14.839c-0.090 0.359-0.454 0.578-0.814 0.488-0.359-0.090-0.579-0.453-0.487-0.812 0.090-0.36 0.454-0.578 0.812-0.488 0.36 0.090 0.578 0.453 0.488 0.813zM2.163 20.468v1.915h27.362v-1.915h-27.362z"></path>
</svg>
