<?xml version="1.0" encoding="utf-8"?>
<!-- Generated by IcoMoon.io -->
<!DOCTYPE svg PUBLIC "-//W3C//DTD SVG 1.1//EN" "http://www.w3.org/Graphics/SVG/1.1/DTD/svg11.dtd">
<svg version="1.1" xmlns="http://www.w3.org/2000/svg" xmlns:xlink="http://www.w3.org/1999/xlink" width="32" height="32" viewBox="0 0 32 32">
<path fill="#444444" d="M12.416 10.099l-0-0c0 0-0-0.004-0.002-0.027-0.004-0.068-0.014-0.254-0.014-0.518-0.004-0.744 0.088-2.122 0.521-3.179 0.213-0.531 0.5-0.968 0.848-1.254 0.352-0.284 0.758-0.461 1.414-0.467h0.407c0 0 1.127 0 1.128 0h0.030c0.663 0.006 1.070 0.19 1.428 0.486 0.532 0.441 0.92 1.274 1.126 2.174 0.211 0.893 0.254 1.814 0.253 2.342 0 0.148-0.003 0.266-0.006 0.345-0.002 0.039-0.003 0.069-0.004 0.087s-0.001 0.022-0.001 0.022l1.919 0.128c0.001-0.018 0.015-0.233 0.015-0.582-0.004-0.833-0.069-2.409-0.65-3.909-0.294-0.748-0.727-1.493-1.405-2.072-0.673-0.581-1.604-0.951-2.675-0.945h-0.030c-0 0-1.128 0-1.128 0h-0.407c-1.053-0.006-1.969 0.346-2.64 0.908-1.011 0.847-1.488 2.033-1.756 3.122-0.264 1.096-0.31 2.136-0.311 2.793 0 0.414 0.020 0.674 0.021 0.694l1.918-0.148zM24.023 11.895h-16.089l-1.252 17.367h18.593l-1.252-17.367z"></path>
</svg>
