<?xml version="1.0" encoding="utf-8"?>
<!-- Generated by IcoMoon.io -->
<!DOCTYPE svg PUBLIC "-//W3C//DTD SVG 1.1//EN" "http://www.w3.org/Graphics/SVG/1.1/DTD/svg11.dtd">
<svg version="1.1" xmlns="http://www.w3.org/2000/svg" xmlns:xlink="http://www.w3.org/1999/xlink" width="32" height="32" viewBox="0 0 32 32">
<path fill="#444444" d="M12.448 13.752c0-0.75 0.225-1.462 0.644-2.063h-10.381v4.118h10.377c-0.415-0.6-0.64-1.309-0.64-2.054zM23.266 11.689l-4.116 4.118h10.184v-4.118h-6.068zM7.177 29.431h17.692l2.553-11.314h-22.795l2.551 11.314zM16.074 15.807c0.529 0 1.059-0.202 1.463-0.604l8.924-8.923c0.809-0.808 0.807-2.118 0-2.926s-2.118-0.807-2.927 0l-8.923 8.924c-0.807 0.807-0.807 2.118 0 2.924 0.405 0.404 0.934 0.606 1.464 0.606z"></path>
</svg>
