<?xml version="1.0" encoding="utf-8"?>
<!-- Generated by IcoMoon.io -->
<!DOCTYPE svg PUBLIC "-//W3C//DTD SVG 1.1//EN" "http://www.w3.org/Graphics/SVG/1.1/DTD/svg11.dtd">
<svg version="1.1" xmlns="http://www.w3.org/2000/svg" xmlns:xlink="http://www.w3.org/1999/xlink" width="32" height="32" viewBox="0 0 32 32">
<path fill="#444444" d="M25.562 25c-1.111 0-2.011 0.9-2.011 2.011s0.901 2.012 2.011 2.012c1.111 0 2.012-0.901 2.012-2.012s-0.901-2.011-2.012-2.011zM9.741 25c-1.111 0-2.011 0.9-2.011 2.011s0.9 2.012 2.011 2.012c1.111 0 2.012-0.901 2.012-2.012s-0.901-2.011-2.012-2.011zM24.17 16.972l4.589-4.589v-6.277h-19.701l-1.147-3.131h-3.316c-0.821 0-1.487 0.665-1.487 1.487s0.666 1.486 1.487 1.486h1.239l4.003 10.925-2.132 6.608h19.315c0.821 0 1.486-0.666 1.486-1.486s-0.666-1.487-1.486-1.487h-15.231l1.14-3.535h11.242z"></path>
</svg>
