<?xml version="1.0" encoding="utf-8"?>
<!-- Generated by IcoMoon.io -->
<!DOCTYPE svg PUBLIC "-//W3C//DTD SVG 1.1//EN" "http://www.w3.org/Graphics/SVG/1.1/DTD/svg11.dtd">
<svg version="1.1" xmlns="http://www.w3.org/2000/svg" xmlns:xlink="http://www.w3.org/1999/xlink" width="32" height="32" viewBox="0 0 32 32">
<path fill="#444444" d="M21.307 5.593h-10.567c-0.834 0-1.51 0.677-1.51 1.51v19.294l8.901 0.002 4.686-4.686v-14.61c0-0.834-0.677-1.51-1.509-1.51zM17.208 16.986h-2.485v-5.669h5.713v2.486h-3.227v3.183zM11.382 11.317h2.249v2.486h-2.249v-2.486zM14.722 10.227v-2.295h2.485v2.295h-2.485zM20.435 9.088v1.138h-2.137v-2.295h0.979c0.639 0 1.158 0.518 1.158 1.157zM12.539 7.932h1.092v2.295h-2.249v-1.138c0-0.639 0.518-1.157 1.157-1.157zM11.382 15.829v-0.934h2.249v2.091h-1.092c-0.639-0-1.157-0.519-1.157-1.157zM19.277 16.986h-0.979v-2.092h2.137v0.935c0 0.638-0.519 1.157-1.158 1.157z"></path>
</svg>
