<?xml version="1.0" encoding="utf-8"?>
<!-- Generated by IcoMoon.io -->
<!DOCTYPE svg PUBLIC "-//W3C//DTD SVG 1.1//EN" "http://www.w3.org/Graphics/SVG/1.1/DTD/svg11.dtd">
<svg version="1.1" xmlns="http://www.w3.org/2000/svg" xmlns:xlink="http://www.w3.org/1999/xlink" width="32" height="32" viewBox="0 0 32 32">
<path fill="#444444" d="M17.462 23.259v0.002c-0.012 1.635-1.489 3.235-3.607 3.767-2.41 0.603-4.74-0.407-5.202-2.256s1.116-3.838 3.526-4.441c1.085-0.272 2.152-0.212 3.041 0.1l-0.002-16.080 1.729 0.005c0 0-0.11 1.281 1.447 2.839 1.735 1.733 5.403 2.679 5.116 6.992-0.149 2.222-2.005 5.68-2.005 5.68l-0.629-0.63c0 0 0.456-1.014 0.871-4.020 0.417-3.004-4.284-3.597-4.284-3.597v11.64z"></path>
</svg>
