<?xml version="1.0" encoding="utf-8"?>
<!-- Generated by IcoMoon.io -->
<!DOCTYPE svg PUBLIC "-//W3C//DTD SVG 1.1//EN" "http://www.w3.org/Graphics/SVG/1.1/DTD/svg11.dtd">
<svg version="1.1" xmlns="http://www.w3.org/2000/svg" xmlns:xlink="http://www.w3.org/1999/xlink" width="32" height="32" viewBox="0 0 32 32">
<path fill="#444444" d="M25.132 18.444c0.324-0.962 1.586-2.908 1.586-6.22s-4.094-8.196-10.695-8.196c-6.602 0-10.692 4.884-10.692 8.196s1.26 5.258 1.583 6.22c0.657 1.963-0.129 2.923-0.129 2.923s0.235 2.023 0.879 2.916c0.645 0.892 3.795-0.595 3.795 2.775 0 0 1.266 0.904 4.593 0.904 3.325 0 4.535-0.904 4.535-0.904 0-3.37 3.151-1.882 3.796-2.775s0.879-2.916 0.879-2.916-0.787-0.96-0.131-2.923zM12.796 20.988c-0.703 0.381-1.853 0.694-2.556 0.694s-1.433-0.459-1.621-1.017c-0.189-0.559-0.24-1.58-0.117-2.269 0.124-0.687 0.978-1.499 1.901-1.804s2.114-0.24 2.652 0.143c0.536 0.384 0.983 1.343 0.996 2.13s-0.553 1.743-1.256 2.124zM16.022 24.39c-1.155 0-1.424-0.427-1.424-0.427s0.118-3.417 1.424-3.417c1.306 0 1.426 3.417 1.426 3.417s-0.271 0.427-1.426 0.427zM23.427 20.665c-0.187 0.559-0.917 1.017-1.62 1.017s-1.854-0.312-2.557-0.694c-0.703-0.381-1.268-1.337-1.255-2.124s0.461-1.746 0.996-2.13c0.537-0.383 1.729-0.448 2.651-0.143 0.923 0.305 1.778 1.117 1.902 1.804 0.123 0.689 0.071 1.71-0.117 2.269z"></path>
</svg>
