<?xml version="1.0" encoding="utf-8"?>
<!-- Generated by IcoMoon.io -->
<!DOCTYPE svg PUBLIC "-//W3C//DTD SVG 1.1//EN" "http://www.w3.org/Graphics/SVG/1.1/DTD/svg11.dtd">
<svg version="1.1" xmlns="http://www.w3.org/2000/svg" xmlns:xlink="http://www.w3.org/1999/xlink" width="32" height="32" viewBox="0 0 32 32">
<path fill="#444444" d="M25.842 17.83c0.078-0.495 0.119-1.001 0.119-1.518 0-5.372-4.355-9.726-9.727-9.726-0.516 0-1.023 0.041-1.518 0.119-0.897-0.554-1.954-0.875-3.086-0.875-3.247 0-5.879 2.632-5.879 5.879 0 1.132 0.321 2.189 0.875 3.086-0.077 0.495-0.119 1.001-0.119 1.518 0 5.372 4.354 9.727 9.726 9.727 0.516 0 1.023-0.041 1.518-0.119 0.897 0.554 1.954 0.875 3.086 0.875 3.247 0 5.879-2.632 5.879-5.879 0-1.132-0.321-2.189-0.875-3.086zM20.852 20.735c-0.412 0.592-1.016 1.055-1.806 1.388-0.791 0.334-1.727 0.5-2.807 0.5-1.295 0-2.366-0.227-3.213-0.683-0.6-0.328-1.089-0.767-1.464-1.316s-0.565-1.085-0.565-1.608c-0-0.309 0.117-0.578 0.348-0.797s0.528-0.33 0.881-0.33c0.288 0 0.536 0.087 0.738 0.259 0.2 0.171 0.368 0.423 0.506 0.751 0.165 0.384 0.344 0.703 0.535 0.959 0.188 0.253 0.454 0.462 0.799 0.628 0.342 0.164 0.796 0.248 1.363 0.248 0.778 0 1.406-0.168 1.887-0.501 0.482-0.334 0.716-0.741 0.716-1.233-0-0.392-0.127-0.705-0.383-0.948-0.259-0.245-0.593-0.434-1.008-0.564-0.417-0.132-0.976-0.272-1.677-0.421-0.941-0.205-1.729-0.444-2.366-0.718-0.638-0.275-1.147-0.652-1.523-1.129-0.378-0.48-0.567-1.077-0.567-1.784 0-0.676 0.199-1.279 0.597-1.805s0.973-0.929 1.722-1.209c0.749-0.28 1.628-0.42 2.637-0.42 0.806 0 1.503 0.093 2.095 0.279 0.589 0.186 1.080 0.433 1.472 0.744 0.389 0.308 0.677 0.634 0.858 0.976s0.273 0.677 0.273 1.005c0 0.303-0.117 0.58-0.347 0.82-0.23 0.243-0.523 0.366-0.865 0.365-0.309 0-0.552-0.072-0.72-0.223-0.163-0.146-0.336-0.379-0.522-0.703-0.235-0.453-0.517-0.804-0.843-1.056-0.32-0.247-0.845-0.375-1.578-0.375-0.678 0-1.22 0.138-1.629 0.41-0.411 0.275-0.608 0.594-0.609 0.968 0.001 0.234 0.068 0.432 0.204 0.601 0.138 0.171 0.329 0.318 0.574 0.444 0.247 0.125 0.497 0.224 0.749 0.294 0.254 0.071 0.676 0.176 1.264 0.313 0.738 0.16 1.406 0.337 2.005 0.53 0.6 0.194 1.112 0.43 1.535 0.708 0.424 0.279 0.757 0.633 0.995 1.061 0.239 0.43 0.358 0.954 0.358 1.571 0 0.742-0.206 1.41-0.618 2.002z"></path>
</svg>
