<?xml version="1.0" encoding="utf-8"?>
<!-- Generated by IcoMoon.io -->
<!DOCTYPE svg PUBLIC "-//W3C//DTD SVG 1.1//EN" "http://www.w3.org/Graphics/SVG/1.1/DTD/svg11.dtd">
<svg version="1.1" xmlns="http://www.w3.org/2000/svg" xmlns:xlink="http://www.w3.org/1999/xlink" width="32" height="32" viewBox="0 0 32 32">
<path fill="#444444" d="M16.429 4.481v-2.28h-1.565v2.28h-12.618v4.037h1.384v15.244h9.643l-5.866 4.804 0.991 1.211 7.345-6.015h0.052l7.345 6.015 0.991-1.211-5.867-4.803h9.605v-15.244h1.668v-4.037h-13.109zM26.305 22.197h-21.11v-13.679h21.11v13.679zM10.332 18.673v-4.068h4.068c0-2.246-1.821-4.068-4.068-4.068s-4.067 1.821-4.067 4.068c0 2.247 1.821 4.068 4.067 4.068zM11.475 19.782c2.246 0 4.068-1.821 4.068-4.068h-4.068v4.068zM23.916 11.431h-5.203v1.565h5.203v-1.565zM23.916 14.303h-5.203v1.565h5.203v-1.565zM23.916 17.175h-5.203v1.565h5.203v-1.565z"></path>
</svg>
