<?xml version="1.0" encoding="utf-8"?>
<!-- Generated by IcoMoon.io -->
<!DOCTYPE svg PUBLIC "-//W3C//DTD SVG 1.1//EN" "http://www.w3.org/Graphics/SVG/1.1/DTD/svg11.dtd">
<svg version="1.1" xmlns="http://www.w3.org/2000/svg" xmlns:xlink="http://www.w3.org/1999/xlink" width="32" height="32" viewBox="0 0 32 32">
<path fill="#444444" d="M16.025 2.4c-7.505 0-13.588 6.082-13.588 13.587 0 7.503 6.083 13.59 13.588 13.59s13.59-6.087 13.59-13.59c-0-7.505-6.085-13.587-13.59-13.587zM17.835 11.441c0-0.819 0.662-1.481 1.48-1.481s1.48 0.663 1.48 1.481v3.071c0 0.817-0.662 1.48-1.48 1.48s-1.48-0.662-1.48-1.48v-3.071zM11.254 11.441c0-0.819 0.662-1.481 1.48-1.481s1.482 0.663 1.482 1.481v3.071c0 0.817-0.664 1.48-1.482 1.48s-1.48-0.662-1.48-1.48v-3.071zM24.686 20.612c-0.151 0.153-0.349 0.229-0.55 0.229s-0.401-0.076-0.552-0.229l-0.247-0.248c-0.284 0.461-0.703 1.045-1.281 1.638-1.206 1.246-3.158 2.514-5.925 2.514h-0.012c-2.774 0.002-4.768-1.265-6.023-2.504-0.607-0.598-1.050-1.188-1.351-1.648l-0.28 0.279c-0.151 0.153-0.351 0.229-0.55 0.229-0.2 0-0.399-0.076-0.552-0.229-0.302-0.302-0.302-0.797 0-1.102l1.596-1.595c0.304-0.306 0.797-0.306 1.102 0 0.304 0.303 0.304 0.798 0 1.101l-0.258 0.256c1.786 1.535 4 2.303 6.22 2.303 2.228 0 4.449-0.774 6.242-2.315l-0.276-0.276c-0.304-0.304-0.304-0.798 0-1.101s0.797-0.304 1.102 0l1.596 1.595c0.305 0.305 0.305 0.799-0 1.102z"></path>
</svg>
