<?xml version="1.0" encoding="utf-8"?>
<!-- Generated by IcoMoon.io -->
<!DOCTYPE svg PUBLIC "-//W3C//DTD SVG 1.1//EN" "http://www.w3.org/Graphics/SVG/1.1/DTD/svg11.dtd">
<svg version="1.1" xmlns="http://www.w3.org/2000/svg" xmlns:xlink="http://www.w3.org/1999/xlink" width="32" height="32" viewBox="0 0 32 32">
<path fill="#444444" d="M15.977 2.381c-7.504 0-13.589 6.085-13.589 13.589 0 7.503 6.085 13.59 13.589 13.59s13.589-6.087 13.589-13.59c0-7.505-6.084-13.589-13.588-13.589zM15.977 28.001c-6.633 0-12.030-5.398-12.030-12.030 0-6.634 5.397-12.032 12.030-12.032s12.031 5.398 12.031 12.032c0 6.632-5.398 12.030-12.031 12.030zM19.268 15.973c0.817 0 1.48-0.66 1.48-1.478v-3.074c0-0.818-0.662-1.48-1.48-1.48s-1.481 0.662-1.481 1.48v3.074c0 0.818 0.663 1.478 1.481 1.478zM12.688 15.973c0.816 0 1.481-0.66 1.481-1.478v-3.074c0-0.818-0.664-1.48-1.481-1.48-0.819 0-1.48 0.662-1.48 1.48v3.074c0 0.818 0.661 1.478 1.48 1.478zM24.639 19.495l-1.596-1.597c-0.305-0.302-0.798-0.302-1.103 0-0.303 0.305-0.303 0.797 0 1.1l0.276 0.276c-1.791 1.543-4.013 2.316-6.241 2.316-2.221 0-4.433-0.769-6.221-2.302l0.259-0.257c0.304-0.305 0.304-0.797 0-1.104-0.305-0.302-0.798-0.302-1.104 0l-1.594 1.598c-0.304 0.303-0.304 0.797 0 1.102 0.153 0.151 0.351 0.229 0.551 0.229s0.4-0.078 0.552-0.229l0.278-0.28c0.302 0.46 0.746 1.051 1.352 1.649 1.254 1.238 3.249 2.504 6.021 2.502h0.011c2.77 0 4.72-1.267 5.928-2.514 0.578-0.591 0.996-1.179 1.281-1.637l0.247 0.249c0.151 0.151 0.35 0.227 0.551 0.227s0.4-0.076 0.551-0.227c0.303-0.304 0.303-0.799-0-1.101z"></path>
</svg>
