<?xml version="1.0" encoding="utf-8"?>
<!-- Generated by IcoMoon.io -->
<!DOCTYPE svg PUBLIC "-//W3C//DTD SVG 1.1//EN" "http://www.w3.org/Graphics/SVG/1.1/DTD/svg11.dtd">
<svg version="1.1" xmlns="http://www.w3.org/2000/svg" xmlns:xlink="http://www.w3.org/1999/xlink" width="32" height="32" viewBox="0 0 32 32">
<path fill="#444444" d="M9.821 17.903h12.39c2.222 0 4.018-1.801 4.018-4.020 0-1.8-1.181-3.32-2.808-3.833 0.1-0.39 0.155-0.799 0.155-1.221 0-2.661-2.156-4.817-4.817-4.817-2.001 0-3.716 1.219-4.443 2.955-0.627-0.736-1.557-1.202-2.6-1.202-1.883 0-3.407 1.527-3.407 3.409 0 0.324 0.045 0.637 0.129 0.934-1.539 0.563-2.634 2.041-2.634 3.775 0 2.219 1.797 4.020 4.018 4.020zM24.684 24.842h-0.167l0.119-0.119c0.262-0.263 0.262-0.69 0-0.952-0.264-0.263-0.691-0.263-0.953 0l-0.119 0.119v-0.168c0-0.372-0.303-0.675-0.674-0.675s-0.675 0.303-0.675 0.675v0.168l-0.119-0.119c-0.261-0.263-0.689-0.263-0.952 0-0.262 0.262-0.262 0.69 0 0.952l0.119 0.119h-0.168c-0.372 0-0.673 0.302-0.673 0.673 0 0.373 0.301 0.674 0.673 0.674h0.168l-0.119 0.119c-0.262 0.263-0.262 0.69 0 0.953 0.131 0.132 0.305 0.197 0.478 0.197 0.172 0 0.343-0.065 0.474-0.197l0.119-0.118v0.167c0 0.372 0.303 0.674 0.675 0.674s0.674-0.302 0.674-0.674v-0.167l0.119 0.118c0.131 0.132 0.302 0.197 0.476 0.197 0.172 0 0.343-0.065 0.476-0.197 0.262-0.263 0.262-0.69 0-0.953l-0.119-0.119h0.167c0.372 0 0.673-0.3 0.673-0.673 0-0.371-0.3-0.674-0.673-0.674zM11.068 24.842h-0.166l0.118-0.119c0.262-0.263 0.262-0.69 0-0.952-0.264-0.264-0.691-0.264-0.954 0l-0.118 0.119v-0.168c0-0.372-0.301-0.675-0.672-0.675s-0.672 0.303-0.672 0.675v0.168l-0.121-0.119c-0.264-0.264-0.691-0.264-0.952 0-0.264 0.262-0.264 0.69 0 0.952l0.119 0.119h-0.168c-0.372 0-0.675 0.302-0.675 0.674s0.303 0.672 0.675 0.672h0.168l-0.119 0.119c-0.264 0.263-0.264 0.69 0 0.953 0.133 0.132 0.304 0.197 0.476 0.197 0.174 0 0.345-0.065 0.476-0.197l0.121-0.119v0.168c0 0.372 0.3 0.673 0.672 0.673s0.672-0.301 0.672-0.673v-0.168l0.118 0.119c0.133 0.132 0.304 0.197 0.476 0.197 0.174 0 0.345-0.065 0.478-0.197 0.262-0.263 0.262-0.69 0-0.953l-0.121-0.119h0.168c0.372 0 0.675-0.3 0.675-0.672s-0.303-0.675-0.675-0.675zM18.003 21.412h-0.168l0.119-0.119c0.264-0.262 0.264-0.689 0-0.952s-0.689-0.264-0.952 0l-0.119 0.119v-0.169c0-0.372-0.302-0.673-0.675-0.673-0.37 0-0.672 0.301-0.672 0.673v0.168l-0.121-0.119c-0.262-0.264-0.689-0.264-0.953 0-0.262 0.264-0.262 0.69 0 0.952l0.121 0.119h-0.168c-0.372 0-0.674 0.301-0.674 0.673s0.303 0.674 0.674 0.674h0.168l-0.121 0.119c-0.262 0.262-0.262 0.69 0 0.953 0.133 0.131 0.305 0.197 0.478 0.197 0.172 0 0.345-0.067 0.474-0.197l0.121-0.119v0.169c0 0.373 0.303 0.674 0.672 0.674 0.372 0 0.675-0.301 0.675-0.674v-0.169l0.119 0.119c0.131 0.131 0.304 0.197 0.476 0.197 0.174 0 0.343-0.067 0.476-0.197 0.264-0.263 0.264-0.691 0-0.953l-0.119-0.119h0.168c0.372 0 0.675-0.302 0.675-0.674s-0.303-0.673-0.675-0.673z"></path>
</svg>
