<?xml version="1.0" encoding="utf-8"?>
<!-- Generated by IcoMoon.io -->
<!DOCTYPE svg PUBLIC "-//W3C//DTD SVG 1.1//EN" "http://www.w3.org/Graphics/SVG/1.1/DTD/svg11.dtd">
<svg version="1.1" xmlns="http://www.w3.org/2000/svg" xmlns:xlink="http://www.w3.org/1999/xlink" width="32" height="32" viewBox="0 0 32 32">
<path fill="#444444" d="M28.84 16.697c0-0.383-0.415-0.697-0.922-0.697s-1.105-0.218-1.329-0.485-0.407-0.994-0.407-1.615c0-0.622-0.502-1.13-1.115-1.13s-1.115 0.508-1.115 1.13c0 0.621-0.308 1.13-0.684 1.13s-0.684-0.534-0.684-1.186v-1.552c0-0.652-0.502-1.185-1.116-1.185s-1.115 0.533-1.115 1.185v1.552c0 0.652-0.308 1.186-0.684 1.186s-0.684-0.534-0.684-1.186v-3.926c0-0.652-0.502-1.186-1.116-1.186s-1.115 0.534-1.115 1.186v3.926c0 0.652-0.308 1.186-0.684 1.186s-0.684-0.534-0.684-1.186v-1.552c0-0.652-0.502-1.185-1.115-1.185s-1.115 0.533-1.115 1.185v1.552c0 0.652-0.308 1.186-0.684 1.186s-0.684-0.534-0.684-1.186v-6.14c0-0.652-0.502-1.186-1.115-1.186s-1.115 0.534-1.115 1.186v6.14c0 0.652-0.308 1.186-0.684 1.186s-0.684-0.509-0.684-1.13c0-0.622-0.502-1.13-1.115-1.13s-1.115 0.508-1.115 1.13c0 0.621-0.157 1.348-0.349 1.615s-0.821 0.485-1.399 0.485-1.049 0.314-1.049 0.697c0 0.384 0.472 0.697 1.049 0.697s1.206 0.218 1.399 0.485c0.192 0.267 0.349 0.994 0.349 1.615s0.502 1.13 1.115 1.13c0.613 0 1.115-0.509 1.115-1.13s0.308-1.13 0.684-1.13c0.376 0 0.684 0.534 0.684 1.186v4.746c0 0.652 0.502 1.186 1.115 1.186s1.115-0.534 1.115-1.186v-4.746c0-0.652 0.308-1.186 0.684-1.186s0.684 0.534 0.684 1.186v1.552c0 0.652 0.502 1.186 1.115 1.186s1.115-0.534 1.115-1.186v-1.552c0-0.652 0.308-1.186 0.684-1.186s0.684 0.534 0.684 1.186v3.926c0 0.652 0.502 1.186 1.115 1.186s1.116-0.534 1.116-1.186v-3.926c0-0.652 0.308-1.186 0.684-1.186s0.684 0.534 0.684 1.186v1.552c0 0.652 0.502 1.186 1.115 1.186s1.116-0.534 1.116-1.186v-1.552c0-0.652 0.308-1.186 0.684-1.186s0.684 0.509 0.684 1.13c0 0.622 0.502 1.13 1.115 1.13s1.115-0.509 1.115-1.13c0-0.621 0.183-1.348 0.407-1.615s0.822-0.485 1.329-0.485c0.507 0 0.922-0.314 0.922-0.697z"></path>
</svg>
