<?xml version="1.0" encoding="utf-8"?>
<!-- Generated by IcoMoon.io -->
<!DOCTYPE svg PUBLIC "-//W3C//DTD SVG 1.1//EN" "http://www.w3.org/Graphics/SVG/1.1/DTD/svg11.dtd">
<svg version="1.1" xmlns="http://www.w3.org/2000/svg" xmlns:xlink="http://www.w3.org/1999/xlink" width="32" height="32" viewBox="0 0 32 32">
<path fill="#444444" d="M7.625 12.412v7.068h3.177l7.098 5.268v-17.605l-7.098 5.268h-3.177zM21.632 9.474c-0.417-0.417-1.093-0.417-1.51 0s-0.417 1.093 0.001 1.51h-0.001c1.371 1.372 2.054 3.16 2.055 4.957-0.001 1.802-0.682 3.593-2.055 4.968-0.417 0.417-0.417 1.093 0.001 1.51 0.208 0.208 0.481 0.312 0.754 0.313s0.547-0.105 0.755-0.313c1.787-1.786 2.682-4.138 2.68-6.478 0.001-2.338-0.897-4.684-2.681-6.467z"></path>
</svg>
