<?xml version="1.0" encoding="utf-8"?>
<!-- Generated by IcoMoon.io -->
<!DOCTYPE svg PUBLIC "-//W3C//DTD SVG 1.1//EN" "http://www.w3.org/Graphics/SVG/1.1/DTD/svg11.dtd">
<svg version="1.1" xmlns="http://www.w3.org/2000/svg" xmlns:xlink="http://www.w3.org/1999/xlink" width="32" height="32" viewBox="0 0 32 32">
<path fill="#444444" d="M5.217 12.475v7.068h3.177l7.098 5.268v-17.605l-7.098 5.268h-3.178zM19.224 9.537c-0.418-0.417-1.093-0.417-1.51 0s-0.417 1.093 0 1.51h-0c1.371 1.372 2.054 3.16 2.055 4.957-0.001 1.802-0.682 3.593-2.055 4.968-0.417 0.417-0.417 1.093 0 1.51 0.209 0.208 0.482 0.313 0.755 0.313s0.547-0.104 0.755-0.313c1.786-1.787 2.681-4.138 2.68-6.477 0.001-2.338-0.898-4.684-2.681-6.467zM22.596 6.156c-0.417-0.417-1.093-0.417-1.51 0s-0.417 1.093 0 1.51h-0c2.302 2.303 3.455 5.31 3.456 8.326-0.001 3.030-1.146 6.050-3.456 8.361-0.417 0.417-0.417 1.093 0 1.51 0.208 0.208 0.481 0.312 0.755 0.312s0.546-0.105 0.755-0.313c2.723-2.724 4.082-6.304 4.081-9.87 0.001-3.559-1.368-7.123-4.081-9.836z"></path>
</svg>
