<?xml version="1.0" encoding="utf-8"?>
<!-- Generated by IcoMoon.io -->
<!DOCTYPE svg PUBLIC "-//W3C//DTD SVG 1.1//EN" "http://www.w3.org/Graphics/SVG/1.1/DTD/svg11.dtd">
<svg version="1.1" xmlns="http://www.w3.org/2000/svg" xmlns:xlink="http://www.w3.org/1999/xlink" width="32" height="32" viewBox="0 0 32 32">
<path fill="#444444" d="M2.725 12.516v7.069h3.177l7.098 5.268v-17.605l-7.098 5.268h-3.177zM16.732 9.578c-0.417-0.417-1.093-0.417-1.51 0s-0.417 1.092 0 1.509h-0c1.371 1.372 2.054 3.16 2.055 4.957-0.001 1.802-0.682 3.594-2.055 4.968-0.417 0.417-0.417 1.093 0 1.51 0.208 0.208 0.482 0.312 0.755 0.312s0.547-0.104 0.755-0.313c1.786-1.786 2.681-4.138 2.68-6.478 0.001-2.338-0.897-4.684-2.681-6.466zM20.104 6.197c-0.417-0.417-1.093-0.417-1.51 0s-0.417 1.093 0 1.51l-0-0c2.302 2.303 3.455 5.31 3.456 8.326-0.001 3.030-1.147 6.050-3.456 8.36-0.417 0.417-0.417 1.093 0 1.51 0.209 0.208 0.482 0.313 0.755 0.313s0.547-0.104 0.755-0.313c2.723-2.724 4.082-6.304 4.080-9.87 0.001-3.559-1.367-7.123-4.081-9.836zM23.647 2.753c-0.417-0.417-1.093-0.417-1.51 0s-0.417 1.093 0 1.51c3.253 3.254 4.881 7.508 4.882 11.771-0.001 4.276-1.622 8.542-4.882 11.803-0.417 0.417-0.417 1.093 0 1.51 0.209 0.209 0.482 0.313 0.755 0.313s0.546-0.104 0.755-0.313c3.674-3.674 5.509-8.499 5.507-13.313 0.001-4.805-1.843-9.616-5.507-13.281z"></path>
</svg>
