<?xml version="1.0" encoding="utf-8"?>
<!-- Generated by IcoMoon.io -->
<!DOCTYPE svg PUBLIC "-//W3C//DTD SVG 1.1//EN" "http://www.w3.org/Graphics/SVG/1.1/DTD/svg11.dtd">
<svg version="1.1" xmlns="http://www.w3.org/2000/svg" xmlns:xlink="http://www.w3.org/1999/xlink" width="32" height="32" viewBox="0 0 32 32">
<path fill="#444444" d="M16 14.43c-2.843 0-5.156 2.313-5.156 5.156s2.313 5.156 5.156 5.156 5.156-2.313 5.156-5.156c0-2.843-2.313-5.156-5.156-5.156zM16 21.761c-1.201 0-2.175-0.974-2.175-2.175s0.974-2.175 2.175-2.175c1.201 0 2.175 0.974 2.175 2.175s-0.974 2.175-2.175 2.175z"></path>
<path fill="#444444" d="M23.807 3.078h-15.614c-0.694 0-1.257 0.563-1.257 1.257v24.586h18.129v-24.586c-0-0.694-0.563-1.257-1.258-1.257zM16 6.719c0.978 0 1.771 0.793 1.771 1.771s-0.793 1.771-1.771 1.771c-0.978 0-1.771-0.793-1.771-1.771s0.793-1.771 1.771-1.771zM16 26.56c-3.845 0-6.974-3.128-6.974-6.974s3.129-6.974 6.974-6.974c3.845 0 6.974 3.129 6.974 6.974s-3.128 6.974-6.974 6.974z"></path>
</svg>
