<?xml version="1.0" encoding="utf-8"?>
<!-- Generated by IcoMoon.io -->
<!DOCTYPE svg PUBLIC "-//W3C//DTD SVG 1.1//EN" "http://www.w3.org/Graphics/SVG/1.1/DTD/svg11.dtd">
<svg version="1.1" xmlns="http://www.w3.org/2000/svg" xmlns:xlink="http://www.w3.org/1999/xlink" width="32" height="32" viewBox="0 0 32 32">
<path fill="#444444" d="M15.987 6.37c-7.518 0-13.608 6.093-13.61 13.61 0.004 1.108 0.053 2.010 0.294 2.823 0.178 0.605 0.501 1.169 0.983 1.593 0.732 0.637 1.668 0.904 2.829 1.053 1.167 0.148 2.618 0.176 4.513 0.176 1.406 0 3.052-0.014 4.991-0.014s3.585 0.014 4.991 0.014c1.682 0 3.017-0.020 4.112-0.131 0.822-0.082 1.515-0.209 2.127-0.446 0.46-0.178 0.879-0.427 1.218-0.764 0.519-0.502 0.816-1.166 0.967-1.871 0.153-0.712 0.192-1.5 0.194-2.434-0.002-7.517-6.094-13.61-13.609-13.61zM17.25 9.135c0.693 0.080 1.367 0.229 2.013 0.438l-0.444 1.374c-0.558-0.18-1.14-0.309-1.741-0.379l0.172-1.433zM6.834 19.723h-1.445c0-0.7 0.069-1.387 0.196-2.051l1.418 0.276c-0.112 0.574-0.17 1.167-0.17 1.775zM7.631 15.966l-1.318-0.586c0.282-0.634 0.623-1.235 1.020-1.795l1.18 0.832c-0.341 0.486-0.638 1.003-0.881 1.549zM9.894 12.863l-0.967-1.073c0.511-0.458 1.065-0.871 1.66-1.224l0.742 1.239c-0.513 0.307-0.993 0.66-1.435 1.059zM12.778 9.573c0.646-0.208 1.318-0.358 2.013-0.438l0.17 1.433c-0.599 0.069-1.181 0.198-1.741 0.379l-0.442-1.374zM17.785 22.582l-3.407 0.607-0.866-3.352 8.803-9.003-4.529 11.748zM23.526 14.417l1.179-0.832c0.396 0.56 0.74 1.161 1.022 1.795v0l-1.318 0.586c-0.245-0.546-0.54-1.063-0.883-1.549zM25.207 19.723c0-0.608-0.059-1.201-0.172-1.775l1.418-0.276c0.129 0.664 0.196 1.351 0.196 2.051h-1.443zM15.208 21.894c0.595 0.381 1.384 0.21 1.766-0.383 0.38-0.592 0.206-1.383-0.386-1.764-0.593-0.382-1.382-0.208-1.764 0.387-0.38 0.589-0.21 1.382 0.384 1.761z"></path>
</svg>
