<?xml version="1.0" encoding="utf-8"?>
<!-- Generated by IcoMoon.io -->
<!DOCTYPE svg PUBLIC "-//W3C//DTD SVG 1.1//EN" "http://www.w3.org/Graphics/SVG/1.1/DTD/svg11.dtd">
<svg version="1.1" xmlns="http://www.w3.org/2000/svg" xmlns:xlink="http://www.w3.org/1999/xlink" width="32" height="32" viewBox="0 0 32 32">
<path fill="#444444" d="M25.026 21.257v-2.596c-0.008-0.82-0.202-1.526-0.48-2.212-0.288-0.683-0.652-1.32-1.226-1.904l-4.703-4.704c-0.031-0.020-0.221-0.286-0.331-0.569-0.123-0.277-0.176-0.597-0.168-0.636v-5.024h-4.119v5.024c0.008 0.039-0.045 0.359-0.165 0.636-0.11 0.283-0.3 0.549-0.333 0.569l-4.705 4.704c-0.572 0.584-0.934 1.222-1.224 1.904-0.278 0.686-0.472 1.392-0.48 2.212v2.596h-3.563l5.623 7.126 5.623-7.126h-3.563v-2.596c-0.008-0.038 0.043-0.36 0.166-0.636 0.112-0.284 0.3-0.547 0.333-0.568l4.349-4.349 4.349 4.349c0.031 0.021 0.223 0.284 0.333 0.568 0.12 0.279 0.174 0.598 0.165 0.636v2.596h-3.667l5.623 7.126 5.62-7.126h-3.458z"></path>
</svg>
