<?xml version="1.0" encoding="utf-8"?>
<!-- Generated by IcoMoon.io -->
<!DOCTYPE svg PUBLIC "-//W3C//DTD SVG 1.1//EN" "http://www.w3.org/Graphics/SVG/1.1/DTD/svg11.dtd">
<svg version="1.1" xmlns="http://www.w3.org/2000/svg" xmlns:xlink="http://www.w3.org/1999/xlink" width="32" height="32" viewBox="0 0 32 32">
<path fill="#444444" d="M28.491 15.997l-5.124-4.043v2.444h-9.86l5.445-5.317c0.088-0.094 0.399-0.304 0.732-0.433 0.327-0.139 0.697-0.208 0.824-0.202h2.859v2.446l5.124-4.042-5.124-4.041v2.441h-2.859c-0.728 0.008-1.39 0.183-2.029 0.44-0.638 0.264-1.235 0.601-1.76 1.106l-7.137 6.971c-0.088 0.096-0.399 0.301-0.732 0.432-0.323 0.137-0.685 0.204-0.818 0.202h-4.568v3.198h4.685c0.129-0.006 0.497 0.063 0.826 0.201 0.331 0.13 0.642 0.338 0.73 0.434l7.139 6.969c0.525 0.505 1.122 0.84 1.76 1.106 0.64 0.258 1.302 0.432 2.030 0.437h2.735v2.446l5.124-4.043-5.124-4.042v2.445h-2.735c-0.129 0.004-0.497-0.065-0.824-0.202-0.333-0.129-0.644-0.339-0.732-0.433l-5.447-5.318h9.737v2.444l5.124-4.043z"></path>
</svg>
