<?xml version="1.0" encoding="utf-8"?>
<!-- Generated by IcoMoon.io -->
<!DOCTYPE svg PUBLIC "-//W3C//DTD SVG 1.1//EN" "http://www.w3.org/Graphics/SVG/1.1/DTD/svg11.dtd">
<svg version="1.1" xmlns="http://www.w3.org/2000/svg" xmlns:xlink="http://www.w3.org/1999/xlink" width="32" height="32" viewBox="0 0 32 32">
<path fill="#444444" d="M15.785 22.614c-2.731 0-4.064 1.358-6.273 3.609-0.112 0.114-0.227 0.231-0.343 0.349h13.233c-0.119-0.121-0.237-0.241-0.352-0.358-2.204-2.245-3.534-3.601-6.264-3.601z"></path>
<path fill="#444444" d="M19.594 5.428c-2.16 0-3.912 1.751-3.912 3.912v0.038c0-1.508-1.223-2.731-2.731-2.731h-2.26v2.141c0 1.508 1.223 2.731 2.731 2.731h1.178v9.693c0.371-0.051 0.764-0.078 1.184-0.078s0.813 0.026 1.184 0.078v-8.805h1.952c2.16 0 3.912-1.751 3.912-3.912v-3.067h-3.238z"></path>
</svg>
