<?xml version="1.0" encoding="utf-8"?>
<!-- Generated by IcoMoon.io -->
<!DOCTYPE svg PUBLIC "-//W3C//DTD SVG 1.1//EN" "http://www.w3.org/Graphics/SVG/1.1/DTD/svg11.dtd">
<svg version="1.1" xmlns="http://www.w3.org/2000/svg" xmlns:xlink="http://www.w3.org/1999/xlink" width="32" height="32" viewBox="0 0 32 32">
<path fill="#444444" d="M10.425 26.145c-1.76 0-3.191-1.431-3.191-3.191v-13.907c0-0.29-0.236-0.527-0.527-0.527s-0.527 0.236-0.527 0.527v7.894h-2.664v-7.894c0-1.759 1.432-3.191 3.191-3.191s3.191 1.432 3.191 3.191v13.907c0 0.291 0.236 0.527 0.527 0.527s0.527-0.236 0.527-0.527v-12.521c0-1.759 1.431-3.191 3.191-3.191s3.191 1.431 3.191 3.191v11.058c0 0.291 0.236 0.527 0.527 0.527s0.527-0.236 0.527-0.527v-9.645h-0.003c0-1.759 1.431-3.191 3.191-3.191s3.191 1.432 3.191 3.191v8.36c0 0.291 0.236 0.527 0.527 0.527s0.527-0.236 0.527-0.527v-4.106h2.664v4.106c0 1.759-1.431 3.191-3.191 3.191s-3.191-1.431-3.191-3.191v-8.36c0-0.291-0.236-0.527-0.527-0.527-0.272 0-0.497 0.207-0.524 0.472v9.7c0 1.759-1.431 3.191-3.191 3.191-1.734 0-3.149-1.39-3.19-3.115h-0.001v-11.134c0-0.291-0.236-0.527-0.527-0.527s-0.527 0.236-0.527 0.527v12.52c-0 1.759-1.431 3.191-3.191 3.191v0z"></path>
</svg>
