<?xml version="1.0" encoding="utf-8"?>
<!-- Generated by IcoMoon.io -->
<!DOCTYPE svg PUBLIC "-//W3C//DTD SVG 1.1//EN" "http://www.w3.org/Graphics/SVG/1.1/DTD/svg11.dtd">
<svg version="1.1" xmlns="http://www.w3.org/2000/svg" xmlns:xlink="http://www.w3.org/1999/xlink" width="32" height="32" viewBox="0 0 32 32">
<path fill="#444444" d="M2.286 16.855v5.328h0.74l-0.001 0.003 26.739-0.003v-5.328h-27.477zM5.784 20.736h-1.556v-2.104h1.556v2.104zM9.595 20.736h-1.557v-2.104h1.557v2.104zM13.406 20.736h-1.557v-2.104h1.557v2.104zM26.659 20.823c-0.678 0-1.228-0.55-1.228-1.228s0.551-1.229 1.228-1.229c0.679 0 1.228 0.551 1.228 1.229s-0.55 1.228-1.228 1.228zM24.208 2.623h-16.372l-4.811 12.317h25.999l-4.815-12.317zM2.286 29.43h27.477v-5.328h-27.477v5.328zM26.659 25.613c0.679 0 1.228 0.55 1.228 1.227 0 0.679-0.55 1.229-1.228 1.229s-1.228-0.55-1.228-1.229c0-0.678 0.551-1.227 1.228-1.227zM11.849 25.878h1.557v2.105h-1.557v-2.105zM8.038 25.878h1.557v2.105h-1.557v-2.105zM4.227 25.878h1.556v2.105h-1.556v-2.105z"></path>
</svg>
