<?xml version="1.0" encoding="utf-8"?>
<!-- Generated by IcoMoon.io -->
<!DOCTYPE svg PUBLIC "-//W3C//DTD SVG 1.1//EN" "http://www.w3.org/Graphics/SVG/1.1/DTD/svg11.dtd">
<svg version="1.1" xmlns="http://www.w3.org/2000/svg" xmlns:xlink="http://www.w3.org/1999/xlink" width="32" height="32" viewBox="0 0 32 32">
<path fill="#444444" d="M9.602 9.602h12.795v12.795h-12.795v-12.795z"></path>
<path fill="#444444" d="M24.097 27.228c0 0.182 0.189 0.336 0.413 0.336h2.607c0.224 0 0.413-0.189 0.413-0.413v-2.606c0-0.243-0.159-0.413-0.301-0.413-0.855 0-1.551-0.703-1.551-1.567s0.696-1.567 1.551-1.567c0.089 0 0.156-0.060 0.188-0.096 0.072-0.081 0.113-0.196 0.113-0.317v-2.606c0-0.243-0.159-0.413-0.301-0.413-0.855 0-1.551-0.703-1.551-1.567s0.696-1.567 1.551-1.567c0.143 0 0.301-0.169 0.301-0.413v-2.606c0-0.243-0.159-0.413-0.301-0.413-0.855 0-1.551-0.703-1.551-1.567s0.696-1.567 1.551-1.567c0.143 0 0.301-0.17 0.301-0.413v-2.606c0-0.224-0.189-0.413-0.413-0.413h-2.607c-0.224 0-0.413 0.159-0.413 0.348 0 0.881-0.698 1.598-1.555 1.598s-1.555-0.717-1.555-1.598c0-0.188-0.189-0.348-0.413-0.348h-2.607c-0.224 0-0.413 0.159-0.413 0.348 0 0.881-0.698 1.598-1.555 1.598s-1.555-0.717-1.555-1.598c0-0.189-0.189-0.348-0.413-0.348h-2.606c-0.224 0-0.413 0.159-0.413 0.348 0 0.881-0.698 1.598-1.555 1.598s-1.555-0.717-1.555-1.598c0-0.188-0.189-0.348-0.413-0.348h-2.606c-0.224 0-0.413 0.189-0.413 0.413v2.606c0 0.224 0.159 0.413 0.348 0.413 0.881 0 1.597 0.703 1.597 1.567s-0.717 1.567-1.597 1.567c-0.188 0-0.348 0.189-0.348 0.413v2.606c0 0.224 0.159 0.413 0.348 0.413 0.881 0 1.597 0.703 1.597 1.567s-0.717 1.567-1.597 1.567c-0.188 0-0.348 0.189-0.348 0.413v2.606c0 0.224 0.159 0.413 0.348 0.413 0.881 0 1.597 0.703 1.597 1.567s-0.717 1.567-1.597 1.567c-0.188 0-0.348 0.189-0.348 0.413v2.606c0 0.224 0.189 0.413 0.413 0.413h2.606c0.224 0 0.413-0.154 0.413-0.336 0-0.874 0.698-1.586 1.555-1.586s1.555 0.711 1.555 1.586c0 0.182 0.189 0.336 0.413 0.336h2.606c0.224 0 0.413-0.154 0.413-0.336 0-0.874 0.697-1.586 1.555-1.586s1.555 0.711 1.555 1.586c0 0.182 0.189 0.336 0.413 0.336h2.607c0.224 0 0.413-0.154 0.413-0.336 0-0.874 0.698-1.586 1.555-1.586s1.555 0.712 1.555 1.586zM8.122 23.878v-15.755h15.755v15.755h-15.755z"></path>
</svg>
