<?xml version="1.0" encoding="utf-8"?>
<!-- Generated by IcoMoon.io -->
<!DOCTYPE svg PUBLIC "-//W3C//DTD SVG 1.1//EN" "http://www.w3.org/Graphics/SVG/1.1/DTD/svg11.dtd">
<svg version="1.1" xmlns="http://www.w3.org/2000/svg" xmlns:xlink="http://www.w3.org/1999/xlink" width="32" height="32" viewBox="0 0 32 32">
<path fill="#444444" d="M24.278 14.797c-0.782-0.42-1.756-0.127-2.177 0.654l-2.263 4.172v-13.332c0-0.706-0.57-1.278-1.278-1.278-0.706 0-1.279 0.572-1.279 1.278v9.46c0 0.267-0.217 0.483-0.484 0.483s-0.484-0.217-0.484-0.483v-11.996c0-0.707-0.572-1.28-1.28-1.28-0.705 0-1.279 0.572-1.279 1.28v12.228c0 0.268-0.217 0.483-0.483 0.483s-0.486-0.216-0.486-0.483v-9.842c0-0.707-0.571-1.279-1.277-1.279-0.707 0-1.28 0.572-1.28 1.279v9.842c0 0.268-0.217 0.484-0.484 0.484s-0.484-0.217-0.484-0.485v-6.502c0-0.707-0.572-1.279-1.28-1.279-0.705 0-1.278 0.572-1.278 1.279v14.755c0 0.453 0.242 1.102 0.541 1.443l2.8 3.214c0.296 0.339 0.911 0.62 1.364 0.62h6.296c0.454 0 1-0.327 1.216-0.725l6.013-11.817c0.419-0.781 0.127-1.755-0.654-2.176z"></path>
</svg>
