<?xml version="1.0" encoding="utf-8"?>
<!-- Generated by IcoMoon.io -->
<!DOCTYPE svg PUBLIC "-//W3C//DTD SVG 1.1//EN" "http://www.w3.org/Graphics/SVG/1.1/DTD/svg11.dtd">
<svg version="1.1" xmlns="http://www.w3.org/2000/svg" xmlns:xlink="http://www.w3.org/1999/xlink" width="32" height="32" viewBox="0 0 32 32">
<path fill="#444444" d="M3.771 26.675h24.459v1.819h-24.459v-1.819z"></path>
<path fill="#444444" d="M28.901 11.559c-0.003-0.519-4.436-8.053-4.436-8.053h-16.929c0 0-4.44 7.536-4.44 8.062 0 1.018 0.825 1.843 1.843 1.843s1.843-0.825 1.843-1.843c0 1.018 0.825 1.843 1.843 1.843s1.843-0.825 1.843-1.843c0 1.018 0.825 1.843 1.843 1.843s1.843-0.825 1.843-1.843c0 1.018 0.825 1.843 1.843 1.843s1.843-0.825 1.843-1.843c0 1.018 0.825 1.843 1.843 1.843s1.843-0.825 1.843-1.843c0 1.018 0.825 1.843 1.843 1.843s1.843-0.825 1.843-1.843c0 1.018 0.825 1.843 1.843 1.843s1.843-0.825 1.843-1.843h0.004l-0.004-0.009z"></path>
<path fill="#444444" d="M27.056 24.698v-9.807c-0.68-0-1.314-0.206-1.841-0.559-0.528 0.353-1.162 0.559-1.843 0.559s-1.315-0.206-1.843-0.559c-0.528 0.353-1.162 0.559-1.843 0.559s-1.315-0.206-1.843-0.559c-0.528 0.353-1.162 0.559-1.843 0.559s-1.315-0.206-1.843-0.559c-0.528 0.353-1.162 0.559-1.843 0.559s-1.315-0.206-1.843-0.559c-0.528 0.353-1.162 0.559-1.843 0.559s-1.315-0.206-1.843-0.559c-0.526 0.352-1.158 0.558-1.837 0.559v9.807h13.331v-7.783h5.92v7.783h2.861zM15.565 21.916h-7.879v-5.032h7.879v5.032z"></path>
</svg>
