<?xml version="1.0" encoding="utf-8"?>
<!-- Generated by IcoMoon.io -->
<!DOCTYPE svg PUBLIC "-//W3C//DTD SVG 1.1//EN" "http://www.w3.org/Graphics/SVG/1.1/DTD/svg11.dtd">
<svg version="1.1" xmlns="http://www.w3.org/2000/svg" xmlns:xlink="http://www.w3.org/1999/xlink" width="32" height="32" viewBox="0 0 32 32">
<path fill="#444444" d="M9.152 12.196c0.388-1.086 0.85-1.968 1.445-2.649 0.582-0.672 1.376-1.163 2.265-1.161 0.889-0.002 1.682 0.489 2.265 1.161 0.595 0.681 1.056 1.564 1.445 2.65l2.179 6.133c0.294 0.832 0.623 1.389 0.873 1.672 0.264 0.287 0.37 0.276 0.38 0.278 0.008-0.002 0.114 0.009 0.376-0.278 0.251-0.282 0.581-0.84 0.875-1.672l2.179-6.134c0.615-1.719 1.656-3.244 2.929-4.497-2.428-3.040-6.162-4.991-10.356-4.991-7.315 0-13.246 5.931-13.246 13.248 0 2.369 0.625 4.59 1.715 6.516 1.020-1.088 1.946-2.57 2.5-4.143l2.179-6.134zM27.898 10.117c-0.904 0.948-1.619 2.050-2.009 3.162l-2.179 6.131c-0.388 1.085-0.85 1.968-1.443 2.649-0.582 0.672-1.376 1.163-2.265 1.161-0.891 0.002-1.684-0.489-2.267-1.161-0.595-0.681-1.057-1.564-1.445-2.649l-2.177-6.131c-0.296-0.834-0.625-1.392-0.875-1.674-0.262-0.286-0.368-0.276-0.378-0.278-0.010 0.002-0.116-0.008-0.378 0.278-0.251 0.281-0.58 0.84-0.875 1.674l-2.176 6.131c-0.746 2.093-1.934 3.955-3.307 5.367 2.426 2.715 5.954 4.427 9.88 4.427 7.317 0 13.248-5.932 13.248-13.248 0-2.095-0.488-4.076-1.355-5.839z"></path>
</svg>
