<?xml version="1.0" encoding="utf-8"?>
<!-- Generated by IcoMoon.io -->
<!DOCTYPE svg PUBLIC "-//W3C//DTD SVG 1.1//EN" "http://www.w3.org/Graphics/SVG/1.1/DTD/svg11.dtd">
<svg version="1.1" xmlns="http://www.w3.org/2000/svg" xmlns:xlink="http://www.w3.org/1999/xlink" width="32" height="32" viewBox="0 0 32 32">
<path fill="#444444" d="M13.223 18.964c0.121-0.124 0.2-0.293 0.202-0.527 0.008-0.052-0.056-0.302-0.173-0.429-0.125-0.13-0.214-0.222-0.587-0.235-0.665-0.001-1.309-0.1-1.905-0.348-0.591-0.245-1.153-0.665-1.5-1.287-0.228-0.402-0.348-0.873-0.354-1.352v0c0-0.005-0.001-0.022-0.001-0.050-0.002-0.817 0.319-1.597 0.881-2.156 0.56-0.563 1.361-0.896 2.219-0.893h3.874c0.139 0 0.305-0.003 0.489-0.003 0.467 0.003 1.046 0.010 1.68 0.227 0.631 0.204 1.32 0.732 1.655 1.519 0.23 0.518 0.33 1.108 0.33 1.779v2.676c0.001 0.739 0.6 1.337 1.338 1.339 0.739-0.002 1.337-0.6 1.338-1.339v-9.629c-1.669-1.158-3.695-1.839-5.881-1.839-5.705 0-10.33 4.625-10.33 10.33 0 0.837 0.102 1.65 0.29 2.43h5.86c0.286-0.004 0.45-0.092 0.573-0.212zM25.034 10.473v7.412c-0.001 2.023-1.639 3.662-3.663 3.663-2.023-0-3.662-1.64-3.662-3.663v-2.676c-0.003-0.667-0.147-0.894-0.212-0.969-0.065-0.074-0.16-0.139-0.445-0.191-0.183-0.031-0.422-0.041-0.684-0.041-0.155-0-0.318 0.003-0.489 0.003h-3.874c-0.285 0.004-0.451 0.093-0.575 0.212-0.118 0.12-0.195 0.28-0.2 0.499l0 0.007v0.014c0.003 0.139 0.027 0.203 0.057 0.259 0.032 0.055 0.079 0.111 0.18 0.179 0.196 0.137 0.634 0.272 1.198 0.268 1.021-0.013 1.893 0.468 2.38 1.080 0.495 0.616 0.696 1.279 0.704 1.908 0.002 0.816-0.313 1.598-0.874 2.162-0.558 0.568-1.363 0.905-2.225 0.901h-4.991c1.721 3.312 5.18 5.576 9.17 5.576 5.705 0 10.33-4.625 10.33-10.33 0-2.36-0.793-4.534-2.125-6.273z"></path>
</svg>
