<?xml version="1.0" encoding="utf-8"?>
<!-- Generated by IcoMoon.io -->
<!DOCTYPE svg PUBLIC "-//W3C//DTD SVG 1.1//EN" "http://www.w3.org/Graphics/SVG/1.1/DTD/svg11.dtd">
<svg version="1.1" xmlns="http://www.w3.org/2000/svg" xmlns:xlink="http://www.w3.org/1999/xlink" width="32" height="32" viewBox="0 0 32 32">
<path fill="#444444" d="M16.011 8.979c-3.871 0-7.019 3.149-7.019 7.020s3.147 7.019 7.019 7.019c3.869 0 7.018-3.149 7.018-7.019s-3.148-7.020-7.017-7.020zM16.011 21.102c-2.82 0-5.104-2.285-5.104-5.104s2.284-5.102 5.104-5.102c2.817 0 5.101 2.284 5.101 5.102s-2.284 5.104-5.101 5.104zM16.009 24.322c-0.76 0-1.376 0.616-1.376 1.377v1.986c0 0.76 0.615 1.376 1.376 1.376 0.762 0 1.378-0.616 1.378-1.376v-1.986c0-0.76-0.615-1.377-1.378-1.377zM16.009 7.674c0.76 0 1.378-0.617 1.378-1.377v-1.986c0-0.759-0.617-1.376-1.378-1.376-0.758 0-1.376 0.617-1.376 1.376v1.986c0 0.76 0.617 1.377 1.376 1.377zM22.869 10.516c0.351 0 0.705-0.134 0.974-0.403l1.404-1.404c0.537-0.538 0.537-1.409 0-1.948-0.54-0.537-1.41-0.537-1.948 0l-1.404 1.405c-0.538 0.536-0.538 1.409 0 1.948 0.27 0.269 0.621 0.403 0.974 0.403zM8.177 21.884l-1.404 1.403c-0.538 0.538-0.538 1.409 0 1.947 0.269 0.269 0.621 0.405 0.973 0.405s0.706-0.136 0.974-0.405l1.405-1.404c0.537-0.536 0.537-1.409 0-1.946-0.537-0.539-1.41-0.539-1.948 0zM27.695 14.621h-1.984c-0.76 0-1.378 0.617-1.378 1.377s0.617 1.377 1.378 1.377h1.984c0.76 0 1.378-0.616 1.378-1.376 0-0.761-0.617-1.377-1.378-1.378zM7.686 15.999c0-0.761-0.616-1.377-1.378-1.378h-1.984c-0.76 0-1.376 0.617-1.376 1.377s0.616 1.377 1.376 1.377h1.984c0.761 0 1.378-0.616 1.378-1.376zM23.844 21.884c-0.538-0.54-1.41-0.54-1.948-0.001s-0.538 1.409-0.001 1.947l1.404 1.404c0.27 0.269 0.621 0.405 0.975 0.405 0.352 0 0.703-0.135 0.972-0.404 0.538-0.538 0.538-1.41 0.001-1.948l-1.403-1.403zM8.177 10.113c0.269 0.269 0.621 0.403 0.973 0.403 0.354 0 0.705-0.134 0.975-0.403 0.537-0.539 0.537-1.41 0-1.948l-1.404-1.405c-0.538-0.537-1.408-0.537-1.947 0-0.539 0.539-0.539 1.41 0 1.948l1.403 1.404z"></path>
</svg>
