<?xml version="1.0" encoding="utf-8"?>
<!-- Generated by IcoMoon.io -->
<!DOCTYPE svg PUBLIC "-//W3C//DTD SVG 1.1//EN" "http://www.w3.org/Graphics/SVG/1.1/DTD/svg11.dtd">
<svg version="1.1" xmlns="http://www.w3.org/2000/svg" xmlns:xlink="http://www.w3.org/1999/xlink" width="32" height="32" viewBox="0 0 32 32">
<path fill="#444444" d="M12.715 12.683l-3.41-3.41c1.719-1.698 4.074-2.745 6.683-2.745 2.633 0.001 4.998 1.061 6.726 2.786 1.725 1.728 2.785 4.093 2.786 6.727h4.136c-0.002-7.539-6.11-13.648-13.649-13.649-3.744 0-7.142 1.513-9.608 3.956l-3.147-3.147 0 9.483h9.483zM22.749 22.729c-1.725 1.745-4.113 2.824-6.761 2.823-2.634-0-4.999-1.061-6.726-2.786-1.725-1.728-2.785-4.093-2.786-6.726h-4.135c0.001 7.538 6.109 13.647 13.648 13.648 3.784-0 7.215-1.546 9.686-4.035l3.062 3.063v-9.253h-9.253l3.266 3.265z"></path>
</svg>
