<?xml version="1.0" encoding="utf-8"?>
<!-- Generated by IcoMoon.io -->
<!DOCTYPE svg PUBLIC "-//W3C//DTD SVG 1.1//EN" "http://www.w3.org/Graphics/SVG/1.1/DTD/svg11.dtd">
<svg version="1.1" xmlns="http://www.w3.org/2000/svg" xmlns:xlink="http://www.w3.org/1999/xlink" width="32" height="32" viewBox="0 0 32 32">
<path fill="#444444" d="M8.624 5.144l-1.825 1.825-1.825-1.825-1.648 1.648 1.825 1.825-1.825 1.825 1.648 1.648 1.825-1.825 1.825 1.825 1.648-1.648-1.825-1.825 1.825-1.825z"></path>
<path fill="#444444" d="M8.624 19.901l-1.825 1.825-1.825-1.825-1.648 1.648 1.825 1.825-1.825 1.825 1.648 1.648 1.825-1.825 1.825 1.825 1.648-1.648-1.825-1.825 1.825-1.825z"></path>
<path fill="#444444" d="M28.674 13.718l-1.648-1.648-1.825 1.825-1.825-1.825-1.648 1.648 1.825 1.825-1.825 1.825 1.648 1.648 1.825-1.825 1.825 1.825 1.648-1.648-1.825-1.825z"></path>
<path fill="#444444" d="M20.217 20.905c-2.2 0-3.984 1.784-3.984 3.984s1.784 3.984 3.984 3.984c2.2 0 3.984-1.784 3.984-3.984s-1.784-3.984-3.984-3.984zM20.217 26.543c-0.912 0-1.654-0.742-1.654-1.654s0.742-1.654 1.654-1.654c0.912 0 1.654 0.742 1.654 1.654s-0.742 1.654-1.654 1.654z"></path>
<path fill="#444444" d="M13.99 14.89l7.038-7.038 1.751 1.751 1.326-6.476-6.476 1.326 1.751 1.751-7.862 7.862c-0.455 0.455-0.455 1.193 0 1.648l4.47 4.47 1.648-1.647-3.646-3.646z"></path>
</svg>
