<?xml version="1.0" encoding="utf-8"?>
<!-- Generated by IcoMoon.io -->
<!DOCTYPE svg PUBLIC "-//W3C//DTD SVG 1.1//EN" "http://www.w3.org/Graphics/SVG/1.1/DTD/svg11.dtd">
<svg version="1.1" xmlns="http://www.w3.org/2000/svg" xmlns:xlink="http://www.w3.org/1999/xlink" width="32" height="32" viewBox="0 0 32 32">
<path fill="#444444" d="M23.016 8.161h-0.239l-1.063-2.543h-11.39l-1.063 2.543h-0.241c-0.429 0-0.779 0.35-0.779 0.779 0 0.431 0.35 0.781 0.779 0.781h13.996c0.431 0 0.781-0.35 0.781-0.781 0-0.43-0.349-0.779-0.781-0.779zM19.918 8.106h-0.944c-0.417 0-0.754-0.335-0.754-0.754 0-0.417 0.337-0.756 0.754-0.756h0.944c0.417 0 0.754 0.339 0.754 0.756 0 0.419-0.337 0.754-0.754 0.754zM10.97 26.323h10.099l1.498-15.126h-13.095l1.498 15.126z"></path>
</svg>
