<?xml version="1.0" encoding="utf-8"?>
<!-- Generated by IcoMoon.io -->
<!DOCTYPE svg PUBLIC "-//W3C//DTD SVG 1.1//EN" "http://www.w3.org/Graphics/SVG/1.1/DTD/svg11.dtd">
<svg version="1.1" xmlns="http://www.w3.org/2000/svg" xmlns:xlink="http://www.w3.org/1999/xlink" width="32" height="32" viewBox="0 0 32 32">
<path fill="#444444" d="M20.212 16.032c0 2.314-1.876 4.19-4.19 4.19s-4.19-1.876-4.19-4.19c0-2.314 1.876-4.19 4.19-4.19s4.19 1.876 4.19 4.19z"></path>
<path fill="#444444" d="M4.471 16.032c0.001-6.38 5.17-11.549 11.55-11.55v0c6.38 0.002 11.549 5.171 11.55 11.55v0c-0.001 6.38-5.171 11.549-11.55 11.55v0c-6.38-0.001-11.549-5.17-11.55-11.55v0zM10.483 10.494c-1.42 1.423-2.293 3.369-2.294 5.538v0c0.001 2.169 0.874 4.115 2.294 5.538v0c1.423 1.42 3.37 2.293 5.538 2.294v0c2.169-0.001 4.115-0.874 5.538-2.294v0c1.42-1.423 2.293-3.37 2.294-5.538v0c-0.001-2.169-0.874-4.115-2.294-5.538v0c-1.424-1.421-3.37-2.293-5.538-2.294v0c-2.169 0.001-4.115 0.874-5.538 2.294v0z"></path>
</svg>
