<?xml version="1.0" encoding="utf-8"?>
<!-- Generated by IcoMoon.io -->
<!DOCTYPE svg PUBLIC "-//W3C//DTD SVG 1.1//EN" "http://www.w3.org/Graphics/SVG/1.1/DTD/svg11.dtd">
<svg version="1.1" xmlns="http://www.w3.org/2000/svg" xmlns:xlink="http://www.w3.org/1999/xlink" width="32" height="32" viewBox="0 0 32 32">
<path fill="#444444" d="M18.813 18.706c3.938 0 7.115-2.625 7.115-5.872 0-3.178-3.177-5.803-7.115-5.803-3.869 0-7.046 2.625-7.046 5.803 0 3.247 3.178 5.872 7.046 5.872zM18.813 21.746h-0.068c-1.383 0-2.695-0.276-3.938-0.691l-3.177 3.178v-4.767c-2.142-1.658-3.523-4.007-3.523-6.632 0-2.451 1.271-4.712 3.264-6.356h-3.609c-0.76 0-1.451 0.622-1.451 1.45v17.616c0 0.829 0.691 1.451 1.451 1.451h17.685c0.76 0 1.451-0.621 1.451-1.451v-7.044c-1.94 1.916-4.853 3.178-8.084 3.244z"></path>
</svg>
