<?xml version="1.0" encoding="utf-8"?>
<!-- Generated by IcoMoon.io -->
<!DOCTYPE svg PUBLIC "-//W3C//DTD SVG 1.1//EN" "http://www.w3.org/Graphics/SVG/1.1/DTD/svg11.dtd">
<svg version="1.1" xmlns="http://www.w3.org/2000/svg" xmlns:xlink="http://www.w3.org/1999/xlink" width="32" height="32" viewBox="0 0 32 32">
<path fill="#444444" d="M16.024 3.737c-6.77 0-12.259 5.489-12.259 12.26 0 6.77 5.489 12.26 12.259 12.26s12.259-5.49 12.259-12.26c0-6.771-5.488-12.26-12.259-12.26zM16.239 24.934c-1.354 0-2.453-1.1-2.453-2.455 0-1.059 0.67-1.956 1.61-2.301v-6.996h1.558v6.951c1.006 0.304 1.738 1.24 1.738 2.346 0 1.355-1.099 2.455-2.454 2.455zM22.45 15.677c-0.031-1.736-0.742-3.298-1.882-4.442-1.172-1.167-2.775-1.887-4.559-1.887v-1.572c-0.008 0-0.017-0.001-0.025-0.001-2.184 0.001-4.153 0.884-5.586 2.315s-2.316 3.402-2.316 5.587h-1.42c0.001-5.149 4.173-9.323 9.322-9.323 4.991 0 9.064 3.919 9.312 8.851 0.010 0.155 0.015 0.312 0.018 0.472h-2.863z"></path>
</svg>
