<?xml version="1.0" encoding="utf-8"?>
<!-- Generated by IcoMoon.io -->
<!DOCTYPE svg PUBLIC "-//W3C//DTD SVG 1.1//EN" "http://www.w3.org/Graphics/SVG/1.1/DTD/svg11.dtd">
<svg version="1.1" xmlns="http://www.w3.org/2000/svg" xmlns:xlink="http://www.w3.org/1999/xlink" width="32" height="32" viewBox="0 0 32 32">
<path fill="#444444" d="M20.411 16.228v-8.54c0-2.42-1.968-4.388-4.388-4.388s-4.386 1.968-4.386 4.388v8.54c-1.648 1.319-2.635 3.33-2.635 5.48 0 3.872 3.15 7.022 7.021 7.022s7.021-3.15 7.021-7.022c-0-2.15-0.985-4.161-2.633-5.48zM16.023 26.814c-2.819 0-5.104-2.285-5.104-5.105 0-1.922 1.064-3.597 2.633-4.468v-9.553c0-1.365 1.107-2.472 2.471-2.472s2.471 1.107 2.471 2.472v9.555c1.571 0.871 2.633 2.543 2.633 4.466-0 2.82-2.284 5.105-5.104 5.105zM16.979 18.551v-6.302c0-0.53-0.427-0.957-0.956-0.957s-0.959 0.428-0.959 0.957v6.302c-1.355 0.411-2.342 1.669-2.342 3.158 0 1.823 1.478 3.301 3.301 3.301s3.3-1.478 3.3-3.301c0-1.489-0.986-2.747-2.343-3.158z"></path>
</svg>
