<?xml version="1.0" encoding="utf-8"?>
<!-- Generated by IcoMoon.io -->
<!DOCTYPE svg PUBLIC "-//W3C//DTD SVG 1.1//EN" "http://www.w3.org/Graphics/SVG/1.1/DTD/svg11.dtd">
<svg version="1.1" xmlns="http://www.w3.org/2000/svg" xmlns:xlink="http://www.w3.org/1999/xlink" width="32" height="32" viewBox="0 0 32 32">
<path fill="#444444" d="M17.023 6.22c-1.635-5.747-0.243-1.77-7.53 0.304-7.284 2.073-8.208-2.080-6.561 3.707 1.102 3.872 5.379 11.535 10.485 10.081 5.107-1.453 4.707-10.22 3.605-14.092zM7.284 11.423c-0.912 0.118-1.631 0.609-1.803 1.178-0.065-0.107-0.108-0.223-0.123-0.346-0.092-0.711 0.73-1.402 1.835-1.544s2.075 0.321 2.164 1.030c0.018 0.123 0.006 0.246-0.031 0.366-0.309-0.507-1.13-0.801-2.044-0.685zM12.743 17.523c-1.533 0.437-2.943 0.209-3.378-1.317l5.539-1.637c0.433 1.525-0.627 2.518-2.16 2.954zM14.039 9.501c-0.838 0.381-1.382 1.064-1.377 1.657-0.092-0.083-0.17-0.181-0.219-0.294-0.298-0.652 0.284-1.555 1.3-2.015 1.014-0.462 2.076-0.308 2.373 0.344 0.051 0.114 0.076 0.235 0.076 0.36-0.443-0.393-1.314-0.433-2.152-0.052zM22.468 16.233c-1.519-0.527-2.641-1.118-3.485-1.669-0.288 1.899-0.834 3.315-1.506 4.373 0.192 0.057 0.394 0.098 0.611 0.118 0.918 0.081 1.725-0.246 2.015-0.763 0.041 0.116 0.057 0.24 0.045 0.363-0.063 0.714-1.014 1.213-2.126 1.113-0.352-0.030-0.677-0.119-0.955-0.247-0.963 1.234-2.107 1.864-3.127 2.176-0.057 3.494 0.828 7.038 3.828 8.081 5.018 1.739 9.721-5.669 11.039-9.472 1.96-5.646 0.818-1.59-6.34-4.073zM21.918 26.977l-5.475-1.835c0.521-1.499 1.96-1.704 3.466-1.181s2.528 1.517 2.009 3.017zM26.226 22.181c-0.431 0.573-1.5 0.495-2.391-0.175-0.889-0.67-1.263-1.677-0.834-2.25 0.076-0.099 0.169-0.178 0.28-0.239-0.135 0.579 0.249 1.362 0.983 1.916 0.738 0.553 1.596 0.704 2.113 0.416-0.026 0.122-0.076 0.235-0.151 0.333z"></path>
</svg>
