<?xml version="1.0" encoding="utf-8"?>
<!-- Generated by IcoMoon.io -->
<!DOCTYPE svg PUBLIC "-//W3C//DTD SVG 1.1//EN" "http://www.w3.org/Graphics/SVG/1.1/DTD/svg11.dtd">
<svg version="1.1" xmlns="http://www.w3.org/2000/svg" xmlns:xlink="http://www.w3.org/1999/xlink" width="32" height="32" viewBox="0 0 32 32">
<path fill="#444444" d="M29.48 25.033c-0.006-0.243-0.17-0.562-0.364-0.71 0 0-1.588-1.223-2.833-1.748-1.365-0.576-3.838-1.631-3.838-1.631-0.223-0.096-0.583-0.22-0.795-0.279-0.114-0.031-0.364-0.13-0.595-0.242-1.872 0.72-3.693 0.964-5.292 0.964-2.332-0.002-4.194-0.512-5.101-0.82-0.243 0.068-0.94 0.285-1.155 0.377 0 0-2.471 1.055-3.838 1.631-1.243 0.525-2.833 1.748-2.833 1.748-0.192 0.148-0.358 0.467-0.364 0.71l-0.039 3.256c-0.006 0.243 0.19 0.44 0.433 0.44h26.221c0.241 0 0.435-0.197 0.433-0.44l-0.041-3.256zM10.489 12.202c0 0 0.069 2.148 0.789 2.598 0.067 0.043 0.186 0.564 0.18 0.528 0.072 0.743 0.566 1.395 0.566 1.395 0.022 0.243-0.059 0.611-0.18 0.824l-0.609 1.057c-0.253 0.001-0.492 0.149-0.599 0.397-0.147 0.333 0.006 0.721 0.339 0.868v0c0.053 0.020 2.093 0.907 4.965 0.909h0.004c1.545 0 3.334-0.262 5.157-1.068 0.335-0.147 0.484-0.538 0.337-0.872-0.116-0.261-0.38-0.408-0.65-0.389-0.288-0.464-0.66-0.945-0.66-0.945-0.147-0.191-0.202-0.535-0.123-0.765l0.542-1.545c0.080-0.229 0.153-0.448 0.157-0.481 0.006-0.036 0.055-0.101 0.106-0.144 0 0 0 0 0.037-0.051 0.196-0.276 0.327-0.757 0.388-1.095 0.092-0.497 0.061-1.254 0.061-1.254-0.008-0.243 0.020-0.638 0.067-0.877l0.159-0.834c0.047-0.237 0.055-0.63 0.020-0.869l-0.64-3.152c-0.018-0.12-0.597-3.252-5.083-3.252s-5.216 3.132-5.228 3.255l-0.47 4.121c-0.020 0.241 0.049 0.611 0.155 0.821s0.2 0.579 0.21 0.822zM18.627 10.317c0.728 0 1.32 0.593 1.32 1.322 0 0.731-0.593 1.321-1.32 1.321-0.732 0-2.193-0.591-2.193-1.321 0-0.729 1.461-1.322 2.193-1.322zM15.874 14.61c0.464 0 0.84 0.288 0.84 0.646s-0.376 0.646-0.84 0.646c-0.462 0-0.838-0.288-0.838-0.646s0.376-0.646 0.838-0.646zM13.017 10.317c0.728 0 2.189 0.593 2.189 1.322 0 0.731-1.462 1.321-2.189 1.321-0.732 0-1.324-0.591-1.324-1.321 0-0.729 0.593-1.322 1.324-1.322z"></path>
</svg>
