<?xml version="1.0" encoding="utf-8"?>
<!-- Generated by IcoMoon.io -->
<!DOCTYPE svg PUBLIC "-//W3C//DTD SVG 1.1//EN" "http://www.w3.org/Graphics/SVG/1.1/DTD/svg11.dtd">
<svg version="1.1" xmlns="http://www.w3.org/2000/svg" xmlns:xlink="http://www.w3.org/1999/xlink" width="32" height="32" viewBox="0 0 32 32">
<path fill="#444444" d="M16.699 24.559c-0.11-0.951-1.087-1.619-2.183-1.493s-1.896 1-1.786 1.951c0.11 0.951 1.087 1.619 2.184 1.493s1.896-1 1.786-1.951z"></path>
<path fill="#444444" d="M16.957 26.57c-0.558 0.219-0.856 0.788-0.666 1.272s0.796 0.699 1.353 0.48c0.558-0.219 0.856-0.788 0.666-1.272s-0.796-0.699-1.353-0.48z"></path>
<path fill="#444444" d="M27.697 11.393c-0.62-1.648-1.913-2.95-3.532-3.594-0.045-0.285-0.119-0.566-0.222-0.839-0.624-1.658-2.232-2.771-4.003-2.771-0.514 0-1.021 0.092-1.505 0.275-0.342 0.128-0.663 0.299-0.958 0.507-0.925-0.878-2.158-1.378-3.471-1.378-0.607 0-1.205 0.109-1.778 0.325-1.412 0.531-2.482 1.631-2.977 3.019-0.446 0.064-0.883 0.176-1.309 0.337-1.557 0.586-2.793 1.743-3.48 3.258s-0.742 3.207-0.157 4.765c0.636 1.69 1.972 3.011 3.645 3.638 0.040 0.163 0.090 0.324 0.149 0.482 0.624 1.658 2.233 2.772 4.003 2.772 0.514 0 1.021-0.092 1.505-0.275 0.31-0.117 0.6-0.265 0.87-0.445 0.816 0.534 1.77 0.821 2.762 0.821 0.607 0 1.205-0.109 1.778-0.325 1.081-0.407 1.985-1.172 2.567-2.154 0.096 0.004 0.191 0.007 0.287 0.007 0.748 0 1.485-0.134 2.19-0.4 3.215-1.209 4.846-4.809 3.636-8.023z"></path>
</svg>
