<?xml version="1.0" encoding="utf-8"?>
<!-- Generated by IcoMoon.io -->
<!DOCTYPE svg PUBLIC "-//W3C//DTD SVG 1.1//EN" "http://www.w3.org/Graphics/SVG/1.1/DTD/svg11.dtd">
<svg version="1.1" xmlns="http://www.w3.org/2000/svg" xmlns:xlink="http://www.w3.org/1999/xlink" width="32" height="32" viewBox="0 0 32 32">
<path fill="#444444" d="M16.375 14.985c0 1.003 0.186 1.815 1.189 1.815h5.537c1.003 0 1.189-0.812 1.189-1.815v0c0-1.003-0.186-1.816-1.189-1.816h-5.537c-1.003 0-1.189 0.813-1.189 1.816v0z"></path>
<path fill="#444444" d="M15.369 19.288c0 1.002 0.187 1.816 1.189 1.816h7.41c1.003 0 1.19-0.813 1.19-1.816v0c0-1.003-0.187-1.815-1.19-1.815h-7.41c-1.002 0-1.189 0.813-1.189 1.815v0z"></path>
<path fill="#444444" d="M16.361 23.656c0 1.002 0.187 1.815 1.188 1.815h5.845c1.003 0 1.19-0.813 1.19-1.815v0c0-1.003-0.187-1.816-1.19-1.816h-5.845c-1.002 0-1.188 0.812-1.188 1.816v0z"></path>
<path fill="#444444" d="M17.326 28.116c0 1.002 0.187 1.815 1.189 1.815h3.329c1.002 0 1.189-0.813 1.189-1.815v0c0-1.003-0.187-1.816-1.189-1.816h-3.329c-1.002 0-1.189 0.812-1.189 1.816v0z"></path>
<path fill="#444444" d="M16.864 29.707c-0.204-0.389-0.294-0.88-0.294-1.591s0.091-1.203 0.294-1.592c0.070-0.135 0.167-0.278 0.297-0.409-0.707-0.092-1.074-0.51-1.262-0.868-0.204-0.389-0.294-0.879-0.294-1.591s0.090-1.203 0.294-1.592c0.056-0.106 0.128-0.217 0.219-0.324-0.673-0.106-1.028-0.512-1.21-0.861-0.204-0.389-0.294-0.88-0.294-1.591s0.091-1.203 0.294-1.592c0.18-0.343 0.526-0.741 1.176-0.855-0.069-0.088-0.125-0.178-0.171-0.265-0.204-0.389-0.294-0.88-0.294-1.592s0.091-1.203 0.294-1.592c0.212-0.405 0.655-0.888 1.559-0.888h1.129c0.116-0.841 2.445-2.64 2.445-6.319 0-4.032-4.289-3.566-4.289-3.566s0 1.211 0 2.503c-0.752 2.79-5.746 7.096-7.16 8.272-1.674 0.855-2.714 2.525-2.714 4.583 0 0.005 0 6.138 0 6.138 0 3.176 2.575 5.751 5.751 5.751h4.325c-0.036-0.053-0.067-0.107-0.094-0.159z"></path>
</svg>
