<?xml version="1.0" encoding="utf-8"?>
<!-- Generated by IcoMoon.io -->
<!DOCTYPE svg PUBLIC "-//W3C//DTD SVG 1.1//EN" "http://www.w3.org/Graphics/SVG/1.1/DTD/svg11.dtd">
<svg version="1.1" xmlns="http://www.w3.org/2000/svg" xmlns:xlink="http://www.w3.org/1999/xlink" width="32" height="32" viewBox="0 0 32 32">
<path fill="#444444" d="M25.116 12.941c0-1.151-0.215-2.085-1.366-2.085h-0.009c0.861-0.147 1.034-0.979 1.034-1.988 0-1.111-0.207-2.012-1.319-2.012h-0.955c0.754-0.213 0.91-1.022 0.91-1.991 0-1.131-0.211-2.047-1.341-2.047h-9.644c-3.176 0-5.751 2.575-5.751 5.751 0 0 0 6.133 0 6.138 0 2.253 1.246 4.039 3.205 4.802 1.525 1.002 4.595 3.389 5.249 6.707 0 1.291 0 2.503 0 2.503s4.289 0.466 4.289-3.566c0-4.749-2.99-5.52-0.61-5.636h3.55c1.254 0 1.487-1.017 1.487-2.271 0-1.089-0.177-1.997-1.044-2.218h0.948c1.152 0 1.366-0.933 1.366-2.085z"></path>
</svg>
