<?xml version="1.0" encoding="utf-8"?>
<!-- Generated by IcoMoon.io -->
<!DOCTYPE svg PUBLIC "-//W3C//DTD SVG 1.1//EN" "http://www.w3.org/Graphics/SVG/1.1/DTD/svg11.dtd">
<svg version="1.1" xmlns="http://www.w3.org/2000/svg" xmlns:xlink="http://www.w3.org/1999/xlink" width="32" height="32" viewBox="0 0 32 32">
<path fill="#444444" d="M29.582 11.886v-0.854c-1.349-0.136-2.254-1.222-2.363-2.577h-22.464c-0.106 1.355-1.014 2.441-2.363 2.577v0.623c0.431 0 0.623 0.349 0.623 0.78 0 0.432-0.192 0.781-0.623 0.781v0.756c0.431 0 0.623 0.35 0.623 0.781s-0.192 0.78-0.623 0.78v0.744c0.431 0 0.623 0.351 0.623 0.781s-0.192 0.781-0.623 0.781v0.744c0.431 0 0.623 0.35 0.623 0.781 0 0.43-0.192 0.781-0.623 0.781v0.855c1.349 0.135 2.256 1.221 2.363 2.577h22.464c0.108-1.356 1.014-2.442 2.363-2.577v-0.624c-0.431 0-0.623-0.35-0.623-0.781 0-0.43 0.192-0.781 0.623-0.781v-0.755c-0.431 0-0.623-0.35-0.623-0.781s0.192-0.781 0.623-0.781v-0.744c-0.431 0-0.623-0.35-0.623-0.781s0.192-0.781 0.623-0.781v-0.745c-0.431 0-0.623-0.35-0.623-0.781s0.192-0.78 0.623-0.78zM7.285 20.366h-1.568v-8.703h1.568v8.703zM17.178 20.092h-1.752v-5.603h-2.173v-1.321c0.304 0.008 0.599-0.015 0.883-0.068 0.282-0.053 0.54-0.147 0.764-0.284 0.227-0.136 0.419-0.314 0.574-0.537 0.155-0.222 0.259-0.497 0.309-0.827h1.394v8.64zM26.256 20.366h-1.566v-8.703h1.566v8.703z"></path>
</svg>
