<?xml version="1.0" encoding="utf-8"?>
<!-- Generated by IcoMoon.io -->
<!DOCTYPE svg PUBLIC "-//W3C//DTD SVG 1.1//EN" "http://www.w3.org/Graphics/SVG/1.1/DTD/svg11.dtd">
<svg version="1.1" xmlns="http://www.w3.org/2000/svg" xmlns:xlink="http://www.w3.org/1999/xlink" width="32" height="32" viewBox="0 0 32 32">
<path fill="#444444" d="M15.948 2.357c7.525 0 13.625 6.1 13.625 13.625s-6.1 13.625-13.625 13.625c-7.525 0-13.625-6.1-13.625-13.625s6.1-13.625 13.625-13.625zM15.948 6.493c-5.232 0-9.489 4.257-9.489 9.489s4.257 9.489 9.489 9.489 9.489-4.257 9.489-9.489c0-5.232-4.257-9.489-9.489-9.489v0z"></path>
<path fill="#444444" d="M18.414 20.214l-3.64-3.757v-7.563c0-0.648 0.525-1.173 1.174-1.173v0c0.648 0 1.174 0.525 1.174 1.173v0l-0 6.612 2.978 3.075c0.451 0.465 0.439 1.208-0.026 1.66v0c-0.228 0.221-0.522 0.331-0.817 0.331v0c-0.306 0-0.613-0.119-0.843-0.357v0z"></path>
</svg>
