<?xml version="1.0" encoding="utf-8"?>
<!-- Generated by IcoMoon.io -->
<!DOCTYPE svg PUBLIC "-//W3C//DTD SVG 1.1//EN" "http://www.w3.org/Graphics/SVG/1.1/DTD/svg11.dtd">
<svg version="1.1" xmlns="http://www.w3.org/2000/svg" xmlns:xlink="http://www.w3.org/1999/xlink" width="32" height="32" viewBox="0 0 32 32">
<path fill="#444444" d="M25.092 8.438c-1.807-1.806-4.051-2.903-6.393-3.297v-2.546h-4.118v2.577c-1.204 0.22-2.379 0.627-3.479 1.224l-2.093-2.091 0.711-0.711-1.355-1.355-6.025 6.026 1.355 1.355 0.846-0.848 2.005 2.005c-2.694 4.539-2.087 10.489 1.817 14.393 4.619 4.618 12.11 4.618 16.729 0 4.621-4.619 4.621-12.11 0-16.731zM22.554 22.628c-3.213 3.213-8.439 3.213-11.652 0-3.211-3.211-3.211-8.437 0-11.652 3.213-3.211 8.439-3.211 11.652 0 3.211 3.215 3.211 8.441 0 11.652zM20.872 15.851l-3.716-0.059-4.059-4.059c-0.399-0.398-1.043-0.398-1.441 0-0.398 0.396-0.398 1.042 0 1.441l4.644 4.642 4.539 0.071c0.29 0.005 0.55-0.108 0.738-0.296 0.18-0.182 0.294-0.429 0.298-0.705 0.008-0.562-0.439-1.027-1.004-1.034z"></path>
</svg>
