<?xml version="1.0" encoding="utf-8"?>
<!-- Generated by IcoMoon.io -->
<!DOCTYPE svg PUBLIC "-//W3C//DTD SVG 1.1//EN" "http://www.w3.org/Graphics/SVG/1.1/DTD/svg11.dtd">
<svg version="1.1" xmlns="http://www.w3.org/2000/svg" xmlns:xlink="http://www.w3.org/1999/xlink" width="32" height="32" viewBox="0 0 32 32">
<path fill="#444444" d="M10.473 14.868c0.006 0.006 0.011 0.013 0.017 0.019l2.599 2.599 0.906-0.907-1.421-1.421 2.268-2.268 0.299 0.033c0.076 0.009 0.154 0.013 0.232 0.013 0.157 0 0.31-0.019 0.459-0.053l-1.67-1.67c-0.034-0.034-0.070-0.064-0.105-0.095 0.515-1.85 0.046-3.916-1.409-5.37-1.444-1.444-3.49-1.916-5.329-1.42l3.116 3.116-0.818 3.053-3.053 0.818-3.116-3.117c-0.497 1.84-0.024 3.886 1.42 5.33 1.516 1.516 3.697 1.961 5.605 1.337zM19.681 16.733c-0.051 0.224-0.064 0.457-0.038 0.692l0.033 0.299-2.268 2.268-1.421-1.421-0.907 0.907 8.227 8.227c0.507 0.507 1.172 0.761 1.837 0.761s1.329-0.253 1.836-0.761c1.014-1.014 1.014-2.659 0-3.673l-7.299-7.299zM26.033 26.852l-1.305 0.35-1.059-1.059 0.35-1.305 1.305-0.35 1.059 1.059-0.35 1.305zM15.997 17.695l1.421 1.421 1.612-1.612c-0.087-0.787 0.169-1.604 0.772-2.207s1.42-0.859 2.206-0.772l7.050-7.050-3.949-3.949-7.050 7.050c0.087 0.786-0.169 1.604-0.772 2.207s-1.42 0.859-2.207 0.771l-1.612 1.612 1.421 1.421-6.966 6.966-0.255-0.255-1.337 1.077-2.249 3.552 0.574 0.574 3.552-2.249 1.077-1.337-0.256-0.256 6.966-6.966z"></path>
</svg>
