<?xml version="1.0" encoding="utf-8"?>
<!-- Generated by IcoMoon.io -->
<!DOCTYPE svg PUBLIC "-//W3C//DTD SVG 1.1//EN" "http://www.w3.org/Graphics/SVG/1.1/DTD/svg11.dtd">
<svg version="1.1" xmlns="http://www.w3.org/2000/svg" xmlns:xlink="http://www.w3.org/1999/xlink" width="32" height="32" viewBox="0 0 32 32">
<path fill="#444444" d="M7.678 29.72h16.447v-17.488h-16.447v17.488zM19.008 15.733c0-0.531 0.431-0.962 0.962-0.962s0.962 0.431 0.962 0.962v10.133c0 0.531-0.431 0.962-0.962 0.962s-0.962-0.431-0.962-0.962v-10.133zM14.939 15.733c0-0.531 0.431-0.962 0.962-0.962s0.962 0.431 0.962 0.962v10.133c0 0.531-0.431 0.962-0.962 0.962s-0.962-0.431-0.962-0.962v-10.133zM10.87 15.733c0-0.531 0.431-0.962 0.962-0.962s0.962 0.431 0.962 0.962v10.133c0 0.531-0.431 0.962-0.962 0.962s-0.962-0.431-0.962-0.962v-10.133zM24.939 5.639h-3.576v-0.585c-0-1.559-1.263-2.822-2.822-2.822h-5.281c-1.559 0-2.822 1.263-2.822 2.822v0.585h-3.575c-0.734 0-1.33 0.595-1.33 1.33v3.522h20.735v-3.522c-0-0.734-0.595-1.33-1.33-1.33zM19.439 5.639h-7.078l-0-0.585c0.001-0.496 0.403-0.897 0.899-0.898h5.281c0.496 0.001 0.897 0.402 0.898 0.898v0.585z"></path>
</svg>
