<?xml version="1.0" encoding="utf-8"?>
<!-- Generated by IcoMoon.io -->
<!DOCTYPE svg PUBLIC "-//W3C//DTD SVG 1.1//EN" "http://www.w3.org/Graphics/SVG/1.1/DTD/svg11.dtd">
<svg version="1.1" xmlns="http://www.w3.org/2000/svg" xmlns:xlink="http://www.w3.org/1999/xlink" width="32" height="32" viewBox="0 0 32 32">
<path fill="#444444" d="M7.737 29.733h16.446l1.577-17.977h-19.601l1.577 17.977zM26.564 5.653h-5.141v-0.585c-0.001-1.559-1.263-2.821-2.822-2.822h-5.281c-1.559 0-2.822 1.263-2.822 2.822v0.585h-5.14c-0.734 0-1.33 0.595-1.33 1.329v3.209h23.865v-3.209c0-0.734-0.595-1.329-1.329-1.329zM19.5 5.653h-7.078v-0.585c0.001-0.496 0.403-0.897 0.898-0.899h5.281c0.495 0.001 0.897 0.403 0.898 0.899v0.585z"></path>
</svg>
