<?xml version="1.0" encoding="utf-8"?>
<!-- Generated by IcoMoon.io -->
<!DOCTYPE svg PUBLIC "-//W3C//DTD SVG 1.1//EN" "http://www.w3.org/Graphics/SVG/1.1/DTD/svg11.dtd">
<svg version="1.1" xmlns="http://www.w3.org/2000/svg" xmlns:xlink="http://www.w3.org/1999/xlink" width="32" height="32" viewBox="0 0 32 32">
<path fill="#444444" d="M25.41 13.984c0-1.336-0.598-2.53-1.541-3.333 0.106-0.386 0.163-0.792 0.163-1.213 0-2.505-2.013-4.538-4.509-4.574-0.505-1.383-1.831-2.372-3.389-2.372s-2.885 0.989-3.389 2.372c-2.498 0.036-4.511 2.069-4.511 4.574 0 0.371 0.047 0.732 0.13 1.078-1.039 0.799-1.71 2.056-1.71 3.468 0 2.013 1.363 3.71 3.215 4.219 0.006 0.155 0.012 0.316 0.012 0.48 0 1.423 1.811 2.575 4.043 2.575 0.037 0 0.072 0 0.109-0.001v8.228h4.118v-8.228c0.047 0.001 0.093 0.001 0.14 0.001 2.233 0 4.043-1.152 4.043-2.575 0-0.177-0.002-0.35-0.012-0.517 1.786-0.55 3.086-2.216 3.086-4.182z"></path>
</svg>
