<?xml version="1.0" encoding="utf-8"?>
<!-- Generated by IcoMoon.io -->
<!DOCTYPE svg PUBLIC "-//W3C//DTD SVG 1.1//EN" "http://www.w3.org/Graphics/SVG/1.1/DTD/svg11.dtd">
<svg version="1.1" xmlns="http://www.w3.org/2000/svg" xmlns:xlink="http://www.w3.org/1999/xlink" width="32" height="32" viewBox="0 0 32 32">
<path fill="#444444" d="M27.206 9.316h-6.13v9.857c0.406-0.139 0.843-0.217 1.299-0.217 1.875 0 3.449 1.296 3.874 3.043h3.139v-7.392l-2.182-5.292zM24.204 14.905l-1.481-4.028h3.44l1.66 4.028h-3.62zM17.932 6.606h-13.838c-0.835 0-1.511 0.677-1.511 1.511v13.947h1.959c0.402-1.778 1.991-3.107 3.888-3.107 1.901 0 3.49 1.328 3.891 3.107h6.163c0.157-0.693 0.493-1.318 0.96-1.823v-12.124c0-0.834-0.677-1.511-1.511-1.511zM8.43 20.517c-1.339 0-2.428 1.090-2.428 2.43s1.089 2.43 2.428 2.43c1.342 0 2.431-1.090 2.431-2.43s-1.089-2.43-2.431-2.43zM22.375 20.517c-1.341 0-2.431 1.090-2.431 2.43s1.091 2.43 2.431 2.43 2.43-1.090 2.43-2.43-1.089-2.43-2.43-2.43z"></path>
</svg>
