<?xml version="1.0" encoding="utf-8"?>
<!-- Generated by IcoMoon.io -->
<!DOCTYPE svg PUBLIC "-//W3C//DTD SVG 1.1//EN" "http://www.w3.org/Graphics/SVG/1.1/DTD/svg11.dtd">
<svg version="1.1" xmlns="http://www.w3.org/2000/svg" xmlns:xlink="http://www.w3.org/1999/xlink" width="32" height="32" viewBox="0 0 32 32">
<path fill="#444444" d="M23.976 6.379h-15.678c-0.892 0-1.614 0.723-1.614 1.614v15.678c0 0.892 0.723 1.614 1.614 1.614h15.678c0.892 0 1.614-0.723 1.614-1.614v-15.678c0-0.891-0.722-1.614-1.614-1.614zM20.712 22.411c-0.635 0.299-1.209 0.509-1.724 0.629s-1.071 0.18-1.669 0.18c-0.678 0-1.279-0.086-1.8-0.257s-0.967-0.416-1.335-0.733c-0.368-0.317-0.624-0.655-0.766-1.012s-0.213-0.876-0.213-1.554v-5.209h-1.642v-2.101c0.584-0.19 1.083-0.461 1.499-0.815s0.75-0.779 1.001-1.275c0.252-0.496 0.425-1.127 0.52-1.893h2.112v3.754h3.524v2.331h-3.524v3.808c0 0.861 0.046 1.413 0.137 1.658s0.261 0.44 0.509 0.586c0.328 0.197 0.704 0.296 1.127 0.296 0.751 0 1.499-0.244 2.244-0.733v2.342z"></path>
</svg>
