<?xml version="1.0" encoding="utf-8"?>
<!-- Generated by IcoMoon.io -->
<!DOCTYPE svg PUBLIC "-//W3C//DTD SVG 1.1//EN" "http://www.w3.org/Graphics/SVG/1.1/DTD/svg11.dtd">
<svg version="1.1" xmlns="http://www.w3.org/2000/svg" xmlns:xlink="http://www.w3.org/1999/xlink" width="32" height="32" viewBox="0 0 32 32">
<path fill="#444444" d="M28.897 4.635h-25.742c-0.425 0-0.771 0.344-0.771 0.771v17.606c0 0.425 0.345 0.77 0.771 0.77h25.742c0.427 0 0.771-0.345 0.771-0.77v-17.606c0-0.427-0.343-0.771-0.771-0.771zM22.275 17.591c0 0.797-0.55 1.803-1.222 2.233 0 0-2.616 1.674-7.35 1.674-4.731 0-7.348-1.674-7.348-1.674-0.672-0.43-1.222-1.436-1.222-2.233v-6.736c0-0.799 0.55-1.804 1.222-2.234 0 0 2.616-1.674 7.348-1.674 4.734 0 7.35 1.674 7.35 1.674 0.672 0.43 1.222 1.435 1.222 2.234v6.736zM26.254 14.884c-0.648 0-1.173-0.525-1.173-1.173s0.525-1.171 1.173-1.171c0.648 0 1.171 0.524 1.171 1.171s-0.523 1.173-1.171 1.173zM26.254 10.811c-0.648 0-1.173-0.526-1.173-1.171 0-0.648 0.525-1.173 1.173-1.173s1.171 0.525 1.171 1.173c0 0.646-0.523 1.171-1.171 1.171zM6.668 27.343h17.974v-1.915h-17.974v1.915z"></path>
</svg>
