<?xml version="1.0" encoding="utf-8"?>
<!-- Generated by IcoMoon.io -->
<!DOCTYPE svg PUBLIC "-//W3C//DTD SVG 1.1//EN" "http://www.w3.org/Graphics/SVG/1.1/DTD/svg11.dtd">
<svg version="1.1" xmlns="http://www.w3.org/2000/svg" xmlns:xlink="http://www.w3.org/1999/xlink" width="32" height="32" viewBox="0 0 32 32">
<path fill="#444444" d="M14.256 11.552h7.264c1.391 0 2.474 1.159 2.474 2.473v0.232c0 1.314-1.083 2.473-2.474 2.473h-7.264v1.855c0 0 0 0.077 0 0.155 0 1.159 0.619 2.396 2.009 2.627h5.255c1.391 0 2.474 1.159 2.474 2.473v0.232c0 1.391-1.083 2.473-2.474 2.473h-5.41c-0.154 0-0.232 0-0.387 0h-0.154c-0.154 0-0.232 0-0.387 0-3.708-0.386-6.027-3.632-6.104-7.805 0 0 0-0.078 0-0.155v-9.428c0-1.391 1.159-2.473 2.473-2.473h0.232c1.314 0 2.473 1.082 2.473 2.473v2.396z"></path>
</svg>
