<?xml version="1.0" encoding="utf-8"?>
<!-- Generated by IcoMoon.io -->
<!DOCTYPE svg PUBLIC "-//W3C//DTD SVG 1.1//EN" "http://www.w3.org/Graphics/SVG/1.1/DTD/svg11.dtd">
<svg version="1.1" xmlns="http://www.w3.org/2000/svg" xmlns:xlink="http://www.w3.org/1999/xlink" width="32" height="32" viewBox="0 0 32 32">
<path fill="#444444" d="M16.732 4.442v-1.814h-1.607v1.814c-7.162 0.416-12.842 6.355-12.842 13.622h0.29c0.463-1.295 1.697-2.222 3.151-2.222s2.688 0.928 3.151 2.222h0.501c0.463-1.295 1.697-2.222 3.151-2.222 1.063 0 2.006 0.497 2.619 1.27v9.263c0 1.604 1.3 2.903 2.904 2.904s2.903-1.3 2.904-2.904c0-0.432-0.35-0.782-0.783-0.782s-0.782 0.35-0.782 0.782c-0.001 0.739-0.6 1.338-1.339 1.339-0.739-0.001-1.338-0.6-1.339-1.339v-9.262c0.613-0.773 1.557-1.27 2.619-1.27 1.454 0 2.688 0.928 3.151 2.222h0.501c0.464-1.295 1.697-2.222 3.151-2.222s2.688 0.928 3.151 2.222h0.29c0-7.267-5.68-13.206-12.842-13.622z"></path>
</svg>
