<?xml version="1.0" encoding="utf-8"?>
<!-- Generated by IcoMoon.io -->
<!DOCTYPE svg PUBLIC "-//W3C//DTD SVG 1.1//EN" "http://www.w3.org/Graphics/SVG/1.1/DTD/svg11.dtd">
<svg version="1.1" xmlns="http://www.w3.org/2000/svg" xmlns:xlink="http://www.w3.org/1999/xlink" width="32" height="32" viewBox="0 0 32 32">
<path fill="#444444" d="M22.766 11.4c0.793-0.005 1.564 0.122 2.291 0.373-0.568-0.617-1.188-1.163-1.85-1.629-2.129-1.513-4.605-2.179-6.975-2.176-2.799 0.007-5.501 0.883-7.772 2.448l-3.972-3.972-1.399 14.631 14.63-1.401-4.047-4.048c3.018-2.675 6.189-4.214 9.093-4.226zM28.93 25.67v-2.214c0-2.451-0.323-4.641-0.954-6.578-0.048-0.146-0.098-0.289-0.15-0.433-0.187-0.399-0.392-0.76-0.612-1.083-1.155-1.677-2.632-2.39-4.447-2.405-1.759-0.009-3.845 0.749-5.982 2.204 0.506 0.050 0.985 0.169 1.425 0.353 0.891 0.386 1.664 0.993 2.343 2.179 0.669 1.184 1.212 3.026 1.213 5.762v2.214h7.166z"></path>
</svg>
