<?xml version="1.0" encoding="utf-8"?>
<!-- Generated by IcoMoon.io -->
<!DOCTYPE svg PUBLIC "-//W3C//DTD SVG 1.1//EN" "http://www.w3.org/Graphics/SVG/1.1/DTD/svg11.dtd">
<svg version="1.1" xmlns="http://www.w3.org/2000/svg" xmlns:xlink="http://www.w3.org/1999/xlink" width="32" height="32" viewBox="0 0 32 32">
<path fill="#444444" d="M15.948 2.065c-7.651 0-13.876 6.225-13.876 13.876s6.225 13.876 13.876 13.876c7.651 0 13.876-6.225 13.876-13.876s-6.225-13.876-13.876-13.876zM15.948 3.63c6.799 0 12.311 5.512 12.311 12.311 0 0.842-0.085 1.665-0.246 2.459-0.795 2.504-3.137 4.319-5.904 4.319-3.422 0-6.196-2.774-6.196-6.195s-2.774-6.195-6.195-6.195c-2.979 0-5.465 2.103-6.059 4.906 0.366-6.47 5.728-11.604 12.289-11.604z"></path>
</svg>
