<?xml version="1.0" encoding="utf-8"?>
<!-- Generated by IcoMoon.io -->
<!DOCTYPE svg PUBLIC "-//W3C//DTD SVG 1.1//EN" "http://www.w3.org/Graphics/SVG/1.1/DTD/svg11.dtd">
<svg version="1.1" xmlns="http://www.w3.org/2000/svg" xmlns:xlink="http://www.w3.org/1999/xlink" width="32" height="32" viewBox="0 0 32 32">
<path fill="#444444" d="M28.62 15.139h-11.804l-0-4.901c0-2.080-0.789-3.989-2.096-5.386-1.301-1.397-3.161-2.297-5.212-2.296-2.051-0.002-3.911 0.898-5.212 2.296-1.307 1.397-2.096 3.306-2.097 5.386v6.491h3.813v-0.842l-2.228-2.229h2.228v-3.421c0-1.11 0.42-2.088 1.068-2.781 0.654-0.693 1.495-1.086 2.428-1.087 0.932 0.002 1.773 0.394 2.427 1.087 0.648 0.694 1.068 1.671 1.068 2.781v4.901h-1.637c-0.572 0-1.036 0.464-1.036 1.037v12.158c0 0.572 0.464 1.036 1.036 1.036h17.254c0.573 0 1.037-0.464 1.037-1.036v-12.158c0-0.572-0.464-1.037-1.037-1.037z"></path>
</svg>
