<?xml version="1.0" encoding="utf-8"?>
<!-- Generated by IcoMoon.io -->
<!DOCTYPE svg PUBLIC "-//W3C//DTD SVG 1.1//EN" "http://www.w3.org/Graphics/SVG/1.1/DTD/svg11.dtd">
<svg version="1.1" xmlns="http://www.w3.org/2000/svg" xmlns:xlink="http://www.w3.org/1999/xlink" width="32" height="32" viewBox="0 0 32 32">
<path fill="#444444" d="M23.662 6.787h-3.247v3.265h0.751c-0.037 1.218-0.165 2.067-0.419 2.691-0.311 0.759-0.79 1.302-1.805 1.996-0.729 0.494-1.382 1.001-1.928 1.6v-10.583h1.152l-2.012-3.456-2.012 3.456h1.151v14.111c-0.541-0.588-1.186-1.087-1.905-1.574-1.014-0.694-1.494-1.237-1.805-1.996-0.283-0.695-0.409-1.669-0.427-3.12 0.655-0.32 1.108-0.992 1.108-1.77 0-1.089-0.882-1.971-1.971-1.971s-1.971 0.883-1.971 1.971c0 0.781 0.455 1.454 1.114 1.773 0.020 1.541 0.137 2.718 0.551 3.758 0.453 1.143 1.279 2.004 2.437 2.78 1.048 0.71 1.74 1.322 2.188 2.101 0.292 0.508 0.503 1.121 0.615 1.942-1.284 0.353-2.228 1.525-2.228 2.92 0 1.674 1.357 3.031 3.032 3.031s3.031-1.357 3.031-3.031c0-1.329-0.856-2.455-2.046-2.864v-2.278c0.019-1.545 0.273-2.524 0.705-3.274 0.448-0.778 1.139-1.391 2.188-2.101 1.157-0.776 1.984-1.637 2.437-2.78 0.374-0.943 0.506-1.997 0.542-3.332h0.775v-3.265z"></path>
</svg>
