<?xml version="1.0" encoding="utf-8"?>
<!-- Generated by IcoMoon.io -->
<!DOCTYPE svg PUBLIC "-//W3C//DTD SVG 1.1//EN" "http://www.w3.org/Graphics/SVG/1.1/DTD/svg11.dtd">
<svg version="1.1" xmlns="http://www.w3.org/2000/svg" xmlns:xlink="http://www.w3.org/1999/xlink" width="32" height="32" viewBox="0 0 32 32">
<path fill="#444444" d="M11.697 11.054v8.727c0 0.975 0.791 1.766 1.766 1.766h0.922v7.434h3.197v-7.434h0.922c0.976 0 1.768-0.791 1.768-1.766v-8.727h-8.574zM18.090 14.894h-0.209c-0.012 0.323-0.049 0.589-0.145 0.832-0.127 0.321-0.361 0.562-0.674 0.77-0.274 0.186-0.446 0.342-0.554 0.53-0.106 0.184-0.172 0.428-0.177 0.827v0.549c0.318 0.134 0.542 0.447 0.542 0.811 0 0.485-0.393 0.88-0.88 0.88s-0.879-0.395-0.879-0.88c0-0.38 0.241-0.704 0.579-0.827-0.031-0.176-0.079-0.309-0.144-0.42-0.108-0.19-0.28-0.346-0.554-0.53-0.314-0.21-0.546-0.45-0.672-0.771-0.111-0.28-0.145-0.587-0.151-0.977-0.176-0.102-0.295-0.294-0.295-0.514 0-0.332 0.269-0.6 0.6-0.6 0.33 0 0.599 0.268 0.599 0.6 0 0.218-0.117 0.408-0.292 0.514 0.006 0.353 0.041 0.589 0.106 0.75 0.077 0.184 0.186 0.311 0.45 0.491 0.137 0.093 0.266 0.189 0.381 0.295v-3.468h-0.361l0.667-1.147 0.667 1.147h-0.362v2.532c0.119-0.107 0.247-0.204 0.388-0.298 0.262-0.182 0.371-0.309 0.448-0.493 0.057-0.137 0.091-0.329 0.102-0.604h-0.195v-1.020h1.015v1.020zM19.295 3.013h-6.624v6.277h6.624v-6.277zM15.159 7.802h-1.090v-1.634h1.090v1.634zM17.837 7.802h-1.091v-1.634h1.091v1.634z"></path>
</svg>
