<?xml version="1.0" encoding="utf-8"?>
<!-- Generated by IcoMoon.io -->
<!DOCTYPE svg PUBLIC "-//W3C//DTD SVG 1.1//EN" "http://www.w3.org/Graphics/SVG/1.1/DTD/svg11.dtd">
<svg version="1.1" xmlns="http://www.w3.org/2000/svg" xmlns:xlink="http://www.w3.org/1999/xlink" width="32" height="32" viewBox="0 0 32 32">
<path fill="#444444" d="M21.171 21.138c-1.762-0.551-2.436-1.856-2.634-3.153 0.192-0.22 0.38-0.454 0.562-0.696 1.155 0.369 2.541 0.477 3.726-0.382-1.633-1.634-0.321-3.637-1.5-7.246-1.003-3.068-5.116-2.917-5.645-1.838-2.179-0.772-3.824 0.261-4.431 3.511-0.695 3.732 0.654 4.127-0.979 5.76 1.253 0.716 2.404 0.541 3.401 0.146 0.194 0.264 0.4 0.52 0.611 0.758-0.204 1.292-0.879 2.593-2.634 3.141-1.337 0.418-2.902 0.831-3.828 1.756-0.732 0.731-0.245 2.476-0.245 2.476h17.671c0 0 0.484-1.745-0.245-2.476-0.924-0.925-2.491-1.338-3.828-1.756zM29.41 21.879c-0.73-0.731-1.968-1.056-3.025-1.387-1.39-0.434-1.921-1.466-2.081-2.491 0.151-0.173 0.3-0.357 0.444-0.549 0.912 0.292 2.007 0.377 2.943-0.303-1.29-1.29-0.253-2.87-1.186-5.721-0.793-2.423-4.039-2.305-4.458-1.453-0.051-0.018-0.104-0.036-0.155-0.051 0.437 1.521 0.458 2.761 0.474 3.774 0.020 1.276 0.033 2.119 0.789 2.875l0.388 0.387-0.443 0.321c-0.629 0.456-1.355 0.702-2.16 0.74-0.108 0.688-0.388 1.378-0.987 1.886 0.36 0.351 0.811 0.611 1.359 0.782 0.129 0.040 0.259 0.080 0.392 0.121 1.269 0.391 2.708 0.833 3.626 1.75 0.339 0.338 0.48 0.807 0.525 1.272h3.748c-0-0 0.382-1.378-0.194-1.956zM11.116 20.813c0.131-0.041 0.262-0.081 0.392-0.121 0.366-0.115 0.691-0.271 0.973-0.468-0.928-0.514-1.32-1.369-1.453-2.222 0.022-0.022 0.043-0.048 0.063-0.073-0.36-0.091-0.711-0.233-1.055-0.429l-0.531-0.304 0.433-0.433c0.781-0.782 0.754-1.134 0.681-2.075-0.057-0.752-0.139-1.781 0.172-3.44 0.121-0.655 0.282-1.209 0.47-1.68-1.095-0.322-2.25-0.075-2.487 0.409-1.721-0.609-3.021 0.206-3.499 2.772-0.55 2.948 0.517 3.259-0.775 4.549 0.991 0.566 1.899 0.427 2.686 0.114 0.155 0.209 0.317 0.411 0.482 0.599-0.16 1.020-0.693 2.046-2.079 2.48-1.057 0.331-2.293 0.656-3.023 1.387-0.578 0.577-0.194 1.955-0.194 1.955h4.59c0.045-0.465 0.188-0.934 0.525-1.272 0.915-0.917 2.357-1.359 3.628-1.75z"></path>
</svg>
