<?xml version="1.0" encoding="utf-8"?>
<!-- Generated by IcoMoon.io -->
<!DOCTYPE svg PUBLIC "-//W3C//DTD SVG 1.1//EN" "http://www.w3.org/Graphics/SVG/1.1/DTD/svg11.dtd">
<svg version="1.1" xmlns="http://www.w3.org/2000/svg" xmlns:xlink="http://www.w3.org/1999/xlink" width="32" height="32" viewBox="0 0 32 32">
<path fill="#444444" d="M19.176 20.972c-0.966-0.407-2.037-0.88-3-1.275-0.275-0.075-0.55-0.15-0.825-0.225-0.328-0.226-0.65-0.977-0.825-1.35-0.175-0.025-0.35-0.050-0.525-0.075 0.027-0.578 0.385-0.609 0.525-1.050 0.124-0.389 0.013-0.895 0.209-1.256 0.136-0.25 0.444-0.252 0.598-0.466 0.139-0.195 0.231-0.534 0.275-0.773 0.079-0.436 0.149-1.032-0.058-1.464-0.119-0.248-0.194-0.272-0.227-0.573-0.040-0.365 0.108-1.557 0.114-1.814 0.015-0.668-0.001-1.273-0.163-1.924 0 0-0.197-0.59-0.504-0.768l-0.614-0.105-0.379-0.352c-1.528-0.941-3.167-0.281-4.045 0.075-1.265 0.41-2.064 2.199-1.506 4.845 0.095 0.452-0.247 0.654-0.225 0.9 0.049 0.539 0.059 1.835 0.569 2.155 0.047 0.030 0.409 0.12 0.406 0.095 0.050 0.525 0.1 1.050 0.15 1.575 0.127 0.349 0.432 0.387 0.521 0.88l-0.39 0.095c-0.176 0.373-0.497 1.124-0.825 1.35-0.275 0.075-0.55 0.15-0.825 0.225-0.964 0.395-2.035 0.868-3 1.275-0.879 0.371-1.932 0.503-2.25 1.425 0 0.626-0.059 2.105-0.043 2.925h19.158c0.016-0.82-0.043-2.299-0.043-2.925-0.318-0.922-1.371-1.054-2.25-1.425zM24.596 20.887c-0.688-0.29-1.452-0.627-2.138-0.909-0.196-0.053-0.392-0.107-0.588-0.16-0.234-0.161-0.463-0.696-0.588-0.962-0.125-0.018-0.249-0.036-0.374-0.053 0.019-0.412 0.274-0.434 0.374-0.748 0.088-0.278 0.009-0.638 0.149-0.895 0.097-0.178 0.316-0.18 0.426-0.332 0.1-0.139 0.165-0.381 0.196-0.551 0.056-0.31 0.106-0.736-0.042-1.044-0.085-0.177-0.138-0.194-0.162-0.409-0.029-0.261 0.077-1.11 0.081-1.293 0.011-0.477-0.001-0.908-0.116-1.371 0 0-0.14-0.421-0.36-0.547l-0.437-0.075-0.27-0.251c-1.089-0.671-2.258-0.2-2.883 0.053-0.901 0.293-1.472 1.568-1.074 3.453 0.068 0.322-0.176 0.466-0.16 0.642 0.035 0.385 0.042 1.308 0.405 1.536 0.034 0.021 0.291 0.086 0.29 0.068 0.035 0.374 0.071 0.749 0.107 1.123 0.091 0.249 0.308 0.276 0.371 0.627l-0.278 0.068c-0.089 0.189-0.231 0.514-0.39 0.744 0.346 0.147 0.696 0.297 1.040 0.445 0.402 0.173 0.8 0.344 1.182 0.505 0.182 0.077 0.373 0.143 0.575 0.213 0.755 0.262 1.611 0.558 1.93 1.485l0.025 0.073v0.077c0 0.241 0.009 0.626 0.019 1.033 0.004 0.181 0.009 0.37 0.013 0.558h4.311c0.012-0.585-0.030-1.639-0.030-2.085-0.227-0.657-0.977-0.751-1.604-1.016zM29.572 21.309c-0.158-0.458-0.682-0.524-1.119-0.709-0.48-0.203-1.013-0.438-1.493-0.634-0.137-0.037-0.273-0.075-0.41-0.112-0.163-0.112-0.323-0.486-0.41-0.671-0.087-0.013-0.174-0.025-0.261-0.038 0.013-0.287 0.191-0.303 0.261-0.522 0.061-0.194 0.006-0.445 0.104-0.624 0.068-0.125 0.221-0.126 0.297-0.233 0.069-0.097 0.115-0.265 0.137-0.384 0.039-0.217 0.074-0.514-0.029-0.728-0.059-0.124-0.096-0.136-0.113-0.285-0.020-0.182 0.054-0.774 0.057-0.902 0.008-0.333-0-0.633-0.081-0.958 0 0-0.098-0.293-0.251-0.381l-0.305-0.053-0.189-0.175c-0.761-0.468-1.575-0.14-2.012 0.037-0.629 0.204-1.027 1.094-0.749 2.41 0.047 0.225-0.123 0.325-0.112 0.448 0.024 0.268 0.029 0.913 0.283 1.072 0.024 0.015 0.203 0.060 0.202 0.047 0.025 0.261 0.050 0.522 0.075 0.784 0.063 0.174 0.215 0.193 0.259 0.438l-0.194 0.048c-0.074 0.157-0.2 0.448-0.336 0.602 0.248 0.105 0.498 0.213 0.745 0.319 0.287 0.123 0.572 0.246 0.846 0.361 0.126 0.053 0.26 0.1 0.402 0.149 0.539 0.186 1.209 0.419 1.458 1.14l0.025 0.073v0.077c0 0.17 0.006 0.442 0.013 0.73 0.001 0.043 0.002 0.087 0.003 0.132h2.92c0.008-0.408-0.021-1.144-0.021-1.455z"></path>
</svg>
