<?xml version="1.0" encoding="utf-8"?>
<!-- Generated by IcoMoon.io -->
<!DOCTYPE svg PUBLIC "-//W3C//DTD SVG 1.1//EN" "http://www.w3.org/Graphics/SVG/1.1/DTD/svg11.dtd">
<svg version="1.1" xmlns="http://www.w3.org/2000/svg" xmlns:xlink="http://www.w3.org/1999/xlink" width="32" height="32" viewBox="0 0 32 32">
<path fill="#444444" d="M27.405 25.212c-1.231-1.23-3.315-1.779-5.093-2.335-2.344-0.733-3.24-2.47-3.507-4.194 0.258-0.293 0.509-0.603 0.75-0.926 1.537 0.491 3.378 0.635 4.956-0.508-2.173-2.173-0.429-4.837-1.997-9.636-1.334-4.081-6.802-3.88-7.507-2.446-2.9-1.024-5.087 0.347-5.892 4.669-0.926 4.965 0.869 5.489-1.304 7.661 1.668 0.953 3.197 0.72 4.523 0.193 0.262 0.352 0.534 0.691 0.814 1.009-0.27 1.718-1.169 3.448-3.503 4.178-1.78 0.556-3.863 1.105-5.093 2.335-0.971 0.972-0.325 3.294-0.325 3.294h23.502c-0 0 0.648-2.321-0.323-3.294z"></path>
</svg>
