<?xml version="1.0" encoding="utf-8"?>
<!-- Generated by IcoMoon.io -->
<!DOCTYPE svg PUBLIC "-//W3C//DTD SVG 1.1//EN" "http://www.w3.org/Graphics/SVG/1.1/DTD/svg11.dtd">
<svg version="1.1" xmlns="http://www.w3.org/2000/svg" xmlns:xlink="http://www.w3.org/1999/xlink" width="32" height="32" viewBox="0 0 32 32">
<path fill="#444444" d="M11.152 10.107c0.196-0.012 0.392-0.023 0.588-0.033 0.198-0.010 0.396-0.019 0.594-0.027 0.059-0.002 0.118-0.006 0.178-0.010 0.137-0.008 0.28-0.017 0.427-0.012 0.036 0.001 0.072 0.002 0.108 0.002l0.235-0.002c0 0 0 0 0.001 0 0.058 0 0.116 0.001 0.173 0.004 0.163 0.008 0.337 0.025 0.547 0.055 0.281 0.040 0.558 0.092 0.826 0.143 0.097 0.018 0.186 0.035 0.276 0.052l0.076 0.014c0.239 0.044 0.485 0.090 0.711 0.090l0.043-0.001c0.25-0.007 0.522-0.058 0.785-0.108l0.261-0.049c0.31-0.058 0.627-0.118 0.949-0.158 0.319-0.040 0.622-0.043 0.956-0.043l0.121 0c0.126 0 0.247 0.008 0.363 0.017 0.066 0.005 0.131 0.009 0.197 0.012 0.172 0.007 0.345 0.015 0.517 0.024 0.176 0.009 0.352 0.019 0.528 0.030 0.034-0.673 0.146-1.633 0.153-1.891 0.020-0.898-0.001-0.971-0.219-1.845 0 0-0.264-0.793-0.678-1.031l-0.825-0.142-0.509-0.472c-2.054-1.263-4.255-0.377-5.434 0.101-1.621 0.526-2.672 2.066-2.114 5.294l0.167-0.010z"></path>
<path fill="#444444" d="M28.812 23.996c-0.427-1.239-1.842-1.416-3.023-1.915-1.298-0.547-2.736-1.183-4.031-1.713-0.369-0.101-0.739-0.201-1.109-0.302-0.441-0.304-0.873-1.312-1.109-1.814-0.235-0.034-0.47-0.067-0.706-0.101 0.037-0.776 0.517-0.818 0.706-1.411 0.166-0.523 0.017-1.203 0.281-1.687 0.183-0.336 0.597-0.338 0.803-0.627 0.188-0.262 0.311-0.718 0.369-1.038 0.106-0.581 0.198-1.374-0.072-1.953h-0.283c-0.015 0.025-0.043 0.090-0.086 0.257l-0.016 0.060c-0.096 0.689-0.396 1.267-0.845 1.626-0.38 0.304-0.87 0.465-1.417 0.465-0.119 0-0.241-0.008-0.36-0.024-0.39-0.052-0.756-0.19-1.058-0.4-0.142-0.099-0.279-0.2-0.404-0.35-0.101-0.122-0.189-0.261-0.275-0.438-0.051-0.104-0.094-0.21-0.132-0.303l-0.136-0.347c-0.005-0.014-0.015-0.040-0.026-0.062-0.004 0.011-0.009 0.026-0.013 0.043l-0.161 0.476c-0.102 0.247-0.223 0.498-0.434 0.718-0.257 0.268-0.597 0.469-0.985 0.582-0.241 0.071-0.492 0.106-0.746 0.106-0.428 0-0.832-0.104-1.169-0.3-0.499-0.29-0.851-0.789-1.019-1.443-0.023-0.091-0.049-0.182-0.074-0.273l-0.062-0.226c-0.026-0.097-0.047-0.179-0.080-0.226-0-0-0.001-0.001-0.001-0.001l-0.22-0.002c-0.083 0.152-0.161 0.284-0.148 0.426 0.066 0.724 0.080 2.466 0.764 2.895 0.064 0.040 0.549 0.162 0.546 0.128 0.067 0.705 0.134 1.411 0.201 2.116 0.171 0.469 0.581 0.52 0.7 1.183l-0.525 0.128c-0.236 0.502-0.668 1.51-1.109 1.814-0.369 0.101-0.739 0.202-1.109 0.302-1.294 0.531-2.733 1.166-4.031 1.713-1.182 0.498-2.596 0.676-3.023 1.915 0 0.841-0.079 2.828-0.058 3.93h25.739c0.022-1.102-0.057-3.089-0.057-3.93z"></path>
<path fill="#444444" d="M12.082 11.995c0.192 0.68 0.658 1.115 1.469 1.115s1.469-0.499 1.469-1.115c0-0.616 0.198-1.068-1.469-1.187-0.761-0.054-1.894-0.319-1.469 1.187z"></path>
<path fill="#444444" d="M18.26 10.809c-1.667 0.119-1.469 0.571-1.469 1.187s0.658 1.115 1.469 1.115c0.811 0 1.277-0.435 1.469-1.115 0.425-1.506-0.708-1.241-1.469-1.187z"></path>
</svg>
