<?xml version="1.0" encoding="utf-8"?>
<!-- Generated by IcoMoon.io -->
<!DOCTYPE svg PUBLIC "-//W3C//DTD SVG 1.1//EN" "http://www.w3.org/Graphics/SVG/1.1/DTD/svg11.dtd">
<svg version="1.1" xmlns="http://www.w3.org/2000/svg" xmlns:xlink="http://www.w3.org/1999/xlink" width="32" height="32" viewBox="0 0 32 32">
<path fill="#444444" d="M16.063 21.135c-1.756-0.549-2.424-1.854-2.621-3.146 0.192-0.22 0.381-0.452 0.561-0.695 1.149 0.368 2.524 0.475 3.703-0.378-1.623-1.625-0.32-3.614-1.492-7.202-0.996-3.050-5.083-2.899-5.61-1.826-2.164-0.767-3.801 0.257-4.402 3.489-0.691 3.71 0.649 4.1-0.975 5.724 1.247 0.712 2.388 0.537 3.381 0.144 0.194 0.264 0.4 0.518 0.609 0.756-0.199 1.288-0.869 2.585-2.62 3.133-1.328 0.415-2.886 0.825-3.805 1.745-0.726 0.725-0.242 2.461-0.242 2.461h17.561c0 0 0.484-1.735-0.242-2.461-0.919-0.92-2.476-1.331-3.805-1.745zM22.521 20.322c-1.214-0.38-1.676-1.281-1.811-2.175 0.132-0.151 0.262-0.313 0.387-0.48 0.794 0.255 1.745 0.329 2.56-0.262-1.122-1.122-0.221-2.498-1.032-4.977-0.688-2.107-3.511-2.003-3.876-1.263-0.641-0.227-1.211-0.225-1.689 0.022 0.168 0.978 0.182 1.82 0.194 2.543 0.018 1.267 0.033 2.105 0.782 2.855l0.388 0.388-0.445 0.321c-0.19 0.138-0.39 0.255-0.6 0.356 0.132 0.176 0.269 0.345 0.41 0.505-0.138 0.891-0.601 1.788-1.811 2.167-0.127 0.039-0.255 0.079-0.384 0.119 0.188 0.096 0.389 0.18 0.607 0.249 0.129 0.039 0.257 0.079 0.389 0.119 1.264 0.387 2.695 0.829 3.608 1.74 0.192 0.192 0.32 0.427 0.404 0.679h4.717c0 0 0.335-1.198-0.168-1.7-0.636-0.636-1.712-0.919-2.63-1.206zM29.556 20.265c-0.437-0.44-1.179-0.634-1.813-0.832-0.837-0.262-1.155-0.884-1.249-1.498 0.091-0.106 0.182-0.217 0.268-0.332 0.546 0.175 1.204 0.226 1.764-0.18-0.772-0.773-0.151-1.722-0.711-3.431-0.474-1.454-2.421-1.383-2.671-0.872-0.743-0.262-1.353-0.081-1.745 0.611 0.073 0.556 0.084 1.043 0.090 1.47 0.015 0.943 0.043 1.417 0.499 1.873l0.39 0.388-0.177 0.127c0.090 0.123 0.185 0.239 0.28 0.349-0.094 0.614-0.413 1.233-1.247 1.494-0.297 0.093-0.617 0.186-0.92 0.302 0.108 0.053 0.223 0.102 0.349 0.14 0.088 0.029 0.177 0.055 0.268 0.084 0.889 0.273 1.897 0.581 2.554 1.237 0.071 0.074 0.131 0.155 0.182 0.24h4.007c0 0 0.232-0.827-0.115-1.172z"></path>
</svg>
