<?xml version="1.0" encoding="utf-8"?>
<!-- Generated by IcoMoon.io -->
<!DOCTYPE svg PUBLIC "-//W3C//DTD SVG 1.1//EN" "http://www.w3.org/Graphics/SVG/1.1/DTD/svg11.dtd">
<svg version="1.1" xmlns="http://www.w3.org/2000/svg" xmlns:xlink="http://www.w3.org/1999/xlink" width="32" height="32" viewBox="0 0 32 32">
<path fill="#444444" d="M20.696 6.148c0.23 0.925 0.253 1.002 0.231 1.952-0.009 0.366-0.219 2.059-0.162 2.578 0.047 0.428 0.154 0.462 0.323 0.815 0.294 0.614 0.196 1.461 0.083 2.080-0.062 0.339-0.192 0.821-0.39 1.098-0.219 0.305-0.656 0.307-0.849 0.663-0.279 0.512-0.121 1.231-0.297 1.784-0.2 0.627-0.708 0.671-0.746 1.492 0.249 0.035 0.498 0.071 0.746 0.106 0.249 0.53 0.706 1.597 1.172 1.918 0.391 0.107 0.782 0.213 1.172 0.32 1.369 0.561 2.891 1.233 4.263 1.812 1.249 0.527 2.745 0.715 3.197 2.025 0 0.889 0.084 2.991 0.061 4.156h-27.217c-0.023-1.166 0.061-3.267 0.061-4.156 0.452-1.31 1.948-1.498 3.197-2.025 1.372-0.578 2.894-1.25 4.263-1.812 0.391-0.106 0.782-0.213 1.172-0.32 0.466-0.321 0.923-1.388 1.172-1.918l0.555-0.135c-0.126-0.7-0.56-0.755-0.74-1.251-0.071-0.746-0.142-1.492-0.213-2.238 0.003 0.035-0.51-0.094-0.577-0.136-0.724-0.454-0.739-2.295-0.808-3.061-0.032-0.35 0.455-0.637 0.32-1.279-0.793-3.759 0.343-5.518 2.139-6.101 1.247-0.505 3.575-1.442 5.746-0.106l0.539 0.499 0.872 0.15c0.438 0.253 0.717 1.090 0.717 1.090z"></path>
</svg>
