<?xml version="1.0" encoding="utf-8"?>
<!-- Generated by IcoMoon.io -->
<!DOCTYPE svg PUBLIC "-//W3C//DTD SVG 1.1//EN" "http://www.w3.org/Graphics/SVG/1.1/DTD/svg11.dtd">
<svg version="1.1" xmlns="http://www.w3.org/2000/svg" xmlns:xlink="http://www.w3.org/1999/xlink" width="32" height="32" viewBox="0 0 32 32">
<path fill="#444444" d="M11.199 13.374c-0.031-0.339 0.11-0.596 0.194-0.75 0.016-0.030 0.037-0.069 0.048-0.092-0.072-0.341-0.122-0.669-0.156-0.982l-0.435-0.075-0.277-0.257c-1.115-0.686-2.311-0.205-2.951 0.054-0.923 0.3-1.506 1.605-1.099 3.535 0.069 0.33-0.181 0.477-0.164 0.657 0.036 0.393 0.043 1.339 0.415 1.572 0.034 0.022 0.298 0.088 0.297 0.070 0.036 0.383 0.073 0.766 0.109 1.149 0.093 0.255 0.316 0.283 0.38 0.642l-0.285 0.070c-0.128 0.272-0.362 0.82-0.602 0.985-0.201 0.055-0.402 0.109-0.602 0.164-0.703 0.288-1.484 0.633-2.189 0.93-0.642 0.271-1.41 0.367-1.642 1.040 0 0.457-0.043 1.536-0.031 2.134h3.175c0.004-0.195 0.009-0.391 0.013-0.58 0.010-0.414 0.019-0.806 0.019-1.049v-0.131l0.043-0.124c0.377-1.093 1.371-1.438 2.17-1.714 0.202-0.070 0.392-0.136 0.569-0.21 0.388-0.163 0.792-0.337 1.2-0.513 0.6-0.258 1.219-0.524 1.8-0.763-0.029-0.063-0.056-0.121-0.079-0.17-0.128-0.018-0.255-0.037-0.383-0.055 0.020-0.421 0.281-0.444 0.383-0.766 0.090-0.284 0.009-0.653 0.153-0.916 0.099-0.183 0.324-0.184 0.436-0.34 0.102-0.142 0.169-0.39 0.201-0.564 0.017-0.093 0.033-0.197 0.044-0.305-0.609-0.562-0.685-1.653-0.736-2.398-0.006-0.094-0.012-0.179-0.018-0.25zM29.666 22.087c-0.232-0.672-1-0.769-1.642-1.040-0.705-0.297-1.486-0.642-2.189-0.93-0.201-0.055-0.401-0.11-0.602-0.164-0.24-0.165-0.474-0.713-0.602-0.985-0.128-0.018-0.255-0.037-0.383-0.055 0.020-0.421 0.281-0.444 0.383-0.766 0.090-0.284 0.009-0.653 0.153-0.916 0.099-0.183 0.324-0.184 0.436-0.34 0.102-0.142 0.169-0.39 0.201-0.564 0.058-0.318 0.108-0.753-0.043-1.068-0.087-0.181-0.142-0.199-0.166-0.418-0.029-0.267 0.078-1.136 0.083-1.324 0.011-0.488-0.001-0.929-0.119-1.404 0 0-0.143-0.43-0.368-0.56l-0.448-0.077-0.277-0.257c-1.115-0.686-2.311-0.205-2.951 0.054-0.356 0.116-0.661 0.383-0.878 0.776-0.007 0.13-0.009 0.237-0.004 0.292 0.003 0.029 0.006 0.045 0.008 0.054 0.008 0.014 0.016 0.028 0.025 0.043 0.033 0.056 0.077 0.132 0.128 0.237 0.314 0.656 0.221 1.442 0.124 1.977-0.048 0.264-0.166 0.759-0.415 1.107-0.065 0.091-0.137 0.164-0.21 0.225 0.040 0.417 0.125 0.896 0.375 1.053 0.035 0.022 0.298 0.088 0.297 0.070 0.036 0.383 0.073 0.766 0.109 1.149 0.093 0.255 0.316 0.283 0.38 0.642l-0.285 0.070c-0.022 0.047-0.048 0.104-0.076 0.165 0.585 0.241 1.207 0.508 1.811 0.768 0.409 0.176 0.814 0.35 1.202 0.513 0.177 0.075 0.367 0.141 0.569 0.21 0.799 0.276 1.793 0.621 2.17 1.714l0.043 0.124v0.131c0 0.243 0.009 0.634 0.020 1.049 0.004 0.189 0.009 0.384 0.013 0.58h3.16c0.012-0.598-0.031-1.678-0.031-2.134z"></path>
<path fill="#444444" d="M19.423 8.589c0.166 0.666 0.182 1.285 0.167 1.97-0.006 0.264-0.158 1.483-0.117 1.857 0.034 0.309 0.111 0.333 0.233 0.587 0.212 0.443 0.141 1.053 0.060 1.499-0.044 0.244-0.139 0.592-0.281 0.791-0.158 0.22-0.473 0.221-0.612 0.478-0.201 0.369-0.087 0.887-0.214 1.285-0.144 0.452-0.51 0.484-0.538 1.075 0.18 0.026 0.359 0.051 0.538 0.077 0.18 0.382 0.509 1.15 0.845 1.382 0.282 0.077 0.563 0.154 0.845 0.23 0.986 0.405 2.082 0.889 3.071 1.306 0.9 0.38 1.978 0.515 2.303 1.459 0 0.641 0.061 2.154 0.044 2.994h-19.61c-0.016-0.84 0.044-2.353 0.044-2.994 0.326-0.944 1.403-1.079 2.303-1.459 0.989-0.417 2.085-0.901 3.071-1.306 0.282-0.077 0.563-0.153 0.845-0.23 0.336-0.231 0.665-1 0.845-1.382l0.4-0.097c-0.091-0.505-0.403-0.544-0.534-0.901-0.051-0.537-0.102-1.075-0.153-1.613 0.002 0.025-0.368-0.067-0.416-0.097-0.522-0.327-0.532-1.654-0.582-2.206-0.023-0.252 0.328-0.459 0.23-0.922-0.571-2.708 0.247-4.539 1.542-4.959 0.898-0.364 2.575-1.039 4.14-0.077l0.389 0.36 0.628 0.108c0.315 0.182 0.516 0.786 0.516 0.786z"></path>
</svg>
