<?xml version="1.0" encoding="utf-8"?>
<!-- Generated by IcoMoon.io -->
<!DOCTYPE svg PUBLIC "-//W3C//DTD SVG 1.1//EN" "http://www.w3.org/Graphics/SVG/1.1/DTD/svg11.dtd">
<svg version="1.1" xmlns="http://www.w3.org/2000/svg" xmlns:xlink="http://www.w3.org/1999/xlink" width="32" height="32" viewBox="0 0 32 32">
<path fill="#444444" d="M19.106 16.789v3.663h-6.244v-3.663h-10.524v10.816h27.292v-10.816h-10.524zM12.862 12.689h6.244v2.496h10.522v-4.93c0-0.734-0.595-1.329-1.33-1.329h-4.902v-1.71c-0.001-1.559-1.263-2.821-2.822-2.822h-9.198c-1.559 0.001-2.821 1.263-2.822 2.822v1.71h-4.903c-0.734 0-1.33 0.595-1.33 1.329v4.93h10.541v-2.496zM10.477 7.215c0.001-0.496 0.402-0.897 0.898-0.898h9.198c0.496 0.001 0.897 0.403 0.899 0.898v1.71h-10.995v-1.71zM17.532 18.883v-4.633h-3.114v4.633h3.114z"></path>
</svg>
