<?xml version="1.0" encoding="utf-8"?>
<!-- Generated by IcoMoon.io -->
<!DOCTYPE svg PUBLIC "-//W3C//DTD SVG 1.1//EN" "http://www.w3.org/Graphics/SVG/1.1/DTD/svg11.dtd">
<svg version="1.1" xmlns="http://www.w3.org/2000/svg" xmlns:xlink="http://www.w3.org/1999/xlink" width="32" height="32" viewBox="0 0 32 32">
<path fill="#444444" d="M2.296 7.504v17.032h5.869v-2.035h-1.721v-1.565h4.382v1.565h-1.721v2.035h13.693v-2.035h-1.721v-1.565h4.382v1.565h-1.721v2.035h5.95v-17.032h-27.389zM15.364 11.938h11.659v1.565h-11.659v-1.565zM12.239 17.003c-0.169-0.207-0.481-0.264-0.751-0.378-0.361-0.152-0.761-0.328-1.121-0.476-0.103-0.028-0.205-0.056-0.308-0.084-0.123-0.085-0.242-0.365-0.308-0.504-0.065-0.009-0.13-0.019-0.196-0.028 0.010-0.216 0.143-0.228 0.196-0.392 0.046-0.145 0.005-0.334 0.078-0.469 0.051-0.094 0.166-0.094 0.223-0.174 0.052-0.073 0.087-0.2 0.103-0.288 0.030-0.163 0.056-0.386-0.022-0.547-0.045-0.093-0.072-0.102-0.085-0.214-0.015-0.136 0.040-0.581 0.043-0.677 0.005-0.249-0-0.476-0.061-0.719 0 0-0.073-0.22-0.188-0.287l-0.229-0.039-0.142-0.131c-0.571-0.351-1.183-0.105-1.51 0.028-0.472 0.153-0.771 0.821-0.562 1.809 0.035 0.169-0.093 0.244-0.084 0.336 0.018 0.201 0.022 0.685 0.212 0.805 0.018 0.011 0.153 0.045 0.152 0.036 0.019 0.196 0.037 0.392 0.056 0.588 0.048 0.13 0.162 0.145 0.194 0.329l-0.146 0.035c-0.065 0.139-0.185 0.42-0.308 0.504-0.103 0.028-0.206 0.056-0.308 0.084-0.36 0.148-0.76 0.324-1.12 0.476-0.244 0.103-0.523 0.157-0.699 0.319v-6.414h6.891v6.473zM27.022 16.477h-11.659v-1.565h11.659v1.565z"></path>
</svg>
