<?xml version="1.0" encoding="utf-8"?>
<!-- Generated by IcoMoon.io -->
<!DOCTYPE svg PUBLIC "-//W3C//DTD SVG 1.1//EN" "http://www.w3.org/Graphics/SVG/1.1/DTD/svg11.dtd">
<svg version="1.1" xmlns="http://www.w3.org/2000/svg" xmlns:xlink="http://www.w3.org/1999/xlink" width="32" height="32" viewBox="0 0 32 32">
<path fill="#444444" d="M26.989 12.275c-0.095 2.030-1.513 4.807-4.259 8.334-2.839 3.682-5.245 5.523-7.211 5.523-1.216 0-2.249-1.123-3.087-3.371-0.563-2.059-1.127-4.119-1.687-6.179-0.624-2.246-1.296-3.37-2.015-3.37-0.152 0-0.701 0.327-1.637 0.983l-0.983-1.263c1.031-0.905 2.045-1.811 3.046-2.716 1.373-1.184 2.4-1.809 3.087-1.872 1.623-0.156 2.62 0.953 2.998 3.324 0.403 2.56 0.685 4.151 0.841 4.775 0.47 2.122 0.983 3.183 1.547 3.183 0.435 0 1.090-0.686 1.965-2.060 0.873-1.373 1.341-2.418 1.403-3.137 0.125-1.187-0.343-1.779-1.403-1.779-0.503 0-1.017 0.111-1.547 0.328 1.030-3.34 2.995-4.962 5.898-4.869 2.155 0.062 3.17 1.452 3.043 4.166z"></path>
</svg>
