<?xml version="1.0" encoding="utf-8"?>
<!-- Generated by IcoMoon.io -->
<!DOCTYPE svg PUBLIC "-//W3C//DTD SVG 1.1//EN" "http://www.w3.org/Graphics/SVG/1.1/DTD/svg11.dtd">
<svg version="1.1" xmlns="http://www.w3.org/2000/svg" xmlns:xlink="http://www.w3.org/1999/xlink" width="32" height="32" viewBox="0 0 32 32">
<path fill="#444444" d="M15.908 20.077c2.43 0 4.401-1.97 4.401-4.401v-8.358c0-2.43-1.97-4.401-4.401-4.401s-4.401 1.97-4.401 4.401v8.358c0 2.431 1.97 4.401 4.401 4.401zM21.896 12.752v2.936c-0.001 1.657-0.669 3.147-1.754 4.234-1.087 1.085-2.577 1.753-4.234 1.754-1.657-0.001-3.147-0.669-4.234-1.754-1.085-1.087-1.753-2.577-1.754-4.234v-2.936h-2.191l-0 2.936c0.001 4.146 3.084 7.567 7.083 8.103v3.045h-3.589v2.191h9.369v-2.191h-3.589v-3.045c3.999-0.536 7.082-3.957 7.083-8.103v-2.936h-2.191z"></path>
</svg>
