<?xml version="1.0" encoding="utf-8"?>
<!-- Generated by IcoMoon.io -->
<!DOCTYPE svg PUBLIC "-//W3C//DTD SVG 1.1//EN" "http://www.w3.org/Graphics/SVG/1.1/DTD/svg11.dtd">
<svg version="1.1" xmlns="http://www.w3.org/2000/svg" xmlns:xlink="http://www.w3.org/1999/xlink" width="32" height="32" viewBox="0 0 32 32">
<path fill="#444444" d="M27.829 8.804c0-1.763-1.433-3.198-3.195-3.198h-20.514v2.455h0.216c0.386 0 0.701 0.313 0.701 0.7 0 0.386-0.315 0.7-0.701 0.7h-0.216v13.197h0.216c0.386 0 0.701 0.313 0.701 0.7 0 0.385-0.315 0.7-0.701 0.7h-0.216v2.328h20.514c1.762 0 3.195-1.434 3.195-3.196v-3.784h-4.625c-1.014 0-1.84-0.823-1.84-1.84v-3.138c0-1.017 0.826-1.84 1.84-1.84h4.625v-3.783zM22.701 22.659h1.235v-1.285c0-0.386 0.313-0.699 0.699-0.699s0.699 0.313 0.699 0.699v1.828c0 0.041-0.002 0.074-0.010 0.1-0.051 0.425-0.407 0.756-0.842 0.756h-1.78c-0.386 0-0.699-0.315-0.699-0.7-0-0.387 0.313-0.7 0.699-0.7zM8.325 24.059h-1.4c-0.386 0-0.699-0.315-0.699-0.7 0-0.387 0.313-0.7 0.699-0.7h1.4c0.386 0 0.701 0.313 0.701 0.7 0 0.385-0.315 0.7-0.701 0.7zM8.325 9.461h-1.4c-0.386 0-0.699-0.314-0.699-0.7 0-0.387 0.313-0.7 0.699-0.7h1.4c0.386 0 0.701 0.313 0.701 0.7 0 0.386-0.315 0.7-0.701 0.7zM12.27 24.059h-1.4c-0.384 0-0.699-0.315-0.699-0.7 0-0.387 0.315-0.7 0.699-0.7h1.4c0.386 0 0.699 0.313 0.699 0.7 0 0.385-0.313 0.7-0.699 0.7zM12.27 9.461h-1.4c-0.384 0-0.699-0.314-0.699-0.7 0-0.387 0.315-0.7 0.699-0.7h1.4c0.386 0 0.699 0.313 0.699 0.7 0 0.386-0.313 0.7-0.699 0.7zM16.212 24.059h-1.398c-0.386 0-0.701-0.315-0.701-0.7 0-0.387 0.315-0.7 0.701-0.7h1.398c0.388 0 0.701 0.313 0.701 0.7-0 0.385-0.313 0.7-0.701 0.7zM16.212 9.461h-1.398c-0.386 0-0.701-0.314-0.701-0.7 0-0.387 0.315-0.7 0.701-0.7h1.398c0.388 0 0.701 0.313 0.701 0.7-0 0.386-0.313 0.7-0.701 0.7zM20.157 24.059h-1.4c-0.386 0-0.699-0.315-0.699-0.7 0-0.387 0.313-0.7 0.699-0.7h1.4c0.386 0 0.701 0.313 0.701 0.7 0 0.385-0.315 0.7-0.701 0.7zM20.157 9.461h-1.4c-0.386 0-0.699-0.314-0.699-0.7 0-0.387 0.313-0.7 0.699-0.7h1.4c0.386 0 0.701 0.313 0.701 0.7 0 0.386-0.315 0.7-0.701 0.7zM25.334 10.745c0 0.387-0.313 0.701-0.699 0.701s-0.699-0.315-0.699-0.701v-1.283h-1.235c-0.386 0-0.699-0.314-0.699-0.7 0-0.387 0.313-0.7 0.699-0.7h1.78c0.435 0 0.791 0.33 0.842 0.754 0.008 0.028 0.010 0.060 0.010 0.1v1.829zM23.043 15.996c0 0.879 0.714 1.591 1.594 1.591 0.877 0 1.59-0.712 1.59-1.591 0-0.878-0.713-1.591-1.59-1.591-0.881 0-1.594 0.713-1.594 1.591z"></path>
</svg>
