<?xml version="1.0" encoding="utf-8"?>
<!-- Generated by IcoMoon.io -->
<!DOCTYPE svg PUBLIC "-//W3C//DTD SVG 1.1//EN" "http://www.w3.org/Graphics/SVG/1.1/DTD/svg11.dtd">
<svg version="1.1" xmlns="http://www.w3.org/2000/svg" xmlns:xlink="http://www.w3.org/1999/xlink" width="32" height="32" viewBox="0 0 32 32">
<path fill="#444444" d="M19.187 7.774c0.562 0 1.017-0.455 1.017-1.017v-3.183c0-0.562-0.455-1.017-1.017-1.017s-1.017 0.455-1.017 1.017v3.183c0 0.562 0.456 1.017 1.017 1.017zM24.234 9.227l2.251-2.251c0.397-0.397 0.397-1.041 0-1.438s-1.041-0.397-1.439 0l-2.251 2.251c-0.397 0.397-0.397 1.041 0 1.439s1.041 0.397 1.439 0zM14.168 9.387c0.397 0.397 1.041 0.397 1.439 0s0.397-1.041 0-1.439l-2.251-2.251c-0.397-0.397-1.041-0.397-1.438 0s-0.397 1.041 0 1.439l2.251 2.251zM24.136 16.478c-0.397-0.397-1.041-0.397-1.439 0s-0.397 1.041 0 1.439l2.251 2.251c0.397 0.397 1.041 0.397 1.439 0s0.397-1.041 0-1.438l-2.251-2.251zM19.76 8.287l-17.409 17.409 3.673 3.672 17.409-17.408-3.673-3.673zM15.686 14.485l4.225-4.226 1.549 1.549-4.225 4.225-1.549-1.549zM28.511 11.88h-3.183c-0.562 0-1.017 0.456-1.017 1.017s0.455 1.017 1.017 1.017h3.183c0.562 0 1.017-0.456 1.017-1.017s-0.455-1.017-1.017-1.017z"></path>
</svg>
