<?xml version="1.0" encoding="utf-8"?>
<!-- Generated by IcoMoon.io -->
<!DOCTYPE svg PUBLIC "-//W3C//DTD SVG 1.1//EN" "http://www.w3.org/Graphics/SVG/1.1/DTD/svg11.dtd">
<svg version="1.1" xmlns="http://www.w3.org/2000/svg" xmlns:xlink="http://www.w3.org/1999/xlink" width="32" height="32" viewBox="0 0 32 32">
<path fill="#444444" d="M28.342 20.562h-24.735c-0.881 0-1.267 0.638-0.858 1.419l1.841 3.518c0.411 0.78 1.466 1.418 2.348 1.418h18.072c0.881 0 1.938-0.639 2.346-1.418l1.844-3.518c0.409-0.781 0.022-1.419-0.858-1.419zM7.458 25.337c-0.881 0-1.596-0.715-1.596-1.596 0-0.882 0.715-1.596 1.596-1.596 0.883 0 1.596 0.714 1.596 1.596 0 0.881-0.713 1.596-1.596 1.596zM13.212 25.337c-0.881 0-1.594-0.715-1.594-1.596 0-0.882 0.713-1.596 1.594-1.596 0.883 0 1.596 0.714 1.596 1.596 0 0.881-0.713 1.596-1.596 1.596zM18.967 25.267c-0.844 0-1.527-0.685-1.527-1.527 0-0.844 0.683-1.527 1.527-1.527s1.527 0.684 1.527 1.527c-0 0.842-0.683 1.527-1.527 1.527zM24.721 25.267c-0.842 0-1.527-0.685-1.527-1.527 0-0.844 0.685-1.527 1.527-1.527 0.844 0 1.529 0.684 1.529 1.527 0 0.842-0.685 1.527-1.529 1.527zM7.364 10.266l3.773 2.191c0 0.016-0.002 0.033-0.002 0.050v2.664h-3.090l-2.052 3.547h20.402l-2.054-3.547h-3.025v-2.664c0-0.845-0.687-1.53-1.531-1.53h-7.119c-0.031 0-0.057 0.002-0.086 0.003l-4.21-2.444 0.482-0.83-4.468-2.594-1.974 3.397 4.468 2.594 0.487-0.837z"></path>
</svg>
