<?xml version="1.0" encoding="utf-8"?>
<!-- Generated by IcoMoon.io -->
<!DOCTYPE svg PUBLIC "-//W3C//DTD SVG 1.1//EN" "http://www.w3.org/Graphics/SVG/1.1/DTD/svg11.dtd">
<svg version="1.1" xmlns="http://www.w3.org/2000/svg" xmlns:xlink="http://www.w3.org/1999/xlink" width="32" height="32" viewBox="0 0 32 32">
<path fill="#444444" d="M26.129 25.68l-2.39-12.911c-0.084-0.455-0.481-0.785-0.943-0.785h-3.778c0.654-0.722 1.052-1.679 1.052-2.728 0-2.244-1.826-4.070-4.070-4.070s-4.070 1.826-4.070 4.070c0 1.049 0.399 2.005 1.052 2.728h-3.779c-0.462 0-0.859 0.33-0.943 0.785l-2.389 12.911c-0.052 0.28 0.023 0.569 0.206 0.788s0.452 0.346 0.737 0.346h18.371c0.285 0 0.555-0.127 0.738-0.346s0.258-0.508 0.206-0.788zM16 6.99c1.252 0 2.266 1.015 2.266 2.266s-1.014 2.266-2.266 2.266c-1.251 0-2.266-1.014-2.266-2.266s1.014-2.266 2.266-2.266zM13.964 23.463l-1.953-2.767-0.49 0.497v2.27h-1.637v-6.822h1.637v2.463l2.31-2.463h2.183l-2.841 2.847 2.913 3.975h-2.122zM22.457 23.463h-1.176l-0.107-0.636c-0.193 0.202-0.37 0.351-0.537 0.452-0.381 0.233-0.854 0.352-1.405 0.352-0.904 0-1.656-0.318-2.234-0.946-0.598-0.625-0.902-1.49-0.902-2.569 0-1.089 0.306-1.977 0.911-2.639 0.608-0.666 1.421-1.004 2.416-1.004 0.861 0 1.566 0.224 2.094 0.665 0.531 0.444 0.84 1.006 0.918 1.67l0.019 0.165h-1.625l-0.027-0.114c-0.093-0.401-0.313-0.674-0.673-0.832-0.204-0.088-0.436-0.134-0.688-0.134-0.485 0-0.871 0.178-1.183 0.543-0.313 0.367-0.472 0.936-0.472 1.691 0 0.754 0.168 1.29 0.501 1.592 0.341 0.31 0.717 0.461 1.149 0.461 0.424 0 0.759-0.116 1.026-0.356 0.229-0.205 0.379-0.46 0.458-0.774h-1.477v-1.385h3.015v3.798z"></path>
</svg>
