<?xml version="1.0" encoding="utf-8"?>
<!-- Generated by IcoMoon.io -->
<!DOCTYPE svg PUBLIC "-//W3C//DTD SVG 1.1//EN" "http://www.w3.org/Graphics/SVG/1.1/DTD/svg11.dtd">
<svg version="1.1" xmlns="http://www.w3.org/2000/svg" xmlns:xlink="http://www.w3.org/1999/xlink" width="32" height="32" viewBox="0 0 32 32">
<path fill="#444444" d="M10.13 20.921l1.867 1.867c1.006-1.068 2.43-1.739 4.013-1.739s3.007 0.671 4.014 1.739l1.867-1.867c-1.486-1.548-3.571-2.516-5.881-2.516s-4.394 0.968-5.88 2.516zM16.010 23.924c-0.788 0-1.489 0.354-1.974 0.903l1.974 1.974 1.974-1.974c-0.485-0.549-1.186-0.903-1.974-0.903zM29.763 12.815c-7.596-7.596-19.91-7.595-27.506 0-0.039 0.039-0.075 0.080-0.113 0.119l1.916 1.916c3.038-3.098 7.268-5.022 11.95-5.022s8.912 1.924 11.95 5.022l1.916-1.916c-0.039-0.039-0.074-0.080-0.114-0.119zM16.010 12.704c-3.703 0-7.185 1.442-9.804 4.061-0.039 0.039-0.075 0.080-0.114 0.119l1.999 1.998c2.006-2.066 4.812-3.352 7.919-3.352s5.913 1.286 7.919 3.352l1.998-1.998c-0.039-0.040-0.075-0.081-0.114-0.12-2.619-2.619-6.1-4.061-9.803-4.061z"></path>
</svg>
