<?xml version="1.0" encoding="utf-8"?>
<!-- Generated by IcoMoon.io -->
<!DOCTYPE svg PUBLIC "-//W3C//DTD SVG 1.1//EN" "http://www.w3.org/Graphics/SVG/1.1/DTD/svg11.dtd">
<svg version="1.1" xmlns="http://www.w3.org/2000/svg" xmlns:xlink="http://www.w3.org/1999/xlink" width="32" height="32" viewBox="0 0 32 32">
<path fill="#444444" d="M14.368 16.217c-1.182-0.725-2.314-1.336-3.733-1.447-1.734-0.137-3.464 0.385-5.053 1.033l-2.283 7.987c3.060-1.169 5.882-1.303 8.714 0.492l2.356-8.065c0 0-0.001-0-0.001-0zM11.316 13.12c1.441 0.177 2.586 0.787 3.519 1.373 0.772-2.666 1.537-5.333 2.316-7.997-1.112-0.707-2.248-1.321-3.58-1.453-1.753-0.209-3.579 0.317-5.182 0.972-0.781 2.672-1.547 5.349-2.319 8.023 1.655-0.649 3.456-1.138 5.247-0.919zM20.659 18.761c-2.147 0-3.608-0.756-4.86-1.589-0.006 0.007-0.016 0.013-0.023 0.018l-2.319 8.027c2.94 1.949 6.269 1.93 9.466 0.58l2.249-7.846-0.020 0.005c-1.695 0.567-3.182 0.804-4.493 0.804zM28.028 8.035c-0.006-0.004-0.011-0.009-0.016-0.014-3.229 1.311-6.411 1.448-9.409-0.544-0.137 0.473-0.263 0.831-0.343 1.108-0.265 0.917-0.53 1.833-0.795 2.75-0.406 1.408-0.813 2.816-1.219 4.223 2.931 1.895 6.257 1.996 9.433 0.568l2.354-8.086-0.005-0.005z"></path>
</svg>
