<?xml version="1.0" encoding="utf-8"?>
<!-- Generated by IcoMoon.io -->
<!DOCTYPE svg PUBLIC "-//W3C//DTD SVG 1.1//EN" "http://www.w3.org/Graphics/SVG/1.1/DTD/svg11.dtd">
<svg version="1.1" xmlns="http://www.w3.org/2000/svg" xmlns:xlink="http://www.w3.org/1999/xlink" width="32" height="32" viewBox="0 0 32 32">
<path fill="#444444" d="M15.852 4.768c-6.297 0.002-11.413 5.118-11.415 11.415 0.002 6.296 5.118 11.413 11.415 11.415 6.296-0.001 11.413-5.118 11.415-11.415-0.002-6.296-5.119-11.413-11.415-11.415zM22.682 23.014c-1.754 1.752-4.165 2.834-6.83 2.835-2.666-0.001-5.078-1.082-6.831-2.835-1.752-1.753-2.834-4.165-2.834-6.831s1.082-5.077 2.834-6.83c1.753-1.752 4.165-2.834 6.831-2.834s5.077 1.082 6.83 2.834c1.752 1.753 2.834 4.164 2.834 6.83s-1.082 5.077-2.834 6.831zM7.325 16.183c0 3.375 1.961 6.292 4.806 7.673l-4.068-11.143c-0.473 1.060-0.738 2.234-0.738 3.47zM16.001 16.929l-2.558 7.434c0.764 0.225 1.572 0.347 2.409 0.347 0.993 0 1.945-0.171 2.831-0.483-0.022-0.036-0.044-0.075-0.061-0.118l-2.621-7.18zM23.334 12.092c0.037 0.272 0.057 0.563 0.057 0.877 0 0.865-0.162 1.837-0.648 3.054l-2.604 7.53c2.535-1.478 4.24-4.224 4.24-7.37 0-1.482-0.379-2.876-1.044-4.090zM21.608 15.753c0-1.054-0.379-1.783-0.703-2.351-0.432-0.703-0.837-1.298-0.837-2 0-0.783 0.594-1.513 1.432-1.513 0.038 0 0.074 0.005 0.11 0.007-1.517-1.39-3.538-2.239-5.758-2.239-2.979 0-5.599 1.528-7.124 3.843 0.2 0.006 0.389 0.010 0.549 0.010 0.891 0 2.272-0.109 2.272-0.109 0.46-0.027 0.514 0.649 0.055 0.703 0 0-0.462 0.054-0.976 0.082l3.105 9.236 1.866-5.596-1.329-3.639c-0.459-0.027-0.894-0.082-0.894-0.082-0.46-0.027-0.406-0.729 0.054-0.703 0 0 1.407 0.109 2.245 0.109 0.892 0 2.272-0.109 2.272-0.109 0.46-0.027 0.514 0.649 0.054 0.703 0 0-0.462 0.054-0.976 0.082l3.081 9.165 0.851-2.842c0.433-1.108 0.649-2.027 0.649-2.757z"></path>
</svg>
