<?xml version="1.0" encoding="utf-8"?>
<!-- Generated by IcoMoon.io -->
<!DOCTYPE svg PUBLIC "-//W3C//DTD SVG 1.1//EN" "http://www.w3.org/Graphics/SVG/1.1/DTD/svg11.dtd">
<svg version="1.1" xmlns="http://www.w3.org/2000/svg" xmlns:xlink="http://www.w3.org/1999/xlink" width="32" height="32" viewBox="0 0 32 32">
<path fill="#444444" d="M25.73 10.098l-3.053-0.818-0.818-3.053 3.116-3.116c-1.839-0.497-3.886-0.024-5.329 1.419-1.453 1.452-1.922 3.514-1.41 5.362l-8.409 8.409c-1.848-0.511-3.91-0.042-5.362 1.411-1.444 1.444-1.916 3.49-1.419 5.33l3.117-3.116 3.053 0.818 0.818 3.053-3.117 3.116c1.839 0.496 3.886 0.024 5.329-1.42 1.516-1.516 1.961-3.696 1.338-5.604l8.241-8.241c1.907 0.623 4.088 0.178 5.603-1.338 1.444-1.444 1.916-3.49 1.42-5.33l-3.116 3.116z"></path>
</svg>
