<?xml version="1.0" encoding="utf-8"?>
<!-- Generated by IcoMoon.io -->
<!DOCTYPE svg PUBLIC "-//W3C//DTD SVG 1.1//EN" "http://www.w3.org/Graphics/SVG/1.1/DTD/svg11.dtd">
<svg version="1.1" xmlns="http://www.w3.org/2000/svg" xmlns:xlink="http://www.w3.org/1999/xlink" width="32" height="32" viewBox="0 0 32 32">
<path fill="#444444" d="M11.879 19.907c-0.002-0.012-0.004-0.024-0.006-0.036l2.529-3.053-2.854-0.005c-0.006-0.198-0.010-0.397-0.010-0.598-0.005-2.986 0.647-5.676 1.599-7.487 0.471-0.906 1.014-1.583 1.52-1.99 0.514-0.41 0.942-0.554 1.357-0.557 0.499 0.002 1.050 0.222 1.697 0.866 0.634 0.636 1.275 1.676 1.763 3.002 0.027 0.074 0.054 0.15 0.081 0.226l2.306-2.784c-0.515-1.039-1.131-1.954-1.867-2.702-1.048-1.070-2.428-1.821-3.979-1.819-1.264-0.003-2.436 0.504-3.377 1.272-1.419 1.161-2.449 2.879-3.179 4.93-0.724 2.054-1.129 4.461-1.13 7.042 0 0.199 0.004 0.396 0.008 0.592l-3.17-0.005 4.608 5.603 2.069-2.498h0.036zM26.767 15.627l-4.608-5.603-4.627 5.587 2.951 0.005c0.006 0.199 0.009 0.398 0.009 0.599 0.004 2.985-0.647 5.676-1.599 7.486-0.471 0.906-1.014 1.583-1.52 1.99-0.514 0.41-0.942 0.554-1.357 0.557-0.29-0.001-0.572-0.071-0.899-0.247-0.485-0.26-1.049-0.79-1.568-1.593-0.389-0.598-0.751-1.341-1.054-2.194l-2.302 2.779c0.415 0.828 0.897 1.573 1.45 2.22 0.563 0.654 1.204 1.208 1.939 1.608 0.732 0.4 1.567 0.638 2.432 0.637h0.011c1.26 0 2.428-0.506 3.366-1.272 1.42-1.161 2.449-2.879 3.18-4.93 0.724-2.053 1.129-4.46 1.13-7.041-0-0.199-0.006-0.396-0.011-0.594l3.077 0.005z"></path>
</svg>
