<?xml version="1.0" encoding="utf-8"?>
<!-- Generated by IcoMoon.io -->
<!DOCTYPE svg PUBLIC "-//W3C//DTD SVG 1.1//EN" "http://www.w3.org/Graphics/SVG/1.1/DTD/svg11.dtd">
<svg version="1.1" xmlns="http://www.w3.org/2000/svg" xmlns:xlink="http://www.w3.org/1999/xlink" width="32" height="32" viewBox="0 0 32 32">
<path fill="#444444" d="M24.834 10.154c-0.421-0.666-0.929-1.297-1.508-1.875l-0.018-0.017c-0.158-0.158-0.333-0.316-0.508-0.473-0.052 0.018-0.105 0.035-0.157 0.053-1.472 0.543-2.91 1.595-4.312 3.12l0.018 0.017c2.962 2.892 4.82 5.767 5.574 8.624 0.192 0.754 0.298 1.508 0.35 2.261 1.349-1.735 2.033-3.734 2.086-5.994v-0.527c-0.053-1.91-0.561-3.646-1.524-5.188zM23.555 22.090c-0.053-0.157-0.123-0.316-0.175-0.473-0.017-0.018-0.017-0.053-0.017-0.070-1.087-2.629-3.12-5.153-6.118-7.589v-0.018h-0.017c-0.403-0.333-0.807-0.649-1.244-0.964-0.438 0.315-0.842 0.631-1.227 0.964-3.207 2.576-5.311 5.293-6.327 8.133-0.035 0.070-0.070 0.158-0.087 0.246-0.018 0.070-0.053 0.14-0.070 0.21 0.123 0.14 0.263 0.28 0.385 0.403 1.963 1.981 4.312 2.997 7.064 3.050h0.526c2.751-0.052 5.1-1.069 7.063-3.050 0.123-0.123 0.263-0.263 0.386-0.403-0.017-0.070-0.052-0.14-0.070-0.21-0.018-0.088-0.053-0.158-0.070-0.228zM15.983 9.102c2.243-1.805 4.224-2.471 5.942-2.015-1.665-1.192-3.559-1.805-5.679-1.858h-0.526c-2.121 0.053-4.014 0.666-5.679 1.858 1.718-0.456 3.698 0.21 5.942 2.015zM13.634 10.96c-1.403-1.525-2.84-2.577-4.312-3.12-0.053-0.018-0.105-0.035-0.158-0.053-0.176 0.157-0.35 0.315-0.509 0.473v0.017c-0.596 0.578-1.104 1.209-1.525 1.875-0.964 1.542-1.472 3.278-1.524 5.188v0.527c0.052 2.278 0.753 4.276 2.12 6.011 0.035-0.753 0.157-1.525 0.35-2.296 0.736-2.857 2.594-5.732 5.557-8.624z"></path>
</svg>
