<?xml version="1.0" encoding="utf-8"?>
<!-- Generated by IcoMoon.io -->
<!DOCTYPE svg PUBLIC "-//W3C//DTD SVG 1.1//EN" "http://www.w3.org/Graphics/SVG/1.1/DTD/svg11.dtd">
<svg version="1.1" xmlns="http://www.w3.org/2000/svg" xmlns:xlink="http://www.w3.org/1999/xlink" width="32" height="32" viewBox="0 0 32 32">
<path fill="#444444" d="M24.569 23.308l2.769 0.338 0.308-2.43-2.769-0.338-0.308 2.43zM27.462 19.585l2.646-10.677-4.739-0.584 0.031 10.985 2.062 0.276zM13.203 8.581c-6.197 0-10.204 3.473-10.204 7.756s4.179 7.756 10.204 7.756c6.026 0 10.205-3.473 10.205-7.756s-4.007-7.756-10.205-7.756zM19.072 14.461c-0.219 0.023-1.134 0.226-1.439 0.292-0.33 0.088-3.334 2.409-3.53 2.979-0.044 0.197-0.065 0.5-0.065 0.785l-0.023 0.461c0 0.33 0.091 0.859 0.133 1.144 0.197 0.043 1.627 0.005 1.892 0.049l-0.034 0.589c-0.255-0.019-2.070-0.014-3.107-0.014-0.526 0-2.218 0.057-2.738 0.042l0.098-0.559c0.284-0.023 1.465 0.051 1.725-0.224 0.129-0.137 0.088-0.28 0.088-1.070v-0.374c0-0.174 0-0.505-0.044-0.811-0.109-0.33-2.756-3.633-3.436-4.159-0.196-0.065-1.434-0.19-1.741-0.255l-0.015-0.505c0.154-0.077 1.528 0.020 2.862-0.030 0.878-0.032 2.88 0 3.125 0.030l-0.063 0.444c-0.263 0.066-1.531 0.090-1.86 0.178 0.856 1.272 2.207 2.91 2.647 3.546 0.24-0.351 2.359-1.81 2.426-2.314-0.329-0.066-1.419-0.223-1.593-0.223l-0.104-0.574c0.298-0.047 1.869 0 2.648 0 0.674 0 2.113 0 2.521 0.034l-0.374 0.54z"></path>
</svg>
