<?xml version="1.0" encoding="utf-8"?>
<!-- Generated by IcoMoon.io -->
<!DOCTYPE svg PUBLIC "-//W3C//DTD SVG 1.1//EN" "http://www.w3.org/Graphics/SVG/1.1/DTD/svg11.dtd">
<svg version="1.1" xmlns="http://www.w3.org/2000/svg" xmlns:xlink="http://www.w3.org/1999/xlink" width="32" height="32" viewBox="0 0 32 32">
<path fill="#444444" d="M19.652 20.081c-0.012 0.002-0.024 0.004-0.036 0.006l-3.053-2.529-0.005 2.854c-0.198 0.006-0.397 0.010-0.598 0.010-2.986 0.005-5.676-0.647-7.487-1.599-0.906-0.472-1.583-1.014-1.99-1.52-0.41-0.514-0.554-0.942-0.557-1.357 0.002-0.499 0.222-1.050 0.866-1.697 0.636-0.634 1.676-1.275 3.002-1.763 0.074-0.027 0.15-0.054 0.226-0.081l-2.784-2.306c-1.039 0.514-1.954 1.131-2.702 1.867-1.070 1.048-1.821 2.428-1.819 3.98-0.003 1.264 0.504 2.436 1.272 3.377 1.161 1.419 2.88 2.449 4.93 3.179 2.054 0.724 4.461 1.129 7.042 1.13 0.199 0 0.396-0.003 0.592-0.008l-0.006 3.17 5.603-4.608-2.498-2.069v-0.036zM15.372 5.194l-5.603 4.608 5.587 4.628 0.005-2.951c0.199-0.006 0.398-0.010 0.599-0.009 2.986-0.004 5.676 0.647 7.486 1.599 0.906 0.472 1.584 1.014 1.99 1.52 0.41 0.514 0.554 0.942 0.557 1.357-0.002 0.29-0.071 0.572-0.247 0.899-0.26 0.485-0.79 1.049-1.593 1.568-0.598 0.389-1.341 0.75-2.194 1.054l2.779 2.302c0.828-0.415 1.573-0.897 2.22-1.45 0.654-0.563 1.208-1.204 1.608-1.939 0.4-0.732 0.638-1.567 0.637-2.433v-0.011c0-1.26-0.506-2.428-1.273-3.366-1.161-1.42-2.879-2.449-4.93-3.179-2.053-0.724-4.46-1.129-7.041-1.13-0.2 0-0.396 0.006-0.594 0.011l0.005-3.077z"></path>
</svg>
