<?xml version="1.0" encoding="utf-8"?>
<!-- Generated by IcoMoon.io -->
<!DOCTYPE svg PUBLIC "-//W3C//DTD SVG 1.1//EN" "http://www.w3.org/Graphics/SVG/1.1/DTD/svg11.dtd">
<svg version="1.1" xmlns="http://www.w3.org/2000/svg" xmlns:xlink="http://www.w3.org/1999/xlink" width="32" height="32" viewBox="0 0 32 32">
<path fill="#444444" d="M20.301 10.798l0.001 0.002c-0.005-0.007-0.009-0.013-0.015-0.020-0.264-0.364-0.524-0.715-0.779-1.048-0.337-0.564-0.515-1.25-0.101-2.241v-0.001l1.424-3.407-2.238-1.019 0.231-1.010h-5.615l0.294 1.287-2.3 0.742 1.423 3.407 0.001 0.001c0.703 1.684-0.303 2.488-0.895 3.308-2.929 4.050-6.207 9.848-6.207 13.343 0 5.796 4.5 5.603 10.491 5.603 5.993 0 10.493 0.193 10.493-5.603 0-3.496-3.279-9.294-6.207-13.345zM14.605 7.954h2.867v1.808h-2.867v-1.808zM19.194 19.165v1.299h-1.955l-0.205 0.396v0.629h2.16v1.299h-2.16v1.886h-2.078v-1.886h-2.146v-1.299h2.146v-0.629l-0.19-0.396h-1.956v-1.299h1.3l-2.093-4.251h2.216l1.804 4.251 1.764-4.251h2.215l-2.12 4.251h1.299z"></path>
</svg>
