<?xml version="1.0" encoding="utf-8"?>
<!-- Generated by IcoMoon.io -->
<!DOCTYPE svg PUBLIC "-//W3C//DTD SVG 1.1//EN" "http://www.w3.org/Graphics/SVG/1.1/DTD/svg11.dtd">
<svg version="1.1" xmlns="http://www.w3.org/2000/svg" xmlns:xlink="http://www.w3.org/1999/xlink" width="32" height="32" viewBox="0 0 32 32">
<path fill="#444444" d="M13.517 12.434c0 0.476 0.137 0.854 0.41 1.135s0.637 0.422 1.093 0.422c0.473 0 0.844-0.136 1.114-0.409s0.405-0.649 0.405-1.128v-2.891c0-0.427-0.137-0.775-0.413-1.046s-0.628-0.406-1.058-0.406c-0.473 0-0.85 0.129-1.13 0.386s-0.42 0.602-0.42 1.036v2.902zM14.588 9.49c0-0.122 0.040-0.221 0.119-0.296s0.183-0.113 0.31-0.113c0.138 0 0.249 0.038 0.333 0.113s0.127 0.174 0.127 0.296v3.049c0 0.151-0.041 0.268-0.124 0.354s-0.195 0.129-0.336 0.129c-0.138 0-0.243-0.042-0.318-0.126s-0.111-0.203-0.111-0.357v-3.049zM11.034 13.85h1.172v-3.149l1.364-4.44h-1.191l-0.725 3.033h-0.074l-0.761-3.033h-1.181l1.394 4.581v3.007zM18.149 13.931c0.195 0 0.396-0.060 0.604-0.178s0.407-0.293 0.599-0.52v0.618h1.041v-5.598h-1.041v4.249c-0.098 0.122-0.205 0.223-0.322 0.301s-0.214 0.118-0.29 0.118c-0.098 0-0.168-0.030-0.212-0.089s-0.065-0.155-0.065-0.288v-4.291h-1.041v4.679c0 0.333 0.061 0.583 0.183 0.75s0.303 0.25 0.544 0.25zM25.545 18.097c0-1.352-1.11-2.449-2.477-2.449-1.951-0.082-3.948-0.118-5.985-0.114-2.037-0.004-4.034 0.032-5.985 0.114-1.368 0-2.477 1.097-2.477 2.449-0.082 1.071-0.118 2.142-0.115 3.212-0.003 1.071 0.032 2.141 0.115 3.212 0 1.352 1.109 2.449 2.477 2.449 1.952 0.081 3.949 0.118 5.985 0.114 2.037 0.004 4.034-0.032 5.985-0.114 1.368 0 2.477-1.097 2.477-2.449 0.082-1.071 0.117-2.141 0.114-3.212 0.003-1.071-0.033-2.141-0.114-3.212zM12.219 24.995h-1.172v-6.487h-1.213v-1.101h3.597v1.101h-1.213v6.487zM16.388 24.995h-1.041v-0.618c-0.191 0.228-0.391 0.401-0.599 0.52s-0.409 0.178-0.604 0.178c-0.241 0-0.422-0.083-0.544-0.25s-0.183-0.417-0.183-0.75v-4.679h1.040v4.291c0 0.133 0.022 0.229 0.066 0.288s0.114 0.089 0.212 0.089c0.077 0 0.173-0.039 0.29-0.118s0.224-0.179 0.321-0.301v-4.249h1.041v5.598zM20.394 23.835c0 0.398-0.082 0.703-0.244 0.914s-0.399 0.317-0.707 0.317c-0.203 0-0.385-0.041-0.544-0.123s-0.308-0.208-0.444-0.378v0.43h-1.051v-7.588h1.051v2.443c0.14-0.171 0.289-0.301 0.447-0.39s0.317-0.134 0.479-0.134c0.329 0 0.581 0.12 0.754 0.359s0.261 0.587 0.261 1.044v3.106zM24.241 22.327h-1.991v1.056c0 0.294 0.034 0.498 0.103 0.612s0.186 0.171 0.351 0.171c0.172 0 0.293-0.048 0.362-0.145s0.103-0.309 0.103-0.639v-0.389h1.071v0.421c0 0.574-0.131 1.006-0.391 1.296s-0.65 0.436-1.169 0.436c-0.466 0-0.832-0.154-1.1-0.462s-0.402-0.731-0.402-1.27v-2.512c0-0.486 0.147-0.882 0.441-1.188s0.674-0.459 1.139-0.459c0.476 0 0.842 0.142 1.098 0.425s0.383 0.69 0.383 1.222v1.425zM22.715 20.236c-0.165 0-0.284 0.051-0.357 0.152s-0.108 0.269-0.108 0.504v0.567h0.92v-0.567c0-0.234-0.036-0.402-0.108-0.504s-0.188-0.152-0.347-0.152zM18.889 20.215c-0.074 0-0.148 0.018-0.22 0.055s-0.144 0.094-0.215 0.171v3.489c0.085 0.091 0.167 0.157 0.246 0.197s0.163 0.060 0.252 0.060c0.127 0 0.221-0.040 0.281-0.118s0.090-0.207 0.090-0.386v-2.89c0-0.189-0.037-0.332-0.111-0.43s-0.182-0.147-0.323-0.147z"></path>
</svg>
