<?xml version="1.0" encoding="utf-8"?>
<!-- Generated by IcoMoon.io -->
<!DOCTYPE svg PUBLIC "-//W3C//DTD SVG 1.1//EN" "http://www.w3.org/Graphics/SVG/1.1/DTD/svg11.dtd">
<svg version="1.1" xmlns="http://www.w3.org/2000/svg" xmlns:xlink="http://www.w3.org/1999/xlink" width="32" height="32" viewBox="0 0 32 32">
<path fill="#444444" d="M23.39 7.056l0-0c-2.167-1.803-4.809-2.687-7.424-2.686-3.018-0.002-6.024 1.18-8.27 3.458l-2.257-1.883-0.038 7.254 7.13-1.338-2.361-1.97c1.604-1.528 3.688-2.31 5.796-2.312 1.899 0.002 3.795 0.634 5.371 1.943 2.004 1.666 3.032 4.053 3.034 6.473-0 0.35-0.022 0.699-0.066 1.047l3.267-0.625c0.005-0.141 0.009-0.282 0.009-0.422 0.002-3.328-1.43-6.646-4.192-8.941zM21.796 22.048c-1.61 1.555-3.712 2.352-5.841 2.354-1.899-0.001-3.796-0.634-5.371-1.943-2.004-1.666-3.032-4.054-3.034-6.473 0-0.401 0.030-0.801 0.087-1.198l-3.282 0.616c-0.010 0.194-0.016 0.388-0.016 0.582-0.002 3.328 1.431 6.647 4.193 8.942 2.166 1.801 4.809 2.686 7.423 2.684h0.008c3.037 0 6.064-1.199 8.313-3.509l2.156 1.787 0.013-7.255-7.125 1.363 2.475 2.050z"></path>
</svg>
