<?xml version="1.0" encoding="utf-8"?>
<!-- Generated by IcoMoon.io -->
<!DOCTYPE svg PUBLIC "-//W3C//DTD SVG 1.1//EN" "http://www.w3.org/Graphics/SVG/1.1/DTD/svg11.dtd">
<svg version="1.1" xmlns="http://www.w3.org/2000/svg" xmlns:xlink="http://www.w3.org/1999/xlink" width="32" height="32" viewBox="0 0 32 32">
<path fill="#444444" d="M14.963 25.005h1.733v-2.415h-1.733v2.415zM24.908 2.384h-6.788v0.807h-3.272v1.079h-1.345v-1.886h-6.438c-0.836 0-1.51 0.676-1.51 1.51v24.126c0 0.835 0.674 1.511 1.51 1.511h17.843c0.834 0 1.51-0.676 1.51-1.511v-24.126c0-0.834-0.676-1.51-1.51-1.51zM15.789 4.152h2.269v1.923h-1.345v-1.079h-0.924v-0.844zM15.789 7.716h2.269v1.923h-1.345v-1.079h-0.924v-0.844zM15.789 11.215h2.269v1.923h-1.345v-1.079h-0.924v-0.844zM15.789 14.87h2.269v0.845h-2.268v-0.845zM13.504 5.911h2.271v0.844h-0.926v1.079h-1.345v-1.924zM13.504 9.41h2.271v0.844h-0.926v1.079h-1.345v-1.923zM13.504 13.065h2.271v0.845h-0.926v1.080h-1.345v-1.925zM17.226 26.049h-2.794c-0.869 0-1.47-0.701-1.341-1.559l0.47-3.072c0.129-0.857 0.946-1.557 1.813-1.557h0.91c0.867 0 1.682 0.701 1.813 1.557l0.468 3.072c0.133 0.859-0.47 1.559-1.339 1.559zM16.67 18.818h-1.739l-2.083-2.020h5.905l-2.083 2.020z"></path>
</svg>
