<?xml version="1.0" encoding="utf-8"?>
<!-- Generated by IcoMoon.io -->
<!DOCTYPE svg PUBLIC "-//W3C//DTD SVG 1.1//EN" "http://www.w3.org/Graphics/SVG/1.1/DTD/svg11.dtd">
<svg version="1.1" xmlns="http://www.w3.org/2000/svg" xmlns:xlink="http://www.w3.org/1999/xlink" width="32" height="32" viewBox="0 0 32 32">
<path fill="#444444" d="M29.489 25.463l-0.168-0.168 0-0-6.72-6.72c0.934-1.608 1.476-3.473 1.489-5.466 0.039-6.101-4.875-11.078-10.975-11.116-0.025-0-0.048-0-0.073-0-6.066 0-11.004 4.899-11.043 10.975-0.039 6.101 4.875 11.077 10.975 11.116 0.024 0 0.048 0 0.072 0 2.028 0 3.928-0.549 5.563-1.505l6.882 6.882c0.508 0.508 1.331 0.507 1.838 0l2.16-2.16c0.507-0.507 0.508-1.331 0-1.838zM18.844 18.876c-1.552 1.542-3.611 2.391-5.798 2.391l-0.054-0c-4.537-0.029-8.205-3.744-8.176-8.281 0.014-2.188 0.877-4.243 2.43-5.785s3.611-2.391 5.797-2.391h0.055c2.198 0.014 4.259 0.883 5.803 2.447s2.387 3.636 2.373 5.835c-0.014 2.188-0.877 4.243-2.429 5.785zM14.898 7.237h-3.389v3.845h-3.845v3.389h3.845v3.845h3.389v-3.845h3.845v-3.389h-3.845v-3.845z"></path>
</svg>
