<?xml version="1.0" encoding="utf-8"?>
<!-- Generator: Adobe Illustrator 16.0.0, SVG Export Plug-In . SVG Version: 6.00 Build 0)  -->
<!DOCTYPE svg PUBLIC "-//W3C//DTD SVG 1.1//EN" "http://www.w3.org/Graphics/SVG/1.1/DTD/svg11.dtd">
<svg version="1.1" id="faved.svg_1_" xmlns="http://www.w3.org/2000/svg" xmlns:xlink="http://www.w3.org/1999/xlink" x="0px"
	 y="0px" width="13.036px" height="12.986px" viewBox="0 0 13.036 12.986" enable-background="new 0 0 13.036 12.986"
	 xml:space="preserve">
<g id="faved.svg">
	<g>
		<path fill="#E9DD5C" d="M13.024,4.93c-0.033-0.107-0.131-0.183-0.24-0.183L8.588,4.206L6.758,0.183
			C6.725,0.074,6.627,0.001,6.518,0c-0.109,0-0.207,0.074-0.24,0.183l-1.84,4.023L0.253,4.747c-0.109,0-0.207,0.073-0.24,0.183
			c-0.034,0.108,0.003,0.229,0.091,0.296l3.059,3.137l-0.774,4.278c-0.034,0.108,0.003,0.229,0.091,0.296
			c0.089,0.066,0.209,0.066,0.297,0l3.741-1.992l3.732,1.992c0.043,0.033,0.097,0.051,0.148,0.051c0.053,0,0.104-0.018,0.148-0.051
			c0.089-0.067,0.125-0.187,0.092-0.296L9.863,8.363l3.069-3.138C13.021,5.158,13.058,5.038,13.024,4.93z"/>
	</g>
</g>
</svg>
