<?xml version="1.0" encoding="utf-8"?>
<!-- Generator: Adobe Illustrator 16.0.0, SVG Export Plug-In . SVG Version: 6.00 Build 0)  -->
<!DOCTYPE svg PUBLIC "-//W3C//DTD SVG 1.1//EN" "http://www.w3.org/Graphics/SVG/1.1/DTD/svg11.dtd">
<svg version="1.1" id="agr-project.svg_1_" xmlns="http://www.w3.org/2000/svg" xmlns:xlink="http://www.w3.org/1999/xlink" x="0px"
	 y="0px" width="16.223px" height="12.009px" viewBox="0 0 16.223 12.009" enable-background="new 0 0 16.223 12.009"
	 xml:space="preserve">
<g id="agr-project.svg">
	<g>
		<path fill-rule="evenodd" clip-rule="evenodd" fill="#979BA8" d="M14.477,3.026V2.604c0-0.338-0.273-0.611-0.612-0.611H7.376
			C7.134,1.986,6.948,1.546,6.948,1.378V0.65C6.948,0.291,6.657,0,6.298,0H1.647c-0.359,0-0.65,0.291-0.65,0.65v0.728
			c0,0.17-0.158,0.614-0.402,0.614h0.006C0.268,1.998,0,2.27,0,2.604v7.048c0,0,0.075,0.447,0.395,0.447
			c0.625,0,0.614-1.426,0.614-1.426l0.902-5.646H14.477z M15.695,3.978V3.965H3.469v0.013C3.169,4.036,2.943,4.299,2.943,4.615
			l-1.321,6.743c0,0.359,0.074,0.65,0.433,0.65h12.336c0.359,0,0.433-0.291,0.433-0.65l1.398-6.743
			C16.223,4.298,15.996,4.034,15.695,3.978z"/>
	</g>
</g>
</svg>
