<?xml version="1.0" encoding="utf-8"?>
<!-- Generator: Adobe Illustrator 16.0.0, SVG Export Plug-In . SVG Version: 6.00 Build 0)  -->
<!DOCTYPE svg PUBLIC "-//W3C//DTD SVG 1.1//EN" "http://www.w3.org/Graphics/SVG/1.1/DTD/svg11.dtd">
<svg version="1.1" id="options.svg_1_" xmlns="http://www.w3.org/2000/svg" xmlns:xlink="http://www.w3.org/1999/xlink" x="0px"
	 y="0px" width="16.85px" height="3.482px" viewBox="0 0 16.85 3.482" enable-background="new 0 0 16.85 3.482"
	 xml:space="preserve">
<g id="options.svg">
	<g>
		<path fill-rule="evenodd" clip-rule="evenodd" fill="#9F9F9F" d="M1.742,0C0.78,0,0,0.779,0,1.741s0.78,1.741,1.742,1.741
			s1.742-0.779,1.742-1.741S2.704,0,1.742,0z M8.425,0C7.463,0,6.684,0.779,6.684,1.741s0.78,1.741,1.742,1.741
			s1.742-0.779,1.742-1.741S9.387,0,8.425,0z M15.108,0c-0.962,0-1.742,0.779-1.742,1.741s0.78,1.741,1.742,1.741
			s1.742-0.779,1.742-1.741S16.07,0,15.108,0z"/>
	</g>
</g>
</svg>
