<?xml version="1.0" encoding="utf-8"?>
<!-- Generator: Adobe Illustrator 16.0.0, SVG Export Plug-In . SVG Version: 6.00 Build 0)  -->
<!DOCTYPE svg PUBLIC "-//W3C//DTD SVG 1.1//EN" "http://www.w3.org/Graphics/SVG/1.1/DTD/svg11.dtd">
<svg version="1.1" id="database.svg_1_" xmlns="http://www.w3.org/2000/svg" xmlns:xlink="http://www.w3.org/1999/xlink" x="0px"
	 y="0px" width="11.847px" height="13.805px" viewBox="0 0 11.847 13.805" enable-background="new 0 0 11.847 13.805"
	 xml:space="preserve">
<g id="database.svg">
	<g>
		<path fill-rule="evenodd" clip-rule="evenodd" fill="#C3C3C3" d="M5.924,10.759c-1.676,0-3.263-0.227-4.47-0.639
			C0.814,9.904,0.344,9.656,0,9.396v2.39c0,0.628,0.838,1.187,2.155,1.558c1.023,0.288,2.337,0.461,3.769,0.461
			c3.271,0,5.923-0.904,5.923-2.019v-2.39c-0.345,0.26-0.815,0.508-1.454,0.724C9.187,10.532,7.598,10.759,5.924,10.759z
			 M5.924,6.903c-1.676,0-3.263-0.227-4.47-0.637C0.814,6.048,0.343,5.8,0,5.542v2.456c0.196,1.055,2.78,1.889,5.924,1.889
			c3.143,0,5.727-0.834,5.923-1.889V5.542c-0.345,0.258-0.815,0.506-1.454,0.725C9.187,6.677,7.598,6.903,5.924,6.903z M5.924,0
			C2.651,0,0,0.903,0,2.017v2.093c0.145,1.07,2.745,1.922,5.924,1.922c3.178,0,5.779-0.852,5.923-1.922V2.017
			C11.847,0.903,9.195,0,5.924,0z"/>
	</g>
</g>
</svg>
