<?xml version="1.0" encoding="utf-8"?>
<!-- Generator: Adobe Illustrator 16.0.0, SVG Export Plug-In . SVG Version: 6.00 Build 0)  -->
<!DOCTYPE svg PUBLIC "-//W3C//DTD SVG 1.1//EN" "http://www.w3.org/Graphics/SVG/1.1/DTD/svg11.dtd">
<svg version="1.1" id="share.svg_1_" xmlns="http://www.w3.org/2000/svg" xmlns:xlink="http://www.w3.org/1999/xlink" x="0px"
	 y="0px" width="20.776px" height="13.102px" viewBox="0 0 20.776 13.102" enable-background="new 0 0 20.776 13.102"
	 xml:space="preserve">
<g id="share.svg">
	<g>
		<path fill-rule="evenodd" clip-rule="evenodd" fill="#FFFFFF" d="M5.365,2.973L7.61,0.729L0,0l0.728,7.61l2.245-2.245L6.368,8.76
			L8.76,6.367L5.365,2.973z M13.166,0.729l2.245,2.244l-3.395,3.395l2.392,2.393l3.395-3.395l2.245,2.245L20.776,0L13.166,0.729z
			 M8.713,8.742c-0.997,0.997-0.997,2.614,0,3.611s2.613,0.997,3.611,0c0.997-0.997,0.997-2.614,0-3.611
			C11.327,7.745,9.71,7.745,8.713,8.742z"/>
	</g>
</g>
</svg>
