<?xml version="1.0" encoding="utf-8"?>
<!-- Generator: Adobe Illustrator 16.0.0, SVG Export Plug-In . SVG Version: 6.00 Build 0)  -->
<!DOCTYPE svg PUBLIC "-//W3C//DTD SVG 1.1//EN" "http://www.w3.org/Graphics/SVG/1.1/DTD/svg11.dtd">
<svg version="1.1" id="_x3E__x3E__1_" xmlns="http://www.w3.org/2000/svg" xmlns:xlink="http://www.w3.org/1999/xlink" x="0px"
	 y="0px" width="13.608px" height="10.474px" viewBox="0 0 13.608 10.474" enable-background="new 0 0 13.608 10.474"
	 xml:space="preserve">
<g id="_x3E__x3E_">
	<g>
		<path fill-rule="evenodd" clip-rule="evenodd" fill="#34363B" d="M13.564,5.181c0.028-0.153-0.014-0.314-0.146-0.432L8.278,0.146
			c-0.217-0.194-0.568-0.194-0.786,0c-0.217,0.194-0.217,0.509,0,0.703l4.914,4.401L7.519,9.625c-0.217,0.194-0.217,0.509,0,0.703
			c0.217,0.194,0.569,0.194,0.786,0l5.141-4.604C13.61,5.578,13.648,5.361,13.564,5.181z M6.089,4.749L0.948,0.146
			c-0.217-0.194-0.568-0.194-0.785,0s-0.217,0.509,0,0.703L5.076,5.25L0.189,9.625c-0.217,0.194-0.217,0.509,0,0.703
			s0.568,0.194,0.785,0l5.141-4.604C6.28,5.578,6.318,5.361,6.234,5.181C6.262,5.028,6.22,4.867,6.089,4.749z"/>
	</g>
</g>
</svg>
