<?xml version="1.0" encoding="utf-8"?>
<!-- Generator: Adobe Illustrator 16.0.0, SVG Export Plug-In . SVG Version: 6.00 Build 0)  -->
<!DOCTYPE svg PUBLIC "-//W3C//DTD SVG 1.1//EN" "http://www.w3.org/Graphics/SVG/1.1/DTD/svg11.dtd">
<svg version="1.1" id="listView.svg_1_" xmlns="http://www.w3.org/2000/svg" xmlns:xlink="http://www.w3.org/1999/xlink" x="0px"
	 y="0px" width="15.077px" height="13.719px" viewBox="0 0 15.077 13.719" enable-background="new 0 0 15.077 13.719"
	 xml:space="preserve">
<g id="listView.svg">
	<g>
		<path fill-rule="evenodd" clip-rule="evenodd" fill="#C3C3C3" d="M1.576,0C0.706,0,0,0.706,0,1.576
			c0,0.871,0.706,1.576,1.576,1.576c0.87,0,1.576-0.705,1.576-1.576C3.152,0.706,2.446,0,1.576,0z M1.576,10.567
			C0.706,10.567,0,11.272,0,12.144c0,0.87,0.706,1.575,1.576,1.575c0.87,0,1.576-0.705,1.576-1.575
			C3.152,11.272,2.446,10.567,1.576,10.567z M1.576,5.286C0.706,5.286,0,5.992,0,6.862s0.706,1.576,1.576,1.576
			c0.87,0,1.576-0.706,1.576-1.576S2.446,5.286,1.576,5.286z M5.013,1.13v2.011h10.064V1.13H5.013z M5.013,13.151h10.064v-2H5.013
			V13.151z M5.013,8.136h10.064V6.157H5.013V8.136z"/>
	</g>
</g>
</svg>
