<?xml version="1.0" encoding="utf-8"?>
<!-- Generator: Adobe Illustrator 16.0.0, SVG Export Plug-In . SVG Version: 6.00 Build 0)  -->
<!DOCTYPE svg PUBLIC "-//W3C//DTD SVG 1.1//EN" "http://www.w3.org/Graphics/SVG/1.1/DTD/svg11.dtd">
<svg version="1.1" id="search.svg_1_" xmlns="http://www.w3.org/2000/svg" xmlns:xlink="http://www.w3.org/1999/xlink" x="0px"
	 y="0px" width="20px" height="19.984px" viewBox="0 0 20 19.984" enable-background="new 0 0 20 19.984" xml:space="preserve">
<g id="search.svg">
	<g>
		<path fill-rule="evenodd" clip-rule="evenodd" fill="#FFFFFF" d="M11.283,0c-0.02,0-0.038,0-0.058,0.001
			C6.41,0.03,2.531,3.959,2.562,8.775C2.572,10.349,3,11.82,3.737,13.09l-3.304,3.305l-0.132,0.133c-0.401,0.4-0.401,1.051,0,1.451
			l1.705,1.705c0.401,0.4,1.05,0.4,1.451,0l0.133-0.133l0,0.001l3.3-3.301c1.291,0.754,2.79,1.188,4.391,1.188h0.057
			c4.815-0.031,8.693-3.959,8.663-8.774C19.97,3.868,16.072,0.001,11.283,0z M11.323,15.215H11.28c-1.726,0-3.352-0.67-4.577-1.887
			c-1.226-1.218-1.907-2.84-1.917-4.567C4.774,7.025,5.44,5.39,6.659,4.155c1.219-1.234,2.846-1.92,4.581-1.932h0.044
			c1.726,0,3.351,0.671,4.576,1.888c1.226,1.218,1.907,2.839,1.918,4.566C17.8,12.26,14.904,15.192,11.323,15.215z"/>
	</g>
</g>
</svg>
