<?xml version="1.0" encoding="utf-8"?>
<!-- Generator: Adobe Illustrator 16.0.0, SVG Export Plug-In . SVG Version: 6.00 Build 0)  -->
<!DOCTYPE svg PUBLIC "-//W3C//DTD SVG 1.1//EN" "http://www.w3.org/Graphics/SVG/1.1/DTD/svg11.dtd">
<svg version="1.1" id="unlocked_1_" xmlns="http://www.w3.org/2000/svg" xmlns:xlink="http://www.w3.org/1999/xlink" x="0px"
	 y="0px" width="12.984px" height="11.085px" viewBox="0 0 12.984 11.085" enable-background="new 0 0 12.984 11.085"
	 xml:space="preserve">
<g id="unlocked">
	<g>
		<path fill="#C4C9D1" d="M12.536,5.046H6.972V3.411c0-0.925-0.409-1.773-1.03-2.394C5.324,0.397,4.442,0,3.47,0
			S1.616,0.397,0.998,1.018c-0.55,0.55-0.908,1.277-0.983,2.08C0.005,3.201,0,3.947,0,4.053h1.943c0-0.109,0.009-0.857,0.027-0.961
			c0.11-0.658,0.63-1.553,1.5-1.553c0.725,0.002,1.527,0.788,1.527,1.872v1.635H4.404c-0.248,0-0.448,0.188-0.448,0.419v5.201
			c0,0.231,0.201,0.419,0.448,0.419h8.132c0.247,0,0.448-0.188,0.448-0.419V5.465C12.984,5.233,12.783,5.046,12.536,5.046z"/>
	</g>
</g>
</svg>
