<?xml version="1.0" encoding="utf-8"?>
<!-- Generator: Adobe Illustrator 16.0.0, SVG Export Plug-In . SVG Version: 6.00 Build 0)  -->
<!DOCTYPE svg PUBLIC "-//W3C//DTD SVG 1.1//EN" "http://www.w3.org/Graphics/SVG/1.1/DTD/svg11.dtd">
<svg version="1.1" id="chart-switch-matrix_1_" xmlns="http://www.w3.org/2000/svg" xmlns:xlink="http://www.w3.org/1999/xlink"
	 x="0px" y="0px" width="11.991px" height="12.991px" viewBox="0 0 11.991 12.991" enable-background="new 0 0 11.991 12.991"
	 xml:space="preserve">
<g id="chart-switch-matrix">
	<g>
		<path fill-rule="evenodd" clip-rule="evenodd" fill="#00AEEF" d="M11.037,0.991h0.954V0H0v0.991h1.034v0.724
			c0,1.262,1.101,2.56,2.484,3.818c-1.132,2.004-2.484,4.138-2.484,5.588V12H0v0.991h11.991V12h-0.943v-0.785
			c0-1.426-1.381-2.885-2.993-4.278c1.483-1.57,2.982-3.289,2.982-5.128V0.991z M3.048,1.715V0.991h1.986v0.724
			c0,0.599-0.25,1.331-0.625,2.13C3.601,3.069,3.048,2.351,3.048,1.715z M4.891,6.714c0.127,0.105,0.251,0.208,0.378,0.313
			C4.587,7.794,3.957,8.572,3.525,9.34C3.875,8.519,4.374,7.621,4.891,6.714z M9.034,11.246V12H5.162v-0.91
			c0-0.852,0.706-1.79,1.623-2.8C8.053,9.379,9.034,10.386,9.034,11.246z M6.522,5.658c-0.241-0.196-0.476-0.39-0.708-0.581
			C6.5,3.819,7.042,2.639,7.042,1.746V0.991h1.991v0.817C9.034,2.889,7.847,4.227,6.522,5.658z"/>
	</g>
</g>
</svg>
