<?xml version="1.0" encoding="utf-8"?>
<!-- Generator: Adobe Illustrator 16.0.0, SVG Export Plug-In . SVG Version: 6.00 Build 0)  -->
<!DOCTYPE svg PUBLIC "-//W3C//DTD SVG 1.1//EN" "http://www.w3.org/Graphics/SVG/1.1/DTD/svg11.dtd">
<svg version="1.1" id="locked_column_1_" xmlns="http://www.w3.org/2000/svg" xmlns:xlink="http://www.w3.org/1999/xlink" x="0px"
	 y="0px" width="9.028px" height="11.085px" viewBox="0 0 9.028 11.085" enable-background="new 0 0 9.028 11.085"
	 xml:space="preserve">
<g id="locked_column">
	<g>
		<path fill="#C4C9D1" d="M8.58,5.046H7.984V3.411c0-0.925-0.376-1.773-0.997-2.394C6.368,0.397,5.486,0,4.514,0
			S2.66,0.397,2.042,1.018C1.42,1.638,1.044,2.486,1.044,3.411v1.635H0.448C0.201,5.046,0,5.233,0,5.465v5.201
			c0,0.231,0.201,0.419,0.448,0.419H8.58c0.248,0,0.448-0.188,0.448-0.419V5.465C9.028,5.233,8.828,5.046,8.58,5.046z M6.041,5.046
			H2.987V3.411c0-0.534,0.216-1.006,0.553-1.342c0.339-0.336,0.485-0.529,0.974-0.53c0.489,0.001,0.635,0.193,0.974,0.53
			c0.336,0.336,0.553,0.808,0.553,1.342V5.046z"/>
	</g>
</g>
</svg>
