<?xml version="1.0" encoding="utf-8"?>
<!-- Generator: Adobe Illustrator 16.0.0, SVG Export Plug-In . SVG Version: 6.00 Build 0)  -->
<!DOCTYPE svg PUBLIC "-//W3C//DTD SVG 1.1//EN" "http://www.w3.org/Graphics/SVG/1.1/DTD/svg11.dtd">
<svg version="1.1" id="chart-switch-matrix-basic_1_"
	 xmlns="http://www.w3.org/2000/svg" xmlns:xlink="http://www.w3.org/1999/xlink" x="0px" y="0px" width="14.855px"
	 height="14.855px" viewBox="0 0 14.855 14.855" enable-background="new 0 0 14.855 14.855" xml:space="preserve">
<g id="chart-switch-matrix-basic">
	<g>
		<path fill-rule="evenodd" clip-rule="evenodd" fill="#00AEEF" d="M11.141,0.996C7.589-1.055,3.046,0.162,0.996,3.714
			c-2.051,3.553-0.834,8.095,2.718,10.146c3.552,2.051,8.094,0.833,10.145-2.719S14.693,3.047,11.141,0.996z M12.758,4.917
			c-0.605,0.017-1.409,0.014-2.249-0.06c0.178-0.841,0.436-1.584,0.633-2.086C11.854,3.363,12.399,4.102,12.758,4.917z M10.105,2.09
			C9.884,2.694,9.567,3.652,9.341,4.701C8.893,4.62,8.455,4.513,8.055,4.368C7.12,4.03,5.828,2.843,4.925,1.97
			C6.527,1.225,8.437,1.22,10.105,2.09z M5.352,12.761c-0.3-0.112-0.595-0.244-0.881-0.409C2.837,11.41,1.835,9.799,1.599,8.064
			C2.561,8.143,4.392,8.417,4.97,9.375C5.677,10.546,5.511,11.998,5.352,12.761z M6.84,13.106c0.057-1.015,0.025-3.118-1.002-4.757
			C4.859,6.788,2.666,6.525,1.594,6.493C1.693,5.758,1.932,5.03,2.326,4.348C2.568,3.928,2.859,3.555,3.18,3.22
			C3.929,4.117,5.604,5.9,7.592,6.594C8.098,6.77,8.593,6.892,9.074,6.986c0.001,0.217,0.01,0.432,0.033,0.638
			c0.227,1.98,1.084,3.659,1.582,4.497C9.562,12.883,8.197,13.236,6.84,13.106z M12.475,10.207
			c-0.264,0.457-0.586,0.856-0.942,1.211c-0.355-0.899-0.911-2.434-1.147-3.771c-0.028-0.16-0.048-0.322-0.062-0.485
			c1.255,0.104,2.307-0.005,2.927-0.108C13.292,8.122,13.049,9.213,12.475,10.207z"/>
	</g>
</g>
</svg>
